<svg xmlns="http://www.w3.org/2000/svg" width="5429.679" height="1000" viewBox="0 0 5429.679 1000"><path d="M4206.271 996.434c-9.908-1.892-11.313-4.781-10-20.572 1.328-15.988 3.797-19.138 19.032-24.336 9.626-3.28 37.982-6.093 63.012-6.249 48.264-.282 43.028 1.623 91.321-33.57 10.517-7.667 13.242-7.822 24.601-1.413 7.027 3.957 13.621 9.764 14.659 12.897 1.035 3.133-11.926 21.699-28.797 41.254L4349.422 1000l-65.808-.681c-36.199-.362-71.002-1.678-77.343-2.885m-60.459-19.933-16.989-13.381 19.373-16.262c24.054-20.198 18.97-27.565-8.406-12.178l-20.396 11.459 13.617-20.572c7.49-11.316 15.265-20.572 17.275-20.572 6.119 0 29.765 20.189 34.912 29.811 3.776 7.056 3.04 8.886-3.351 8.36-8.987-.736-29.883 30.173-24.219 35.816 1.939 1.935 7.839-1.795 13.1-8.288 10.034-12.372 11.426-10.623 6.421 8.053-3.911 14.6-10.563 14.125-31.337-2.246m-45.518-42.608c0-3.818 8.268-14.693 18.364-24.167l18.365-17.233-12.793 22.309c-13.086 22.826-23.936 31.476-23.936 19.091m-15-25.492c0-9.84 26.249-37.17 28.684-29.87 2.822 8.466-7.241 25.337-18.797 31.523-7.641 4.092-9.887 3.717-9.887-1.653m320.852-12.641c-11.459-10.576-20.833-22.569-20.833-26.644 0-20.757 98.571-129.131 117.449-129.131 12.716 0 8.456 17.46-9.895 40.547-12.776 16.073-17.465 26.901-17.502 40.413-.026 10.147 2.199 19.844 4.953 21.543 10.337 6.388 4.277 22.221-17.965 46.964-12.632 14.046-25.757 25.543-29.171 25.543-3.411 0-15.581-8.654-27.036-19.235m-349.103 6.577c-2.414-6.291 1.459-12.721 13.659-22.679 23.448-19.138 15.076-23.831-13.074-7.334-12.717 7.452-24.21 12.461-25.539 11.136-4.617-4.622 29.298-38.47 38.545-38.47 14.933 0 21.06 16.973 13.049 36.136-3.763 9.003-10.538 19.432-15.054 23.179-7.053 5.85-8.697 5.568-11.586-1.968m252.017-45.555c-10.316-12.746-18.752-27.032-18.752-31.741 0-4.719 15.282-26.346 33.962-48.066 54.399-63.26 67.074-84.993 52.772-90.481-5.812-2.233-23.478 12.982-62.642 53.941-63.066 65.968-64.029 59.521-1.934-12.944 23.566-27.493 42.843-52.809 42.843-56.249 0-3.444-4.647-6.262-10.328-6.262-6.569 0-29.319 19.58-62.457 53.752-28.667 29.563-52.124 51.502-52.128 48.751-.004-2.746 22.704-31.888 50.467-64.756 41.88-49.576 48.958-60.287 41.557-62.886-13.466-4.722-31.456.202-34.454 9.441-3.915 12.061-80.976 93.752-84.896 89.997-1.841-1.758 6.451-15.261 18.428-30.001l45.286-55.744c12.94-15.921 23.52-32.099 23.52-35.955 0-20.03-14.924-10.576-63.196 40.034-28.419 29.794-52.806 53.041-54.189 51.657-1.384-1.383 16.43-25.387 39.58-53.348 50.563-61.056 60.059-82.099 33.204-73.575-9.058 2.877-36.51 31.292-89.471 92.629-25.824 29.912-22.792 12.944 3.693-20.652 76.884-97.524 77.994-99.353 60.433-99.353-6.026 0-30.833 21.195-62.927 53.756-57.221 58.053-62.25 56.375-11.232-3.751 58.381-68.807 62.027-75.005 44.104-75.005-6.118 0-30.353 20.845-62.49 53.751-28.869 29.567-52.498 51.359-52.506 48.428-.005-2.931 17.893-26.556 39.781-52.503 46.153-54.714 54.235-67.654 46.872-75.017-7.919-7.918-27.078 3.141-43.449 25.072-16.102 21.577-73.217 79.311-73.217 74.016 0-1.892 14.516-21.278 32.258-43.078 48.075-59.059 62.318-85.371 46.493-85.871-3.44-.122-29.146 24.058-57.132 53.705-55.207 58.478-72.633 67.86-29.988 16.144 55.299-67.061 70.224-94.652 51.203-94.652-6.186 0-55.501 50.892-94.075 97.087l-12.175 14.579-44.546-25.45c-48.6-27.763-82.057-42.191-132.053-56.947-40.114-11.838-118.214-24.139-155.01-24.416-15.126-.122-33.124-3.423-40-7.355-7.292-4.168-26.434-7.216-45.93-7.321-57.523-.32-68.819-10.644-51.497-47.146 15.904-33.511 61.556-43.608 92.936-20.551 27.881 20.484 54.828 31.166 94.496 37.457 84.509 13.397 176.389 40.933 236.15 70.774 21.253 10.61 42.431 19.294 47.061 19.294 4.626 0 25.345-12.747 46.039-28.319 20.69-15.576 46.611-33.423 57.599-39.663 23.92-13.588 24.588-13.335 93.138 35.185 25.093 17.759 61.876 40.004 81.738 49.433 35.462 16.833 69.163 41.568 160.299 117.675 25.16 21.009 53.47 44.037 62.915 51.174l17.174 12.973-16.989 22.027c-18.019 23.364-150.228 159.547-154.858 159.514-1.501-.009-11.169-10.446-21.485-23.188Zm115.417-108.639c.98-5.071-.837-11.795-4.029-14.941-7.317-7.208-20.862 9.067-16.661 20.013 3.806 9.908 18.499 6.308 20.69-5.072m-534.374-265.456c7.494-9.033 2.679-17.721-9.819-17.721-5.177 0-10.862 2.351-12.637 5.223-3.314 5.362 5.896 19.782 12.637 19.782 2.077 0 6.493-3.276 9.819-7.284m-145.438-37.237c8.94-5.661 2.796-15.484-9.685-15.484-9.395 0-13.171 9.87-6.371 16.669 4.357 4.357 7.691 4.113 16.056-1.19Zm255.725 409.73c-4.159-7.772-3.507-12.974 2.826-22.641 9.411-14.361 2.986-16.653-14.529-5.177-10.551 6.913-13.196 5.929-42.398-15.715l-31.148-23.091 10.072-17.069c17.178-29.117 12.468-35.867-9.836-14.092-23.377 22.83-30.741 20.492-15.711-4.983 13.785-23.365 13.394-25.337-2.553-12.793-12.573 9.891-26.829 13.789-26.829 7.334 0-6.884 31.354-41.972 37.502-41.972 3.663 0 13.81 9.028 22.553 20.063 14.369 18.146 15.366 21.556 10.421 35.749-7.616 21.838-7.095 22.405 6.791 7.422 22.507-24.281 32.137-10.53 11.846 16.914-11.602 15.689-9.449 25.517 3.272 14.958 6.455-5.358 7.624-4.555 7.624 5.223v11.547l14.025-13.436c24.31-23.292 30.975-18.713 30.975 21.271 0 36.152-5.664 47.742-14.899 30.488Zm20.349-1.439c7.292-14.142 24.971-33.751 30.425-33.751 9.138 0 3.2 13.936-12.359 29.021-19.319 18.725-26.211 20.53-18.066 4.73m229.565-34.184-17.502-15.168 18.692 11.551c10.277 6.355 18.713 13.239 18.747 15.299.126 5.45-.715 4.979-19.937-11.682m-1907.072-72.482c-1.67-4.348-3.037-14.504-3.037-22.565 0-8.066-2.758-19.079-6.131-24.479-5.362-8.587-3.675-12.325 13.516-29.933 20.223-20.706 15.812-27.574-7.523-11.711l-12.364 8.402 9.344-10.703c6.11-6.997 8.289-14.668 6.3-22.153-4.147-15.614-102.604-138.962-110.918-138.962-3.663 0-14.802 4.806-24.756 10.681l-18.1 10.677-16.177-15.677c-12.994-12.599-20.556-15.757-38.44-16.064-34.319-.593-60.964-10.48-69.572-25.816-14.899-26.548-17.305-26.304 258.825-26.304 240.035 0 254.442.505 271.011 9.546 9.626 5.248 29.941 15.715 45.143 23.255 31.754 15.749 45.43 34.47 34.664 47.439-3.688 4.445-41.716 32.965-84.508 63.382-42.793 30.412-91.305 69.143-107.806 86.06-35.354 36.25-66.271 61.384-97.945 79.627-26.303 15.147-37.212 16.539-41.526 5.298m92.069-92.284c8.52-15.917 1.468-30.686-13.776-28.852-18.995 2.283-25.686 15.938-14.092 28.751 11.804 13.041 20.925 13.074 27.868.122Zm55.257-107.36c67.722-44.777 79.795-56.964 66.986-67.595-17.368-14.416-232.349-17.763-232.349-3.621 0 11.354 86.384 113.765 95.96 113.765 2.779 0 34.012-19.147 69.403-42.549m155.035-40.383 12.12-12.927-11.804-9.575c-14.992-12.162-23.979-12.132-30.522.122-6.279 11.732 1.291 35.328 11.329 35.328 3.713 0 12.208-5.816 18.877-12.923Zm-383.258-29.933c8.734-8.734 9.42-12.14 4.029-20.009-9.996-14.604-41.174-9.524-41.174 6.704 0 19.823 22.545 27.901 37.145 13.305m3013.957 262.971c-39.87-28.886-39.033-23.604-26.825-169.244 17.527-209.09 18.171-225.864 9.445-246.684-7.515-17.94-8.352-18.373-41.863-21.712-18.806-1.876-56.691-7.965-84.194-13.533-57.481-11.64-84.803-10.176-306.781 16.439-141.574 16.976-162.773 21.808-226.158 51.535-58.109 27.254-72.608 30.295-205.54 43.116-118.046 11.384-169.59 18.554-175.485 24.408-7.145 7.09 1.963 19.769 29.419 40.95l27.154 20.947 111.384-6.392c61.262-3.516 121.881-4.819 134.707-2.898 17.885 2.679 35.37 12.095 75.043 40.388 28.448 20.29 61.173 39.84 72.725 43.448l21.005 6.556v108.723l-28.751-3.352c-34.706-4.045-70.152-14.874-103.676-31.67-22.856-11.45-28.663-12.241-70.03-9.524l-45.106 2.964-39.975-35.345c-62.532-55.286-95.152-78.92-148.083-107.297-50.442-27.04-114.198-71.531-131.911-92.053l-10-11.585 10 4.596c15.736 7.237 122.907 4.159 272.273-7.813l137.268-11.001 45.245-22.734c62.83-31.569 99.832-44.63 137.747-48.629 17.876-1.888 99.45-11.148 181.275-20.581 164.745-18.991 204.59-20.58 240.797-9.596 33.609 10.193 55.745 9.457 161.292-5.37 107.146-15.055 128.454-14.794 130.78 1.585.971 6.821-1.548 12.481-6.371 14.332-5.429 2.085-7.612 8.334-6.851 19.621.665 9.899-4.264 27.276-12.25 43.176-7.35 14.634-16.724 40.105-20.832 56.606-11.447 45.981-27.377 163.862-32.452 240.112-4.243 63.756-5.463 69.479-17.456 81.998-7.095 7.401-12.898 17.271-12.898 21.935 0 13.368-20.967 10.311-44.071-6.426Zm-871.895-201.747c1.135-9.571-.686-13.364-6.409-13.364-9.47 0-14.979 11.787-10.707 22.914 4.517 11.775 15.303 5.757 17.116-9.55m907.198-24.617c4.067-11.052-1.741-18.751-14.146-18.751-12.94 0-15.888 9.201-6.085 19.003 7.784 7.78 17.317 7.662 20.231-.24Zm16.27-86.321c0-7.12-3.894-10.383-13.751-11.514-10.908-1.258-13.751.462-13.751 8.33 0 5.454 2.813 11.077 6.253 12.498 11.699 4.828 21.249.639 21.249-9.314m8.991-65.594c4.811-4.811-5.912-21.842-13.751-21.842-7.851 0-12.38 9.466-8.97 18.747 2.401 6.531 17.263 8.554 22.721 3.095M2680.488 706.671c-11.152-15.576-20.273-30.904-20.273-34.066 0-9.382 23.789-29.126 89.959-74.656l62.456-42.974h162.987l20.77-19.954c20.273-19.483 45.791-29.209 61.152-23.314 4.063 1.556 10.682 10.724 14.71 20.371 4.979 11.917 11.687 18.633 20.93 20.954 17.052 4.281 141.322-1.463 173.773-8.027 27.343-5.534 43.298-.24 43.298 14.386 0 7.981-6.367 9.453-53.281 12.325-29.302 1.796-91.998 3.259-139.324 3.259s-98.146 2.297-112.94 5.101c-36.864 6.99-46.384 17.822-49.475 56.288l-2.498 31.119-17.502-.745c-9.626-.404-31.128-2.367-47.776-4.356l-30.278-3.617-73.449 38.108c-40.4 20.959-75.593 38.108-78.209 38.108-2.611 0-13.877-12.742-25.03-28.318Zm258.741-67.692c16.813-16.808-3.65-39.693-23.226-25.98-10.454 7.322-14.23 21.859-7.443 28.646 5.433 5.434 24.201 3.802 30.669-2.666m123.777-104.441c5.152-8.339-6.438-17.898-13.335-11.001-5.769 5.769-2.161 16.438 5.564 16.438 2.426 0 5.925-2.447 7.771-5.437m1971.093 191.999c-7.044-1.838-8.187-5.871-5.87-20.669 1.581-10.114 4.398-38.638 6.253-63.39 3.251-43.432 3.793-45 15.551-45 16.539 0 21.939 22.174 19.273 79.126-2.397 51.115-6.8 57.359-35.207 49.933m-1186.17-6.316c-1.619-2.616-6.275-41.435-10.341-86.254-9.437-103.937-11.19-113.878-20.723-117.537-10.48-4.02-22.705 12.847-39.446 54.437-17.716 44.012-37.582 67.805-60.139 72.036-19.849 3.721-117.078-9.029-155.233-20.358-35.997-10.69-57.683-26.972-70.156-52.675-13.049-26.892-48.457-100.875-50.799-106.149-.917-2.064 16.198-3.751 38.032-3.751h39.702l3.423 41.25c4.029 48.532 14.357 72.431 36.901 85.408 17.422 10.021 92.675 23.255 132.6 23.314 31.876.038 42.242-11.068 60.593-64.967 7.957-23.377 16.649-45.316 19.315-48.755 7.141-9.21 21.64-7.73 64.694 6.61 44.832 14.929 41.644 7.729 46.325 104.648 1.593 33.003 4.121 66.846 5.614 75.211 2.144 12.01-.122 18.053-10.829 28.751-13.974 13.974-24.407 17.078-29.533 8.781m-345.575-228.282c12.801-4.916 9.882-21.969-3.76-21.969-15.454 0-19.045 4.328-12.981 15.657 5.601 10.471 5.753 10.525 16.741 6.312m1451.475 229.295c-1.16-2.065-.378-17.25 1.783-33.751 2.137-16.502 4.113-43.504 4.386-60.005.589-35.501 4.837-43.962 20.913-41.687 11.893 1.678 11.935 1.905 11.123 63.151-.526 39.609-2.96 64.058-6.863 68.755-6.32 7.612-27.7 10.026-31.337 3.537Zm-144.488-7.313c-7.582-5.795-7.906-12.157-3.255-63.941 2.843-31.627 6.897-60.879 9.004-65.004s10.341-7.498 18.288-7.498h14.458l-1.825 37.502c-4.054 83.289-7.401 102.394-18.213 103.941-5.521.791-13.827-1.455-18.457-5m75.648-1.863c-5.328-6.413-5.496-17.632-.883-58.89 3.133-28.032 7.183-54.841 9-59.58 3.309-8.621 24.512-12.061 29.058-4.706 3.915 6.333-7.885 118.029-13.188 124.854-6.619 8.511-16.085 7.851-23.991-1.678Zm246.613-.652-26.249-1.942.084-50.993c.038-28.045 1.733-53.478 3.751-56.523 2.019-3.04 12.128-7.082 22.46-8.983 31.405-5.773 35.749-17.884 32.124-89.504-3.494-69.105-8.848-92.633-25.467-111.956-16.24-18.882-46.682-19.874-205.456-6.695-179.181 14.874-252.361 23.911-265.994 32.843-10.274 6.728-11.518 11.459-11.493 43.684.017 19.874 2.409 44.706 5.319 55.185 2.91 10.476 4.5 21.418 3.537 24.315-.967 2.898-29.416-15.362-63.222-40.576l-61.468-45.846-122.663 5.904c-133.05 6.401-146.262 5.042-174.051-17.91l-15-12.393 15-.038c31.287-.122 251.226-20.281 277.517-25.437 15.127-2.965 51.515-16.451 80.863-29.963 65.518-30.164 87.389-34.869 254.157-54.651 177.293-21.03 237.845-23.697 280.015-12.338 17.876 4.815 47.771 9.012 66.439 9.323 24.247.408 35.29 2.708 38.675 8.07 6.762 10.698 5.896 64.239-2.67 165.01-13.373 157.326-18.411 195.426-25.114 189.862-8.776-7.283-22.326-.445-22.326 11.266 0 8.074 2.507 9.571 12.742 7.612 9.79-1.872 12.389-.555 11.203 5.668-1.644 8.659-29.075 10.989-82.696 7.023Zm8.751-26.955c0-6.762-3.57-9.466-12.498-9.466-8.986 0-12.502 2.691-12.502 9.583 0 5.27 2.813 10.564 6.249 11.763 10.269 3.587 18.751-1.796 18.751-11.88m-58.844 5.534c0-9.626 1.03-13.562 2.284-8.751 1.257 4.815 1.257 12.687 0 17.502-1.254 4.811-2.284.875-2.284-8.751m-348.678-3.621c-20.017-4.92-22.502-11.215-22.502-56.994v-44.39h25.332c28.108 0 44.672-6.556 44.672-17.679 0-4.029 3.566-7.326 7.923-7.326 6.968 0 7.494 6.762 4.378 56.254-1.947 30.942-5.593 60.194-8.1 65.005-4.52 8.692-27.817 11.001-51.703 5.13m5.765-19.067c3.768-9.819-13.2-29.377-19.781-22.8-6.855 6.854.336 30.488 9.268 30.488 4.159 0 8.89-3.461 10.513-7.688m272.147 4.769c.253-5.824 1.426-7.01 3.024-3.023 1.442 3.612 1.266 7.922-.421 9.583-1.661 1.661-2.847-1.286-2.624-6.56ZM2975.23 643.954c0-25.273 2.052-34.281 9.311-40.85 15.349-13.89 61.363-18.065 199.454-18.095l131.255-.025v25.328c0 57.78-7.94 60.388-193.761 63.567l-146.259 2.498Zm1961.543 3.528c.042-13.751 1.009-18.78 2.157-11.181 1.148 7.603 1.119 18.852-.084 25.004-1.186 6.148-2.128-.08-2.09-13.823Zm-2624.08 7.503c4.979-5.501 10.177-10.001 11.552-10.001s-1.573 4.5-6.552 10.001c-4.975 5.5-10.172 10-11.548 10s1.573-4.5 6.548-10m2554.47-37.507c.017-27.502.854-38.112 1.863-23.583 1.014 14.529 1.001 37.031-.025 50-1.026 12.973-1.854 1.085-1.842-26.417Zm-844.607 6.758-19.765-20.741 23.495 15.808c25.833 17.376 33.209 25.677 22.818 25.677-3.735 0-15.678-9.335-26.548-20.744m-1732.365 6.947c0-2.09 5.063-6.909 11.253-10.711 11.211-6.888 11.215-6.871 1.724 3.802-10.189 11.455-12.977 12.939-12.977 6.909m2801.423-23.705c.038-11.001 1.077-14.912 2.275-8.692 1.195 6.219 1.148 15.218-.126 20-1.249 4.781-2.233-.32-2.178-11.308Zm-75.29-15c.126-8.251 1.223-11.022 2.489-6.157s1.186 11.615-.168 15c-1.371 3.39-2.405-.597-2.305-8.843Zm-2758.631-2.502c4.974-5.501 9.903-10.001 10.95-10.001s-.509 4.5-3.452 10.001-7.873 10-10.951 10-1.526-4.5 3.453-10m2868.043-22.04c-3.953-4.765-5.362-27.132-4.361-69.214 2.031-85.388 7.212-81.069-92.192-76.818-152.831 6.531-325.15 25.076-334.183 35.959-7.266 8.756-1.139 47.049 10.631 66.401 5.122 8.428 20.093 20.93 33.26 27.784l23.94 12.461-24.079.239c-32.414.32-40.047-4.802-53.44-35.82-13.049-30.215-19.593-90.518-10.434-96.174 11.081-6.85 177.42-24.382 388.999-41.001 65.299-5.131 71.897 3.276 82.111 104.521 2.986 29.588 4.02 59.399 2.301 66.25-3.466 13.801-13.579 16.232-22.553 5.42Zm-2883.048-7.965c4.979-5.5 9.849-10 10.82-10s-1.043 4.5-4.478 10c-3.436 5.501-8.301 10.004-10.816 10.004s-.501-4.503 4.474-10.004m1427.586 8.751c0-.689 4.655-13.494 10.345-28.461 5.689-14.971 10.849-35.219 11.463-45.004.887-14.105 3.406-18.121 12.153-19.387 9.042-1.308 11.039.829 11.039 11.834 0 10.971 1.834 12.952 10 10.816 5.749-1.501 9.992-.16 9.975 3.166-.05 11.3-22.746 43.075-39.702 55.585-14.907 10.997-25.282 15.699-25.273 11.451m-966.64-64.769c-15.265-19.811-26.792-37.574-25.614-39.479 4.197-6.791 44.933 6.304 57.767 18.57 20.514 19.605 53.672 26.935 121.482 26.851 66.308-.08 83.243-4.887 87.948-24.967 2.595-11.059 6.27-12.821 32.721-15.668 16.388-1.762 100.022-3.449 185.86-3.751 146.506-.509 156.612.025 165.009 8.839 4.921 5.156 14.012 10.934 20.202 12.839 6.191 1.896 13.533 7.712 16.313 12.91 7.54 14.087-7.62 19.874-52.066 19.874-21.295 0-47.851 3.456-61.114 7.96-24.101 8.184-144.989 11.905-156.457 4.815-2.994-1.85-5.446-7.607-5.446-12.788 0-16.447-19.281-24.992-56.396-24.992h-34.172l-9.954 22.503-9.954 22.502h-248.374Zm-1307.189-.017c-2.906-3.557-6.905-28.97-8.886-56.468-1.976-27.502-5.858-52.818-8.621-56.254-3.297-4.104-19.411-6.253-46.913-6.253-36.775 0-43.26 1.375-53.129 11.253-10.896 10.905-14.74 11.3-125.01 12.839l-113.765 1.585v-94.605l86.254-3.566c95.27-3.945 906.396-1.585 910.626 2.649 1.459 1.464 4.226 23.503 6.152 48.987l3.495 46.334-233.156-1.485-233.156-1.48-7.876-11.253c-6.859-9.799-12.28-11.249-41.969-11.249-18.751 0-41.055 1.387-49.567 3.095l-15.471 3.091-1.405 58.158-1.404 58.163-30.459 1.468c-20.408.984-32.199-.665-35.74-5Zm-259.17-162.365c4.075-10.618-8.805-23.965-19.26-19.953-10.008 3.839-10.021 10.5-.033 20.488 10.08 10.075 15.277 9.932 19.293-.53Zm337.69 1.106c8.074-9.726 2.385-17.716-12.615-17.716-19.029 0-15.938 22.17 3.435 24.605 1.724.202 5.854-2.881 9.18-6.889m47.684-8.132c0-8.722-2.763-12.086-9.933-12.086-11.733 0-16.695 16.812-6.808 23.07 10.344 6.551 16.741 2.35 16.741-10.984m346.739 3.221c2.776-14.328-7.838-21.329-17.578-11.59-6.922 6.922-7.203 9.584-1.711 16.203 7.965 9.596 16.951 7.447 19.289-4.613m50.602-.08c6.783-8.171 3.011-17.721-7.002-17.721-8.991 0-19.424 13.356-15.454 19.781 4.601 7.444 15.391 6.451 22.456-2.06m2002.796 119.589c-57.742-28.054-112.276-45.194-175.01-55.009-79.05-12.372-90.635-16.081-126.191-40.425-30.454-20.85-35.618-22.734-56.775-20.698-40.4 3.877-68.053 33.028-76.754 80.892l-3.553 19.563-388.393-3.264c-213.618-1.795-394.999-5.101-403.069-7.338-17.607-4.882-20.316-10.711-10.938-23.537 5.118-6.997 12.065-9.268 25.576-8.356 10.207.686 21.779-1.429 25.72-4.701 4.34-3.595 35.799-7.262 79.706-9.289 88.23-4.063 92.162-6.401 97.495-57.907 1.879-18.171 5.761-35.374 8.62-38.234 14.609-14.609 234.216-18.368 260.196-4.453 16.253 8.701 25.829 34.76 25.829 70.286v30.165h64.769c39.563 0 69.87-2.326 77.877-5.976 28.718-13.083 33.949-48.76 17.33-118.1-5.484-22.86-9.967-44.799-9.967-48.752 0-9.411 28.478-9.562 47.982-.239 7.986 3.81 36.851 8.385 64.139 10.164 48.844 3.179 49.95 3.532 70.526 22.502 23.352 21.527 19.432 19.945 94.87 38.213 121.91 29.521 287.32 96.477 378.855 153.357 20.602 12.801 19.622 18.428-6.198 35.619-18.364 12.228-32.944 9.676-82.642-14.471Zm-749.585-99.808c15.21-19.024 15.21-35.976 0-55.004-11.805-14.761-12.847-15.026-66.229-16.758-29.832-.967-81.8-.16-115.489 1.749l-61.253 3.516v33.886c0 35.908 3.477 42.393 25 46.594 6.875 1.345 56.035 2.123 109.24 1.732l96.737-.715Zm-229.506-9.747c-9.971-9.971-10.122-11.514-3.087-31.695 4.874-13.979 7.936-15.753 32.448-18.819 14.882-1.859 58.028-2.468 95.875-1.354 77.453 2.283 97.831 8.293 100.317 29.58 2.8 24.024-6.514 26.325-115.99 28.625-90.101 1.896-102.015 1.207-109.563-6.337m-317.231 87.094c-23.087-9.276-15.236-25.067 92.494-186.103l82.793-123.756h67.494l3.562 31.253c7.09 62.179 4.054 61.254 200.813 61.254 150.616 0 156.368-.362 170.01-10.517 12.305-9.159 14.491-14.778 17.015-43.731 1.598-18.272 4.617-34.92 6.711-36.993 6.06-5.989 258.303-2.931 289.321 3.507 26.451 5.492 29.786 4.941 76.872-12.708 27.074-10.148 55.56-20.278 63.306-22.507 24.277-6.985 12.818 4.769-24.155 24.782-48.091 26.026-46.872 32.43 10.072 52.91 55.442 19.941 148.008 61.191 180.67 80.514 36.476 21.581 15.521 21.383-36.746-.362-134.353-55.854-253.059-94.319-282.382-91.502-13.196 1.266-18.314 5.135-25.253 19.088-7.67 15.429-11.522 17.851-32.502 20.467-27.961 3.477-72.217-1.59-94.711-10.85-11.522-4.743-21.165-5.227-35-1.758-18.419 4.626-19.054 5.501-17.969 24.719.618 10.959 5.85 39.273 11.623 62.923 5.774 23.646 9.769 50.597 8.873 59.887-2.342 24.369-16.181 29.462-80.375 29.55l-53.755.08v-20.252c0-22.629-9.071-42.911-32.023-71.599l-15.48-19.348-123.84 2.182c-114.934 2.027-124.82 2.914-137.495 12.38-16.678 12.448-26.426 42.112-22.893 69.656 2.628 20.522 2.628 20.526-16.582 23.697-10.563 1.745-34.958 3.259-54.209 3.364-53.735.282-125.056 8.305-136.272 15.307-12.628 7.889-26.236 30.505-26.236 43.604 0 14.664-13.486 19.004-33.751 10.858Zm210.346-211.78c1.464-3.806-.748-11.792-4.916-17.738-5.992-8.562-9.041-9.596-14.621-4.962-8.634 7.162-9.012 15.665-1.052 23.625 8.015 8.015 17.322 7.595 20.589-.925m1115.977 165.005c-124.333-64.138-162.344-78.495-354.528-133.882-42.86-12.351-62.995-30.349-62.995-56.313 0-16.968.866-17.884 16.804-17.884 9.239 0 27.242 1.429 40.001 3.174 22.372 3.07 23.2 3.781 23.2 20.005 0 14.609 1.64 16.821 12.498 16.821 7.78 0 12.502-2.834 12.502-7.502 0-10.261 14.571-9.437 51.212 2.906 37.637 12.683 58.793 27.052 58.793 39.937 0 10.824 14.462 13.2 23.76 3.898 4.344-4.344 15.034-2.372 43.529 8.019 25.269 9.214 47.006 13.663 65.677 13.44 34.937-.416 64.799 10.762 125.451 46.956 51.855 30.942 81.603 54.711 81.603 65.194 0 10.299-29.887 42.196-39.269 41.91-4.529-.122-48.734-21.144-98.238-46.683Zm-2658.9 38.487c-25.433-6.644 8.806-21.556 49.496-21.556 22.872 0 26.758 1.367 26.758 9.42 0 5.538-4.634 10.656-11.253 12.43-12.612 3.381-51.615 3.205-65.001-.281Zm199.724.202c-5.075-1.464-8.339-6.253-7.447-10.93 2.304-12.09 67.658-15.113 72.175-3.343 1.677 4.369 1.644 9.353-.076 11.068-4.109 4.109-53.079 6.535-64.652 3.205m576.569-20.53c0-7.343 12.57-11.22 36.662-11.308 27.717-.122 31.249-3.255 34.988-31.262 4.31-32.233 11.98-46.094 65.16-117.705l45.703-61.535 57.725 1.535c48.062 1.278 60.101 3.208 71.914 11.535 30.808 21.711 33.957 22.342 115.371 23.015 44.004.362 109.938 2.086 146.515 3.827l66.515 3.158-58.05 85.446-58.045 85.451-230.977 3.385c-127.037 1.867-245.04 4.79-262.227 6.502-20.16 2.01-31.254 1.278-31.254-2.048Zm-4.684-40.644c-5.866-10.963-7.221-131.578-2.149-191.574l3.171-37.482 205.59-3.292c113.079-1.813 211.97-4.71 219.758-6.439 7.788-1.724 15.45-6.779 17.027-11.228 6.695-18.894 12.797-21.88 21.409-10.458 14.882 19.727 67.663 23.28 99.446 6.695 15.572-8.125 88.352-9.294 93.176-1.493 1.812 2.935-.871 8.486-5.955 12.342-8.499 6.434-7.801 7.019 8.541 7.166 23.322.202 36.972 10.156 32.645 23.785-1.808 5.698-10.231 19.945-18.717 31.661l-15.425 21.296-155.544-3.398-155.544-3.398-18.537-12.847c-24.293-16.834-46.96-21.674-102.196-21.817l-45.505-.122-37.452 48.751c-53.158 69.194-74.205 102.398-83.987 132.499-8.524 26.22-8.574 26.262-31.484 27.772-18.71 1.232-23.937-.32-28.268-8.419m28.028-22.704c-3.852-10.038-17.751-10.248-21.56-.32-1.598 4.159-.03 11.026 3.477 15.253 5.618 6.77 7.259 6.808 13.743.319 4.05-4.049 6.001-10.912 4.34-15.252m-3.394-40.324c7.364-8.873 3.263-22.566-6.758-22.566-8.578 0-13.974 12.141-10 22.498 3.646 9.5 8.911 9.521 16.758.043Zm-718.988-8.562c-3.301-3.297-6.001-16.8-6.001-30v-24l-78.756-.361c-74.302-.362-127.823-4.534-133.756-10.471-1.46-1.456-4.096-27.949-5.867-58.878-2.603-45.497-1.871-57.078 3.827-60.686 3.869-2.452 52.864-4.491 108.87-4.533l101.834-.08 13.175 15.395c7.246 8.469 28.264 32.124 46.708 52.566 36.136 40.055 43.894 57.856 43.941 100.8l.029 26.249h-44.004c-27.557 0-46.245-2.242-50-6.001m579.748-14.353c-9.003-3.608-11.114-7.376-8.957-15.975 3.267-13.016-.648-20.568-13.011-25.131-4.811-1.775-8.751-7.557-8.751-12.851 0-13.596 10.563-16.586 68.756-19.466l51.253-2.536v81.313l-38.755-.32c-21.313-.16-44.055-2.439-50.535-5.034M560.311 168.71c.357-100.345 7.363-118.756 45.19-118.756 30.87 0 40.088 11.855 44.895 57.755 2.292 21.863 4.285 58.314 4.432 81.002l.269 41.253h-95.005l.215-61.254ZM4.94 207.134c-7.699-20.244-6.064-70.274 2.578-78.916 4.1-4.1 21.577-8.97 38.836-10.816 39.727-4.255 461.526.24 479.987 5.093l13.751 3.625v93.84l-173.761-.778-173.757-.778 132.933-4.075c73.112-2.241 138.365-6.123 145.009-8.617 22.339-8.393-55.564-11.585-241.28-9.886-175.868 1.611-178.563 1.791-193.559 12.885-19.509 14.432-24.752 14.163-30.737-1.577m447.649-71.75c20.56-3.041 23.226-4.512 15-8.297-13.267-6.106-406.992-6.022-420.024.08-8.402 3.94-6.405 5.214 12.502 7.986 31.203 4.571 361.853 4.76 392.522.239Zm220.545 76.67c-1.67-4.352-3.032-24.672-3.032-45.16 0-29.542 1.656-37.885 8.002-40.324 12.17-4.668 16.838 7.535 16.922 44.23.084 37.221-2.931 49.16-12.426 49.16-3.537 0-7.797-3.558-9.462-7.906Zm41.913 1.657c-.029-3.44-1.451-14.689-3.154-25l-3.099-18.752h421.332v50.005H922.614c-162.646 0-207.525-1.354-207.567-6.253m723.059-41.805c-24.5-25.874-42.876-48.713-40.841-50.753 2.039-2.039 124.231-4.323 271.541-5.084l267.837-1.375-3.133 33.524c-4.125 44.185-13.625 53.335-25.16 24.235-1.089-2.75-6.035-1.135-10.997 3.596-8.461 8.065-8.499 9.163-.597 17.893 12.712 14.05 10.29 19.395-10.336 22.805-10.312 1.703-105.38 2.897-211.264 2.654l-192.508-.45Zm1462.733 21.287c-3.086-3.721-7.056-20.597-8.822-37.502l-3.213-30.74h351.252l2.927 11.652c1.606 6.405 2.211 21.586 1.345 33.727-1.43 19.995-2.994 22.376-16.581 25.26-8.251 1.75-83.916 3.445-168.147 3.773-123.151.479-154.244-.732-158.757-6.17Zm-953.456-14.697c-1.501-3.902-2.048-21.485-1.215-39.071l1.505-31.977h35v75.005l-16.282 1.569c-10.602 1.022-17.238-.913-19.008-5.53Zm63.133-2.91c-5.836-10.904-7.115-40.185-2.304-52.725 3.145-8.196 20.185-10.501 30.198-4.084 3.885 2.49 4.689 13.352 2.502 33.676-2.784 25.824-4.752 30.219-14.146 31.556-6.889.98-12.881-2.123-16.25-8.423M766.356 146.57c-42.944-1.485-56.254-3.541-56.254-8.697 0-3.717 5.063-8.112 11.253-9.773 14.681-3.936 382.838-3.936 397.522 0 13.47 3.613 14.492 9.466 2.498 14.328-9.975 4.041-270.145 7.077-355.019 4.142m1298.993-36.01c-12.683-8.713 16.337-15.643 63.911-15.261 44.365.362 67.536 4.975 57.162 11.388-9.706 5.997-113.163 9.311-121.073 3.873m145.703-4.97c-9.138-5.791 21.968-10.53 69.139-10.53 44.844 0 75.82 4.525 72.111 10.53-3.452 5.588-132.436 5.588-141.25 0m172.024-.026c-3.44-5.567 21.338-10.609 52.124-10.609 13.066 0 30.749 1.4 39.298 3.112 29.614 5.92 9.891 11.892-39.298 11.892-27.174 0-50.635-1.977-52.124-4.395m790.886-.319c-100.51-3.398-120.018-5.652-112.638-13.028 1.514-1.514 44.08-8.091 94.589-14.613 102.078-13.179 111.405-15.711 129.336-35.08 6.876-7.431 19.168-16.977 27.314-21.212 15.004-7.8 91.624-21.249 121.443-21.312 21.342-.042 36.253 15.042 36.253 36.691 0 10.66 3.823 20.181 10.535 26.253 5.79 5.24 14.836 17.961 20.101 28.276l9.571 18.752h-17.473c-14.361 0-18.861-2.675-25.231-15.001-8.937-17.279-17.305-19.335-21.01-5.168-1.417 5.408-6.27 10.909-10.782 12.221-17.259 5.012-157.731 6.741-262.008 3.221m161.292-37.776c0-4.167-4.445-7.502-10.004-7.502-5.555 0-10 3.335-10 7.502 0 4.168 4.445 7.498 10 7.498 5.559 0 10.004-3.335 10.004-7.498m111.944-23.751c8.061-12.805-2.141-26.254-19.916-26.254-17.599 0-22.006 13.714-9.02 28.058 10.273 11.354 21.072 10.681 28.936-1.804m-870.642 52.788c4.865-1.27 11.615-1.19 15 .16 3.385 1.371-.597 2.401-8.848 2.305-8.251-.122-11.018-1.224-6.152-2.49Z"/></svg>