<svg xmlns="http://www.w3.org/2000/svg" width="4610.75" height="1000" viewBox="0 0 4610.75 1000"><path d="M1886.843 529.822a5.381 5.381 0 1 0 10.764 0 5.382 5.382 0 0 0-10.764 0M2543.96 11.903l-52.369-.003v194.859h-14.283v14.962h80.595v-16.663h-14.283Zm606.548 200.277h119.329l-.003 11.165h-119.329Zm221.173 115.518c-.003-8.847-7.173-16.017-16.019-16.02-8.847.003-16.017 7.173-16.02 16.02.003 8.846 7.173 16.016 16.02 16.019 8.846-.003 16.016-7.173 16.019-16.019m-7.751-.213c-.002 4.707-3.621 8.522-8.086 8.526-2.148.003-4.207-.895-5.727-2.493-1.519-1.6-2.373-3.77-2.374-6.033-.003-2.267.849-4.441 2.369-6.043s3.583-2.501 5.732-2.499c2.147.002 4.205.903 5.722 2.505 1.516 1.602 2.367 3.773 2.364 6.037m-7.512 336.44c-.002-6.185-5.017-11.199-11.201-11.2-6.186.001-11.199 5.015-11.201 11.2.002 6.186 5.015 11.2 11.201 11.202 6.185-.002 11.199-5.016 11.201-11.202m-5.42-.148c-.001 3.291-2.531 5.959-5.654 5.961-1.501.002-2.942-.625-4.004-1.743a6.13 6.13 0 0 1-1.66-4.218c-.002-1.585.593-3.105 1.656-4.225s2.505-1.75 4.008-1.748c1.502.001 2.94.631 4.001 1.752s1.655 2.638 1.653 4.221m1185.867-244.625.001 43.234c53.744-.34 74.632 38.271 73.78 7.989v-51.223c1.804-34.38-19.759.622-73.781 0m0 321.089.001 43.234c53.744-.34 74.632 38.271 73.78 7.99v-51.224c1.804-34.38-19.759.623-73.781 0m-.71-189.405v99.69c71.001-4.985 62.783 49.105 69.45 0 7.954-33.76 5.214-66.807 0-99.69-7.133-55.337-.438 4.973-69.45 0m-61.807-197.717-.001 50.509h-39.213l-78.421 82.41v234.604l78.421 76.086h39.213v46.347h-39.213l-116.968-108.477V472.746l116.968-119.627Zm20.224 586.728c54.38 23.828 61.132-29.864 91.168-63.912v-56.393c2.32-13.893-49.333-32.206-51.694-19.738-2.248 10.738-22.909 11.613-23.499 0v-88.349c17.735-14.363 21.226 45.092 72.373 0 6.076-7.812 7.348-21.916 0-32.896-4.555-10.184-54.735-19.375-46.054-7.988 18.991 25.756-14.867 29.281-15.039 7.519l-11.28-13.159V527.238l13.63-9.868c5.133-4.488 26.051-9.209 14.099 4.699-3.838 3.831-5.822 7.325 0 9.398 24.373 7.69 55.157-8.554 51.693-25.377-3.646-27.048-48.549-29.265-52.164-24.436l-19.267 20.207c-6.758 4.201-8.307-.417-7.991-10.808v-82.24c-1.047-16.696 10.686-15.1 25.379-10.809 16.208 5.471 32.139 5.672 47.464-5.639 11.139-3.697 9.309-60.561 1.41-71.901l-39.946-53.573c-7.188-12.315-51.739-14.231-50.282 4.698v209.595h-15.04v23.967h15.04v78.01l-14.569 8.459v22.557h14.569v83.65l-15.04 5.64v19.737l15.04 8.929Zm-353.189-294.306h161.498v65.132h-161.498Zm-8.463-125.676c13.952-7.042 22.462-17.259 28.932-28.666h137.529v56.139H4132.92Zm-723.916 445.359h389.112V1000h-389.112ZM531.079 345.84h488.74v103.388h-488.74Zm506.598-.001h164.48v103.387h-164.48ZM3448.79 787.115c-6.186.001-11.2 5.015-11.201 11.2.001 6.185 5.015 11.199 11.201 11.201 6.185-.002 11.199-5.016 11.201-11.201-.002-6.185-5.016-11.199-11.201-11.2m-.149 5.419c3.291.001 5.96 2.531 5.961 5.654.002 1.501-.625 2.941-1.743 4.004s-2.636 1.659-4.218 1.66a6.14 6.14 0 0 1-4.225-1.656c-1.12-1.063-1.749-2.505-1.748-4.008.001-1.501.632-2.94 1.752-4.001s2.639-1.655 4.221-1.653M.044 357.119h27.969l26.317 87.41h321.669l24.437-23.498v-58.273l-25.377-23.497H109.071c.992-26.68-6.006-23.424-31.043-23.359l-77.984-.001v-7.976l11.855-7.643 80.085.001 14.954 9.981h340.275c32.015-.448 60.695 13.063 60.145 39.2v97.031c1.893 17.122-32.407 30.006-47.519 28.91H27.518c-20.833.469-28.16-9.986-27.474-20.935Zm-.002-29.921.003 11.632h97.257l-5.896-11.632Zm52.067 30.241 47.851.001 22.596 68.453-53.168-.001Zm99.357.001h18.941l19.274 68.453h-17.28Zm71.653-.001 18.941.001 19.273 68.454-17.28-.001Zm61.931.001 22.597 68.453h59.813l14.29-14.289v-34.892c.161-8.447-4.399-19.267-10.967-19.272Zm3261.088 37.714c-.002-7.378-5.983-13.359-13.361-13.361-7.378.002-13.359 5.983-13.361 13.361.002 7.378 5.983 13.359 13.361 13.361 7.378-.002 13.359-5.983 13.361-13.361m-6.465-.177c-.002 3.926-3.019 7.108-6.744 7.111-1.791.002-3.509-.746-4.776-2.079-1.268-1.334-1.98-3.145-1.98-5.032-.003-1.89.708-3.703 1.975-5.04 1.268-1.336 2.988-2.086 4.781-2.084 1.791.001 3.507.753 4.772 2.089s1.974 3.148 1.972 5.035m241.531-161.925v39.479c-.242 17.71 17.969 42.795 42.763 42.764h229.799l63.444 74.251h203.954v-53.103l-104.326-103.391Zm378.556 96.674a14.98 14.98 0 0 1 14.984 14.984 14.98 14.98 0 0 1-14.984 14.984 14.986 14.986 0 0 1 0-29.968m94.91 0c8.272.006 14.975 6.713 14.974 14.984.001 8.272-6.702 14.979-14.974 14.984a14.982 14.982 0 0 1-10.595-25.579 14.98 14.98 0 0 1 10.595-4.389m-904.882 187.642-147.556 75.197 155.548-44.644 37.598 56.854c12.922 2.955 28.961-1.375 37.12 12.689l127.833 157.429c5.682 10.095 2.472 19.454-2.359 28.672l-70.022 121.712h-61.562v21.615h358.099v-70.021l341.182-158.365s2.35-84.592 0-84.592h-44.177v15.038h-101.977v-15.038h-51.69v93.051l-166.834 75.654-28.661-46.047h-170.596l-125.941-159.31c-29.733-9.181-37.113-32.184-46.993-50.755l32.891-17.864h284.783l49.352 35.25h354.805v-31.955h-343.997c-19.216-2.683-38.667-5.005-53.582-14.57Zm578.505 228.864 57.333 19.267-178.11 77.545 1.414-40.893Zm-316.74 55.452h94.453l38.471 79.628c9.272 18.625 1.729 26.547-15.441 26.748h-136.952c-25.502-2.251-22.149-18.842-17.193-29.777Zm-293.242-335.539-40.415 45.113h-295.602l-4.315-7.471h-49.724l-28.639 28.65h-221.84l-26.791 22.997h39.48l15.505-14.569h246.25c12.15-.627 18.164 5.107 17.619 17.63v207.937l58.045.002c-13.144-8.853-.509-27.614 13.157-11.498h215.229c12.657.016 23.239-9.796 34.783-13.402 9.128-3.026 18.274-5.141 24.899 0l109.969 156.016h58.278l58.268-99.628v-20.457l-128.29-157.652H3388.8l-35.718-53.104-142.391 46.058 20.074 24.294 12.178-.415 31.01 39.968 1.584 14.633c16.753 10.097 3.673 15.506-1.871 23.497-18.517 22.118-39.98 29.106-62.975 28.194h-154.614c-18.851-.296-17.317-7.292-23.963-18.789l-46.525-90.235c-15.369.077-19.126-35.68 0-48.406l9.861-7.045h125.485c9.466-.165 17.264 2.437 15.972 20.202v51.701c14.351 9.353 1.907 19.379 0 29.139v18.789h16.918l17.853-99.151c1.701-9.367 2.624-17.594 12.891-22.317l165.698-79.193h121.709l.002-25.844c-7.077.785-12.027-.989-14.569-5.644Zm-249.715 50.819c13.406-.001 24.274 10.867 24.273 24.272.001 13.406-10.868 24.273-24.273 24.272-4.452-.074-10.304-5.257-15.727-4.059l-42.169 7.482-6.524-25.846 40.531-8.842c1.77-4.805 12.25-15.248 23.889-17.279m277.515 118.821c15.967.003 28.908 13.32 28.905 29.745-.003 9.83-4.729 19.022-12.624 24.56a17.73 17.73 0 0 1-15.867 9.83 17.73 17.73 0 0 1-15.387-9.012c-8.631-5.379-13.912-14.997-13.933-25.378-.001-16.425 12.94-29.742 28.906-29.745m105.006 132.849c9.83.005 19.022 4.73 24.559 12.625a17.73 17.73 0 0 1 9.83 15.866 17.73 17.73 0 0 1-9.012 15.388c-5.378 8.631-14.996 13.911-25.377 13.932-16.426.003-29.743-12.939-29.745-28.905.002-15.967 13.319-28.908 29.745-28.906M3059.5 540.025a7.991 7.991 0 1 0 15.983 0 7.991 7.991 0 0 0-15.983 0m498.026-226.484h67.673v45.569h-67.673Zm-102.701-5.781h83.997v53.39h-57.64c.098-16.013-16.248-34.112-26.357-45.909Zm55.496 72.365h-29.139v74.063h101.278l14.908-14.91v-66.367h-48.573c51.58 58.984-70.996 74.848-38.474 7.214m-90.173-80.074h8.175c16.523 16.94 21.16 56.91 22.363 66.608h-7.694q-5.652-33.785-22.844-66.608m-65.652-28.614-63.953 80.798 33.654 89.448 126.972-.001-43.761-129.363c-5.534-14.836-20.24-28.76-52.912-40.882m1.031 29.915c14.995.001 27.15 12.157 27.152 27.153-.002 14.994-12.157 27.15-27.152 27.151-14.996-.001-27.151-12.157-27.153-27.151.002-14.996 12.157-27.152 27.153-27.153m-31.33 140.331h126.972v12.135h-126.972Zm167.015 30.106v25.844h190.098c29.533 1.259 55.919 6.923 80.935 14.506h210.161l-39.958-40.35Zm469.736 0h136.582c23.378 1.079 28.082-9.967 26.932-24.815v-36.551h32.223v42.322c-4.776 38.122-28.948 52.836-59.876 59.394h-101.234ZM3338.39 212.523v9.137c21.358 11.331 26.626 36.213 46.409 44.485h7.455c3.53-17.393-22.324-24.95-42.803-43.764v-9.858Zm-21.401 13.465v3.607c11.958.828 18.862 8.155 24.527 17.073-1.292-10.943-7.855-18.784-24.527-20.68M3151.15 39.108h59.509c5.623 2.141 7.281 7.315 7.481 13.603v104.06h-54.751c-.898-5.714-5.582-9.958-12.239-13.433Zm80.957 6.774h11.059c.153-7.241 19.228-6.674 19.478 0q7.034.3 6.854 6.853v94.623l-8.116 8.115c-.907 6.593-15.737 7.218-17.254 0h-12.021Zm55.407 101.027V57.812c8.388-8.634 16.776-12.677 25.165-12.242v113.242c-8.067.219-16.208-.529-25.165-11.903M3117.48 30.27l-52.369-.003V206.76h-14.283v14.964h80.595v-16.663h-14.283Zm18.364 0h4.081v132.112l172.074 51.18v9.182c-5.735.115-11.498.099-15.984 6.461l-44.548 58.492H2208.486v-7.123c10.583-10.012 7.891-23.796 0-31.305l.003-26.865h247.882c-.779 20.445.799 20.948 21.107 20.969h79.234c20.802.133 22.217-.022 22.78-20.969h65.885l43.283 56.967h214.252l40.456-56.967h94.206c.134 15.385-.442 20.781 18.924 20.969l73.892-.002c16.345.117 20.566-2.461 20.113-20.967h110.939c5.938.79 7.178-16.563 0-18.058l-117.827-33.424c-4.303-1.023-4.452 4.534-5.05 9.379h-2.721Zm-927.351 181.909 247.883.001v11.165h-247.883Zm371.003.001h65.885v11.165h-65.885Zm363.875 0h94.207v11.165h-94.207Zm-776.033 23.146c-16.121 0-29.246 13.126-29.246 29.246s13.125 29.245 29.246 29.245 29.245-13.125 29.245-29.245-13.125-29.246-29.245-29.246m0 5.367c13.22 0 23.879 10.658 23.879 23.879 0 13.22-10.659 23.879-23.879 23.879s-23.879-10.659-23.879-23.879 10.659-23.879 23.879-23.879m551.916-181.944c0 11.989 9.719 21.709 21.709 21.709s21.709-9.72 21.709-21.709c0-11.99-9.72-21.709-21.709-21.709-11.99 0-21.709 9.719-21.709 21.709m-11.212 24.227c19.606 20.108 39.908 22.288 60.875 6.122h6.801l-.003 3.74h-6.798c-30.203 25.488-52.313 9.405-60.875-9.862m7.482 34.007c24.721 20.106 46.785 10.083 67.673-13.262h6.12l21.765 24.145v13.943l-8.502 7.821h-87.056Zm50.329-86.036h34.347l53.05 48.969-27.546 38.428-30.265-27.545c-5.113-21.967 2.96-49.525-29.586-59.852m75.155 8.501h63.932l-35.367 27.546Zm-23.465 131.946 36.387.34c32.487-45.249 69.359-84.47 116.303-109.841l23.464-23.805c-13.152-5.32-37.349-11.338-56.111 0-30.91 14.966-123.848 99.913-120.043 133.306m57.472-.34c17.982 7.069 37.227 5.725 57.13 0l-29.586-29.586Zm42.806-44.377c26.162-26.739 53.645-52.158 89.933-68.772v99.071h-65.887Zm107.162-78.047c7.768-6.449 16.265-9.98 25.845-9.182v125.484c-8.615-.589-17.23-4.064-25.845-11.902Zm-367.271 109.161h38.768c-.65-18.45-2.065-43.196 6.801-52.37-15.576-24.792-4.104-40.338 0-58.491.674-9.918-31.125-6.501-31.966 0-10.246 37.434 4.335 73.907-13.603 110.861M2155.095 22.445h61.893v155.07h-61.893Zm80.596 162.892V17.344c-.777-6.453 26.007-17.365 31.626-8.161l29.148 110.281c3.62 20.61-6.723 59.835 13.947 57.71v9.619c-26.911 5.527-52.891 8.259-74.721-1.456M2278.879.681c24.176.764 54.687-7.527 70.734 18.363l-21.085 105.421-2.039 55.09-4.761-55.771c-3.843-46.834-28.418-82.151-42.849-123.103m63.252 184.315c.661 13.453 70.05 11.492 71.414 0 1.391-58.717-6.736-117.435 21.764-176.153 3.791-7.731-57.618-6.835-59.851 0-29.878 60.424-22.325 117.445-33.327 176.153m128.431-161.234-.001 152.931h-38.955v-58.672c-1.006-29.978 8.052-62.839 19.236-94.259Zm91.855-.002v154.857h30.299c14.031-15.18 33.982-21.484 52.901-29.336.084-20.372-1.187-40.97 6.252-60.116V52.134l-58.192-28.855Zm275.53 2.086h89.777c-4.689-7.292-8.092-16.422-17.003-17.683h-57.811c-8.021 2.427-11.277 10.301-14.963 17.683m-431.831 322.056 162.553.001v128.888h-162.553Zm-52.901 0h37.512v126.002h-37.512Zm230.843 0v114.461h55.788q12.264-26.21 37.993-37.993h237.096c12.408-.307 30.558 9.892 31.833 28.258l16.323 9.519v-17.341l-34.686-96.904Zm363.39 0h28.565c9.173 24.275 16.538 70.527 29.477 70.258l8.611 20.525v23.462h-30.606Zm45.569 0 5.44 24.811c7.994.073 12.224 2.954 14.964 12.242l24.485 77.192h232.604l-32.646-100.317c-9.055.687-12.141-5.021-12.242-13.928Zm259.81 0h23.125l27.884 88.063v26.182h-15.642c-.184-6.979-3.741-8.897-7.481-10.539v-20.404Zm-269.332 126.83v16.323h25.165c-22.915.056-24.144-16.33 0-16.323Zm33.666 0c17.511.184 16.876 16.137 0 16.323h230.225c-11.728-.51-12.221-16.153 0-16.323Zm241.787 0h31.626l-15.813 16.323h-15.813c12.849.605 13.246-16.242 0-16.323m-337.005-18.701v-10.884h-249.608v10.884l-40.127 32.303h-54.411l-10.202 7.823h-243.487l-8.842 21.083-56.79.003v38.762l365.23.003 50.67-43.869h221.042l33.327-29.588h28.905Zm-83.656 162.889h24.825v8.502h-24.825Zm-313.881-48.969v118.343h281.575l121.063 78.14 23.805-.002V569.951Zm272.053 36.047h77.875v35.026h-77.875ZM2908 614.499a23.753 23.753 0 0 1 23.805 23.805v56.11A23.753 23.753 0 0 1 2908 718.219a23.75 23.75 0 0 1-23.804-23.805v-56.11A23.75 23.75 0 0 1 2908 614.499m-801.874-336.324v32.645l44.208 38.428v102.36l-45.569 38.767v32.987l110.182 152.349v12.583h291.096V569.951h-251.308c-25.211-.245-49.751 10.988-69.714 19.383h-23.464l-53.39-68.353v-8.842c2.198-8.96 5.438-7.505 8.501-7.821l70.733-.003V314.902c-39.467 4.518-54.307-13.985-64.611-36.727Zm146.908 324.251c12.115-.001 21.935 9.821 21.934 21.935.001 12.114-9.819 21.935-21.934 21.934-12.114.001-21.935-9.82-21.934-21.934-.001-12.114 9.82-21.936 21.934-21.935m-14.283-85.183h-103.039v13.26l32.986 43.189c27.591-13.658 48.019-17.331 70.734-17.687Zm1070.548-278.995-53.869 69.257H2203.162v196.813h93.305c1.481-13.892-1.841-25.444 15.388-26.089l25.972-126.962c2.097-10.236 7.377-14.642 14.911-14.909h930.588l58.673-74.06ZM2251.473 375.093c10.968.001 19.86 8.893 19.861 19.862-.001 10.969-8.893 19.861-19.861 19.862-10.97-.001-19.862-8.893-19.862-19.862s8.892-19.861 19.862-19.862m325.854 335.427 120.23.001v61.077c2.911 25.169 18.579 43.38 30.78 63.482h97.146c20.474-17.914 43.61-34.599 41.36-63.001v-22.122l51.459 35.107h32.547v53.864h-373.522v-69.735c-11.727-7.1-11.506-24.96 0-31.74Zm-64.926 150.533V897.6l57.23-.001c19.994.086 19.876 9.63 19.237 21.162h42.321c.269-11.937 1.179-21.45 26.451-21.162h278.937c12.099-10.621 21.245-22.719 26.931-36.546Zm321.805-130.592-28.225-17.683h-90.118v10.202c12.415-.441 19.409 3.184 26.866 6.462Zm-90.117 18.704h109.501v32.306h-109.501c-11.289-.043-19.755-4.037-27.886-8.501v-16.323c9.037-4.557 18.213-8.016 27.886-7.482m97.024 50.327-15.63 17.794h-87.288c-1.794-7.271-6.864-13.087-14.428-17.794 39.118-.002 78.233.476 117.346 0m-956.709-163.569c-15.381 0-27.206 15.412-27.206 33.667 0 18.254 11.825 33.666 27.206 33.666s27.205-15.412 27.205-33.666c0-18.255-11.825-33.667-27.205-33.667m0 5.441c11.663 0 21.763 12.298 21.763 28.226s-10.1 28.226-21.763 28.226c-11.665 0-21.764-12.298-21.764-28.226s10.099-28.226 21.764-28.226m5.68 78.414c2.585-1.815 4.918-3.774 5.29-6.853 19.311-.771 42.775-17.867 29.817-58.191h254.891c11.356 23.734 24.773 46.782 44.245 67.81h-330.396Zm-34.927-19.242c-9.588-5.287-23.547-7.903-22.444-19.724v-23.465c-.448-8.27 1.674-14.484 13.943-12.582 9.928-33.131 59.794-32.368 72.094-8.842h248.248l-23.465-32.986h-377.472c4.866 5.827 7.317 11.896 5.781 18.363-4.03 26.307-35.17 51.322-5.441 79.236Zm13.285-190.076-17.312 16.823v23.092h213.051V510.46Zm175.92 2.242c9.851.005 17.833 7.993 17.832 17.843.001 9.851-7.981 17.839-17.832 17.843a17.84 17.84 0 0 1-12.618-5.226 17.84 17.84 0 0 1-5.225-12.617 17.84 17.84 0 0 1 17.843-17.843m-152.477.978a17.84 17.84 0 0 1 17.843 17.843 17.84 17.84 0 0 1-17.843 17.843 17.842 17.842 0 1 1 0-35.686m147.307 16.142a5.382 5.382 0 1 0 10.764.002 5.382 5.382 0 0 0-10.764-.002m53.331-6.46v31.966c.997 13.527-13.281 13.774-23.635 13.646h-234.474c-8.154-.208-9.594-7.936-9.824-17.016v-23.495c-.745-6.804 4.268-9.13 9.144-11.563h-358.429v97.259h17.343c2.725-32.437 29.235-28.747 49.516-28.588h588.787l-35.367-51.667c-3.346-3.182-2.678-6.938-3.061-10.542m-73.071-246.633-15.39 18.757.002 195.727 75.505.002 5.771 8.182V484.01l45.685-46.174v-85.601l-43.762-34.635v-40.871Zm65.282 97.726c14.486-.001 26.229 9.059 26.227 20.234.002 11.176-11.741 20.236-26.227 20.235-14.482-.004-26.22-9.063-26.217-20.235-.003-11.171 11.735-20.23 26.217-20.234m-80.672-102.057c7.069-12.241 14.085-21.446 28.709-21.249h75.954c7.534-.132 11.054 4.479 13.645 10.187 1.57-11.293 4.92-21.188 15.39-25.488-.897-4.267-3.753-7.275-9.138-8.658l-63.962.002c-7.911.316-5.702-8.677-5.291-13.948-.758-8.902-40.729-8.413-40.397 0v13.948l-14.91 14.038Zm-25.408 26.531-4.006 3.687c4.094 4.457 7.14 8.734 6.982 16.377l-.011.022v163.114l.011.043c.086 2.519-.398 3.371-1.062 4.166-.665.796-1.888 1.517-3.358 2.869l3.687 4.007c.88-.809 2.402-1.648 3.847-3.379s2.435-4.364 2.316-7.843V319.101c.191-9.239-3.977-15.35-8.406-20.17Zm-727.697 1.733c-7.562.004-14.268.926-15.409 7.81l237.376 131.914c9.118 5.219 19.097 9.864 17.683 22.104v35.366h363.87c2.452-7.075 10.595-6.603 17.684-6.641h91.021V300.767H1258.63c-2.536-.016-5.152-.107-7.673-.105m548.77 15.259h74.814c17.182 5.261 60.584 65.6 58.832 108.142v20.403c-.471 27.032-17.817 36.436-36.727 36.047h-138.747c-39.351-2.946-39.777-57.195-25.845-83.655 16.753-34.331 49.279-76.683 67.673-80.937m-379.502.723h281.34c15.53.897 28.246 13.322 27.886 30.298-.518 14.637-.491 27.574-7.695 41.36l-54.336 78.874c-8.393 17.094-78.3 21.944-103.889 0l-27.408-11.541v-9.628l-115.898-62.519c-24.455-12.226-19.099-65.035 0-66.844m17.311 18.274h256.811c23.233-1.051 19.053 33.169 11.617 43.357l-45.282 64.371c-5.749 8.095-9.175 16.148-15.885 17.096h-58.279c-12.766-3.003-6.376-14.594-16.25-17.096l-132.732-69.735c-20.568-13.157-14.622-37.406 0-37.993m315.003 126.964h149.568c15.122-10.667 14.095-56.02 0-77.91l-33.184-53.863h-66.368l-40.397 50.497c-19.293 21.115-28.789 57.447-9.619 81.276m-517.476-131.773 209.203 118.789-.481 6.732 27.64 15.958v4.722h-214.239c-19.999.027-36.855-9.547-36.55-26.932V345.979c-.288-12.447 8.374-19.798 14.427-15.87"/></svg>