<svg xmlns="http://www.w3.org/2000/svg" width="1294.436" height="1000" viewBox="0 0 1294.436 1000"><path d="M697.47 993.01c-24.26-6.578-33.998-12.224-38.634-22.393-4.429-9.724-4.479-14.678-.177-17.377 7.225-4.533 18.313-42.511 18.357-62.879.015-8.026 19.878-56.784 44.138-108.351l44.108-93.756 47.699-.148c26.235-.079 47.698.178 47.698.573 0 .402-20.031 47.802-44.512 105.34-24.482 57.537-44.513 106.319-44.513 108.404 0 2.088 15.024 10.535 33.384 18.777 29.944 13.435 33.387 16.683 33.387 31.5 0 11.725-3.632 18.174-12.52 22.231-6.886 3.144-20.008 9.767-29.159 14.719-23.075 12.482-60.885 13.763-99.256 3.36m82.839-20.914c7.149-5.276 8.918-9.806 5.235-13.394-10.57-10.302-76.597-35.019-81.212-30.401-2.548 2.545-5.347 13.184-6.222 23.637-1.352 16.139.505 19.609 12.319 23.013 23.885 6.88 58.61 5.463 69.88-2.855m2.454-156.168c6-7.231 3.165-8.347-21.248-8.347-26.581 0-38.528 5.14-30.532 13.133 6.969 6.972 44.935 3.461 51.78-4.786m15.44-35.105c1.801-5.469-4.22-6.854-24.168-5.563-15.668 1.013-27.553 4.709-28.967 9.003-1.804 5.468 4.217 6.856 24.168 5.563 15.665-1.013 27.553-4.707 28.967-9.003m16.692-33.384c1.801-5.469-4.22-6.853-24.168-5.563-15.665 1.013-27.553 4.707-28.967 9.003-1.801 5.468 4.217 6.853 24.168 5.563 15.665-1.013 27.552-4.707 28.967-9.003m16.692-33.384c1.801-5.468-4.22-6.856-24.169-5.563-15.664 1.013-27.552 4.707-28.966 9.003-1.801 5.469 4.216 6.853 24.168 5.563 15.665-1.013 27.552-4.71 28.967-9.003m18.112 239.583c.088-8.415 9.912-35.332 21.824-59.813l21.655-44.513-3.035 25.931c-2.891 24.661-2.188 26.371 14.341 34.919 9.558 4.943 17.38 12.44 17.38 16.66 0 7.361-55.027 42.118-66.685 42.118-3.106 0-5.572-6.886-5.48-15.302m-23.814-31.331c-10.996-4.875-13.603-8.48-9.266-12.818 9.304-9.304 3.679-31.4-9.682-38.032-11.832-5.873-11.477-7.16 25.99-94.73l37.981-88.774 39.39-1.633c27.821-1.155 39.387.328 39.387 5.037 0 9.284-101.504 238.739-105.366 238.181-1.724-.248-10.019-3.502-18.434-7.231m-33.847-18.281c-6.588-6.587-3.942-22.833 4.228-25.969 10.175-3.904 22.11 10.275 17.896 21.26-3.324 8.666-15.563 11.27-22.124 4.709M654.41 842.597c-6.042-18.304-5.675-21.277 3.254-26.43 26.988-15.57 31.393-24.605 27.443-56.235-2.312-18.514-1.678-30.248 1.641-30.248 2.983 0 17.153-10.323 31.485-22.94 14.336-12.62 26.93-22.01 27.987-20.867 3.091 3.34-76.202 177.345-80.814 177.345-2.303 0-7.252-9.28-10.996-20.625m45.945-178.29c1.683-8.752 11.568-9.892 97.807-11.259l95.934-1.523 35.51-70.81c19.53-38.947 40.801-75.582 47.268-81.411 16.842-15.183 14.994-39.354-4.934-64.514-17.929-22.639-20.147-33.228-10.665-50.941 5.326-9.954 11.217-1.999 50.743 68.524 24.593 43.884 45.853 82.701 47.244 86.262 1.387 3.564-5.354 24.434-14.989 46.385-9.631 21.948-16.021 43.798-14.193 48.555 6.085 15.865-2.811 28.904-23.684 34.701-11.581 3.215-83.224 5.719-164.227 5.737-133.854.029-143.557-.635-141.814-9.706m241.313-1.925c4.905-7.937-11.332-24.174-19.269-19.27-10.604 6.552-7.117 25.367 4.7 25.367 5.941 0 12.496-2.743 14.569-6.097M733.16 623.081c14.359-26.829-10.264-109.565-42.074-141.372-9.735-9.735-13.379-17.982-11.108-25.14 4.706-14.825-1.669-31.839-14.507-38.71-8.661-4.636-17.861-1.858-46.063 13.916-31.282 17.492-39.753 19.707-75.41 19.707-61.802 0-61.695.138-61.695-75.31V312.38h17.554c16.816 0 17.155.44 8.111 10.436-7.624 8.424-9.133 19.429-7.819 57.032l1.627 46.594 41.731 1.459c37.816 1.32 44.498-.142 71.221-15.573 16.219-9.366 30.886-20.669 32.592-25.116 3.629-9.458-12.838-53.442-22.249-59.43-3.546-2.259-15.691-4.143-26.985-4.19-11.297-.044-22.087-2.587-23.976-5.649-2.215-3.584 23.89-6.008 73.396-6.812 51.821-.844 29.737-2.202-67.833-4.175l-144.665-2.923-1.65-34.55c-1.116-23.333 1.187-40.039 7.095-51.467l8.749-16.919h99.868v19.155c0 18.493-.818 19.228-23.645 21.286-13.007 1.169.764 2.566 30.602 3.1l54.248.972-.833-18.083c-.776-16.83-.995-17.022-3.15-2.781-1.931 12.729-5.091 15.301-18.815 15.301-15.396 0-16.412-1.302-15.186-19.473l1.311-19.477h54.505c32.625 0 54.502 2.235 54.502 5.566 0 3.059 6.085 5.563 13.523 5.563 9.789 0 14.014 3.458 15.301 12.52 1.143 8.046 6.251 13.154 14.298 14.297 10.597 1.506 12.519-.785 12.519-14.932 0-13.958-2.521-17.091-15.301-19.028-8.415-1.275 3.8-2.693 27.151-3.15l42.448-.836 20.445 24.951 20.442 24.948-151.919 1.479-151.919 1.482-1.851 13.078c-1.495 10.55-4.48 12.579-15.434 10.485-7.471-1.429-14.924-.428-16.56 2.221-1.638 2.651 17.2 4.819 41.862 4.819 40.928 0 44.843-.96 44.843-10.979 0-10.644 5.333-11.049 176.657-13.39 97.164-1.329 191.058-4.131 208.654-6.231 21.543-2.569 31.993-1.854 31.993 2.191 0 3.301-13.772 35.2-30.603 70.884-16.83 35.681-30.602 71.158-30.602 78.836s6.26 22.166 13.91 32.196c14.295 18.738 18.346 43.4 8.165 49.692-3.16 1.952-21.954 35.903-41.77 75.443l-36.026 71.894h-81.452l2.377-16.199c1.831-12.473-.467-17.717-9.989-22.813-10.471-5.604-14.162-4.819-24.112 5.132-9.96 9.959-10.698 13.435-4.84 22.813 6.47 10.361 5.474 11.067-15.59 11.067-21.328 0-22.164-.626-16.069-12.015m157.703-46.807c16.054-16.051 6.52-35.767-17.3-35.767-15.26 0-23.536 23.353-12.844 36.239 8.849 10.66 19.175 10.5 30.144-.472m-27.112-7.444c-4.506-7.296 2.492-22.76 10.302-22.76 10.172 0 19.468 11.578 16.178 20.153-3.298 8.598-21.658 10.405-26.48 2.607m14.563-123.428c14.652-7.84 54.679-94.296 54.679-118.101 0-28.081-7.379-31.612-66.053-31.612-60.496 0-73.048 6.31-73.048 36.72 0 21.171 34.931 101.84 48.549 112.116 11.339 8.557 21.08 8.793 35.873.877M773.66 621.224c-1.926-5.023-.836-11.8 2.424-15.062 8.477-8.478 24.54-.73 22.326 10.768-2.466 12.809-20.295 15.901-24.75 4.294m282.9-42.275c13.228-34.24 96.118-233.347 101.71-244.314 3.901-7.65 21.585-51.466 39.301-97.37 17.714-45.903 34.382-84.921 37.043-86.704 2.681-1.801 2.324-9.845-.809-18.083-6.759-17.778-3.511-18.183 30.174-3.744 20.991 8.997 25.243 13.116 22.491 21.788-1.866 5.879-.788 12.302 2.395 14.271 9.026 5.578 6.832 28.837-4.757 50.463l-10.547 19.68-15.384-39.21c-8.46-21.564-16.229-38.365-17.259-37.332-1.034 1.034 4.491 20.454 12.274 43.155 8.885 25.922 13.007 47.492 11.079 57.971-3.065 16.642-27.676 61.769-77.961 142.949-23.717 38.288-25.908 44.513-20.82 59.111 4.748 13.621 3.487 20.008-7.636 38.658-7.866 13.189-19.042 23.778-27.286 25.848-7.678 1.928-13.961 5.66-13.961 8.294s-14.194 15.505-31.538 28.601c-17.348 13.095-30.175 20.282-28.509 15.968m126.815-213.711c0-4.589-2.357-8.345-5.236-8.345-7.015 0-12.041 8.687-7.594 13.134 6.266 6.266 12.83 3.815 12.83-4.789m55.641-95.052c0-4.846-2.973-7.819-6.608-6.609-10.317 3.44-12.027 15.42-2.203 15.42 4.846 0 8.811-3.966 8.811-8.811m-221.911 176.601-45.171-83.504 24.655-54.36c31.432-69.307 29.699-74.439-25.154-74.439h-39.062l15.148-13.031c20.601-17.722 20.778-45.091.404-62.619-12.945-11.134-13.568-13.101-5.102-16.089 5.306-1.872 17.291-15.041 26.634-29.265l16.987-25.86 89.486.337c97.881.369 120.611 6.041 142.072 35.459 10.045 13.772 10.033 14.746-.482 38.95-5.932 13.65-18.72 44.087-28.417 67.633-17.114 41.551-18.23 42.856-38.061 44.512-14.773 1.232-20.979 4.598-22.411 12.151-1.672 8.802.735 10.051 15.253 7.919 17.741-2.604 19.669-.575 13.861 14.563-2.132 5.554-10.122 8.799-21.662 8.799s-19.529 3.248-21.661 8.803c-4.981 12.983-4.612 13.455 10.532 13.455 7.651 0 13.911 3.21 13.911 7.134 0 8.935-65.903 172.025-72.059 178.326-2.489 2.548-24.853-32.947-49.698-78.874Zm115.972-181.435c15.098-18.192-12.457-45.744-30.646-30.647-8.297 6.886-10.984 28.406-4.37 35.017 6.611 6.611 28.131 3.927 35.016-4.37m-31.136-5.793c-1.928-5.023-.836-11.799 2.424-15.059 8.477-8.478 24.54-.73 22.326 10.768-2.466 12.806-20.298 15.898-24.75 4.291m81.605-53.215c5.837-10.904 4.857-11.368-20.619-9.738-20.221 1.293-27.198 4.087-28.595 11.448-2.911 15.328 40.911 13.804 49.214-1.71m16.674-33.351c7.432-13.884 5.135-34.184-4.214-37.261-3.761-1.24-11.111 6.7-16.331 17.646l-9.487 19.901h-37.592c-20.675 0-39.136 2.504-41.028 5.563-2.2 3.561 15.643 5.563 49.553 5.563 47.74 0 53.595-1.131 59.099-11.412m-114.446-56.717c10.745-15.339.331-21.395-10.748-6.248-7.122 9.739-8.016 9.768-18.168.582-5.873-5.315-15.298-9.664-20.947-9.664-9.236 0-8.955 1.399 2.799 13.91 16.22 17.265 35.557 17.85 47.064 1.42M87.254 449.489c0-19.421 6.65-26.448 13.91-14.699 7.06 11.424 29.826 5.589 41.351-10.598 17.105-24.02 16.326-77.524-1.37-94.151-13.536-12.715-34.113-16.025-40.037-6.443-5.905 9.558-13.854.109-13.854-16.462 0-10.86-3.328-16.585-10.769-18.531-7.777-2.032-9.915-6.077-7.697-14.557 3.044-11.634 4.706-11.743 177.371-11.743h174.298l1.713 23.645c1.701 23.534 1.825 23.655 25.358 25.359 20.897 1.511 23.646 3.292 23.646 15.301 0 12.381-2.209 13.591-24.842 13.591-19.148 0-26.208-2.551-30.8-11.129-5.436-10.16-11.648-11.129-71.415-11.129-69.024 0-78.812 3.166-78.812 25.471 0 6.664-3.756 15.233-8.347 19.042-11.921 9.895-10.385 40.228 2.752 54.328 10.225 10.975 15.537 11.746 67.505 9.773 31.022-1.178 59.079-4.812 62.345-8.081 3.268-3.269 22.969-5.944 43.78-5.944h37.834v16.075c0 18.357-4.181 19.695-80.678 25.813-24.482 1.957-50.773 4.76-58.423 6.224-7.651 1.465-65.864 4.113-129.363 5.885L87.254 469.75Zm14.773-24.874c-12.39-13.689-12.529-68.614-.222-87.393 19.326-29.495 41.091-8.448 41.091 39.735 0 48.954-19.314 71.474-40.869 47.658m166.922-16.692c-26.076-28.816 15.791-69.747 43.252-42.287 10.346 10.347 11.521 36.331 2.067 45.786-9.978 9.977-34.864 8.055-45.319-3.499m68.108 3.218c-.322-.765-1.184-11.194-1.919-23.173-1.642-26.725-18.467-42.204-45.877-42.204-12.978 0-18.561-2.282-17.011-6.953 1.639-4.94 21.948-7.409 70.015-8.519 57.756-1.332 67.704-.307 67.704 6.954 0 6.617 6.836 8.518 30.602 8.518h30.603v50.076h-83.46v-30.989c0-28.955-.824-30.871-12.519-29.212-10.985 1.562-12.733 5.51-14.244 32.212-1.356 23.917.363 31.96 8.019 37.559 8.563 6.263 7.258 7.122-10.795 7.122-11.297 0-20.799-.626-21.118-1.391m259.686-25.036c1.81-11.478.649-27.753-2.578-36.168-5.557-14.487-5.026-15.302 10.004-15.302 18.637 0 27.003 8.49 31.748 32.221 3.047 15.239 1.266 18.579-15.269 28.659-25.473 15.532-27.7 14.655-23.905-9.41M70.562 235.346c0-5.646 4.577-14.409 10.175-19.473 8.864-8.026 27.139-9.21 141.936-9.21h131.761l17.834-36.165c12.006-24.349 21.08-36.168 27.768-36.168 13.193 0 12.555 6.327-3.921 38.84-8.392 16.559-11.666 28.692-8.306 30.771 3.05 1.884 7.048-.488 8.885-5.271 1.836-4.786 9.265-8.699 16.511-8.699 8.959 0 15.886-5.253 21.659-16.417 11.362-21.972 10.904-23.35-6.334-19.022-12.508 3.139-14.247 2.212-11.129-5.914 2.032-5.297 3.697-10.68 3.697-11.962 0-1.278 94.243-2.326 209.43-2.326 192.862 0 210.029.77 217.004 9.738 7.21 9.271 7.851 9.271 13.408 0 4.586-7.648 13.237-9.685 40.335-9.493l34.5.248-22.258 11.725c-36.786 19.385-43.92 36.768-27.786 67.707 4.571 8.763 8.312 16.901 8.312 18.082s-12.357 2.147-27.457 2.147c-25.737 0-28.444-1.403-43.122-22.311-8.616-12.272-20.67-23.613-26.791-25.205s-88.638-2.194-183.368-1.337l-172.24 1.559-14.156 28.884-14.158 28.883-171.095.325c-162.711.31-171.094-.174-171.094-9.939Zm828.77-29.203c-14.05-26.247 14.14-55.44 38.695-40.077 11.147 6.974 14.623 33.103 5.814 43.715-10.189 12.278-37.172 10.075-44.509-3.638m-860.001-1.892c-1.683-4.385 3.404-17.486 11.303-29.111s14.362-25.562 14.362-30.975c0-8.093 4.928-9.835 27.821-9.835 15.301 0 27.821 1.376 27.821 3.059s-3.821 10.443-8.489 19.473c-8.439 16.32-8.395 16.417 7.317 16.417 12.584 0 17.695-3.968 25.089-19.476 8.59-18.009 11.176-19.473 34.414-19.473 27.062 0 29.215 2.48 16.607 19.148-11.466 15.157-10.226 19.801 5.288 19.801 9.375 0 17.105-5.905 25.491-19.476 11.129-18.006 14.108-19.473 39.546-19.473h27.508l-8.489 16.417c-11.144 21.552-10.904 22.532 5.513 22.532 10.521 0 16.308-4.839 23.285-19.476 8.717-18.272 10.94-19.473 36.077-19.473 14.734 0 26.79 1.334 26.79 2.967s-6.301 15.402-14.005 30.602l-14.002 27.635H218.595c-108.749 0-131.111 1.364-136.904 8.348-8.82 10.624-38.327 10.881-42.36.372ZM6.505 185.713c-3.097-2.25-5.961-10.975-6.366-19.39-.706-14.708.325-15.302 26.498-15.302 14.979 0 27.233 1.492 27.233 3.316 0 1.822-5.179 10.586-11.507 19.474-11.223 15.759-24.478 20.158-35.858 11.902m58.568-72.248c.044-5.356 1.586-15.372 3.431-22.257 3.337-12.446 3.998-12.517 113.017-12.517h109.665l13.066-13.911c7.187-7.65 18.39-13.91 24.891-13.91 10.27 0 11.519 2.595 9.514 19.78-4.004 34.291 1.022 35.484 150.599 35.682 84.508.115 132.148-1.828 132.148-5.386 0-3.549-46.367-5.563-127.972-5.563-81.609 0-127.976-2.017-127.976-5.566 0-3.059-3.755-5.563-8.344-5.563-4.592 0-8.347-3.756-8.347-8.348 0-4.588 4.024-8.344 8.94-8.344 5.664 0 7.769-3.062 5.741-8.348-2.546-6.631 1.78-8.344 21.065-8.344 16.437 0 25.302 2.693 27.472 8.344 1.76 4.592 9.54 8.348 17.285 8.348 8.811 0 14.085-3.127 14.085-8.348 0-11.084 27.118-11.084 31.373 0 1.845 4.811 10.16 8.348 19.63 8.348 9.531 0 14.982-2.336 12.986-5.566-2.191-3.543 13.984-5.563 44.581-5.563 47.536 0 63.918 5.687 63.918 22.187 0 3.461 2.705 4.618 6.015 2.572 3.307-2.043 4.582-9.417 2.834-16.382-1.78-7.096-.141-15.059 3.724-18.106 3.871-3.051 38.663-4.943 79.234-4.308l72.333 1.128 22.87-21.762L825.723 0l31.939 27.951c22.666 19.833 42.682 31.455 68.935 40.033 20.348 6.644 38.803 13.701 41.008 15.682 2.203 1.979-2.312 11.058-10.033 20.176-10.893 12.863-12.647 13.704-7.822 3.75 10.851-22.379 2.589-26.164-10.586-4.848-16.432 26.589-30.933 29.238-16.94 3.091 11.106-20.749 1.861-23.483-10.213-3.017-9.546 16.181-15.428 20.383-28.521 20.383-12.841 0-16.887-2.758-18.271-12.461-2.637-18.493-21.251-20.12-21.251-1.857v14.318H454.482c-367.257 0-389.48-.555-389.409-9.736m781.871-62.911c5.489-8.882-1.757-31.411-11.274-35.064-19.801-7.597-38.232 16.76-24.865 32.864 7.787 9.384 30.833 10.787 36.139 2.2m-29.598-6.588c-8.197-9.876.262-22.523 13.378-19.999 12.795 2.466 14.094 23.268 1.604 25.675-4.872.936-11.613-1.615-14.982-5.676M79.048 62.223c-1.816-2.935-.109-10.446 3.792-16.692 6.688-10.709 12.487-11.353 101.884-11.353 77.646 0 97.081 1.6 107.427 8.847 10.022 7.018 11.286 10.467 6.121 16.691-5.179 6.243-27.906 7.846-111.218 7.846-60.844 0-106.089-2.235-108.006-5.339"/></svg>