<svg xmlns="http://www.w3.org/2000/svg" width="3733.794" height="1000" viewBox="0 0 3733.794 1000"><path d="m1702.621 990.628-15.521-9.304.018-123.045.018-123.046 11.124-11.869 11.124-11.869h109.189v-9.129c0-10.321 6.145-11.713 16.648-3.768 9.245 6.992 41.454 6.992 50.7 0 3.896-2.948 8.416-5.361 10.041-5.361s2.954 69.02 2.954 153.38v153.379l-90.385-.029c-90.334-.029-90.396-.029-105.906-9.336Zm61.41-45.536c6.662-3.569 7.065-8.446 7.065-85.614 0-96.883 1.69-93.202-42.81-93.202h-26.577l.054 84.905c.03 46.699 1.262 86.715 2.741 88.924 1.475 2.21 5.146 4.957 8.158 6.102 9.435 3.594 43.974 2.842 51.369-1.115m496.8 41.996-11.335-12.909V828.61l-10.742-16.939c-10.739-16.932-10.743-16.965-10.456-73.468l.277-56.526-20.584-20.802-20.588-20.802v-82.339c0-95.346-1.185-92.133 38.929-105.681 13.774-4.648 26.57-12.149 34.245-20.068 22.295-23.004 31.53-16.165 33.205 24.603 1.018 24.752.218 29.124-6.788 36.567-29.339 31.232-23.513 85.185 11.851 109.737 25.264 17.542 54.948 17.829 80.078.778 7.323-4.972 14.035-9.035 14.922-9.035s9.849 12.447 19.923 27.656l18.316 27.66v106.004l-38.439 40.765-38.438 40.768.385 66.934c.385 66.239.276 67.079-9.089 81.256l-9.478 14.322h-64.877Zm64.543-21.99c7.464-5.226 8.119-8.613 8.119-41.997 0-19.973-1.236-36.254-2.741-36.181-3.441.174-48.388 74.296-48.388 79.806 0 6.225 33.616 4.949 43.01-1.625Zm-24.367-59.241c10.455-17.516 21.223-34.448 23.931-37.624 6.959-8.173 2.7-10.659-18.244-10.659-28.47 0-31.635 4.83-31.635 48.254 0 21.91 1.37 35.324 3.471 34.027 1.904-1.181 12.021-16.478 22.477-33.998m19.519-79.664c5.32-5.317 3.968-7.89-15.845-30.127-30.483-34.212-47.331-49.814-50.438-46.707-2.675 2.675 11.716 64.241 17.825 76.26 4.394 8.645 39.965 9.067 48.458.574m82.354-82.666c0-1.549-27.94-2.813-62.086-2.813-43.458 0-62.083 1.228-62.083 4.099 0 2.253 13.483 17.909 29.96 34.79l29.957 30.69 32.126-31.973c17.669-17.589 32.126-33.245 32.126-34.793m-121.24-39.253c1.229-25.704-.966-29.989-12.97-25.381-7.25 2.78-8.217 5.713-8.217 24.912 0 17.666 1.203 22.074 6.389 23.412 11.855 3.056 13.694.203 14.798-22.943m62.05-3.271c-1.017-23.095-1.486-24.199-10.197-24.199-8.719 0-9.18 1.093-10.205 24.352-.927 20.955-.164 24.552 5.48 25.803 13.817 3.059 16.038-.8 14.926-25.956Zm61.159 23.673c.055-.229-.494-10.67-1.235-23.222-1.29-21.307-1.966-22.826-10.187-22.826-8.471 0-8.805.977-8.805 25.635v25.632l10.041-2.41c5.524-1.322 10.11-2.587 10.19-2.805Zm-83.026-76.859 1.116-16.749-17.549-7.523c-9.653-4.136-20.308-10.016-23.677-13.065-7.464-6.756-10.266-5.273-37.693 19.93l-21.046 19.341 7.563 8.046c7.007 7.464 10.572 8.002 48.865 7.41l41.306-.636Zm63.093 16.205c28.612 0 29.026-.636 16.724-25.562-8.762-17.761-9.619-18.019-41.673-12.615l-15.521 2.617v17.171c0 18.647 2.337 23.324 10.15 20.326 2.78-1.065 16.427-1.94 30.32-1.94Zm-147.576-56.017c23.702-21.35 25.297-23.691 20.497-30.131-3.838-5.145-4.946-16.084-4.212-41.669.774-27.016-.385-37.272-5.193-46.332-3.402-6.399-7.774-12.617-9.715-13.817-1.94-1.203-10.172 3.816-18.287 11.146l-14.754 13.334v65.309c0 35.92 1.337 65.31 2.98 65.31 1.639 0 14.547-10.419 28.684-23.15m-831.651 111.707c-.109-3.514-2.21-26.369-4.641-50.791l-4.434-44.402 12.912-2.068c47.448-7.584 75.006-59.324 55.032-103.319-7.591-16.717-5.785-19.446 12.858-19.446 8.806 0 8.831-.117 8.831-40.172v-40.172h36.52v104.26l16.568 40.081c9.114 22.045 19.962 48.298 24.112 58.339 4.151 10.045 11.561 27.086 16.474 37.868 4.91 10.786 8.439 20.05 7.839 20.591-7.068 6.4-157.359 45.623-174.814 45.623-4.19 0-7.126-2.587-7.257-6.392m-162.818-43.755c-30.345-40.826-36.589-52.347-48.418-89.328-14.689-45.946-16.052-95.262-3.35-121.402 4.382-9.017 9.721-17.019 11.869-17.779 2.144-.759 29.869.146 61.599 1.992 40.648 2.376 59.102 2.202 62.456-.582 3.329-2.765 5.528-21.369 7.309-61.926 2.311-52.517 1.915-59.109-4.223-70.088-8.148-14.591-14.355-16.488-65.233-19.955l-39.129-2.668-22.22-20.547c-12.221-11.303-29.233-23.673-37.802-27.496-15.463-6.894-15.529-7-8.257-13.774 12.334-11.491 19.268-28.397 16.764-40.877-5.066-25.264-6.301-23.793 33.656-39.994l37.538-15.216 15.041-25.563c8.275-14.06 17.677-28.619 20.897-32.351 9.478-10.989 39.194-24.254 54.345-24.254 18.182 0 23.462 5.771 67.915 74.158 33.674 51.809 35.146 54.92 35.146 74.275 0 17.826-2.791 25.476-23.738 65.07l-23.739 44.867.055 54.324c.029 29.88 1.261 56.053 2.74 58.168s8.846 7.592 16.379 12.167c14.435 8.773 17.539 19.279 9.914 33.529-2.907 5.429-7.711 7.065-20.758 7.065-58.346 0-94.339 69.863-59.081 114.683 6.607 8.402 6.982 10.648 2.73 16.433-9.369 12.745-76.761 89.829-79.388 90.807-1.451.542-10.907-10.143-21.013-23.738Zm23.771-105.747c25.123-16.339 26.221-17.633 23.931-28.303-3.627-16.924-8.333-23.953-18.665-27.881-7.962-3.027-12.643-1.475-30.818 10.216-11.789 7.584-22.281 16.397-23.316 19.584-1.748 5.379 9.176 34.975 15.096 40.895 4.248 4.249 6.24 3.391 33.772-14.511m-40.219-52.717c14.784-10.87 15.456-12.189 14.413-28.205-1.068-16.412-1.388-16.819-13.875-17.473-19.236-1.006-25.566 6.785-25.566 31.479 0 29.775 2.173 31.007 25.028 14.199m92.595-5.767c7.613-7.44 13.846-14.646 13.846-16.02s-5.048-3.238-11.219-4.143c-13.817-2.028-28.95 8.722-28.95 20.559 0 17.425 8.196 17.302 26.323-.396m57.67-217.607c0-2.587 5.753-15.739 12.781-29.222 14.395-27.612 15.366-33.852 6.738-43.384-4.811-5.313-11.52-6.68-32.867-6.68h-26.824v23.524c0 12.938 1.643 24.538 3.649 25.777 2.006 1.243 3.649 8.46 3.649 16.041s1.097 14.878 2.438 16.219c4.59 4.594 30.432 2.664 30.432-2.275Zm-127.817-25.635c0-7.762 3.649-15.071 11.644-23.32l11.647-12.015-6.109-12.81c-3.859-8.086-8.696-12.807-13.13-12.807-9.165 0-36.919 33.194-36.919 44.155 0 10.263 20.813 32.726 27.83 30.033 2.777-1.065 5.037-6.996 5.037-13.236m-22.47-50.42c9.347-10.274 18.97-23.012 21.391-28.303 4.957-10.837 6.232-33.358 1.886-33.358-1.566 0-14.3 4.834-28.303 10.739-24.018 10.128-25.595 11.524-27.892 24.651-1.341 7.649-4.252 18.632-6.469 24.399-4.946 12.847.055 20.555 13.356 20.555 6.225 0 14.329-5.818 26.031-18.683m100.594-1.701c4.699-12.243 2.3-58.215-3.467-66.45-7.098-10.133-30.923-10.729-47.266-1.185-9.329 5.451-11.121 8.925-12.069 23.411-.727 11.142 1.406 22.703 6.185 33.507l7.298 16.492h23.552c18.106 0 24.066-1.334 25.77-5.775Zm71.956-22.401c5.833-3.445 10.604-7.337 10.604-8.646 0-1.311-6.785-14.104-15.081-28.43-13.25-22.891-16.369-26.046-25.73-26.046-14.028 0-28.576 14.555-28.576 28.594 0 19.759 4.332 32.675 12.248 36.505 12.178 5.895 34.837 4.932 46.535-1.977m-95.68-63.732c8.05-.316 17.077 1.45 20.057 3.925 12.832 10.648 28.949-10.91 27.129-36.28-.938-13.072-3.013-17.139-11.012-21.609-9.31-5.204-10.706-4.906-25.348 5.386-8.526 5.989-20.929 19.919-27.565 30.952-13.923 23.15-14.864 27.278-5.001 21.998 3.903-2.09 13.687-4.056 21.74-4.372m506.18 527.803c-41.622-31.392-54.164-33.638-79.479-14.242-12.345 9.46-23.466 14.377-38.348 16.96-40.066 6.953-61.195 10.678-72.472 12.782-11.044 2.064-11.597 1.501-20.777-21.042-5.186-12.741-20.198-48.636-33.365-79.766-13.163-31.134-23.949-57.565-23.96-58.732-.022-1.813 74.915-20.355 96.749-23.938 38.169-6.262 63.692-14.457 73.381-23.557 6.61-6.21 11.135-7.362 22.241-5.651 44.751 6.887 41.771 7.37 60.501-9.786 9.54-8.741 17.346-18.687 17.346-22.107 0-6.527 9.965-24.087 16.346-28.808 6.633-4.906 39.867-1.788 53.557 5.022 7.315 3.638 20.875 15.275 30.131 25.854l16.826 19.235V644.83l-14.609 2.333c-13.65 2.184-14.606 3.133-14.606 14.497 0 10.953-1.399 12.581-14.119 16.39-30.167 9.042-40.441 6.313-75.343-20.017m-146.973-23.437c18.549-4.132 37.021-10.448 41.044-14.035s17.477-10.223 29.899-14.751c19.871-7.243 24.825-7.751 41.262-4.226 10.277 2.202 20.246 4.008 22.157 4.008 2.039 0 3.471-22.423 3.471-54.334 0-59.749-1.973-65.898-18.269-56.878-5.462 3.023-20.093 5.058-36.509 5.077-34.906.029-167.989 31.221-167.989 39.358 0 2.823 7.563 23.523 16.805 45.997 9.241 22.474 18.24 44.562 19.995 49.083 3.903 10.056 6.003 10.085 48.134.701m-32.896-42.381c-7.665-3.093-5.484-22.394 3.045-26.958 6.069-3.249 9.024-2.791 14.606 2.264 15.609 14.126 2.3 32.747-17.651 24.694m91.115-27.525c-12.134-12.135 2.145-33.067 17.103-25.065 10.175 5.448 12.443 14.918 5.429 22.67-7.036 7.773-16.175 8.747-22.528 2.395Zm118.63-17.531c-.276-38.163-.738-69.387-.974-69.387-7.85 0-23.237 9.754-24.843 15.75-2.758 10.285-2.802 96.847-.051 107.088 1.988 7.41 12.923 15.154 22.154 15.688 3.125.175 4.11-18.272 3.714-69.139m67.13 47.349c6.287-3.365 7.062-7.948 7.062-41.716v-37.934l-13.018-4.295c-13.559-4.478-36.432-2.163-44.5 4.502-3.053 2.526-4.561 15.028-4.561 37.814 0 31.035.716 34.539 8.115 39.725 9.223 6.458 36.331 7.559 46.902 1.904M102.978 656.696c-21.086-4.434-48.429-19.781-64.056-35.964-14.195-14.693-31.704-45.423-31.704-55.642 0-3.598-1.643-7.56-3.649-8.799-4.572-2.824-4.826-43.522-.331-52.092 1.828-3.485 5.979-13.9 9.22-23.138 11.942-34.027 47.659-64.95 86.526-74.908 36.879-9.449 77.829-1.762 109.046 20.468l10.598 7.544 61.366-37.039a96647 96647 0 0 1 91.036-54.887c21.539-12.959 33.547-17.891 43.824-18.007 20.94-.236 32.315-5.193 132-57.539 70.579-37.058 120.519-59.801 222.149-101.157 118.091-48.055 150.403-61.418 185.883-76.863 9.696-4.223 23.342-9.289 80.344-29.825 8.031-2.893 20.064-9.416 26.736-14.493 11.128-8.471 24.386-12.502 75.518-22.961 10.041-2.057 37.981-8.006 62.083-13.228 34.826-7.541 49.072-9.006 69.387-7.134 34.72 3.202 36.17 3.83 47.116 20.366l9.591 14.493h-9.296c-5.11 0-20.094 7.243-33.289 16.092-22.844 15.329-28.812 22.699-52.005 64.248-1.683 3.013-16.034 10.085-31.89 15.714-15.855 5.626-32.958 12.473-38.002 15.213-7.152 3.881-12.894 4.128-26.032 1.123-14.307-3.275-18.992-2.813-30.952 3.045-16.513 8.09-30.621 27.434-30.621 41.986v10.266l-17.557-8.82c-9.656-4.848-28.571-20.391-42.036-34.543-13.464-14.147-27.223-25.722-30.574-25.722-8.697 0-30.345 8.246-30.345 11.56 0 5.767 12.926 9.758 19.57 6.036 13.453-7.53 37.424 29.637 34.59 53.63-1.469 12.385 1.588 10.768-72.422 38.42-33.14 12.385-72.581 27.183-87.645 32.885-39.198 14.842-113.92 42.724-147.038 54.865-15.594 5.717-29.582 11.15-31.083 12.08-3.863 2.388-13.032-5.073-20.689-16.837-5.222-8.017-9.307-10.045-20.268-10.045-20.94 0-35.284-3.75-43.453-11.36-4.074-3.794-9.18-6.898-11.35-6.898-2.173 0-39.634 18.128-83.255 40.281l-79.304 40.281-20.831 28.194c-18.36 24.851-25.287 30.88-58.412 50.817-60.084 36.159-61.556 32.809 15.547 35.342 74.962 2.464 248.085 7.519 458.14 13.381 295.431 8.242 346.004 10.255 349.664 13.915 2.042 2.046 2.667 6.447 1.388 9.779-2.071 5.397-7.835 5.815-52.524 3.813-27.609-1.24-112.648-3.834-188.973-5.768-76.325-1.937-168.352-4.43-204.508-5.545-127.581-3.936-431.055-12.655-440.969-12.666-9.776-.01-10.049.553-10.205 20.988-.109 11.549-2.362 27.18-5.059 34.731-2.856 8.01-3.499 14.602-1.544 15.813 1.846 1.144 23.437 1.163 47.974.029 24.535-1.116 83.23-2.915 130.43-3.998 47.204-1.083 108.829-2.776 136.95-3.761 28.117-.992 120.97-3.511 206.333-5.608s205.33-5.16 266.591-6.81 112.615-2.293 114.123-1.425c1.505.862 2.737 4.688 2.737 8.493 0 9.733-6.531 10.321-140.599 12.647-64.273 1.116-134.115 2.86-155.207 3.871-21.089 1.013-106.543 3.441-189.899 5.396-83.354 1.955-214.823 5.433-292.154 7.73l-140.598 4.176-12.044 12.28c-6.625 6.755-10.735 12.305-9.133 12.33 1.607.018 219.489.436 484.19.912 423.19.76 481.693 1.527 484.739 6.346 9.536 15.089 25.977 14.609-500.155 14.609-316.953 0-507.187 1.316-513.052 3.543-14.13 5.372-53.102 7.432-70.681 3.736Zm78.163-36.345c32.155-18.444 52.496-51.9 52.496-86.344v-15.889l-35.433 21.827c-31.763 19.559-37.469 21.823-55.061 21.823-16.823 0-21.151-1.523-30.302-10.677-12.389-12.389-14.355-31.436-4.757-46.089 3.26-4.971 23.891-19.864 45.856-33.1 36.327-21.884 39.343-24.512 33.339-29.062-13.944-10.568-41.778-17.153-64.724-15.314-52.128 4.186-86.707 39.002-95.52 96.181-2.907 18.894 4.266 27.104 23.698 27.104 17.815 0 29.648 11.368 22.968 22.067-6.411 10.262-5.716 12.614 8.177 27.779 11.993 13.094 12.901 13.443 19.461 7.508 12.719-11.513 44.649-5.949 44.649 7.781 0 7.163 6.694 15.227 12.6 15.173 2.111-.019 12.258-4.867 22.553-10.768m-22.27-84.258c15.049-16.627-10.75-42.426-27.38-27.38-14.238 12.887-6.167 34.386 13.022 34.677 4.204.058 10.67-3.22 14.358-7.297m476.554-233.611c1.719 0 3.646-5.917 4.267-13.145.978-11.32 2.907-13.774 13.915-17.666 21.529-7.613 171.071-64.041 253.265-95.567 17.774-6.818 34.619-12.396 37.431-12.396 2.81 0 5.11-2.37 5.11-5.262 0-12.967-6.8-11.375-94.95 22.248-23.098 8.809-57.608 21.867-76.691 29.015-99.511 37.283-121.824 46.354-154.296 62.718-17.574 8.857-31.951 17.6-31.951 19.428s.385 3.347.912 3.377c.498.032 7.486 2.427 15.521 5.327s16.798 4.517 19.472 3.598c2.675-.923 6.273-1.675 7.999-1.675Zm2930.592 352.306c-12.472-4.496-94.608-5.273-561.485-5.321l-546.875-.058v-8.671c0-6.825 2.475-9.169 11.597-10.993 6.374-1.276 244.252-2.286 528.613-2.246 284.362.029 518.064.058 519.34.029 1.275-.018-2.835-5.611-9.129-12.425l-11.448-12.385-124.168-3.954c-68.29-2.177-161.139-4.874-206.333-5.997-74.475-1.85-214.902-5.938-370.67-10.797-32.136-1.003-97.588-2.918-145.449-4.255l-87.02-2.435 9.074-9.075 9.075-9.074 218.543 5.992c120.2 3.3 241.552 6.789 269.673 7.752 28.117.967 82.35 2.609 120.512 3.652 38.163 1.047 99.791 2.737 136.946 3.762 37.159 1.025 86.835 2.773 110.391 3.885 23.557 1.115 44.362 1.075 46.23-.088 2.028-1.25 1.334-9.841-1.704-21.263-2.806-10.539-5.121-24.763-5.142-31.61l-.029-12.451-86.733 2.428c-47.706 1.334-181.228 4.863-296.718 7.843-115.494 2.98-273.256 7.061-350.587 9.067-77.328 2.006-143.473 3.667-146.991 3.692-4.39.029-6.389-2.809-6.389-9.085 0-8.112 1.526-9.133 13.694-9.158 7.533-.008 65.462-1.614 128.732-3.555 63.267-1.937 184.056-5.185 268.416-7.217 84.359-2.028 174.744-4.51 200.856-5.517 26.111-1.006 97.184-2.885 157.944-4.175s110.471-3.551 110.471-5.023-21.383-15.412-47.52-30.977c-43.701-26.032-49.349-30.669-70.299-57.729l-22.779-29.426-79.937-39.874-79.941-39.87-11.36 8.439c-8.533 6.338-17.488 8.787-36.011 9.852-15.95.916-24.651 2.962-24.651 5.8 0 2.409-4.938 9.114-10.978 14.9-8.508 8.151-11.96 9.54-15.336 6.16-2.399-2.395-6.513-4.357-9.148-4.357-2.631 0-11.752-3.18-20.267-7.069-8.515-3.885-29.452-11.942-46.521-17.902-17.073-5.96-49.119-17.72-71.215-26.133-41.121-15.663-109.225-41.335-151.555-57.133-32.039-11.96-34.499-13.548-35.931-23.225-3.664-24.84 20.336-63.129 34.742-55.421 6.763 3.619 19.45-.269 19.45-5.96 0-2.835-25.984-11.662-34.328-11.662-2.871 0-14.747 10.844-26.384 24.101-17.498 19.926-51.027 45.111-60.247 45.249-1.254.022-3.336-6.592-4.63-14.693-1.512-9.43-6.839-19.613-14.809-28.302-12.164-13.262-13.069-13.578-39.198-13.705-14.708-.073-29.208-1.192-32.221-2.493-3.016-1.297-16.161-6.036-29.215-10.528-29.821-10.259-30.072-10.466-49.326-40.227-12.091-18.69-22.005-28.738-40.801-41.345-13.657-9.162-28.56-16.659-33.121-16.659h-8.29l8.253-12.745c13.229-20.439 56.392-28.95 95.895-18.912 12.051 3.063 39.169 9.045 60.258 13.293 66.508 13.396 85.461 18.698 98.602 27.594 7.028 4.758 26.751 13.825 43.824 20.152 17.07 6.323 36.218 13.802 42.549 16.622 6.327 2.817 12.654 5.125 14.053 5.125 1.403 0 7.73 2.402 14.057 5.342 14.275 6.629 71.538 30.152 124.717 51.231 22.096 8.761 58.248 23.585 80.344 32.947 22.092 9.361 50.853 21.1 63.907 26.089 13.057 4.986 41.814 18.197 63.91 29.357 57.943 29.266 136.208 69.99 154.68 80.482 10.005 5.684 24.237 9.783 38.344 11.048 18.655 1.675 27.675 5.197 53.481 20.871 29.76 18.08 137.8 82.096 143.2 84.847 1.432.73 9.06-2.748 16.953-7.73 24.578-15.514 48.876-21.558 78.92-19.632 47.433 3.046 78.766 24.309 106.462 72.251 12.923 22.368 13.727 25.584 13.948 55.824.146 19.497-1.337 33.111-3.772 34.692-2.199 1.435-5.051 6.905-6.338 12.156-7.058 28.877-47.68 68.213-80.707 78.156-22.583 6.796-57.831 6.72-76.943-.174Zm19.352-28.016c2.409-2.413 4.383-7.283 4.383-10.826 0-3.547 3.18-8.148 7.064-10.227 10.26-5.491 31.509-4.63 36.578 1.479 5.862 7.062 12.469 3.951 24.149-11.364 7.167-9.397 8.668-13.849 5.67-16.847-11.132-11.132 1.766-28.176 21.325-28.176 16.771 0 22.077-5.281 22.077-21.979 0-69.42-72.676-121.447-135.91-97.298-29.593 11.302-28.804 13.13 17.371 40.299 52.118 30.669 61.29 44.675 47.15 72.015-6.64 12.843-17.978 17.92-40.023 17.92-12.959 0-22.274-3.834-49.272-20.282-47.767-29.099-45.434-28.979-42.632-2.199 3.863 36.978 24.985 69.569 54.578 84.214 17.85 8.839 21.492 9.271 27.492 3.271m29.208-87.848c2.093-2.523 4.888-8.911 6.218-14.199 4.154-16.55-20.075-28.179-32.606-15.649-7.755 7.752-7.37 25.817.651 30.487 8.841 5.153 21.183 4.845 25.733-.639Zm-479.818-237.896c6.723-2.809 13.265-6.796 14.54-8.86 4.121-6.665-68.943-38.5-210.883-91.879-125.574-47.229-138.766-51.467-143.971-46.263-5.204 5.204-4.917 6.037 3.122 9.075 69.209 26.159 138.487 51.732 140.133 51.732 1.149 0 9.057 3.136 17.571 6.967 8.515 3.834 43.418 17.204 77.564 29.716 34.147 12.513 64.136 24.367 66.647 26.348s4.565 8.213 4.565 13.853c0 7.734 2.024 10.645 8.216 11.837 4.521.872 8.682 1.81 9.249 2.082.567.276 6.527-1.802 13.247-4.608M1983.48 644.529l-11.811-12.189 1.05-123.231c.923-107.756 1.788-123.765 6.879-127.497 3.918-2.871 20.799-3.903 51.624-3.151l45.801 1.116 2.242 11.207c1.236 6.168 2.246 63.467 2.246 127.338v116.122l-11.237 11.237c-10.833 10.829-12.389 11.237-43.108 11.237-31.334 0-32.068-.204-43.683-12.189Zm14.035-27.983c0-4.016-2.37-7.305-5.266-7.305-6.451 0-10.575 6.011-7.519 10.957 3.972 6.425 12.785 3.91 12.785-3.652m75.994.915c-.676-3.514-3.649-6.392-6.607-6.392-2.962 0-5.931 2.874-6.611 6.392-.865 4.485 1.109 6.389 6.611 6.389s7.472-1.904 6.607-6.389m-31.018-4.993c22.245-11.375 27.543-38.424 11.306-57.721-7.65-9.089-12.24-11.237-24.022-11.237-36.396 0-49.399 47.484-18.287 66.785 11.531 7.155 20.09 7.755 31.003 2.173m-31.628-17.208c-8.864-9.794-7.777-28.212 2.072-35.109 17.52-12.273 39.357-2.453 39.357 17.691 0 6.996-2.787 14.533-6.675 18.054-8.868 8.021-27.224 7.687-34.754-.632Zm-13.348-53.578c0-7.069-7.17-10.724-11.851-6.044-2.777 2.78-2.566 5.528.734 9.504 5.15 6.203 11.117 4.346 11.117-3.46m74.863-1.875c0-7.828-10.611-6.698-12.149 1.293-.937 4.881.553 6.371 5.43 5.43 3.699-.712 6.723-3.736 6.723-6.723Zm-52.953-65.684v-40.172h-36.52v29.927c0 27.504.796 30.76 9.816 40.172 5.397 5.633 13.614 10.241 18.258 10.241 8.315 0 8.446-.621 8.446-40.168m45.151 30.541c8.867-8.867 9.63-12.04 9.63-40.172v-30.541h-36.519v40.172c0 39.794.054 40.168 8.631 40.168 4.746 0 12.963-4.332 18.258-9.627m-46.957-89.007c4.572-7.392-2.166-18.226-11.335-18.226-9.569 0-14.569 7.399-11.099 16.434 2.359 6.153 18.923 7.475 22.434 1.792m43.806-7.269c0-10.633-12.552-14.558-19.555-6.12-6.822 8.221-1.076 17.641 9.975 16.358 7.487-.865 9.58-3.104 9.58-10.238m-728.561 237.638c0-5.851 18.868-18.523 27.583-18.523 13.879 0 19.893 3.983 19.893 13.173 0 8.319-1.137 8.737-23.738 8.737-13.054 0-23.738-1.523-23.738-3.387m606.221-89.171c0-77.648.868-93.689 5.088-93.689 2.794 0 6.083 2.598 7.301 5.778 1.221 3.177 2.217 42.36 2.217 87.078 0 76.666-.44 81.682-7.305 87.914-7.283 6.593-7.301 6.378-7.301-87.081m159.467 86.471c-1.341-1.338-2.439-39.671-2.439-85.181 0-81.776.109-82.845 8.453-90.691 7.119-6.687 12.742-7.937 35.608-7.922l27.154.007 1.247 78.294c.686 43.061.163 83.317-1.203 89.459-2.137 9.747-4.009 11.16-14.73 11.16-6.748 0-13.29 1.643-14.529 3.653-2.504 4.048-35.713 5.069-39.565 1.217Zm-723.397-48.178c-24.306-14.268-33.369-41.492-22.122-66.436 22.002-48.782 96.629-33.562 96.68 19.722.04 39.914-41.644 66.033-74.558 46.714m1073.373-12.847c-35.495-18.182-36.487-19.029-35.371-30.218 4.157-41.575-33.154-81.612-76.059-81.612h-18.596l1.101-19.04c1.05-18.022 1.712-19.163 12.381-21.329 19.861-4.034 19.767-3.736 19.767-62.464v-54.93l-23.739-43.639c-21.361-39.274-23.738-45.732-23.738-64.531 0-20.028 1.334-22.983 32.497-71.899 17.869-28.055 37.838-57.376 44.373-65.16 11.226-13.374 12.806-14.057 28.677-12.454 28.706 2.9 50.024 18.701 67.795 50.253 16.953 30.102 25.77 36.247 83.546 58.212 9.23 3.51 10.019 5.113 7.762 15.757-1.381 6.516-2.522 12.673-2.544 13.676-.276 15.281 2.693 23.782 12.004 34.383l11.171 12.723-15.736 7.94c-8.656 4.365-24.795 16.518-35.865 27.002l-20.126 19.061-32.827 2.53c-66.058 5.091-66.033 5.08-73.192 20.961-5.604 12.426-6.091 21.14-3.903 69.645 1.493 33.097 4.212 57.504 6.745 60.556 3.467 4.172 14.347 4.667 59.229 2.686 30.24-1.337 57.518-3.122 60.611-3.972 3.87-1.061 8.718 4.761 15.521 18.632 8.42 17.168 9.892 24.832 9.892 51.518 0 35.342 4.874 28.088-44.5 66.178-13.668 10.546-26.093 18.963-27.609 18.709-1.515-.258-19.188-8.882-39.274-19.174Zm63.464-29.11 12.337-12.825-17.164-12.123c-31.173-22.027-44.416-20.355-53.356 6.727-4.856 14.722-2.559 23.044 6.472 23.414 3.58.146 11.437 3.213 17.462 6.815 12.647 7.562 16.837 6.094 34.249-12.008m22.357-49.406c0-29.64-3.231-33.656-24.741-30.77-15.355 2.056-15.431 2.144-15.431 17.371 0 14.206 1.239 16.125 17.346 26.798 9.539 6.327 18.578 11.549 20.086 11.608 1.504.058 2.74-11.194 2.74-25.007m-88.379 17.08c11.037-11.033-1.359-28.597-21.147-29.967-16.245-1.126-16.957 3.413-3.071 19.57 13.163 15.318 17.455 17.161 24.218 10.397m-46.743-242.605c0-6.527 1.643-12.883 3.649-14.122 2.006-1.243 3.649-12.843 3.649-25.781v-23.52h-26.188c-27.296 0-39.46 5.495-39.623 17.909-.044 3.205 6.12 19.257 13.693 35.669 12.316 26.689 14.929 29.978 24.731 31.105 13.504 1.552 20.082-5.408 20.082-21.26Zm115.774-5.709c16.539-16.03 15.666-26.312-4.034-47.673-18.106-19.632-24.367-21.224-32.806-8.344-8.271 12.621-7.453 17.353 5.063 29.342 7.628 7.308 10.953 13.988 10.953 21.987 0 19.748 4.288 20.714 20.827 4.688Zm37.57-38.693c7.809-6.324 7.882-7.003 2.231-20.529-3.213-7.698-5.844-18.549-5.844-24.117 0-10.412-.109-10.488-53.865-31.78-3.238-1.283-4.565 2.885-4.565 14.322 0 13.813 2.391 18.981 16.67 35.996 17.829 21.245 29.862 32.649 34.456 32.649 1.566 0 6.476-2.943 10.92-6.541Zm-82.321-23.339c4.531-7.668 6.97-19.115 7.177-33.677.331-21.685.109-22.165-12.465-28.376-16.35-8.082-35.906-8.358-44.449-.625-5.375 4.866-6.68 11.568-6.68 34.394 0 39.634.167 39.903 26.994 39.903 21.478 0 22.888-.556 29.423-11.619m-80.799-14.315c7.334-3.339 9.213-7.515 11.081-24.65 2.133-19.555 1.683-21.151-8.715-30.669-18.116-16.593-26.046-13.802-43.301 15.246-8.264 13.907-15.023 26.856-15.023 28.768 0 12.316 37.235 19.838 55.958 11.305m29.862-61.711c2.886-4.674 27.733-4.728 39.932-.087 5.154 1.958 9.369 2.656 9.369 1.551 0-1.104-7.174-13.097-15.939-26.649-19.588-30.28-37.348-41.106-51.841-31.61-7.541 4.943-8.911 8.737-8.911 24.691 0 14.333 1.908 20.882 7.94 27.307 8.442 8.983 15.747 10.79 19.45 4.8Zm-110.544 450.65c-32.249-25.414-28.986-68.519 6.535-86.366 32.06-16.107 69.605 2.929 75.328 38.191 2.828 17.437-9.968 44.791-24.465 52.289-16.997 8.787-43.431 6.894-57.398-4.114M1262.565 438.737c-3.518-.919-6.389-4.114-6.389-7.105 0-4.372 3.383-4.978 17.346-3.11 22.382 2.994 26.474 4.382 26.474 8.965 0 3.7-24.879 4.528-37.431 1.25m1181.391-2.05c1.378-4.142 39.18-11.342 42.44-8.082.76.76.385 3.914-.785 7.014-2.798 7.294-44.075 8.355-41.655 1.068m-1193.442-17.149c-1.952-1.941-2.977-23.637-2.344-49.534l1.126-46.077 29.917 2.529c16.452 1.388 30.178 2.726 30.494 2.969.331.244-.331 21.398-1.443 47.008l-2.024 46.561h-26.126c-14.369 0-27.689-1.555-29.597-3.456Zm1183.925-18.992c-1.291-12.345-2.348-33.493-2.348-46.993v-24.549l28.303-1.875c15.565-1.036 28.826-1.411 29.466-.84.639.571 2.122 22.565 3.288 48.872l2.13 47.833h-58.492Zm-954.584 9.074c-3.486-1.406-4.565-23.822-4.565-94.662v-92.82h26.998c21.253 0 27.471 1.232 29.215 5.778 1.218 3.176 2.217 44.907 2.217 92.733 0 75.925-.734 87.238-5.775 89.175-6.796 2.605-41.491 2.46-48.09-.207Zm-217.334-91.406c-13.119-3.42-1.57-8.428 19.432-8.428 20.784 0 28.154 4.045 15.921 8.737-6.403 2.457-25.388 2.293-35.353-.309m1176.875-2.951c0-4.139 4.466-5.477 18.261-5.477 10.041 0 19.494-.29 20.998-.654 1.505-.36 3.271 2.108 3.922 5.477 1.003 5.197-2.203 6.131-20.999 6.131-17.284 0-22.182-1.21-22.182-5.477M1103.483 214.691c-16.717-15.572-4.096-47.385 18.749-47.276 14.42.072 18.876 2.838 25.671 15.935 6.331 12.2 2.054 29.441-8.732 35.215-10.925 5.844-27.148 4.085-35.688-3.874m1492.12 1.058c-9.242-10.525-10.914-21.671-4.972-33.155 9.253-17.894 29.782-20.798 44.311-6.268 10.954 10.953 11.437 23.425 1.396 36.192-9.213 11.713-31.719 13.497-40.735 3.231M1475.29 131.266V47.698l8.217-2.202c12.868-3.449 35.382-2.678 43.148 1.479 6.662 3.565 7.065 8.446 7.065 85.821v82.037h-58.43Z"/></svg>