<svg xmlns="http://www.w3.org/2000/svg" width="3063.157" height="1000" viewBox="0 0 3063.157 1000"><path d="M2288.721 225.564h42.106l4.511 3.007h663.158v87.218L3000 712.782l-1.504 1.504-21.053-1.504-58.646-7.519-34.587-4.511-54.135-18.045-55.639-19.549-43.609-15.038-69.173-24.06-64.662-22.556-60.15-21.053-28.572-7.519-39.097-15.037-52.632-19.549-66.165-22.556-28.572-9.023-7.519-6.015-22.556-7.519-34.586-1.504-3.008-6.015v-43.609l-57.143-1.503-6.015-3.008-7.519-10.526-1.503-6.015v-34.587l7.518-9.022 4.512-1.504 69.173-1.504 9.022-3.007 9.023-7.519 1.503-4.511 3.008-66.166h22.556l1.504 1.504v76.692l13.534-1.504 1.504-75.188 1.503-1.504h566.918l9.022 4.511 30.075 30.075 4.512 6.016 1.503 6.015v284.21l-1.503 15.038-9.023 12.03-18.045 18.045-4.511 7.519-1.504 6.015 37.594 7.519 39.098 6.015 7.518-3.008 1.504-3.007V240.601h-81.203l-7.519 3.008-3.007 6.015-1.504 37.594-171.428 1.504h-198.497l-201.503-1.504-3.008-13.534h-10.526l-1.504 12.03-1.504 1.504h-22.556v-60.15Zm165.414 81.203-1.504 1.504v10.526l4.511 4.511 9.023-1.504 3.008-4.511-1.504-7.519-3.008-3.007Zm118.797 6.015-13.534 3.007-10.526 9.023-3.008 4.511-1.503 13.534v46.617l1.503 108.27 4.512 13.534 16.541 21.053 6.015 6.015 49.624 16.541 45.113 16.542 67.669 24.06 42.105 16.541 21.053 9.023 61.654 22.556 27.068 9.023 12.03 1.503 13.534-4.511 4.511-6.015 3.007-19.549V345.865l-4.511-9.023-19.549-18.045-10.526-6.015Zm-369.925 78.196-7.519 7.518v9.023l7.519 9.022 9.023 1.504 9.022-6.015 1.504-3.007v-12.03l-6.015-6.015ZM2036.09 144.361h37.594l3.007 6.015 6.015 3.007 1.504 1.504 1.504 13.534v18.045l6.015 9.023 15.038 13.534 16.541 12.03-3.008 3.007-154.887 1.504-12.03 10.526-10.526 10.527-12.03 10.526-24.06 24.06-12.03 10.526-21.053 21.053-12.03 10.526-19.549 19.549-6.015 1.504h-437.594l-6.015-15.038-10.526-12.03-7.519-3.007h-254.135l-15.038 7.518-9.023 12.031-3.007 10.526H809.022l-99.248-49.624-43.609-1.504H215.038l-1.504-1.504v-7.519l94.737-1.503 13.533-1.504 4.512-3.008 1.503-4.511v-24.06l-3.007-7.519-109.774-1.504-1.504-1.503v-28.572l1.504-24.06 7.518-4.511 25.564-1.504 708.271 1.504 1.504 22.556-4.512 12.03-3.007 4.512-1.504 7.518v39.098l4.511 12.03 6.015 6.015 6.015 1.504h488.722l12.03-1.504 3.008-6.015 1.503-6.015 1.504-88.722 1.504-6.015 3.008-1.503h221.052l87.218 1.503v18.045l6.015 6.015 16.542 7.519 6.015 1.504 27.067 1.504h18.045l19.549-3.008L1900.752 200l108.27-1.504 7.519-4.511 12.03-16.541 3.008-7.519-1.504-19.549 1.504-4.511Zm1.504 4.511-3.008 4.511 1.504 9.023h12.03l1.504-1.504v-10.526l-1.504-1.504Zm-1818.045 36.09v13.534l1.504 4.511h12.03l3.007-4.511-1.504-10.526-3.007-3.008Zm1264.661 0-4.511 4.512v13.533l3.008 3.008h13.533l3.008-3.008V187.97l-7.519-3.008Zm-550.376 1.504-4.511 4.511v10.527l6.015 4.511h10.527l3.007-3.008v-13.533l-3.007-3.008Zm1105.263 3.008-3.007 3.007V200l3.007 3.007h9.023l1.504-7.518-3.008-6.015Zm-1670.676 4.511-12.03 3.007-4.511 4.512-1.504 4.511v21.053l4.511 7.518 6.015 3.008 79.699 3.007-10.526 9.023-1.504 3.008v19.548l4.512 7.519 9.022 4.511h124.812l9.023-6.015 1.504-3.007V248.12l-7.519-6.015-3.008-3.007h82.707l9.023-9.023 1.503-4.511v-15.038L657.143 200l-4.512-4.511-6.015-1.504H529.323l-12.03 3.007-6.015 9.023v19.549l4.511 9.022 7.519 1.504-1.504 3.008h-33.082l7.519-7.519 4.511-6.015v-18.045l-4.511-9.023-6.016-3.007-48.12-1.504Zm323.308 0-13.534 3.007-6.015 7.519-1.503 6.015v13.534l4.511 9.023 7.519 4.511h3.007v3.007l-42.105-1.503-37.594 1.503-12.03 4.512-3.008 4.511v21.053l4.512 10.526 7.518 3.007 9.023 1.504h109.774l12.03-4.511 7.519-7.519v-18.045l-4.511-9.022-6.015-4.512-3.008-1.504 7.519-1.503h54.136l24.06-3.008 7.519-7.519 1.503-3.007V212.03L818.045 200l-6.015-4.511-4.511-1.504Zm969.925 24.06v117.293l3.007 3.008h46.617l1.504-1.504V219.549l-1.504-1.504Zm-130.827 25.564-9.023 6.015-3.007 6.015 1.504 12.03 6.015 7.519 7.518 3.007 9.023-1.503 7.519-6.015 3.007-6.015-1.504-12.03-6.015-7.519-4.511-1.504Zm437.594-10.526h306.767l1.503 1.503v109.775l-1.503 1.504-28.572 1.504h-67.669l-43.609-1.504h-117.293v87.218h-317.293l-1.504-1.504-1.504-18.045-12.03-3.008-33.083-33.082-7.518-4.512-55.64-1.503-15.037-15.038v-1.504l257.143-1.503 6.015 3.007-4.512 3.008h-7.518l-4.512 3.007v61.654h24.061l1.503-28.571V363.91l-7.519-1.504v-7.519l19.549-16.541 31.579-31.579 12.03-10.526 34.587-34.587 12.03-10.526 12.03-12.03Zm245.113 12.03-7.519 4.511-3.008 6.015v9.023l6.015 9.022 7.519 4.511 10.526-1.503 7.519-6.015 3.008-7.519-1.504-10.526-4.511-6.015-4.512-1.504Zm-66.166 60.15-1.504 3.008v27.067l3.008 6.015h114.286l3.007-6.015v-24.06l-3.007-6.015Zm-419.549 54.136-6.015 4.511v60.15l6.015 1.504h21.053l1.504-3.008 1.503-22.556v-34.586l-7.518-6.015Zm46.617 0-4.511 4.511v57.143l1.503 3.007 4.512 1.504h19.548l3.008-3.008L1800 400v-36.09l-6.015-4.511Zm111.278-1.504-16.541 1.504-1.504 1.503v58.647l1.504 6.015h25.564l1.503-3.008v-60.15l-7.518-4.511Zm43.609 0-10.526 1.504-3.008 3.007-1.504 6.015 1.504 54.135 4.511 3.008h19.549l4.512-3.008v-60.15l-10.527-4.511Zm60.15 36.09-9.022 7.519-1.504 9.022 6.015 9.023 6.015 3.007 9.023-1.503 6.015-7.519 1.503-7.519-4.511-9.022-4.511-3.008ZM215.038 300.752h484.21l13.534 4.511 61.654 31.579 34.586 16.542 285.715 1.503v51.128h-16.542l-6.015-4.511-3.007-10.526-201.504 1.503-7.519 15.038-10.526 1.504h-36.09l-7.519-15.038-13.534-16.541-577.443-1.504-1.504-1.504v-72.18Zm43.609 25.564-9.023 6.015-3.007 9.022 3.007 10.527 7.519 6.015h10.526l9.023-7.519 1.503-3.007v-10.527l-4.511-7.519-6.015-3.007Zm556.39 43.609-4.511 4.511 1.504 10.526 1.504 4.512 9.022 1.504 7.519-3.008 3.008-10.526-1.504-6.015-3.008-1.504Zm888.722 93.233 7.519 4.511 22.556 21.053 12.03 10.526 3.008 1.504-3.008 24.06 4.512 25.564 6.015 18.045 13.534 22.557 18.045 25.563 13.533 16.542 16.542 19.549 7.519 3.007h129.323l16.541-1.504L2000 639.098l12.03-10.527 6.015-13.533 3.007-15.038v-42.105l-3.007-15.038-6.015-15.037-10.527-13.534-15.037-10.527-13.534-6.015-6.015-1.503-27.068-1.504h-192.481l-10.526-9.023-3.008-7.518h460.151l54.135 1.503v10.527l-1.504 1.503-37.594 1.504-7.519 3.008-7.518 10.526-4.512 15.038v13.533l6.015 18.046 15.038 25.563 12.03 22.557 16.541 24.06 31.579 46.617 22.557 33.082 13.534 16.542 15.037 15.037 6.015 4.511-1.504 12.03-9.022 34.587-7.519 18.045-12.03 16.541-16.541 16.542-18.045 13.534-21.053 15.037-22.556 15.038-21.053 13.534-6.015-3.008-10.526-15.037-16.542-27.068-19.549-30.075-18.045-28.572-19.549-30.075-19.549-31.579-19.548-30.075-7.519-9.023-9.023-4.511-10.526-1.504h-231.579l-34.586 16.542-31.579 15.037-6.015 3.008-19.549 1.504h-60.151l-6.015-3.008 4.512-6.015 1.503-21.053 1.504-3.007h15.038l3.007 12.03h22.557l1.503-10.526Zm357.895 31.579-9.023 4.511-3.007 3.008-1.504 13.534 10.526 40.601 1.504 25.564-3.007 28.571-4.512 12.03-12.03 16.542 1.504 12.03 42.105 63.158 15.038 24.06 22.556 34.586 21.053 33.083 33.083 51.128 18.045 27.068 6.015 1.503 21.052-13.534 25.564-18.045 24.06-19.549 12.03-10.526 13.534-18.045 10.527-21.053 1.503-4.511v-10.526l-13.534-24.06-15.037-22.557-21.053-30.075-15.037-22.556-18.045-25.564-42.106-63.158-12.03-24.06-6.015-18.045v-12.03l4.511-16.542v-10.526l-10.526-6.015Zm-327.82 166.917-7.518 4.511-6.016 7.519v9.023l6.016 9.022 4.511 3.008h10.526l7.519-4.511 4.511-7.519-1.504-12.03-9.022-7.519Zm329.324-159.398h94.736l4.512 3.007-1.504 12.03-3.008 10.527v15.037l7.519 22.557 13.534 24.06 12.03 18.045 19.549 28.571 12.03 18.045 21.053 30.076 51.127 76.691 6.016 12.03-1.504 10.527-9.023 16.541-10.526 15.038-18.045 18.045-28.572 21.052-30.075 21.053-6.015 1.504-21.052-33.083-16.542-25.564-24.06-37.594-15.038-22.556-18.045-28.572-19.549-30.075-24.06-36.09-10.526-18.045 1.504-6.015 10.526-15.038 4.511-12.03 3.008-19.549v-30.075l-4.511-21.053-7.519-28.571 1.504-7.519Zm162.406 177.443-7.519 4.512-3.008 4.511v12.03l9.023 7.519 9.022-1.504 7.519-7.519v-9.022l-7.519-9.023ZM187.97 491.729l9.022 3.008 13.534 1.504 33.083 1.503 4.511 13.534h40.602l6.015-3.007 1.504-13.534h46.616l1.504 1.504 3.007 15.037h46.617l3.007-16.541h43.609l4.512 16.541h42.105l6.015-6.015 1.504-10.526h43.609l3.007 13.534 1.504 3.007h42.105l6.015-1.503 1.504-15.038h40.602l4.511 16.541h42.105l4.511-1.503 3.008-15.038h43.609l4.511 15.038 1.504 1.503h46.617l1.503-16.541h34.587l3.007 16.541 4.512 6.015 4.511 1.504 18.045 1.504 1.504 1.504v21.052l-1.504 1.504-16.541 3.007-3.008 1.504-1.504 7.519-1.503 31.579h-40.602l-1.504-1.504-1.503-37.594-1.504-1.504-12.03-1.503H739.85l-4.512 1.503-3.007 15.038-1.504 25.564h-43.609l-1.504-37.594-1.504-3.008-9.022-1.503h-28.572l-10.526 3.007-1.504 10.527v28.571h-42.105l-1.504-34.586-3.007-6.016-6.015-1.503H551.88l-10.527 3.007-1.503 6.015-1.504 33.083h-43.609l-1.504-34.586-1.504-4.512-7.519-3.007h-33.082l-7.519 1.503-1.504 39.098-1.504 1.504h-42.105l-1.504-1.504-1.503-31.579-3.008-7.519-7.519-1.503h-30.075l-9.022 1.503-1.504 6.016-1.504 34.586h-42.105l-1.504-1.504-3.007-37.594-1.504-1.504-10.527-1.503h-27.067l-9.023 1.503-1.503 6.016-1.504 34.586h-19.549l-9.023-10.526L200 551.88l-10.526-16.542-1.504-4.511Zm129.323 25.564-4.511 4.512-1.504 9.022 3.008 4.511 13.533 1.504 3.008-6.015-1.504-9.022-7.519-4.512Zm485.714 0-7.518 4.512v10.526l3.007 4.511h12.03l3.008-4.511v-9.023l-4.512-6.015Zm-584.962 1.504-3.007 3.008v10.526l4.511 4.511 6.015 1.504 7.519-4.511 1.503-9.023-4.511-6.015Zm195.489 0-4.512 4.511v10.527l4.512 3.007h10.526l3.008-4.511v-9.023l-4.512-4.511Zm97.744 0-6.015 4.511v9.023l4.511 4.511h10.527l3.007-3.007v-12.03l-4.511-3.008Zm94.737 0-4.511 3.008v9.022l4.511 6.015h10.526l3.008-3.007v-12.03l-4.511-3.008Zm96.241 0-3.008 3.008v12.03l3.008 3.007h12.03l3.007-4.511v-9.023l-4.511-4.511Zm154.887-9.022h398.496l12.03 24.06 13.534 24.06 19.549 36.09 18.045 33.083 19.549 37.594 15.037 28.571v13.534l-4.511 48.12-1.504 1.504h-30.075l-7.519-7.519-21.052-33.082-22.557-36.091-21.052-33.082-22.557-36.091-15.037-21.052-22.557-15.038-15.037-6.015-13.534-1.504H858.646l-3.007-3.007v-51.128Zm559.398 228.571h240.602l3.007 42.105 6.015 25.564 12.03 37.594 1.504 18.045-6.015 10.526-15.038 16.542-7.518 7.519-6.015 3.007-218.046 1.504h-46.616l-22.556-1.504-9.023-4.511-9.023-18.045-27.067-85.715v-4.511h48.12l24.06-1.504 10.527-7.518 12.03-30.076 6.015-7.518Zm19.549 22.556-3.008 1.504v15.038l4.512 3.007h9.022l4.512-3.007v-12.03l-4.512-4.512Zm186.466 0-4.511 3.008-1.504 9.022 6.015 7.519h9.023l4.511-3.007v-12.03l-4.511-4.512Zm-245.113 70.677-12.03 3.007-9.022 7.519-4.512 10.527v12.03l7.519 15.037 9.023 6.015 7.519 1.504h264.661l13.534-3.007 10.526-12.031 3.008-10.526-1.504-13.534-6.015-9.022-9.022-6.015-4.512-1.504Zm-272.18-377.444h215.038l10.526 15.038 22.556 39.098 16.542 27.067 24.06 40.602 13.534 22.556 25.563 43.609 15.038 24.06 22.556 39.098 3.008 4.511 6.015 1.504 154.887 1.504 6.015 3.008-1.504 4.511-9.022 1.504H1472.18l-9.022-4.512-15.038-13.534-7.519-3.007h-15.037l-6.015 1.504-7.519 15.037-6.015 4.512-10.526 1.503-4.512 7.519-10.526 28.572-4.511 7.518h-21.053l-1.504-4.511 6.015-55.639v-15.038l-9.022-19.548v-7.519l4.511-4.512-1.504-12.03-24.06-48.12-13.534-3.007-3.007-4.512v-9.022l3.007-6.015-15.037-31.579-15.038-25.564-7.519-1.504-6.015-3.007-9.022-12.031-97.745-1.503H860.15l-4.511-3.008 1.504-7.519 231.579-1.503 1.503-4.512 3.008-22.556 7.519-7.519Zm1.504 6.015-7.519 7.519-1.504 10.527 3.008 7.518 4.511 4.512 9.023 1.503 12.03-6.015 1.503-3.007v-13.534l-9.022-9.023Zm189.473 4.512-7.518 3.007-4.512 4.512 3.008 7.518 6.015 4.512 9.022-1.504 4.512-7.519-3.008-9.023Zm117.294 206.015-7.519 4.511-1.504 7.519 9.023 9.022 6.015-1.503 6.015-6.015-1.504-9.023-4.511-4.511Zm-39.098 31.579-6.015 4.511-1.504 6.015 3.008 6.015 7.518 3.008 7.519-1.504 3.008-4.511v-7.519l-7.519-6.015Zm-912.782-45.113h70.677l6.015 24.06 7.519 12.03 7.518 6.015 15.038 6.015 43.609 1.504v49.624l-1.504 136.842-7.519 28.572-9.022 22.556-9.023 16.541-12.03 15.038-12.03 12.03-13.534 9.022-10.526 3.008h-69.173l-6.015-1.504-1.504-4.511v-34.586l1.504-7.519 6.015-1.504h66.166l3.007-37.594 1.504-206.015H484.21l-21.052-1.504-1.504-1.504Zm43.609 12.03-7.519 6.015-1.503 10.526 7.518 9.023h13.534l6.015-6.015v-12.03l-4.511-7.519Zm2496.24-440.602h21.053l13.534 1.504 12.03 7.519 7.519 9.023 6.015 22.556 1.503 12.03v25.564l-4.511 4.511-6.015 1.504 1.504 7.519 6.015 6.015v13.534l-7.519 55.639-3.007 7.519-6.015 1.503v10.527l7.518 6.015v91.729l-10.526 3.008 3.008 7.518 9.022 6.015 1.504 45.113V600l-7.519 4.511 1.504 7.519 9.022 7.519 3.008 42.105v19.549l-4.511 12.03-12.03 12.03-15.038 6.015-16.541 3.008h-9.023l-1.504-1.504-1.503-90.226v-332.33ZM1566.917 360.902l10.526 9.023v3.007h3.008v4.512l4.511 1.503v1.504h57.143l16.541 13.534 19.549 19.549 12.03 7.519 3.008 16.541 1.504 22.556v51.128l-25.564 1.504h-141.354l-6.015-6.015-6.015-15.038-4.511-7.518v-3.008l-64.662-1.504-13.534-1.503-7.518-7.519-13.534-16.542 1.504-7.518 13.533-15.038 9.023-15.038 1.504-22.556 6.015-7.519 3.007-1.504 70.677-1.503 13.534-3.008h12.03l9.022 3.008v9.022l-97.744 1.504-9.022 1.504-1.504 12.03-1.504 21.053h72.18l1.504 7.518-51.128-1.503v24.06h43.609l1.504-6.015 7.519 1.503 3.008 10.527 19.548 3.007v-13.534l7.519 1.504 3.008 1.504 40.601 1.504 1.504-24.06h-31.579l-19.549 1.503-1.504-1.503 1.504-19.549 7.519-3.008h6.015l1.504 10.526 7.519 1.504h9.022v-7.519l16.541-1.503h18.046l1.503-18.045h-36.09l1.504-7.519 6.015-7.519-6.015-9.023-7.519-9.022Zm79.699 40.602-1.503 3.007v10.527l1.503 1.503h13.534l3.008-3.007v-7.519l-6.015-4.511Zm676.692 112.782 10.526 1.504 90.226 30.075 57.143 21.052 27.067 10.527-3.007 3.007-25.564 4.511-30.075 9.023-31.579 13.534-24.06 13.534-13.534 10.526-18.045 16.541-12.03 15.038-15.038 27.068-7.519 24.06-1.504 13.534 1.504 6.015-12.03-9.023-18.045-22.556-21.053-30.075-12.03-18.046-25.564-37.594-9.022-13.533V600l6.015 3.008 12.03 4.511h25.564l13.534-9.023 21.052-21.052 10.527-18.045 3.007-9.023Zm-1172.932-163.91h193.985l7.518 10.526 4.512 1.504 33.082 1.504v63.158l-4.511 1.504h-279.699l-1.504-1.504-1.504-25.564 1.504-37.594 34.587-1.504 7.518-6.015Zm-37.594 48.12-3.008 6.015 1.504 10.527 4.511 3.007h9.023l3.007-3.007V400l-1.503-1.504Zm252.631 0-4.511 6.015 1.504 9.023 3.007 3.007h15.038l1.504-9.022-3.008-7.519-1.504-1.504ZM2906.766 248.12h76.692l1.504 1.504v437.594l-1.504 1.504h-15.037l-54.136-9.023 1.504-7.518 21.053-21.053 6.015-7.519 1.503-4.511 1.504-300.752-4.511-10.527-13.534-15.037-22.556-21.053-1.504-3.007v-37.594Zm49.625 63.158-4.512 3.008 1.504 9.022 1.504 3.008h10.526l4.511-6.015-3.007-7.519-1.504-1.504Zm-1.504 345.865-3.008 3.007 1.504 10.527 4.511 3.007 9.023-1.503 3.007-4.512-1.503-9.022-1.504-1.504ZM557.895 156.391h1287.218l-1.504 12.03-369.925 1.504-4.511 3.007-123.309 1.504H652.631l-94.736-1.504Zm24.06-28.571h76.692l33.082 1.503v13.534h37.594l1.504-12.03h33.083l3.007 10.526 37.594 1.504 1.504-15.037h82.707l25.564 1.503 1.503 12.03h36.091l3.007-10.526h34.587l1.503 12.03 36.091-1.504 3.007-10.526h109.774l1.504 12.03 33.083-1.504 3.007-10.526h34.587l1.504 3.008v9.022h37.594l1.503-13.534 21.053-1.503h51.128l36.09 1.503v13.534l37.594-1.504 1.504-10.526h36.09l3.008 10.526h31.578l4.512-10.526h108.27l3.008 7.519v4.511h36.09l1.504-12.03h34.586l3.008 6.015v6.015l33.083-1.504 3.007-10.526h109.775l1.503 1.504v10.526l34.587-1.504 1.504-10.526 6.015-3.007 1.503 4.511-4.511 16.541H559.398v-6.015l19.549-1.504 1.504-12.03Zm1989.473 190.977h308.271l10.526 4.511 22.557 21.053 1.503 3.008v278.195l-1.503 12.03-7.519 9.023-7.519 1.503-22.556-6.015-61.655-21.052-1.503-3.008h21.052l22.557-6.015 16.541-9.022 7.519-7.519h3.007l3.008-6.015 9.022-12.03 7.519-19.549 1.504-7.519 1.504-159.398 1.503-7.519-10.526 3.007h-57.143l-4.511-1.504-3.007-9.022-272.181-1.504-1.504 9.023h-4.511l-1.504-4.512v-30.075l1.504-4.511h3.008l1.503 4.511v24.06h3.008v-16.541l272.18-1.504 3.008-24.06-279.699-1.504 3.007-6.015 4.511-3.007ZM187.97 451.128h618.045l9.022 4.511 4.512 6.015v27.068h-33.083l-1.504-1.504v-18.045h-54.135v19.549h-43.609l-1.504-19.549H636.09l-1.504 1.504-1.503 18.045h-40.602l-1.504-19.549h-52.631v19.549h-43.609v-19.549h-48.121l-4.511 1.504-1.504 18.045h-43.609v-19.549h-54.135v19.549h-45.113l-1.503-1.504-1.504-18.045h-51.128l-1.504 21.053h-19.549l-25.564-1.504-4.511-3.008-4.511-10.526Zm1987.97-15.038 9.022 3.008 6.015 7.519 3.008 1.503 54.135 1.504v21.053l-1.504 3.007h-520.3l-16.542-13.534-6.015-7.518-1.504-10.527 446.617-1.503 27.068-1.504Zm-679.7 81.203h45.113l151.88 1.504 1.504 1.504v172.932h-9.023l-3.007-7.519v-4.511l-18.046-1.504-13.533 1.504v22.556l-1.504 9.023-6.015-1.504-12.03-6.015-16.542-31.579-4.511-10.526v-4.511h-78.195l-7.519-7.519-24.06-45.113-19.549-34.586-12.03-24.061-1.504-9.022 10.526-12.03 10.527-7.519Zm12.03 9.023-13.533 4.511-12.03 10.526-3.008 7.519 24.06 45.113 18.045 33.083 12.03 21.052 6.015 3.008h55.639l43.609-1.504 9.023-6.015-4.511-13.534-22.557-43.609-30.075-57.143-4.511-3.007Zm156.391 9.022-4.511 4.512v9.022l7.519 3.008 7.519-4.512 1.503-7.518-6.015-4.512Zm0 124.812-6.015 4.512 1.504 7.519 4.511 4.511 13.534-4.511-3.007-9.023-4.512-3.008ZM872.18 395.489h190.978l4.511 7.519 1.504 6.015 24.06 1.503 1.504 1.504 1.503 25.564 4.512 1.504h296.24v-28.572h30.075l1.504 3.008-10.526 16.541-12.03 15.038-299.248 1.504-9.023 3.007-7.519 6.015-3.007 7.519-3.008 18.045-3.007 3.008-10.526 1.503-6.016-1.503H855.639l-12.03-10.527-10.526-10.526-12.03-10.526-9.023-9.023v-28.571l12.03-1.504 39.098-1.504Zm126.316 10.526-118.797 1.504-3.007 4.511v43.609l4.511 4.511h174.436l1.504-1.503 1.503-13.534V412.03l-1.503-4.511-9.023-1.504Zm-141.353 61.654-1.504 4.512v10.526l10.526-1.504 1.504-7.519-1.504-4.511Zm213.534 0-3.008 1.504v13.534h9.023l4.511-4.511-3.008-9.023ZM3.008 293.233h181.954l1.504 3.008v82.706l-15.037 4.512v10.526H1.504l1.504-7.519 7.518-4.511-1.503-4.511-7.519-4.512L0 365.414l7.519-9.023 7.519-6.015 1.503-10.526-7.518-7.519-7.519-6.015v-10.527l9.022-10.526-7.518-6.015-1.504-4.511Zm51.127 16.541-7.518 3.008-1.504 1.504v9.022l4.511 4.511 9.023 3.008 12.03-1.504 4.511-9.022-1.504-7.519-7.519-3.008Zm45.113 0-4.511 3.008v13.534l3.007 3.007 12.03 1.504 10.527-3.008 3.007-7.518-1.504-7.519-6.015-3.008Zm52.632 0-9.023 3.008v10.526l6.015 6.015 9.023 1.504 9.022-3.008 4.512-6.015v-7.518l-3.008-3.008-6.015-1.504ZM51.128 359.399l-4.511 1.503-1.504 3.008v9.022l6.015 6.015 12.03 1.504 9.022-3.007 3.008-4.512-1.504-10.526-4.511-3.007Zm46.616 0-3.007 1.503v15.038l3.007 3.007 6.015 1.504h10.527l7.518-4.511 1.504-10.526-6.015-6.015Zm60.151-1.504-13.534 3.007-1.504 1.504v10.526l4.511 6.015 4.512 1.504h10.526l7.519-3.007 1.504-1.504v-9.023l-6.015-7.518Zm932.33-162.406h190.978l9.022 4.511 10.527 15.038 163.909 1.503 1.504 7.519-1.504 1.504-120.3 1.504-13.534 9.022-6.015 1.504-57.143 1.504-12.03 6.015-18.045 1.504h-39.098l-13.534-10.527h-66.165l-15.038 9.023-4.511 1.504h-24.06l-13.534-9.023-18.045-15.038-9.023-4.511h-27.067l-10.527 3.008-6.015 3.007-7.519-1.504v-4.511l40.602-6.015 10.526-1.504 7.519-12.03 3.008-1.504Zm242.106 258.646h70.676l7.519 7.519 12.03 15.038 7.519 6.015 6.015 1.504 64.662 1.503 7.518 3.008-1.503 4.511-70.677 1.504-9.023 4.511-7.518 12.03v9.023l19.549 37.594 9.022 15.037v3.008l-18.045 9.022-6.015 10.527 1.504 10.526 6.015 7.519 10.526 3.007h21.053l7.518 1.504 16.542 31.579 15.037 24.06 10.527 9.023 12.03 1.504h87.218l7.519 12.03 3.007 7.518-13.534 1.504h-115.789l-1.504-3.007 10.526-7.519 1.504-10.526-7.519-7.519-9.022-1.504-6.015 3.008-1.504 3.007v12.03l1.504 4.511 9.022 4.512v3.007l-10.526-3.007-15.038-22.557-22.556-37.594-21.053-36.09-12.03-19.549-19.549-33.082-15.037-25.564-19.549-33.083-22.556-37.594Zm30.075 10.527-7.519 7.519-1.504 9.022 6.015 12.03 3.008 1.504h12.03l9.022-7.519 1.504-10.526-3.007-7.519-6.015-4.511Zm664.661-109.775h249.624l-1.503 6.015-7.519 4.512-67.669 1.503-10.527 1.504-12.03 10.526-3.007 9.023v36.09l-3.008 7.519-4.511 1.504h-138.346l-1.504-1.504Zm36.091 3.008-3.008 9.022-6.015 6.015 3.008 6.015 15.037 7.519 10.526 4.512 6.015 12.03 9.023 4.511 9.023-3.008 6.015-6.015 1.503-7.518-4.511-9.023-4.511-3.008h-13.534l-7.519 6.015-1.504-10.526-1.503-9.022-15.038-7.519Zm-28.572 1.504-1.504 9.022 1.504 3.008h7.519l1.504-1.504v-9.023Zm96.241 4.511v6.015l1.504 1.504h9.022l1.504-6.015-1.504-1.504Zm9.022 39.098v7.518l7.519 1.504 3.008-6.015-1.504-3.007Zm-105.263 9.022-1.504 1.504v7.519l4.512 3.007 6.015-1.504 1.503-7.518-4.511-3.008Zm124.812 0-1.504 1.504v9.022l7.519 1.504 1.504-7.519-3.008-4.511Zm-75.188 1.504-15.037 7.519-1.504 7.519 6.015 1.503 15.037-9.022 1.504-7.519Zm-709.774 425.564h272.18l9.023 6.015 4.511 9.022v12.03l-6.015 9.023-9.022 4.511h-270.677l-9.023-6.015-4.511-6.015-1.504-12.03 3.008-7.519 7.519-7.518Zm1.504 7.519-6.015 3.007-1.504 3.008v13.533l6.015 6.015h15.037l6.016-7.518-1.504-13.534-6.015-4.511Zm252.631 0-7.519 4.511-1.503 10.526 4.511 9.023 3.007 1.503h15.038l4.511-6.015v-13.533l-6.015-6.015ZM415.038 592.481h187.969l49.624 1.504 1.504 22.556v18.046l-7.519 7.518-13.533 9.023-4.512 4.511-9.022-15.037-10.527-13.534-10.526-7.519-9.022-3.008h-21.053l-13.534 6.015-9.022 7.519-9.023 15.038-3.007 7.519H460.15l-40.601-13.534-4.511-6.015Zm218.045 18.045-6.015 4.512 1.503 10.526 7.519 3.007 6.015-4.511v-10.526Zm-200 1.504-4.512 4.511 1.504 9.023 10.526 1.504 6.015-4.512v-7.518l-4.511-3.008Zm-51.128-228.571h108.27l1.504 61.654-1.504 1.504H203.007L200 443.609l-4.511-10.526-9.023-13.534v-1.504h163.91l12.03-4.511L372.932 400Zm-178.948 42.105 1.504 15.038h117.293l1.504-4.512v-10.526Zm1312.782 106.767h61.654l7.519 3.007 13.534 24.061 25.564 49.624 13.534 25.564 1.503 7.518-99.248 1.504-7.518-12.03-24.061-45.113-18.045-33.082v-7.519l12.03-10.527Zm43.609 39.098-7.519 3.007-6.015 7.519v9.023l7.519 9.022 9.023 1.504 9.022-6.015 3.008-3.008v-9.022l-6.015-9.023Zm421.053-548.873h54.135l7.519 4.512 18.045 19.549 13.534 13.533 13.534 16.542 1.503 3.007v34.587l-3.007 10.526-7.519-1.504-4.511-12.03-7.519-21.052v-3.008l-30.075 3.008v7.518l-52.632 1.504-1.503 24.06h-99.249l-1.503-28.571 6.015-6.015 6.015-1.504h10.526l3.008 4.511 10.526-1.503 39.098-10.527 18.045-7.519 12.03-9.022-1.504-10.526-12.03-16.542-1.504-9.022 1.504-3.008Zm57.143 24.061-10.527 4.511-4.511 4.511-1.504 12.03 4.512 7.519 7.518 7.519h13.534l7.519-4.512 4.511-9.022V60.15l-6.015-9.022-3.007-3.008ZM147.368 147.368h260.151v25.564l-171.429 1.504-22.556 3.008-4.511 4.511-3.008 24.06h-33.083l-4.511-4.511-42.105-3.008-1.504-1.504v-19.548l4.511-13.534 10.527-12.03Zm55.639 6.015L200 156.391l1.504 9.023 3.007 3.007 10.527-1.504 3.007-3.007-1.504-7.519-4.511-3.008Zm172.933 0-3.008 1.504v10.527l1.504 3.007 9.023 1.504 4.511-1.504 1.504-10.526-1.504-4.512Zm610.526 27.068h478.195l1.504 1.504V200l-1.504 10.526h-148.872l-12.03-1.503-10.526-13.534-6.015-3.008h-245.113l-7.519 6.015-6.015 10.527-15.037 1.503H963.91v-27.067l1.503-1.504Zm-1.504 9.023-1.504 1.503V200l1.504 1.504h12.03v-10.527l-1.503-1.503Zm452.632 0-1.504 1.503v7.519l3.008 3.008h9.022l3.008-4.512-1.504-7.518Zm-436.09 36.09h33.082l12.03 7.519 19.549 15.037 10.527 4.512h19.548l13.534-3.008 9.023-6.015h67.669l7.519 7.519h61.654l7.519-4.511 6.015-1.504 52.631-1.504 13.534-3.008 12.03-9.022 4.511-1.504h112.782l1.504 1.504v25.564l-1.504 1.504H989.474l-3.008-1.504v-19.549l6.015-7.519Zm1093.233-69.173 52.631 3.007h21.053l10.526-1.503 7.519 4.511 9.022 15.038 18.046 24.06 7.518 9.022v3.008l9.023 3.007 7.519-1.503 4.511-4.512 1.504-7.519-10.527-18.045-13.533-18.045-3.008-6.015h7.519l12.03 13.534 19.549 28.571 9.022 10.527 9.023 3.007 9.022-3.007V200l-12.03-21.053-12.03-16.541v-3.008l9.023 1.504 12.03 9.023 18.045 16.541 22.556 22.557 9.023 7.518v3.008l-45.113 1.504-10.526 3.007h-138.346l-12.03-10.526-21.053-19.549-7.518-6.015-1.504-3.008v-27.067ZM2139.849 200l-6.015 6.015 1.504 9.023 3.008 4.511 7.518 1.504 7.519-3.008 3.008-6.015-1.504-7.519-4.511-4.511ZM968.421 215.038h7.519l3.007 4.511v45.113h484.211l3.007 1.503-1.504 9.023-6.015 4.511-276.691 1.504h-200l-18.045-1.504-7.519-9.022-1.504-10.527v-25.564l3.008-12.03 6.015-6.015Zm154.887 105.263h243.609l10.526 3.007 9.023 10.527 1.504 3.007 1.503 16.542-1.503 1.503-10.527 1.504h-18.045l-6.015-3.007-6.015-9.023h-196.992l-4.512 1.504-7.518 9.022-4.512 1.504h-28.571l-3.008-3.007V339.85l6.016-10.527 10.526-7.519ZM460.15 0h13.534l6.015 13.534 16.542 43.609 10.526 24.06 9.022 9.023v3.007h3.008l9.022 10.526 12.031 10.527 3.007 4.511h-99.248l-1.504-1.504V3.008l1.504-1.504Zm198.497 593.985h187.969L848.12 600l-1.504 18.045-13.533 1.504v12.03l-1.504 1.504H720.301v-13.534H684.21v13.534l-25.563 1.504ZM2332.33 750.376l6.016 3.007 12.03 13.534 4.511 7.519-1.504 12.03-6.015 22.557-12.03 25.563-12.03 15.038-10.526 12.03-21.053 16.542-18.045 13.533-31.579 21.053-31.579 18.045-7.519-1.504-6.015-10.526v-13.534l6.015-6.015 30.075-18.045 25.564-18.045 24.06-18.045 19.549-18.045 9.023-13.534 6.015-12.03 12.03-39.098ZM885.714 415.038h165.414v37.594l-6.015 1.503H885.714l-1.504-1.503v-34.587ZM381.955 592.481h25.564l1.503 1.504v39.098l-1.503 1.504h-13.534l-1.504-1.504-1.504-12.03-34.586-1.504v13.534l-4.511 1.504H246.617l-3.008-1.504v-13.534h-13.534l-1.504-1.504v-24.06Zm1282.706 145.865h9.023l4.511 3.007 1.504 10.527 1.504 27.067 6.015 22.557 16.541 51.128-1.504 9.022-12.03 16.542-16.541 19.548-16.541 18.045-10.527 1.504h-281.203l-15.037-4.511-13.534-10.526-10.526-21.053-19.549-63.158-6.015-18.045v-13.534l4.511 1.504 6.015 16.541 24.06 78.196 6.015 12.03 1.504 4.511 15.038 6.015 18.045 1.504h255.639l19.549-1.504 9.022-7.519 13.534-16.541 12.03-16.541 1.504-10.527-9.023-31.579-9.022-30.075-4.512-22.556Zm203.008-609.023h192.481l12.03 1.504v3.008l-4.511 1.503-34.587 1.504-7.518 1.504-3.008 22.556-1.504 1.504h-52.631l-1.504 6.015-115.789 1.504-1.504-3.008 7.519-33.082 1.503-3.008Zm19.549 6.015-6.015 3.008-3.008 6.015v12.03l6.015 6.015h13.534l7.519-6.015v-10.526l-4.511-7.519ZM175.94 383.459h198.496l-1.504 7.519-13.534 18.045-7.518 4.511H181.955l-3.008-7.519-3.007-13.534Zm581.955 6.015h16.541l12.03 6.015 3.008 6.015 1.503 22.556-6.015 9.023-6.015 4.511-6.015 1.504H663.158v-48.12Zm6.015 6.015-9.023 6.015-4.511 9.022 1.504 12.03 7.518 9.023 6.015 3.008 9.023-1.504 9.023-6.015 3.007-9.023-1.504-13.534-6.015-7.518-3.007-1.504Zm1210.526-227.068h49.624l-1.504 7.519-12.03 15.037-3.008 1.504-106.766 1.504-13.534 4.511-13.534 7.519-9.023 1.504h-39.097l-18.045-3.008-13.534-7.519-1.504-3.007v-15.038l178.947-3.007ZM455.639 124.812h97.744l1.504 1.504v16.541l-3.007 30.075-81.203 1.504-33.083-1.504v-22.556l1.504-22.556 1.503-1.504Zm9.023 7.519-7.519 4.511-4.511 10.526 3.007 12.03 6.015 6.016 12.03 1.503 10.526-4.511 6.015-7.519-1.503-13.534-7.519-7.518-3.008-1.504Zm64.661 6.015-4.511 4.511 1.504 10.526 4.511 3.008h9.023l3.007-1.504V139.85l-1.504-1.504Zm1022.556 215.038h7.519l-7.519 6.015-13.533 10.526-19.549 6.015-67.669 1.504-12.03 3.007-9.023 10.527-1.504 12.03-4.511 3.007h-27.068v-51.128Zm356.391 145.864h43.609l1.504 1.504v64.662l-3.007 15.037-7.519 18.045-12.03 21.053-10.527 13.534-7.518 1.504v-12.031l6.015-19.548v-61.655l-4.512-24.06-6.015-15.037ZM1669.173 224.06h36.09l1.504 105.263-9.023 1.504h-27.068l-1.503-1.504ZM571.428 621.053h10.527l15.037 4.511 12.03 9.023 13.534 22.556 7.519 7.519v21.052l-3.007 7.519-9.023 6.015-6.015 1.504h-43.609l-13.534-6.015-10.526-12.03-4.511-13.534v-16.541l7.518-15.038 12.03-12.03Zm4.512 13.534-12.03 4.511-7.519 7.519-1.504 4.511v18.045l4.511 9.023 7.519 6.015 9.023 3.007 12.03-1.504 12.03-7.518 6.015-7.519v-16.542l-4.511-9.022-10.527-9.023Zm863.158-135.339h73.684l3.007 4.511-1.504 7.519-25.563 1.504-9.023 4.511-15.038 13.534-4.511 6.015 1.504 10.526 13.534 25.564 1.504 6.015h-16.542l-6.015-6.015-27.068-52.631-1.503-6.015 7.518-12.03Zm712.781-187.97h106.767l1.504 1.504v21.053l-1.504 1.503h-106.767l-1.503-1.503v-21.053Zm-724.812 392.481 13.534 1.504 12.03 9.023 13.534 10.526 15.038 1.504h147.368l1.504 6.015-1.504 1.504h-212.03l-9.022 4.511-9.023 18.045-6.015 13.534-4.511 1.504-3.008-1.504 1.504-13.534 9.023-24.06 4.511-6.015 15.037-1.504 3.008-9.022Zm54.136-87.218h16.541l9.023 13.534 16.541 31.579 6.015 1.504H1600l6.015 3.007 4.511 12.031h-94.737l-9.022-7.519-13.534-24.06-15.038-25.564v-3.008Zm51.128-218.045h22.556v7.519l-3.008 1.504-13.533 1.504-1.504 1.503-1.504 25.564-6.015 1.504-7.519-3.007-1.503-1.504v-10.527h-72.181v-19.548l1.504-3.008Zm-825.564-200h63.158L809.022 200l6.015 7.519 1.504 6.015v12.03l-6.015 6.015-9.022 1.504H684.21l-7.518-9.023v-13.534l4.511-7.519 6.015-3.007Zm9.022 7.519-28.571 1.504-1.504 1.504v15.037l1.504 1.504h120.301v-16.541l-1.504-1.504-10.526-1.504ZM526.316 200H648.12l4.511 4.511 1.504 7.519v12.03l-4.511 7.519-3.008 1.504H523.308l-6.015-7.519-1.504-3.008v-13.533l7.519-7.519Zm54.135 6.015-54.135 1.504-3.008 3.007v10.527l3.008 4.511h118.797l1.503-1.504v-16.541Zm-52.632 586.466h1.504l1.504 18.045v48.121l-1.504 52.631-3.007-1.504-58.647-1.503-4.511-3.008v-6.015l58.646-1.504 3.008-3.007 1.504-19.549 1.503-6.015-60.15-1.504-4.511-6.015v-3.007l3.007-1.504 55.639-1.504 4.512-6.015 1.503-22.556-63.157-1.504-1.504-7.519 7.519-3.007 52.631-1.504 3.008-6.015ZM213.534 246.617h106.767l1.503 1.503 1.504 24.06-4.511 3.008-19.549 1.504h-82.707l-3.007-1.504Zm18.045 7.518-10.526 1.504 1.503 10.526h90.226v-12.03Zm372.932-9.022h121.805l7.518 7.519 3.008 9.022v10.526l-13.534 9.023-18.045 3.007h-13.534l-1.504-3.007h6.015v-3.008l-7.518 1.504-81.203-1.504-9.023-4.511-1.504-1.504v-21.052Zm3.008 6.015-3.008 4.511v12.03l3.008 4.511h81.203l39.097-1.503 1.504-9.023-3.007-9.022-12.03-1.504ZM365.413 200h102.256l22.556 1.504 4.512 4.511v18.045l-9.023 9.023-34.586 1.503-70.677-1.503-19.549-1.504-4.511-6.015-1.504-10.526 3.008-10.527Zm7.519 6.015-9.022 1.504v18.045h120.3l3.008-3.008 1.504-13.533-3.008-1.504-49.624-1.504Zm78.196 37.594h27.067l91.73 1.504 3.007 6.015-1.504 22.556-7.518 4.511H442.105l-7.519-6.015v-19.548l7.519-7.519Zm-3.008 7.519-6.015 3.007v15.038l7.519 3.007h90.226l24.06-1.503 1.503-1.504v-16.541l-6.015-1.504ZM2046.616 94.737h15.038l3.007 4.511-1.503 7.519-10.527 3.007 1.504 6.015 7.519-1.503 4.511-9.023 3.008 3.008 1.503 4.511v10.526l-31.579 1.504h-49.624l-4.511-4.511 1.504-16.542 4.511-3.007 19.549 1.504 27.068 1.503 6.015-7.518Zm-51.128 12.03-1.503 1.504v9.022l6.015 1.504 3.007-6.015v-6.015Zm-37.594-69.173 6.015 1.504 9.023 12.03 4.511 7.519-1.503 6.015-21.053 10.526-31.579 9.023-6.015 1.503h-10.526l-1.504-1.503V55.639l3.007-4.511 10.527-1.504 7.518 12.03 6.016 6.015h12.03l9.022-4.511 1.504-3.008 1.504-21.052ZM201.504 290.226h4.511v90.225h-15.038v-76.692l1.504-12.03Zm270.676 624.06h46.617l1.504 7.519-3.008 19.548h-46.616v-25.564ZM254.135 553.384h33.083l3.008 3.007v30.075l-1.504 1.504h-36.09v-33.083Zm196.993 0h30.075l4.511 3.007v31.579h-36.09l-1.504-1.504v-31.579Zm-99.248 0h30.075l4.511 1.503 1.504 3.008v28.571l-1.504 1.504h-36.09v-33.083Zm294.736 0h27.068l6.015 3.007v30.075l-1.504 1.504h-33.082l-3.008-3.008v-28.571Zm97.745 0h28.571l4.511 1.503v31.579l-1.503 1.504h-34.587l-1.503-7.519v-21.052l1.503-4.512Zm-189.474 0h24.06l4.512 1.503v33.083h-36.091l-1.503-6.015v-24.06l1.503-3.008Zm586.466 18.045h21.053l18.045 6.015 16.541 9.022 12.03 12.03 21.053 33.083 36.09 57.143 19.549 31.579 18.045 27.067 10.527 12.031 4.511 1.503 28.571 1.504-1.504 4.511h-25.563l-10.527-4.511-10.526-12.03-16.541-25.564-22.557-36.09-16.541-25.564-24.06-39.098-18.045-25.564-15.038-12.03-12.03-4.511-9.023-1.504-28.571-1.504v-1.503l16.541-1.504 1.504-1.504-13.534-1.504ZM648.12 475.188h30.075l3.008 3.008v25.563l-1.504 1.504-33.083 1.504-3.007-1.504-1.504-4.511v-22.556Zm-395.488 1.504h36.09l1.504 1.504v25.563l-1.504 1.504-10.527 1.504h-24.06l-3.007-7.519v-19.549Zm502.255-1.504h21.053l3.007 3.008v25.563l-1.504 1.504-34.586 1.504-3.007-10.526 1.503-19.549Zm-195.489 0h22.557l3.007 3.008v24.06l-1.503 3.007-33.083 1.504-4.511-7.519v-21.052l1.503-1.504ZM203.007 216.541h3.008v52.632l-1.504 1.504h-10.526l-9.023-4.512-1.503-9.022v-31.579l3.007-6.015Zm258.647 258.647h13.534l10.526 1.504v28.571l-16.541 1.504h-16.541l-4.512-6.015v-24.06Zm-111.278 1.504h37.594v27.067l-1.504 1.504-31.579 1.504-4.511-3.008Zm1093.233 108.27 3.007 1.504-9.022 7.519 1.504 9.023 7.518 3.007 6.015-6.015-1.503-10.526-1.504-4.512 31.579 1.504 6.015 7.519 7.519 15.038-3.008 1.503h-52.631l-7.519-4.511-1.504-3.007v-10.527l6.015-4.511Zm-870.677 58.647h12.03l9.023 4.511 4.511 6.015v13.534l-6.015 7.519-10.526 4.511-10.527-1.503-7.518-7.519-1.504-4.512v-12.03l7.519-9.022Zm-45.113 106.767h1.504l1.504 18.045v19.549l-4.511 1.504-60.151-3.008-3.007-9.022 4.511-3.008 12.03-1.504 43.609-1.503 3.008-4.512Zm-55.639 82.707h48.121v13.534l-3.008 4.511h-46.616l-1.504-4.511 1.504-12.031Zm12.03-82.707h21.053l15.038 1.504v12.03l-1.504 3.007-6.015 1.504H472.18l-1.503-1.504v-12.03l1.503-3.007Zm-13.533 124.812h49.624v13.534l-1.504 3.007h-48.12Zm34.586-82.707 15.038 1.504v12.03l-1.504 3.008-4.511 1.503h-43.609v-15.037l1.503-1.504Zm22.556-78.195 3.008 6.015v27.067l-64.662-1.503-3.007-3.008 1.504-6.015 1.503-1.504 55.639-1.503 3.008-1.504 1.504-12.03Zm-57.142-1.504h49.624v13.534l-1.504 1.504h-48.12Zm357.894-242.105 12.03 9.022 10.527 12.03v19.549l-3.008 1.504h-12.03l-6.015-3.007-1.504-3.008-1.503-34.586ZM430.075 129.323h3.008v43.609H412.03v-25.564l10.526-6.015 4.512-10.526Zm-260.15 99.248h10.526v33.083l-22.556-4.511-1.504-1.504v-25.564Zm2066.165-69.173 12.03 1.504 13.534 16.542 13.534 21.052 3.007 13.534-6.015-1.504-7.519-7.519-12.03-15.037-16.541-22.556Zm-42.105 0 15.037 3.008 15.038 21.053 10.526 15.037 1.504 12.03h-6.015l-7.519-7.519-18.045-24.06-9.023-13.533ZM781.955 386.466h9.022L800 396.993l4.511 12.03v36.09h-25.564v-3.008l10.527-6.015 6.015-7.518v-24.061l-6.015-12.03-10.527-3.007Zm57.143 166.918h10.526l1.504 1.503v22.557l-3.008 10.526h-12.03l-1.504-3.008v-28.571ZM497.744 386.466l7.519 6.015 3.008 7.519v34.587l-7.519 6.015h-3.008l-1.503-7.519Zm1539.85-332.331 10.526 1.504 3.008 4.511v9.023l-6.016 6.015h-10.526l-4.511-4.511-1.504-9.023 6.015-6.015ZM467.669 138.346h7.519l6.015 6.015 1.504 9.022-6.015 4.512-9.023 1.503-6.015-4.511v-12.03Zm1454.135 227.068h16.542v52.631h-16.542v-1.504l12.03-1.503 1.504-45.113-13.534-1.504v39.098h-3.007l1.503-40.602Zm-326.316 36.09 7.519 3.007v7.519l-28.571 1.504-1.504-1.504v-9.022h19.549Zm-64.661-150.376h9.022l6.015 7.519-1.503 7.518-4.512 3.008-10.526-1.504-3.007-4.511 1.503-10.526Zm687.218 0 7.519 1.504 3.007 3.007v10.526l-4.511 3.008h-7.519l-4.511-4.511v-9.023Zm-482.707 418.045 7.519 3.008 4.511 7.518-4.511 4.512-3.008 1.503h-9.022l-4.511-4.511 1.503-7.519Zm-369.925-196.992h7.519l4.511 6.015-1.503 7.518-10.527 1.504-4.511-4.511 1.504-7.519ZM260.15 333.835l7.519 1.503 1.504 3.008v9.023l-4.511 3.007-7.519-1.504-1.504-1.503v-9.023Zm1049.624 445.112h61.654l9.023 1.504v1.504h-61.654l-9.023-1.504Zm-200-311.278 7.519 1.504 3.008 3.008v7.518l-4.512 3.008-7.518-1.504-1.504-10.526Zm619.549-100.752h15.038v1.504l-13.534 1.504-1.504 49.624-3.007-1.504v-39.098l1.503-10.526Zm159.399 4.512 3.007 4.511v42.105h-18.045v-1.504l15.038-1.503Zm-112.782-3.008 3.007 1.504-1.504 43.609h19.549l-1.504 3.007-18.045 1.504-3.007-1.504V375.94Zm111.278-225.564h7.519l4.511 6.015-1.504 6.015-9.022 1.504-3.008-3.008v-9.022Zm-400 538.346 7.519 1.504 3.007 3.007-1.504 7.519-7.518 1.504-4.512-3.008 1.504-9.022ZM1881.203 60.15h4.511l6.015 15.038 4.511 3.007v3.008l-9.022 1.504-3.008-9.023-1.504-6.015Zm-326.316 520.301h7.519l4.511 4.511-1.504 6.016-9.022 1.503-3.008-3.007v-7.519ZM509.774 675.188l6.015 1.504 1.504 7.519-3.007 3.007-10.527-1.504 1.504-7.518Zm1715.79 13.534 7.518 1.504 1.504 7.518-4.511 3.008-7.519-1.504-1.504-6.015Zm-19.549-291.729 7.519 1.503 1.503 1.504v7.519l-6.015 3.007-4.511-4.511Zm-643.609-36.091v4.512l-15.038 13.533-6.015-1.503 18.045-15.038ZM527.819 912.782l1.504 3.007-1.504 25.564-4.511 4.512 1.504-18.045 1.504-13.534Zm998.497-460.15 7.518 1.503v7.519h-6.015l-3.007-7.519Zm1025.563 31.579h3.008l3.007 22.556v4.511l-4.511-6.015ZM1882.706 363.91l9.023 1.504-1.504 4.511-16.541-1.504v-3.007Zm-55.639 1.504h16.542l1.504 3.007h-18.046Zm7.519 49.624h9.023l-4.512 3.007h-15.037v-1.504ZM855.639 574.436l6.015 4.511h-4.511v6.015h-3.008Zm923.308-207.519h18.045v1.504h-18.045Zm774.436 37.594h1.504v12.03h-1.504Zm-682.707-40.601v4.511Zm-25.563-210.527"/></svg>