<svg xmlns="http://www.w3.org/2000/svg" width="2441.171" height="1000" viewBox="0 0 2441.171 1000"><path d="M684.999 994.432c-1.894-3.059.418-11.458 5.138-18.661 6.767-10.325 13.131-13.094 30.098-13.094 12.989 0 20.214-2.115 18.226-5.331-4.681-7.574-54.625-6.749-57.187.945-1.196 3.583-4.986 4.488-8.835 2.108-9.594-5.928 11.989-20.254 27.46-18.229 6.545.857 12.545-.774 13.33-3.627 2.075-7.545-40.87-9.616-49.574-2.392-4.055 3.366-10.132 4.412-13.504 2.326-9.256-5.72 4.96-12.945 25.661-13.043 9.528-.04 17.327-2.769 17.327-6.054 0-4.005-10.579-5.204-32.108-3.649-21.27 1.537-31.479.407-30.243-3.358 1.025-3.125 11.931-6.421 24.233-7.326 12.301-.905 20.969-3.903 19.264-6.665-4.481-7.25-55.791-6.364-55.791.966 0 4.172-2.017 4.318-6.665.473-3.667-3.035-13.85-6.327-22.634-7.319-13.021-1.472-16.477-4.761-18.712-17.8-2.446-14.275-5.317-16.383-26.686-19.599-13.166-1.981-33.881-3.78-46.034-3.998-14.435-.258-23.149-3.165-25.155-8.395-2.446-6.367-13.894-7.995-56.199-7.995-48.443 0-53.422.938-56.511 10.663-2.148 6.777-8.064 10.662-16.23 10.662-15.78 0-26.817 16.23-31.708 46.626-5.906 36.705-13.378 31.912-13.378-8.58 0-32.271 1.839-39.412 13.807-53.633l13.802-16.404h274.59l88.833 72.628c77.495 63.358 88.837 74.588 88.837 87.976V1000h-45.009c-25.515 0-46.495-2.409-48.443-5.568m103.104-12.334c-1.49-16.099-11.029-25.515-94.699-93.449l-93.041-75.543-136.245.458c-119.651.4-137.571 1.556-147.121 9.471-21.267 17.622-26.453 29.756-29.822 69.786-2.377 28.252-2.995 18.338-2.039-32.722.923-49.072 3.583-75.91 8.064-81.31 9.907-11.938 32.453-10.299 35.829 2.606 2.591 9.906 7.272 10.662 65.96 10.662 57.718 0 63.667-.919 68.882-10.662 5.033-9.409 10.554-10.54 46.841-9.606l41.135 1.062-38.657 1.839c-27.601 1.311-38.656 3.859-38.656 8.9 0 5.193 10.946 7.253 41.324 7.788 42.421.745 58.957-4.034 52.139-15.064-2.911-4.706 17.211-6.291 80.627-6.338 46.478-.036 93.504-.12 104.501-.189l19.991-.124V333.517h26.66l.008 249.264.003 249.266h-59.535c-36.643 0-60.25 2.141-61.402 5.568-1.025 3.067 25.679 27.06 59.349 53.32l61.217 47.749.182 30.658c.193 32.751-8.733 42.654-11.495 12.753Zm22.336-334.001c0-338.641.371-351.899 9.848-351.899 5.419 0 12.277 5.397 15.238 11.997 4.02 8.943 5.633-5.622 6.342-57.246.523-38.086 2.689-70.978 4.808-73.097s60.821-4.554 130.448-5.404c80.976-.992 126.109-3.471 125.248-6.883-.851-3.365-47.942-5.332-127.788-5.332-151.475 0-143.658-3.336-145.85 62.283-.814 24.396-1.664 48.556-1.89 53.687-.239 5.455-4.597 9.329-10.502 9.329-10.565 0-16.565 9.816-16.565 27.096 0 7.356-3.743 10.227-13.33 10.227-12.421 0-13.33-1.796-13.33-26.395 0-18.026-2.558-27.827-8.071-30.912-4.441-2.482-12.24-21.028-17.328-41.204-5.091-20.181-12.236-37.654-15.874-38.831-4.746-1.538-5.687 2.5-3.336 14.267 3.936 19.676-4.917 32.435-22.503 32.435-18.229 0-26.649-18.436-15.91-34.826 4.608-7.032 8.376-14.071 8.376-15.641 0-1.567-77.978-2.853-173.283-2.853-95.306 0-173.284-1.548-173.284-3.438 0-1.893 6.596-13.886 14.66-26.649l14.664-23.212 374.561-.011c206.01-.003 376.361-.087 378.563-.178 8.442-.349 7.45 29.063-1.195 35.382-9.998 7.312-2.766 14.468 9.761 9.664 5.037-1.934 8.816-11.353 9.809-24.451l1.617-21.303 77.313-.894c45.278-.527 78.418-3.104 79.977-6.229 2.475-4.95-272.177-7.774-772.437-7.945-138.599-.047-155.847-.973-149.97-8.049 7.726-9.315 85.308-11.739 85.308-2.668 0 6.934 19.708 6.934 23.992 0 4.292-6.941 29.328-6.941 29.328 0 0 2.933 4.797 5.332 10.663 5.332 5.865 0 10.662-2.399 10.662-5.332 0-7.849 76.412-6.763 84.378 1.2 5.153 5.153 8.737 5.153 16.99 0 12.61-7.876 31.93-8.602 31.93-1.2 0 2.933 4.655 5.332 10.35 5.332 5.691 0 11.829-2.399 13.642-5.332 4.681-7.573 70.052-6.625 82.583 1.2 8.253 5.153 11.836 5.153 16.99 0 7.838-7.839 31.057-8.733 31.057-1.2 0 6.934 19.708 6.934 23.993 0 4.768-7.715 73.81-6.701 81.71 1.2 5.153 5.153 8.737 5.153 16.99 0 13.348-8.337 27.994-8.337 36.331 0 5.153 5.153 8.736 5.153 16.989 0 12.527-7.825 77.898-8.773 82.583-1.2 4.521 7.32 23.992 6.753 23.992-.697 0-3.907 6.531-4.968 18.542-3.02 12.552 2.038 18.153 1.01 17.331-3.173-.668-3.402 4.467-7.047 11.415-8.097 8.072-1.225 14.722-7.45 18.418-17.251l5.789-15.333 45.565 1.919c25.058 1.054 47.095 2.162 48.967 2.457 1.872.298 5.019 9.136 6.988 19.635 2.617 13.948 8.036 21.496 20.097 27.994 36.084 19.439 46.278 33.307 47.695 64.881l1.312 29.327-112.335 1.436-112.34 1.435-22.313 48.026-22.314 48.025 11.095 15.583 11.095 15.58 123.794 1.603c114.091 1.482 124.913 2.442 138.011 12.272 20.885 15.667 32.057 37.021 27.943 53.411-2.188 8.719.109 21.871 6.163 35.299 6.335 14.05 7.752 22.637 4.125 24.996-3.042 1.977-8.369 8.991-11.844 15.59-9.695 18.407-16.608 14.315-16.608-9.83 0-17.342-2.191-22.401-10.662-24.614-7.232-1.894-10.688-7.312-10.736-16.83-.174-33.358-4.371-38.035-34.142-38.035-32.243 0-40.43 6.189-40.43 30.552v17.753l-15.718-11.618c-14.958-11.059-16.376-11.19-29.324-2.704-7.487 4.906-13.61 11.742-13.61 15.194 0 15.892-10.121-6.003-11.64-25.185l-1.69-21.325-28.427-1.628c-34.201-1.955-43.551 4.477-43.551 29.956 0 17.128-.709 18.062-7.083 9.348-8.817-12.062-35.219-12.676-43.745-1.022-9.71 13.287-12.399 10.63-14.184-13.995l-1.639-22.659-29.164-1.653c-33.122-1.876-42.814 5.6-42.814 33.016 0 14.602-.618 15.151-7.083 6.313-10.019-13.705-35.124-12.418-46.281 2.373-10.423 13.813-14.391 9.906-14.885-14.653-.495-24.564-4.194-28.063-29.641-28.063-27.517 0-35.356 6.992-35.578 31.726-.142 15.896-1.21 17.593-6.665 10.597-10.557-13.537-23.829-15.888-34.248-6.065-8.868 8.358-9.405 18.196-6.927 126.301 2.569 111.994 3.165 117.318 13.356 119.081 5.861 1.017 13.762 5.843 17.553 10.728 5.298 6.832 17.992 9.314 55.006 10.757 45.202 1.762 48.298 1.199 51.049-9.329 3.685-14.082 14.777-14.268 32.224-.545 11.266 8.864 21.631 10.666 61.323 10.666 43.283 0 48.029-1.003 50.555-10.666 3.441-13.152 15.227-13.857 22.226-1.334 4.314 7.719 14.555 9.652 59.281 11.175 51.179 1.748 54.221 1.25 56.987-9.329 3.652-13.955 9.649-14.068 26.885-.512 11.077 8.715 21.631 10.662 57.722 10.662 52.342 0 60.795-2.416 57.158-16.339-2.304-8.798.138-10.317 16.582-10.317 16.75 0 19.283 1.664 19.283 12.676 0 14.108-11.022 25.831-22.099 23.498-5.11-1.072-7.701 5.891-8.849 23.808-1.232 19.184.229 25.326 6.011 25.326 4.201 0 10.695 3.685 14.434 8.191 3.74 4.503 52.619 43.287 108.622 86.185 56.006 42.901 103.653 80.602 105.885 83.785 2.231 3.184 3.43 15.387 2.663 27.114l-1.391 21.329-56.864 1.509c-52.659 1.399-56.675.795-54.338-8.148 1.813-6.938-9.205-20.086-39.107-46.663-22.899-20.351-69.482-62.871-103.512-94.488l-61.875-57.485h-106.757c-89.091 0-107.873-1.341-113.495-8.115-9.372-11.295-194.514-9.405-194.514 1.981 0 5.756 16.106 7.046 80.478 6.436l80.478-.764 19.251 23.492 19.25 23.491-32.53 3.398c-17.891 1.871-46.313 3.401-63.165 3.401h-30.636l-73.886 90.578c-40.637 49.821-76.884 90.607-80.551 90.643-5.266.047-6.665-73.842-6.665-351.841m281.444-411.884-1.52-54.651H925.075l-1.552 47.564c-.858 26.162-.331 50.755 1.163 54.651 2.1 5.476 21.601 7.086 85.719 7.086h82.997Zm-158.809 36.298c0-5.237 7.231-8.217 22.658-9.333l22.663-1.639 2.664-26.66 2.667-26.656 49.32-1.534 49.319-1.534v75.046h-74.646c-61.475 0-74.645-1.356-74.645-7.69m0-47.724c0-26.162 1.958-34.837 8.431-37.323 4.641-1.781 38.231-3.238 74.649-3.238 56.813 0 66.211 1.199 66.211 8.431 0 7.189-7.319 8.221-49.53 6.993-27.242-.793-52.437.352-55.984 2.547-3.551 2.191-6.455 14.388-6.455 27.096 0 23.793-5.302 29.582-27.096 29.582-9.016 0-10.226-4.041-10.226-34.088m-217.501-25.592c-8.744-8.744-19.795 2.308-14.947 14.948 3.336 8.689 4.153 8.714 12.476.396 6.955-6.956 7.497-10.318 2.471-15.344m507.782-21.485c4.565-6.52 8.301-13.715 8.301-15.997 0-7.065-20.915-25.472-28.946-25.472-19.574 0-32.126 32.769-17.975 46.92 10.18 10.18 29.59 7.439 38.62-5.451m-32.427-6.81c-4.223-11.008 1.504-23.997 10.583-23.997 10.913 0 20.198 13.254 16.335 23.321-4.179 10.891-22.815 11.36-26.918.672Zm114.309 12.261c9.696-9.699 7.668-28.121-4.289-38.943-22.023-19.93-54.243 13.014-34.288 35.058 10.499 11.604 28.993 13.469 38.577 3.885m-34.347-12.301c-1.879-4.903.302-12.462 4.943-17.099 11.327-11.328 26.347-4.833 24.178 10.448-2.104 14.809-24.066 19.825-29.121 6.651m367.014 774.49c1.406-19.45 3.492-22.925 14.725-24.509 13.12-1.85 95.862-29.593 343.519-115.174l132.672-45.845 91.265 1.454 91.268 1.457v24.894l-90.156-.058c-87.627-.058-91.279.389-130.205 15.849-22.026 8.751-109.817 42.323-195.096 74.605-85.275 32.286-170.053 65.738-188.387 74.344-18.335 8.602-41.869 15.642-52.292 15.642h-18.956zm-288.948 6.098c0-3.976 13.882-5.266 42.654-3.958 31.733 1.439 42.657.222 42.657-4.768 0-3.689-3.437-6.705-7.639-6.705-4.201 0-9.161-4.797-11.022-10.663-1.864-5.865-6.545-10.662-10.401-10.662-3.859 0-8.271-4.801-9.809-10.666-2.554-9.776-7.271-10.663-56.605-10.663-36.32 0-53.818-1.952-53.818-6 0-4.158 13.762-5.281 44.776-3.652 35.52 1.864 44.22.901 42.084-4.663-1.956-5.102-16.241-7.014-52.456-7.014-30.658 0-51.172-2.268-53.418-5.905-2.595-4.198 9.637-5.354 42.341-3.998 25.294 1.047 45.991.589 45.991-1.025-.004-10.975-15.377-14.398-53.056-11.815-25.635 1.756-45.183.6-51.459-3.045-8.017-4.655-1.527-5.909 31.199-6.04 23.887-.094 41.324-2.413 41.324-5.495 0-3.151-19.334-5.331-47.335-5.331-35.571 0-48.985-1.988-53.971-7.995-4.343-5.233-16.226-7.999-34.372-7.999-23.142 0-32.078-3.089-53.981-18.661l-26.25-18.662h199.29l28.641 25.327c67.061 59.302 169.261 152.333 169.261 154.07 0 1.036-34.794 1.886-77.313 1.886-52.921 0-77.313-1.861-77.313-5.898m410.554-4.387c4.397-2.555 91.377-36.08 193.286-74.493l185.295-69.845h76.862c42.277 0 80.664 1.454 85.301 3.235 10.83 4.157 11.437 40.953.818 49.766-4.186 3.474-59.793 24.233-123.569 46.132-114.366 39.267-116.83 39.845-180.33 42.251-166.281 6.301-245.109 7.283-237.663 2.954m-429.216-16.375c-2.075-3.362 10.503-5.332 34.03-5.332 20.526 0 38.806 2.399 40.616 5.332 2.079 3.361-10.503 5.331-34.027 5.331-20.529 0-38.805-2.399-40.619-5.331m-1.334-19.879c10.997-1.152 28.994-1.152 39.991 0 10.997 1.148 1.998 2.09-19.995 2.09s-30.993-.942-19.996-2.09m214.608-65.971c-49.853-38.326-96.04-74.696-102.636-80.824-11.796-10.949-12-13.272-12-138.508V498.13l42.08 1.112c34.619.916 44.78-.778 57.318-9.547 8.381-5.865 21.838-12.258 29.902-14.206 8.064-1.951 14.86-6.498 15.107-10.106 1.607-23.768 4.063-32.101 10.696-36.298 4.135-2.617 108.894-4.797 232.789-4.841l225.271-.083v78.908c0 54.269 1.999 80.911 6.4 85.312 4.622 4.622 42.214 6.396 135.575 6.396h129.177l11.196 14.235c10.307 13.105 11.077 19.922 9.714 86.202-1.061 51.754-3.347 72.596-8.14 74.188-3.667 1.217-6.665-1.327-6.665-5.655 0-12.64-12.08-14.344-101.615-14.344h-84.748l-148.085 50.984c-81.445 28.041-188.642 65.233-238.212 82.644-49.566 17.411-95.153 31.621-101.302 31.574-6.149-.048-51.968-31.443-101.822-69.769m229.472-12.789c58.016-19.061 111.921-34.659 119.793-34.659 27.049 0 31.49-12.101 33.132-90.265l1.498-71.124 39.986-13.944 39.99-13.944 1.541-49.857c.992-32.177-.657-52.503-4.651-57.318-9.536-11.491-189.754-10.757-206.312.839-14.794 10.361-15.336 30.869-1.184 45.017 5.862 5.865 10.662 11.865 10.662 13.33 0 1.468-21.299 2.667-47.335 2.667-35.567 0-48.981 1.988-53.97 7.999-4.321 5.204-17.114 8.217-36.644 8.627-30.556.644-71.865 8.199-51.332 9.391 9.816.567 10.524 3.758 8.929 40.085l-1.737 39.467 24.025 16.531c13.214 9.09 27.358 16.529 31.432 16.529s20.268-9.598 35.989-21.329c15.725-11.731 30.553-21.329 32.955-21.329 9.579 0 3.412-13.857-14.181-31.875-10.201-10.448-20.1-26.744-21.994-36.215l-3.441-17.218 57.983-.015 57.983-.018 41.218 28.008 41.219 28.013.905 67.98c.494 37.388 1.141 70.979 1.435 74.646.302 3.754-6.944 7.388-16.59 8.318-14.983 1.45-18.054-.549-24.563-15.994-4.092-9.707-28.779-37.094-54.857-60.861l-47.419-43.214-42.596 28.55c-23.426 15.703-45.514 28.55-49.083 28.55-8.369 0-61.73-31.337-66.861-39.267-2.155-3.329-3.954-24.723-3.998-47.542-.061-31.385-1.977-42.218-7.86-44.475-12.066-4.63-42.603 7.508-56.751 22.557-12.12 12.887-12.862 17.655-14.301 91.817-.836 43.025.364 80.864 2.664 84.084 11.484 16.074 111.747 82.114 124.663 82.114 7.799 0 61.646-15.594 119.662-34.656Zm-75.187-186.545c-2.061-10.989-10.874-28.095-19.585-38.016l-15.837-18.037h18.483c18.305 0 18.556.32 25.334 32.268 4.895 23.07 5.211 33.91 1.101 38.017-4.107 4.11-6.814.054-9.496-14.232m-19.363-105.913 1.625-24.785h-129.191l1.653 19.766c1.545 18.458 3.177 20.14 24.564 25.326 12.599 3.057 40.193 5.317 61.319 5.019l38.406-.538Zm-109.595 9.005c-3.667-1.479-6.665-7.29-6.665-12.908 0-9.391 4.328-10.22 53.32-10.22 31.988 0 53.317 2.134 53.317 5.332 0 2.932-9.304 5.331-20.675 5.331-11.873 0-23.498 3.405-27.311 7.999-6.356 7.657-37.457 10.328-51.986 4.466M406.459 866.703c-3.765-6.029-12.436-10.663-19.945-10.663-7.308 0-13.286-2.398-13.286-5.331 0-3.144 18.959-5.331 46.212-5.331 25.414 0 44.606 1.599 42.65 3.554-1.955 1.959-8.954 4.157-15.55 4.888-6.596.734-13.632 1.53-15.634 1.777-2.003.243-5.164 5.24-7.025 11.106s-5.044 10.666-7.072 10.666c-2.032 0-6.687-4.801-10.35-10.666m1946.531-54.651c-2.373-3.667-5.513-51.656-6.978-106.644-2.515-94.245-2.108-99.983 7.076-99.972 5.357.004 16.753-7.007 25.326-15.58l15.583-15.583v-98.162c0-53.986 1.218-99.38 2.708-100.866 1.49-1.49 11.687-1.254 22.663.523l19.951 3.234 1.512 63.573c1.156 48.73-.494 68.569-7.065 84.995-6.287 15.711-10.016 54.2-13.981 144.291-6.178 140.435-7.998 146.856-41.592 146.856-11.488 0-22.83-2.998-25.203-6.665m-1256.485-23.029c-20.878-26.166-15.536-27.805 6.207-1.905 9.667 11.513 15.642 20.937 13.276 20.937-2.362 0-11.131-8.566-19.483-19.032m-703.282-6.487c-28.59-.84-51.987-3.613-51.987-6.164 0-3.943 106.169-1.515 110.991 2.537 4.743 3.986-11.898 5.008-59.004 3.627m306.072-25.69c-21.165-14.828-9.652-42.178 16.212-38.511 9.453 1.341 12.669 5.658 13.934 18.716 2.129 21.997-12.905 31.867-30.146 19.795m20.312-9.874c8.064-9.718 2.823-18.898-10.786-18.898-6.48 0-10.351 3.656-10.351 9.776 0 17.459 10.467 21.976 21.137 9.122m-318.225 3.837c14.017-1.101 35.611-1.09 47.985.033 12.378 1.119.909 2.021-25.486 2.003-26.391-.015-36.516-.931-22.499-2.032Zm178.455.164c6.6-1.272 17.397-1.272 23.993 0 6.599 1.272 1.203 2.311-11.997 2.311-13.195 0-18.592-1.039-11.996-2.311m61.316.087c5.135-1.341 13.53-1.341 18.661 0 5.135 1.341.934 2.439-9.329 2.439s-14.464-1.098-9.332-2.439m-630.49-12.588c.003-12.829 18.189-15.729 98.642-15.729 54.705 0 87.943-2.101 91.638-5.797 4.172-4.172 6.796-4.172 9.377 0 2.46 3.983 57.801 5.797 176.74 5.797 192.319 0 199.442-1.163 199.442-32.606 0-12.741 2.228-15.38 12.985-15.38 23.818 0 40.633 10.074 48.589 29.121 15.696 37.563 41.992 34.546-314.838 36.113-177.416.777-322.575.094-322.575-1.519m648.439-26.392c-5.197-32.489-19.24-43.537-52.874-41.593-26.413 1.527-27.808 2.359-29.538 17.582-.996 8.788-4.597 17.75-7.995 19.912-3.402 2.166-84.284 3.972-179.738 4.016-131.771.061-175.178-1.523-180.309-6.582-5.411-5.342-8.126-4.811-13.65 2.664-6.08 8.231-17.248 9.333-94.546 9.333-61.069 0-89.597 1.94-94.052 6.399-7.861 7.857-8.304 1.788-.88-12.083 5.114-9.554 11.968-10.31 93.107-10.31h87.591l22.459-33.326c12.352-18.327 25.036-35.087 28.19-37.242 3.151-2.155 88.51-3.9 189.681-3.882 169.959.033 185.662.814 206.497 10.274 13.021 5.909 27.096 17.691 33.307 27.874 12.352 20.26 14.209 53.484 3.489 62.384-5.917 4.91-7.956 1.984-10.739-15.42m51.365-3.859c-13.196-1.636-17.328-4.746-17.328-13.047 0-8.34 2.188-9.961 9.333-6.905 5.131 2.195 15.928 5.124 23.992 6.509 14.05 2.409 21.733 18.207 7.999 16.448-3.667-.469-14.464-1.82-23.996-3.005m-3.173-32.551c-12.527-13.843-10.924-31.283 3.754-40.899 19.85-13.007 40.492-1.697 40.659 22.277.178 25-27.961 36.8-44.413 18.622m32.838-18.258c.982-5.139-2.024-10.808-6.679-12.593-10.986-4.215-24.552 7.13-20.657 17.281 4.082 10.637 25.101 7.035 27.336-4.688M904 670.487c-8.66-1.09-18.49-5.738-21.852-10.332-3.358-4.597-8.762-6.716-12.004-4.713-10.56 6.53-33.045-2.489-33.045-13.254 0-5.549 3.598-10.085 7.999-10.085 4.397 0 7.999-2.402 7.999-5.335 0-2.929-3.602-5.331-7.999-5.331-6.742 0-7.999-12.145-7.999-77.309 0-65.168 1.257-77.313 7.999-77.313 4.397 0 7.999-3.598 7.999-7.999 0-4.397-3.344-7.995-7.429-7.995-8.336 0-15.539-14.366-10.938-21.809 5.229-8.46 18.995-5.259 28.644 6.662 13.036 16.095 21.71 8.173 21.71-19.825v-23.68h23.997c20.293 0 23.993 1.614 23.993 10.477 0 5.76-4.867 13.08-10.816 16.263-5.945 3.184-9.274 8.275-7.395 11.313 2.198 3.558 5.255 3.693 8.569.378s9.754-.883 18.058 6.814c12.767 11.829 12.909 13.051 12.909 111.322 0 59.894-2.032 99.361-5.114 99.361-2.816 0-10.611 5.484-17.331 12.186-8.613 8.594-16.851 11.6-27.954 10.204M866.423 541.46c0-28.444-2.282-50.522-5.331-51.532-3.315-1.098-5.332 18.381-5.332 51.547 0 33.176 2.014 52.641 5.332 51.532 3.049-1.017 5.331-23.113 5.331-51.547m60.251 46.921c3.754-3.751 6.4-21.762 6.4-43.545 0-45.866-6.557-43.094-7.392 3.126l-.607 33.488-17.328 1.669c-9.532.919-17.328 3.917-17.328 6.665 0 7.246 28.718 6.134 36.255-1.403m1.068-121.566c0-11.731-2.402-21.329-5.335-21.329-2.929 0-5.331 9.598-5.331 21.329s2.399 21.328 5.331 21.328 5.335-9.597 5.335-21.328m-26.66-37.323c0-2.933-2.399-5.331-5.331-5.331s-5.332 2.398-5.332 5.331 2.399 5.331 5.332 5.331 5.331-2.398 5.331-5.331m141.292 241.468c-8.798-1.21-18.817-5.866-22.266-10.347-3.801-4.939-10.357-6.854-16.626-4.866-12.502 3.969-38.417-5.037-38.417-13.348 0-3.282 4.797-7.218 10.663-8.751 5.865-1.534 10.662-4.91 10.662-7.501 0-2.588-4.797-4.71-10.662-4.71-10.172 0-10.663-3.554-10.663-77.309 0-73.759.491-77.313 10.663-77.313 5.865 0 10.662-3.318 10.662-7.378 0-4.055-4.797-8.627-10.662-10.164-6.382-1.669-10.663-7.272-10.663-13.952 0-14.871 20.965-15.042 33.612-.273 12.982 15.162 19.705 8.61 19.705-19.202v-23.677h29.324c16.132 0 29.327 2.075 29.327 4.612s-5.073 11.062-11.273 18.941c-6.2 7.882-9.47 16.005-7.268 18.051 2.202 2.042 5.135.541 6.516-3.34 1.846-5.186 5.884-3.885 15.263 4.932 12.564 11.8 12.756 13.486 12.756 110.547v98.569l-16.957 15.137c-9.325 8.325-17.12 14.78-17.327 14.34-.204-.44-7.57-1.788-16.369-2.998m-37.867-120.396c3.721-45.849 1.235-62.428-9.355-62.417-4.223.004-5.793 15.983-5.113 51.987 1.225 64.833.821 61.137 6.269 57.772 2.526-1.559 6.214-22.863 8.199-47.342m65.102 34.884c8.275-10.899 9.917-68.478 2.093-73.312-3.365-2.079-5.335 10.608-5.335 34.343v37.635h-18.661c-10.263 0-18.662 2.399-18.662 5.332 0 9.198 33.02 5.941 40.565-3.998m-2.842-104.104c-.218-2.126-.4-11.062-.4-19.861 0-8.798-2.398-15.997-5.331-15.997s-5.331 9.797-5.331 21.772c0 13.159 2.267 21.016 5.731 19.861 3.154-1.051 5.553-3.649 5.331-5.775m-27.056-51.852c0-2.933-2.403-5.331-5.335-5.331-2.929 0-5.332 2.398-5.332 5.331s2.403 5.331 5.332 5.331c2.932 0 5.335-2.398 5.335-5.331m282.632 240.843c-10.238-.978-20.359-4.583-22.489-8.01-2.133-3.427-9.35-6.418-16.041-6.651-32.384-1.119-36.163-2.431-36.163-12.537 0-6.422 4.513-11.183 11.996-12.654l12-2.359-12-3.965c-11.698-3.867-11.996-5.855-11.996-80.653 0-73.137.494-76.691 10.666-76.691 5.924 0 10.663-3.555 10.663-7.999 0-4.397-4.518-7.995-10.041-7.995-9.573 0-18.753-17.419-12.484-23.688 6.153-6.152 19.574-2.595 31.116 8.25 16.063 15.089 23.4 8.962 23.4-19.534v-23.68h26.66c22.525 0 26.657 1.552 26.657 10.012 0 5.51-5.397 13.643-11.996 18.08-6.596 4.437-10.158 9.969-7.908 12.291 2.249 2.326 6.636 1.679 9.75-1.439 3.998-3.998 9.463-2.145 18.574 6.301 12.785 11.848 12.905 12.902 12.524 109.988l-.386 98.028-16.942 13.341c-12.4 9.765-21.936 12.865-35.56 11.564m-38.512-133.719c-.839-24.723-3.939-45.747-6.894-46.724-3.408-1.127-4.677 13.577-3.463 40.241 1.065 23.487-.6 46.702-3.772 52.633-7.439 13.901-.385 20.726 8.649 8.366 4.801-6.56 6.523-23.706 5.48-54.516m64.06 51.765c3.75-3.751 6.396-21.762 6.396-43.545 0-20.427-1.799-35.324-3.998-33.096-2.198 2.224-3.997 18.818-3.997 36.876v32.834l-20.108 1.661c-11.059.912-18.716 3.914-17.015 6.665 4.419 7.149 31.137 6.186 38.722-1.395m1.065-121.566c0-11.731-2.399-21.329-5.332-21.329s-5.331 9.598-5.331 21.329 2.399 21.328 5.331 21.328 5.332-9.597 5.332-21.328m-27.682-37.723c-1.05-3.154-4.19-5.731-6.974-5.731-2.787 0-5.927 2.577-6.977 5.731-1.051 3.151 2.089 5.731 6.977 5.731s8.024-2.58 6.974-5.731m-162.49 231.939c-2.097-5.473-7.203-7.395-14.653-5.524-17.818 4.47-35.11-2.111-35.11-13.362 0-5.524 3.602-10.042 7.999-10.042 4.401 0 7.999-2.402 7.999-5.335 0-2.929-3.598-5.331-7.999-5.331-6.741 0-7.999-12.145-7.999-77.309 0-65.168 1.258-77.313 7.999-77.313 4.401 0 7.999-3.598 7.999-7.999 0-4.397-3.344-7.995-7.428-7.995-6.985 0-13.901-10.826-13.901-21.765 0-9.231 24.287-4.899 33.616 5.996 12.977 15.158 19.704 8.606 19.704-19.203v-23.68h29.324c16.129 0 29.324 2.075 29.324 4.612s-5.069 11.062-11.269 18.945c-6.2 7.878-9.667 15.932-7.708 17.891s5.702.101 8.318-4.129c4.049-6.556 5.248-6.41 8.075.96 1.828 4.76 7.956 9.87 13.618 11.349 9.725 2.544 10.284 8.275 10.07 103.163l-.225 100.47-18.807 12c-22.114 14.104-54.16 16.063-58.943 3.601Zm-17.6-111.994c3.161-47.058 1.468-60.901-7.458-60.886-4.099.007-6.043 17.157-6.043 53.324 0 64.215 9.347 69.448 13.501 7.562m63.343 38.308c8.209-9.888 13.719-58.677 8.002-70.866-3.176-6.778-5.382 1.508-7.366 27.649l-2.835 37.322-17.327 1.669c-9.529.919-17.328 3.921-17.328 6.665 0 7.828 29.982 5.843 36.854-2.439m.469-120.53c0-11.731-2.399-21.329-5.332-21.329s-5.331 9.598-5.331 21.329 2.399 21.328 5.331 21.328 5.332-9.597 5.332-21.328m-26.66-36.433c0-6.945-6.338-11.56-11.495-8.373-5.513 3.405-.76 12.814 6.479 12.814 2.759 0 5.016-1.999 5.016-4.441m207.942 143.724c0-73.185 5.161-95.8 15.598-68.351 2.704 7.108 8.777 14.405 13.494 16.215 7.315 2.809 8.358 12.167 7.076 63.38l-1.509 60.08-17.331 1.672-17.328 1.671Zm-722.023 41.109c-1.228-3.906-3.685-23.189-5.459-42.843-2.878-31.878-2.1-36.341 7.211-41.324 5.738-3.071 11.887-5.582 13.66-5.582 6.64 0 .277 92.402-6.519 94.652-3.664 1.214-7.668-.992-8.893-4.903m50.406-12.203c-8.61-10.376-2.548-18.898 13.45-18.898 14.616 0 16.786 7.654 5.396 19.043-9.474 9.478-10.869 9.467-18.846-.145m35.763-12.233c-4.284-9.772-6.465-49.333-6.53-118.633-.087-88.426 1.261-106.361 9.016-119.967 8.788-15.416 9.126-11.121 9.329 118.633.12 74.046-1.047 134.631-2.584 134.631s-5.691-6.599-9.231-14.664m-56.609-115.966c0-99.804 1.334-125.033 6.058-114.635 8.359 18.388 8.468 211.311.131 229.268-4.895 10.546-6.189-13.41-6.189-114.633m-464.547 81.834v-38.133l57.318 3.62c31.526 1.991 93.918 5.876 138.65 8.631 44.733 2.758 85.966 7.49 91.625 10.521 5.658 3.027 15.245 5.506 21.303 5.506 9.5 0 11.015 3.299 11.015 23.992v23.997H229.268Zm2100.747 32.802c-7.331-2.347-71.513-4.51-142.627-4.8-112.47-.462-129.296-1.6-129.296-8.719 0-7.148 15.954-8.1 125.873-7.508 71.146.385 128.024-1.468 130.815-4.259 2.715-2.719 4.256-32.33 3.423-65.808l-1.519-60.864-131.963-1.425c-81.889-.887-131.96-3.416-131.96-6.665 0-3.318 59.687-5.24 162.621-5.24h162.622v74.26c0 73.871-.077 74.315-14.05 85.308-15.293 12.029-14.602 11.913-33.939 5.72M565.177 560.122c0-12.716 1.45-13.33 31.552-13.33 17.356 0 35.353-1.454 39.99-3.235 6.574-2.522 8.435.414 8.435 13.33v16.565h-39.99c-39.1 0-39.987-.298-39.987-13.33m149.291 5.331c0-4.441 4.739-7.995 10.663-7.995 5.923 0 10.662 3.554 10.662 7.995 0 4.444-4.739 7.999-10.662 7.999s-10.663-3.555-10.663-7.999m1338.293-55.697c0-46.525 1.254-53.902 9.961-58.561 5.481-2.933 11.266-4.03 12.858-2.439 2.773 2.773 80.776 4.205 91.813 1.687 2.933-.673 35.993-1.458 73.461-1.752l68.13-.538-1.483 55.984-1.479 55.985-126.632 1.431-126.629 1.429Zm169.308 33.038c1.61-4.881-7.203-6.665-32.904-6.665-32.616 0-40.709 3.278-31.311 12.672 6.417 6.422 61.824 1.239 64.215-6.007M521.385 530.481c-5.022-2.929-66.207-9.03-135.961-13.559-177.39-11.513-161.487-7.326-161.487-42.519 0-18.622 2.424-30.084 6.665-31.545 3.667-1.261 70.248-7.29 147.957-13.395 77.713-6.106 162.89-13.16 189.282-15.671 44.842-4.274 50.173-3.681 81.31 9.031l33.326 13.603v73.631L653 523.093c-24.065 10.645-38.017 13.007-75.979 12.876-25.578-.087-50.613-2.558-55.636-5.488m101.499-28.117c.999-5.142-1.679-8.889-6.349-8.889-9.907 0-15.885 8.693-11.197 16.277 4.822 7.803 15.471 3.322 17.546-7.388m.941-53.895c0-4.226-1.912-8.867-4.252-10.313-6.821-4.216-18.796 5.564-14.777 12.069 5.292 8.558 19.029 7.29 19.029-1.756m93.307 45.006c1.813-2.933 5.553-5.332 8.315-5.332 2.758 0 5.015 2.399 5.015 5.332s-3.74 5.331-8.311 5.331c-4.572 0-6.829-2.398-5.019-5.331m690.475-15.344c0-2.573 3.409-7.508 7.577-10.968 6.219-5.16 7.065-4.321 4.71 4.681-2.802 10.714-12.287 15.569-12.287 6.287m33.325.862c8.065-1.221 21.26-1.221 29.324 0s1.465 2.22-14.663 2.22c-16.129 0-22.725-.999-14.661-2.22m57.028-2.068c23.905-9.547 28.288-15.787 18.603-26.49-10.877-12.018-5.484-31.606 8.704-31.606 8.765 0 10.303 3.852 10.303 25.803 0 22.477-1.748 26.602-13.578 31.991-7.471 3.402-18.868 6.037-25.326 5.851-11.306-.323-11.259-.534 1.294-5.549m-780.828-4.779c-1.81-2.933.447-5.331 5.019-5.331 4.571 0 8.311 2.398 8.311 5.331s-2.257 5.331-5.015 5.331c-2.762 0-6.502-2.398-8.315-5.331m719.945-5.564c1.893-3.06.912-8.613-2.181-12.338s-5.099-24.225-4.459-45.558c1.257-41.927 3.173-38.406-37.904-69.761l-14.25-10.877 33.144 1.316c20.813.824 35.589-1.131 39.721-5.263 3.62-3.616 14.548-6.578 24.291-6.578 14.373 0 23.273 5.564 47.251 29.542 23.535 23.535 29.204 32.479 27.878 43.988-1.341 11.626-4.79 14.799-17.662 16.252-24.385 2.751-30.836 10.736-27.678 34.27 2.435 18.149 1.221 21.108-10.459 25.549-18.316 6.966-62.079 6.552-57.692-.542m48.534-14.998c-8.202-9.064-8.239-10.499-.414-16.99 6.574-5.458 8.14-14.838 6.799-40.764-1.744-33.671 2.366-40.739 15.849-27.253 3.521 3.518 6.399 10.717 6.399 15.994 0 5.281 2.399 9.598 5.332 9.598s5.331-5.938 5.331-13.192c0-9.216-4.739-15.645-15.729-21.329-28.517-14.744-31.119-12.127-28.223 28.368 2.243 31.312 1.287 37.007-6.719 40.078-5.132 1.97-12.625.847-16.652-2.493-5.487-4.557-7.323-4.539-7.323.076 0 3.384 3.784 7.603 8.406 9.376 4.623 1.774 10.565 8.897 13.199 15.827 2.635 6.934 8.821 12.603 13.748 12.603 8.384 0 8.384-.628-.003-9.899m60.625-5.444c0-16.612 2.889-28.405 7.995-32.642 11.884-9.863 10.237-43.704-2.664-54.749-13.315-11.4-13.741-31.457-.912-43.064 13.217-11.964 14.351-11.553 27.66 9.979 20.958 33.914 22.4 34.514 82.935 34.514h55.602v18.09c0 22.801 4.652 24.564 64.772 24.564 26.344 0 52.797 2.624 58.786 5.825 7.872 4.216 12.498 4.216 16.71 0 7.613-7.61 204.283-8.075 208.971-.49 3.456 5.593-91.697 7.09-342.141 5.382-129.46-.883-134.588-.524-145.294 10.179-6.102 6.102-11.095 16.615-11.095 23.36 0 12.128-8.806 25.058-17.062 25.058-2.344 0-4.263-11.702-4.263-26.006m-826.437 2.329c0-4.571 2.399-8.315 5.332-8.315s5.331 2.261 5.331 5.019-2.399 6.502-5.331 8.312c-2.933 1.813-5.332-.444-5.332-5.016m-490.531-55.798v-37.825h319.911v21.122c0 19.922-1.137 21.42-19.995 26.366-37.722 9.888-46.877 10.902-147.957 16.379-55.719 3.02-112.703 6.905-126.632 8.635l-25.327 3.147Zm490.531 31.49c0-2.933 2.399-5.332 5.332-5.332s5.331 2.399 5.331 5.332-2.399 5.331-5.331 5.331-5.332-2.399-5.332-5.331m-51.95-6.909c-11.259-5.037-11.764-7.566-8.649-43.21 1.821-20.82 5.404-40.136 7.962-42.923 10.303-11.222 15.725 7.377 14.21 48.774-1.537 42.072-1.741 42.632-13.523 37.359m1415.57-7.287c3.663-1.479 9.663-1.479 13.33 0 3.663 1.48.665 2.69-6.665 2.69-7.334 0-10.332-1.21-6.665-2.69m27.99-1.798c10.939-7.072 266.595-7.072 266.595 0 0 3.416-49.265 5.302-137.295 5.247-90.614-.054-134.577-1.839-129.3-5.247m-1514.793-9.271c-34.31-1.799-35.142-2.184-32.66-15.169 2.467-12.909 3.728-13.276 40.539-11.771 37.043 1.512 38.035 1.919 39.678 16.215 1.126 9.787-.647 14.315-5.332 13.618-3.859-.575-22.862-1.876-42.225-2.893m1240.941-4.06c-1.686-4.4-6.934-7.998-11.658-7.998-6.898 0-7.857-3.413-4.87-17.328 5.23-24.396 5.916-24.988 27.456-23.76 12.287.698 19.893 4.012 20.889 9.096.865 4.401 3.169 13.396 5.124 19.995 2.675 9.028 1.378 11.997-5.233 11.997-4.833 0-10.168 3.598-11.854 7.998-1.69 4.398-6.157 7.996-9.925 7.996-3.773 0-8.239-3.598-9.929-7.996m15.547-19.126c1.97-3.187.81-8.566-2.573-11.953-4.655-4.652-7.319-4.277-10.917 1.545-5.08 8.22-2.518 16.204 5.204 16.204 2.588 0 6.313-2.609 8.286-5.796m215.037 22.266a2928 2928 0 0 1-1.639-8.471c-.56-2.933-3.115-9.986-5.673-15.678-3.115-6.915-2.54-11.047 1.733-12.472 3.511-1.17 9.769-5.513 13.908-9.649 9.733-9.736 13.708-9.314 28.507 3.024 10.368 8.649 11.538 12.836 7.711 27.605-4.019 15.514-6.658 17.488-24.221 18.098-10.841.374-19.988-.73-20.326-2.457m29.004-19.98c4.823-4.819-7.127-18.407-12.999-14.777-7.349 4.543-5.561 18.287 2.384 18.287 3.91 0 8.685-1.58 10.615-3.51M712.538 384.17c1.69-4.397 7.61-7.995 13.163-7.995s10.092 3.598 10.092 7.995c0 4.95-5.015 7.999-13.159 7.999-9.511 0-12.313-2.22-10.096-7.999m1013.967-17.327-1.654-19.996-59.535-1.5-59.538-1.505-16.964-26.435-16.965-26.435 10.169-17.382 10.168-17.382 90.323 1.534c177.533 3.012 392.315 22.023 575.527 50.936l42.654 6.73v19.905c0 23.058 7.93 29.967 34.656 30.189 26.7.221 42.658 5.444 42.658 13.958 0 6.077-22.55 7.378-127.832 7.378h-127.831l3.176-15.882c2.7-13.5 1.156-16.651-10.278-20.998-7.402-2.816-15.03-7.664-16.957-10.779-5.64-9.125-14.969-6.396-34.858 10.194-16.619 13.861-17.928 16.765-11.953 26.515 6.661 10.866 6.073 10.95-77.31 10.91l-84.021-.04-6.665-14.352c-3.667-7.893-6.665-18.672-6.665-23.952s-1.799-9.823-4.002-10.1c-42.508-5.284-62.761-.298-59.294 14.599.585 2.507-.793 11.16-3.057 19.225-4.012 14.285-5.117 14.66-43.206 14.66h-39.089Zm-1017.368-9.017c0-4.226 2.562-9.267 5.694-11.2 3.133-1.937 4.481-6.68 3.002-10.539-1.482-3.86.756-8.341 4.968-9.958 5.353-2.053 7.661.93 7.661 9.91 0 7.065 2.439 14.352 5.419 16.194 8.656 5.35.457 13.276-13.73 13.276-7.777 0-13.014-3.089-13.014-7.683m-12.393-21.118c-3.012-7.846.436-13.853 7.948-13.853 2.442 0 4.445 4.8 4.445 10.666 0 12.225-8.123 14.311-12.393 3.187m44.381-5.538c0-7.505 2.402-13.647 5.335-13.647s5.331 4.659 5.331 10.351c0 5.691-2.399 11.832-5.331 13.642-3.024 1.868-5.335-2.609-5.335-10.346M236.82 318.774c-8.918-6.048-44.875-61.567-44.875-69.293 0-3.776 6.316-9.267 14.039-12.203 14.46-5.499 333.343-6.782 360.236-1.45 12.047 2.391 14.638 6 15.997 22.281 1.556 18.65 2.501 19.49 23.662 21.034 33.602 2.453 50.828-14.751 54.084-54.022 1.777-21.423 4.717-30.229 10.099-30.229 5.924 0 7.243 7.276 6.004 33.097-1.53 31.893-2.366 33.645-22.913 48.054-31.189 21.867-65.546 25.421-246.215 25.454l-160.898.029-10.485-13.33c-5.767-7.33-11.942-13.327-13.719-13.327-7.595 0-2.271 15.035 9.111 25.73 12.178 11.44 14.686 11.589 193.279 11.357 179.735-.233 185.971-.741 228.465-18.614 20.809-8.751 2.01 9.205-20.191 19.286-20.144 9.147-37.556 9.994-205.952 10.027-101.171.018-186.548-1.726-189.728-3.881m466.982-11.913c-12.832-12.832-13.33-20.475-2.362-36.138 10.066-14.373 29.527-15.355 41.527-2.097 12.287 13.577 11.004 30.77-3.027 40.597-15.66 10.972-23.302 10.47-36.138-2.362m30.941-19.37c.894-6.236-1.908-12.614-6.276-14.293-10.15-3.893-21.496 9.67-17.277 20.66 4.543 11.844 21.605 7.232 23.553-6.367m388.499 26.478c-10.125-10.125 2.624-12.439 68.424-12.439 65.556 0 86.067 4.117 63.546 12.759-11.476 4.405-127.526 4.125-131.97-.32m156.399-4.444c5.273-6.349 20.773-7.995 75.3-7.995 57.478 0 68.66 1.301 68.66 7.995 0 6.734-11.92 7.998-75.296 7.998-66.331 0-74.507-.952-68.664-7.998m-165.285-23.495c0-2.66 7.058-20.566 15.685-39.794l15.685-34.957 121.025-1.53 121.025-1.526 17.912 39.321c9.853 21.627 17.913 40.219 17.913 41.32 0 1.102-69.579 1.999-154.622 1.999-88.932 0-154.623-2.053-154.623-4.833m183.511-3.732c10.426-4.002 11.611-40.808 1.584-49.131-3.852-3.198-34.79-6.105-70.648-6.643l-63.794-.952-14.736 25.039c-8.105 13.77-13.363 27.264-11.684 29.978 3.343 5.412 145.653 6.934 159.278 1.709m-143.204-14.334c1.998-5.211 18.639-6.654 67.813-5.883 77.364 1.214 73.163.785 73.163 7.457 0 3.289-27.493 5.331-71.815 5.331-56.587 0-71.251-1.464-69.161-6.905m14.852-26.42c-1.359-2.199 26.464-3.997 61.825-3.997 35.364 0 64.299 2.184 64.299 4.855 0 5.782-122.533 4.949-126.124-.858m194.25 35.688c14.794-10.361 15.336-30.869 1.188-45.017-12.836-12.836-20.475-13.334-36.138-2.366-14.166 9.922-15.62 32.017-3.024 45.933 10.801 11.934 22.376 12.377 37.974 1.45m-35.928-12.64c-6.97-13.025-2.235-25.683 11.205-29.949 19.918-6.324 34.459 18.883 19.511 33.827-9.597 9.597-24.512 7.715-30.716-3.878m-726.671 6.178c-6.113-1.319-9.333-7.028-9.333-16.554 0-7.995-2.878-17.418-6.396-20.936-4.742-4.739-56.507-6.396-199.9-6.396-187.726 0-193.701.32-200.159 10.663-8.464 13.551-20.089 13.798-20.089.428 0-8.918-3.594-10.103-27.94-9.223-21.754.785-28.335 3.053-29.716 10.234-1.527 7.918-8.482 9.223-49.185 9.223C7.77 248.209 0 244.004 0 216.57c0-10.917 1.606-11.015 183.634-11.015 116.671 0 184.837-1.944 186.93-5.331 2.057-3.333 54.927-5.332 140.94-5.332h137.647l3.369 16.841c6.785 33.921-20.798 65.633-51.354 59.037m91.973-21.038c0-6.182 4.209-9.682 11.997-9.98 6.599-.254 15.884-2.191 20.642-4.306 5.567-2.479 9.775-.89 11.829 4.459 2.366 6.171-.284 8.304-10.329 8.304-7.431 0-18.152 2.486-23.825 5.52-8.406 4.5-10.314 3.758-10.314-3.997m456.145-184.139c-6.531-21.133-6.48-52.361.102-61.04 6.458-8.518 7.304-6.468 7.453 18.12.124 20.032 2.599 29.088 8.915 32.624 4.812 2.693 7.069 7.61 5.019 10.928-5.001 8.09-18.92 7.683-21.489-.632"/></svg>