<svg xmlns="http://www.w3.org/2000/svg" width="3718.826" height="1000" viewBox="0 0 3718.826 1000"><path d="M2296.453 984.511c-5.963-8.518-10.848-17.8-10.848-20.627 0-2.824 62.722-6.047 139.381-7.16 89.735-1.301 139.294.462 139.141 4.947-.131 3.834-6.123 14.024-13.319 22.648-12.596 15.1-17.335 15.681-128.293 15.681-111.158 0-115.595-.545-126.062-15.489m-6.617-44.315c-2.326-6.061-4.231-99.652-4.231-207.979 0-181.958.971-197.836 12.745-208.488 10.761-9.739 30.015-11.498 123.693-11.302 156.381.327 142.309-21.874 142.309 224.504v198.112l-17.749 8.09c-11.226 5.113-60.897 8.086-135.143 8.086-100.619 0-117.998-1.578-121.624-11.023m188.641-98.151 37.094-25.548V574.913l-47.037.174c-42.61.156-50.158 2.46-80.14 24.458l-33.1 24.283v117.238c0 64.481 2.09 119.328 4.644 121.886 2.555 2.555 21.925 4.645 43.043 4.645 32.824 0 43.785-3.711 75.496-25.548Zm-109.246-99.819V637.765l33.1-24.472c27.896-20.624 38.031-24.196 64.459-22.717l31.359 1.759 1.919 105.543 1.922 105.547-27.314 21.63c-23.2 18.378-33.191 21.634-66.378 21.634h-39.067Zm-104.529 100.978c0-36.04-1.021-38.326-17.095-38.326-37.69 0-51.645-14.794-117.693-124.775-91.042-151.609-88.24-144.999-87.997-207.634.16-40.328 2.042-51.205 7.316-42.156 5.869 10.078 17.229 12.196 65.422 12.196h58.317l15.074 24.389c13.919 22.525 17.695 24.389 49.349 24.389h34.273v195.122c0 107.32-1.566 195.125-3.485 195.125-1.915 0-3.481-17.248-3.481-38.33m-.756-235.191.756-26.134h-82.616l-24.894-40.978c-13.693-22.539-24.897-44.493-24.897-48.782s-5.012-7.799-11.139-7.799c-9.438 0-8.776 3.994 4.339 26.134 8.515 14.373 34.561 59.949 57.882 101.276 23.316 41.332 48.803 82.052 56.634 90.487l14.235 15.336 4.47-41.702c2.461-22.938 4.812-53.465 5.23-67.838m653.069 157.965c-2.326-6.061-4.23-15.205-4.23-20.322 0-16.615-76.35-145.809-97.814-165.517-19.294-17.713-25.286-19.163-79.123-19.163-33.343 0-70.619-4.365-87.183-10.212-20.286-7.156-34.099-8.246-46.205-3.642l-17.269 6.564 3.608 79.831c2.279 50.34 1.003 81.445-3.448 84.196-4.674 2.889-6.898-37.584-6.571-119.742.269-68.256 2.787-118.262 5.593-111.121 8.144 20.714 80.028 46.252 130.194 46.252 42.21 0 43.599-.593 54.298-23.139 12.352-26.031 6.283-58.343-16.681-88.786-15.627-20.718-25.777-13.028-14.748 11.175 12.218 26.816 8.464 93.779-5.255 93.779-2.62 0-8.573-18.454-13.232-41.007-12.159-58.863-28.851-77.433-69.735-77.564-17.931-.058-37.301-3.147-43.051-6.865-6.894-4.456 52.154-6.789 173.491-6.861l183.947-.109-18.923 17.534c-10.405 9.645-21.747 15.791-25.203 13.654-13.784-8.519-76.379 32.758-76.379 50.366 0 8.289 49.439 102.944 109.464 209.574l16.779 29.804 35.993-31.486c31.021-27.133 37.355-30.124 45.845-21.635 15.027 15.028 6.349 27.406-51.38 73.283-54.014 42.923-75.209 50.9-82.782 31.159m-112.99-229.962c6.691-17.44 5.022-23.822-6.225-23.822-6.502 0-10.452 6.582-10.452 17.423 0 19.46 10.165 23.364 16.677 6.399M1168.08 678.937c-15.805-12.436-18.359-19.708-18.359-52.267v-37.82h174.214l-.262 29.614c-.254 28.543-1.679 30.44-39.329 52.267-47.2 27.361-88.226 30.258-116.264 8.206m121.011-54.705c0-26.697-32.435-37.697-49.668-16.841-8.748 10.583-8.235 10.743 6.003 1.879 13.646-8.5 17.066-8.195 27.736 2.475 10.674 10.673 10.979 14.089 2.479 27.739-8.864 14.239-8.704 14.751 1.878 6.004 6.364-5.262 11.572-14.824 11.572-21.256m-83.622.443c0-22.793-34.143-39.932-44.897-22.539-2.148 3.474 1.806 4.826 8.788 3.002 15.539-4.063 32.235 14.377 26.514 29.28-2.405 6.273-1.257 9.097 2.704 6.647 3.791-2.34 6.891-9.717 6.891-16.39m1724.85-7.072c-22.651-40.728-49.01-89.36-58.579-108.076l-17.396-34.027 22.361-19.98c29.178-26.072 36.08-25.2 36.08 4.564 0 18.618 6.403 31.665 26.503 54.007 23.132 25.716 84.992 121.425 84.992 131.502 0 2.003-11.872 13.185-26.387 24.851l-26.391 21.205ZM1068.617 668.99c-3.438-8.958-32.813-10.455-205.359-10.455H661.915l-.879-26.13-.884-26.133-7.315 26.133-7.319 26.13H501.634l-.211-36.585c-.17-29.735-1.628-34.147-7.78-23.557-4.161 7.167-6.048 26.508-4.191 42.981 2.864 25.407 1.665 29.35-7.9 25.963-21.573-7.643-28.695-17.615-28.695-40.162 0-27.023 14.14-40.648 42.181-40.648 11.295 0 20.537-2.275 20.537-5.051 0-8.348 35.56-14.617 44.22-7.799 8.21 6.465 495.692 16.314 511.53 10.332 25.802-9.747.443-16.067-64.463-16.067-65.004 0-73.181-1.359-73.265-12.192-.054-6.709-1.988-19.254-4.295-27.878l-4.205-15.678h844.832v62.719h-34.938c-19.214 0-41.575-3.922-49.69-8.711-11.804-6.971-15.384-6.971-17.909 0-4.023 11.113-19.018 11.113-37.839 0-11.804-6.971-15.387-6.971-17.909 0-2.072 5.72-18.309 8.711-47.292 8.711-29.098 0-45.128-2.969-47.058-8.711-2.275-6.774-7.145-6.462-21.914 1.406-15.663 8.344-21.507 8.551-33.322 1.17-10.277-6.418-16.463-6.814-21.87-1.406-10.801 10.801-93.423 9.805-97.108-1.17-2.323-6.92-6.386-6.953-19.745-.157-9.503 4.834-50.936 9.38-95.233 10.452-72.665 1.759-78.41.941-78.396-11.149.015-11.161-1.595-11.713-11.113-3.816-8.882 7.373-10.63 20.187-8.657 63.572l2.468 54.338h-29.887c-20.141 0-31.196-3.413-33.9-10.456Zm2471.085-54.574c-38.079-17.542-174.967-117.907-180.436-132.298-3.187-8.377-48.24-44.238-100.117-79.686l-94.321-64.452h-45.471c-25.01 0-46.859-2.355-48.548-5.229-1.694-2.875-.411-12.28 2.845-20.904 5.706-15.093 9.144-15.681 91.937-15.681 84.218 0 87.038.508 135.518 24.392l49.508 24.389h124.481c101.385 0 127.351 2.013 139.965 10.848 15.053 10.543 15.489 14.46 15.489 139.373v128.526l-36.585-.567c-20.122-.312-44.54-4.23-54.265-8.711m68.475-143.527c1.566-50.254.018-63.907-6.971-61.588-6.265 2.075-9.59 22.502-10.993 67.544-1.566 50.253-.022 63.907 6.97 61.588 6.262-2.075 9.587-22.503 10.994-67.544m-61.247-5.186v-53.459l-31.482-30.163-31.479-30.164h-76.754c-65.004 0-77.429 1.766-81.18 11.539-4.346 11.331-.643 15.514 45.475 51.328l18.625 14.461-22.303-10.79c-27.591-13.348-30.967-13.366-47.793-.233-12.923 10.089-12.712 10.376 4.648 6.462 10.118-2.282 29.8.759 44.402 6.861 31.352 13.101 33.805 13.363 27.351 2.915-6.175-9.987-2.293-7.646 73.486 44.322 32.388 22.208 62.962 40.379 67.944 40.379 6.647 0 9.06-14.242 9.06-53.458m-76.655 36.181c0-4.164-53.033-31.501-61.108-31.501-3.253 0-12.004 4.75-19.443 10.561-12.93 10.092-12.73 10.379 4.521 6.491 9.928-2.235 28.742.596 41.811 6.294 25.944 11.31 34.219 13.279 34.219 8.155m125.433-119.069c0-12.836-16.434-30.898-28.118-30.898-16.713 0-17.244 5.43-2.158 22.1 10.793 11.927 30.28 17.589 30.28 8.798Zm-381.532-36.916c-12.454-10.663-22.648-22.899-22.648-27.191s13.33-9.002 29.618-10.47c25.687-2.315 24.302-2.831-10.452-3.885-49.882-1.515-52.866 9.863-10.455 39.9 37.112 26.286 43.621 27.056 13.937 1.646m434.678 68.195c1.701-120.363.145-219.754-3.623-233.451-7.447-26.969-4.354-28.459 29.64-14.253 45.369 18.956 55.228 72.083 31.377 169.104-4.575 18.615-8.809 87.336-9.412 152.715-.6 65.382-3.402 122.613-6.226 127.177-2.823 4.568-14.038 8.308-24.926 8.308h-19.792ZM1790.833 526.131c0-13.391 4.645-13.937 118.466-13.937 65.157 0 118.467 1.312 118.467 2.915s1.904 7.875 4.23 13.937c3.761 9.794-9.445 11.022-118.466 11.022-118.052 0-122.697-.527-122.697-13.937m757.914-14.674c-7.083-3.998-64.302-5.989-137.64-4.794-138.599 2.261-133.933 3.932-117.852-42.211l7.654-21.943h120.189c109.271 0 121.279 1.203 132.181 13.254 7.814 8.628 11.226 21.849 9.791 37.894-1.89 21.132-3.929 23.665-14.323 17.8m-1625.74-13.57c-2.493-4.038-2.369-25.992.273-48.782l4.812-41.44h72.705c58.197 0 73.504 2.086 76.717 10.452 2.205 5.749 7.995 10.455 12.864 10.455s12.756-4.706 17.528-10.455c12.952-15.605 363.358-15.605 376.306 0 11.113 13.392 25.257 13.392 30.396 0 3.358-8.755 24.4-10.452 129.663-10.452h125.655l-.077 43.556-.076 43.551-17.847-22.648c-23.659-30.018-35.6-28.619-44.715 5.226-6.803 25.268-9.598 27.852-29.884 27.612-18.076-.214-26.053-5.578-41.476-27.874-24.425-35.309-37.548-35.236-47.106.266l-7.505 27.874-43.286-.266c-42.462-.261-43.65-.792-62.384-27.874-24.422-35.309-37.544-35.236-47.102.266l-7.508 27.874-85.098-.266-85.097-.265-19.098-27.612c-24.421-35.306-37.544-35.233-47.106.265-7.264 26.987-8.438 27.867-36.854 27.612-26.206-.236-31.392-3.219-48.443-27.874-24.425-35.309-37.548-35.236-47.106.266-6.443 23.934-10.176 27.834-26.402 27.608-14.003-.196-23.84-7.413-37.992-27.874-24.421-35.309-37.544-35.236-47.106.266-7.94 29.495-10.368 32.315-17.651 20.533m115.214-3.74c0-2.26-7.057-9.994-15.678-17.189l-15.681-13.08 15.1-.232c8.304-.127 16.681 3.688 18.614 8.478 1.93 4.79 3.761 1.654 4.063-6.97.483-13.737-2.9-15.678-27.325-15.678-15.329 0-27.874 1.868-27.874 4.15 0 10.307 29.84 44.631 38.802 44.631 5.487 0 9.979-1.849 9.979-4.11m650.659-11.571c7.912-29.524 5.375-33.1-23.483-33.1-15.329 0-27.874 1.868-27.874 4.15 0 9.82 29.632 44.631 37.991 44.631 5.041 0 11.055-7.057 13.366-15.681m-30.45-8.707c-7.247-8.737-6.244-10.456 6.116-10.456 8.5 0 14.788 4.445 14.788 10.456 0 5.745-2.752 10.451-6.113 10.451-3.365 0-10.019-4.706-14.791-10.451m-233.451-17.423c2.795-4.52-30.262-6.97-94.074-6.97-63.816 0-96.872 2.45-94.077 6.97 2.511 4.06 41.745 6.967 94.077 6.967 52.328 0 91.566-2.907 94.074-6.967m-461.974 43.821c-12.756-2.442-15.042-6.12-11.328-18.214 7.029-22.899 9.696-23.408 24.149-4.597 13.974 18.188 17.172 28.415 8.388 26.82-2.875-.52-12.418-2.326-21.209-4.009m96.229-7.235c.054-6.709 3.216-16.899 7.021-22.649 5.858-8.86 9.009-7.795 20.642 6.967 18.614 23.615 17.564 27.874-6.865 27.874-15.303 0-20.878-3.267-20.798-12.192m147.975 7.275c-16.815-3.238-19.646-13.148-8.551-29.924 5.858-8.86 9.009-7.795 20.642 6.967 14.33 18.178 17.724 28.543 8.817 26.926-2.875-.52-12.284-2.308-20.908-3.969m243.602-.04c-12.756-2.442-15.046-6.12-11.332-18.214 6.774-22.056 8.152-22.285 23.422-3.947 14.442 17.342 18.088 27.798 9.118 26.17-2.874-.52-12.417-2.326-21.208-4.009m160.277 0c-12.756-2.442-15.042-6.12-11.328-18.214 7.029-22.899 9.696-23.408 24.149-4.597 13.973 18.188 17.171 28.415 8.388 26.82-2.875-.52-12.418-2.326-21.209-4.009m118.466 0c-12.756-2.442-15.042-6.12-11.328-18.214 6.771-22.056 8.148-22.285 23.422-3.947 14.443 17.342 18.084 27.798 9.115 26.17-2.875-.52-12.418-2.326-21.209-4.009m61.279-23.084v-28.045l116.726 1.912 116.725 1.911 2.162 26.134 2.163 26.129h-237.776Zm402.763-20.78c-11.684-20.533-12.785-20.864-69.685-20.911l-57.816-.047-16.579-24.342-16.575-24.345H1797.48l11.415-17.422 11.415-17.419 171.674.087 171.67.088 15.743 24.301c14.835 22.899 17.96 24.305 54.007 24.305h38.264v76.656l-33.1-.044c-29.454-.04-34.408-2.344-44.972-20.907m359.643-13.777c-5.175-5.23-48.447-7.051-134.46-5.655-125.785 2.035-126.861 1.926-130.681-13.326-7.806-31.171-5.484-31.687 136.983-30.371 74.485.69 136.499 2.326 137.811 3.638 1.311 1.312 1.391 13.871.181 27.906-1.602 18.542-4.292 23.412-9.834 17.808m26.41-10.572c.141-11.498 1.704-15.358 3.47-8.577s1.65 16.187-.258 20.908c-1.908 4.717-3.354-.833-3.212-12.331m-787.515-12.193 2.184-22.648 114.981-.647c119.938-.672 125.128.582 125.332 30.262.105 15.671.029 15.681-122.286 15.681H1789.95ZM843.1 358.884V331.01h69.685v55.748H843.1Zm83.621-3.485V324.04h132.407v62.718H926.721Zm146.344 0V324.04h362.369v62.718h-362.369Zm369.336 0V324.04h154.176l-22.518 31.359-22.521 31.359h-109.137Zm146.199 3.667c12.221-15.431 24.606-28.056 27.525-28.056 2.914 0 10.978 6.272 17.912 13.937 6.938 7.664 19.185 13.89 27.213 13.835 13.726-.098 13.603-.618-2.068-8.711-9.169-4.735-20.958-15.136-26.202-23.113-8.773-13.348-5.059-20.453 46.437-88.852 30.785-40.888 57.492-74.344 59.346-74.344 1.857 0 20.755 36.84 41.993 81.867 32.06 67.97 37.402 84.531 31.464 97.563-4.732 10.386-13.679 15.964-26.464 16.502-12.501.524-14.874 1.959-6.73 4.067 6.919 1.795 11.364 6.919 9.877 11.389-1.868 5.619-36.603 8.719-112.611 10.049l-109.912 1.922Zm158.678-.738c-8.283-4.826-16.103-4.826-24.389 0-9.95 5.793-7.705 7.101 12.196 7.101 19.897 0 22.143-1.308 12.193-7.101m439.845 4.041c-12.537-21.249-17.894-24.389-41.578-24.389-14.951 0-27.187-3.136-27.187-6.97s-9.667-6.97-21.485-6.97c-11.819 0-20.442-2.831-19.163-6.298 1.275-3.464 16.433-41.07 33.681-83.571l31.359-77.274 34.841-.003c31.563-.004 36.309 2.148 50.388 22.826 8.547 12.556 25.795 33.961 38.325 47.567l22.787 24.742 324.043-3.104c263.102-2.522 326.107-4.924 335.04-12.774 18.883-16.597 72.785-12.069 104.253 8.758 16.201 10.721 35.807 17.779 46.888 16.874 10.474-.854 136.641-3.736 280.368-6.4l261.325-4.848-253.239-1.573c-250.405-1.56-253.377-1.745-265.464-16.674-14.225-17.564-34.619-13.428-40.267 8.17-3.445 13.188-5.106 12.825-32.068-7.003-22.281-16.387-35.676-20.911-61.904-20.911h-33.471v-41.811c0-49.868-.741-49.73 125.437-23.462 13.414 2.791 140.177 6.221 281.698 7.624 290.569 2.878 270.999-1.334 279.565 60.163 2.595 18.629 2.5 60.473-.218 92.984l-4.925 59.117-18.868-18.076-18.865-18.073h-251.851l-53.52-24.389c-51.641-23.535-56.449-24.392-136.909-24.392-82.183 0-83.502.25-91.323 17.422-6.305 13.835-13.09 17.444-32.955 17.527-32.598.138-49.152 9.9-37.148 21.903 4.757 4.761 8.653 15.867 8.653 24.68v16.03h-202.092c-193.05 0-202.088-.585-202.088-13.083 0-27.398-12.96-29.389-171.769-26.391-167.073 3.154-171.699 3.554-167.182 14.504 13.763 33.34 14.77 31.937-22.909 31.937-33.555 0-36.734-1.545-50.214-24.389Zm655.973-13.806c0-20.373-16.83-26.555-63.274-23.237-27.78 1.984-31.018 4.081-33.006 21.362l-2.206 19.166h49.243c47.782 0 49.243-.516 49.243-17.291m-594.991-36.102c-5.899-10.877-10.845-17.575-11.001-14.878-.469 8.282 15.743 40.637 18.821 37.555 1.592-1.591-1.926-11.796-7.82-22.677m333.67-16.295c-2.599-4.201-51.315-6.967-122.777-6.967-77.2 0-116.965 2.428-114.16 6.967 2.599 4.204 51.315 6.97 122.777 6.97 77.2 0 116.965-2.428 114.16-6.97m-289.199 59.233c4.771-5.75 16.132-10.452 25.243-10.452 10.081 0 16.568 4.092 16.568 10.452 0 7.37-7.45 10.455-25.243 10.455-21.649 0-24.007-1.49-16.568-10.455m62.718 0c0-8.555 12-10.452 66.2-10.452 54.203 0 66.203 1.897 66.203 10.452 0 8.558-12 10.455-66.203 10.455-54.2 0-66.2-1.897-66.2-10.455m153.31 0c0-13.875 41.383-14.032 59.641-.222 12.458 9.423 10.63 10.252-23.055 10.456-27.976.167-36.586-2.239-36.586-10.234M9.471 320.198c-20.286-30.959-8.064-34.248 137.106-36.879l132.062-2.395v-33.536h-139.37c-128.133 0-139.366-.985-139.268-12.196.258-29.259 4.422-29.968 185.102-31.567l173.676-1.533v52.263c0 28.746 2.562 59.32 5.695 67.944l5.698 15.681H21.122Zm372.988 6.473c-10.619-12.796-16.844-99.235-8.071-112.078 5.077-7.435 45.241-12.378 80.387-9.892 11.448.807 11.579 2.417 1.745 21.434-13.352 25.817-13.599 67.665-.549 92.679l9.994 19.166h-37.061c-25.686 0-39.94-3.47-46.445-11.309m1409.424-77.542-43.5-88.852 98.845-1.937c54.363-1.068 100.168-.614 101.789 1.007 3.936 3.936-73.235 157.395-85.134 169.293-5.135 5.135-13.65 9.34-18.919 9.34-5.353 0-28.772-39.201-53.081-88.851m117.416 81.881c0-3.834-4.702-6.967-10.451-6.967s-10.507-2.355-10.572-5.229c-.062-2.875 16.092-40.503 35.909-83.622l36.033-78.396h86.783c66.622 0 85.988 2.024 83.342 8.711-1.893 4.79-18.236 45.554-36.312 90.592l-32.871 81.881h-75.929c-45.975 0-75.932-2.751-75.932-6.97M466.652 302.871c-4.183-7.814-6.643-27.413-5.473-43.556l2.129-29.349 224.74-1.839 224.737-1.839v90.785H693.518c-213.503 0-219.467-.374-226.866-14.202m460.069-79.876c0-89.429.691-94.077 13.937-94.077 8.85 0 13.941-4.644 13.941-12.719 0-13.185 27.1-43.029 39.071-43.029 3.75 0 6.683-16.463 6.52-36.585C999.964 9.031 1002.403 0 1010.06 0c5.666 0 12.134 9.26 14.609 20.907 2.446 11.499 11.197 32.759 19.45 47.248 20.308 35.651 19.319 46.804-4.157 46.935-10.539.058-23.866 3.147-29.615 6.861-11.785 7.618-24.225 7.356 365.854 7.654 379.421.291 358.884.908 358.884-10.819 0-7.664 11.473-10.637 47.037-12.196l47.041-2.061 2.104-36.585c1.159-20.122 5.462-36.585 9.565-36.585 4.757 0 4.314-3.787-1.218-10.452-7.675-9.249 12.727-10.455 176.846-10.455h185.523v55.751h-355.402v41.811l47.041 1.189c25.871.654 82.688.581 126.261-.167 48.567-.833 82.735 1.559 88.303 6.178 6.578 5.458 13.072 5.044 23.564-1.509 11.873-7.413 17.095-7.413 28.968 0 10.419 6.509 17.007 6.949 23.487 1.574 10.467-8.686 140.726-8.169 158.195.629 7.904 3.976 12.807 2.38 15.681-5.11 5.735-14.947 5.891-14.649-9.757-18.741-21.565-5.64-17.866-30.418 5.226-35.004 24.516-4.87 126.614 2.594 130.924 9.572 1.799 2.907 1.355 10.274-.985 16.368-3.093 8.068-13.643 11.084-38.762 11.084-18.978 0-32.751 2.839-30.603 6.313 2.144 3.474 10.353 4.626 18.243 2.566 10.536-2.759 15.373.189 18.225 11.106 3.635 13.889 8.337 14.856 72.291 14.856 64.866 0 68.653-.81 73.21-15.678 8.886-28.982 16.616-33.699 35.222-21.51 13.149 8.616 15.155 13.184 9.035 20.558-9.965 12.007-3.213 30.567 11.117 30.567 5.993 0 13.145-5.644 15.896-12.545 4.321-10.837 8.322-11.549 29.393-5.226 17.233 5.171 24.389 11.382 24.389 21.162 0 19.402 24.29 22.888 29.182 4.186 2.893-11.062 9.343-14.544 26.929-14.544 12.716 0 30.679-2.874 39.914-6.385 9.234-3.51 42.367-4.63 73.624-2.489l56.831 3.896v53.76h-65.789c-36.345 0-67.719 3.118-70.099 6.966-2.464 3.991-38.399 6.971-84.033 6.971h-79.73v-34.845h-94.295c-77.389 0-95.015-1.875-98.304-10.451-5.898-15.366-127.955-15.366-127.955 0 0 15.139-99.002 15.059-111.576-.091-7.552-9.104-41.229-10.292-246.425-8.711l-237.674 1.831-64.888 85.367-64.884 85.366H926.721Zm121.087 64.59c5.844-9.278 4.935-14.725-3.939-23.6-20.875-20.874-52.02 6.407-33.202 29.084 10.837 13.058 26.965 10.677 37.141-5.484m69.689 0c5.843-9.278 4.935-14.725-3.94-23.6-20.878-20.874-52.023 6.407-33.202 29.084 10.834 13.058 26.966 10.677 37.142-5.484m69.685 0c5.843-9.278 4.935-14.725-3.94-23.6-20.875-20.874-52.023 6.407-33.202 29.084 10.837 13.058 26.966 10.677 37.142-5.484m69.684 0c5.848-9.278 4.939-14.725-3.939-23.6-20.875-20.874-52.019 6.407-33.202 29.084 10.837 13.058 26.969 10.677 37.141-5.484m69.689 0c5.844-9.278 4.935-14.725-3.939-23.6-20.879-20.874-52.023 6.407-33.202 29.084 10.833 13.058 26.965 10.677 37.141-5.484m69.685 0c5.844-9.278 4.935-14.725-3.939-23.6-20.875-20.874-52.02 6.407-33.202 29.084 10.837 13.058 26.965 10.677 37.141-5.484m69.689 0c5.843-9.278 4.935-14.725-3.94-23.6-20.878-20.874-52.023 6.407-33.201 29.084 10.833 13.058 26.965 10.677 37.141-5.484m69.685 0c5.843-9.278 4.935-14.725-3.94-23.6-20.874-20.874-52.023 6.407-33.202 29.084 10.838 13.058 26.966 10.677 37.142-5.484m69.685 0c5.847-9.278 4.935-14.725-3.94-23.6-20.875-20.874-52.019 6.407-33.202 29.084 10.837 13.058 26.966 10.677 37.142-5.484m-536.584-76.655c5.844-9.278 4.935-14.726-3.939-23.6-20.875-20.875-52.023 6.407-33.202 29.084 10.837 13.058 26.966 10.677 37.141-5.484m69.685 0c5.844-9.278 4.935-14.726-3.939-23.6-20.875-20.875-52.02 6.407-33.202 29.084 10.837 13.058 26.966 10.677 37.141-5.484m69.689 0c5.844-9.278 4.935-14.726-3.94-23.6-20.878-20.875-52.023 6.407-33.201 29.084 10.833 13.058 26.965 10.677 37.141-5.484m69.685 0c5.843-9.278 4.935-14.726-3.94-23.6-20.874-20.875-52.023 6.407-33.201 29.084 10.837 13.058 26.965 10.677 37.141-5.484m69.685 0c5.847-9.278 4.939-14.726-3.94-23.6-20.874-20.875-52.019 6.407-33.201 29.084 10.837 13.058 26.969 10.677 37.141-5.484m69.688 0c5.844-9.278 4.935-14.726-3.939-23.6-20.878-20.875-52.023 6.407-33.202 29.084 10.834 13.058 26.966 10.677 37.141-5.484m69.685 0c5.844-9.278 4.935-14.726-3.939-23.6-20.875-20.875-52.019 6.407-33.202 29.084 10.837 13.058 26.966 10.677 37.141-5.484m69.689 0c5.844-9.278 4.935-14.726-3.94-23.6-20.878-20.875-52.023 6.407-33.201 29.084 10.833 13.058 26.965 10.677 37.141-5.484m69.685 0c5.844-9.278 4.935-14.726-3.94-23.6-20.874-20.875-52.023 6.407-33.201 29.084 10.837 13.058 26.965 10.677 37.141-5.484m755.218-8.486c-18.204-20.057-33.1-40.103-33.1-44.544 0-13.057 95.026-10.8 100.081 2.377 3.27 8.519 20.093 10.456 90.875 10.456h86.864l2.206 19.163 2.206 19.162 85.363 1.959c79.613 1.825 85.366 2.879 85.366 15.678 0 13.341-5.397 13.701-193.377 12.97l-193.381-.752Zm89.04 9.507c6.672-21.027-19.254-45.554-54.029-51.118-41.549-6.643-46.942 4.009-18.676 36.876 28.085 32.649 64.594 39.798 72.705 14.242m-55.254-14.482c-19.635-28.037 5.971-37.711 30.404-11.487 18.625 19.995 17.931 26.562-2.817 26.562-9.554 0-21.659-6.615-27.583-15.075Zm400.012 33.067c0-5.436-1.904-14.845-4.23-20.907-3.685-9.605 4.84-11.022 66.203-11.022 38.737 0 70.43 1.421 70.43 3.154 0 1.737-3.638 11.146-8.086 20.907-7.726 16.954-10.688 17.75-66.203 17.75-45.522 0-58.114-2.141-58.114-9.882m-555.746-24.708c-8.624-10.932-15.682-21.736-15.682-24.004s22.972-4.125 51.049-4.125c45.446 0 52.848 1.916 67.418 17.423l16.368 17.422h-36.058c-19.832 0-36.058 3.136-36.058 6.966 0 14.639-32.057 5.313-47.037-13.682m-1416.271-5.481c.211-24.185 10.063-30.385 40.543-25.508 24.606 3.932 29.037 7.167 29.037 21.173 0 15.191-2.824 16.532-34.841 16.532-28.579 0-34.826-2.192-34.739-12.197m1889.769-85.293c-24.157-2.74-46.917-7.981-50.577-11.644-7.105-7.101 32.857-65.084 44.857-65.084 7.373 0 72.719 40.404 86.104 53.24 4.72 4.528 12.559 9.845 17.418 11.811 6.752 2.733 6.371 5.321-1.617 10.968-11.459 8.104-29.891 8.239-96.185.712Zm-93.711-29.077c-10.539-3.849-19.163-9.493-19.163-12.542 0-9.467 74.773-69.95 86.479-69.95 13.046 0 13.152.614 4.172 24.233-7.17 18.861-42.727 66.774-48.84 65.807-1.915-.302-12.105-3.7-22.648-7.548"/></svg>