<svg xmlns="http://www.w3.org/2000/svg" width="2437.186" height="1000" viewBox="0 0 2437.186 1000"><path d="m1012.563 0-21.357 1.256-1.256 1.257-1.257 22.613-7.537 2.512-2.513 2.513v8.794l108.04 1.256 16.332 1.256 8.794 1.257v-3.769l-2.513-5.025-7.537-3.769-11.307 2.512-13.819-16.331-8.794-13.819L1061.558 0zm-597.99 16.332-26.382 1.256-5.025 7.538v16.331l11.306 1.257-1.256 18.844 1.256 5.025 22.613 1.256v5.025l3.769 7.538h26.382l3.769-2.513 8.794-10.05 7.538-6.281 7.537-8.794 3.769-7.538V31.407l-2.512-6.281-6.282-7.538-10.05-1.256zm554.02 16.331-6.281 2.513-8.794 10.05-1.257 6.282 2.513 1.256h11.306l3.769-1.256 5.025-13.82-1.256-5.025zM484.925 42.714l-1.257 1.256-8.794 13.819-12.562 13.819v5.025l25.125-1.256V60.302l-1.256-8.794 10.05-1.257 1.256-1.256-1.256-5.025zm491.206 0-2.513 8.794v27.638h160.804l1.256-1.257-1.256-12.562-2.512-5.025-11.307-6.282-20.1-10.05-94.222-1.256zm-611.809 10.05-2.513 7.538-7.538 5.025-1.256 7.537 2.513 2.513 50.251 2.512 10.05-1.256v-2.512l-3.769-2.513-22.613-1.256V54.02zm148.241 0-1.256 2.512v18.845l1.256 1.256 71.608-1.256 1.256-17.588-1.256-2.513zm619.347 0v2.512l3.768 2.513 1.257 3.769v21.357l-12.563 1.256H969.849l-2.512-3.769H453.518l-1.257 1.256-6.281 2.513h-28.895l-1.256-5.025h-27.638l-31.407-1.257-1.256 6.282-8.794 7.538-10.051 8.794-15.075 15.075 1.256 22.613h84.171l7.538-10.05 7.538-6.282 11.306-5.025 668.342-1.256 92.965-1.256-2.513-6.282-25.126-25.125 1.257-15.076-2.513-12.563-2.512-2.512zM609.296 54.02l-1.256 1.256v17.588l2.513 2.513h18.844l2.513-20.101-2.513-1.256zm48.995 0-1.256 1.256v17.588l1.256 1.257h71.608V54.02zm96.734 0-1.256 1.256v17.588l2.512 2.513h18.845l1.256-6.282 1.256-13.819-3.769-1.256zm47.739 0v18.844l1.256 1.257h71.608V57.789l-1.256-3.769zm96.733 0-1.256 1.256v16.332l1.256 3.769h20.101l1.256-3.769 1.257-17.588zm46.483 0v20.101l2.512 2.512 18.845-1.256 1.256-1.256 1.256-18.845-6.281-1.256zm-454.774 8.794-1.256 1.256v12.563h17.588l1.256-1.256v-7.538l-2.513-5.025zm100.503 0-5.026 2.513v10.05l2.513 1.256 15.075-1.256v-8.794l-2.512-2.513zm46.482 0-2.513 1.256-2.512 11.307h21.357v-7.538l-3.769-3.769zm145.729 0-2.513 1.256-3.769 11.307h22.613v-3.769l-2.512-7.538zm99.246 0-5.025 2.513v10.05l1.256 1.256h15.075l1.257-1.256-1.257-11.307zm42.713 0-1.256 1.256-1.256 12.563h20.1l-1.256-11.306-2.513-2.513zM733.668 64.07l-1.256 2.513v8.794h18.844L750 67.839l-3.769-3.769zm373.116 51.508-1.256 1.256-1.257 27.638v52.764l1.257 3.769h162.06l-36.432 1.256h-126.885l-94.221 1.257H439.698l-12.562-2.513-7.538-3.769-10.05-11.306-5.025-12.563-1.257-12.563 3.769-21.357h-84.171l-1.256 23.87v47.738l1.256 35.176h116.834l7.538-3.769 12.563-10.05 16.332-12.563 11.306-7.537h807.789l1.256-13.82 1.257-1.256 2.512-7.538-11.306-15.075-1.257-10.05-11.306-17.588-13.819-17.588-11.307-12.563-55.276-1.256zm-924.623 15.075-2.513 1.257-1.256 3.768v16.332l17.588-1.256h38.945l27.638 1.256 47.739 1.256v66.583H179.648l-1.256 2.513v10.05l1.256 1.256h136.935V131.91l-1.256-1.257zm954.774 3.769h5.025l8.794 2.513 7.537 7.537 3.769 7.538v12.563l-3.769 7.538-7.537 6.281-8.794 3.769-12.563-1.256-8.794-7.538-5.025-10.05v-10.051l5.025-7.537 6.281-6.282zm-6.282 6.282-3.769 1.256-6.281 6.281v10.05l3.769 11.307 7.538 6.281h11.306l5.025-2.512 7.538-8.794V152.01l-5.025-7.538-7.538-3.768zm-3.769 5.025 6.282 1.256 8.794 7.538v7.537h-6.282l-1.256-1.256-8.794-12.563zm-922.11 6.281-23.869 2.513-8.794 2.512v60.302l33.919 1.256h100.503l1.256-1.256v-61.558l-87.94-3.769zm1283.919 1.256-6.281 5.025-12.563 10.051-10.05 10.05v7.538l-32.663 2.512-59.046 10.05-61.557 11.307-1.257 10.05 1.257 18.844h28.894v7.538h-242.462l-1.256 1.256v13.82l2.512 2.512h10.05l5.025-7.538 47.739-1.256h347.99l3.769 1.256 3.769 7.538h12.563v-17.588h-89.196l-72.865-1.256-1.256-5.025 168.342-1.257 1.256-6.281 280.151 1.256v36.433l1.256 2.512h238.694l2.512-1.256v-27.638l-12.563-17.588-12.563-15.076-13.819-17.588-417.085-1.256-3.769-1.256-5.025-5.025-7.538-5.025h-60.301l-3.769 1.256-10.05 5.025-7.538 1.256v-22.613l-1.256-8.794-3.769-3.769zm-1081.658 5.025-1.256 5.026 2.512 8.794 173.367 1.256 6.282-1.256v-12.563zm476.131 1.257v11.306l1.256 1.257 213.568 1.256 3.769-1.256v-12.563zm-664.573 1.256h32.663l2.513 1.256 2.512 7.538v33.92l-3.768 7.537h-32.664l-2.512-3.769v-42.713zm52.764 1.256h25.125l3.769 1.257 1.257 2.512v40.201l-2.513 5.025h-30.151l-2.512-5.025v-37.688l1.256-3.769zm321.608 1.257-1.256 2.512v31.407l1.256 5.025h45.226v-36.432l-2.513-2.512zm48.995 7.537-1.256 1.257v18.844l1.256 1.256h237.437v-21.357zm-232.412 3.769 2.512 7.538 6.282 5.025H587.94v-11.307l-1.257-1.256zm474.874 0v11.307l18.844 1.256h198.493v-11.307l-2.513-1.256zm0 13.819-1.256 8.794 2.512 5.025 214.825-1.256 1.256-1.256v-8.794l-1.256-1.257zm-464.824 1.256 5.025 6.282 10.05 5.025 145.729 1.256 7.538-1.256 1.256-5.025-1.256-6.282zm82.915 23.87-12.563 1.256-2.513 1.256-13.819 10.051-11.306 8.794-11.307 10.05-1.256 5.025 7.537 21.357 5.026 12.563h613.065l1.256-18.845 7.538-1.256 1.256-2.512V239.95l214.824-1.257v-25.125zm89.196 8.794h10.05l5.025 2.512 5.025 7.538v7.538l-2.513 5.025-7.537 6.281h-8.794L590.452 250l-7.537-8.794v-10.05l1.256-2.513zm61.557 0h7.538l5.025 2.512 5.025 6.282 1.257 8.794-3.769 6.281-6.282 5.025-6.281 1.257-6.282-2.513-6.281-7.538-1.256-8.794 3.769-6.281zm59.046 0h6.281l6.281 3.769 5.025 7.537v7.538l-2.512 3.769-6.281 6.281-7.538 1.257-8.794-5.026-3.769-6.281v-8.794l5.025-6.281zm61.557 0h7.538l5.025 2.512 6.282 8.794v7.538l-8.794 10.05-8.794 1.257-5.025-2.513-6.282-7.538-1.256-8.794 3.769-6.281zm61.558 0h7.538l2.512 1.256 7.538 8.794 1.256 7.538-5.025 7.537-7.537 5.026-8.794-1.257-7.538-8.794-1.256-8.794 3.768-6.281zm60.302 0h5.025l7.537 3.769 5.026 8.794-1.257 7.537-7.537 8.794-8.794 1.257L891.96 250l-6.282-6.281-2.512-8.794 5.025-8.794zm59.045 0 7.538 1.256 5.025 3.769 3.769 7.538-1.257 8.794-6.281 6.281-8.794 2.513-7.538-3.769-5.025-7.538v-8.794l5.025-6.281zm-772.613 13.819-1.256 1.256v141.96l-1.257 17.588-1.256 11.306 3.769 1.257h96.733l1.257-1.257V237.437l-1.257-1.256zm106.784 0-1.257 1.256v131.91h149.498l6.281-3.769 11.307-8.794 2.512-7.538v-51.507l-1.256-2.513-5.025 1.256v51.508l-1.256 1.256V293.97h376.884l3.769 3.769v48.995l1.256 5.025-3.769 1.256v3.769l3.769 2.512 17.588 10.051h226.131l1.256-1.257v-79.145l-2.512-2.513H459.799v-3.769l-7.538-18.844-6.281-12.563H316.583v-15.075zm1270.1 2.512-2.512 1.257-5.025 6.281-10.051 1.256-3.769 1.257v27.638l1.257 76.633h266.331v-89.196l-16.331-2.512-1.257-21.357-1.256-1.257h-12.563L1772.613 250l-1.256 62.814-3.769 8.794-7.538 3.769h-159.547l-6.282-2.513-8.794-11.306-1.256-72.865zm28.895 0-1.257 2.513-1.256 21.357v30.151l1.256 16.331 1.257 3.769 7.537 8.794 6.282 2.513 6.281-1.257-1.256-77.889-13.819-2.513-1.256-2.512zm672.11 2.513-16.331 1.256v114.322l1.256 2.512 20.1 1.257h27.639l2.512-1.257 15.076-18.844 7.537-11.306v-60.302l-1.256-2.512-8.794-8.794-11.307-13.819-6.281-2.513zm-649.497 2.513-1.257 1.256v77.889l1.257 1.257h48.995v-79.146l-5.025-1.256zm51.507 1.256-1.256 30.151v42.713l1.256 6.282h97.99l6.282-2.513 3.769-8.794 1.256-62.814-1.256-5.025zm566.583 0-168.341 1.256-1.257 30.151-12.563 2.512-1.256 1.257v79.145l2.513-1.256 7.537-13.819h182.161l2.513 3.769V244.975zM623.116 250h8.794l7.537 6.281 1.257 11.307-2.513 3.769-6.281 5.025-11.307-1.256-6.281-7.538v-7.538l2.512-5.025zm61.557 0 8.794 1.256 6.282 7.538 1.256 8.794-8.794 8.794h-10.05l-6.282-6.281-2.512-7.538 5.025-8.794zm59.046 0h5.025l5.025 2.513 5.025 7.537v8.794L750 276.382h-10.05l-5.025-5.025-2.513-11.307 5.025-6.281zm62.814 0 7.537 1.256 6.282 6.282 1.256 10.05-7.538 8.794h-11.306l-2.513-1.256-5.025-7.538v-7.538l3.769-6.281zm61.557 0h2.513l7.538 3.769 5.025 7.538-1.256 7.537-8.794 7.538h-8.794l-6.282-5.025-2.512-8.794 5.025-8.794zm59.046 0 7.537 1.256 6.282 6.282 1.256 10.05-2.513 3.769-6.281 5.025h-10.05l-3.769-2.513-3.769-6.281v-7.538l3.769-6.281zm1395.728 3.769-1.256 11.306-1.256 81.659-1.257 2.512c-3.535 4.42-7.038 8.8-11.306 12.563h-67.839l-1.257-8.794-3.768-5.025h-177.136l-2.513 2.513-3.768 13.819h-62.815l-8.794-1.257-6.281-15.075-3.769-1.256-60.301-1.257h-41.458v-66.583l-20.1-1.256h-35.176l-1.256 6.282v193.467l1.256 21.357h479.9l12.562-5.025 21.357-1.257 40.201-1.256 1.256-7.538V266.332l-1.256-1.257-12.563-5.025-21.356-6.281zm-1077.889 2.512-131.91 1.257-1.256 1.256 1.256 5.025h391.96l1.256-1.256-1.256-5.025-81.658-1.257zM162.06 258.794l-2.512 2.513v123.115l1.256 2.513h15.075l1.257-124.372-2.513-3.769zm2216.081 6.281-1.257 1.257v474.874h57.789l2.513-2.513v-92.964l-1.256-10.051-6.282-33.919-5.025-30.151-1.256-295.226-3.769-6.281-6.281-3.769zm-1297.739 2.513-1.256 1.256v100.503l1.256 5.025 10.05 13.819 15.076 1.256 1.256-86.683 1.256-30.151-1.256-5.025zm423.367 1.256v119.347l1.256 1.256 21.357-1.256 5.025-5.025 3.769-6.282V271.357l-1.256-2.513zm-331.658 3.769-1.257 1.256 2.513 23.87 3.769 6.281h46.482l2.513-1.256 6.281-5.025 15.075-2.513 1.257-1.256-1.257-16.332-1.256-1.256h-70.352zm79.145 0-1.256 1.256-1.256 6.282 3.769 2.512 1.256 2.513H1250l1.256 8.794 6.282 2.512h20.1l7.538 1.257 6.281 6.281h43.97l2.513-1.256 2.512-5.025 7.538-1.257h28.894l1.257 1.257 1.256 134.422h101.759l15.075-15.076V291.457l-7.538-6.281-6.281-7.538-16.332-1.256-1.256 8.794v94.221l-1.256 11.307-1.256 2.512-6.282 6.281-10.05 3.769h-35.176l-7.538-2.512-5.025-2.513-1.256-3.769-3.769-7.537-1.256-109.297-2.513-1.256H1260.05l-6.281 1.256v-3.769zm-89.196 3.769-31.407 1.256-3.769 3.769-7.537 6.281-1.257 18.845-1.256 5.025-5.025 2.512v103.015l2.513 6.282 6.281 6.281 5.025 2.513 1.256-136.935 42.714-1.256-1.256-16.332zm282.664 0-33.92 1.256v100.503l1.256 6.281 2.513 2.513 7.538 2.512h12.562l7.538-1.256 5.025-2.513 2.513-7.537v-99.247zm-47.739 1.256v108.04l2.512 5.026 6.282 6.281 8.794 3.769h30.151l6.281-1.257 7.538-5.025 3.769-6.281V277.638h-7.538l-2.513 108.04-2.512 3.769-11.307 2.513h-18.844l-6.281-1.256-3.769-2.513-2.513-10.05v-95.478l-1.256-5.025zm496.231 1.256-6.281 1.257-3.769 2.512v55.277l1.256 2.512 8.794 2.513 3.769-1.256v-61.558zm7.538 0v64.071l2.512 1.256 71.608 1.256 1.257 2.513 3.768 3.769 1.257-30.151v-41.457l-1.257-1.257zm84.171 0-1.257 1.257v79.145l1.257 1.257 10.05 1.256 2.512-2.513v-80.402zm43.969 0v81.659h13.82v-81.659zm-27.638 3.769L2000 283.92l-1.256 8.794v56.532l6.281 2.513h18.844l2.513-1.256v-65.327l-1.256-1.256zm-1476.13 12.563-62.814 1.256-1.257 7.538v42.714l1.257 5.025h70.351v-55.277l-1.256-1.256zm12.562 0v54.02l1.257 1.257h11.306l5.025-1.257v-54.02zm45.227 0-1.257 1.256v52.764l7.538 1.257 11.307-1.257 1.256-22.613v-20.1l-1.256-11.307zm52.763 0-30.15 1.256-1.257 1.257v54.02h71.608V314.07l-1.256-18.844zm46.483 0-1.256 1.256v52.764l1.256 1.257h8.794l8.794-2.513v-43.97l-1.257-8.794zm46.482 0-1.256 1.256v52.764l12.563 1.257 5.025-1.257v-54.02zm45.226 0-22.613 1.256v55.277h71.608l1.257-1.256-1.257-54.021-22.613-1.256zm-214.824 1.256-1.256 54.021 7.538 1.256h13.819v-55.277zm144.473 0-1.257 7.538v46.483l16.332 1.256 6.281-1.256v-51.508l-1.256-2.513zm428.392 1.257-1.257 1.256V435.93l1.257 1.256h243.718V298.995l-1.256-1.256h-20.101l-7.537 1.256-2.513 2.513-2.512 5.025-52.764-1.257-7.538-7.537h-43.97l-11.306 7.537h-48.995l-2.513-1.256-5.025-6.281zm409.547 59.045-1.256 1.256-2.513 22.613-5.025 5.025-3.769 6.282v135.678l2.513 10.05 7.538 6.282 12.563 1.256h52.763l11.307-2.512 3.769-3.769 3.769-7.538 5.025-23.869 2.512-15.076 174.623-1.256V358.04l-2.512-1.256zM287.688 371.859l-1.256 1.257v8.794h793.97l1.256-1.257-3.769-7.537-3.768-1.257zm0 15.076-1.256 1.256v74.121h797.739l1.256-1.257v-72.864l-1.256-1.256zm806.533 5.025-1.256 1.256v202.261l2.512 3.769 21.357 3.769 49.839 8.745c17.144 36.63 47.596 101.562 158.704 337.989l10.05 20.1 6.282 11.307 10.05 7.537 33.919 11.307h17.588l18.845-5.025 100.502-28.895 65.327-18.844 77.889-22.613 1.256-3.769-16.331-37.688-6.282-10.05-21.356 5.025-203.518 57.789h-15.075l-3.769-1.257-28.895-10.05-5.025-3.769-7.538-11.306-21.356-46.483-11.307-25.125-20.1-42.714-11.307-26.382-2.512-12.563v-69.095h285.175l25.126 5.025 10.05 5.025 7.538 8.794v7.538l-5.025 7.538-11.307 10.05-21.356 13.819-3.769 3.769-1.257 6.281 2.513 1.256 6.281-1.256 16.332-6.281 2.513-5.025 5.025-1.257 20.1-2.512h41.458l6.281 1.256 7.538 3.769 6.281 8.794 13.819 28.894 6.282 18.845v13.819l-7.538 15.075-11.307 10.05-20.1 10.051-25.126 5.025-1.256 2.512 8.794 21.357 20.1 45.226h7.538l8.794-2.512 65.327-18.845 60.301-17.588 12.563-5.025 1.256-72.864 1.257-1.256 2.512-5.025-3.769-7.538-15.075-25.126-16.332-27.638-21.357-36.432-18.844-32.663-8.794-12.563-10.05-8.794-18.844-12.563-28.895-18.844-5.025-6.282-10.05-25.125H1533.92v1.256l15.075 15.075 11.307 12.563 7.537 12.563 3.769 12.563v12.563l-3.769 6.281-10.05 7.538-12.563 5.025-15.075 2.512h-38.945l-157.035-1.256-7.538-12.563-15.075-27.638-6.282-6.281h-12.562l-1.257-3.769-77.889-2.513-31.407-3.769h-11.307l6.282 15.076c262.724 558.336 45.03 95.798-10.306-21.377l21.612 3.789 30.151 3.769h72.864l1.257-1.257V444.724l-1.257-1.257-165.829-1.256-6.281-5.025-5.025-2.513v-2.512l-5.026-3.769-2.512-8.794-1.256-27.638zm410.804 0-1.256 1.256-1.256 25.126-2.513 5.025-10.05 8.794v2.512h-2.513l1.256 2.513h20.101l3.769-1.256 6.281-5.025 6.282-6.282V391.96zm-1198.492 1.256 8.794 1.256 6.281 7.538v11.307l-6.281 6.281-8.794 2.513-8.794-3.769-3.769-8.794 1.256-8.794 5.025-5.025zm756.281 0 8.794 1.256 7.538 7.538 1.256 8.794-7.538 8.794-7.537 2.513-8.794-3.769-5.025-7.538v-7.538l5.025-6.281zm-942.211 3.769-1.256 6.281v136.935l1.256 7.538 3.769 5.025 7.538 3.769h16.331l8.794-5.025 3.769-7.538V420.854l-1.256-18.844-3.769-5.025zm219.849 3.769h90.453l6.281 5.025 3.769 7.538v10.05l-1.257 3.769-3.768 5.025-8.794 3.769h-84.171l-6.282-2.513-6.281-10.05V412.06l5.025-8.794zm123.116 0h90.452l6.282 5.025 3.768 8.794v8.794l-1.256 2.512-5.025 6.282-7.538 3.769H466.08l-3.768-1.257-6.282-6.281-3.769-8.794 1.257-8.794 3.768-6.281zm118.09 0h91.709l6.281 5.025 3.769 10.05-1.256 8.794-5.025 7.538-7.538 3.769h-84.171l-3.769-1.257-6.281-5.025-3.769-7.537v-8.794l3.769-7.538zm119.347 0h91.709l5.025 5.025 3.769 7.538v10.05l-5.026 8.794-8.794 3.769h-84.17l-5.026-2.513-6.281-6.281-2.513-8.794 2.513-10.051zm121.859 0h91.709l6.281 5.025 3.769 10.05-1.256 8.794-5.025 7.538-7.538 3.769h-82.915l-5.025-1.257-5.025-3.768-5.025-8.794V412.06l3.769-6.281zm120.603 0h91.709l3.769 2.512 5.025 10.051v10.05l-5.025 8.794-7.538 3.769H945.98l-7.538-3.769-5.025-7.538v-13.819l1.256-2.513zM54.02 432.161v143.216l1.256 8.794h236.181l2.513-1.256V469.849l-1.256-1.256h-11.307v-36.432H164.573l-1.256 114.321-1.257 2.513-5.025 6.281-11.306 3.769h-12.563l-12.563-3.769v-2.512l-3.769-7.538-1.256-113.065zm-48.995 7.537-3.769 3.769L0 548.995l6.281 7.538h8.794l8.794-5.025 11.307-1.257 1.256-1.256V442.211l-1.256-1.256-12.563-1.257zm38.945 1.257-1.256 1.256v105.528l6.281 1.256v-108.04zm1252.512 5.025-1.256 3.769v162.06l2.513 3.769 7.537-2.513 6.282-6.281V462.312l-2.513-5.026-8.794-10.05zm89.196 15.075-69.095 1.257-1.256 2.512v139.447l6.281-2.512 16.332-11.307 11.306-5.025h319.096l8.794-1.256 1.256-6.282 11.306-28.894 6.282-15.075 110.553-1.257v-30.15l-2.513-8.794h-167.085l-3.769 2.512-1.256 8.794-6.282 30.151-5.025 7.538-8.794 3.768h-72.864l-3.769-1.256-5.025-2.512v-2.513l-3.769-6.281-1.256-22.613v-48.995l-6.282-1.257zm-1082.914 7.538-2.513 1.256v113.066l1.257 1.256h126.884l3.769-1.256v-91.709l349.246 1.256 26.382-1.256v-20.1l-6.281-2.513zm512.563 0-2.513 1.256v113.066l1.256 1.256 62.814 1.256 2.513 3.769 10.05 13.819 11.307 13.819h162.06l7.538-3.769 11.306-8.794 3.769-6.281V469.849l-1.256-1.256zm1502.512 27.638-12.563 1.256-6.281 2.513-6.281 3.769v71.608l1.256 15.075 3.769 18.844 13.819 48.995 10.05 33.92 10.05 36.432h35.176l1.256-1.256V498.744l-1.256-2.513zm-1880.653 1.256L435.93 500v82.915l2.512 1.256 361.809 1.256 7.538-2.512v-85.428zm1097.99 1.257h66.583l1.256 2.512v27.638l-1.256 3.769h-66.583l-1.256-1.256V500zm16.332 3.769-12.563 1.256v23.869l1.256 1.256h57.789v-25.125l-2.513-1.256zm261.306 0v30.15l115.578 1.257 8.794 1.256 13.819 5.025 11.307 10.05 7.537 12.563 5.025 16.332 5.025 11.306 6.282 7.538 10.05 5.025h16.332l8.794-1.256h17.588l2.512 1.256 6.282 5.025 5.025 10.05v81.659l-1.256 3.769-11.307 13.819-10.05 12.562L2013.819 750l-10.05 5.025c-34.671 10.76-104.272 31.407-104.272 31.407l-52.763 16.332-10.051 8.794-1.256 5.025h7.538l25.125-7.538 167.086-50.251 81.658-25.126 59.045-17.588 66.583-20.1 48.995-15.075 6.282-3.769 5.025-8.794 5.025-10.051v-8.794l-1.256-5.025-10.051-35.176-3.768-20.1-1.257-85.427-1.256-1.256zm494.975 155.778-8.794 21.357-27.638 8.794-36.432 11.307-114.322 33.919-50.251 15.076-77.89 23.869-59.045 17.588-41.457 12.563-55.277 16.331-1.256 3.769v43.97l1.256 5.025h5.026l100.502-30.15 42.714-12.563 138.191-41.458 150.753-45.226 38.945-11.306 16.332-2.513v-5.025l-6.282-23.869-12.562-41.458zM477.387 518.844h201.005v7.538H478.643l-2.512-5.025zm1654.523 13.819h138.191l6.281 2.513 1.256 41.457-1.256 25.126-2.513 3.769-7.537 3.768-20.101 2.513-12.563 6.281-6.281 7.538-3.769 8.794-1.256 35.176-1.256 5.025-5.026 7.538-10.05 8.794-20.1 10.05-32.664 11.307-11.306-3.769-33.92-16.332-3.769-3.769V567.839l1.257-2.512 11.306-16.332 8.794-13.819zm-1654.523 2.513h201.005v7.538H478.643l-1.256-1.257zm1.256 16.332h199.749v7.537H477.387v-6.281zm1518.844 1.256h13.82l2.512 1.256 7.538 6.282 3.769 7.537v12.563l-1.257 2.513-6.281 7.537-7.538 3.769h-12.563l-2.512-1.256-8.794-7.538-3.769-10.05 2.513-11.307 5.025-6.281zM572.864 585.427l-55.276 1.256-1.256 1.257v48.995l1.256 1.256h273.869l1.257-1.256 2.512-5.025h2.513l3.769-3.769 2.512-6.282V587.94l-1.256-1.257h-66.583l-2.513 27.639-3.769 5.025-8.793 3.769h-20.101l-6.281-3.769-5.026-7.538-1.256-23.869-2.512-2.513-60.302 1.256-1.256 23.87-1.256 3.769-5.026 6.281-7.537 2.513h-18.844l-5.026-1.257-7.537-10.05-1.257-25.126zm915.829 1.256v2.513l8.794 17.588 2.513 12.563v20.1l-1.256 7.538-5.025 12.563-8.794 12.563 1.256 2.512h21.357l32.663-1.256 11.307-3.769 12.562-7.538 5.025-7.537v-13.819l-1.256-5.026-6.281-12.562-10.05-12.563-8.794-7.538-8.794-10.05-7.538-5.025zM60.302 592.965v6.281l2.512 6.282H510.05l2.513-1.257v-11.306zm750 1.256v11.307h62.814l1.256-11.307zM65.327 608.04v5.025l2.512 3.769h124.372l3.769-6.281-1.256-2.513zm131.909 0 1.256 2.513h11.307v-2.513zm13.819 0 3.769 8.794h74.121l3.769-6.281-1.257-2.513zm82.915 0v2.513h11.306l1.257-2.513zm13.819 0v2.513h2.513l1.256 6.281h26.382l2.512-2.512h17.588l1.256 2.512h77.89l1.256-8.794zm149.497 0v7.538l1.257 1.256h23.869l1.256-1.256v-6.282l-1.256-1.256zm48.995 0-1.256 1.256v6.282l1.256 1.256h6.282v-8.794zm304.021 0-1.257 1.256v6.282l1.257 1.256h61.557l1.257-5.025-1.257-3.769zm1438.442 11.307h8.794l10.05 5.025 6.281 10.05v12.563l-1.256 3.769-6.281 7.537-7.538 3.769h-11.307l-3.768-1.256-5.026-3.769-6.281-10.05v-13.819l1.256-2.513 5.025-6.281zM517.588 640.704l-1.256 1.256v56.532l1.256 1.257h10.05l5.025-5.025 8.794-23.87 6.282-15.075 8.794-10.05 2.512-5.025zm125.628 0v6.281l2.513 2.512 13.819 11.307 5.025 6.281 3.769 10.051v16.331l-3.769 1.257-21.357 10.05-5.025 6.281 3.769 6.282 32.663 1.256 2.513 1.256 42.713 64.071 36.432 54.02 16.332 23.869 27.638 41.457 6.282 2.513 32.663-11.307 60.301-21.356 12.563-6.282 1.257-5.025-10.051-18.844-21.356-35.176-64.071-106.784-11.306-17.588-11.307-12.563-5.025-10.05V641.96l-3.769-1.256zm935.93 50.251v1.256l6.281 7.538 8.794 13.819-2.512 10.05-7.538 11.307-1.256 5.025h2.512l6.282-3.769 12.562-8.794 13.819-15.075v-6.282l-1.256-1.256-10.05-7.538-12.563-3.769zm55.276 51.507-22.613 2.513-1.256 1.256 3.769 5.025 10.05 8.794 7.538 8.794 7.537 15.076 7.538 21.356 3.769 18.845v11.306l-2.513 15.076 6.282 1.256 20.1-5.025 15.075-7.538 12.563-11.307 6.282-12.562V804.02l-5.025-16.332-11.307-25.125-6.281-10.05-6.282-6.282-15.075-3.769zm-835.427 2.513 5.025 2.512-1.256 3.769c-12.159 7.093-24.313 14.195-36.432 21.357l-6.282 1.256-2.512-3.768 1.256-2.513c13.116-8.072 26.293-15.932 40.201-22.613m21.357 35.176h3.769l1.256 6.281-3.769 2.513-35.176 20.1-5.025-1.256v-5.025c13.034-7.448 26.061-14.906 38.945-22.613m21.357 36.432h5.025l1.256 5.025-3.769 2.513c-11.414 6.522-22.853 12.992-33.919 20.1h-6.282l-1.256-5.025c12.507-8.338 25.851-15.235 38.945-22.613"/></svg>