<svg xmlns="http://www.w3.org/2000/svg" width="2975.753" height="1000" viewBox="0 0 2975.753 1000"><path d="M1313.8 982.674c-56.588-16.092-57.304-16.532-60.989-37.337-2.293-12.96-4.03-15.842-4.521-7.494-.81 13.875-9.892 17.168-23.513 8.522-5.916-3.758 1.832-41.633 34.201-167.172 23.019-89.273 51.856-197.575 64.082-240.669 12.229-43.097 22.51-83.244 22.848-89.219.508-9.034 4.193-10.248 21.925-7.228 51.085 8.704 202.041 49.988 201.093 54.996-.571 3.031-2.828 13.595-5.008 23.48-3.006 13.625-2.413 15.783 2.456 8.929 9.755-13.729 8.537-2.006-8.529 82.282-15.765 77.865-89.052 339.987-99.812 356.998-7.552 11.939-9.991 22.122 33.129-138.156 43.326-161.048 70.877-276.775 67.911-285.29-1.301-3.735-4.361 2.701-6.803 14.301-11.164 53.084-114.258 431.619-118.975 436.86-9.954 11.055-26.221-5.735-24.226-25.004l1.839-17.789-70.463-19.722c-38.758-10.848-74.169-21.144-78.694-22.881-4.524-1.737-8.224-.513-8.224 2.722 0 3.231 16.95 10.528 37.672 16.216 108.985 29.909 101.837 26.507 99.794 47.48-1.101 11.331-5.502 19.508-10.891 20.239-4.972.672-34.809-6.106-66.302-15.064m116.188-84.007c5.32-19.065 7.802-36.509 5.513-38.773-2.29-2.261-39.427-12.291-82.521-22.292-94.816-22.005-92.526-23.092-95.939 45.547-.392 7.915 15.151 14.286 71.826 29.447 39.783 10.641 76.634 19.658 81.889 20.036 6.694.483 12.45-9.686 19.232-33.965m-52.899 10.553c-9.947-2.787-38.817-9.561-64.161-15.056l-46.078-9.987 3.209-25.156c1.762-13.831 3.885-25.977 4.713-26.987 1.516-1.842 143.121 28.834 146.112 31.657.88.829-.596 12.077-3.278 24.993-5.244 25.232-11.833 28.575-40.517 20.536m79.007-131.106c5.516-19.061 11.2-37.77 12.632-41.571 1.486-3.958-9.827-10.877-26.435-16.172-43.377-13.828-121.418-34.176-131.081-34.176-5.535 0-11.695 14.079-17.716 40.485-5.081 22.263-8.083 41.636-6.669 43.046 3.056 3.057 141.264 41.746 151.875 42.513 4.053.294 11.877-15.064 17.394-34.125m-45.856 10.866c-22.627-7.148-79.258-22.739-97.105-26.736-15.536-3.482-15.653-3.896-9.038-33.26 3.685-16.354 8.3-31.341 10.259-33.3 3.154-3.151 125.691 30.371 131.222 35.898 3.522 3.518-12.043 63.155-16.35 62.631-2.155-.261-10.699-2.616-18.988-5.233m86.962-148.899c5.538-22.048 7.9-42.207 5.255-44.798-6.462-6.313-133.963-41.601-150.502-41.652-10.303-.032-15.027 6.033-22.281 28.59-17.233 53.608-21.456 48.818 65.498 74.312 43.094 12.632 81.417 23.12 85.16 23.302 3.739.182 11.331-17.705 16.87-39.754m-99.017.164c-31.494-8.094-60.531-15.853-64.528-17.245-5.48-1.904-4.895-9.645 2.38-31.446 5.306-15.907 10.267-29.709 11.019-30.669 2.035-2.58 131.8 29.92 136.648 34.227 2.283 2.024 1.385 16.568-1.995 32.315-7.192 33.525-4.539 33.114-83.524 12.818M1521.02 525.14l3.827-25.436-34.699-9.754c-19.087-5.36-53.528-15.205-76.539-21.874-40.093-11.619-42.164-11.673-49.727-1.33-4.339 5.934-7.89 19.37-7.89 29.858 0 18.513 1.265 19.421 43.701 31.417 88.1 24.909 110.079 29.993 113.75 26.312 2.064-2.064 5.473-15.202 7.577-29.193m-92.112-5.285c-34.488-7.875-63.405-15.034-64.263-15.91-4.092-4.168 5.481-34.212 11.561-36.294 3.801-1.301 35.673 6.763 70.822 17.92 60.64 19.246 63.769 21.045 61.08 35.109-3.322 17.375.694 17.415-79.2-.825m-210.934 369.497c-1.199-21.114 87.387-353.997 106.997-402.066 10.452-25.621 7.523-3.263-4.851 37.04-6.473 21.067-29.495 106.114-51.166 188.991-46.303 177.082-50.162 190.408-50.98 176.035M2155.676 701.8c-2.195-5.72 15.151-20.649 52.972-45.587 57.82-38.126 68.435-52.714 55.625-76.43-3.307-6.12-26.355-33.685-51.224-61.258l-45.213-50.129 13.007-13.007 13.007-13.007 50.94 50.675c55.948 55.661 65.31 71.611 62.449 106.427-1.842 22.401-4.539 25.079-67.697 67.076-68.115 45.296-78.356 49.599-83.866 35.24m-1.039-51.263c0-29.139.502-29.928 30.138-47.626 16.576-9.896 36.916-19.25 45.206-20.784l15.067-2.784-14.348-.821c-7.89-.451-32.675 9.078-55.079 21.18-36.702 19.821-60.287 23.68-60.098 9.83.047-2.587 20.376-16.285 45.205-30.436 44.94-25.614 52.655-35.876 36.829-49.01-6.469-5.372-19.214-1.309-57.493 18.316-33.812 17.335-51.125 23.273-55.403 18.996s8.039-14.05 39.413-31.269c25.097-13.773 45.63-27.616 45.63-30.759s-8.111-9.914-18.029-15.042c-20.46-10.579-42.647-7.319-67.286 9.896-18.102 12.643-29.906 14.093-39.191 4.808-4.47-4.47-11.819-1.781-24.676 9.042-18.091 15.219-19.57 15.405-122.21 15.405h-103.897l-25.432-25.614c-13.984-14.09-26.511-28.881-27.838-32.867-1.323-3.987-18.414-11.404-37.977-16.481-41.48-10.768-38.039-8.446-40.692-27.504l-2.097-15.067 58.223-1.719 58.223-1.719-3.249 24.236c-2.678 19.974-.41 27.955 12.909 45.417l16.154 21.183h95.201c110.456 0 115.148-2.042 115.148-50.1 0-27.584-.501-28.307-29.934-43.225-29.561-14.977-31.803-15.169-177.25-15.169-146.627 0-147.293-.058-144-12.643 3.176-12.149 5.662-12.477 63.235-8.355l59.927 4.288 20.359-19.73c19.726-19.119 22.55-19.901 91.406-25.327 62.591-4.935 72.887-7.33 86.45-20.136 13.893-13.116 20.675-14.548 69.318-14.632 29.655-.05 56.787-2.082 60.294-4.517 19.563-13.588 26.773-35.538 26.773-81.518 0-41.716-1.857-49.715-15.783-67.973L2108 119.614h27.492c29.63 0 66.426 17.52 76.561 36.454 3.227 6.033 5.87 39.602 5.87 74.595v63.627l-38.174 17.31c-41.349 18.748-66.429 46.012-63.202 68.711 1.349 9.518 11.27 18.112 33.308 28.862 40.724 19.868 42.752 22.372 27.02 33.391-21.682 15.184-15.642 31.221 31.264 83.019 53.314 58.877 61.679 81.841 35.793 98.246-9.332 5.913-31.09 21.009-48.352 33.547-17.266 12.534-33.54 22.794-36.168 22.794-2.627 0-4.775-13.334-4.775-29.633m-81.373-295.854c0-11.354-4.019-12.055-69.314-12.055-65.299 0-69.318.701-69.318 12.055 0 11.356 4.019 12.058 69.318 12.058 65.295 0 69.314-.702 69.314-12.058m40.402 228.872c-2.635-10.081 3.176-15.449 33.074-30.541 32.824-16.569 58.964-19.81 50.595-6.273-2.918 4.724-73.941 49.043-78.593 49.043-1.035 0-3.318-5.506-5.076-12.229m-28.347-47.691c0-6.432-2.911-13.497-6.469-15.696-9.808-6.065 13.348-19.872 40.365-24.065 16.346-2.541 26.987-.844 35.422 5.64 6.629 5.102 8.784 9.358 4.786 9.463-3.997.106-21.071 8.33-37.937 18.276-36.272 21.387-36.167 21.366-36.167 6.382m779.082-16.823c-17.688-1.591-27.547-5.96-31.923-14.14-8.34-15.583-1.039-27.707 8.682-14.413 6.455 8.827 8.123 8.922 14.824.847 6.164-7.429 5.724-10.125-2.387-14.664-8.424-4.714-5.637-9.238 18.283-29.688l28.223-24.123 3.376-97.378c3.162-91.083 4.132-97.374 15.038-97.374 6.724 0 10.532-3.191 8.999-7.537-1.465-4.143-6.858-7.199-11.986-6.792-6.581.527-10.495-7.025-13.283-25.614-8.238-54.923-12.258-22.099-12.258 100.067 0 125.059-.16 126.538-14.271 140.122l-14.275 13.73 3.823-126.578c2.369-78.403 1.53-134.453-2.199-147.274-3.311-11.383-5.131-21.587-4.041-22.678 1.09-1.09 20.708.088 43.595 2.613l41.619 4.598-2.275 174.796c-1.254 96.138-4.739 179.542-7.748 185.346-5.546 10.688-12.509 11.299-69.816 6.134m-59.052-12.843c-20.834-12.705-38.892-37.421-38.987-53.357-.091-14.115-79.973-153.263-92.548-161.197-7.526-4.746-11.985-2.9-19.733 8.159-9.863 14.082-11.03 14.231-80.145 10.19-38.573-2.257-72.2-2.039-74.722.484-6.774 6.774-161.491 6.661-177.314-.128-9.282-3.983-13.563-10.96-13.563-22.099 0-14.122-1.999-15.896-15.104-13.392-8.307 1.588-18.897-.262-23.531-4.11-4.851-4.023-15.187-5.299-24.331-3.006l-15.903 3.991 1.763-50.377c1.457-41.637 3.529-50.715 11.949-52.321 8.021-1.534 10.674 3.572 12.505 24.043l2.326 25.988 1.054-25.13c1.043-24.865 1.352-25.192 29.593-31.214 31.919-6.807 37.515-3.136 37.672 24.698.091 14.944-1.988 16.575-21.006 16.575-11.604 0-21.096 2.715-21.096 6.03 0 3.314 12.258 6.029 27.238 6.029 26.046 0 27.075-.662 23.459-15.071-4.725-18.818-1.323-18.818 26.365 0 15.199 10.328 30.371 15.071 48.222 15.071 17.848 0 33.02 4.739 48.218 15.067 17.804 12.098 29.601 15.067 59.819 15.067 33.496 0 38.725-1.657 47.513-15.067 8.667-13.232 14.173-15.067 45.133-15.067 29.4 0 36.359 2.057 41.887 12.381 5.357 10.009 11.462 12.029 31.857 10.547 22.692-1.65 27.198-4.779 44.817-31.145 12.476-18.669 19.591-36.727 19.591-49.727v-20.416h88.772l9.863 25.817c5.423 14.202 9.86 41.324 9.86 60.276v34.456h-271.24c-176.806 0-271.236 2.1-271.236 6.029s94.329 6.029 270.927 6.029h270.927l1.818 87.405c.999 48.077.312 87.406-1.52 87.398-1.835-.003-19.159-33.914-38.496-75.351l-35.164-75.343-39.86 1.014-39.86 1.01 35.855 3.511 35.851 3.507 31 63.289c40.691 83.07 42.461 91.028 24.094 108.287-13.708 12.876-14.028 14.609-5.215 28.059 11.281 17.219 5.328 18.171-19.374 3.111m33.409-347.408c0-7.174-8.707-9.042-42.192-9.042-33.489 0-42.193 1.868-42.193 9.042 0 7.178 8.704 9.042 42.193 9.042 33.485 0 42.192-1.864 42.192-9.042m105.05 349.596c4.811-18.004 15.06-331.887 11.305-346.242-4.535-17.346 8.977-15.692 17.081 2.09 4.786 10.51 4.75 38.475-.138 101.844-3.703 48.047-6.731 118.532-6.731 156.629 0 61.228-1.439 70.928-12.374 83.502-11.048 12.705-12.029 12.938-9.151 2.177Zm-1479.321-54.883c-127.101-32.032-121.16-29.942-116.868-41.128 2.94-7.661 26.279-9.329 150.593-10.775l147.111-1.708-.007 23.287c-.004 22.518-.611 23.197-18.345 20.595-14.999-2.202-21.558.971-35.982 17.397-9.7 11.051-18.4 19.824-19.331 19.501-.93-.324-49.155-12.549-107.171-27.169m474.539-4.121c4.332-38.439-2.421-41.55-85.338-39.315-38.373 1.032-69.761-.152-69.754-2.642.003-2.486 37.893-4.521 84.193-4.521 99.954 0 124.234 7.429 130.321 39.871 5.139 27.398-.055 32.46-33.293 32.46h-29.044Zm-962.764 6.581c-13.094-3.805-89.971-5.218-202.616-3.725L592.13 454.64l38.73-19.842 38.729-19.839H958.36l32.042 18.083c28.907 16.314 37.294 18.091 85.8 18.175 36.937.065 50.929 1.919 44.718 5.935-11.76 7.599-117.398 6.73-144.658-1.189m-494.258-16.895c-10.045-10.045-12.054-20.09-12.054-60.273 0-26.522 1.708-48.222 3.79-48.222 2.086 0 14.301 9.493 27.144 21.097l23.349 21.096h175.178c113.957 0 179.426-2.275 187.345-6.512 6.69-3.584 16.041-15.787 20.78-27.122 10.06-24.084 26.533-27.776 26.533-5.953 0 9.3 6.396 19.214 17.506 27.122 15.776 11.233 26.202 12.465 105.482 12.465h87.972v66.302l-61.781-.102c-57.601-.098-63.819-1.312-91.919-17.978l-30.138-17.877-149.313-.101-149.314-.102-47.953 24.109c-40.077 20.151-53.913 24.109-84.251 24.109-28.262 0-38.969-2.667-48.356-12.054Zm700.697-4.274-31.643-2.384v-47.589h156.716v15.071c0 9.946-3.361 15.067-9.885 15.067-5.436 0-12.894 3.827-16.575 8.5-7.643 9.707-52.183 14.828-98.613 11.335M430.85 410.482c-33.693-3.435-39.257-10.165-39.257-47.495v-32.414h66.302v42.193c0 23.208-.676 41.739-1.504 41.179-.829-.556-12.324-2.115-25.541-3.463m-281.125-24.669c-3.191-8.388-8.228-34.423-11.193-57.849l-5.393-42.596 1.57 52.739c1.203 40.474-.284 52.743-6.393 52.743-4.375 0-7.959-2.715-7.959-6.029 0-3.562-21.699-6.026-53.044-6.026-33.216 0-55.745-2.704-60.273-7.235-9.387-9.384-9.387-66.56 0-75.944 4.456-4.455 26.308-7.235 56.904-7.235 27.322 0 51.351-2.711 53.401-6.026 2.078-3.365 30.199-6.029 63.641-6.029h59.92v39.373c0 21.656 4.071 49.108 9.042 61.01 11.291 27.024 11.266 27.507-1.239 25.098-6.447-1.239-14.297-14.341-21.035-35.099-9.899-30.498-10.837-16.884-1.424 20.628l4.012 15.975-37.37-1.119c-33.958-1.021-37.894-2.515-43.167-16.379m25.352-79.77c10.201-6.454 35.364-7.396 26.649-.992-3.314 2.435-6.025 9.852-6.025 16.481 0 8.591-3.863 11.923-13.436 11.589-10.502-.363-11.985 1.283-6.796 7.537 8.661 10.434 14.265 10.089 25.959-1.606 13.563-13.559 8.875-41.113-7.403-43.516-25.838-3.812-37.57 8.882-36.748 39.769l.752 28.419 4.241-26.129c2.333-14.37 8.093-28.568 12.807-31.552m81.463 62.635c-5.284-15.507-9.565-39.242-9.514-52.739.098-25.469 8.206-45.38 15.507-38.079 3.409 3.409 7.861 119.015 4.583 119.015-.531 0-5.291-12.687-10.576-28.197m20.53-35.092v-57.26h41.775c38.529 0 41.974-1.054 44.384-13.562 1.439-7.458 2.983 1.704 3.434 20.358.531 21.969 4.008 36.567 9.863 41.426 5.775 4.794 9.038 18.124 9.038 36.901v29.401H277.07Zm1084.952 48.222c0-7.708 16.324-9.042 110.769-9.042 91.109 0 112.103 1.606 118.274 9.042 6.625 7.984-6.324 9.042-110.769 9.042-101.118 0-118.274-1.312-118.274-9.042m250.546-12.055-16.088-21.096h-229.712l-23.47 18.589-23.469 18.589v-97.454h331.512v44.002c0 40.002-5.865 58.467-18.574 58.467-2.257 0-11.346-9.493-20.199-21.097m-559.458-7.522c47.241-1.018 124.543-1.018 171.783 0 47.241 1.021 8.592 1.853-85.889 1.853-94.482 0-133.135-.832-85.894-1.853M507.621 350.62c-7.457-5.205-13.559-11.844-13.559-14.755 0-2.907 70.361-5.292 156.357-5.292 97.737 0 157.755-2.26 160.085-6.025 2.05-3.318 23.909-6.029 48.578-6.029 49.057 0 56.286 6.643 32.795 30.138-11.532 11.528-19.868 12.04-191.376 11.738-152.791-.268-181.323-1.715-192.88-9.775m1155.775-26.072c0-26.995 1.413-30.225 13.559-30.956 7.461-.45 46.11-2.486 85.893-4.521l72.331-3.703v-42.193h-156.716l2.057-38.46c1.69-31.643-.178-41.488-10.55-55.512-6.93-9.376-12.603-19.872-12.603-23.32 0-4.227 71.549-6.269 219.696-6.269h219.696l15.377 20.155c12.781 16.757 15.376 26.675 15.383 58.768l.007 38.613-97.955-1.846c-80.508-1.512-100.103-.207-110.01 7.344-10.942 8.337-2.191 9.202 94.932 9.377 67.181.12 106.99 2.434 106.99 6.218 0 3.318-5.423 6.029-12.055 6.029-6.698 0-12.054 4.019-12.054 9.042 0 7.355-9.965 9.041-53.514 9.041-46.64 0-54.574 1.541-61.78 12-7.003 10.162-19.81 13.058-83.612 18.916-68.406 6.284-77.368 8.508-97.308 24.167-18.52 14.541-27.536 17.245-57.5 17.245-34.39 0-35.528-.509-35.295-15.809.331-22.074-17.241-32.584-31.178-18.647-8.765 8.766-9.285 12.556-3.074 22.499 6.207 9.94 5.935 11.957-1.625 11.957-6.894 0-9.092-7.291-9.092-30.135m259.181-123.565c0-17.601-3.656-28.561-12.054-36.164-11.957-10.822-12.055-10.528-12.055 36.164s.098 46.986 12.055 36.167c8.398-7.606 12.054-18.567 12.054-36.167m-52.423.083c.655-3.27-3.557-6.857-9.358-7.977-6.599-1.272-10.549 1.687-10.549 7.894 0 10.488 17.814 10.561 19.907.083m229.178-7.061c5.448-5.451-8.06-20.809-14.696-16.71-8.312 5.139-6.287 20.675 2.693 20.675 4.419 0 9.819-1.784 12.003-3.965m-381.689-11.106c0-5.022-5.36-9.038-12.055-9.038-6.697 0-12.058 4.016-12.058 9.038 0 5.026 5.361 9.042 12.058 9.042 6.695 0 12.055-4.016 12.055-9.042m44.017.084c.654-3.267-3.558-6.858-9.362-7.977-6.596-1.269-10.546 1.686-10.546 7.897 0 10.484 17.815 10.557 19.908.08M949.136 342.628c-2.453-3.965 58.205-6.025 177.457-6.025 116.769 0 181.181 2.14 181.181 6.025s-63.172 6.029-177.456 6.029c-111.802 0-178.834-2.231-181.182-6.029m350.033-17.371c-1.81-2.926-110.465-7.33-241.455-9.787l-238.168-4.466v-52.761h488.228v36.167c0 35.193-1.842 41.789-8.605 30.843Zm-919.63-102.822c0-57.652 2.329-91.494 6.472-94.056 4.481-2.769 5.869 12.829 4.521 50.704l-1.951 54.702 63.289 1.682 63.289 1.683 1.791 37.672 1.796 37.672H379.539Zm53.8 66.782c7.843-14.653-5.048-33.119-20.98-30.051-12.16 2.344-18.076 17.854-12.422 32.584 4.75 12.385 26.294 10.75 33.402-2.533m75.042-2.228c5.055-8.028 4.27-12.738-3.405-20.413-18.058-18.058-44.998 5.542-28.721 25.156 9.372 11.291 23.324 9.234 32.126-4.743m27.874-13.864c0-30.535 2.162-40.198 9.649-43.069 14.202-5.451 20.289 8.809 20.395 47.778.091 32.977-.64 34.66-14.977 34.66-14.536 0-15.067-1.396-15.067-39.369m55.465 1.697c1.719-36.106 2.485-37.752 18.37-39.58l16.576-1.908v79.16h-36.742Zm66.301.062c1.44-30.171 3.882-38.01 12.346-39.62 9.18-1.752 10.546 3.129 10.546 37.61 0 35.909-1.156 39.62-12.342 39.62-11.313 0-12.192-3.14-10.55-37.61m59.056 5.665c0-17.571 3.256-35.2 7.235-39.18 3.976-3.976 21.609-7.232 39.177-7.232h31.948v78.357h-78.36Zm65.146.818c1.384-11.967-1.374-17.084-10.837-20.086-22.518-7.149-38.886 16.005-22.732 32.155 12.611 12.61 31.501 5.822 33.569-12.069m541.622-3.027c-2.21-2.21-4.016-7.679-4.016-12.153 0-6.665 29.607-7.846 164.166-6.531 150.822 1.476 164.337 2.461 166.198 12.153 1.893 9.834-8.937 10.546-160.151 10.546-89.197 0-163.988-1.806-166.197-4.015M142.457 266.281c-2.21-2.209-4.02-7.635-4.02-12.054 0-6.211 15.071-8.039 66.306-8.039 62.282 0 66.301.731 66.301 12.055 0 14.496-9.361 15.805-16.884 2.355-4.99-8.915-5.731-8.915-9.154 0-2.984 7.78-13.116 9.703-51.126 9.703-26.071 0-49.214-1.81-51.423-4.02m1414.032-18.574-103.893-1.802-9.278-17.939-9.278-17.941-117.38-.905c-64.561-.498-120.774-1.174-124.917-1.505-4.489-.36-7.534 6.709-7.534 17.477v18.083l-55.755 1.734c-30.666.952-55.752.214-55.752-1.643 0-1.853 10.877-25.01 24.174-51.46l24.178-48.083h195.471c115.276 0 196.907 2.318 198.967 5.655 1.923 3.114 9.544 4.012 16.932 2.002 7.388-2.013 36.047-4.764 63.689-6.116 67.192-3.286 73.308 1.944 73.308 62.682 0 24.349-2.035 43.661-4.521 42.916s-51.271-2.166-108.411-3.155m-351.184-82.888c0-5.022-5.356-9.042-12.054-9.042s-12.055 4.02-12.055 9.042 5.357 9.042 12.055 9.042 12.054-4.019 12.054-9.042M845.112 234.37c-7.381-11.96-12.843-12.291-203.43-12.291-152.686 0-195.827-1.661-195.783-7.534.032-4.143 13.81-25.842 30.618-48.221l30.559-40.685 31.163-.189c28.612-.178 30.215-.912 19.552-8.98-6.389-4.833-9.409-10.851-6.712-13.37 2.7-2.522 6.12-1.192 7.599 2.951 1.991 5.575 26.257 7.534 93.253 7.534h90.563l-3.779 15.067-3.784 15.071h208.987l-24.585 49.726c-23.219 46.957-25.759 49.825-45.613 51.467-15.848 1.312-22.891-1.283-28.608-10.546m-286.256-69.54c16.321-25.196 16.535-27.136 3.013-27.136-9.122 0-43.698 35.513-43.698 44.885 0 1.836 6.102 3.304 13.563 3.26 8.809-.047 18.313-7.406 27.122-21.009m140.232 2.875c24.734-34.736 4.361-42.945-21.722-8.751-17.517 22.964-28.045 24.614-12.138 1.9 21.576-30.799-.643-32.555-24.025-1.9-17.517 22.964-28.045 24.614-12.139 1.9 18.371-26.228 5.826-32.278-20.093-9.688-8.5 7.41-12.065 9.579-7.922 4.822 10.539-12.098 9.39-18.294-3.387-18.294-9.489 0-24.502 15.419-39.442 40.517-3.354 5.629 11.284 7.236 62.257 6.829 65.782-.524 66.8-.749 78.611-17.335m271.265 30.748c19.781-40.052 36.043-63.852 36.043-52.739 0 8.722-49.264 100.474-53.949 100.474-3.114 0 4.943-21.478 17.906-47.735m-781.499 32.708c-2.086-5.441-.905-12.782 2.628-16.314 9.183-9.183 26.584-.792 24.185 11.666-2.675 13.875-21.987 17.222-26.813 4.648m-72.026-5.237c-1.733-4.514-2.325-24.153-1.319-43.639 1.378-26.591 4.22-35.884 11.393-37.25 7.985-1.516 9.278 3.928 7.865 33.092l-1.69 34.91 6.222-37.672c3.419-20.718 8.493-37.671 11.269-37.671 2.78 0 4.95 17.665 4.826 39.252-.131 22.612 2.929 43.054 7.214 48.218 6.389 7.698 3.889 8.97-17.593 8.97-15.565 0-26.228-3.104-28.187-8.21m105.995-30.476c0-38.533 3.754-57.754 11.273-57.754 2.177 0 3.954 21.699 3.954 48.221 0 34.827-2.115 48.219-7.614 48.219-5.342 0-7.613-11.539-7.613-38.686m24.868 19.097c-6.025-19.028-1.09-66.472 7.846-75.409 8.588-8.587 15.326 15.148 15.413 54.313.073 31.203-1.904 40.685-8.479 40.685-4.717 0-11.367-8.813-14.78-19.589m29.379-25.617v-45.205h90.414v90.411H277.07Zm2183.052 30.138c-13.828-11.636-24.709-15.071-47.775-15.071-23.64 0-35.092-3.779-54.887-18.12-22.935-16.611-25.014-20.369-25.014-45.205v-27.085l64.797-.204c35.637-.116 126.495 7.345 201.904 16.576l137.106 16.778.018 16.997c.015 9.348-8.249 29.016-18.352 43.701-22.103 32.123-47.288 37.098-58.888 11.633-6.302-13.824-10.107-15.067-46.038-15.067-35.128 0-40.187 1.552-49.04 15.067-8.805 13.439-13.991 15.071-47.898 15.071-31.763 0-40.972-2.482-55.93-15.071ZM166.413 208.763c-5.062-18.901-4.637-54.527.749-62.802 2.435-3.739 16.015-7.886 30.178-9.212 19.901-1.865 25.036-.549 22.601 5.789-1.73 4.506-3.144 20.231-3.144 34.943 0 25.181-.843 26.536-14.391 23.135-10.492-2.635-16.812-.149-23.342 9.172l-8.955 12.782Zm237.235-34.902v-48.222h45.205c24.865 0 45.209 1.399 45.209 3.107 0 8.134-75.067 93.333-82.234 93.333-6.207 0-8.18-11.633-8.18-48.218m352.104-46.714c2.482-2.485 96.966-5.876 209.964-7.533 156.007-2.29 206.05-4.816 207.936-10.496 1.951-5.876-63.831-7.813-306.826-9.042-286.023-1.442-309.464-2.333-311.292-11.843-1.813-9.42 8.032-10.26 117.453-9.991 65.691.164 205.552.044 310.809-.265l191.371-.556V62.35c0-13.839 2.21-15.067 27.126-15.067 14.918 0 27.121 2.711 27.121 6.025 0 7.843 22.281 7.843 27.126 0 4.841-7.828 39.176-7.864 39.176-.036 0 5.855 12.029 5.24 30.138-1.537 22.405-8.381 37.08-9.082 39.838-1.897 2.275 5.927 9.914 6.269 33.947 1.519 21.372-4.227 31.661-4.183 33.103.141 1.432 4.296 10.936 4.387 30.12.298 19.814-4.226 31.207-3.997 38.857.782 13.428 8.384 29.07 8.78 29.07.73 0-3.314 10.67-6.025 23.709-6.025 21.056 0 23.924 1.762 25.617 15.739 1.865 15.384 2.897 15.733 45.609 15.388 120.226-.978 109.999.468 109.999-15.551 0-13.127 5.786-16.39 58.768-33.166 67.647-21.416 114.978-24.345 129.722-8.027 5.24 5.8 10.408 21.398 11.48 34.659l1.952 24.109 55.566 3.012c42.011 2.279 58.132 5.59 66.087 13.563 10.02 10.045-9.801 10.547-416.065 10.547-282.854 0-425.328 2.031-422.86 6.029 2.369 3.834 80.547 6.029 214.688 6.029 139.109 0 209.695 2.053 207.238 6.025-2.431 3.932-158.119 6.029-447.395 6.029-244.019 0-441.638-2.035-439.152-4.521m1151.326-71.255c11.894-11.891 11.894-17.378.011-29.262-7.142-7.141-12.313-7.934-21.097-3.235-13.119 7.022-15.256 23.884-4.401 34.736 9.533 9.532 14.119 9.129 25.487-2.239m-26.693-14.638q0-12.054 12.054-12.055 12.054.001 12.055 12.055c0 8.039-4.02 12.054-12.055 12.054s-12.054-4.015-12.054-12.054M407.656 100.483c-4.575-17.494.516-24.352 14.737-19.838 9.165 2.907 13.105-.306 18.164-14.824 3.554-10.198 9.121-18.538 12.374-18.538 3.249 0 5.019-10.172 3.928-22.605-1.948-22.284-1.65-22.63 21.315-24.512 25.493-2.093 52.052 15.958 52.052 35.378 0 5.648 6.102 14.526 13.563 19.727 11.386 7.944 11.869 9.514 3.012 9.779-8.235.247-10.546 5.601-10.546 24.426v24.109h-62.588c-59.182 0-62.773-.713-66.011-13.102"/></svg>