<svg xmlns="http://www.w3.org/2000/svg" width="4044.67" height="1000" viewBox="0 0 4044.67 1000"><path d="M2138.474 996.133c-3.053-3.057-12.175-20.523-20.268-38.817-13.424-30.353-14.711-51.354-14.711-240.102V510.375l-63.525-29.346c-34.939-16.143-90.066-36.942-122.501-46.22-57.856-16.55-68.268-16.92-547.099-19.475l-488.12-2.602v-36.444c0-20.042-2.21-47.491-4.914-60.999l-4.909-24.556-140.207 2.518c-77.113 1.388-217.629 1.839-312.259 1.003-159.333-1.41-171.871-2.497-169.545-14.715 2.09-10.96 13.341-13.828 66.516-16.96 50.181-2.955 64.006-6.211 64.016-15.078.015-9.947 46.732-10.914 388.235-8.043 1217.408 10.234 1311.697 10.045 1311.697-2.62 0-10.463 16.768-11.953 134.744-11.953 137.96 0 189.627 8.311 208.688 33.573 5.437 7.206 30.557 11.742 79.153 14.296 39.154 2.057 85.21 6.015 102.345 8.799 19.698 3.198 33.031 2.024 36.255-3.191 3.183-5.15 35.851-8.246 87.035-8.246 62.784 0 84.585-2.642 93.249-11.306 14.671-14.671 49.759-14.46 71.015.425 9.216 6.458 16.754 9.565 16.754 6.909 0-2.657 13.21 5.629 29.357 18.418 16.143 12.785 33.107 23.248 37.693 23.248 4.583 0 8.337 4.946 8.337 10.989s14.715 19.614 32.7 30.157c29.492 17.28 40.59 19.163 113.077 19.163h80.381v-34.55c0-43.16 16.903-42.248 22.954 1.239 2.958 21.26 17.756 46.942 52.771 91.606l48.658 62.065 288.128.127 288.128.127-1.664 81.042c-1.479 72.051-3.416 82.46-17.47 93.871-13.166 10.688-16.63 24.436-20.74 82.303-2.711 38.21-6.578 71.117-8.591 73.13-2.013 2.014-96.146-29.484-209.187-69.997-113.037-40.514-212.748-73.683-221.575-73.712-12.265-.044-18.24-7.392-25.33-31.152-11.252-37.709-60.709-87.638-86.813-87.638-10.038 0-35.463 6.785-56.501 15.078s-42.865 15.078-48.505 15.078-30.731-31.61-55.755-70.241l-45.504-70.238-45.856-12.752-45.856-12.749-38.17 19.341c-20.991 10.637-41.44 18.251-45.438 16.917-3.997-1.33-20.071-26.119-35.716-55.083-23.07-42.705-32.275-53.11-48.691-55.047-16.935-1.999-19.534-5.208-15.91-19.646 7.759-30.912-33.275-55.283-55.56-32.998-12.497 12.498-11.335 39.979 2.163 51.18 6.756 5.607 19.257 7.283 31.472 4.219 17.756-4.456 19.05-3.631 10.481 6.698-8.275 9.972-33.18 11.782-162.132 11.782h-152.355l-29.531 65.96-29.535 65.964-3.769 222.386c-3.507 206.98-4.841 224.217-19.261 248.773l-15.489 26.384-135.743 2.05c-74.661 1.127-138.244-.451-141.297-3.507Zm150.28-43.349c2.544-10.128 2.41-22.005-.301-26.384-2.922-4.732-35.35-7.966-79.865-7.966-80.163 0-86.072 3.365-63.205 36.015 10.55 15.056 18.163 16.753 75.241 16.753 61.062 0 63.686-.708 68.13-18.418m82.176-25.526 56.399 2.482 4.285-30.153c2.358-16.586 3.278-111.572 2.046-211.08l-2.239-180.927-42.407-2.231c-35.121-1.85-43.29.094-47.561 11.309-4.135 10.855-3.278 11.673 4.336 4.118 5.222-5.186 24.08-9.424 41.909-9.424h32.417v392.004h-32.417c-17.829 0-36.985-4.241-42.57-9.424-8.265-7.664-9.351-7.119-5.833 2.937 3.194 9.136-1.436 13.515-17.739 16.775-18.192 3.638-21.976 8.079-21.579 25.33.468 20.544.603 20.606 7.515 3.362 6.629-16.535 10.321-17.415 63.438-15.078m-229.741-219.904c0-169.2-1.548-196.002-11.31-196.002-9.761 0-11.306 26.802-11.306 196.002 0 169.196 1.545 196.002 11.306 196.002 9.762 0 11.31-26.806 11.31-196.002m180.923 109.599c0-9.666-12.559-11.6-75.383-11.6h-75.388v37.694c0 20.729 2.57 37.693 5.71 37.693s4.492-15.267 3.009-33.925l-2.697-33.921h64.837c73.327 0 79.338 5.902 42.219 41.462-12.436 11.917-22.529 25.272-22.427 29.677.298 12.629 60.12-54.12 60.12-67.08m20.711-197.753c-1.315-48.952-2.394-10.979-2.402 84.385-.003 95.361 1.072 135.413 2.392 89.001 1.322-46.412 1.326-124.434.007-173.386Zm-28.248 155.662c9.369-6.334 5.589-12.828-22.081-37.911-31.614-28.663-35.615-30.153-75.384-28.049-41.607 2.199-42.022 2.457-44.417 27.438-4.204 43.912-.527 46.409 68.145 46.281 34.335-.058 67.515-3.554 73.737-7.759m-135.696-29.818c0-22.532.156-22.615 43.821-22.615 38.849 0 46.281 2.565 65.487 22.615l21.671 22.619h-130.979Zm1664.363-92.497c1.781-81.111.291-96.967-9.521-100.728-26.599-10.209-34.053 10.702-34.053 95.531 0 93.791 3.224 106.921 25.461 103.749 15.224-2.174 16.104-6.949 18.113-98.552m-82.775 68.377c12.007-12.007 12.007-113.135 0-125.143-6.356-6.356-48.916-9.045-143.23-9.045h-134.188v21.405c0 22.474 22.55 38.904 53.389 38.904 8.242 0 22.725 5.07 32.184 11.266 15.111 9.899 18.963 9.928 31.774.24 22.466-16.994 32.424-13.708 39.343 12.996 5.375 20.754 9.925 24.614 29.75 25.253 12.876.415 34.71 7.988 48.523 16.834 29.499 18.887 30.658 19.087 42.455 7.29m-34.917-11.339-16.343-13.54 24.498-37.44 24.501-37.443 2.319 40.507c2.922 51.042-9.94 68.664-34.975 47.916m-72.531-23.24c-6.08-6.08-4.79-64.281 1.646-74.344 7.723-12.069 88.979-21.551 95.419-11.132 2.755 4.456-6.8 25.636-21.231 47.063-20.878 31.006-30.876 39.321-48.974 40.746-12.509.985-24.596-.065-26.864-2.333Zm-89.648-45.547c-6.861-7.585-12.476-19.457-12.476-26.384 0-10.463 8.195-12.6 48.294-12.6 44.584 0 47.993 1.159 44.355 15.075-2.169 8.293-9.917 15.078-17.218 15.078s-17.499 5.088-22.659 11.309c-12.484 15.042-25.145 14.264-40.296-2.478m-63.362-13.825c-5.182-2.089-9.42-10.517-9.42-18.726 0-12.298 4.311-14.512 24.498-12.564 18.778 1.81 25.065 6.324 26.911 19.323 1.923 13.534-1.123 16.841-15.078 16.365-9.616-.327-21.725-2.304-26.911-4.398M2258.202 661.16c18.567-17.11 33.758-34.074 33.758-37.69 0-3.62-27.14-6.581-60.31-6.581h-60.309v75.387h26.555c20.635 0 34.071-6.93 60.306-31.116m-79.323-6.578V624.43l54.654.189 54.654.189-31.744 29.963c-22.663 21.391-38.304 29.968-54.655 29.968-21.699 0-22.909-1.592-22.909-30.153Zm113.081-70.913c0-5.833-16.852-24.713-37.447-41.957-30.095-25.199-42.305-30.887-62.195-28.971-24.186 2.325-24.796 3.274-27.024 41.956l-2.278 39.576h64.47c50.388 0 64.474-2.315 64.474-10.604m-113.081-27.086c0-28.564 1.21-30.156 22.909-30.156 16.351 0 31.992 8.576 54.655 29.967l31.744 29.964-54.654.189-54.654.189Zm1047.859 11.306c0-6.218-5.088-11.306-11.306-11.306-11.775 0-14.959 8.915-6.284 17.59 8.675 8.674 17.59 5.487 17.59-6.284m523.931-37.694c0-14.22-5.731-15.194-101.168-17.189-102.03-2.13-119.764 1.773-111.068 24.436 3.972 10.354 19.083 11.735 108.426 9.932 98.082-1.984 103.81-2.933 103.81-17.179M2479.548 413.35l28.419-64.078 122.181-2.072 122.178-2.075 7.442-19.573c11.593-30.495-2.18-40.358-56.373-40.358-25.614 0-50.035 3.463-54.265 7.694-5.026 5.026-48.844 5.923-126.266 2.584-104.126-4.489-119.466-6.793-125.96-18.924-16.383-30.614-45.05-36.585-175.64-36.585-123.515 0-124.296.106-139.04 18.847-10.913 13.879-21.99 18.847-42.007 18.847h-27.184v126.851l46.052 38.482 46.056 38.482 172.994-2.024 172.99-2.021Zm-419.714 12.908c-31.352-31.948-31.726-32.962-31.726-86.693v-54.371h26.322c18.156 0 29.241-4.677 35.739-15.078 8.805-14.104 17.578-15.075 136.019-15.075 103.854 0 129.947 2.188 145.189 12.175 10.219 6.694 18.582 16.873 18.582 22.615 0 8.228 16.677 10.441 78.709 10.441 44.344 0 80.747 3.293 83.371 7.538 6.069 9.823 91.93 9.823 97.999 0 5.044-8.163 96.2-10.598 104.021-2.777 2.617 2.617 1.367 11.099-2.78 18.847-6.887 12.865-18.127 14.082-130.013 14.082h-122.471l-27.398 60.309-27.395 60.309h-352.445Zm-782.35-85.065c6.516-6.512 11.847-16.448 11.847-22.074 0-14.358-21.183-33.925-36.723-33.925-29.815 0-43.308 44.926-17.931 59.706 18.611 10.837 29.179 9.925 42.807-3.707m-43.036-12.938c-5.978-15.576 5.695-29.851 21.863-26.736 20.028 3.856 18.553 32.05-1.828 34.961-8.802 1.253-17.818-2.446-20.035-8.225m729.055 8.174c9.918-14.155 10.125-18.894 1.414-32.039-13.661-20.61-32.744-23.401-50.446-7.381-17.768 16.081-18.171 24.421-2.043 42.247 16.747 18.502 36.916 17.386 51.075-2.827m-45.736-9.751c-2.606-6.788-1.257-15.827 3.002-20.082 12.287-12.287 35.724-4.005 35.724 12.625 0 19.174-31.876 25.312-38.726 7.457m-59.277-11.331c0-9.794-34.75-11.571-259.6-13.29-152.144-1.163-262.492.905-266.584 4.997-21.166 21.161 7.886 23.531 264.727 21.583 226.5-1.715 261.457-3.492 261.457-13.29m-674.684-3.769c-.022-12.054-250.471-10.023-254.501 2.068-2.526 7.581 23.92 9.169 125.659 7.537 79.512-1.275 128.849-4.953 128.842-9.605m2709.573 525.701c-5.208-3.579-6.901-32.78-4.79-82.51 3.017-71.001 4.667-77.884 21.253-88.75 17.786-11.655 17.982-13.185 17.982-140.261 0-75.812-3.264-134.577-7.966-143.357-7.683-14.362-5.644-14.806 58.426-12.698l66.386 2.184-.774 26.384c-4.394 149.557-11.793 329.42-15.108 367.244-3.765 42.964-6.167 48.128-28.924 62.192-24.959 15.427-89.52 21.227-106.485 9.572m122.592-150.513c-1.912-7.337-3.602-3.161-3.754 9.279-.146 12.439 1.41 18.439 3.474 13.337 2.064-5.106 2.191-15.282.291-22.616Zm2.315-51.474c0-15.968-3.053-24.945-7.538-22.172-12.497 7.726-8.264 49.003 5.027 49.003 1.381 0 2.511-12.076 2.511-26.831m7.541-63.634c0-7.803-3.395-16.281-7.541-18.847-4.409-2.726-7.538 5.099-7.538 18.847 0 13.751 3.129 21.572 7.538 18.847 4.146-2.563 7.541-11.045 7.541-18.847m0-60.306c0-12.439-3.395-22.619-7.541-22.619-8.384 0-10.405 32.315-2.511 40.209 8.518 8.515 10.052 5.829 10.052-17.59m0-60.996c0-3.51-5.092-4.426-11.31-2.038-6.218 2.384-11.306 9.477-11.306 15.761 0 9.3 2.101 9.681 11.306 2.039 6.218-5.161 11.31-12.255 11.31-15.762M1100.725 771.261c-7.232-8.715-8.609-44.838-5.727-150.004l3.794-138.524-23.462-21.045c-22.997-20.628-25.076-21.006-104.501-18.905-70.034 1.85-81.042.509-81.042-9.878 0-10.779 28.695-12.018 278.926-12.018 250.235 0 278.927 1.235 278.927 12.018 0 10.426-11.088 11.691-83.648 9.54l-83.644-2.475-22.597 25.29c-17.608 19.705-21.533 29.669-17.764 45.115 7.646 31.352 18.069 143.048 18.654 199.915.687 66.698-5.575 71.892-87.118 72.208-45.893.178-63.664-2.639-70.798-11.237m98.759-18.676c3.914 0 6.923-52.183 6.923-120.08 0-99.111-2.068-122.145-11.847-131.924-17.71-17.71-38.937-14.348-53.942 8.544-11.248 17.156-13.367 37.755-13.367 129.921V748.58l22.616 4.855c12.439 2.672 27.136 3.573 32.656 2.003s13.156-2.853 16.961-2.853m-58.467-16.961c-8.493-13.406-2.511-203.513 6.76-214.852 13.039-15.943 41.277-11.349 46.339 7.541 5.917 22.067 5.851 77.077-.178 154.539-4.819 61.898-4.942 62.192-25.893 62.192-11.579 0-23.742-4.237-27.024-9.42Zm1982.437 16.161c-36.814-10.648-35.785-19.184 3.493-28.975 87.107-21.71 89.884-44.282 19.599-159.286-45.26-74.053-53.208-83.084-83.237-94.55-32.359-12.36-34.143-12.236-70.816 4.943-20.693 9.692-41.153 21.877-45.47 27.078-8.126 9.79-29.364 6.058-29.364-5.161 0-3.499 22.143-18.745 49.206-33.881 51.126-28.59 49.062-28.408 118.053-10.328 24.727 6.479 32.108 14.816 66.861 75.547 21.485 37.548 43.618 70.012 49.185 72.149 5.564 2.137 36.015-3.805 67.665-13.199 53.066-15.754 59.102-16.176 77.56-5.404 22.027 12.857 53.935 67.904 53.935 93.045 0 17.775-.029 17.786-146.69 60.255-97.883 28.347-94.841 27.929-129.98 17.767m163.32-100.641c11.401-13.737 3.994-26.714-15.249-26.714-9.162 0-14.631 5.164-14.631 13.82 0 24.684 14.795 31.069 29.88 12.894m-213.86 51.584c-7.643-19.915-87.253-146.89-103.748-165.479-20.733-23.356-17.244-31.464 21.994-51.125 31.599-15.834 39.285-16.946 65.397-9.467 26.656 7.635 34.691 16.623 81.038 90.622 28.299 45.18 51.453 90.014 51.453 99.63 0 23.215-26.915 39.878-73.276 45.369-31.977 3.787-38.279 2.381-42.858-9.55m-595.208-68.453c-7.727-7.723-5.586-55.124 4.43-98.203 6.879-29.59 12.679-39.798 22.615-39.798 18.574 0 17.375 30.033-2.547 63.798-10.209 17.306-14.711 35.132-12.564 49.763 3.282 22.357-2.395 33.979-11.934 24.44m255.257-34.133c-12.436-4.408-31.621-14.318-42.626-22.019s-28.659-14.003-39.227-14.003c-19.097 0-19.137-.138-6.567-22.037 11.979-20.871 11.899-22.866-1.519-37.694-14.086-15.565-14.017-15.656 12.422-15.656 24.97 0 26.871 1.752 31.181 28.71 6.956 43.512 33.376 63.896 87.922 67.843 59.407 4.295 67.722-3.046 67.722-59.782 0-24.513-3.365-44.308-7.537-44.308-4.147 0-7.537 14.617-7.537 32.482 0 17.866-5.03 39.068-11.175 47.117-10.481 13.723-10.906 13.185-6.843-8.638 3.339-17.946.014-28.292-14.552-45.231l-18.883-21.961h-151.425c-83.284 0-151.429-.931-151.432-2.072 0-1.141 11.913-25.733 26.475-54.654l26.482-52.583h147.446c123.122 0 149.371-1.926 159.129-11.684 19.792-19.792 34.092-9.289 64.608 47.444 26.166 48.647 28.125 55.825 17.997 65.953-6.251 6.251-16.02 11.364-21.703 11.364-18.92 0-28.434 17.724-28.434 52.965 0 48.269-21.078 67.875-72.102 67.057-20.464-.327-47.383-4.201-59.822-8.613m-151.72-47.08c-8.002-20.857.949-25.236 14.493-7.091 11.819 15.834 12.029 18.149 1.65 18.149-6.545 0-13.806-4.975-16.143-11.058m-2.82-45.035c0-6.465 3.391-11.753 7.537-11.753 4.147 0 7.541 3.191 7.541 7.094 0 3.899-3.394 9.191-7.541 11.753-4.146 2.562-7.537-.629-7.537-7.094m717.909-89.023c-25.537-31.403-47.815-67.486-52.354-84.81-4.346-16.583-10.368-36.091-13.377-43.345-5.153-12.414 9.627-13.192 249.936-13.192h255.414l88.397 83.542c53.066 50.155 88.398 89.321 88.398 98.003 0 13.995-9.111 14.457-285.981 14.457h-285.98Zm100.845 28.074c11.702-17.858 11.622-19.98-1.298-34.252-16.873-18.643-39.391-16.292-53.869 5.626-9.743 14.747-9.256 17.989 4.79 32.039 20.704 20.7 35.219 19.719 50.373-3.413Zm428.338 7.196c6.516-6.516 11.847-16.452 11.847-22.078 0-26.369-40.274-43.406-58.801-24.876-18.53 18.527-1.49 58.798 24.876 58.798 5.626 0 15.562-5.328 22.078-11.844M727.71 429.275l-37.693-13.407-2.217-54.029-2.213-54.029 79.486-1.131c43.716-.621 83.724-1.471 88.907-1.886 13.504-1.079 11.843 83.757-2.203 112.325-9.947 20.235-15.074 22.772-48.745 24.088-20.707.81-54.582-4.554-75.322-11.931m112.54-57.926c15.83-15.834 14.925-28.263-3.264-44.722-30.676-27.761-72.97 18.244-43.69 47.521 12.52 12.523 32.846 11.309 46.954-2.799m-44.007-9.659c-8.431-13.639 4.605-32.119 21.002-29.779 21.936 3.129 21.733 31.621-.247 34.754-8.936 1.272-18.276-.963-20.755-4.975m-487.571 34.699c-.614-30.335-.999-30.869-7.217-10.07-3.616 12.083-4.819 24.803-2.679 28.27 5.03 8.133.76 7.937-22.888-1.054-17.408-6.618-19.326-11.317-19.221-47.113.185-63.515-2.991-62.058 140.944-64.751l126.556-2.373v117.82l-26.384 5.219c-14.511 2.871-62.853 5.415-107.422 5.655l-81.042.436Zm3570.505 2.348c-28.565-29.35-29.033-30.607-11.306-30.378 27.863.359 46.401 17.829 43.556 41.044l-2.446 19.955Zm-3346.731-29.39c-7.235-63.947-2.547-71.615 39.911-65.295 19.104 2.842 35.189 5.698 35.745 6.349.556.647 2.413 24.076 4.129 52.063l3.114 50.886h-77.92Zm112.027 2.664c-5.974-47.833-1.406-65.833 15.104-59.499 16.168 6.207 16.946 100.838.828 100.838-7.392 0-12.385-12.956-15.932-41.339m-432.888 19.217c-10.986-20.522-9.714-39.648 3.929-59.124 20.398-29.121 29.691-20.344 30.2 28.521.403 38.45-1.527 45.187-12.927 45.187-7.37 0-16.91-6.563-21.202-14.584m416.829-34.419c.032-29.022 1.395-39.972 3.027-24.331s1.603 39.387-.058 52.769c-1.665 13.384-3.002.588-2.969-28.438m2158.978-28.554c-5.979-15.576 5.694-29.851 21.859-26.736 20.032 3.856 18.556 32.05-1.828 34.961-8.802 1.253-17.818-2.446-20.035-8.225Zm-208.969-61.908c-10.364-5.923-26.613-10.891-36.102-11.04-16.815-.262-17.2-1.948-15.078-66.229l2.181-65.964 71.091-2.184 71.096-2.185 43.868 43.411c24.127 23.876 43.813 40.124 43.744 36.109-.058-4.016-15.928-22.568-35.244-41.226-28.259-27.297-32.468-34.434-21.547-36.542 21.438-4.139 109.687 87.253 109.687 113.593 0 16.38-3.518 20.951-16.132 20.951-8.872 0-20.635-5.938-26.145-13.195-9.536-12.564-10.026-12.564-10.255 0-.2 11.451-8.239 13.195-60.786 13.195-46.862 0-61.522 2.555-64.88 11.306-5.426 14.137-30.767 14.137-55.498 0m7.537-19.871c0-5.811 10.899-7.069 33.925-3.914l33.925 4.651-.752-31.893c-.603-25.617-1.777-28.187-5.956-13.05-4.325 15.663-10.467 19.232-36.364 21.136-27.405 2.013-31.559.196-34.481-15.078-1.871-9.791-3.768-3.387-4.346 14.675-.564 17.618 2.366 32.038 6.512 32.038 4.147 0 7.537-3.855 7.537-8.565m-34.321-112.696c-2.427-3.929-7.624-5.157-11.553-2.729-3.928 2.427-5.153 7.628-2.725 11.553 2.424 3.928 7.624 5.157 11.553 2.729 3.925-2.428 5.153-7.628 2.725-11.553M2435.19 248.195c0-16.976-93.599-38.388-167.79-38.388h-74.399l2.362-24.498 2.362-24.502 81.704-2.144c60.872-1.599 86.61-5.36 100.935-14.747 13.563-8.889 36.135-12.698 76.605-12.931l57.376-.33 2.188 62.191 2.192 62.195h-41.768c-22.972 0-41.767-3.081-41.767-6.846m30.156-8.232c0-4.146-3.394-7.537-7.541-7.537s-7.537 3.391-7.537 7.537c0 4.147 3.39 7.538 7.537 7.538s7.541-3.391 7.541-7.538m45.231 1.258c0-9.816-8.962-16.347-16.252-11.84-7.796 4.818-1.076 18.12 9.158 18.12 3.899 0 7.094-2.828 7.094-6.28M5.331 235.003c-2.729-2.73-1.991-8.664 1.643-13.192 3.63-4.529 8.958-19.262 11.84-32.741 4.009-18.734 2.435-25.581-6.669-29.073-34.324-13.174 2.086-18.036 135.097-18.036h146.999v98.002H152.268c-78.087 0-144.211-2.231-146.937-4.96m68.821-45.925c-1.654-25.781-5.463-35.808-13.603-35.808-8.144 0-11.953 10.027-13.606 35.808-2.061 32.129-.665 35.807 13.606 35.807 14.268 0 15.667-3.678 13.603-35.807m60.054 14.605c1.639-4.924-2.387-8.951-8.954-8.951-6.564 0-11.935 5.372-11.935 11.935 0 13.312 16.23 10.993 20.889-2.984m45.231 0c1.639-4.924-2.387-8.951-8.951-8.951-6.567 0-11.938 5.372-11.938 11.935 0 13.312 16.23 10.993 20.889-2.984m46.957 2.355c0-6.218-5.087-11.306-11.306-11.306-11.771 0-14.958 8.915-6.283 17.59 8.675 8.674 17.589 5.491 17.589-6.284m-105.54-37.69c0-6.221-5.087-11.309-11.306-11.309-11.771 0-14.958 8.914-6.283 17.589s17.589 5.491 17.589-6.28m37.694 0c0-6.221-5.088-11.309-11.306-11.309-11.775 0-14.958 8.914-6.283 17.589 8.674 8.675 17.589 5.491 17.589-6.28m45.231 0c0-6.221-5.088-11.309-11.306-11.309-11.775 0-14.958 8.914-6.283 17.589 8.674 8.675 17.589 5.491 17.589-6.28m43.505-2.358c1.642-4.921-2.388-8.951-8.951-8.951-6.567 0-11.939 5.371-11.939 11.934 0 13.316 16.231 10.997 20.89-2.983m69.768 26.856.193-47.113 28.659-13.196c15.765-7.254 31.846-13.192 35.735-13.192s7.548 20.675 8.13 45.94c1.224 53.364-13.131 74.678-50.297 74.678h-22.616l.193-47.117Zm323.852 28.136c-6.894-8.308-35.218-11.266-123.154-12.865l-114.197-2.079-2.264-47.771c-1.359-28.735 1.261-52.019 6.578-58.427 7.054-8.496 38.166-10.648 154.11-10.648 158.599 0 154.424 1.218 154.424-45.042 0-22.862 11.015-30.345 44.678-30.345 22.648 0 42.622 17.622 46.994 41.462 1.889 10.296 8.714 15.079 21.51 15.079 15.58 0 19.138-4.078 21.079-24.157l2.336-24.16h153.857c94.753 0 155.648 2.908 158.526 7.563 2.922 4.728 7.955 4.928 13.428.531 13.294-10.681 223.414-10.776 236.272-.106 8.013 6.651 12.698 6.665 19.308.055 11.426-11.423 52.976-11.219 64.514.319 7.036 7.036 11.055 7.036 18.091 0 11.063-11.062 141.726-12.621 141.726-1.693 0 4.775 6.774 4.775 19.337 0 25.657-9.754 58.59-9.333 68.809.883 5.957 5.96 12.495 5.96 23.626 0 8.464-4.528 42.382-8.235 75.369-8.235h59.982l3.078 26.384 3.082 26.384-494.145 1.298-494.146 1.293 354.31 6.247c519.003 9.148 614.393 13.167 614.393 25.898 0 5.774 6.785 10.495 15.078 10.495 8.29 0 15.075 3.151 15.075 7.003 0 3.849 5.331 12.331 11.847 18.843 10.768 10.772 5.117 11.83-62.191 11.641-72.037-.204-74.635-.818-96.03-22.616-12.091-12.323-24.512-22.408-27.598-22.408s-14.177 10.175-24.643 22.615c-24.294 28.874-39.591 28.507-70.757-1.701-27.402-26.558-43.752-24.327-58.456 7.974-10.972 24.098-40.092 20.704-69.994-8.155l-25.385-24.502-21.987 24.502c-27.943 31.141-51.692 31.748-73.773 1.882-9.195-12.44-21.115-22.615-26.49-22.615-12.774 0-44.188 33.54-37.592 40.136 2.802 2.802-5.015 5.095-17.367 5.095-15.118 0-29.546-7.396-44.13-22.616-25.127-26.228-34.416-27.816-51.602-8.827-16.372 18.091-15.739 23.905 2.602 23.905 12.782 0 15.079 5.026 15.079 32.999 0 41.738-11.564 51.431-57.838 48.476l-36.396-2.319-2.345-36.966c-1.508-23.801 1.033-39.05 7.138-42.822 6.97-4.31 4.601-9.921-8.966-21.209-10.142-8.442-20.136-15.365-22.212-15.38-2.071-.018-14.794 10.001-28.27 22.26-20.729 18.857-24.498 27.521-24.498 56.318 0 32.784-.828 34.027-22.615 34.027-22.114 0-22.616-.836-22.616-37.69 0-23.833 3.253-37.694 8.853-37.694 4.866 0 .883-8.482-8.853-18.846-21.794-23.197-28.423-23.212-54.654-.124-17.469 15.376-20.733 24.236-20.733 56.301 0 35.567-1.232 38.057-18.847 38.057-17.484 0-18.847-2.613-18.847-36.186 0-19.904-4.07-40.255-9.045-45.231-7.036-7.035-2.108-9.049 22.172-9.049 17.168 0 33.311-3.39 35.877-7.537 3.023-4.892-33.457-7.537-103.927-7.537-98.366 0-109.85 1.392-121.992 14.813-13.239 14.627-12.385 14.838 68.428 16.96l81.834 2.148-2.434 33.925c-1.338 18.658-2.973 34.303-3.635 34.765-.661.465-52.641 2.86-115.512 5.327-93.961 3.689-115.904 2.566-123.264-6.301Zm73.28-43.21c-1.799-9.329-3.267-1.698-3.267 16.96s1.468 26.29 3.267 16.961c1.795-9.329 1.795-24.592 0-33.921m-173.681-43.411 16.336-30.09h-17.604c-11.859 0-22.728 8.289-33.297 25.388-19.711 31.893-19.602 34.932 1.269 34.855 11.996-.04 21.743-8.867 33.296-30.153m55.283.062 15.384-30.152-17.117.054c-12.037.04-22.216 8.991-34.303 30.156l-17.186 30.095h18.919c14.482 0 22.525-7.072 34.303-30.153m57.453.564c15.449-28.463 15.507-29.594 1.78-33.184-10.415-2.722-20.322 5.168-37.086 29.531l-22.874 33.242 21.093-.062c16.746-.047 24.393-6.134 37.087-29.527m430.18-9.417c9.598-9.016 17.448-18.345 17.448-20.729 0-2.388-16.961-4.343-37.694-4.343-20.729 0-37.69 1.479-37.69 3.286 0 4.757 32.068 38.177 36.636 38.177 2.119 0 11.706-7.374 21.3-16.391m138.066-20.729c0-2.388-15.267-4.343-33.925-4.343s-33.921 1.479-33.921 3.286 7.392 11.153 16.43 20.772l16.43 17.492 17.491-16.434c9.624-9.038 17.495-18.389 17.495-20.773m110.708 20.729c9.594-9.016 17.448-18.345 17.451-20.729.007-3.318-54.647-4.088-74.82-1.054-4.296.647 31.159 38.174 36.065 38.174 2.123 0 11.706-7.374 21.304-16.391m137.103-8.834c7.726-9.315 3.361-11.368-28.896-13.603-20.9-1.45-37.999-1.156-37.995.651s7.258 11.004 16.121 20.438c16.83 17.917 31.48 15.758 50.77-7.486m114.04 6.378 17.702-18.843h-80.639l17.702 18.843c9.74 10.368 19.916 18.847 22.62 18.847 2.7 0 12.875-8.479 22.615-18.847m128.155 0 17.703-18.843h-80.639l17.702 18.843c9.739 10.368 19.915 18.847 22.619 18.847 2.7 0 12.876-8.479 22.615-18.847m-943.732-73.61c2.998-15.577-18.763-26.076-30.251-14.588-11.484 11.484-.989 33.245 14.591 30.247 7.221-1.392 14.268-8.438 15.66-15.659m483.879 141.46c0-31.832 2.627-41.463 11.309-41.463 6.218 0 11.306 3.391 11.306 7.538 0 4.92 126.898 7.537 365.62 7.537h365.619v60.309h-32.616c-31.658 0-32.526-.64-29.43-21.721 1.752-11.95-.53-24.022-5.077-26.831-5.437-3.362-8.257 4.702-8.253 23.607l.011 28.714-152.664-2.315c-83.968-1.272-155.888-5.513-159.828-9.42-4.041-4.012-78.098-7.108-169.995-7.108-116.595 0-165.402-2.57-171.879-9.05-5.894-5.891-9.045-6.214-9.045-.923 0 21.148 24.64 24.804 181.512 26.937l161.492 2.195-179.041 1.73-179.041 1.726Zm-286.464-3.773c0-36.854.502-37.69 22.616-37.69s22.615.836 22.615 37.69c0 36.858-.505 37.694-22.615 37.694-22.114 0-22.616-.836-22.616-37.694m120.615 0c0-36.854.505-37.69 22.615-37.69 22.114 0 22.616.836 22.616 37.69 0 36.858-.502 37.694-22.616 37.694-22.11 0-22.615-.836-22.615-37.694m927.244-7.09c0-24.636 2.562-46.372 5.695-48.309s15.005-1.741 26.384.433c19.766 3.779 20.689 5.934 20.689 48.309v44.351h-52.768Zm67.847-1.076c0-39.278 17.825-36.672 21.183 3.097 1.781 21.06-.472 27.689-9.42 27.689-8.74 0-11.763-7.919-11.763-30.786m37.693 8.166c0-21.776 1.254-22.615 33.922-22.615s33.925.839 33.925 22.615c0 21.78-1.258 22.62-33.925 22.62-32.668 0-33.922-.84-33.922-22.62m-145.12-35.146c5.183-2.089 13.665-2.089 18.847 0 5.183 2.094.942 3.805-9.423 3.805s-14.606-1.711-9.424-3.805m459.887-42.123c-9.286-25.247 2.158-28.267 107.095-28.267 83.237 0 105.86 2.253 113.375 11.306 8.225 9.91.938 11.31-58.942 11.31-37.578 0-70.423 3.39-72.985 7.537-6.909 11.179-84.346 9.529-88.543-1.886m13.159-50.886c2.562-4.143 12.262-7.537 21.551-7.537 20.387 0 34.986-13.214 34.986-31.661 0-9.903 5.825-13.57 21.565-13.57 11.858 0 36.683-2.072 55.163-4.605 25.857-3.543 36.527-1.682 46.285 8.075 15.554 15.555 17.161 56.839 2.213 56.839-5.76 0-10.001-5.808-9.423-12.905.578-7.138-5.332-14.213-13.225-15.838-11.302-2.322-13.41.36-10.128 12.905 4.012 15.347 1.693 15.838-74.752 15.838-50.678 0-77.229-2.697-74.235-7.541"/></svg>