<svg xmlns="http://www.w3.org/2000/svg" width="3459.517" height="1000" viewBox="0 0 3459.517 1000"><path d="M2021.006 947.835c-19.537-28.691-50.493-73.461-68.794-99.492-149.295-212.329-170.083-246.141-170.083-276.647v-30.17h-53.981c-33.257 0-57.58-3.551-63.351-9.246-7.508-7.406-11.273-6.668-18.934 3.7-11.949 16.172-25.094 16.43-42.334.829-10.852-9.824-15.489-10.369-24.513-2.879-11.869 9.849-94.706 12.524-116.707 3.769-17.978-7.156-35.8 1.108-40.408 18.734-2.137 8.159-10.972 16.277-19.636 18.044-45.492 9.278-101.999 13.937-218.514 18.007-75.351 2.635-129.769 7.57-131.117 11.898-1.268 4.067 36.051 33.209 82.932 64.757 70.208 47.248 88.768 56.577 105.238 52.884 22.826-5.12 48.396-33.009 76.153-83.055 20.77-37.446 44.413-50.809 75.911-42.905 27.539 6.913 24.679 23.844-12.029 71.172-17.35 22.372-46.002 62.3-63.667 88.739-21.736 32.525-41.012 52.248-59.611 61.006-32.268 15.191-80.144 16.536-98.286 2.759-11.902-9.039-11.502-10.921 5.796-27.169 10.22-9.602 17.637-21.653 16.485-26.777-1.156-5.128-56.922-46.335-123.932-91.573l-121.832-82.252-20.831 23.313-20.831 23.313-36.675-26.351c-27.54-19.785-44.108-26.352-66.502-26.352-28.612 0-30.414 1.429-44.344 35.128-21.485 51.983-25.603 57.307-44.333 57.307-14.831 0-18.458-5.883-27.336-44.366-5.633-24.403-8.966-53.52-7.41-64.706 2.795-20.107 2.362-20.336-38.784-20.336-22.884 0-45.601-3.991-50.482-8.871-6.901-6.902-10.844-6.902-17.749 0-10.717 10.717-50.282 11.88-50.282 1.479 0-4.067-4.994-7.396-11.092-7.396-6.102 0-11.095 3.329-11.095 7.396 0 11.367-123.587 9.587-128.227-1.85-2.697-6.647-5.466-6.934-9.86-1.018-3.859 5.197-41.36 8.628-101.76 9.318-92.791 1.058-107.16-2.028-107.593-23.091-.062-3.049 186.236-5.546 413.996-5.546 349.028 0 414.105 1.621 414.105 10.303 0 17.288 17.895 19.279 173.237 19.279 140.449 0 150.679-.93 163.224-14.791 12.905-14.257 22.775-14.791 274.753-14.791 169.316 0 261.369 2.606 261.369 7.396 0 4.066 16.637 7.395 36.974 7.395 20.333 0 36.974 3.329 36.974 7.396 0 4.513 34.204 7.395 87.83 7.395 69.053 0 89.8-2.373 97.039-11.095 11.742-14.148 22.183-14.228 22.183-.171 0 6.008 8.293 16.358 18.433 23.001 24.766 16.23 53.258 8.235 68.95-19.352 10.205-17.931 17.299-21.878 39.376-21.918 22.376-.04 27.689 2.995 31.443 17.95 2.486 9.895 11.037 20.064 19.01 22.593 19.708 6.254 44.632-8.297 44.632-26.06 0-14.217 6.843-14.53 320.525-14.53 372.301 0 345.001-6.043 345.001 76.379v49.334h-73.948v51.761h40.674c39.412 0 40.673.629 40.772 20.337.054 11.186 2.067 27.674 4.473 36.64 4.285 15.983 3.209 16.244-54.011 13.242-56.013-2.943-59.418-2.18-83.967 18.8-14.071 12.029-28.412 21.878-31.864 21.885-3.456.007-30.076-24.72-59.161-54.952l-52.877-54.974 31.429-26.886c37.439-32.028 40.306-53.567 11.091-83.265l-20.333-20.672-182.268 3.914c-165.655 3.562-183.677 5.201-197.807 18.004-27.427 24.854-20.086 51.26 41.121 147.881 31.166 49.199 61.948 95.022 68.402 101.829 15.496 16.339 53.349 19.461 77.738 6.407 19.079-10.212 20.82-9.216 71.062 40.637 28.325 28.111 51.5 55.112 51.5 60.011 0 4.895-12.403 19.127-27.565 31.625L2636.552 1000h-259.478l-12.349-24.033c-6.793-13.217-13.374-29.258-14.624-35.64-1.25-6.385-35.546-64.11-76.219-128.275l-73.948-116.667-136.666 4.892c-75.166 2.692-137.811 6.036-139.214 7.439-2.235 2.235 52.078 83.422 140.74 210.388l28.016 40.121 121.402-1.86c115.043-1.763 121.821-1.08 129.358 13.006 4.376 8.177 7.959 18.415 7.959 22.747 0 5.316-48.033 7.882-147.503 7.882h-147.503Zm55.446-316.822c1.229-26.024-.61-50.158-4.088-53.636-3.474-3.475-36.923-4.147-74.329-1.49l-68.01 4.826v45.725c0 25.152 1.428 47.113 3.169 48.81 1.744 1.694 34.19 3.078 72.102 3.078h68.929Zm574.539 248.918-56.809-53.709 64.633-57.307c35.549-31.523 68.86-57.311 74.021-57.311 5.164 0 31.366 24.127 58.226 53.611l48.84 53.615-38.984 35.847c-21.438 19.716-51.162 45.547-66.051 57.405L2707.8 933.64ZM1019.374 724.36c-106.862-73.73-108.167-74.962-97.13-91.81 6.157-9.394 14.49-17.076 18.524-17.076 7.566 0 186.039 119.738 204.93 137.487 9.012 8.471 9.103 12.785.599 28.673-5.505 10.289-11.942 18.426-14.307 18.08-2.363-.345-53.041-34.255-112.616-75.354m2017.092 23.295c-9.489-47.462-7.585-50.842 28.655-50.842 33.002 0 33.278-.211 33.278-25.475 0-25.145-.458-25.505-35.128-27.729l-35.124-2.257-4.125-52.993c-2.271-29.146-8.503-58.263-13.846-64.702-5.346-6.44-6.817-11.484-3.27-11.208 3.55.276 27.248 25.559 52.669 56.18 42.84 51.605 46.22 58.325 46.22 91.93 0 19.94 2.496 36.232 5.545 36.207s21.351-13.595 40.67-30.153c52.038-44.602 49.745-53.411-39.779-152.827l-74.908-83.182H2869.16v37.515c0 31.737-1.991 37.138-12.941 35.059-9.751-1.853-13.494-11.099-15.194-37.515-1.236-19.283-4.59-35.059-7.447-35.059-2.856 0-4.041 14.497-2.635 32.22 2.472 31.08 1.727 32.388-21.205 36.974-33.925 6.785-214.186 5.899-214.186-1.054 0-3.194 22.462-17.251 49.915-31.239 41.037-20.907 61.094-26.224 112.771-29.891l62.853-4.459-69.194-1.275c-67.054-1.236-70.768-.418-120.113 26.453-28.008 15.252-50.943 31.991-50.972 37.202-.026 7.48-38.101 9.14-181.185 7.908-178.939-1.544-181.333-1.769-197.251-18.716-23.2-24.694-46.583-21.339-86.631 12.429l-35.081 29.579h-150.639V408.417h133.105v-45.074l46.215 2.202 46.219 2.203 2.254 35.124c2.035 31.715 4.012 35.127 20.336 35.127 9.943 0 18.08 3.326 18.08 7.392 0 4.743 69.02 7.396 192.265 7.396 152.192 0 192.265-1.992 192.265-9.551 0-5.255 18.375-18.563 40.834-29.578 35.665-17.495 49.708-20.028 110.921-20.028 41.793 0 70.085-2.987 70.085-7.395 0-4.067 4.994-7.396 11.095-7.396 6.098 0 11.092 3.329 11.092 7.396 0 10.688 108.138 9.256 125.625-1.665 11.448-7.148 16.416-7.148 23.564 0 4.983 4.983 15.049 9.06 22.368 9.06 11.775 0 13.312-7.257 13.312-62.856 0-58.249-1.101-62.857-15.023-62.857-8.261 0-16.935 4.994-19.28 11.095-5.505 14.355-17.462 14.355-17.462 0 0-8.991-11.912-11.095-62.856-11.095-50.94 0-62.853 2.104-62.853 11.095 0 16.249-12.425 13.534-16.935-3.699-3.558-13.606-10.085-14.788-81.59-14.788-61.614 0-84.967-3.103-112.659-14.976-43.632-18.705-49.988-14.475-12.898 8.584 24.353 15.14 39.274 17.815 111.391 19.97 72.977 2.18 84.21 4.237 90.846 16.637 9.038 16.884 27.998 18.592 33.958 3.06 6.102-15.9 92.893-15.307 117.478.803 16.68 10.928 18.523 10.928 22.717 0 9.888-25.774 17.771-9.543 17.771 36.589v48.483l-21.878-12.923c-17.415-10.285-25.337-11.244-38.824-4.688-28.735 13.969-100.455 17.251-112.553 5.149-12.502-12.501-30.941-13.766-37.846-2.594-3.115 5.033-31.563 7.246-77.386 6.014l-72.469-1.944-39.579 27.26c-31.973 22.019-46.325 27.259-74.642 27.259h-35.062l-.084-72.098c-.055-39.656-2.144-84.577-4.666-99.83l-4.583-27.728h49.036c38.653 0 49.032-2.348 49.032-11.096 0-9.114-13.098-11.091-73.523-11.091h-73.523l-2.274 31.428-2.272 31.428-61.006 2.148-61.007 2.148v-67.152h-147.892v81.343h-73.948V208.76h-155.291v-90.363l153.441 6.142c201.453 8.064 201.616 8.057 213.954-8.809 9.282-12.687 18.752-13.992 89.24-12.287 43.37 1.046 82.161 5.204 86.195 9.241 4.038 4.038 34.176 7.338 66.974 7.338 66.709 0 107.88 12.181 185.611 54.904l48.098 26.439h132.592c123.518 0 133.112.978 140.246 14.304 4.209 7.868 7.654 16.187 7.654 18.487s-75.703 4.11-168.233 4.019l-168.228-.163-59.041-36.811-59.04-36.81h-164.01l-7.766-27.732-7.763-27.729-.934 35.124-.934 35.124 94.281.022 94.285.018 55.461 36.934 55.461 36.938 172.16.018c182.78.022 188.729-1.166 175.705-35.106-7.32-19.079-6.048-20.14 21.267-17.785 13.748 1.184 27.191-1.403 29.873-5.746 6.218-10.059 279.052-10.892 289.075-.879 4.325 4.317 5.604 115.973 3.329 290.245l-3.7 283.228-47.117 2.224-47.12 2.224 5.026-46.913c4.455-41.611 3.303-48.465-10.19-60.68-13.839-12.523-15.216-22.284-15.216-107.901 0-92.53.319-94.347 18.694-106.387 18.672-12.232 18.69-12.359 16.637-113.618l-2.053-101.375-24.698-2.366c-21.587-2.067-24.12-.552-20.115 12.066 2.965 9.336.585 15.965-6.731 18.774-9.245 3.547-11.313 19.853-11.313 89.175 0 54.905 2.937 86.653 8.326 89.982 5.771 3.565 6.581 20.162 2.646 54.047-4.507 38.784-9.729 164.929-10.823 261.503-.134 11.738-10.372 12.941-110.144 12.941h-109.999Zm208.331-48.992 2.203-46.216h-24.513c-18.548 0-33.928 8.235-63.208 33.849-22.027 19.268-38.697 40.103-38.697 48.363 0 13.425 4.586 14.355 61.007 12.371l61.006-2.148Zm-109.424 32.736c0-11.832 71.807-71.56 86.035-71.56 7.308 0 10.096 11.233 10.096 40.674v40.67h-48.066c-34.942 0-48.065-2.671-48.065-9.784m109.243-287.854c1.962-127.493 1.588-131.258-12.941-131.258-10.031 0-14.962-4.874-14.962-14.788 0-8.137-4.885-14.791-10.852-14.791-17.989 0-1.21 32.893 18.251 35.775 16.444 2.438 16.757 4.048 12.178 62.856-2.584 33.195-4.717 87.809-4.743 121.363-.054 58.357-.766 61.003-16.68 60.894-11.677-.08-30.429-16.888-62.857-56.333l-46.215-56.221v-80.471c0-75.539.905-80.467 14.787-80.467q14.79 0 14.791 14.787c0 11.975 4.928 14.791 25.882 14.791 22.678 0 25.879-2.289 25.879-18.487 0-10.168-3.325-18.487-7.395-18.487-4.067 0-7.392 6.654-7.392 14.791 0 8.602-4.932 14.788-11.786 14.788-6.483 0-13.526-6.654-15.652-14.788-2.907-11.113-10.085-14.791-28.888-14.791h-25.017v173.778l52.317 61.432c47.466 55.737 54.494 61.225 75.798 59.161l23.476-2.279Zm-168.403-116.903c0-37.85-2.697-57.929-7.392-55.025-4.071 2.511-7.396 29.331-7.396 59.593 0 31.755 3.126 55.025 7.396 55.025 4.317 0 7.392-24.796 7.392-59.593m-512.235-56.711c-1.602-15.34-2.94-4.601-2.973 23.869-.025 28.47 1.28 41.022 2.911 27.896 1.636-13.127 1.661-36.422.055-51.765Zm852.395 422.172c0-44.892 2.203-177.158 4.896-293.93 4.837-209.742 5.084-212.286 20.336-210.105 14.057 2.009 15.634 7.788 17.608 64.6 1.195 34.321-1.24 70.925-5.412 81.344-4.168 10.419-10.815 110.14-14.772 221.596-4.303 121.232-10.3 205.759-14.926 210.381-5.378 5.379-7.73-17.113-7.73-73.886m-465.87-21.169c0-9.081 12.735-11.095 70.249-11.095 57.518 0 70.252 2.014 70.252 11.095 0 9.079-12.734 11.092-70.252 11.092-57.514 0-70.249-2.01-70.249-11.092m167.375-.076c-2.58-6.727-4.692-21.641-4.692-33.143 0-14.817-14.256-38.37-48.868-80.741l-48.869-59.818h-131.498v-51.761l75.794.338 75.798.338 72.098 81.194c39.656 44.66 72.098 85.428 72.098 90.596 0 5.172-12.861 21.961-28.583 37.312-23.753 23.193-29.378 25.846-33.278 15.685m-973.405-129.332c-18.614-18.614-18.691-31.149-.298-47.797 33.314-30.145 78.243 14.784 48.094 48.095-16.644 18.396-29.182 18.316-47.796-.298m147.383 3.078c-13.137-15.831.08-36.356 23.401-36.356 20.122 0 27.714 20.555 13.791 37.33-11.596 13.973-25.079 13.621-37.192-.974m-435.779-80.726v-55.461h59.161v110.922h-59.161ZM61.585 506.213c-4.761-3.031-10.757-15.456-13.323-27.616l-4.666-22.111 11.709 20.334 11.713 20.336h92.199c56.536 0 92.198 2.86 92.198 7.396 0 8.635-176.438 10.179-189.83 1.661m190.684-22.169c-8.584-16.83-12.705-35.905-10.379-48.065 3.627-18.981 6.189-20.166 43.665-20.166 21.895 0 39.808-3.325 39.808-7.396 0-4.702 59.157-7.391 162.683-7.391 103.53 0 162.687 2.689 162.687 7.391 0 4.111 19.719 7.396 44.369 7.396 25.788 0 44.366-3.22 44.366-7.69 0-8.199 59.924-67.959 64.03-63.852 1.338 1.337-7.53 13.588-19.708 27.227-15.162 16.982-22.135 32.529-22.135 49.345v24.548H245.306l12.774 26.268 12.778 26.271 244.848-.57c159.823-.375 246.475 2.06 249.532 7.006 3.162 5.121-77.033 7.581-247.025 7.581H266.504Zm521.56 5.59c-9.009-45.053 2.678-90.422 30.927-120.037 14.551-15.252 29.756-27.732 33.797-27.732 4.038 0-3.292 10.975-16.292 24.385-35.284 36.404-31.857 49.563 12.905 49.563 20.093 0 38.591-3.325 41.106-7.396 2.824-4.564 66.629-7.391 166.819-7.391 103.235 0 162.247 2.689 162.247 7.391 0 4.111 19.722 7.396 44.369 7.396 37.832 0 44.37-1.966 44.37-13.337 0-13.494 43.119-60.611 55.464-60.611 3.682 0-5.03 12.48-19.363 27.732-19.242 20.482-25.918 34.012-25.533 51.762l.523 24.032H775.446l5.092 16.641c11.305 36.956.072 35.415 271.199 37.167l256 1.653 4.997-49.78c4.554-45.311 7.668-52.449 34.714-79.494 16.339-16.343 33.3-29.713 37.686-29.713s-3.1 11.43-16.637 25.396c-33.413 34.47-27.18 48.552 21.478 48.552 20.464 0 37.206-3.325 37.206-7.396 0-4.702 59.161-7.391 162.687-7.391s162.683 2.689 162.683 7.391c0 4.111 19.719 7.396 44.369 7.396 39.438 0 44.37 1.643 44.37 14.791 0 14.508-4.932 14.787-259.265 14.787h-259.26l2.293 26.301 2.297 26.296 256.967-.596c170.802-.392 256.968 1.948 256.968 6.982 0 5.095-173.749 7.573-531.499 7.573H778.292ZM41.456 433.697c-2.468-6.433-4.489-13.091-4.489-14.791s43.261-3.093 96.131-3.093c91.203 0 96.134.759 96.134 14.791 0 13.991-4.931 14.787-91.646 14.787-76.742 0-92.373-1.9-96.13-11.694m2139.391-16.034c-.33-3.049-1.159-18.858-1.846-35.124l-1.25-29.582h-66.552c-63.387 0-66.665.792-68.919 16.64-2.191 15.427-6.094 16.638-53.611 16.638h-51.248V230.943h125.712v66.556h119.411l-2.086-38.823-2.086-38.824 47.081-2.231c32.66-1.549 48.952.716 53.189 7.395 7.025 11.073 8.584 168.93 1.843 186.494-3.445 8.98-15.474 11.698-51.761 11.698-26.003 0-47.546-2.496-47.877-5.545m126.313-64.416v-70.539h133.66l-2.126 68.402-2.126 68.403-64.706 2.136-64.702 2.134Zm155.287-29.869c0-61.621 2.831-99.826 7.396-99.826s7.395 38.205 7.395 99.826c0 61.625-2.831 99.83-7.395 99.83-4.565 0-7.396-38.205-7.396-99.83M39.777 390.287c-8.679-22.619 5.582-26.235 103.439-26.235 74.7 0 101.389-2.581 112.331-10.859 7.897-5.971 20.853-10.961 28.797-11.092 11.84-.192 9.238 5.095-14.442 29.343l-28.884 29.582H142.46c-79.345 0-99.365-2.094-102.683-10.739m252.308-18.843c15.889-16.267 32.213-29.579 36.28-29.579s-5.604 13.312-21.489 29.579c-15.885 16.27-32.209 29.582-36.28 29.582-4.066 0 5.604-13.312 21.489-29.582m33.278 2.242c14.235-16.812 28.565-30.851 31.846-31.192 9.787-1.029-12.759 27.169-36.051 45.085-20.533 15.794-20.311 15.064 4.205-13.893m377.142 1.537c14.231-16.223 26.704-30.919 27.721-32.66 1.018-1.737 3.453-1.559 5.412.4 1.958 1.958-10.518 16.655-27.722 32.66l-31.283 29.098Zm33.267-3.776c15.885-16.27 32.21-29.582 36.28-29.582 4.066 0-5.604 13.312-21.489 29.582-15.888 16.267-32.213 29.579-36.28 29.579-4.066 0 5.604-13.312 21.489-29.579m100.819.625c13.69-15.925 29.727-29.237 35.636-29.578 6.004-.349-1.998 12.425-18.138 28.953-37.141 38.032-50.053 38.493-17.498.625m13.799 23.306c0-8.936 50.78-56.958 55.373-52.368 2.108 2.108-9.488 16.157-25.769 31.221s-29.604 24.581-29.604 21.147m377.134 1.203c0-9.58 50.359-58.586 55.214-53.727 2.021 2.017-9.576 16.608-25.77 32.42-16.194 15.816-29.444 25.403-29.444 21.307m52.754-24.509c13.69-15.925 29.727-29.237 35.636-29.578 6.004-.349-2.002 12.425-18.141 28.953-37.138 38.032-50.05 38.493-17.495.625m80.351 24.509c0-9.58 50.358-58.586 55.214-53.727 2.02 2.017-9.576 16.608-25.77 32.42-16.194 15.816-29.444 25.403-29.444 21.307m55.461-25.134c15.885-16.27 32.209-29.582 36.28-29.582 4.066 0-5.604 13.312-21.489 29.582-15.889 16.267-32.213 29.579-36.28 29.579s5.604-13.312 21.489-29.579m374.427.625c13.69-15.925 29.724-29.237 35.633-29.578 6.004-.349-1.999 12.425-18.138 28.953-37.138 38.032-50.053 38.493-17.495.625m13.799 23.909c0-3.837 9.627-16.204 21.394-27.478 18.425-17.651 20.857-24.519 17.513-49.449l-3.881-28.95h68.5V393.63l-24.033.08c-13.217.044-36.512 2.144-51.764 4.666-15.693 2.591-27.729 1.552-27.729-2.398ZM366.033 364.052c11.691-12.204 24.581-22.187 28.648-22.187 4.07 0-2.166 9.983-13.857 22.187-11.691 12.2-24.581 22.183-28.648 22.183s2.17-9.983 13.857-22.183m34.564.407c9.46-11.975 21.983-21.958 27.827-22.183 6.694-.258 2.758 7.802-10.626 21.776-27.34 28.535-39.652 28.829-17.201.407m31.988-.407c11.691-12.204 24.585-22.187 28.652-22.187s-2.17 9.983-13.861 22.187c-11.691 12.2-24.581 22.183-28.648 22.183-4.066 0 2.17-9.983 13.857-22.183m41.96.407c9.46-11.975 21.983-21.958 27.827-22.183 6.694-.258 2.758 7.802-10.626 21.776-27.34 28.535-39.653 28.829-17.201.407m31.988-.407c11.691-12.204 24.582-22.187 28.652-22.187 4.066 0-2.17 9.983-13.861 22.187-11.691 12.2-24.581 22.183-28.648 22.183s2.17-9.983 13.857-22.183m34.565.407c9.459-11.975 21.983-21.958 27.826-22.183 6.694-.258 2.759 7.802-10.626 21.776-27.34 28.535-39.652 28.829-17.2.407m20.896 17.055c0-9.518 35.684-43.403 40.564-38.522 2.01 2.006-6.298 13.181-18.454 24.828-12.16 11.651-22.11 17.811-22.11 13.694m48.069-17.462c11.687-12.204 24.581-22.187 28.648-22.187s-2.17 9.983-13.861 22.187c-11.687 12.2-24.581 22.183-28.648 22.183-4.066 0 2.17-9.983 13.861-22.183m34.444 0c9.02-12.204 19.727-22.187 23.79-22.187s-2.177 9.983-13.868 22.187c-11.688 12.2-22.394 22.183-23.789 22.183-1.392 0 4.848-9.983 13.867-22.183m32.108 0c11.688-12.204 24.582-22.187 28.648-22.187 4.067 0-2.169 9.983-13.86 22.187-11.688 12.2-24.582 22.183-28.648 22.183-4.067 0 2.169-9.983 13.86-22.183m234.222.407c9.459-11.975 21.983-21.958 27.826-22.183 6.695-.258 2.759 7.802-10.626 21.776-27.343 28.535-39.652 28.829-17.2.407m20.896 17.055c0-9.518 35.684-43.403 40.565-38.522 2.009 2.006-6.298 13.181-18.458 24.828-12.157 11.651-22.107 17.811-22.107 13.694m50.544-12.465c8.878-9.453 13.897-19.436 11.146-22.187-2.748-2.747 2.835-4.997 12.411-4.997h17.403l-21.252 22.187c-11.691 12.2-24.542 22.183-28.557 22.183-4.012 0-.037-7.734 8.849-17.186m23.404 12.465c0-9.518 35.684-43.403 40.564-38.522 2.006 2.006-6.298 13.181-18.458 24.828-12.159 11.651-22.106 17.811-22.106 13.694m48.065-17.462c11.691-12.204 24.582-22.187 28.648-22.187 4.067 0-2.169 9.983-13.857 22.187-11.691 12.2-24.581 22.183-28.648 22.183-4.07 0 2.17-9.983 13.857-22.183m33.304 3.696c10.153-12.2 19.293-23.572 20.307-25.265 1.018-1.694 3.478-1.454 5.47.538s-7.149 13.363-20.308 25.264l-23.927 21.649Zm33.249-3.696c11.691-12.204 24.581-22.187 28.648-22.187 4.07 0-2.166 9.983-13.857 22.187-11.692 12.2-24.582 22.183-28.648 22.183-4.067 0 2.169-9.983 13.857-22.183m33.303 3.696c10.154-12.2 19.294-23.572 20.311-25.265 1.014-1.694 3.478-1.454 5.466.538 1.992 1.991-7.145 13.363-20.308 25.264l-23.927 21.649Zm33.249-3.696c11.691-12.204 24.581-22.187 28.652-22.187 4.066 0-2.17 9.983-13.861 22.187-11.691 12.2-24.582 22.183-28.648 22.183-4.067 0 2.169-9.983 13.857-22.183m34.582.385c9.453-11.964 19.756-21.936 22.899-22.161 9.282-.665-16.673 34.928-28.888 39.616-7.293 2.802-5.211-3.275 5.989-17.455m235.356 3.311c10.154-12.2 19.29-23.572 20.307-25.265 1.018-1.694 3.478-1.454 5.47.538s-7.149 13.363-20.308 25.264l-23.931 21.645Zm33.249-3.696c11.691-12.204 24.581-22.187 28.648-22.187 4.066 0-2.17 9.983-13.857 22.187-11.691 12.2-24.582 22.183-28.652 22.183-4.067 0 2.17-9.983 13.861-22.183m33.303 3.696c10.154-12.2 19.294-23.572 20.308-25.265 1.017-1.694 3.478-1.454 5.469.538s-7.148 13.363-20.308 25.264l-23.93 21.649Zm33.249-3.696c11.691-12.204 24.581-22.187 28.648-22.187s-2.17 9.983-13.857 22.187c-11.691 12.2-24.581 22.183-28.648 22.183-4.07 0 2.17-9.983 13.857-22.183m34.583.385c9.448-11.964 19.755-21.936 22.898-22.161 9.282-.665-16.673 34.928-28.887 39.616-7.298 2.802-5.212-3.275 5.989-17.455m31.969-.385c11.691-12.204 24.582-22.187 28.648-22.187 4.071 0-2.166 9.983-13.857 22.187-11.691 12.2-24.581 22.183-28.648 22.183-4.066 0 2.17-9.983 13.857-22.183m39.453 4.997c8.878-9.453 13.897-19.436 11.146-22.187-2.748-2.747.777-4.997 7.831-4.997 11.517 0 11.212 2.271-2.969 22.187-8.685 12.2-19.475 22.183-23.974 22.183s-.916-7.734 7.966-17.186m34.495-4.997c11.691-12.204 24.582-22.187 28.648-22.187 4.07 0-2.166 9.983-13.857 22.187-11.691 12.2-24.581 22.183-28.648 22.183s2.17-9.983 13.857-22.183m34.565.407c9.459-11.975 21.983-21.958 27.826-22.183 6.694-.258 2.759 7.802-10.626 21.776-27.34 28.535-39.652 28.829-17.2.407m31.987-.407c11.691-12.204 24.582-22.187 28.652-22.187 4.067 0-2.169 9.983-13.861 22.187-11.691 12.2-24.581 22.183-28.648 22.183-4.066 0 2.17-9.983 13.857-22.183M12.658 357.328C.004 335.905-3.993 294.305 4.482 272.22c5.654-14.736 29.523-15.289 35.08-.814 3.336 8.7 24.487 11.291 105.558 12.941l101.386 2.057 6.912 20.766c5.411 16.255 4.088 23.88-6.088 35.124-11.625 12.847-23.364 14.362-111.314 14.362-79.566 0-99.496 2.108-104.504 11.055-4.978 8.9-8.66 6.876-18.854-10.383m323.797-37.646c-11.986-19.395 11.106-22.183 183.721-22.183 174.221 0 179.149.407 179.149 14.788 0 14.384-4.928 14.791-179.149 14.791-111.456 0-180.876-2.795-183.721-7.396m528.726-7.395c0-14.388 4.928-14.788 181.17-14.788s181.173.4 181.173 14.788-4.931 14.791-181.173 14.791-181.17-.404-181.17-14.791m525.026 0c0-14.388 4.932-14.788 181.174-14.788s181.17.4 181.17 14.788-4.928 14.791-181.17 14.791-181.174-.404-181.174-14.791m-141.884-12.447c5.338-2.134 11.716-1.872 14.173.585s-1.912 4.205-9.707 3.885c-8.613-.356-10.368-2.108-4.466-4.47m88.735 0c5.338-2.134 11.716-1.872 14.173.585s-1.908 4.205-9.703 3.885c-8.617-.356-10.368-2.108-4.47-4.47M261.969 271.773c-7.839-5.927-10.924-10.833-6.858-10.902 10.99-.182 29.771 13.021 25.13 17.662-2.213 2.213-10.437-.829-18.272-6.76m33.965.022c-5.833-7.029-6.396-11.27-1.49-11.27 8.936 0 19.355 14.028 14.227 19.156-1.86 1.861-7.595-1.686-12.737-7.886m32.587-.022c-12.512-9.463-12.723-10.808-1.744-11.015 6.876-.127 14.696 3.314 17.378 7.654 8.054 13.032-.439 14.86-15.634 3.361m33.965.022c-5.833-7.029-6.396-11.27-1.49-11.27 8.936 0 19.356 14.028 14.228 19.156-1.861 1.861-7.596-1.686-12.738-7.886m32.587-.022c-12.512-9.463-12.723-10.808-1.744-11.015 6.876-.127 14.697 3.314 17.379 7.654 8.053 13.032-.436 14.86-15.635 3.361m67.516-.763c-11.993-8.769-12.367-10.485-2.271-10.485 6.635 0 14.26 3.547 16.942 7.887 7.839 12.679.818 13.926-14.671 2.598m66.552 0c-11.993-8.769-12.367-10.485-2.271-10.485 6.636 0 14.26 3.547 16.942 7.887 7.839 12.679.818 13.926-14.671 2.598m69.976.785c-5.833-7.029-6.393-11.27-1.49-11.27 8.936 0 19.355 14.028 14.228 19.156-1.861 1.861-7.592-1.686-12.738-7.886m73.948 0c-5.833-7.029-6.393-11.27-1.49-11.27 8.936 0 19.355 14.028 14.227 19.156-1.86 1.861-7.591-1.686-12.737-7.886m32.587-.018c-7.835-5.931-10.92-10.837-6.854-10.906 10.99-.182 29.771 13.021 25.127 17.662-2.213 2.213-10.434-.829-18.273-6.76Zm33.965.018c-5.833-7.029-6.392-11.27-1.49-11.27 8.936 0 19.356 14.028 14.228 19.156-1.861 1.861-7.592-1.686-12.738-7.886m32.587-.018c-12.508-9.467-12.723-10.812-1.744-11.019 6.88-.127 14.7 3.314 17.379 7.654 8.057 13.032-.436 14.86-15.635 3.365m33.965.018c-5.833-7.029-6.392-11.27-1.49-11.27 8.937 0 19.359 14.028 14.228 19.156-1.861 1.861-7.592-1.686-12.738-7.886m32.591-.018c-12.512-9.467-12.726-10.812-1.748-11.019 6.88-.127 14.701 3.314 17.379 7.654 8.057 13.032-.436 14.86-15.631 3.365m67.516-.763c-11.997-8.773-12.367-10.489-2.275-10.489 6.639 0 14.264 3.547 16.946 7.887 7.835 12.683.818 13.926-14.671 2.602m66.552 0c-11.996-8.773-12.367-10.489-2.275-10.489 6.64 0 14.264 3.547 16.946 7.887 7.835 12.683.818 13.926-14.671 2.602m69.976.781c-5.833-7.029-6.396-11.27-1.49-11.27 8.936 0 19.355 14.028 14.228 19.156-1.861 1.861-7.596-1.686-12.738-7.886m32.587-.018c-7.839-5.931-10.92-10.837-6.854-10.903 10.986-.181 29.768 13.018 25.127 17.659-2.213 2.213-10.434-.829-18.273-6.756m33.965.018c-5.833-7.029-6.392-11.27-1.49-11.27 8.936 0 19.356 14.028 14.228 19.156-1.861 1.861-7.592-1.686-12.738-7.886m32.588-.018c-12.509-9.467-12.724-10.812-1.745-11.019 6.876-.127 14.697 3.314 17.379 7.654 8.053 13.032-.436 14.86-15.634 3.365m33.964.018c-5.832-7.029-6.392-11.27-1.49-11.27 8.937 0 19.356 14.028 14.228 19.156-1.861 1.861-7.592-1.686-12.738-7.886m32.588-.018c-12.509-9.467-12.723-10.812-1.745-11.019 6.876-.127 14.697 3.314 17.379 7.654 8.057 13.032-.436 14.86-15.634 3.365m67.519-.763c-11.996-8.773-12.367-10.489-2.275-10.489 6.64 0 14.264 3.547 16.942 7.887 7.839 12.683.822 13.926-14.667 2.602m66.552 0c-11.996-8.773-12.367-10.489-2.275-10.489 6.64 0 14.264 3.547 16.943 7.887 7.839 12.683.821 13.926-14.668 2.602m73.948 0c-11.996-8.773-12.367-10.489-2.275-10.489 6.64 0 14.264 3.547 16.942 7.887 7.839 12.683.822 13.926-14.667 2.602m69.972.781c-5.829-7.029-6.392-11.27-1.49-11.27 8.936 0 19.359 14.028 14.231 19.156-1.864 1.864-7.595-1.686-12.741-7.886m73.948 0c-5.833-7.029-6.393-11.27-1.49-11.27 8.936 0 19.359 14.028 14.228 19.156-1.861 1.864-7.592-1.686-12.738-7.886m32.591-.018c-7.839-5.931-10.924-10.837-6.858-10.903 10.99-.181 29.771 13.018 25.131 17.659-2.214 2.213-10.438-.829-18.273-6.756m33.965.018c-5.833-7.029-6.396-11.27-1.494-11.27 8.94 0 19.359 14.028 14.232 19.156-1.865 1.864-7.596-1.686-12.742-7.886Zm32.587-.018c-12.512-9.467-12.723-10.812-1.748-11.019 6.88-.127 14.7 3.314 17.382 7.654 8.054 13.032-.439 14.86-15.634 3.365m33.965.018c-5.833-7.029-6.396-11.27-1.49-11.27 8.937 0 19.356 14.028 14.228 19.156-1.861 1.864-7.596-1.686-12.738-7.886m32.588-.018c-12.513-9.467-12.724-10.812-1.745-11.015 6.876-.128 14.697 3.31 17.379 7.65 8.053 13.035-.436 14.86-15.634 3.365m67.515-.763c-11.993-8.773-12.367-10.489-2.271-10.489 6.636 0 14.26 3.551 16.942 7.887 7.839 12.683.818 13.926-14.671 2.602m67.315-1.781c-18.592-20.544-15.488-23.499 24.698-23.499 32.043 0 36.97 1.974 36.97 14.791 0 10.896-4.927 14.791-18.715 14.791-10.296 0-20.635-4.993-22.976-11.095-2.344-6.101-7.635-11.091-11.767-11.091-4.274 0-3.481 4.855 1.846 11.269 13.639 16.434 4.445 20.853-10.056 4.834M51.758 264.221c-5.306-6.392-6.025-11.091-1.697-11.091 4.129 0 9.424 4.99 11.764 11.091 2.34 6.102 3.104 11.092 1.697 11.092-1.406 0-6.701-4.99-11.764-11.092m373.435 3.696c-2.514-4.066-1.242-7.392 2.824-7.392 4.067 0 9.453 3.326 11.964 7.392 2.515 4.067 1.243 7.396-2.824 7.396s-9.452-3.325-11.964-7.396m66.553 0c-2.515-4.066-1.243-7.392 2.823-7.392 4.067 0 9.453 3.326 11.964 7.392 2.515 4.067 1.243 7.396-2.824 7.396-4.066 0-9.448-3.325-11.963-7.396m66.552 0c-2.515-4.066-1.243-7.392 2.824-7.392 4.066 0 9.452 3.326 11.967 7.392 2.511 4.067 1.239 7.396-2.827 7.396-4.067 0-9.449-3.325-11.964-7.396m73.948 0c-2.515-4.066-1.243-7.392 2.824-7.392 4.066 0 9.452 3.326 11.963 7.392 2.515 4.067 1.243 7.396-2.824 7.396-4.066 0-9.448-3.325-11.963-7.396m236.631 0c-2.512-4.066-1.243-7.392 2.827-7.392 4.067 0 9.449 3.326 11.964 7.392s1.243 7.396-2.824 7.396-9.452-3.325-11.967-7.396m66.552 0c-2.511-4.066-1.239-7.392 2.827-7.392 4.067 0 9.449 3.326 11.964 7.392s1.243 7.396-2.824 7.396c-4.066 0-9.452-3.325-11.967-7.396m66.556 0c-2.515-4.066-1.243-7.392 2.824-7.392 4.066 0 9.452 3.326 11.963 7.392 2.515 4.067 1.243 7.396-2.823 7.396-4.067 0-9.453-3.325-11.964-7.396m236.631 0c-2.515-4.066-1.243-7.392 2.824-7.392 4.066 0 9.452 3.326 11.967 7.392 2.511 4.067 1.239 7.396-2.828 7.396-4.066 0-9.448-3.325-11.963-7.396m66.552 0c-2.515-4.066-1.243-7.392 2.824-7.392 4.07 0 9.452 3.326 11.967 7.392 2.511 4.067 1.243 7.396-2.824 7.396-4.07 0-9.452-3.325-11.967-7.396m73.948 0c-2.515-4.066-1.243-7.392 2.824-7.392 4.066 0 9.452 3.326 11.967 7.392 2.511 4.067 1.243 7.396-2.827 7.396-4.067 0-9.449-3.325-11.964-7.396m66.552 0c-2.511-4.066-1.243-7.392 2.824-7.392 4.07 0 9.452 3.326 11.967 7.392s1.243 7.396-2.823 7.396c-4.071 0-9.453-3.325-11.968-7.396m73.948 0c-2.511-4.066-1.243-7.392 2.824-7.392 4.07 0 9.452 3.326 11.967 7.392 2.511 4.067 1.243 7.396-2.824 7.396-4.07 0-9.452-3.325-11.967-7.396m236.635 0c-2.515-4.066-1.243-7.392 2.823-7.392 4.067 0 9.453 3.326 11.964 7.392 2.515 4.067 1.243 7.396-2.824 7.396-4.066 0-9.452-3.325-11.963-7.396m66.552 0c-2.515-4.066-1.243-7.392 2.824-7.392 4.066 0 9.452 3.326 11.963 7.392 2.515 4.067 1.243 7.396-2.824 7.396-4.066 0-9.452-3.325-11.963-7.396M39.642 234.643c-11.226-29.255.483-33.278 96.923-33.278h92.667v44.369h-92.667c-75.55 0-93.452-2.049-96.923-11.091m289.417 3.696c-2.511-4.067-22.673-7.396-44.802-7.396-35.306 0-40.237-1.809-40.237-14.787 0-14.508 4.931-14.791 258.817-14.791h258.818v22.187c0 17.251-3.286 22.182-14.791 22.182-8.134 0-14.788-3.328-14.788-7.395 0-4.107-19.719-7.396-44.369-7.396-24.651 0-44.37 3.289-44.37 7.396 0 10.056-308.064 10.056-314.278 0m455.364-12.941-.586-24.033h517.635v22.187c0 12.199-3.329 22.182-7.395 22.182-4.067 0-7.396-3.328-7.396-7.395 0-4.107-19.719-7.396-44.369-7.396-24.647 0-44.366 3.289-44.366 7.396 0 4.702-57.929 7.395-158.987 7.395-101.062 0-158.987-2.693-158.987-7.395 0-11.121-86.711-9.362-91.236 1.85-2.053 5.084-3.994-1.57-4.313-14.791m531.837-1.846v-22.187h525.03v22.187q-.002 22.181-11.092 22.182c-6.101 0-11.095-3.328-11.095-7.395 0-4.107-19.719-7.396-44.366-7.396-24.65 0-44.369 3.289-44.369 7.396 0 4.695-56.693 7.395-155.291 7.395-98.595 0-155.291-2.7-155.291-7.395 0-4.107-19.719-7.396-44.366-7.396-24.651 0-44.369 3.289-44.369 7.396 0 4.067-3.329 7.395-7.396 7.395s-7.395-9.983-7.395-22.182m539.817-48.069v-55.461h59.161v110.921h-59.161ZM37.069 177.332c.055-5.084 2.108-16.731 4.557-25.882 4.354-16.241 6.909-16.637 107.124-16.637 56.468 0 102.665 1.166 102.665 2.594 0 1.425-3.652 13.073-8.118 25.883l-8.119 23.288h-99.104c-74.409 0-99.081-2.304-99.005-9.246m214.346 5.179c0-2.235 5.077-13.882 11.281-25.882l11.284-21.816h502.745l-4.862 20.336c-2.671 11.183-6.258 22.83-7.97 25.883-3.529 6.287-512.478 7.755-512.478 1.479m532.422-10.121c0-39.111-10.717-37.577 262.87-37.577 153.125 0 255.623 2.802 258.25 7.054 2.399 3.881 2.235 15.528-.363 25.882l-4.725 18.829h-258.017c-249.416 0-258.015-.473-258.015-14.188m533.804-9.845 2.318-24.036 221.844-3.991c122.013-2.195 225.833-1.094 230.714 2.45 4.881 3.539 21.518 5.335 36.974 3.99 26.889-2.34 28.201-1.41 30.418 21.587l2.318 24.033h-526.905Zm-217.639-53.615c3.787-19.806 7.381-20.733 72.061-18.556 20.337.683 38.083 4.31 39.438 8.054 3.155 8.711 38.206 8.965 38.206.272 0-11.676 30.229-15.169 34.521-3.987 2.221 5.786 12.196 10.521 22.168 10.521 9.973 0 16.245-3.056 13.937-6.788-2.344-3.794 19.054-7.868 48.589-9.242 37.312-1.737 53.818.251 56.311 6.785 4.837 12.665 24.429 11.633 34.412-1.817 7.287-9.82 10.586-9.82 29.39 0 24.468 12.778 41.672 14.293 41.672 3.667 0-10.823 98.639-9.325 109.628 1.664 7.149 7.145 12.117 7.145 23.564 0 7.977-4.982 19.181-9.06 24.894-9.06 5.717 0 12.538-8.544 15.158-18.988 4.576-18.233 6.705-18.916 53.648-17.212 47.313 1.716 49.857.873 79.228-26.235L1867.172 0l72.818 7.13c68.26 6.683 80.002 11.153 87.921 33.474 1.098 3.089 16.957 8.163 35.244 11.27 26.617 4.521 33.725 8.933 35.615 22.11 1.468 10.223 7.541 16.459 16.023 16.459 7.512 0 15.06 4.161 16.771 9.242 2.432 7.236 5.459 7.308 13.905.342 6.697-5.524 31.682-8.334 65.814-7.396 46.547 1.276 55.418 3.572 57.594 14.907 2.399 12.513-3.23 13.127-84.952 9.246-267.768-12.716-342.635-12.92-342.635-.934 0 8.78-8.017 11.567-33.278 11.567-24.647 0-33.275-2.874-33.275-11.091 0-7.766-7.831-11.092-26.115-11.092-16.39 0-27.699 4.129-30.37 11.092-3.689 9.612-45.384 11.091-313.021 11.091h-308.762Z"/></svg>