<svg xmlns="http://www.w3.org/2000/svg" width="2624.864" height="1000" viewBox="0 0 2624.864 1000"><path d="M1335.73 982.643c0-9.547-2.595-24.181-5.767-32.522-5.648-14.863-5.237-15.169 20.3-15.169 21.889 0 26.715 2.133 30.12 13.305 8.62 28.281 19.552 34.001 64.982 34.001 38.919 0 43.614-1.308 52.307-14.577 5.251-8.017 9.55-18.657 9.55-23.651 0-7.155 7.523-9.078 35.481-9.078 33.089 0 44.169 5.757 29.051 15.1-3.536 2.184-5.175 8.769-3.641 14.631 2.151 8.232-3.965 13.461-26.886 22.986-25.541 10.616-41.902 12.331-117.583 12.331h-87.914Zm-29.567-80.424c0-18.835 1.134-20.3 11.44-14.783 6.829 3.652 60.785 6.12 133.879 6.12 109.675 0 123.259 1.079 130.295 10.35 4.321 5.691 7.941 12.345 8.046 14.783.113 2.439-63.677 4.434-141.736 4.434h-141.924Zm15.772-24.432c-2.17-2.166-3.943-17.706-3.943-34.532 0-27.038 1.748-31.384 15.06-37.45 22.684-10.335 25.461-8.787 27.456 15.311l1.835 22.176 59.132 2.74 59.135 2.74-59.135 3.172c-55.705 2.991-59.244 3.947-61.022 16.481-1.439 10.132-5.789 13.305-18.236 13.305-8.987 0-18.116-1.773-20.286-3.943Zm167.546-63.114c0-65.786.279-67.181 14.783-73.788l14.784-6.738V881.73h-29.567Zm41.393-9.406c0-42.992 2.409-77.287 5.433-77.287 2.983 0 9.717-1.647 14.958-3.656 8.522-3.271 9.354 4.717 7.875 75.394-1.61 76.906-2.017 79.105-14.958 80.944-13.218 1.878-13.308 1.37-13.308-75.395m-165.576 64.637c0-3.506 21.685-5.916 53.222-5.916s53.222 2.41 53.222 5.916c0 3.504-21.685 5.913-53.222 5.913s-53.222-2.409-53.222-5.913m499.998-1.479c-6.367-20.693.727-30.726 39.114-55.333 30.415-19.494 40.409-29.212 40.409-39.293 0-14.079-19.203-53.931-48.019-99.656l-17.156-27.227-45.158-3.816c-24.836-2.1-48.894-6.919-53.463-10.709-4.564-3.791-26.126-6.811-47.916-6.716-25.893.112-30.763-.702-14.068-2.344l25.545-2.515-1.498-32.322c-1.221-26.355.615-33.776 9.936-40.18 18.88-12.959 76.441-32.413 108.505-36.668 27.082-3.591 30.069-2.86 30.069 7.352 0 6.236 5.005 21.15 11.121 33.147 9.369 18.378 9.834 22.877 2.954 28.586-11.916 9.889-10.59 13.628 15.504 43.777 13.017 15.038 34.47 49.668 47.676 76.953 14.559 30.077 28.525 51.042 35.47 53.248 15.372 4.877 15.219 34.557-.266 50.039-10.161 10.164-124.346 71.069-133.239 71.069-1.788 0-4.27-3.329-5.524-7.392Zm140.627-83.836c5.026-13.097-10.608-23.226-19.435-12.589-3.965 4.776-5.491 11.459-3.395 14.857 5.517 8.922 19.054 7.577 22.83-2.268m-159.412-219.452c2.024-5.27-.363-10.576-5.677-12.614-11.044-4.238-23.124 6.276-17.56 15.278 5.8 9.39 19.203 7.853 23.237-2.664m-475.3 257.458c0-17.677.112-17.742 34.375-17.742 30.476 0 36.302 2.013 51.372 17.742l16.994 17.742h-102.741Zm79.831-11.826c-14.802-15.452-21.238-17.774-49.89-18.01l-32.896-.273 53.222-20.384c29.27-11.211 53.884-20.402 54.698-20.428.814-.021 1.479 17.255 1.479 38.395s-2.166 38.439-4.808 38.439c-2.646 0-12.454-7.984-21.805-17.742Zm408.294 4.434c-1.276-4.066-5.484-18.036-9.344-31.046-3.863-13.007-13.38-35.299-21.147-49.53-7.77-14.232-14.126-26.501-14.126-27.26 0-.763 15.017-2.937 33.369-4.83 18.353-1.893 36.156-6.233 39.565-9.641 4.321-4.321 12.12 4.891 25.766 30.432 26.955 50.449 25.905 57.234-12.399 80.144-35.829 21.431-38.41 22.158-41.684 11.731m-625.522-2.304c-1.588-2.798-4.637-12.407-6.778-21.351-3.398-14.227-2.148-16.259 10.001-16.259 10.601 0 13.778 3.151 13.418 13.305-.287 8.093 3.005 13.305 8.402 13.305s8.686-5.212 8.398-13.305c-.258-7.319 2.621-13.305 6.393-13.305 3.776 0 25.941-19.675 49.257-43.722 43.563-44.929 52.038-64.776 30.567-71.593-11.033-3.5-11.829-8.948-11.829-80.962v-77.211l-54.698-52.288-54.697-52.289-118.27.018-118.27.015-16.263 21.434c-8.944 11.789-16.259 27.66-16.259 35.266 0 13.632-.905 13.832-62.875 13.832-52.477 0-66.022 1.948-81.939 11.785-17.201 10.63-19.447 15.358-22.874 48.175-2.093 20.013-3.805 46.644-3.805 59.175 0 12.534-2.66 23.186-5.912 23.673-3.253.49-8.719 1.155-12.146 1.479-3.423.327-13.402-12.556-22.175-28.623-15.009-27.507-18.891-30.363-66.207-48.778l-50.264-19.562-130.576-.008-130.575-.01-7.744 14.471c-8.264 15.441-21.464 23.167-30.269 17.724-2.958-1.828-5.382-20.464-5.382-41.412v-38.089l116.791.21c90.098.16 120.17 2.141 131.574 8.661 8.133 4.648 17.448 8.435 20.697 8.413 17.749-.113-39.097-22.743-57.656-22.95-21.351-.24-22.176-1.014-22.176-20.944 0-11.385-2.66-20.696-5.913-20.696-3.252 0-5.912 9.311-5.912 20.696 0 14.453-2.675 20.697-8.871 20.697-6.193 0-8.868-6.244-8.868-20.697 0-14.456-2.678-20.696-8.871-20.696-6.196 0-8.871 6.24-8.871 20.696 0 25.832-10.415 27.387-12.93 1.934-2.678-27.111-16.637-29.146-16.637-2.428 0 14.893-2.635 21.191-8.871 21.191-6.193 0-8.871-6.244-8.871-20.697 0-14.456-2.675-20.696-8.867-20.696-6.197 0-8.871 6.24-8.871 20.696 0 11.383-2.661 20.697-5.913 20.697s-5.913-9.314-5.913-20.697c0-14.456-2.678-20.696-8.871-20.696-6.196 0-8.871 6.24-8.871 20.696 0 14.453-2.675 20.697-8.871 20.697-6.232 0-8.871-6.298-8.871-21.191 0-14.358-2.38-20.373-7.392-18.654-4.063 1.392-7.363 10.928-7.333 21.187.032 11.092-2.962 18.658-7.392 18.658-4.747 0-7.45-8.577-7.45-23.655v-23.655h230.805l31.61 17.841 31.613 17.84 156.051-1.578 156.051-1.577 1.82-14.784c1-8.129 11.274-23.433 22.827-34.001l21.009-19.221h123.921c74.827 0 129.034 2.475 136.833 6.24 12.476 6.029 12.527 5.927 1.439-2.955-9.609-7.697-32.805-9.198-142.201-9.198H971.497L949.601 395.6c-12.043 12.334-21.899 26.969-21.899 32.522 0 9.271-12.872 10.099-156.618 10.099H614.467l-28.83-17.738-28.834-17.742H444.806c-115.875 0-126.189 2.031-126.189 24.836 0 5.854-2.66 10.644-5.913 10.644-3.285 0-5.912-15.768-5.912-35.48v-35.48h639.15l-1.73-45.355c-2.094-55.053-13.552-65.462-13.552-12.316v36.974h-94.615v-36.97c0-33.027-1.261-36.97-11.826-36.97-10.568 0-11.829 3.943-11.829 36.97v36.97h-82.786v-36.97c0-33.027-1.261-36.97-11.829-36.97-10.565 0-11.826 3.943-11.826 36.97v36.97h-82.79v-36.97c0-33.027-1.261-36.97-11.825-36.97-10.568 0-11.829 3.943-11.829 36.97v36.97h-82.786v-36.97c0-33.027-1.261-36.97-11.83-36.97-10.564 0-11.825 3.943-11.825 36.97v36.97l-88.292 1.639c-56.784 1.058-91.29 4.132-96.69 8.613-7.214 5.986-8.104-8.144-6.324-100.208 1.141-58.946 3.507-108.603 5.259-110.351 2.34-2.333 617.381-5.902 686.819-3.983 8.479.232 10.285 8.838 12.16 57.932 1.214 31.708 5.786 66.966 10.161 78.352 4.376 11.382 8.798 24.022 9.83 28.089 1.411 5.571 28.14 7.391 108.502 7.391h106.626v29.568c0 22.339 2.17 29.567 8.871 29.567 4.877 0 8.871 5.023 8.871 11.165 0 6.178 21.064 31.668 47.131 57.034l47.132 45.867 1.657 71.585 1.653 71.582 36.92 24.269 36.923 24.269 74.071-14.787c40.743-8.134 75.816-13.047 77.946-10.917 2.129 2.129 1.41 13.442-1.596 25.144l-5.466 21.275-150.795 56.108c-151.646 56.427-185.288 66.508-190.615 57.132Zm176.188-125.745c-5.081-8.217-19.167-8.395-24.168-.309-2.097 3.394-.487 10.179 3.58 15.081 6.469 7.792 8.468 7.832 15.994.309 4.728-4.731 6.796-11.516 4.594-15.081m154.444 1.791c4.535-11.818-9.849-21.605-19.715-13.417-8.948 7.428-3.773 22.884 7.66 22.884 4.634 0 10.056-4.259 12.055-9.467M761.279 490.793c-4.412-2.795-41.287-4.619-81.939-4.056l-73.919 1.032 71.971 3.315c39.587 1.824 73.886 5.236 76.223 7.588 2.336 2.351 6.821 2.685 9.968.741 3.34-2.064 2.381-5.651-2.304-8.62M530.034 386.478c1.872-5.64-14.471-7.392-69.002-7.392-60.228 0-71.454 1.425-71.454 9.057 0 7.715 10.248 8.812 69.001 7.391 48.716-1.173 69.722-3.837 71.455-9.056m159.663 0c1.872-5.64-14.471-7.392-69.002-7.392-60.228 0-71.454 1.425-71.454 9.057 0 7.715 10.248 8.812 69.001 7.391 48.716-1.173 69.722-3.837 71.455-9.056m159.663 0c1.872-5.64-14.471-7.392-69.002-7.392-60.228 0-71.454 1.425-71.454 9.057 0 7.715 10.252 8.812 69.001 7.391 48.716-1.173 69.722-3.837 71.455-9.056m65.073 0c1.705-5.193-5.64-7.392-24.676-7.392-25.519 0-32.598 4.358-22.877 14.079 6.775 6.778 44.89 1.417 47.553-6.687m-529.754-58.572c13.86-12.545 13.661-21.285-.792-34.364-13.338-12.073-26.195-9.096-35.452 8.198-5.189 9.7-4.121 14.341 5.528 23.99 14.486 14.485 16.921 14.656 30.716 2.176m-26.639-5.981c-8.663-8.668-3.677-25.629 7.538-25.629 15.092 0 20.903 10.18 11.96 20.959-7.806 9.405-13.418 10.75-19.498 4.67m102.891 9.645c6.49-3.475 11.436-12.335 11.436-20.49 0-12.032-14.133-26.609-25.799-26.609-6.178 0-21.51 18.967-21.51 26.609 0 7.647 15.332 26.613 21.51 26.613 1.607 0 8.072-2.755 14.363-6.123m-23.666-14.119c-9.18-11.062-3.354-21.155 12.207-21.155 8.842 0 11.408 3.297 10.001 12.844-2.362 16.048-12.607 19.882-22.208 8.311M892.61 331.57c24.342-13.025 5.117-53.379-20.707-43.469-15.009 5.761-18.85 32.268-6.033 41.641 13.04 9.536 12.422 9.492 26.74 1.828m-23.662-14.119c-9.18-11.062-3.358-21.155 12.207-21.155 8.842 0 11.404 3.297 10.002 12.844-2.363 16.048-12.607 19.882-22.209 8.311m-503.639-56.126c13.544-8.577 2.845-24.16-16.59-24.16-20.577 0-28.154 8.791-18.058 20.955 8.038 9.688 22.321 11.008 34.648 3.205m158.801.661c4.067-1.337 7.392-7.471 7.392-13.628 0-10.361-5.28-11.193-70.96-11.193-64.87 0-70.964.93-70.964 10.841 0 5.96 1.998 12.847 4.437 15.296 4.419 4.441 116.042 3.314 130.095-1.316m156.705.953c5.691-1.607 10.35-8.061 10.35-14.348 0-10.659-4.768-11.426-70.96-11.426-64.87 0-70.964.93-70.964 10.841 0 5.96 1.515 12.356 3.365 14.206 4.139 4.139 113.894 4.76 128.209.727m158.184.835c6.505-2.064 11.829-8.896 11.829-15.183 0-10.659-4.768-11.43-70.96-11.43-64.87 0-70.964.934-70.964 10.845 0 5.96 1.279 12.12 2.842 13.682 4.47 4.467 114.083 6.266 127.253 2.086m76.663-5.654c10.51-12.665 2.264-20.959-20.831-20.959-15.791 0-20.348 2.432-20.348 10.845 0 5.96 1.774 12.614 3.94 14.784 7.039 7.035 29.905 4.168 37.239-4.67m-449.825-43.458c4.204-7.853 2.257-16.844-7.356-34.004l-13.072-23.328-60.123-1.679c-56.308-1.577-60.553-.879-66.912 11.004-5.935 11.092-3.965 15.576 15.666 35.684l22.46 22.997h51.812c43.897 0 52.684-1.632 57.525-10.674m-122.293-20.536c-18.698-19.294-19.621-27.925-2.984-27.925 4.477 0 7.363 4.659 6.407 10.35-1.519 9.042 4.975 10.721 51.482 13.305 42.05 2.336 53.222 4.819 53.222 11.825 0 6.949-9.638 9.242-44.453 10.576-43.588 1.668-44.824 1.315-63.674-18.131m287.869 20.536c4.204-7.853 2.26-16.844-7.356-34.004l-13.072-23.328-60.469-1.683c-59.778-1.668-60.552-1.511-67.341 13.385-6.287 13.799-4.909 16.808 16.296 35.684 22.688 20.191 24.214 20.613 74.696 20.616 43.632.004 52.409-1.631 57.246-10.67m-122.344-19.213c-19.232-17.492-20.664-29.248-3.569-29.248 5.081 0 8.05 4.361 7.043 10.35-1.523 9.071 4.463 10.565 48.494 12.087 27.627.96 52.884 4.398 56.126 7.639 10.303 10.299-9.678 17.055-50.18 16.968-34.361-.073-40.503-1.962-57.914-17.796m282.007 19.213c4.204-7.853 2.26-16.844-7.356-34.004l-13.068-23.328-58.874-1.708c-50.246-1.457-59.967-.211-66.352 8.522-10.572 14.457-10.012 15.99 14.522 39.819 21.874 21.249 22.306 21.373 73.708 21.373 43.795 0 52.583-1.632 57.42-10.674M668.568 193.9c-18.501-19.086-19.363-27.699-2.769-27.699 4.481 0 7.363 4.659 6.407 10.35-1.523 9.071 4.463 10.565 48.494 12.087 27.627.96 52.884 4.398 56.126 7.639 10.285 10.285-9.634 17.048-50.5 17.143-36.171.083-40.023-1.218-57.758-19.52m276.53 20.254c4.539-8.482 2.806-17.034-7.184-35.43l-13.167-24.25-60.407-.051c-55.435-.044-60.952.977-67.083 12.436-5.8 10.83-3.71 15.525 15.776 35.48l22.456 22.997h51.812c44.762 0 52.626-1.523 57.797-11.182m-119.56-17.005c-17.872-18.654-20.743-30.948-7.235-30.948 4.88 0 8.871 5.219 8.871 11.597 0 10.506 4.866 11.76 51.743 13.304 41.291 1.367 51.743 3.504 51.743 10.579 0 6.949-9.645 9.242-44.508 10.576-42.214 1.613-45.336.835-60.614-15.108m409.664 560.747c0-3.06 2.66-7.21 5.913-9.22 3.627-2.242 5.916-49.955 5.916-123.423V505.482l-16.47-15.776c-18.665-17.883-38.416-20.26-177.197-21.321-74.733-.571-78.353-1.156-78.353-12.662 0-6.639 5.822-19.944 12.938-29.567l12.941-17.502h225.703l48.658 48.908 48.654 48.912v154.561l15.637 7.123 15.638 7.126-17.022 18.956c-57.264 63.765-63.841 69.22-83.488 69.22-10.709 0-19.468-2.504-19.468-5.564m756.922-17.942c0-14.653-36.494-82.942-58.539-109.548-24.007-28.971-28.375-43.966-14.18-48.694 15.405-5.128 96.374 125.102 96.374 155.008 0 5.059-5.182 9.002-11.829 9.002-6.502 0-11.826-2.595-11.826-5.768m-189.252-62.293c-3.434-9.038-7.843-19.014-9.794-22.172-6.436-10.415 82.866 1.468 91.185 12.135 9.939 12.748 1.083 17.509-41.993 22.571-32.271 3.794-33.314 3.46-39.398-12.534m-403.569-36.091c-20.225-15.238-28.092-25.257-28.092-35.781 0-11.924 2.176-13.923 11.829-10.863 10.619 3.373 11.825 1.065 11.825-22.623 0-32.58 2.181-33.554 74.969-33.554 47.477 0 58.95-1.919 73.512-12.283l17.251-12.284-12.498-17.549-12.494-17.549-85.544.857c-47.052.473-87.144-.737-89.095-2.689-1.955-1.952-.447-3.551 3.347-3.551 8.148 0 9.34-21.448 1.461-26.314-2.991-1.85-9.264.465-13.941 5.142-7.395 7.399-12.138 4.815-36.418-19.832-23.011-23.364-26.166-29.011-17.967-32.155 5.778-2.217 8.526-7.508 6.556-12.636-2.969-7.744 31.948-8.82 286.19-8.82h289.573v24.571c0 23.146-.607 24.018-10.481 15.081-8.449-7.642-26.486-9.666-92.867-10.419-100.593-1.141-103.621.789-103.621 66.037v40.739h-53.222c-47.789 0-53.222 1.115-53.222 10.909 0 17.793-18.8 29.597-50.304 31.581l-29.528 1.861v47.309l46.303 11.059c25.468 6.08 44.093 13.221 41.397 15.87-2.7 2.65-30.189 9.049-61.087 14.224-30.897 5.175-62.831 10.627-70.964 12.117-10.521 1.929-22.877-3.391-42.872-18.455Zm204.857-147.655c6.658-17.353 3.66-26.348-11.019-33.035-11.171-5.091-16.735-4.891-23.655.851-9.19 7.624-12.283 30.414-5.102 37.595 7.752 7.752 36.211 3.881 39.776-5.411m-35.895-11.939c-4.139-10.789 7.879-20.514 19.73-15.964 4.361 1.671 7.93 8.078 7.93 14.235 0 13.973-22.423 15.372-27.66 1.729m4.005 140.039c-4.88-2.795-24.294-8.486-43.144-12.65-38.646-8.537-42.32-11.844-36.949-33.238 3.409-13.592 5.971-14.824 24.549-11.808 27.358 4.437 35.146.825 49.991-23.2l12.429-20.112h105.478l.091-22.172c.043-12.2 2.053-19.094 4.452-15.329 2.394 3.769 14.205 8.697 26.245 10.957l21.893 4.107-12.277 16.604c-7.29 9.856-13.039 28.016-14.155 44.701-1.246 18.617-5.989 32.205-14.064 40.281-6.894 6.894-12.182 9.045-12.182 4.957 0-3.976 2.661-7.229 5.913-7.229 8.424 0 7.33-31.45-1.479-42.465-10.448-13.065-31.221-16.779-70.75-12.647l-34.215 3.576v27.809c0 38.071 10.404 46.241 62.224 48.879 38.933 1.981 38.257 2.155-11.96 3.078-29.27.538-57.213-1.308-62.09-4.099m887.992-66.49c-31.432-35.408-62.475-65.564-68.98-67.018s-53.855-6.625-105.223-11.495c-51.373-4.866-95.946-10.423-99.053-12.341-3.107-1.923-5.651-15.725-5.651-30.673v-27.176l208.313 4.23c114.571 2.326 208.873 4.79 209.56 5.477 1.45 1.446-15.892 195.423-17.585 196.713-.622.476-15.326 2.166-32.679 3.758l-31.548 2.9Zm58.161-19.97c0-36.811-18.483-61.854-45.649-61.854-31.308 0-30 13.411 5.164 52.914 17.386 19.533 33.609 35.575 36.048 35.651 2.442.076 4.437-11.946 4.437-26.711m72.843 72.679c1.744-7.319 6.501-53.949 10.579-103.624 4.808-58.575 9.638-89.575 13.737-88.205 6.603 2.206 6.509 5.586-2.875 101.648-8.202 83.949-11.709 103.486-18.57 103.486-3.322 0-4.612-5.989-2.871-13.305M1372.45 537.27l1.719-48.785 76.873-1.697c73.145-1.613 77.389-1.065 87.5 11.342 9.674 11.877 9.79 13.872 1.293 22.394-7.05 7.072-26.256 10.077-78.628 12.312l-69.3 2.959-1.817 25.13c-1.265 17.451-4.499 25.134-10.59 25.134-7.177 0-8.457-8.842-7.05-48.789m353.57-.821c0-4.521 4.663-13.977 10.365-21.02 9.035-11.157 15.3-12.571 48.789-11.001l38.416 1.796-40.579 19.221c-44.46 21.056-56.991 23.476-56.991 11.004m100.529-36.723c0-4.023-1.403-10.968-3.111-15.427-2.046-5.328 4.55-10.866 19.217-16.147 44.206-15.91 48.941-21.732 48.941-60.178v-34.801h41.393v-72.814c0-72.054-.178-72.973-16.586-88.698-9.612-9.213-23.284-15.893-32.522-15.893-8.816 0-15.932-3.303-15.929-7.391.008-5.597-16.728-6.942-68.943-5.539-68.689 1.843-69.049 1.93-93.758 22.176l-24.799 20.322-64.441.113-64.437.116-22.412 38.322-22.412 38.326h-174.203l-19.105-34.754c-10.506-19.115-19.105-36.792-19.105-39.288 0-2.493 34.528-3.133 76.728-1.421 60.981 2.474 78.12 1.435 83.513-5.063 5.171-6.232 26.079-8.177 87.932-8.177 71.106 0 82.357-1.337 90.934-10.815 5.382-5.945 9.787-12.472 9.787-14.5s-41.913-4.975-93.136-6.553c-111.169-3.416-167.989-8.572-175.632-15.939-3.089-2.976-31.693-5.415-63.569-5.415-47.571 0-57.95-1.588-57.95-8.867 0-5.917 5.913-8.871 17.738-8.871 9.758 0 17.742 2.66 17.742 5.913 0 3.252 3.991 5.912 8.871 5.912 4.877 0 8.868-2.66 8.868-5.912 0-9.257 214.39-7.843 224.271 1.479 6.265 5.913 8.377 5.913 10.543 0 3.434-9.369 214.611-10.823 214.611-1.479 0 3.252 3.99 5.912 8.867 5.912 4.881 0 8.871-2.66 8.871-5.912 0-3.416 18.727-5.913 44.352-5.913 44.296 0 44.351.018 44.94 16.259l.588 16.263 4.081-14.784c7.098-25.715 30.098-22.379 94.14 13.646 85.846 48.287 92.845 51.304 126.646 54.564 17.546 1.693 38.203 8.126 47.215 14.707 15.173 11.081 26.054 11.698 205.141 11.698 144.803 0 190.245 1.734 193.908 7.392 2.631 4.067 4.782 34.67 4.782 68.006v60.611l-19.217.003c-13.141 0-19.221-2.805-19.221-8.871 0-4.88-4.074-8.871-9.056-8.871-4.979 0-10.587 3.991-12.458 8.871-2.199 5.724-11.346 8.871-25.792 8.871s-23.596-3.147-25.792-8.871c-1.875-4.88-7.562-8.871-12.646-8.871s-10.772 3.991-12.644 8.871c-2.809 7.316-18.338 8.871-88.702 8.871s-85.893-1.555-88.703-8.871c-1.875-4.88-7.195-8.871-11.825-8.871-4.634 0-9.958 3.991-11.829 8.871-2.722 7.098-15.689 8.871-64.863 8.871-57.383 0-77.411 5.964-49.631 14.784 6.505 2.064 11.829 8.679 11.829 14.697s1.512 14.889 3.361 19.711c2.504 6.527-2.776 9.802-20.696 12.829-13.232 2.235-24.062 6.494-24.062 9.46 0 2.965-31.933 5.393-70.96 5.393-65.717 0-71.942.985-84.222 13.304-15.689 15.74-75.441 30.498-75.441 18.633m224.71-149.691v-34.961l-48.785-27.921c-26.834-15.358-50.783-29.051-53.222-30.432-2.438-1.385-4.433 26.914-4.433 62.881v65.397h106.44Zm-88.702-18.186v-47.24l36.959 22.565c34.888 21.296 37.061 23.941 38.777 47.236l1.82 24.676h-77.556Zm223.599-51.746c-2.97-15.413-22.539-17.132-22.539-1.977 0 8.46 3.797 12.258 12.258 12.258 8.463 0 11.647-3.184 10.281-10.281m-694.201.777c6.244-2.395 9.355-11.011 9.355-25.918 0-19.668-1.945-22.707-16.263-25.443-8.944-1.712-20.253-.771-25.134 2.086-7.13 4.179-6.462 5.233 3.412 5.378 10.256.149 11.851 3.108 9.678 17.92l-2.605 17.742h-58.114c-32.362 0-59.735 2.621-61.77 5.913-4.001 6.476 125.091 8.599 141.441 2.322m252.97 204.709c-36.032-4.092-55.155-13.09-46.411-21.834 5.076-5.077 104.939 14.653 112.956 22.314 6.331 6.054-10.059 5.938-66.545-.48m-60.21-35.837c-.135-32.867 5.716-35.186 88.877-35.186 64.931 0 76.066 1.425 84.563 10.816 5.382 5.945 9.787 12.272 9.787 14.053 0 1.784-13.807 9.184-30.684 16.441-24.625 10.593-36.596 12.407-60.614 9.183-77.015-10.335-81.608-10.459-86.74-2.358-3.416 5.386-5.128 1.108-5.189-12.949m479.043 3.627c-4.226-11.117-10.51-14.834-27.485-16.263-17.982-1.515-22.179-4.284-22.953-15.158-.876-12.254 1.544-13.304 30.585-13.304h31.537v29.567c0 32.62-3.38 37.003-11.684 15.158m413.8-126.883c0-49.806 1.879-65.135 8.289-67.595 4.561-1.752 9.885-1.592 11.83.353 1.944 1.944 3.532 32.362 3.532 67.595 0 60.12-.727 64.063-11.826 64.063-11.102 0-11.825-3.943-11.825-64.416m34.372 14.152c-.611-27.645-1.28-57.362-1.479-66.033-.204-8.675 2.958-16.877 7.021-18.232 5.629-1.879 7.392 13.864 7.392 66.032 0 80.257-11.219 96.069-12.934 18.233M12.901 361.086c1.737-6.647-.596-19.286-5.19-28.088C-2.9 312.657-2.813 311.077 9.55 298.713c5.64-5.644 9.507-15.965 8.595-22.942-1.621-12.353.363-12.716 76.964-14.075 43.247-.767 103.243.37 133.327 2.522l54.701 3.917v97.414l-39.918 3.769c-21.95 2.075-83.465 3.79-136.699 3.812-94.575.04-96.708-.233-93.619-12.044m57.351-8.609c10.048-12.109-5.106-12.244-21.046-.185-11.251 8.511-11.229 8.685 1.105 8.867 6.919.105 15.892-3.801 19.941-8.682m65.436 2.747c15.46-8.275 14.391-14.289-4.034-22.684-13.141-5.986-16.666-5.462-23.382 3.485-6.716 8.955-6.443 11.648 1.821 17.931 11.738 8.918 11.338 8.9 25.595 1.268m67.919-5.371c-8.562-9.46-12.385-10.256-21.612-4.492-17.015 10.627-13.527 15.983 10.401 15.983 21.027 0 21.332-.309 11.211-11.491M59.382 336.708c29.309-8.783 26.307-17.462-9.54-27.587-23.945-6.763-29.596-6.745-36.469.128-6.897 6.897-6.737 10.117 1.058 21.245 10.586 15.114 13.77 15.554 44.951 6.214m140.965-37.453c0-25.461-.745-26.61-17.255-26.61-9.492 0-21.365 1.578-26.387 3.504-8.185 3.14-8.148 5.008.363 17.996 7.428 11.335 32.119 29.931 41.804 31.483.81.131 1.475-11.739 1.475-26.373m-65.048-3.224v-23.923l-22.175 4.008c-12.197 2.206-23.164 4.87-24.375 5.916-3.601 3.126 33.271 37.919 40.183 37.919 3.504 0 6.367-10.764 6.367-23.92m-76.873-5.298c0-8.635-9.743-12.604-20.66-8.413-7.89 3.027-8.297 4.811-2.013 8.798 10.571 6.698 22.673 6.494 22.673-.385m1194.518 41.047v-29.567h-224.711v-44.002c0-24.204-2.663-45.649-5.916-47.659s-5.913-7.49-5.913-12.174c0-7.105 17.709-8.522 106.445-8.522h106.44v20.696c0 20.555.182 20.697 26.323 20.697h26.322l22.463 42.872 22.466 42.876 92.384 1.624 92.387 1.625 25.458-44.501 25.46-44.496h64.692c64.019 0 64.91-.193 85.734-18.476l21.041-18.476 78.8 2.671c72.61 2.464 79.958 3.765 93.572 16.553 14.068 13.214 14.773 17.07 14.773 80.849v66.974h-668.22Zm645.579-39.354c13.265-12.007 14.068-39.336 1.523-51.885-20.893-20.889-61.672-4.252-61.672 25.163 0 31.632 36.705 47.938 60.149 26.722m-46.048-16.481c-6.077-15.827.61-29.883 15.198-31.951 18.592-2.635 31.799 13.933 23.487 29.465-6.988 13.054-33.968 14.788-38.685 2.486m693.2-5.8c3.547-9.245 19.905-17.364 24.905-12.363 3.278 3.278-16.419 20.256-23.883 20.587-2.337.106-2.799-3.598-1.022-8.224M233.44 223.526c-6.491-4.746-9.776-13.29-8.522-22.175 1.831-12.956 5.258-14.639 33.085-16.238l31.047-1.788v23.964c0 23.811-.142 23.96-22.525 23.96-12.385 0-27.274-3.475-33.085-7.723m1001.762-24.799c0-15.551-2.573-20.842-10.346-21.271-5.695-.316-51.598-.585-102.007-.6l-91.661-.021v-28.372h101.317c93.51 0 101.538.839 104.173 10.909 2.42 9.26 11.244 11.488 58.346 14.733 145.824 10.038 153.063 11.048 153.063 21.325 0 21.533-11.647 23.993-113.538 23.993h-99.347Zm-189.23-76.205c0-10.325 25.094-15.925 87.223-19.461 41.611-2.369 48.785-1.406 48.785 6.527 0 5.121 3.994 9.307 8.871 9.307 4.881 0 8.871-2.66 8.871-5.913 0-9.438 27.95-6.832 31.704 2.955 1.966 5.12 10.805 8.871 20.908 8.871 9.627 0 21.496-3.99 26.376-8.871 9.969-9.969 33.369-12.04 33.369-2.955 0 3.253 11.975 5.913 26.609 5.913s26.61-2.66 26.61-5.913c0-3.252 6.654-5.916 14.784-5.916 8.133 0 14.783 2.664 14.783 5.916s10.645 5.913 23.655 5.913 23.655-2.66 23.655-5.913c0-3.252 6.494-5.916 14.435-5.916 7.937 0 16.077 2.664 18.087 5.916 4.768 7.712 50.264 7.712 50.264 0 0-3.252 6.654-5.916 14.784-5.916 8.133 0 14.783 2.664 14.783 5.916 0 7.712 45.5 7.712 50.264 0 4.761-7.7 32.526-7.7 32.526 0 0 7.712 45.496 7.712 50.264 0 4.757-7.7 32.526-7.7 32.526 0 0 3.253 5.32 5.913 11.825 5.913 8.846 0 11.946-4.099 12.295-16.263.258-8.943 1.806-12.934 3.448-8.871 2.003 4.968 17.143 7.392 46.118 7.392 31.126 0 45.183 2.471 50.493 8.871 4.052 4.877 11.03 8.871 15.51 8.871 4.478 0 8.145 2.66 8.145 5.913 0 3.885-140.937 5.913-410.984 5.913-346.426 0-410.986-1.287-410.986-8.199m806.837-18.222c-7.363-5.571-25.668-8.751-51.045-8.871-21.762-.105-41.321-3.027-43.465-6.494-5.869-9.5-1.973-11.077 37.683-15.22 30.879-3.227 36.479-5.578 36.479-15.31 0-6.324 8.326-23.088 18.502-37.258 16.695-23.244 19.392-24.868 27.648-16.611 7.589 7.588 7.868 11.196 1.65 21.15-4.201 6.731-5.164 13.607-2.191 15.649 7.675 5.27 8.228 54.912.709 63.968-8.126 9.794-11.88 9.649-25.966-1.003Zm-804.966-4.212c-7.602-9.612-8.14-52.604-.777-61.977 3.325-4.23 3.016-8.336-.807-10.698-9.253-5.721-7.487-26.788 2.246-26.788 10.895 0 27.034 16.139 27.034 27.035 0 4.644 2.486 8.445 5.52 8.445 3.039 0 6.364 7.32 7.392 16.263 1.745 15.169 3.962 16.383 32.919 18.051 25.697 1.479 31.043 3.682 31.043 12.8 0 9.289-5.782 11.418-36.956 13.613-20.33 1.428-42.469 4.503-49.199 6.829-7.599 2.624-14.584 1.268-18.415-3.573m122.311-10.76c0-3.253 2.661-5.913 5.913-5.913s5.913 2.66 5.913 5.913c0 3.252-2.66 5.912-5.913 5.912-3.252 0-5.913-2.66-5.913-5.912"/></svg>