<svg xmlns="http://www.w3.org/2000/svg" width="5028.135" height="1000" viewBox="0 0 5028.135 1000"><path d="M3977.979 990.08c-11.328-8.727-13.793-23.307-13.793-81.69 0-88.404 4.33-93.33 78.936-89.884 32.412 1.496 55.361-.887 58.574-6.086 2.905-4.701 20.908-8.548 40.001-8.548 39.06 0 53.889-16.037 49.559-53.589-3.341-28.942-17.314-23.922-22.159 7.96-2.944 19.358-7.936 25.924-19.704 25.924-12.01 0-16.699-6.566-19.702-27.583l-3.94-27.583-69.088-2.278c-75.483-2.493-83.832 2.227-69.708 39.378 6.543 17.205 4.303 23.323-15.44 42.241-22.459 21.52-23.089 24.227-23.089 99.456v77.34h-99.094l3.162-101.551c4.304-138.071 7.579-134.885-138.748-134.885-128.53 0-143.616-5.841-143.616-55.614v-31.076h51.229c49.387 0 51.225.705 51.225 19.701v19.705h605.031l12.73-19.429c10.114-15.436 12.727-41.076 12.727-124.873 0-133.573 1.328-131.937-116.984-144.138l-83.983-8.657 167.472-1.195c144.142-1.025 167.473.455 167.473 10.631 0 9.981 20.23 12.006 130.04 13.003 71.518.65 134.173 1.538 139.232 1.97 5.055.437 10.67-3.645 12.477-9.062 2.543-7.632-27.933-9.852-135.29-9.852-76.219 0-138.577-3.131-138.577-6.963 0-13.042 35.379-16.465 171.413-16.57l135.949-.109v19.701c0 14.448 4.205 19.701 15.763 19.701 11.352 0 15.761 5.257 15.761 18.786 0 12.154-5.561 20.238-15.761 22.906-14.143 3.696-15.763 10.748-15.763 68.644s1.616 64.948 15.763 68.648c22.19 5.802 21.894 41.688-.35 41.688-14.954 0-15.943 4.089-13.793 57.136l2.313 57.141h31.524c30.846 0 31.578-.65 34.004-30.107 1.363-16.554-1.176-34.507-5.642-39.888-5.008-6.033-8.447-80.592-8.973-194.507l-.853-184.72 59.692-2.302 59.691-2.305v55.501c0 53.943.553 55.501 19.701 55.501h19.705v291.598h-47.288v206.115l-151.713-2.574c-192.886-3.271-202.937-7.115-202.937-77.648v-47.081h-256.725l-38.857 39.445c-37.95 38.53-38.923 40.722-41.949 94.237-2.71 47.969-5.545 56.397-22.77 67.682-22.734 14.896-42.093 4.514-22.263-11.94 8.871-7.364 12.154-25.262 12.154-66.272v-56.183l41.376-48.744 41.377-48.744 202.937-.503 202.938-.502v-78.812H4429.16v55.17h-164.739l-47.245 56.128c-25.986 30.87-48.324 63.675-49.64 72.9-2.2 15.441-7.859 16.952-71.277 19.047-64.781 2.142-69.162 3.376-73.515 20.721-2.547 10.145-3.466 28.627-2.045 41.069 2.562 22.431 3.135 22.661 65.634 26.567 49.036 3.065 63.048 6.566 63.048 15.764 0 16.488-150.778 20.838-171.414 4.942Zm758.251-106.828c9.622-17.983 3.91-36.905-13.128-43.444-16.706-6.41-33.856 9.471-33.856 31.361 0 28.389 33.626 37.038 46.984 12.083m66.65 10.41c15.998-6.141 16.496-47.152.642-53.235-20.117-7.718-35.465 3.544-35.465 26.022 0 30.554 8.599 37.276 34.819 27.213Zm78.808 0c15.332-5.884 16.371-37.334 1.643-49.559-23.28-19.319-51.244 10.955-36.158 39.149 8.669 16.193 14.701 18.011 34.515 10.41m-145.155-271.056c0-4.334-9.272-7.882-20.608-7.882-20.094 0-20.289-.487-7.882-19.425 16.874-25.752 17.489-108.673.907-122.435-6.499-5.394-11.819-14.697-11.819-20.667s-3.547-10.857-7.882-10.857c-12.161 0-9.319 28.401 3.941 39.406 7.762 6.445 11.819 24.028 11.819 51.229 0 27.197-4.057 44.784-11.819 51.225-6.503 5.397-11.823 18.245-11.823 28.549 0 16.161 3.793 18.739 27.583 18.739 15.172 0 27.583-3.548 27.583-7.882m-355.296-18.922c5.869-7.068 8.342-36.143 6.877-80.783l-2.286-69.738h-63.048l-2.301 70.79c-1.943 59.777-.195 72.347 11.356 80.782 17.925 13.108 38.011 12.68 49.41-1.051Zm-44.998-73.68c2.072-55.057 3.855-61.081 18.062-61.081 14.21 0 15.989 6.024 18.065 61.081 2.298 61.02 2.282 61.078-18.065 61.078s-20.364-.058-18.062-61.078m175.238 67.204c17.313-24.717 16.796-114.161-.775-133.573-16.22-17.926-40.329-18.483-59.236-1.371-11.2 10.137-14.413 24.682-14.413 65.236 0 59.446 13.806 87.224 43.344 87.224 10.502 0 24.23-7.734 31.08-17.516m149.742 0c7.823-11.169 12.266-34.799 12.266-65.233 0-54.722-14.642-82.753-43.23-82.753-33.066 0-43.46 19.308-43.46 80.724 0 41.007 3.486 59.804 13.042 70.365 17.735 19.596 46.502 18.144 61.382-3.103m-622.945 345.377c-2.469-6.433-3.252-18.108-1.741-25.947 2.376-12.333 11.231-14.253 65.685-14.253h62.938v47.288l-61.198 2.301c-48.347 1.823-62.137-.152-65.684-9.389m903.167-115.071v-86.69h39.406V394.056h-19.701c-18.63 0-19.705-2.368-19.705-43.347 0-47.491.078-47.529 51.681-34.53l35.013 8.816v589.213h-86.694ZM2406.21 766.436c-2.698-7.586-6.343-16.453-8.1-19.705-1.752-3.247 32.486-5.907 76.086-5.907h79.276v19.701c0 19.561-.51 19.701-71.176 19.701-60.664 0-71.903-2.037-76.086-13.79m221.342 7.762c-8.532-5.702-26.792-36.073-26.792-44.566 0-2.391 21.177-15.036 47.062-28.101 34.682-17.509 58.04-23.759 88.801-23.759 31.539 0 48.83-4.813 70.739-19.701l28.992-19.701h196.224c186.216 0 196.952.802 210.489 15.76 11.593 12.808 24.273 15.764 67.662 15.764 49.376 0 53.589 1.336 55.918 17.73 2.294 16.138 6.768 17.735 49.804 17.735 43.039 0 47.513-1.597 49.807-17.735 2.052-14.451 7.516-17.73 29.554-17.73 21.181 0 27.034 3.197 27.034 14.775 0 8.127 2.141 25.491 4.762 38.584 3.591 17.96.69 27.883-11.823 40.391-16.457 16.457-19.892 16.582-448.073 16.461-237.32-.066-435.389-2.726-440.16-5.907m554.959-90.515 2.496-21.671h-130.808c-109.008 0-131.567 1.97-135.349 11.819-2.496 6.503-2.457 17.232.09 23.841 3.921 10.214 23.852 11.694 132.852 9.852l128.238-2.165Zm-896.995 18.187v-55.622h71.65l-2.333 53.199-2.328 53.196-33.495 2.426-33.494 2.422Zm-688.664 28.786c-10.157-7.426-13.218-18.568-11.356-41.377 2.348-28.825 4.498-31.395 28.155-33.677l25.617-2.469v43.845c0 37.047-2.212 43.846-14.257 43.846-7.843 0-20.511-4.576-28.159-10.168m58.176-37.12V654.13h55.17v78.812h-55.17Zm70.93 0c0-36.777 1.312-39.406 19.705-39.406 18.388 0 19.701 2.629 19.701 39.406s-1.313 39.406-19.701 39.406c-18.393 0-19.705-2.629-19.705-39.406m55.17-.549c0-36.314 1.53-39.725 16.807-37.436 14.284 2.142 16.948 8.139 17.731 39.959.837 33.853-.775 37.444-16.808 37.436-16.056-.004-17.73-3.782-17.73-39.959m55.166.549c0-34.153 2.103-39.406 15.76-39.406 13.661 0 15.764 5.253 15.764 39.406s-2.103 39.406-15.764 39.406c-13.657 0-15.76-5.253-15.76-39.406m47.288 0c0-36.777 1.312-39.406 19.701-39.406s19.701 2.629 19.701 39.406-1.313 39.406-19.701 39.406-19.701-2.629-19.701-39.406m55.166 0c0-34.153 2.103-39.406 15.764-39.406 13.657 0 15.76 5.253 15.76 39.406s-2.103 39.406-15.76 39.406c-13.661 0-15.764-5.253-15.764-39.406m55.166 0v-31.524h267.96v63.048h-267.96Zm386.174-114.277V441.34h81.176c52.627 0 84.501 3.326 90.631 9.459 14.576 14.572 12.247 104.514-3.034 117.198-12.61 10.464-12.294 44.57.888 95.954 4.404 17.182 1.709 24.838-13.097 37.171-15.359 12.796-30.795 15.577-87.605 15.795l-68.959.261Zm1348.355 63.881c-6.005-7.235-8.353-40.22-6.873-96.542l2.243-85.553 96.258-2.212 96.254-2.212 2.259 77.083 2.259 77.079 86.588 2.259c105.947 2.757 106.497 2.289 106.497-90.456v-65.482h73.293c46.502 0 76.752 3.458 82.753 9.455 12.929 12.929 12.929 165.187 0 178.116-14.868 14.864-529.124 13.411-541.527-1.535Zm93.571-31.975c13.33-16.064 6.912-39.788-10.756-39.788-21.531 0-34.028 23.054-21.002 38.748 12.832 15.46 19.604 15.682 31.758 1.04m-25.741-9.362c-7.356-7.353 1.534-18.603 14.697-18.603 6.246 0 11.36 5.32 11.36 11.823 0 11.87-16.641 16.2-26.057 6.78m411.167 7.216c9.132-16.317-2.126-41.579-18.529-41.579-16.562 0-27.793 24.499-18.871 41.17 9.521 17.789 27.563 17.984 37.4.409m-30.464-13.996c0-6.503 5.319-11.823 11.823-11.823 6.503 0 11.822 5.32 11.822 11.823 0 6.499-5.319 11.819-11.822 11.819-6.504 0-11.823-5.32-11.823-11.819m-348.178-77.309c4.264-22.143-13.085-38.199-30.94-28.642-17.181 9.194-19.199 23.661-5.249 37.614 13.147 13.148 32.871 8.252 36.189-8.972m-29.254-.467c-7.025-8.466-7.169-12.898-.553-16.987 12.851-7.944 28.798 9.705 18.276 20.227-5.701 5.697-11.126 4.708-17.723-3.24m408.663 3.45c6.15-11.484 5.114-18.244-4.225-27.583-6.803-6.803-13.634-12.368-15.183-12.368-1.55 0-8.381 5.565-15.184 12.368-14.261 14.261-4.136 42.798 15.184 42.798 6.195 0 14.93-6.846 19.408-15.215m-26.188 1.869c-9.421-9.42-5.09-26.056 6.78-26.056 6.503 0 11.822 5.109 11.822 11.356 0 13.166-11.25 22.053-18.602 14.7M1278.706 637.19c-13.739-7.056-17.73-15.943-17.73-39.433V567.44l167.472.195 167.473.194 34.028 32.108c18.712 17.657 32.03 34.102 29.592 36.54-9.362 9.362-362.719 10.02-380.835.709Zm569.162 3.166-149.988-2.317-49.511-43.18-49.512-43.183H1239.3l-4.926-24.627c-2.706-13.548-4.926-38.374-4.926-55.17V441.34h369.946c238.13 0 371.684 2.808 374.819 7.882 2.679 4.334 22.392 7.882 43.81 7.882h38.943v28.101c0 50.933 9.303 58.589 71.206 58.589 51.743 0 54.874-1.016 54.641-17.731-.137-9.755-5.46-24.619-11.823-33.031-6.364-8.415-11.57-23.486-11.57-33.494 0-16.313 3.672-18.198 35.465-18.198h35.465v110.336h30.301c41.801 0 56.389-18.143 56.389-70.128 0-38.327 1.277-41.123 17.734-38.787 17.158 2.438 17.731 5.308 17.731 89.214v86.69l-36.809 2.375c-20.242 1.309-41.069 7.516-46.279 13.794-9.923 11.955-7.049 11.916-421.549 5.522m161.448-84.307c5.198-6.262 8.294-19.561 6.877-29.553-3.548-25.033-41.233-29.83-53.55-6.815-17.824 33.307 22.886 65.034 46.673 36.368m-31.162-20.137c0-10.156 3.991-15.744 9.852-13.79 5.417 1.807 9.849 8.011 9.849 13.79 0 5.783-4.432 11.987-9.849 13.793-5.861 1.955-9.852-3.633-9.852-13.793m-47.288-27.583v-43.343h-94.572c-108.798 0-112.84 3.376-66.074 55.143l28.502 31.547h132.144Zm-136.677 3.941-21.064-23.642h141.981v47.288h-49.925c-45.535 0-51.778-2.08-70.992-23.646m1454.735 121.917c-5.9-10.541-35.033-11.546-230.914-7.975-123.292 2.247-277.361 5.016-342.379 6.149l-118.218 2.068-2.543-22.186c-1.398-12.196 3.314-31.119 10.471-42.042 9.732-14.857 12.361-33.611 10.425-74.38l-2.589-54.516 92.601.019 92.602.016.085 49.258c.082 46.802 1.683 50.926 32.12 82.749l32.03 33.495h383.803l32.034-33.495 32.03-33.494.09-108.362.089-108.365h249.716c241.704 0 250.276.522 267.087 16.317 16.582 15.577 25.574 16.278 198.327 15.503 144.652-.647 182.761 1.363 189.95 10.024 4.946 5.958 6.655 13.166 3.805 16.017-2.855 2.854-192.879 5.187-422.278 5.187h-417.09l-14.795 17.73c-12.302 14.748-14.79 31.007-14.79 96.547 0 97.676 9.564 114.273 65.864 114.273 19.954 0 42.435 3.182 49.963 7.072 7.528 3.886 22.552 10.74 33.389 15.226 14.958 6.196-7.239 8.287-92.212 8.692-92.664.444-113.077-1.542-118.666-11.527Zm-586.693-36.8c12.636-12.637 12.636-126.073 0-138.706-13.26-13.264-42.269-11.772-56.97 2.925-15.32 15.32-17.602 121.107-2.924 135.781 12.189 12.193 47.705 12.193 59.894 0m-48.648-18.354c-2.718-7.087-4.941-31.976-4.941-55.306 0-33.576 3.115-44.095 14.934-50.419 23.868-12.773 33.46 7.138 30.773 63.889-2.084 44.009-4.35 50.228-19.094 52.331-9.864 1.406-18.755-2.897-21.672-10.495m1071.291 39.383c-11.889-8.992-41.918-11.574-134.73-11.574-147.07 0-145.512 1.001-145.512-93.221v-64.399h92.819c70.549 0 96.948-2.893 110.028-12.057 15.484-10.841 20.212-10.791 47.07.526l29.858 12.582-19.701 11.017c-13.794 7.711-48.659 11.099-116.248 11.297-88.267.258-116.524 6.687-84.077 19.137 6.858 2.632 49.558 4.786 94.888 4.786 66.868 0 88.251-2.975 113.319-15.764 16.99-8.669 32.809-15.76 35.149-15.76s4.257 37.237 4.257 82.749-2.66 82.64-5.912 82.5c-3.252-.137-12.796-5.456-21.208-11.819m-232.958-70.214c0-23.587-3.548-45.076-7.882-47.751-4.923-3.045-7.878 13.05-7.878 42.88 0 26.578 3.493 47.751 7.878 47.751 4.338 0 7.882-19.296 7.882-42.88m-113.055 36.349c-19.911-22.002-18.852-159.15 1.371-177.453 12.867-11.644 45.828-13.042 307.362-13.042 190.048 0 292.95 2.765 292.95 7.878 0 5.016-62.893 7.882-172.917 7.882-106.781 0-174.782 3.014-177.792 7.882-2.894 4.685-52.62 7.882-122.619 7.882h-117.754v23.642c0 18.389 3.504 23.642 15.764 23.642 12.761 0 15.764 5.253 15.764 27.587 0 22.33-3.003 27.583-15.764 27.583-12.182 0-15.764 5.253-15.764 23.12 0 19.183 3.586 23.545 21.068 25.613 11.585 1.37 22.52 6.928 24.3 12.344 5.14 15.663-41.073 11.897-55.969-4.56m589.244 3.824c-2.235-5.825-3.01-36.859-1.721-68.959l2.34-58.371h165.502l2.275 68.959 2.278 68.96h-83.306c-62.468 0-84.322-2.648-87.368-10.589m-1120.891-39.043c-21.828-22.521-25.188-31.509-25.188-67.32v-41.334l61.077 2.301 61.078 2.302 2.585 27.583c4.529 48.32 17.419 55.17 103.81 55.17 86.39 0 99.276-6.85 103.805-55.17l2.586-27.583 65.022-2.29 65.019-2.286v38.125c0 33.744-3.435 41.474-29.889 67.304l-29.884 29.184h-354.833ZM0 445.281V354.65h433.458v181.262H0Zm171.807 33.888c5.203-5.199 9.459-23.066 9.459-39.698v-30.247l-72.901 2.267c-69.773 2.169-73.013 3.06-75.525 20.799-1.441 10.195-.487 27.041 2.123 37.435 4.498 17.922 7.921 18.903 66.066 18.903 37.186 0 65.045-3.723 70.778-9.459m198.179-1.85c5.159-6.215 8.251-23.062 6.873-37.432l-2.508-26.13h-141.86l-2.523 26.364c-4.37 45.598-.277 48.507 68.301 48.507 44.531 0 65.011-3.228 71.717-11.309m1876.124 3.427c0-52.312.938-55.166 18.128-55.166 26.079 0 37.038 14.611 37.038 49.379 0 40.641-11.909 60.957-35.742 60.957-18.793 0-19.424-1.788-19.424-55.17M457.104 441.648c0-67.137 2.36-87.528 9.849-85.047 15.869 5.261 17.862 150.365 2.243 163.325-10.749 8.922-12.092.21-12.092-78.278m1625.081 76.927c-5.203-5.203-9.459-24.522-9.459-42.934v-33.475l-41.377-2.384-41.376-2.383-2.461-29.846-2.465-29.845 77.336 2.262 77.332 2.263 2.301 56.447c1.531 37.51 6.157 59.649 13.794 65.984 6.32 5.246 11.488 12.649 11.488 16.454 0 10.491-74.303 8.271-85.113-2.543m849.855-21.547c-14.397-26.909-9.393-32.042 31.248-32.042 41.551 0 48.051 7.652 28.436 33.494-14.14 18.627-49.395 17.77-59.684-1.452m127.268-6.43c1.784-15.518 7.532-22.388 20.227-24.191 21.843-3.103 23.619 14.452 3.322 32.821-20.406 18.467-26.411 16.266-23.549-8.63M496.51 449.304v-55.248h717.898l-2.332 53.195-2.329 53.2-356.621 2.048-356.616 2.053Zm2524.666 35.044c-2.566-6.69-2.691-14.14-.269-16.554 6.901-6.901 21.2 4.805 21.2 17.356 0 15.126-15.031 14.545-20.923-.802Zm-95.752-72.562c2.309-36.021 3.384-37.528 28.408-39.935 18.708-1.795 27.977-7.664 33.012-20.905 20.126-52.934 47.374-27.583 47.374 44.072v54.204h-111.197Zm124.558-2.492c0-38.911.553-39.865 21.671-37.435 19.849 2.282 21.878 5.646 24.074 39.927 2.376 37.015 2.135 37.436-21.671 37.436-23.677 0-24.074-.658-24.074-39.928m646.248 27.439c-24.476-10.016 3.941-10.9 252.196-7.827 160.466 1.986 288.178 6.842 299.48 11.39 13.77 5.542-62.153 7.898-252.196 7.828-217.724-.082-277.392-2.352-299.48-11.391m-2465.333-32.829c1.37-11.92 6.468-20.939 11.324-20.043 4.856.899 23.151-10.628 40.656-25.613 28.167-24.109 36.96-27.244 76.413-27.244 64.302 0 75.07 7.952 75.07 55.446v39.13h-205.956Zm156.175-25.939c0-48.071-27.003-51.108-61.845-6.951-25.795 32.692-18.86 43.635 25.426 40.11l36.419-2.893Zm55.166.794c0-28.806-3.789-49.278-9.849-53.199-5.421-3.505-32.906-8.478-61.081-11.048-28.175-2.566 40.095-5.226 151.712-5.908l202.938-1.242V425.58h-283.72Zm132.556-26.08c-2.044-14.393-8.31-18.205-33.292-20.25-44.655-3.656-67.74 3.969-67.74 22.369 0 13.98 5.421 15.612 51.778 15.612 49.184 0 51.649-.884 49.254-17.731m126.1 0c-2.293-16.141-6.768-17.734-49.807-17.734-43.036 0-47.51 1.593-49.804 17.734-2.395 16.863.059 17.731 49.804 17.731 49.753 0 52.202-.868 49.807-17.731m40.828 13.7v-59.2l305.391 2.06 305.392 2.064 2.332 58.044 2.337 58.04-29.92-5.211c-71.12-12.383-96.904-13.789-96.904-5.272 0 5.027-14.915 8.676-35.465 8.676-35.033 0-35.465-.323-35.465-26.621 0-40.395-11.601-45.166-103.607-42.623l-81.6 2.255-2.422 33.494-2.427 33.495h-227.642Zm638.366.094v-59.111h70.93v43.865c0 24.125 3.672 50.723 8.158 59.107 7.61 14.218 5.222 15.246-35.465 15.246h-43.623Zm174.996 5.907 2.329-53.195 100.483-2.204 100.484-2.208V425.58h-205.629Zm226.942 1.971v-51.225h98.513c60.419 0 98.513 3.045 98.513 7.882 0 4.334-13.805 7.882-30.683 7.882-34.597 0-40.247 7.835-40.247 55.808v30.882h-126.096Zm331.004 17.341c0-40.672-10.32-52.802-44.921-52.802-14.307 0-26.009-3.548-26.009-7.882 0-4.852 39.406-7.882 102.454-7.882h102.454V425.58H3113.03Zm-638.374 6.289c-4.331-11.39-7.874-43.748-7.874-71.899 0-46.365-2.602-54.594-27.583-87.313-15.172-19.873-27.587-38.546-27.587-41.502 0-2.955 8.945-13.774 19.872-24.043l19.873-18.669 43.417 42.876 43.417 42.876-2.212 86.725-2.208 86.725-25.621 2.469c-21.496 2.072-26.882-.861-33.494-18.245m38.019-22.31c1.508-7.777-2.511-13.139-9.852-13.139-7.309 0-12.399 6.737-12.399 16.418 0 19.207 18.416 16.492 22.251-3.279m1669.846-25.207c-8.408-11.555-22.014-19.456-33.495-19.456-24.646 0-25.924-21.843-1.604-27.381 20.149-4.591 264.124-35.044 315.158-39.339 18.467-1.554 45.991-5.219 61.164-8.147 27.579-5.32 27.586-5.312 53.363 47.081 14.175 28.818 23.719 55.727 21.208 59.793-2.516 4.069-23.463 7.399-46.548 7.399-36.077 0-43.787-2.769-54.882-19.705-10.667-16.274-19.199-19.701-49.048-19.701-34.612 0-35.929.829-31.193 19.701l4.945 19.705-112.458-.245c-110.359-.246-112.719-.612-126.614-19.705Zm-399.597-31.279c-7.376-8.883-27.202-11.823-79.778-11.823-64.711 0-69.964-1.184-69.964-15.76 0-14.44 5.253-15.764 62.584-15.764 34.422 0 64.773-3.544 67.453-7.878 3.228-5.222-161.48-7.882-488.161-7.882-421.795 0-493.032-1.628-493.032-11.247 0-9.474 34.452-11.223 218.697-11.098 273.65.183 277.809.07 277.809-7.719 0-3.532-13.299-13.042-29.554-21.134l-29.553-14.708 45.913-6.243c37.124-5.051 49.761-3.723 66.015 6.928 13.622 8.926 42.623 14.249 89.919 16.512 61.007 2.916 70.474 1.604 75.089-10.418 3.372-8.797.557-16.398-7.812-21.083-10.472-5.861-11.36-10.561-4.44-23.498 21.166-39.542-22.684-109.082-68.78-109.082-45.049 0-78.411 43.682-71.701 93.883l3.781 28.272h-158.566c-87.212 0-159.45-2.66-160.537-5.911-1.082-3.252-1.966-32.51-1.966-65.019V39.406h77.437c72.41 0 78.637-1.281 95.947-19.705C3215.682 2.714 3225.099 0 3268.087 0c48.196 0 49.851.67 49.851 20.114 0 19.315 1.647 20.02 41.376 17.734 37.611-2.165 41.205-3.995 39.5-20.117C3397.092 1.46 3400.177 0 3436.249 0c32.4 0 39.313 2.461 39.313 13.992 0 12.703 7.593 13.708 82.663 10.931 63.278-2.344 90.117-.078 114.437 9.65 17.473 6.994 40.441 12.715 51.038 12.715 31.746 0 43.872 43.253 30.655 109.347-4.447 22.244-7.742 24.631-33.989 24.631-21.987 0-34.565 5.74-51.638 23.56-12.415 12.96-20.125 26.01-17.134 29.001s34.495 5.689 70.003 5.993l64.567.553 29.269 41.813c24.779 35.398 30.414 39.76 36.746 28.447 8.291-14.817 25.317-8.754 25.317 9.015 0 16.236-81.044 15.838-94.572-.463m-160.79-165.502c.607-36.98.089-39.219-2.384-10.285l-3.158 37-32.466 2.402c-17.933 1.328-33.989 7.026-35.863 12.723-2.554 7.757 6.083 9.712 34.85 7.878l38.25-2.434.774-47.284Zm121.263-41.377c-.09-32.166-2.341-41.886-7.761-33.494-8.653 13.385-10.254 47.697-3.096 66.343 8.337 21.733 10.981 13.735 10.857-32.849m-961.371 179.296c0-15.238 5.253-15.764 157.62-15.764 152.366 0 157.624.526 157.624 15.764 0 15.234-5.258 15.76-157.624 15.76-152.367 0-157.62-.526-157.62-15.76m331.004 7.878c0-4.334 7.091-7.878 15.764-7.878 8.668 0 15.76-3.548 15.76-7.882s7.095-7.882 15.764-7.882c8.668 0 15.76 3.548 15.76 7.882s7.095 7.882 15.764 7.882c8.668 0 15.76-3.548 15.76-7.882s5.319-7.882 11.823-7.882c6.503 0 11.823 3.548 11.823 7.882s7.091 7.882 15.76 7.882c8.668 0 15.764-3.548 15.764-7.882s8.863-7.882 19.701-7.882c14.447 0 19.705 4.202 19.705 15.764 0 14.884-5.258 15.76-94.576 15.76-57.795 0-94.572-3.065-94.572-7.882m212.79-7.878c0-13.661 5.253-15.764 39.406-15.764 34.148 0 39.406 2.103 39.406 15.764 0 13.657-5.258 15.76-39.406 15.76-34.153 0-39.406-2.103-39.406-15.76m102.454 0c0-14.888 5.253-15.764 94.572-15.764 89.318 0 94.572.876 94.572 15.764 0 14.884-5.254 15.76-94.572 15.76-89.319 0-94.572-.876-94.572-15.76m-485.307-128.807c-2.231-5.825-3.01-36.855-1.721-68.959l2.341-58.371 25.616-2.469 25.613-2.469v142.857h-23.892c-13.139 0-25.717-4.767-27.953-10.589Zm438.026-5.167c-21.924-21.925-17.94-53.013 9.393-73.329 19.896-14.787 22.447-14.97 40.777-2.96 28.132 18.432 33.432 42.436 14.884 67.379-19.845 26.683-43.974 29.989-65.054 8.91"/></svg>