<svg xmlns="http://www.w3.org/2000/svg" width="2627.779" height="1000" viewBox="0 0 2627.779 1000"><path d="M25.49 988.681C4.07 974.995-3.489 962.802 1.457 949.915c4.979-12.974 7.741-12.403 40.597 8.439 30.12 19.097 32.842 23.633 21.187 35.284-9.572 9.572-16.419 8.675-37.751-4.957m1488.236-2.628c2.086-2.115 59.36-42.007 127.276-88.655 83.149-57.111 124.553-89.193 126.766-98.228 3.06-12.469 7.225-13.537 59.096-15.158l55.798-1.741v26.043c0 19.479 3.057 27.95 12.124 33.612 11.415 7.13 12.12 6.051 12.12-18.541 0-14.363-3.333-29.448-7.41-33.525-5.844-5.841 16.946-7.062 107.578-5.757l114.989 1.654 1.879 22.728 1.882 22.728h53.437c40.106 0 55.319 2.267 60.985 9.089 13.148 15.845 18.181 9.975 18.181-21.213v-30.302h224.246l-.08 28.787c-.163 50.86 28.147 46.884-339.481 47.676l-327.892.709-85.97 59.898-85.97 59.902-66.668 2.068c-36.669 1.137-64.961.338-62.875-1.774Zm-85.614-8.296c-27.728-12.564-45.118-32.577-82.662-95.11-41.103-68.471-41.844-69.271-64.31-69.445-12.502-.095-22.728-2.9-22.728-6.233 0-3.609-22.867-6.062-56.483-6.062-52.695 0-57.368 1.018-69.659 15.151l-13.174 15.155-201.558-.026c-237.307-.025-219.71 4.855-275.378-76.408-72.473-105.79-74.439-106.67-232.917-104.21l-118.856 1.85 9.068-13.824c12.388-18.887 3.674-25.512-9.231-7.021-5.677 8.133-18.88 22.968-29.342 32.969-10.46 9.997-20.759 23.189-22.885 29.313-3.579 10.31-5.251 9.972-22.503-4.543-10.248-8.624-22.698-15.681-27.67-15.681-12.418 0-5.687-19.418 19.933-57.496 11.186-16.623 20.373-37.076 20.421-45.456.196-36.357 5.4-42.506 35.978-42.506 34.237 0 37.908-2.765 29.153-21.979-4.982-10.939-4.881-16.535.404-21.819 8.889-8.89 9.539-97.912.835-114.179-5.247-9.804-4.255-11.72 6.059-11.72 6.785 0 12.338-2.729 12.338-6.061 0-3.333-13.305-6.062-29.564-6.062-39.326 0-44.123-7.043-41.928-61.559l1.792-44.504 21.921-1.832c21.58-1.802 21.98-2.326 25.705-33.332 2.082-17.328 3.808-43.051 3.837-57.166.04-19.973 5.764-34.328 25.81-64.728 23.902-36.251 27.394-39.096 48.487-39.489 12.498-.232 22.743 1.621 22.764 4.122s8.203 9.19 18.182 14.871c9.98 5.676 18.146 14.54 18.146 19.697 0 8.362 43.399 9.372 402.679 9.372 273.18 0 403.934 2.035 406.587 6.324 2.151 3.481.614 10.299-3.413 15.154-6.28 7.563-64.63 8.824-408.269 8.824H424.739l-19.854 18.131c-18.276 16.691-19.704 20.663-18.018 50.002l1.835 31.868 420.774 4.928c408.996 4.79 421.214 4.604 436.372-6.661 22.936-17.048 24.658-51.914 3.649-73.843-12.683-13.236-14.228-17.793-7.839-23.095 5.361-4.448 80.624-7.003 230.777-7.832 193.904-1.068 223.773-.025 230.158 8.057 4.038 5.11 47.539 22.452 96.669 38.537 85.875 28.117 90.047 30.251 107.953 55.185l18.629 25.937h-35.583c-21.906 0-40.106-3.42-47.349-8.897-13.519-10.226-42.596-12.174-48.127-3.223-2.246 3.63-42.622 6.062-100.757 6.062-54.992 0-102.069 2.703-108.684 6.243-8.569 4.586-16.426 3.783-29.603-3.031-23.099-11.945-73.276-11.884-102.066.124-26.169 10.917-60.749 42.156-68.424 61.817l-5.324 13.635-216.821.135c-235.774.145-231.664-.426-249.656 34.713l-6.985 13.635H372.919l4.15-53.029c2.286-29.168 5.379-54.396 6.876-56.061 1.497-1.668 19.545-4.659 40.103-6.654l37.381-3.62-36.363-.73c-52.79-1.061-57.536 4.375-57.769 66.218-.131 35.073-2.955 54.498-9.093 62.613-5.378 7.112-8.896 25.268-8.896 45.914 0 27.859 2.584 36.574 14.028 47.328 13.304 12.498 19.512 13.177 120.854 13.177 58.757 0 108.371 2.493 110.257 5.542 1.882 3.049.2 6.618-3.747 7.934-15.111 5.037 2.853 16.826 25.635 16.826 17.19 0 23.888-2.548 23.888-9.089 0-10.245 9.997-12.429 13.181-2.879 1.377 4.133 99.307 6.175 292.241 6.095 263.051-.109 290.856-1.061 297.514-10.165 5.171-7.072 8.617-7.977 11.655-3.063 2.373 3.841 16.426 6.981 31.228 6.981 15.424 0 26.915 2.827 26.915 6.621 0 4.238-12.004 5.873-33.34 4.547-32.602-2.032-42.898 2.042-23.738 9.394 5.273 2.024 31.181 3.681 57.576 3.681 27.954 0 47.989 2.53 47.989 6.058 0 3.875-53.157 6.062-147.355 6.062h-147.35l-17.423 18.182c-16.015 16.721-20.74 18.182-58.709 18.182-39.046 0-41.292-.756-41.292-13.937 0-22.917-11.422-28.489-58.43-28.489-47.811 0-53.629 3.616-53.669 33.337l-.022 18.181-40.91 1.792-40.909 1.792V558.4c0-15.471-2.355-23.426-6.222-21.035-3.423 2.115-5.826 7.051-5.342 10.965 2.366 19.173-1.505 22.27-27.831 22.27-36.327 0-35.077 10.957 1.516 13.304 24.872 1.596 29.058 3.765 30.785 15.958 1.101 7.759 22.237 42.538 46.971 77.284s44.973 64.641 44.973 66.429c0 1.792-23.727 2.471-52.724 1.508l-52.728-1.752-65.841-86.365-65.84-86.366H444.683c-123.205 0-156.792 1.617-151.134 7.272 3.998 4.001 7.356 12.865 7.457 19.7.167 11.346.72 11.506 6.36 1.818 5.589-9.595 18.927-10.609 139.646-10.609 121.334 0 132.6.869 123.943 9.526-11.433 11.429-11.836 16.044-2.253 25.628 19.334 19.333 44.134-1.196 29.586-24.495-4.223-6.759-4.772-11.029-1.265-9.801 3.416 1.196 33.406 40.357 66.644 87.024 46.789 65.698 58.484 85.944 51.823 89.694-11.263 6.346-10.997 25.018.49 34.55 18.396 15.268 37.261-17.887 19.999-35.153-5.658-5.655 32.053-7.272 169.701-7.272 113.938 0 176.969 2.159 176.969 6.062 0 3.333-2.726 6.058-6.058 6.058-8.442 0-7.596 20.286 1.21 29.092 9.627 9.626 14.195 9.183 25.879-2.501 8.682-8.682 8.776-11.291.861-23.375l-8.911-13.599 82.906-.959c92.381-1.069 91.058-.483 113.677-50.402 13.17-29.074 7.595-50.493-16.365-62.886l-18.756-9.696 16.946-17.687c16.765-17.499 17.666-17.684 85.509-17.684 65.404 0 75.394 2.442 63.14 15.452-2.98 3.169-7.207 14.254-9.391 24.633-3.155 15.009-.771 22.677 11.647 37.435 8.588 10.209 23.844 20.366 33.896 22.576 11.146 2.445 33.06 19.01 56.141 42.432 22.928 23.273 44.929 39.929 55.799 42.247 9.866 2.104 22.03 5.935 27.031 8.515 10.208 5.259 58.146 72.051 54.109 75.387-1.425 1.181-39.776 27.118-85.218 57.645-69.899 46.954-86.238 55.436-106.063 55.076-12.89-.233-27.529-2.282-32.529-4.546Zm89.699-68.97c3.997-4.001 7.272-12.999 7.272-19.998s-3.275-16.002-7.272-20.003c-16.107-16.103-47.273-4.401-47.273 17.75 0 23.175 31.515 38.009 47.273 22.251m-32.849-13.649c-4.627-12.051 2.227-21.504 15.587-21.504 13.559 0 20.038 14.195 10.728 23.506-9.464 9.463-22.292 8.486-26.315-2.002m-99.34-175.97c18.999-22.892-16.517-58.408-39.409-39.409-10.852 9.005-11.786 31.101-1.737 41.146 10.045 10.048 32.14 9.114 41.146-1.737m-35.27-16.263c2.584-18.247 26.243-20.05 26.243-1.999q0 12.123-14.119 14.123c-11.753 1.664-13.788-.371-12.124-12.124m-1070.744-102c0-11.84-3.47-15.554-15.892-16.997-18.341-2.126-27.877 13.508-16.561 27.147 11.626 14.01 32.453 7.494 32.453-10.15m227.277-88.757c-50.784-4.481-109.119-4.819-109.105-.64.008 2.501 29.332 4.089 65.165 3.529 35.836-.56 55.606-1.861 43.94-2.889m-131.407-6.102c6.934-6.934-26.715-20.293-51.108-20.293-19.508 0-23.549 2.079-23.549 12.12 0 10.735 4.041 12.12 35.357 12.12 19.442 0 37.13-1.777 39.3-3.947m121.024-12.632c-17.378-1.221-47.382-1.232-66.668-.026-19.29 1.207-5.07 2.203 31.595 2.217 36.669.015 52.452-.974 35.073-2.191m111.954-210.622c-7.53-11.625-15.667-21.169-18.08-21.212-4.146-.073-22.884 31.879-22.884 39.02 0 1.831 12.298 3.329 27.329 3.329h27.329ZM61.497 961.436c-9.958-8.137-26.322-18.055-36.364-22.042-10.041-3.983-18.995-7.74-19.9-8.347-4.067-2.733 96.778-165.664 104.329-168.564 4.663-1.788 19.607-19.642 33.213-39.67 23.437-34.517 25.603-36.113 41.389-30.498 9.162 3.26 22.634 10.615 29.942 16.35l13.287 10.423-22.543 37.225-22.546 37.224-25.472-15.041c-14.01-8.272-28.935-13.825-33.166-12.335-4.233 1.49 1.85 7.014 13.516 12.276 11.669 5.263 27.903 14.944 36.08 21.518 13.537 10.885 14.18 13.487 7.192 29.179-10.227 22.961-92.402 147.594-97.13 147.314-2.046-.12-11.866-6.876-21.827-15.012m2434.812-97.65c-8.595-3.725-10.423-61.123-2.352-73.854 3.337-5.262 15.086-7.308 34.758-6.062l29.716 1.887 1.806 37.878c1.617 33.958.596 37.879-9.848 37.879-6.411 0-19.494 1.25-29.077 2.777-9.583 1.526-20.835 1.301-25.003-.505m-861.06-39.431c-25.886-36.392-26.05-36.945-13.639-45.638 11.647-8.158 12.567-14.718 12.567-89.938 0-77.015-.745-82.001-14.621-98.144-13.904-16.176-17.538-17.103-74.696-19.054l-60.08-2.05 2.718-32.798 2.722-32.798h-92.413v-53.728l29.593 19.915c16.278 10.95 40.641 21.678 54.142 23.837 17.4 2.784 25.697 7.555 28.503 16.394 5.854 18.447 36.189 14.093 36.407-5.223.087-7.675 4.179-16.499 9.092-19.606s53.252-5.691 107.419-5.742c93.725-.091 98.486.483 98.486 11.757 0 15.837 85.504 80.751 123.241 93.561 21.147 7.181 51.773 9.743 116.37 9.743h87.667v181.821H2031.1c-54.542 0-57.253-.6-50.631-11.208 8.776-14.046 2.525-40.753-10.728-45.838-21.973-8.431-51.802 29.982-32.53 41.895 18.589 11.488-1.926 15.151-84.85 15.151-74.395 0-90.912 1.559-90.912 8.587 0 6.644-90.64 76.823-98.29 76.103-.941-.09-13.501-16.739-27.91-36.999m102.876-27.994c4.873-5.833 12.058-18.105 15.961-27.271 6.799-15.95 8.958-16.67 50.082-16.67 40.666 0 42.872-.705 41.037-13.163-1.515-10.31-16.07-19.446-67.087-42.109l-65.153-28.942v46.176c0 35.211-2.482 48.919-10.452 57.725-9.961 11.008-9.746 12.083 4.547 23.069 18.549 14.254 20.1 14.312 31.065 1.185m-24.956-7.446c-6.723-4.158-6.302-7.022 2.318-15.642 8.323-8.318 10.132-18.694 8.559-49.046-1.094-21.173-.574-38.493 1.155-38.486s23.546 8.522 48.484 18.919c75.34 31.41 79.759 41.702 17.916 41.702-42.567 0-42.578.004-46.255 18.396-4.082 20.403-19.509 31.985-32.177 24.157m133.13-147.809v-56.773l-24.454-16.183c-27.198-18-24.487-18.777-76.47 21.922-50.326 39.397-48.033 44.863 33.278 79.359 35.538 15.078 65.298 27.645 66.131 27.928.835.284 1.515-25.032 1.515-56.253m-73.893 12.135c-25.643-10.623-48.309-21.002-50.374-23.063-2.06-2.064 13.134-16.742 33.769-32.62l37.519-28.87 20.428 11.001c20.137 10.844 20.431 11.596 20.431 52.473 0 29.423-2.202 41.314-7.577 40.932-4.165-.298-28.554-9.231-54.196-19.853m206.017-5.063c19.591-19.592-2.388-52.721-29.306-44.177-14.773 4.692-21.918 30.295-11.84 42.436 9.005 10.856 31.097 11.79 41.146 1.741m-28.721-4.619c-11.579-7.156-5.063-27.503 8.805-27.503 7.65 0 12.705 4.688 13.872 12.865 2.002 14.031-10.55 22.132-22.677 14.638m-201.889-83.865c14.166-11.47 25.741-22.572 25.719-24.673-.109-10.899-40.306-25.028-71.208-25.028h-33.899l12.422 13.639c16.677 18.305 26.056 37.384 26.056 52.989 0 14.842 3.417 13.432 40.91-16.927m-41.658-16.565-9.841-21.013h22.735c12.505 0 25.908 3.823 29.789 8.501 5.626 6.777 3.438 11.069-10.801 21.209-9.819 6.992-18.796 12.625-19.948 12.516s-6.523-9.653-11.934-21.213m867.427 122.624V479.691h38.108l-3.605 40.91c-1.985 22.499-8.203 103.639-13.821 180.305s-12.571 141.987-15.449 145.152c-2.947 3.246-5.233-75.514-5.233-180.305m-439.937 138.2c-7.399-29.477-1.098-33.347 54.247-33.347 56.061 0 64.059 5.215 51.216 33.405-6.465 14.195-9.652 15.078-54.265 15.078-45.492 0-47.553-.607-51.198-15.136m100.539-3.046c6.236-11.654 4.608-12.12-42.211-12.12-36.541 0-48.698 2.017-48.698 8.079 0 13.777 6.822 16.161 46.252 16.161 31.966 0 39.224-1.969 44.657-12.12m-128.479-112.201c-1.584-76.273-.617-87.459 7.265-84.2 10.917 4.514 81.551 3.765 125.76-1.33l31.817-3.667v85.545c0 80.642-.676 85.548-11.763 85.548-6.469 0-13.447-2.725-15.507-6.058-6.106-9.878-101.808-7.53-115.512 2.838-6.469 4.892-13.668 8.984-15.998 9.089s-5.055-39.387-6.062-87.765m229.632 83.441-53.397-2.025 1.018-80.064c.56-44.035-.676-84.152-2.747-89.153-3.22-7.777 5.673-8.987 61.471-8.366l65.234.727-58.59-3.758c-89.502-5.742-78.2-12.894 19.7-12.461 58.485.258 82.863 2.195 73.73 5.865-7.501 3.017-18.41 3.951-24.239 2.075-8.65-2.78-8.981-2.26-1.796 2.828 9.111 6.45 37.81 3.314 56.348-6.16 9.87-5.044 10.601.807 10.514 84.189-.04 49.283-2.097 92.664-4.547 96.4-5.033 7.679-49.908 14.424-49.908 7.5 0-2.467 2.73-6.17 6.062-8.231 11.033-6.821 6.291-26.845-8.686-36.654-11.829-7.752-17.364-8.261-27.99-2.573-11.153 5.967-12.745 10.819-10.074 30.734 1.745 13.003 2.748 23.084 2.232 22.397-.513-.683-24.967-2.155-54.331-3.27Zm95.386-126.222c18.305-18.305 7.774-45.02-17.749-45.02-16.245 0-27.271 11.026-27.271 27.271 0 25.522 26.715 36.058 45.02 17.749m-31.595-10.114c-8.929-10.761.29-24.534 14.573-21.783 13.937 2.686 15.354 25.341 1.748 27.961-5.306 1.025-12.651-1.759-16.321-6.178m95.665 36.004c0-68.755-2.209-101.001-7.272-106.063-5.465-5.466-84.189-7.272-317.033-7.272H1860.73l-43.373-31.821c-23.855-17.498-43.465-35.226-43.578-39.394-.163-5.982 81.787-7.574 390.124-7.574h390.327l2.101 29.88c1.889 26.908 1.148 29.019-7.469 21.213-11.665-10.568-30.901-11.23-40.735-1.396-9.347 9.347-9.347 30.651 0 40.002 8.824 8.82 33.006 9.59 38.184 1.21 9.594-15.522 12.12-.356 12.12 72.73 0 73.087-2.526 88.252-12.12 72.727-5.658-9.154-30.85-7.265-39.329 2.951-10.23 12.331-2.845 37.777 12.367 42.603 7.294 2.315 18.524-.072 27.257-5.796 8.173-5.353 14.856-7.487 14.856-4.746 0 11.691-16.306 19.537-40.608 19.537h-26.061Zm-547.272 88.899c-7.839-7.839-4.353-25.138 5.855-29.056 12.774-4.902 21.983 3.998 19.181 18.535-2.224 11.556-17.557 18-25.036 10.521m450.051-5.564c-6.443-7.763-6.043-11.15 2.286-19.483 9.34-9.34 10.819-9.351 20.006-.164 11.015 11.016 7.319 29.041-5.956 29.041-4.696 0-12.047-4.227-16.336-9.394m119.655-6.56c-2.337-2.337-4.252-9.249-4.252-15.362 0-7.889 4.514-11.109 15.576-11.109 12.665 0 15.209 2.533 13.635 13.573-1.918 13.436-16.753 21.104-24.959 12.898M805.373 673.912c-27.499-39.624-49.998-74.497-49.998-77.499 0-3.074 62.315-5.56 142.72-5.691l142.721-.236 16.703-16.005c15.939-15.267 19.693-16.001 81.874-16.001h65.171l-1.864 25.755c-1.552 21.413-4.165 26.086-15.5 27.696-9.917 1.41-13.639-1.116-13.639-9.253 0-9.394-3.877-10.815-24.24-8.874-30.901 2.947-31.853 16.383-1.515 21.332 12.498 2.039 30.178 5.433 39.282 7.545 14.227 3.296 17.487 1.392 23.175-13.516 3.641-9.543 5.527-24.854 4.19-34.019l-2.428-16.666h148.645l13.624-24.244 13.625-24.243h88.677v24.552c0 22.238-1.959 25.37-20.795 33.242-11.44 4.779-22.51 11.458-24.603 14.842-2.228 3.605-33.613 6.152-75.765 6.152h-71.967l-22.347 27.275-22.35 27.274h-186.211c-211.999 0-206.355-1.341-206.18 48.96.105 29.662 3.281 36.712 21.118 46.829l12.123 6.873-12.123-.026c-8.624-.018-26.537-20.791-62.123-72.062Zm414.905 68.351c-8.511-2.311-10.586-8.41-9.601-28.212.709-14.275-3.202-33.834-8.995-44.962l-10.248-19.701h24.698c54.011 0 78.752 31.487 56.863 72.367-11.582 21.631-26.783 27.544-52.717 20.504ZM234.156 738.4c0-6.625 31.675-58.361 39.918-65.204 8.122-6.738 9.009-3.344 7.384 28.208l-1.85 35.866-22.728 1.882c-12.498 1.032-22.728.694-22.728-.752Zm-64.27-110.584c-5.64-22.474.963-69.961 10.579-76.052 4.528-2.871 15.736-5.262 24.901-5.313 14.184-.077 16.666 2.402 16.666 16.655 0 14.279-37.402 80.224-45.499 80.224-1.516 0-4.507-6.981-6.647-15.514m1934.493-36.741c-14.947-8.286-30.393-9.191-100.001-5.851-47.193 2.26-90.077 1.5-100.503-1.788-12.305-3.878 45.416-5.902 178.626-6.255 168.029-.443 195.057.691 184.852 7.759-7.279 5.041-38.028 9.776-78.625 12.109-55.159 3.169-69.718 2.137-84.349-5.974m410.631-36.033c-2.002-5.226-.738-12.404 2.817-15.958 9.427-9.427 25.453-1.152 25.453 13.145 0 14.947-22.742 17.211-28.266 2.813Zm-1168.717-51.107c2.06-3.337 9.721-6.022 17.022-5.971 10.797.076 11.579 1.192 4.19 5.971-11.941 7.715-25.98 7.715-21.212 0m-457.585-24.084c0-11.793 3.642-12.283 91.356-12.283 83.738 0 91.185.886 89.32 10.608-1.813 9.438-11.887 10.79-91.355 12.283-86.224 1.617-89.321 1.25-89.321-10.608m-284.852-3.191c0-7.77-17.172-9.092-118.183-9.092H367.49v-84.847h17.476c12.378 0 18.4 3.532 20.642 12.12 2.908 11.109 8.268 12.12 64.165 12.12 60.741 0 61.047.076 74.435 18.185 10.848 14.671 17.902 18.182 36.545 18.182h23.103v-66.669l156.065-.018 156.062-.018 12.12-18.295 12.123-18.298 60.607 1.647 60.607 1.646 1.734 59.095 1.737 59.091H973.21c-86.599 0-91.872.673-94.866 12.12-2.624 10.034-8.268 12.12-32.766 12.12h-29.596v-24.745c0-31.577-14.33-29.484-17.034 2.49-1.821 21.55-2.638 22.255-25.759 22.255h-23.876v-24.745c0-31.577-14.33-29.484-17.033 2.486-1.814 21.496-2.69 22.259-25.407 22.259-23.349 0-23.546-.196-25.392-25.755-1.028-14.17-4.593-25.759-7.926-25.759-3.332 0-6.898 11.589-7.926 25.759l-1.861 25.755h-29.956c-22.586 0-29.956-2.235-29.956-9.089m478.797-16.971c0-14.333-3.275-29.332-7.272-33.333-5.659-5.655-5.659-7.272 0-7.272q7.272-.002 7.272-36.363v-36.367h72.516c85.046 0 85.061.014 85.061 63.241 0 35.753-1.232 39.791-12.12 39.791-9.852 0-12.124-4.038-12.124-21.569 0-12.836-2.453-20.053-6.058-17.825-3.336 2.06-6.062 11.767-6.062 21.572 0 9.801-2.434 17.822-5.411 17.822-6.723 0-12.77-15.071-12.77-31.806 0-20.166-4.154-10.027-8.686 21.201-3.783 26.057-3.042 28.787 7.817 28.787 16.169 0 31.17 6.149 31.17 12.77 0 2.976-30 5.415-66.665 5.415h-66.668Zm174.628 18.487c-6.552-5.219-8.649-14.181-6.745-28.79l2.77-21.213 32.856 2.079c29.004 1.832 32.849 3.609 32.773 15.151-.2 31.926-6.414 40.346-29.767 40.346-12.309 0-26.657-3.409-31.887-7.573m22.343-22.728c-2.06-3.333-7.835-6.062-12.836-6.062-5 0-7.406 2.729-5.346 6.062 2.061 3.332 7.836 6.061 12.836 6.061 5.001 0 7.407-2.729 5.346-6.061m69.7 3.031c0-23.234 1.795-27.275 12.12-27.275s12.12 4.041 12.12 27.275-1.796 27.274-12.12 27.274-12.12-4.041-12.12-27.274m106.059 5.96c-79.831-43.014-84.018-150.418-7.672-196.848 71.699-43.603 168.636 11.302 168.149 95.236-.189 32.548-19.046 69.958-45.39 90.051-28.263 21.558-85.803 27.34-115.087 11.561m51.518-12.022c0-8.333-2.729-15.151-6.062-15.151-6.77 0-8.307 19.977-2.02 26.264 6.683 6.68 8.082 4.754 8.082-11.113m-31.108-7.207c4.571-8.798 4.833-14.547.77-17.059-6.654-4.11-18.578 21.129-13.799 29.215 3.424 5.793 3.954 5.295 13.029-12.156m66.356-4.942c-3.693-8.108-8.944-13.367-11.662-11.688-2.722 1.683-1.923 9.693 1.77 17.804 3.696 8.108 8.947 13.37 11.665 11.688 2.722-1.683 1.923-9.693-1.773-17.804m-97.069-10.274c4.002-4.001 7.276-11.24 7.276-16.092 0-6.999-2.5-6.556-12.124 2.151-12.45 11.27-15.859 21.213-7.272 21.213 2.668 0 8.123-3.274 12.12-7.272m134.548 1.952c0-7.749-17.818-21.304-22.223-16.903-4.401 4.401 9.154 22.223 16.906 22.223 2.926 0 5.317-2.395 5.317-5.32m-42.044-18.338c21.733-7.672 33.227-45.882 21.907-72.807-10.39-24.713-53.996-48.276-67.933-36.713-5.016 4.162-15.206 7.985-22.645 8.497-7.762.531-12.781 4.354-11.778 8.962.963 4.419-2.508 14.537-7.716 22.485-7.021 10.709-15.005 14.445-30.897 14.445-14.05 0-20.01 2.297-17.306 6.669 2.34 3.787 11.644 5.168 21.511 3.194 15.318-3.063 18.726-.861 28.662 18.509 12.469 24.302 46.815 44.998 61.574 37.101 4.997-2.674 16.081-7.33 24.621-10.342m-67.457-18.244c-13.581-13.581-17.15-22.019-15.46-36.549 7.243-62.195 86.998-59.135 98.406 3.776 1.886 10.408-2.529 19.843-15.231 32.544-23.146 23.146-44.725 23.219-67.715.229m24.654 5.539c0-3.337-2.889-6.062-6.421-6.062-3.529 0-4.732 2.725-2.672 6.062 2.061 3.332 4.95 6.058 6.418 6.058 1.472 0 2.675-2.726 2.675-6.058m30.302-6.062c0-3.333-1.203-6.062-2.671-6.062-1.472 0-4.361 2.729-6.422 6.062-2.057 3.332-.854 6.062 2.675 6.062s6.418-2.73 6.418-6.062m-52.354-15.151c-1.919-5.001-6.258-9.093-9.645-9.093-3.547 0-2.958 3.852 1.392 9.093 4.15 5.001 8.489 9.089 9.641 9.089 1.156 0 .531-4.088-1.388-9.089m70.535-6.062c0-5-1.072-9.093-2.38-9.093-1.312 0-3.954 4.093-5.873 9.093-1.919 5.001-.846 9.093 2.384 9.093 3.227 0 5.869-4.092 5.869-9.093m0-27.274c0-3.333-2.889-6.058-6.417-6.058s-4.732 2.725-2.672 6.058c2.057 3.336 4.947 6.062 6.418 6.062 1.469 0 2.671-2.726 2.671-6.062m-18.276-19.697c.233-11.437-9.565-3.002-10.47 9.016-.803 10.655.2 11.629 4.681 4.546 3.133-4.96 5.738-11.062 5.789-13.562m-88.194 61.464c-1.679-2.718-9.688-1.922-17.8 1.774s-13.37 8.943-11.687 11.665c1.679 2.719 9.692 1.923 17.8-1.773 8.111-3.696 13.37-8.944 11.687-11.666m167.077 12.894c0-6.923-29.135-15.423-34.495-10.063-1.995 1.995 2.904 6.24 10.888 9.434 19.137 7.658 23.607 7.774 23.607.629m6.062-36.48c0-3.332-6.818-6.058-15.151-6.058-8.336 0-15.154 2.726-15.154 6.058 0 3.337 6.818 6.062 15.154 6.062 8.333 0 15.151-2.725 15.151-6.062m-170.813-33.118c-11.098-9.27-29.051-14.431-32.242-9.27-4.114 6.654 21.129 18.577 29.211 13.799 2.722-1.61 4.089-3.646 3.031-4.529m156.018-6.083c9.406-7.112 9.871-8.937 2.315-9.089-5.196-.106-14.74 3.812-21.212 8.704-9.405 7.115-9.871 8.936-2.315 9.092 5.197.106 14.74-3.812 21.212-8.707m-142.782-20.66c0-7.752-17.822-21.308-22.223-16.907-4.405 4.401 9.154 22.223 16.902 22.223 2.926 0 5.321-2.391 5.321-5.316m121.334-3.922c4.215-5.08 5.981-10.924 3.917-12.985-4.401-4.401-22.219 9.155-22.219 16.907 0 8.347 9.878 6.232 18.302-3.922m-102.484-28.88c-10.488-10.489-14.475-.556-5.971 14.871 7 12.705 8.043 13.003 10.151 2.907 1.29-6.189-.589-14.188-4.18-17.778m71.862 8.184c3.827-7.149 4.074-13.123.633-15.253-5.935-3.667-8.257-1.036-14.464 16.401-5.132 14.417 5.996 13.494 13.831-1.148m-36.167-9.816c0-8.798-2.624-13.89-6.062-11.764-3.332 2.061-6.058 9.038-6.058 15.507 0 6.473 2.726 11.764 6.058 11.764 3.333 0 6.062-6.978 6.062-15.507m90.909 194.38c0-1.853 7.344-14.467 16.321-28.034 11.673-17.636 17.055-34.797 18.894-60.254 3.14-43.396-.135-57.612-20.01-86.896-8.471-12.487-13.835-25.243-11.917-28.347 1.93-3.122 48.84-5.644 104.951-5.644 71.982 0 103.618-2.158 108.887-7.424 5.858-5.859 9.932-5.859 19.312 0 6.614 4.132 31.926 7.424 57.067 7.424 24.851 0 46.867 2.726 48.927 6.062 2.057 3.333 18.145 6.058 35.746 6.058 28.859 0 33.899 2.086 51.307 21.213l19.301 21.212h199.642c183.969 0 200.083.833 205.232 10.608 5.223 9.914 10.143 86.868 7.941 124.245l-.981 16.666h-324.996l-13.443-18.181c-12.796-17.31-15.568-18.182-57.583-18.182-41.135 0-45.329 1.236-61.559 18.182l-17.422 18.181-112.503-.04-112.503-.04-10.768-18.915c-10.037-17.633-12.574-18.709-37.504-15.9l-26.737 3.013 9.22-14.068c5.321-8.122 7.552-19.308 5.281-26.471-4.83-15.213-30.277-22.597-42.604-12.367-10.215 8.478-12.105 33.67-2.951 39.329 3.333 2.06 6.062 6.472 6.062 9.805 0 3.336-2.333 4.622-5.182 2.86-2.849-1.759-11.713 3.783-19.697 12.32-14.835 15.859-35.728 29.654-35.728 23.585Zm36.352-3.688c.095-23.862 84.774-34.358 96.745-11.989 5.909 11.04 3.449 11.781-45.256 13.635-28.325 1.079-51.496.338-51.489-1.646m375.776 0c0-1.985 4.99-8.119 11.084-13.636 15.845-14.34 68.602-13.661 81.918 1.054 5.517 6.095 10.03 12.233 10.03 13.636s-23.182 2.554-51.514 2.554c-28.336 0-51.518-1.624-51.518-3.608m461.862-63.049c-.447-34.997-3.732-69.086-7.305-75.762-5.898-11.019-4.619-12.131 13.963-12.131 26.184 0 33.358 14.65 34.55 70.561 1.784 83.564 2.438 80.958-20.217 80.958h-20.184Zm52.208 5.585c1.069-31.933-.836-66.032-4.23-75.772l-6.171-17.706h50.457c65.869 0 67.032 1.429 61.81 75.711-2.21 31.457-5.626 61.381-7.592 66.501-2.78 7.243-13.839 9.311-49.893 9.318l-46.321.015zm-1974.465 15.94c-10.463-14.69-17.709-18.182-40.852-19.697-16.081-1.051-29.226-5.165-30.686-9.606-2.014-6.105 8.235-6.901 48.01-3.728 27.813 2.22 53.979 6.73 58.143 10.023 4.169 3.292 7.578 13.835 7.578 23.426 0 14.431-2.544 17.44-14.741 17.44-9.398 0-19.344-6.469-27.452-17.858m1107.176-14.192c-4.804-12.519 4.579-24 17.579-21.496 16.099 3.104 14.914 25.77-1.472 28.107-7.076 1.01-14.322-1.963-16.107-6.611M1252.35 387.14c0-26.722 11.197-36.011 40.488-33.602 21.976 1.81 23.248 3.06 25.032 24.636l1.883 22.729h-24.117c-13.261 0-28.426 1.653-33.699 3.677-7.61 2.922-9.587-.672-9.587-17.44m30.305-10.179c0-9.158-8.319-12.033-16.11-5.568-11.967 9.932-9.9 16.714 3.99 13.083 6.665-1.744 12.12-5.124 12.12-7.515m-866.678 16.321c0-5.383 8.449-6.923 28.786-5.248 21.823 1.799 25.857 3.54 16.666 7.192-19.177 7.632-45.452 6.505-45.452-1.944m936.661-14.214c-4.532-24.141-2.06-29.792 10.859-24.835 4.746 1.82 9.772 13.068 11.164 24.992 2.021 17.298.465 21.678-7.701 21.678-6.945 0-11.542-7.004-14.322-21.835m-106.154-29.985c-.407-13.392 15.391-20.871 41.928-19.85l27.576 1.058-26.9 2.377c-15.813 1.395-30.099 6.577-34.656 12.577-4.266 5.611-7.842 7.338-7.948 3.838m98.293-19.028c5.833-1.523 15.38-1.523 21.213 0 5.833 1.526 1.061 2.772-10.608 2.772-11.666 0-16.437-1.246-10.605-2.772m1065.17-33.591c-84.022-8.835-267.686-12.127-274.885-4.928-3.485 3.485-23.015 6.334-43.403 6.334-34.742 0-38.242-1.33-55.846-21.212-16.681-18.84-22.125-21.213-48.69-21.213h-29.909l-55.458-70.179c-52.571-66.531-66.098-93.46-46.939-93.46 4.685 0 58.547 9.434 119.699 20.966 353.197 66.603 414.407 76.699 441.976 72.908l27.997-3.852 34.245 37.843c34.205 37.795 37.297 44.976 30.422 70.622-4.111 15.344-9.05 15.649-99.209 6.171m63.328-68.34c-42.392-49.618-50.998-40.565-10.35 10.891 25.309 32.035 35.433 41.182 36.843 33.285 1.109-6.214-10.27-25.184-26.493-44.176M532.055 203.8c24.902-13.526 95.695-14.384 114.059-1.388 14.613 10.343 13.17 10.601-57.576 10.365-66.651-.222-71.252-.953-56.483-8.977m711.457-110.478c-2.279-5.957-88.529-7.578-403.098-7.578-348.592 0-400.198-1.152-400.198-8.936 0-4.913-8.18-13.163-18.181-18.334-9.998-5.172-18.182-10.699-18.182-12.28s250.728-2.875 557.175-2.875c551.855 0 557.215.116 561.024 12.124 3.42 10.768 9.169 12.12 51.58 12.12 38.62 0 52.132 2.602 70.804 13.635l23.073 13.639-72.727 1.486c-253.006 5.175-348.45 4.361-351.27-3.001m254.547-31.418c-2.66-4.306-55.871-6.461-159.398-6.461-101.709 0-153.343 2.057-149.451 5.949 4.772 4.772 302.271 12.516 310.721 8.09 1.166-.611.323-4.02-1.872-7.578m75.511-6.461c0-3.336 4.088-6.062 9.089-6.062 5 0 9.092 2.726 9.092 6.062 0 3.332-4.092 6.058-9.092 6.058s-9.089-2.726-9.089-6.058M313.221 46.684c-3.998-4.815-6.378-15.045-5.288-22.728 1.962-13.849 2.773-13.973 92.889-14.529 50.003-.305 95.822-2.697 101.826-5.309 16.862-7.349 145.548-.506 148.346 7.886 2.882 8.645 23.455 9.376 28.623 1.014 5.015-8.119 154.546-8.119 154.546 0 0 9.67 28.645 6.999 32.497-3.031 5.088-13.265 138.225-13.265 151.49 0 10.386 10.386 22.077 11.992 22.077 3.031 0-8.13 155.583-8.13 160.609 0 5.742 9.288 27.216 7.199 31.141-3.031 5.109-13.316 142.659-13.316 153.71 0 4.15 5 10.968 9.092 15.151 9.092s11.004-4.092 15.151-9.092c5.902-7.109 22.619-9.093 76.652-9.093 68.136 0 69.187.214 74.867 15.154 3.169 8.334 8.555 15.151 11.971 15.151s6.211 2.442 6.211 5.422c0 9.275-50.919 11.63-56.363 2.61-3.972-6.582-114.138-8.032-610.615-8.032-333.173 0-605.767 2.181-605.767 4.848 0 2.668 3.27 8.123 7.271 12.12 4.002 4.001 5.699 7.276 3.773 7.276s-6.771-3.943-10.768-8.759"/></svg>