<svg xmlns="http://www.w3.org/2000/svg" width="5222.615" height="1000" viewBox="0 0 5222.615 1000"><path d="M3298.035 928.159c-37.719-72.504-43.915-91.794-29.475-91.794 4.348 0 18.825 25.175 32.169 55.949l24.265 55.952 29.196-42.224c25.231-36.493 33.515-42.257 61.012-42.455 54.088-.388 61.482-11.285 34.952-51.52-12.616-19.136-27.829-44-33.811-55.248-10.246-19.278-9.141-20.455 19.177-20.455 27.4 0 33.507 5.606 69.329 63.662 56.814 92.069 70.635 73.042 19.605-26.987-10.29-20.172-15.071-36.675-10.622-36.675 10.691 0 55.86 104.754 56.119 130.143.101 10.921 8.203 30.086 17.979 42.585 9.781 12.498 17.87 32.504 17.98 44.453.364 39.065-21.843 45.852-151.056 46.168l-119.441.287Zm267.171 17.296c0-22.259-1.598-22.781-77.398-25.321l-77.395-2.597-16.491 27.922-16.495 27.922 93.89-2.601c93.392-2.585 93.889-2.718 93.889-25.325M1955.9 834.092c-2.807-11.249-3.908-61.365-2.443-111.363l2.657-90.909h181.817l2.657 90.909c4.041 138.184 8.559 131.818-93.566 131.818-81.629 0-86.277-1.044-91.122-20.455m1144.037-18.182c-15.358-16.252-57.744-86.819-94.196-156.819-90.723-174.225-93.073-177.271-136.612-177.271-31.376 0-35.744-2.592-35.744-21.191 0-32.359 31.311-43.664 112.439-40.594l71.153 2.694 74.114 142.614c66.122 127.243 72.856 144.677 62.449 161.726-9.724 15.924-9.243 23.209 2.9 43.769 11.35 19.209 12.47 30.183 5.072 49.639-12.409 32.642-27.464 31.521-61.575-4.567m87.992 8.045c0-6.827 8.183-22.813 18.182-35.526 23.865-30.336 23.032-57.514-2.269-74.328-11.249-7.475-55.229-81.136-97.728-163.688l-77.273-150.097-79.547-.157c-70.477-.142-79.542-2.023-79.542-16.524 0-38.632-44.566-50.957-67.234-18.594-9.877 14.1-11.204 24.289-4.744 36.363 8.615 16.099-.089 16.778-214.908 16.778-210.119 0-225.307 1.117-247 18.182-22.166 17.434-36.877 18.182-358.249 18.182h-335.142V354.545h505.604l26.745-36.149 26.745-36.149 209.779-.219 209.778-.218 21.349 22.728 21.353 22.728h830.027l21.349-22.728c24.099-25.649 64.361-30.122 81.819-9.089 20.119 24.241 85.1 15.055 283.743-40.121 106.441-29.564 208.485-57.765 226.76-62.663l33.228-8.911 3.414 35.789c2.657 27.853-2.467 44.825-23.116 76.565-31.077 47.778-44.336 47.127-16.063-.792 21.333-36.157 26.328-95.718 7.945-94.683-6.25.352-19.545 4.373-29.548 8.94-16.366 7.474-15.913 8.093 4.546 6.18 31.627-2.953 34.402 27.805 6.521 72.197-12.014 19.124-20.099 39.886-17.968 46.136 3.022 8.854-38.564 11.362-188.333 11.362-105.708 0-190.108-3.382-187.552-7.52s29.414-15.018 59.682-24.184c30.272-9.166 53.465-18.238 51.544-20.164-5.546-5.545-90.193 16.629-110.255 28.881-11.645 7.111-83.426 13.396-199.59 17.478-99.771 3.502-185.684 9.784-190.91 13.954-5.226 4.171-56.648 9.478-114.271 11.791-57.623 2.31-114.15 9.227-125.618 15.363-18.93 10.128-19.67 12.984-8.057 30.963 7.034 10.889 54.723 90.37 105.971 176.619 51.249 86.253 95.293 156.82 97.882 156.82 2.585 0 12.746-10.226 22.579-22.729 17.34-22.04 21.247-22.728 129.739-22.728 94.099 0 113.846-2.443 124.343-15.378 8.478-10.452 8.834-13.195 1.112-8.555-8.029 4.821-11.362-.769-11.362-19.06 0-19.374-9.841-34.106-39.13-58.589-33.463-27.971-44.174-46.351-73.98-126.924-19.169-51.823-36.772-99.334-39.118-105.583-2.981-7.949 7.046-11.362 33.358-11.362 45.294 0 53.44 13.975 37.059 63.605-10.986 33.293-9.922 37.977 22.044 97.053 39.171 72.395 71.708 102.889 109.766 102.881 43.47-.012 222.257-59.929 246.344-82.556 12.564-11.803 21.838-30.907 21.838-44.979 0-32.415-32.318-72.371-58.533-72.371-17.211 0-24.317 9.518-40.74 54.545-10.937 30.001-23.759 54.549-28.488 54.549-4.732 0-8.603-30.684-8.603-68.184v-68.18h-98.889c-76.808 0-101.413-3.046-110.202-13.639-10.028-12.078 23.824-13.474 296.614-12.208 169.362.785 287.476 3.855 262.475 6.82l-45.452 5.388-2.844 39.566c-2.038 28.383 1.804 44.696 13.587 57.721 15.973 17.647 15.69 18.74-10.039 39.259-26.021 20.746-26.203 21.511-10.76 45.08 15.335 23.404 15.152 24.415-7.576 42.289-12.802 10.076-23.282 22.332-23.282 27.247 0 4.91 16.519 33.248 36.703 62.974 25.208 37.12 42.665 54.048 55.747 54.048 24.9 0 77.851-33.027 90.325-56.333 10.889-20.346 24.569-12.725 30.264 16.867 5.279 27.4-2.908 35.461-81.435 80.213-87.304 49.752-99.589 51.451-91.839 12.701 4.518-22.574-.962-39.291-26.821-81.868-17.875-29.422-40.372-57.708-49.995-62.857-9.619-5.149-17.494-18.934-17.494-30.636 0-14.905-8.648-25.458-28.9-35.267-26.426-12.798-32.46-12.604-70.454 2.277-22.853 8.956-55.872 19.06-73.374 22.453-17.498 3.398-65.454 15.157-106.562 26.13-66.109 17.652-75.352 22.7-79.991 43.701-7.79 35.255-39.215 44.429-152.512 44.518l-101.841.081-35.094 54.464c-29.572 45.901-39.223 54.468-61.364 54.468-16.139 0-26.272-4.789-26.272-12.41Zm742.359-560.319c51.911-14.998 97.028-27.27 100.256-27.27 3.232 0 3.547-2.326.703-5.17-4.886-4.886-197.466 47.196-205.976 55.706-8.017 8.017 12.426 3.487 105.017-23.266m634.918 519.167c-32.994-5.016-36.63-8.26-39.207-34.98-2.184-22.619 5.724-41.411 34.09-81.027 20.427-28.52 36.934-62.109 36.934-75.141 0-14.635-32.771-72.658-86.459-153.066l-86.459-129.497H4180.09l-2.896-84.234-2.896-84.238 49.999.145c48.87.142 50.067-.469 52.971-27.129 3.309-30.356 19.755-54.407 19.755-28.888 0 8.612 16.884 33.977 37.521 56.365l37.524 40.704h112.156c102.857 0 112.969 1.508 121.892 18.185 9.129 17.062 6.913 18.182-36.044 18.182-34.628 0-45.776 3.317-45.776 13.635 0 10.392 11.375 13.636 47.815 13.636 37.965 0 50.148 3.745 59.168 18.181 16.507 26.437 125.528 26.437 159.133 0 20.22-15.904 36.881-18.181 133.044-18.181 91.656 0 109.931-2.266 109.931-13.636 0-11.426-19.241-13.635-118.62-13.635h-118.619l-12.386-29.459c-6.811-16.199-10.464-32.561-8.118-36.363 2.346-3.798 73.576-6.909 158.28-6.909h154.008v31.821c0 22.223 4.114 31.817 13.639 31.817 7.5 0 13.636 6.136 13.636 13.635 0 7.504-6.136 13.64-13.636 13.64-10.488 0-13.639 11.673-13.639 50.512 0 41.229-6.787 63.699-36.921 122.228-36.04 70-36.877 73.717-35.073 155.873 1.241 56.494-1.566 85.298-8.531 87.62-5.711 1.905-10.383 10.452-10.383 18.994 0 21.64-70.348 88.3-111.072 105.252-25.572 10.642-64.297 13.752-159.089 12.773-68.912-.707-141.659-3.777-161.657-6.815m323.99-70.094 44.611-32.747-2.484-155.889-2.483-155.889-165.909-2.48c-194.598-2.904-190.634-5.828-120.456 88.842l45.456 61.316v229.595h78.329c75.623 0 79.866-1.133 122.936-32.748m-183.083-98.601V500.944l-45.452-54.617c-25.001-30.042-45.456-56.847-45.456-59.565s67.5-4.943 150-4.943h149.999v278.129l-34.474 33.662c-33.722 32.929-35.999 33.665-104.544 33.665h-70.073Zm-245.455-382.289c0-11.471-20.2-13.639-127.271-13.639-107.072 0-127.272 2.168-127.272 13.639s20.2 13.636 127.272 13.636c107.071 0 127.271-2.164 127.271-13.636M3164.202 759.763c-8.268-21.555 3.434-43.32 21.43-39.854 10.064 1.938 15.937 11.35 15.937 25.548 0 25.911-28.695 36.901-37.367 14.306m875.879-52.571c-55.354-75.036-54.468-71.958-28.572-98.986 22.299-23.278 22.732-25.636 9.412-51.398-13.469-26.049-13.162-27.367 8.769-37.358 12.503-5.699 24.087-10.359 25.746-10.359s18.711 23.525 37.9 52.272c19.193 28.751 42.047 60.567 50.787 70.7 20.168 23.383 13.3 51.099-18.489 74.603-45.221 33.431-61.202 33.532-85.553.526m-847.868-113.244c-43.616-74.171-87.151-147.909-96.745-163.866-17.256-28.69-17.248-29.11.55-38.636 9.898-5.295 58.149-9.756 107.225-9.918 64.022-.206 94.221-4.061 106.882-13.635 36.735-27.785 46.212-18.081 86.843 88.926 30.535 80.408 47.321 111.084 78.535 143.492 27.012 28.043 39.705 49.116 39.705 65.911v24.686h-108.577c-99.734 0-109.656 1.545-121.847 18.95-12.604 17.991-17.272 12.146-92.571-115.91m295.72 78.584c0-15.715-47.228-81.622-58.489-81.622-8.708 0-50.605 71.7-50.605 86.605 0 2.366 24.548 4.304 54.549 4.304 31.065 0 54.545-3.997 54.545-9.287m1615.374 29.742c-4.045-6.25-19.387-11.366-34.094-11.366h-26.733V461.471l34.09-55.735 34.09-55.734 2.593 88.15c3.883 131.891-1.586 277.049-9.95 264.122Zm38.507-235.606c-.364-134.168-3.721-265.42-7.463-291.667l-6.795-47.729h34.086c56.462 0 65.879 17.32 59.039 108.576-26.644 355.471-41.881 462.85-66.838 471.033-8.89 2.916-11.511-49.368-12.029-240.213M1965.227 590.991c-9.772-30.801 2.977-36.444 82.329-36.444h76.74v54.545h-76.663c-68.56 0-77.265-1.913-82.406-18.101m-967.782-29.628c.784-37.8 22.376-138.658 29.191-136.361 3.714 1.25 14.38 2.269 23.711 2.269 15.063 0 16.123 4.32 9.486 38.637-4.11 21.252-7.653 56.025-7.872 77.273-.376 36.78-1.707 38.637-27.667 38.637-22.348 0-27.197-3.693-26.849-20.455m400.631-6.302c16.548-22.381 18.882-34.361 14.267-73.309-5.234-44.199-4.494-46.415 14.581-43.701 16.196 2.305 20.661 9.748 23.003 38.357 4.219 51.556-3.341 71.789-33.479 89.594-37.415 22.101-41.152 19.877-18.372-10.941m-935.601-2.334c-15.707-15.702-14.008-102.477 2.269-115.983 7.248-6.014 24.637-9.736 38.644-8.267 14.004 1.468 30.847-.656 37.424-4.721 6.581-4.069 13.133-5.962 14.561-4.21 1.428 1.747-1.557 34.887-6.634 73.636l-9.234 70.454h-33.059c-18.185 0-37.973-4.907-43.971-10.909m98.181-19.638c0-63.642 11.224-114.907 25.155-114.907 10.642 0 12.369 7.386 7.952 34.091-3.098 18.752-5.679 51.479-5.732 72.726-.072 28.242-3.77 38.637-13.736 38.637-9.416 0-13.639-9.453-13.639-30.547m48.866-34.232c3.308-35.627 8.231-68.354 10.933-72.726 2.702-4.373 32.517-7.949 66.255-7.949h61.344l-8.615 63.634-8.612 63.638h-43.64c-24.002 0-46.168 4.094-49.258 9.093s-12.098 9.089-20.022 9.089c-12.361 0-13.551-9.186-8.385-64.779m470.96 55.654c-13.992-5.93-19.602-14.311-16.673-24.905 2.427-8.785 7.05-35.4 10.278-59.152l5.865-43.183h96.308c91.123 0 95.536.858 81.969 15.913-20.584 22.837-27.311 58.238-16.483 86.718 9.178 24.143 8.66 24.645-25.499 24.645-19.18 0-52.83 2.002-74.777 4.449s-49.392.429-60.988-4.485m-328.917-30.515c0-16.802 2.601-49.529 5.78-72.727l5.785-42.179h79.853l-5.545 61.364c-7.609 84.239-7.524 84.093-49.222 84.093-35.534 0-36.651-.93-36.651-30.551m533.227 13.927c-33.463-36.979-5.74-94.739 45.468-94.739 27.416 0 57.672 30.332 57.672 57.825 0 44.882-72.46 70.814-103.14 36.914m194.048-49.74c0-36.501-4.389-70.753-9.752-76.116-5.368-5.368-8.434-23.57-6.82-40.457l2.937-30.701 70.453-2.657 70.454-2.654v89.707c0 82.014-1.804 91.402-21.042 109.475-15.423 14.488-32.411 19.767-63.633 19.767h-42.597Zm-632.326 4.999c9.931-84.647 5.692-80.585 80.036-76.65 36.258 1.921 68.229 6.144 71.04 9.388 2.815 3.244 1.436 31.465-3.066 62.716l-8.183 56.818H840.382Zm1087.932 33.451c-21.786-13.279-33.589-15.92-40.457-9.056-5.893 5.893-57.093 9.696-130.605 9.696h-120.909V481.82h349.242c270.889 0 350.273-2.552 353.829-11.366 2.524-6.249 4.91 3.976 5.302 22.728l.72 34.091h-57.275c-32.423 0-62.004-4.733-68.18-10.909-8.486-8.487-13.332-8.487-21.818 0-5.999 5.998-22.121 10.909-35.83 10.909-13.704 0-27.444 4.089-30.534 9.092-3.09 5-43.22 9.073-89.173 9.057-68.359-.028-89.149-3.446-114.312-18.789m441.655-63.395c-2.743-10.488-.118-20.746 5.905-23.06 5.966-2.285 106.898-3.062 224.296-1.715 206.571 2.367 213.448 3.03 213.448 20.629 0 17.612-6.873 18.259-219.354 20.613-215.478 2.39-219.442 2.099-224.295-16.467M1369.75 418.182c-7.515-4.853-88.137-8.874-179.547-8.951-104.455-.089-165.909-3.507-165.909-9.23 0-5 5.659-9.093 12.576-9.093s14.715-8.179 17.332-18.182c4.567-17.474 12.398-18.181 201.058-18.181h196.306v36.363c0 35.987-.356 36.363-34.09 36.226-18.748-.077-40.227-4.106-47.726-8.952m1446.412-12.486c-15.148-18.246-2.237-43.535 20.56-40.267 22.323 3.2 31.4 33.342 13.465 44.708-16.847 10.679-22.044 9.999-34.025-4.441m1305.035-87.515c8.858-14.998 18.934-27.27 22.389-27.27 9.254 0-2.411 39.793-13.947 47.588-20.657 13.95-23.974 5.974-8.442-20.318M21.406 320.014C-2.038 294.11-6.815 251.967 10.004 219.442L24.76 190.91h463.933l-2.653 70.453-2.657 70.454-223.451 2.43c-206.883 2.249-224.567 1.194-238.526-14.233m284.706-24.561c0-11.447-19.698-13.635-122.729-13.635s-122.725 2.188-122.725 13.635c0 11.451 19.694 13.639 122.725 13.639s122.729-2.188 122.729-13.639m0-63.634c0-11.447-19.698-13.639-122.729-13.639s-122.725 2.192-122.725 13.639 19.694 13.636 122.725 13.636 122.729-2.189 122.729-13.636m796.681 98.198c-7.434-7.439 148.192-166.382 162.907-166.382 5.485 0 19.577-10.225 31.319-22.724 13.009-13.846 31.397-22.728 47.042-22.728 14.129 0 25.689-4.094 25.689-9.093s-6.379-9.089-14.173-9.089c-7.799 0-11.645-4.093-8.555-9.093 3.677-5.95 289.811-9.088 828.781-9.088 727.966 0 822.56 1.577 817.932 13.635-4.615 12.029 59.14 13.635 540.532 13.635 378.822 0 551.473-3.05 564.412-9.979 22.486-12.033 40.7 2.678 45.327 36.619 2.702 19.787-2.682 23.884-51.527 39.243-52.046 16.361-83.814 16.887-692.214 11.451-350.715-3.135-753.668-2.751-895.453.853l-257.791 6.553-57.13 71.266-57.125 71.267h-253.699c-159.327 0-255.789-3.382-259.32-9.089-7.325-11.859-156.306-11.859-163.635 0-3.381 5.473-65.931 9.089-157.143 9.089h-151.521l72.513-73.014 72.516-73.018 2.726 50.29 2.727 50.29h72.273c42.119 0 72.274-3.794 72.274-9.093 0-5.048-24.245-9.089-54.549-9.089h-54.545v-64.435l65.761 2.67 65.758 2.674-2.82 38.636-2.815 38.637h68.876c39.858 0 68.88-3.831 68.88-9.093 0-5.137-25.952-9.089-59.67-9.089h-59.666l2.848-29.548 2.852-29.543 70.453-2.658 70.454-2.653v82.584h68.18c39.397 0 68.184-3.839 68.184-9.093 0-5.129-25.758-9.089-59.091-9.089h-59.092v-63.638h136.365v81.82h68.18c39.397 0 68.184-3.839 68.184-9.093 0-5.129-25.757-9.089-59.091-9.089h-59.092v-64.402l70.454 2.653 70.457 2.658 2.812 39.008 2.815 39.009 69.911-2.645c69.515-2.629 69.932-2.795 72.897-28.743 1.642-14.355.797-34.81-1.873-45.456-4.858-19.351-4.959-19.355-374.955-19.355-287.99 0-370.934-2.52-373.879-11.366-8.243-24.714-37.714-7.386-120.286 70.732-82.948 78.467-98.752 89.024-112.581 75.195m720.552-156.512c6.978-4.417 10.177-14.582 7.103-22.587-4.425-11.532-19.565-14.553-72.937-14.553-70.457 0-98.622 12.773-76.638 34.761 12.462 12.462 123.619 14.319 142.472 2.379m193.624-1.869c5.489-3.39 7.463-12.713 4.389-20.718-4.377-11.415-19.221-14.553-68.763-14.553-34.749 0-69.648 2.483-77.556 5.517-17.163 6.585-18.999 27.359-3.018 34.183 15.707 6.714 132.708 3.135 144.948-4.429m188.196 2.111c6.977-4.55 10.176-14.824 7.102-22.829-8.195-21.357-149.571-21.357-157.766 0-3.07 8.005-.623 17.619 5.441 21.365 16.151 9.983 130.394 11.131 145.223 1.464m135.579-16.928c-2.305-11.968-12.009-15.908-39.178-15.908-27.165 0-36.873 3.94-39.179 15.908-2.56 13.308 3.843 15.909 39.179 15.909 35.34 0 41.743-2.601 39.178-15.909M510.657 320.317c-4.999-3.677-9.093-31.226-9.093-61.227 0-49.849 6.549-67.667 25.002-68.043 3.749-.073 6.819 30.543 6.819 68.043 0 66-3.478 75.368-22.728 61.227m251.874-58.954 2.674-65.907 79.542-2.629 79.546-2.625v137.072H759.861Zm234.489 57.611-49.999-5.339v-109.09l39.13-2.819c26.656-1.922 40.938-7.718 44.793-18.182 9.457-25.669 21.677-28.715 115.813-28.86l90.649-.142-58.828 59.48c-53.057 53.639-59.14 57.433-61.972 38.636-1.731-11.463-7.725-26.412-13.324-33.22-42.855-52.138-129.091 2.734-97.392 61.967 11.625 21.717 51.034 40.158 66.025 30.891 5.759-3.559 7.082-1.731 3.248 4.482-3.568 5.772-11.358 9.825-17.316 9.012-5.955-.817-33.326-3.883-60.827-6.82ZM551.567 259.09v-60.188l33.006 2.824 33.002 2.819v109.09l-33.002 2.823-33.006 2.823Zm81.815 0v-59.092h63.638v118.183h-63.638Zm81.82 0c0-46.464 2.912-59.092 13.635-59.092s13.639 12.628 13.639 59.092c0 46.467-2.916 59.091-13.639 59.091s-13.635-12.624-13.635-59.091m315.046 24.285c-21.134-23.355-18.723-44.182 7.071-61.085 30.648-20.079 59.702-4.381 59.702 32.257 0 41.262-39.923 58.497-66.773 28.828m1584.957-33.374-49.38-50.003h694.835V300h-596.076Zm662.876 47.725c-.412-1.249-1.779-11.475-3.025-22.728-2.201-19.836.137-20.451 78.029-20.451 44.166 0 80.299-2.807 80.299-6.233 0-3.43-8.895-15.702-19.767-27.274l-19.764-21.042h285.22c160.12 0 281.434 3.434 276.584 7.831-13.231 11.997-278.796 83.082-310.379 83.082-15.318 0-32.941-6.136-39.166-13.64-17.543-21.138-93.129-18.112-113.637 4.547C3477.95 297.872 3464.477 300 3377.431 300c-54.225 0-98.933-1.024-99.35-2.274m-1324.819-54.545c2.791-28.916 3.892-29.604 51.767-32.334 64.657-3.685 71.752-.097 66.784 33.766-4.125 28.092-4.174 28.116-62.764 28.116h-58.634Zm276.423 9.093c24.127-42.406 27.29-43.183 176.137-43.183h142.343l26.13 27.275 26.13 27.27h-188.604c-148.265 0-187.217-2.431-182.136-11.362m2403.074-42.629-19.314-44.898-114.914.101-114.915.106-34.203-36.671c-23.999-25.729-34.208-44.918-34.208-64.297V36.359h226.161c253.33 0 253.69.089 242.449 60.002-3.96 21.098-12.24 34.511-23.06 37.338-16.365 4.284-16.341 5.671.813 45.703 27.028 63.047 18.776 75.141-51.273 75.141h-58.225ZM3281.981 225c-9.558-15.468 9.55-25.002 50.124-25.002 37.779 0 64.916 11.213 64.916 26.822 0 7.677-110.247 5.934-115.04-1.82M1053.207 115.91c2.779-19.582 7.099-20.564 100.972-23.04 74.595-1.966 101.105.461 110.777 10.133 24.884 24.879-3.41 33.362-111.295 33.362-101.987 0-103.322-.271-100.454-20.455M942.839 59.528c-6.027-7.26-9.522-20.556-7.766-29.547 2.876-14.76 12.543-16.026 99.584-13.053 64.261 2.192 98.481-.081 102.643-6.82C1140.738 4.55 1161.844 0 1184.208 0c30.434 0 42.127 4 46.504 15.908 3.216 8.75 11.269 19.181 17.894 23.182 6.63 3.996 12.05 13.202 12.05 20.454 0 19.529-301.609 19.513-317.817-.016m484.267-1.674c-10.209-26.611 10.185-44.053 54.938-46.989 33.346-2.185 42.248.21 42.248 11.366 0 18.044 14.606 18.383 21.47.497 3.956-10.306 20.613-13.635 68.185-13.635 51.539 0 64.066 2.88 69.114 15.908 5.874 15.152 6.727 15.152 17.883 0 14.602-19.824 59.714-21.543 59.714-2.273 0 17.648 14.695 17.648 21.47 0 3.952-10.306 20.613-13.635 68.18-13.635 51.544 0 64.067 2.88 69.119 15.908 5.873 15.152 6.723 15.152 17.883 0 15.273-20.742 55.904-20.742 63.896 0 5.837 15.152 6.553 15.152 15.059 0 13.102-23.339 130.476-23.339 139.524 0 5.873 15.152 6.726 15.152 17.882 0 15.274-20.738 55.896-20.738 63.937 0 5.874 15.152 6.723 15.152 17.883 0 17.049-23.148 127.688-23.148 136.664 0 5.873 15.152 6.722 15.152 17.882 0 15.269-20.738 55.896-20.738 63.933 0 5.873 15.152 6.727 15.152 17.887 0 16.478-22.38 127.684-23.225 136.198-1.035 5.287 13.769 6.929 13.769 22.146 0 21.555-19.509 52.377-18.979 60.135 1.035 5.873 15.152 6.722 15.152 17.882 0 16.058-21.806 127.478-23.165 139.492-1.699 7.211 12.887 9.048 12.887 19.742 0 15.836-19.079 51.589-18.052 59.246 1.699 5.873 15.152 6.726 15.152 17.886 0 16.956-23.027 127.264-23.027 141.077 0 9.089 15.152 9.999 15.152 19.084 0 12.357-20.6 50.33-20.6 58.318 0 5.874 15.152 6.723 15.152 17.883 0 16.96-23.027 127.267-23.027 141.081 0 9.084 15.152 9.994 15.152 19.083 0 12.357-20.6 50.331-20.6 58.315 0 5.873 15.152 6.727 15.152 17.887 0 16.956-23.027 127.263-23.027 141.076 0 9.089 15.152 9.999 15.152 19.088 0 12.353-20.6 50.326-20.6 58.315 0 5.873 15.152 6.722 15.152 17.882 0 15.986-21.708 141.53-23.723 141.53-2.273 0 17.648 14.699 17.648 21.47 0 7.034-18.327 47.867-17.409 55.023 1.238 5.282 13.769 6.924 13.769 22.141 0 21.895-19.816 133.315-21.313 140.766-1.893 2.738 7.139 16.438 14.298 30.441 15.908 15.52 1.784 26.636 9.138 28.476 18.837 2.864 15.096-65.794 15.909-1338.842 15.909-1233.935 0-1342.321-1.198-1347.572-14.873"/></svg>