<svg xmlns="http://www.w3.org/2000/svg" width="3455.344" height="1000" viewBox="0 0 3455.344 1000"><path d="M2753.899 996.556c-27.249-9.736-36.255-47.938-11.601-49.207 11.226-.581 12.044-1.522 3.315-3.801-6.382-1.668-11.604-5.553-11.604-8.635s-1.694-10.015-3.761-15.408c-2.94-7.658 6.363-11.615 42.468-18.066 25.429-4.546 51.209-6.352 57.293-4.019 15.383 5.902 9.939 25.493-9.867 35.513-9.085 4.597-12.589 8.402-7.791 8.456 32.242.36 45.194-32.325 19.453-49.101-13.13-8.558-20.475-8.507-61.33.411-56.126 12.254-82.877 5.76-82.877-20.122 0-8.911-1.81-20.919-4.023-26.686-2.795-7.283-.189-10.488 8.5-10.488 6.887 0 28.252-4.078 47.473-9.064 32.134-8.337 36.12-8.071 49.512 3.293l14.566 12.36-18.603 16.597c-12.211 10.895-15.188 16.597-8.661 16.597 10.819 0 30.582-24.422 30.582-37.792 0-4.571-7.025-12.919-15.612-18.545-14.214-9.311-20.592-9.031-71.274 3.118-63.012 15.104-65.611 15.427-65.611 8.181 0-2.889 12.967-8.722 28.816-12.963 31.653-8.464 70.637-40.412 70.637-57.885 0-6.109-8.697-19.806-19.327-30.436-22.361-22.361-38.929-21.565-99.183 4.771-31.679 13.847-45.682 15.576-126.157 15.576-116.1 0-119.992-2.162-119.992-66.679v-46.034h86.584c56.961 0 85.159 2.304 82.419 6.738-2.29 3.706-6.658 5.196-9.707 3.314-3.046-1.883-13.159 9.58-22.474 25.472-14.427 24.614-41.942 50.667-53.513 50.667-1.842 0 4.023-10.859 13.029-24.131s16.375-31.475 16.375-40.451c0-16.281-.127-16.311-48.069-11.593-26.438 2.602-48.643 5.218-49.344 5.814s-1.992 14.962-2.871 31.923c-2.443 47.218 4.524 51.699 80.394 51.699 74.893 0 81.536-4.074 78.815-48.338-1.6-25.944 1.373-32.9 27.009-63.303 34.095-40.437 53.433-47.393 131.912-47.444 50.275-.036 54.945 1.036 50.377 11.564-9.38 21.612-10.957 53.124-3.369 67.301 4.154 7.762 20.104 21.979 35.448 31.595 35.019 21.947 135.391 118.877 147.848 142.776 5.132 9.848 9.333 27.15 9.333 38.453 0 39.161-14.573 54.25-91.243 94.481-68.119 35.741-90.069 42.181-114.294 33.521m36.465-48.44c12.785-5.495 12.741-5.713-1.265-6.163-7.988-.258-16.368 2.518-18.625 6.163-4.844 7.843 1.643 7.843 19.894 0Zm-39.78-66.301c8.744-3.758 9.874-5.822 3.315-6.062-5.47-.2-14.421 2.526-19.89 6.062-12.12 7.831-1.65 7.831 16.575 0M1581.039 939.83c-3.093-8.206-7.73-24.614-10.31-36.468l-4.685-21.547h115.461l-4.455 27.848c-6.277 39.271-13.316 45.086-54.575 45.086-31.057 0-36.563-1.985-41.436-14.919m-9.522-75.696c-2.431-2.431-4.419-12.872-4.419-23.204v-18.788h112.71v46.412h-51.936c-28.564 0-53.924-1.988-56.355-4.42m481.973-4.455c2.352-6.705 4.372-86.231 4.489-176.726l.2-164.536 158.892-.905 158.897-.905v53.706c0 34.117-2.421 52.212-6.633 49.609-3.645-2.253-6.628-17.244-6.628-33.31 0-22.092-3.126-30.883-12.825-36.073-14.613-7.821-251.401-9.431-263.259-1.788-4.161 2.678-8.635 20.388-9.947 39.358-1.312 18.967-.345 32.395 2.145 29.836 2.493-2.558 5.476-16.586 6.632-31.173l2.097-26.522h265.21l1.999 30.966c1.101 17.03 6.32 34.55 11.604 38.937 7.497 6.225 9.601 27.209 9.601 95.836 0 103.628-3.765 127.305-21.772 136.943-11.717 6.268-12.698 5.618-7.875-5.208 6.359-14.272 16.342-193.741 11.48-206.41-2.515-6.552-33.994-8.049-140.061-6.661l-136.815 1.792-3.314 100.88c-2.886 87.751-4.946 102.418-15.86 112.714-12.051 11.367-12.378 11.353-8.271-.36Zm28.59-10.357c2.315-9.478 7.483-19.425 11.481-22.103 5.004-3.358 4.688-4.903-1.021-4.976-8.821-.105-11.448-21.248-3.613-29.084 6.538-6.538 7.156-57.209.702-57.209-5.855 0-3.667-23.807 2.78-30.258 2.242-2.242 2.427-14.253.41-26.689-3.863-23.8 6.404-31.646 14.403-11.011 4.284 11.051 4.906 11.051 13.043 0 7.417-10.067 20.54-11.604 99.187-11.604 77.902 0 91.232 1.53 94.819 10.877 3.812 9.939 4.898 9.881 12.61-.665 4.641-6.346 11.619-9.573 15.507-7.171 8.857 5.473 9.354 30.109.607 30.109-3.692 0-4.699 8.813-2.351 20.563 2.787 13.933 1.13 22.648-5.139 27.027-7.123 4.975-7.345 7.235-.963 9.827 9.823 3.983 11.251 28.778 1.661 28.778-3.649 0-6.633 2.984-6.633 6.629s4.456 6.629 9.904 6.629c12.123 0 9.536 27.776-2.973 31.948-6.789 2.264-6.774 3.834.076 8.071 6.727 4.158 6.105 8.94-2.973 22.794l-11.487 17.535-122.126-1.392-122.123-1.396 4.209-17.229Zm-57.772-25.519c-.149-17.325-.509-50.89-.799-74.592-1.381-111.656.799-139.235 11.015-139.235 8.482 0 9.946 18.051 9.946 122.66s-1.464 122.657-9.946 122.657c-7.407 0-10.012-8.039-10.212-31.49Zm610.248-24.738c0-14.09-4.993-28.328-12.606-35.942-12.393-12.393-12.117-12.796 15.975-23.524 47.771-18.243 74.719-20.297 89.604-6.829 33.547 30.36 1.185 67.298-74.74 85.301-17.255 4.093-18.233 3.075-18.233-19.006m-1065.067-.138c-4.648-12.113-.305-40.18 5.895-38.112 2.736.912 27.54 1.657 55.119 1.657h50.148l-2.079 21.028-2.078 21.027-51.784 1.683c-38.609 1.257-52.655-.596-55.221-7.283m1617.031-27.496c-11.357-4.703-10.394-25.436 2.326-50.032 8.155-15.772 9.576-30.211 6.138-62.333-4.041-37.73-7.017-44.097-30.527-65.335l-26.046-23.535h-99.434c-99.434 0-99.434 0-86.173-13.257 11.56-11.56 13.261-22.103 13.261-82.169 0-55.897 1.926-69.648 10.197-72.821 13.843-5.313 103.043 59.706 98.428 71.738-1.897 4.939-.026 11.088 4.139 13.665 9.623 5.949 197.455 6.894 203.324 1.025 2.402-2.406 27.801-4.372 56.435-4.372h52.067l-1.788 144.207-1.788 144.207-96.139 1.221c-52.873.673-99.866-.323-104.424-2.209Zm197.248-134.929V523.788h-38.457c-21.151 0-42.033 3.58-46.412 7.955-8.565 8.566-11.822 204.763-3.536 213.049 2.432 2.431 23.317 4.419 46.412 4.419h41.993Zm-81.772 101.662c-8.261-8.261-5.023-191.234 3.536-199.792 4.375-4.376 22.277-7.955 39.779-7.955h31.828v212.166h-35.364c-19.446 0-37.348-1.988-39.779-4.419m-50.831-75.144c0-3.645-2.984-6.629-6.633-6.629-3.645 0-6.628 2.984-6.628 6.629 0 3.649 2.983 6.632 6.628 6.632 3.649 0 6.633-2.983 6.633-6.632m-10.169-88.826c-6.08-18.607-14.486-36.026-18.676-38.704-4.194-2.678-51.779-4.917-105.747-4.972-74.831-.076-102.766-2.503-117.685-10.215-21.445-11.092-26.358-6.451-7.958 7.515 8.434 6.404 39.078 8.864 112.237 9.017 124.514.258 120.076-2.53 132 83.091l4.615 33.151 6.135-22.528c4.539-16.67 3.26-31.319-4.921-56.355m142.772-63.347c0-3.794-58.256-6.396-146.181-6.531l-146.18-.218-27.863-18.785c-43.712-29.473-77.59-49.145-77.59-45.056 0 2.057 24.589 20.198 54.644 40.321l54.639 36.581h144.266c86.867 0 144.265-2.511 144.265-6.309Zm15.503 250.764c2.312-8.642 4.249-100.077 4.296-203.186l.105-187.472 21.551 11.041c30.716 15.736 32.584 20.46 28.557 72.174-1.988 25.527-6.603 88.183-10.256 139.236-10.811 151.13-12.501 160.372-31.617 172.895-16.532 10.834-16.753 10.75-12.621-4.688Zm-1829.404-18.476c-1.526-1.519-2.769-7.868-2.769-14.111 0-6.24-6.716-16.027-14.918-21.751-13.915-9.707-9.427-10.43 66.701-10.753l81.62-.349-2.057 24.44-2.061 24.439-61.871.422c-34.034.232-63.122-.818-64.645-2.337m-588.549-69.939c-27.87-21.118-5.941-23.437 221.51-23.437 231.587 0 241.163 1.112 217.079 25.196-9.619 9.619-38.456 10.611-38.456 1.322 0-3.645-7.283-6.628-16.183-6.628-8.904 0-18.029 2.983-20.283 6.628-2.253 3.649-11.382 6.633-20.282 6.633s-16.183-2.984-16.183-6.633c0-3.645-7.283-6.628-16.186-6.628-8.9 0-18.026 2.983-20.283 6.628-2.253 3.649-11.378 6.633-20.278 6.633-8.904 0-16.187-2.984-16.187-6.633 0-3.645-7.283-6.628-16.183-6.628s-18.029 2.983-20.282 6.628c-2.253 3.649-11.382 6.633-20.282 6.633s-16.183-2.984-16.183-6.633c0-3.645-8.777-6.628-19.501-6.628s-21.343 2.983-23.597 6.628c-2.253 3.649-11.378 6.633-20.282 6.633-8.9 0-16.183-2.984-16.183-6.633 0-3.645-7.283-6.628-16.183-6.628-8.903 0-18.029 2.983-20.282 6.628-6.051 9.787-51.133 7.658-65.31-3.081m512.795-3.645c-10.608-19.818 1.287-21.874 107.004-18.502 90.963 2.904 104.693 6.414 105.111 26.889.055 2.733-46.037 4.972-102.432 4.972-96 0-102.992-.851-109.683-13.359m-510.472-45.853c0-15.1-3.326-19.9-14.919-21.547-14.387-2.046-14.918-4.59-14.918-71.734v-69.62l30.854-1.995 30.854-1.995 4.558 26.987c2.507 14.842 2.489 42.047-.048 60.451-4.204 30.574-3.372 33.786 9.613 37.181 19.032 4.979 13.722 18.087-8.388 20.704-14.7 1.74-17.717 5.407-17.717 21.547 0 12.868-3.365 19.45-9.946 19.45-6.578 0-9.943-6.578-9.943-19.429m39.779 9.914c0-5.236 19.396-26.649 43.098-47.589 37.072-32.751 43.097-41.211 43.097-60.541 0-20.599 1.516-22.292 18.233-20.37l18.232 2.097 1.152 67.959 1.152 67.959h-62.482c-49.868 0-62.482-1.919-62.482-9.515m137.026 5.095c-5.604-5.6-5.716-63.834-.203-104.053 4.063-29.662 5.011-30.759 26.518-30.759 21.863 0 22.307.567 22.307 28.51 0 15.681-3.656 32.162-8.123 36.632-6.41 6.407-6.41 10.862 0 21.125 4.467 7.152 8.123 21.998 8.123 32.984 0 18.225-1.945 19.981-22.103 19.981-12.153 0-24.087-1.988-26.519-4.42m59.67 0c-7.022-7.021-5.146-27.746 3.805-42.08 5.687-9.103 6.196-16.753 1.657-24.774-3.613-6.381-5.648-24.283-4.528-39.779 1.977-27.3 2.751-28.179 24.864-28.179h22.823v139.232h-22.099c-12.157 0-24.091-1.988-26.522-4.42m61.882-65.196v-69.616h46.412v59.127c0 32.523 1.81 63.849 4.023 69.62 3.267 8.511-1.098 10.485-23.204 10.485h-27.231Zm59.673 0v-69.616h46.561l-1.381 54.697c-.76 30.084.898 61.414 3.685 69.62 4.71 13.853 3.151 14.915-21.9 14.915h-26.965Zm59.669 47.738c0-12.033 3.522-25.399 7.825-29.702 6.007-6.011 5.891-11.43-.506-23.382-4.582-8.559-7.355-25.777-6.167-38.261 1.999-20.98 4.041-22.851 27.028-24.752l24.864-2.057v140.032h-26.522c-25.584 0-26.522-.774-26.522-21.878m66.302-47.738v-69.616h46.412v59.127c0 32.523 1.813 63.849 4.026 69.62 3.268 8.511-1.101 10.485-23.207 10.485h-27.231Zm62.504 60.806c-1.857-4.848-2.511-35.429-1.447-67.962l1.93-59.146h23.208c22.107 0 23.302 1.199 25.29 25.326 1.148 13.93-1.425 29.557-5.713 34.725-4.335 5.218-5.651 14.591-2.962 21.085 2.664 6.429 6.051 21.384 7.53 33.235 2.591 20.773 1.839 21.547-20.882 21.547-13.49 0-25.017-3.769-26.951-8.81Zm61.261 4.39c-6.985-6.984-5.142-41.989 2.209-41.989 8.399 0 8.675-21.808.382-30.167-3.434-3.467-4.532-18.981-2.438-34.477 3.619-26.824 4.88-28.179 26.136-28.179h22.332v139.232h-22.099c-12.156 0-24.091-1.988-26.522-4.42m61.882-65.196v-69.616h45.558l2.083 69.63 2.086 69.631-24.865-.015-24.862-.014Zm59.67 0v-69.616h53.044v26.954c0 14.828-3.26 33.049-7.247 40.496-5.236 9.786-5.236 15.539 0 20.78 3.987 3.983 7.247 17.091 7.247 29.124 0 21.107-.938 21.878-26.522 21.878h-26.522Zm62.384 52.986c-2.424-9.653-1.25-20.631 2.62-24.502 4.357-4.357 5.567-24.254 3.194-52.557-3.634-43.337-3.129-45.543 10.405-45.543 13.544 0 14.22 2.998 14.22 62.987 0 34.641.745 65.222 1.658 67.959.912 2.736-4.95 5.912-13.025 7.061-11.164 1.588-15.736-2.104-19.072-15.405m43.7-41.917v-58.546l28.848-20.718c25.487-18.302 34.874-20.948 80.483-22.674 46.771-1.77 52.153-3.372 57.187-17.026 4.51-12.236 1.043-20.068-18.425-41.615-13.189-14.598-22.409-28.11-20.49-30.029 1.915-1.915 19.192 14.573 38.388 36.643l34.902 40.129h167.684c104.638 0 169.228 2.493 171.783 6.628 2.686 4.343-45.579 6.633-139.875 6.633-143.353 0-144.065.069-165.703 16.575-25.748 19.639-30.72 20.119-54.342 5.233-17.665-11.135-17.804-11.102-7.406 1.658 16.91 20.743 20.122 36.65 12.24 60.537-14.472 43.85-68.126 55.214-99.933 21.169-10.684-11.44-20.376-19.646-21.532-18.232-1.159 1.41-10.495 18.229-20.751 37.374-12.124 22.637-22.913 34.808-30.85 34.808-10.936 0-12.208-6.102-12.208-58.547m169.858-17.971c14.082-21.492 4.128-47.135-20.719-53.371-33.394-8.384-57.202 35.237-32.638 59.8 15.888 15.885 40.695 12.898 53.357-6.429m-50.977-6.915c-11.669-14.061-.396-31.93 21.834-34.609 18.516-2.235 27.958 12.211 21.427 32.784-4.837 15.242-31.203 16.354-43.261 1.825m30.015-8.93c4.902-7.933-7.57-15.794-16.401-10.335-7.414 4.582-2.548 16.506 6.741 16.506 3.216 0 7.563-2.776 9.66-6.171m423.943 71.383c-2.628-4.249-6.178-29.608-7.894-56.359-3.121-48.629-3.121-48.632 13.934-48.632 9.379 0 19.188 3.445 21.79 7.66 3.493 5.652 52.256 6.604 186.036 3.627 148.471-3.299 181.302-2.431 181.302 4.79 0 4.852 4.764 12.774 10.589 17.608 9.613 7.977 9.46 9.23-1.657 13.606-6.734 2.649-47.84 5.026-91.344 5.284l-79.098.465-27.787 29.837-27.783 29.836h-86.66c-58.783 0-88.19-2.486-91.428-7.722m153.165-61.897c0-16.554-2.656-19.89-15.852-19.89-21.224 0-32.853 18.4-20.809 32.914 4.942 5.953 15.209 9.933 22.822 8.846 10.517-1.505 13.843-6.752 13.843-21.87Zm-2296.31 30.726c-9.532-31.82-9.976-90.29-.814-107.407 3.867-7.225 13.828-12.825 22.819-12.825 15.739 0 15.903.647 11.978 47.451-2.94 35.095-1.977 46.216 3.7 42.705 4.226-2.613 7.726-20.235 7.78-39.165.055-18.927 2.995-38.893 6.531-44.363s6.574-8.453 6.756-6.628c.556 5.647.865 121.984.356 134.26-.374 8.955-6.302 11.604-25.955 11.604-23.826 0-25.966-1.657-33.151-25.632m105.035 12.913c0-3.348-1.81-10.808-4.023-16.576-3.355-8.736 1.744-10.488 30.545-10.488 28.005 0 33.845 1.89 30.752 9.947-2.097 5.469-.876 9.946 2.718 9.946 3.907 0 5.822-21.99 4.765-54.701l-1.77-54.698 183.987-1.762 183.99-1.763v79.555l-177.358 1.767-177.358 1.766-2.079 21.547c-2.064 21.412-2.3 21.547-38.122 21.547-19.825 0-36.047-2.737-36.047-6.087m527.811-24.291c-2.214-5.768-4.027-62.457-4.027-125.971 0-98.235 1.486-115.486 9.947-115.486 8.453 0 9.943 16.989 9.943 113.149 0 65.317 2.903 118.568 6.865 125.971 5.683 10.619 4.662 12.825-5.92 12.825-7.033 0-14.595-4.717-16.808-10.488m32.184-3.583c-2.457-7.738-4.757-48.764-5.11-91.163l-.647-77.095 17.924-2.097 17.924-2.097v93.26c0 87.761-.756 93.263-12.811 93.263-7.239 0-14.758-6.124-17.28-14.068Zm1916.38.81c-11.749-12.981-11.582-13.257 8.104-13.257 23.895 0 41.477 15.983 24.673 22.43-16.172 6.207-19.774 5.196-32.777-9.173m-2027.742 1.657c-3.532-5.847-7.061-63.314-5.498-89.506 1.032-17.313 2.758-18.232 34.237-18.232h33.151v35.636c0 19.599 1.868 44.962 4.146 56.355l4.143 20.722h-33.587c-18.476 0-34.942-2.238-36.592-4.975m1211.52-5.513c2.214-5.767 4.023-19.196 4.023-29.836 0-14.929 3.031-19.349 13.261-19.349 11.295 0 13.261 4.42 13.261 29.837 0 27.732-1.217 29.836-17.284 29.836-13.039 0-16.295-2.576-13.261-10.488m884.515-88.957c1.766-88.314 3.253-99.485 13.258-99.663 9.579-.171 9.779-1.047 1.326-5.829-5.469-3.093-17.404-7.672-26.522-10.176-12.658-3.478-14.224-2.907-6.629 2.409 7.447 5.215.367 6.989-28.179 7.065-33.736.091-38.122-1.424-38.122-13.159 0-14.929 4.978-16.078 29.404-6.792 9.354 3.554 17.007 4.154 17.007 1.33 0-5.411-38.525-21.056-51.855-21.056-4.514 0-7.817 9.804-7.817 23.204 0 22.103 1.104 23.207 23.204 23.207h23.207v83.085c0 70.804-1.602 83.702-10.848 87.249-25.817 9.906-32.096-5.655-35.563-88.158l-3.315-78.861-58.412-1.923-58.408-1.922 27.227-32.519c23.353-27.892 31.196-32.882 55.094-35.044l27.867-2.522-30.978-1.159c-29.862-1.116-32.108.156-62.137 35.306l-31.152 36.468H2471.31c-126.927 0-194.784 2.337-194.784 6.705 0 4.416 87.547 6.571 256.045 6.309 140.827-.218 257.415.971 259.087 2.642 1.671 1.672.934 27.177-1.639 56.679l-4.678 53.636h-103.053l-5.881-24.861-5.876-24.865-325.897-3.314-325.893-3.315-24.117-28.179-24.12-28.179 91.683-.734c50.424-.404 111.823-.138 136.437.596 28.685.854 44.751-1.265 44.751-5.895 0-4.354-14.769-7.225-37.166-7.225-30.273 0-41.655-3.383-61.33-18.232l-24.16-18.236-177.358 1.871-177.358 1.868v20.708c0 19.639.625 20.14 12.127 9.732 10.641-9.631 33.689-10.972 188.566-10.972 110.478 0 177.979 2.479 180.545 6.629 4.107 6.647-109.316 9.958-253.519 7.403-50.381-.894-73.018 1.457-87.849 9.129-10.989 5.68-19.98 11.84-19.98 13.686s7.453-.549 16.561-5.32c11.981-6.277 31.98-7.476 72.305-4.343 46.684 3.63 59.618 7.29 79.577 22.513 37.984 28.972 32.166 36.495-28.212 36.495-47.335 0-54.541 1.806-79.563 19.933-27.121 19.646-27.518 19.719-27.717 4.972-.178-13.352-.927-13.712-6.96-3.358-6.301 10.822-30.629 11.604-361.145 11.604h-354.385v28.808c0 34.52-14.587 50.754-45.612 50.754h-21.362l1.214-61.33c.665-33.729 2.628-65.059 4.361-69.616 2.42-6.374 48.916-8.286 201.496-8.286H1434.8l-10.863 16.576-10.858 16.575h-128.526c-81.264 0-128.526 2.435-128.526 6.629 0 7.032 230.591 9.514 255.769 2.751 7.57-2.032 18.93-12.433 25.239-23.113l11.469-19.418h155.045c157.977 0 162.999-.763 166.71-25.235 1.017-6.738-.778-6.923-8.105-.843-7.955 6.599-9.412 1.526-9.412-32.784 0-30.058 2.369-40.594 9.136-40.594 5.023 0 12.847-4.473 17.386-9.943 6.847-8.249 31.468-9.947 144.392-9.947h136.14l22.608 17.245c12.436 9.485 24.043 15.812 25.795 14.06s-9.369-12.418-24.712-23.702l-27.896-20.515-134.849 4.194-134.849 4.194V207.009l92.823-.861c88.972-.822 92.824-.302 92.824 12.523 0 11.771 4.31 13.385 35.746 13.385 32.696 0 36.105 1.428 39.95 16.746 10.198 40.63 57.903 56.38 91.272 30.134 14.751-11.603 32.7-13.235 193.17-17.567 97.298-2.628 176.908-7.316 176.908-10.416 0-8.049 150.814-7.09 155.807.992 2.253 3.649 8.587 6.633 14.071 6.633 7.261 0 9.409-5.866 7.897-21.551l-2.075-21.547-56.358-.57-56.355-.567 56.355 3.885c108.854 7.501 39.067 15.052-134.617 14.562-95.527-.273-191.589 1.795-213.467 4.59-50.3 6.425-117.401.716-121.032-10.296-2.137-6.487 41.655-8.62 201.7-9.819 202.717-1.519 203.098-1.548 45.514-3.438-93.834-1.127-161.619-4.608-165.511-8.501-4.372-4.375 71.517-6.007 225.217-4.851l231.815 1.744 2.057 28.557c2.046 28.438 2.155 28.547 26.006 26.519 32.49-2.758 37.291-18.607 5.641-18.607-22.572 0-23.761-1.119-23.761-22.419v-22.416l-64.644-4.884c-35.553-2.686-164.595-4.503-286.753-4.037-122.163.468-234.048.516-248.632.112-14.587-.407-40.324 2.014-57.19 5.386-16.867 3.369-73.338 4.761-125.492 3.096-82.233-2.624-93.176-4.226-82.433-12.083 6.81-4.983 23.749-9.057 37.639-9.057 18.029 0 25.254-2.845 25.254-9.946 0-7.487 8.024-9.943 32.442-9.943 24.592 0 33.637-2.81 37.388-11.604 9.18-21.551 7.661-35.989-4.594-43.643-8.013-5.004-12.196-15.46-12.196-30.494 0-20.784.818-21.761 8.915-10.688 7.221 9.877 14.853 11.524 40.197 8.667 27.184-3.063 30.658-2.108 26.54 7.309-9.288 21.234-10.695 54.269-2.714 63.885 4.459 5.371 6.414 14.184 4.339 19.584-5.528 14.406 9.58 20.74 18.941 7.941 12.113-16.565 63.841-14.969 74.628 2.3 8.649 13.85 37.522 18.138 44.634 6.632 5.335-8.634 36.466-8.634 36.466 0 0 8.94 22.055 8.381 42.843-1.09 13.181-6.007 20.511-5.811 33.016.88 9.485 5.077 21.009 6.465 28.121 3.39 16.456-7.119 420.338-9.125 434.261-2.155 6.127 3.067 12.094 12.171 13.261 20.232 1.646 11.375 20.682 24.109 84.995 56.86 45.584 23.215 85.385 46.677 88.449 52.139 4.819 8.591 2.845 8.526-14.588-.487-30.123-15.58-33.703-12.585-6.803 5.695 18.545 12.603 23.855 20.758 24.327 37.373.334 11.692 3.776 24.426 7.654 28.303 8.591 8.591 9.052-18.719 1.017-60.25-4.154-21.478-3.405-28.176 3.158-28.176 11.419 0 15.187 14.595 17.019 65.898 1.003 28.154-1.145 43.585-6.313 45.307-5.378 1.792-7.835 24.905-7.835 73.69v71.081l-21.863 21.19c-12.025 11.655-24.705 21.195-28.179 21.202-3.805.004-5.524-39.481-4.325-99.452Zm-1762.306-13.268c0-3.649-2.984-6.633-6.629-6.633-3.649 0-6.632 2.984-6.632 6.633 0 3.645 2.983 6.628 6.632 6.628 3.645 0 6.629-2.983 6.629-6.628m548.649-31.09c-6.382-1.669-16.826-1.669-23.208 0-6.381 1.668-1.159 3.03 11.604 3.03s17.986-1.366 11.604-3.03m107.738-15.322c20.057-10.597 34.111-19.407 31.232-19.577-2.882-.175-17.8 6.207-33.15 14.177-15.355 7.969-39.849 16.546-54.437 19.061l-26.522 4.571 23.208.517c13.675.305 38.181-7.396 59.669-18.749m981.267 4.023c0-8.726-3.728-17.182-8.285-18.789-13.291-4.691-64.645 2.326-64.645 8.831 0 3.264-26.853 5.935-59.673 5.935-78.843 0-77.498 12.127 1.657 14.951 33.733 1.203 76.994 2.805 96.138 3.565 32.679 1.29 34.808.403 34.808-14.493m-66.301-.327c0-7.846 7.301-10.325 30.389-10.325 39.132 0 36.836 15.7-2.726 18.614-21.496 1.585-27.663-.261-27.663-8.289m-378.444-91.545c-.287-19.144-2.027-31.079-3.866-26.522s-12.793 7.843-24.338 7.294c-20.046-.949-20.173-1.119-2.766-3.754 10.03-1.519 18.236-5.549 18.236-8.951 0-3.474-33.452-6.193-76.248-6.193h-76.248v25.712c0 14.762 4.233 29.222 9.946 33.961 8.566 7.109 9.943 4.467 9.943-19.079v-27.333h92.824v25.97c0 27.453 5.113 32.326 34.808 33.18 17.706.509 18.218-.483 17.709-34.285m-42.57 14.919c2.253-3.649 11.378-6.633 20.282-6.633 8.9 0 16.183 2.984 16.183 6.633 0 3.645-9.129 6.628-20.282 6.628-11.833 0-18.574-2.762-16.183-6.628m0-19.894c2.253-3.645 11.378-6.629 20.282-6.629 8.9 0 16.183 2.984 16.183 6.629 0 3.649-9.129 6.633-20.282 6.633-11.833 0-18.574-2.762-16.183-6.633m626.551 9.696c0-1.962-24.127-14.442-53.615-27.732-50.689-22.845-53.469-25.181-50.874-42.843 1.508-10.274.276-18.684-2.74-18.684s-5.484 9.805-5.484 21.787c0 20.915 2.187 22.75 54.697 45.94 63.704 28.135 58.016 26.024 58.016 21.532m-550.306-52.79c0-5.469-4.3-9.946-9.555-9.946-11.077 0-18.552 9.463-12.363 15.652 7.922 7.922 21.918 4.281 21.918-5.706m340.15.091c.719-3.598-3.914-7.544-10.296-8.776-7.257-1.396-11.604 1.857-11.604 8.685 0 11.535 19.596 11.615 21.9.091m-741.275-36.56c0-7.686-10.386-10.393-45.754-11.927-45.434-1.97-62.758 3.9-53.883 18.262 2.932 4.746 22.008 6.778 52.132 5.549 36.945-1.508 47.505-4.146 47.505-11.884m906.676 311.993c-12.995-10.84-14.911-18.708-14.86-61.108.106-82.012 6.462-118.281 20.759-118.281 11.462 0 12.334 6.821 12.334 96.138 0 52.877-.745 96.04-1.654 95.92-.912-.12-8.373-5.822-16.575-12.669ZM317.354 539.001c1.006-17.484 2.155-37.014 2.551-43.396.392-6.382 3.841-11.6 7.664-11.6 9.562 0 5.212 81.093-4.524 84.305-5.066 1.672-6.923-7.89-5.691-29.309m27.579 26.776c-5.48-5.477-5.629-46.761-.24-66.854 3.329-12.432 8.563-14.911 31.403-14.867l27.405.054.8 43.043.799 43.047h-27.874c-15.328 0-29.861-1.992-32.293-4.423m2061.932-66.705c-16.521-13.759-30.232-27.253-30.465-29.985-.225-2.737 63.671-4.976 142.001-4.976 142.314 0 142.427.015 145.679 14.919 9.802 44.932 19.178 41.251-110.115 43.246l-117.06 1.81Zm847.897-14.609c-4.902-7.934 7.57-15.794 16.401-10.339 7.414 4.582 2.548 16.51-6.737 16.51-3.217 0-7.567-2.777-9.664-6.171m-169.351-10.957c0-5.775 3.543-9.318 7.871-7.872 12.294 4.096 14.333 18.371 2.628 18.371-5.775 0-10.499-4.725-10.499-10.499m26.518-6.077c-4.539-5.469-11.738-9.946-15.998-9.946s-32.191-17.946-62.071-39.878c-56.191-41.244-59.117-45.885-62.559-99.354l-1.922-29.837 122.66 2.188 122.66 2.188 62.984 25.577c34.645 14.068 73.33 28.165 85.973 31.327 19.847 4.964 23.75 9.321 28.579 31.907 3.079 14.384 3.707 41.819 1.4 60.963l-4.194 34.808h-49.338c-27.775 0-55.097-3.594-62.511-8.224-10.481-6.545-15.859-6.545-26.34 0-19.835 12.389-128.733 11.045-139.323-1.719M347.143 454.532c0-14.639-3.06-16.408-31.494-18.233l-31.493-2.02v-86.195l31.493-2.021c17.321-1.108 31.494-4.841 31.494-8.286 0-3.449 13.145-6.269 29.215-6.269 26.82 0 28.953 1.225 26.028 14.918-3.107 14.548-2.926 14.599 7.25 2.05 5.967-7.359 10.902-27.238 11.52-46.412l1.08-33.539 3.892 36.465 3.892 36.465 46.412 3.314 46.412 3.315.523 44.754.527 44.755h-41.731c-33.969 0-42.967 2.304-48.364 12.389-3.645 6.814-4.746 14.271-2.442 16.575s1.021 4.187-2.853 4.187c-3.87 0-8.162-11.8-9.539-26.221l-2.501-26.217 29.986-1.958 29.982-1.963.843-26.518c.683-21.424.283-22.379-2.079-4.972l-2.922 21.547H422.97c-40.365 0-51.696 2.388-62.486 13.178-13.152 13.155-13.145 13.177 3.314 11.814 9.071-.748 16.496-5.189 16.496-9.863s4.473-8.5 9.943-8.5c5.473 0 9.946 4.103 9.946 9.118s1.865 18.44 4.143 29.836l4.147 20.719h-30.665c-28.107 0-30.665-1.352-30.665-16.212m-2.239-91.53c-1.839-4.557-3.347-.829-3.347 8.289 0 9.115 1.508 12.847 3.347 8.286 1.839-4.557 1.839-12.014 0-16.575m194.748 81.656c-8.795-16.427-8.98-104.428-.233-109.832 3.645-2.257 6.629-9.856 6.629-16.895 0-9.347-14.25-19.959-52.895-39.391-29.092-14.624-60.418-26.595-69.616-26.595-15.871 0-16.721 1.879-16.721 36.851v36.847l-28.18-2.039-28.179-2.039-1.988-38.126-1.988-38.122 360.019 1.334c198.01.734 336.581 2.358 307.937 3.608-45.06 1.966-52.536 4.02-55.472 15.238-2.875 10.997-9.256 12.971-41.953 12.971-32.737 0-39.194-2.003-42.77-13.261-3.769-11.881-10.031-13.262-60.251-13.262-53.848 0-58.438 1.236-117.238 31.494-38.05 19.581-73.737 32.966-94.347 35.386-32.889 3.863-32.936 3.903-5.963 4.975l27.187 1.079.509 48.07c.279 26.438 3.637 56.274 7.457 66.301l6.948 18.233h-46.015c-38.708 0-47.103-2.035-52.877-12.825M18.415 441.34c-7.116-5.204-13.356-22.161-16.274-44.217-4.07-30.756-2.893-37.534 8.395-48.294 10.128-9.653 14.326-10.583 18.352-4.063 3.475 5.618 11.568 6.875 24.164 3.746 29.506-7.322 137.051-17.622 146.439-14.02 5.876 2.257 8.416 19.999 8.416 58.786v55.555l-88.975.473c-62.228.331-92.442-2.064-100.517-7.966m60.203-10.379c2.446-3.951-5.585-6.629-19.889-6.629-14.305 0-22.336 2.678-19.89 6.629 2.253 3.648 11.204 6.632 19.89 6.632s17.636-2.984 19.889-6.632m62.159-10.772c21.285-4.259 28.863-15.747 10.383-15.747-5.684 0-8.384-3.162-5.997-7.021 2.388-3.863 11.375-6.102 19.977-4.975 8.599 1.126 15.773-.934 15.94-4.579.411-8.849-2.446-8.533-54.393 6.011-46.382 12.988-55.468 20.838-29.836 25.773 8.206 1.581 16.782 3.282 19.065 3.78 2.278.494 13.464-.963 24.861-3.242m-78.698-31.396 21.449-9.02-21.783-7.591c-18.16-6.331-23.778-5.79-33.791 3.274-23.051 20.86-2.692 28.819 34.125 13.337m106.943-33.819 22.31-9.685-26.519-.167c-33.376-.215-57.31 6.007-52.579 13.664 5.466 8.838 31.712 7.076 56.788-3.808Zm49.101 59.269c-4.866-38.954.113-76.102 10.201-76.102 3.358 0 6.105 25.359 6.105 56.354 0 63.649-9.401 75.031-16.306 19.748m29.567-19.748c0-74.027 13.567-74.405 15.329-.425.876 36.905-1.199 53.164-7.043 55.116-6.207 2.075-8.286-11.662-8.286-54.691m702.8 29.837c0-19.45.734-19.89 33.151-19.89 18.232 0 33.151-2.983 33.151-6.632 0-3.867-22.103-6.629-53.041-6.629h-53.044v-53.04l41.44-1.236c39.02-1.163 38.151-1.454-14.918-4.972-55.497-3.681-56.388-4.015-58.456-21.972l-2.097-18.232h160.005v-16.576c0-15.979 1.548-16.575 43.098-16.575 25.821 0 43.094-2.806 43.094-7 0-6.792 190.179-5.28 508.066 4.042l120.197 3.525 4.368 27.314c2.573 16.085 1.541 30.138-2.511 34.194-3.787 3.783-6.883 28.815-6.883 55.624v48.749l-34.808-2.006-34.808-2.002-3.827-43.098-3.831-43.094-1.144 38.123c-.669 22.291-4.132 38.122-8.341 38.122-4.662 0-6.41-15.162-4.971-43.109 1.224-23.709-.011-43.104-2.748-43.097s-4.975 22.612-4.975 50.228c0 44.238-1.377 49.951-11.6 48.011-9.133-1.738-12.418-11.368-15.431-45.242l-3.83-43.036-1.145 38.123c-1.468 48.886-12.476 49.599-15.449.999-2.489-40.732 1.494-52.859 15.591-47.448 6.516 2.501 9.169-1.628 8.958-13.951l-.298-17.506h-351.402l.527 14.918c.447 12.603-3.154 15.082-23.204 15.98l-23.731 1.061 21.547 2.675 21.547 2.674v83.695c0 2.733-15.663 4.972-34.808 4.972h-34.808l-.869-39.78c-.77-35.146 1.098-41.397 16.034-53.64 25.545-20.944 16.103-37.21-20.078-34.597l-28.238 2.042 2.315 64.644c2.123 59.357 1.308 64.63-9.947 64.434-26.703-.458-36.29-16.048-34.157-55.552 1.105-20.467 4.99-37.388 8.638-37.606 12.059-.72 17.975-19.614 9.384-29.964-5.459-6.581-17.372-9.256-35.332-7.94-22.012 1.613-27.092 4.473-27.092 15.245 0 9.536 5.117 13.85 18.232 15.358 18.066 2.079 18.233 2.548 18.233 51.383v49.287h-81.013l2.522-49.919c2.046-40.506.745-49.57-6.897-48.069-7.41 1.457-9.122 14.22-8.017 59.866l1.403 58.012h-36.876c-36.553 0-36.876-.175-36.876-19.89m141.067-67.414c-12.014-12.014-16.063-12.97-24.679-5.818-13.73 11.397-13.076 31.214 1.297 39.398 8.74 4.975 14.827 3.42 24.68-6.302 13.01-12.843 13.006-12.977-1.298-27.278m-25.395 20.424c-6.833-11.055 8.533-23.731 17.68-14.584 7.65 7.65 2.86 21.794-7.381 21.794-3.216 0-7.85-3.245-10.299-7.21m68.02-20.969c-1.581-8.206-2.871-1.494-2.871 14.918 0 16.409 1.29 23.121 2.871 14.919 1.581-8.206 1.581-21.631 0-29.837m121.294 15.496c0-6.719-4.637-16.063-10.307-20.769-8.609-7.148-12.628-6.229-24.443 5.586-13.69 13.69-13.759 14.558-2.119 27.416 9.286 10.263 14.846 11.771 24.444 6.632 6.836-3.656 12.425-12.145 12.425-18.865m-30.193 5.473c-6.832-11.055 8.537-23.731 17.684-14.584 7.65 7.65 2.86 21.794-7.381 21.794-3.216 0-7.85-3.245-10.303-7.21m499.61 12.513c11.012-11.012 9.951-28.547-2.347-38.755-8.584-7.123-12.466-6.396-23.208 4.343-11.866 11.869-12.073 14.075-2.577 27.634 11.76 16.79 16.888 18.025 28.132 6.778m-22.234-12.513c-6.832-11.055 8.533-23.731 17.681-14.584 7.65 7.65 2.86 21.794-7.381 21.794-3.217 0-7.85-3.245-10.3-7.21m-288.058-105.503c0-3.649-2.983-6.632-6.628-6.632-3.649 0-6.633 2.983-6.633 6.632 0 3.645 2.984 6.629 6.633 6.629 3.645 0 6.628-2.984 6.628-6.629m240.346-4.935c-30.084-1.229-79.316-1.229-109.4 0-30.083 1.228-5.469 2.235 54.702 2.235 60.167 0 84.781-1.007 54.698-2.235M649.523 427.105c-2.213-5.768-4.023-28.147-4.023-49.726v-39.238h109.399c109.011 0 109.399.054 109.454 14.918.033 8.202 1.941 30.581 4.241 49.726l4.179 34.808H763.16c-93.834 0-110.192-1.512-113.637-10.488m655.116-11.804c-1.908-4.964-2.559-26.326-1.45-47.462 1.606-30.622 4.375-38.773 13.617-40.11 10.158-1.469 11.604 4.444 11.604 47.462 0 39.71-1.948 49.141-10.154 49.141-5.586 0-11.713-4.063-13.617-9.031m53.578.745c-1.606-4.561-3.946-24.698-5.193-44.755l-2.271-36.465-1.225 38.123c-.69 21.372-4.281 38.122-8.173 38.122-4.314 0-6.2-15.718-4.975-41.437l1.977-41.44h90.37l1.225 48.076 1.225 48.073-35.015-.007c-22.031 0-36.102-3.079-37.945-8.29m56.384-44.755c0-18.966-22.895-29.197-36.003-16.088-5.724 5.724-10.409 12.963-10.409 16.088s4.685 10.365 10.409 16.089c13.108 13.108 36.003 2.874 36.003-16.089m-33.15 0c0-9.986 3.463-13.566 11.603-12 6.382 1.232 11.604 6.629 11.604 12s-5.222 10.768-11.604 11.997c-8.14 1.57-11.603-2.01-11.603-11.997m80.929 5.045c1.606-39.518 3.997-48.393 13.551-50.214 10.223-1.951 11.604 3.754 11.604 47.997 0 46.154-1.097 50.213-13.551 50.213-12.578 0-13.411-3.442-11.604-47.996m55.097 40.059c-1.682-4.75-4.081-25.047-5.328-45.104l-2.271-36.465-1.228 38.123c-.673 20.969-4.209 38.122-7.857 38.122-7.588 0-8.922-65.88-1.556-76.906 2.682-4.009 24.266-7.875 47.968-8.588l43.097-1.297-.985 48.367-.985 48.371-33.899 2.006c-23.346 1.381-34.848-.68-36.956-6.629m56.25-45.104c0-16.677-19.857-27.463-34.979-18.999-25.77 14.42-2.853 52.037 23.204 38.093 6.476-3.463 11.775-12.058 11.775-19.094m-36.465 6.629c-5.55-8.98 1.937-19.89 13.649-19.89 5.255 0 9.555 5.968 9.555 13.261 0 13.727-15.994 18.298-23.204 6.629m-361.345-5.524c0-36.937 3.689-50.097 12.527-44.667 6.411 3.935.229 83.342-6.487 83.342-3.322 0-6.04-17.404-6.04-38.675m106.081-.716c0-21.663 2.984-41.233 6.629-43.486 4.165-2.573 6.632 12.087 6.632 39.39 0 24.571-2.885 43.487-6.632 43.487-3.674 0-6.629-17.55-6.629-39.391m159.125 0c0-21.663 2.984-41.233 6.629-43.486 4.165-2.573 6.632 12.087 6.632 39.39 0 24.571-2.885 43.487-6.632 43.487-3.674 0-6.629-17.55-6.629-39.391M47.125 333.747c4.561-1.839 12.018-1.839 16.575 0 4.561 1.842.829 3.347-8.286 3.347-9.118 0-12.847-1.505-8.289-3.347m2034.705-69.02c-19.774-15.554-22.314-36.066-7.149-57.714 20.984-29.96 75.871-9.791 75.871 27.877 0 16.154-27.122 43.578-43.094 43.578-4.488 0-16.02-6.182-25.628-13.741m44.609-29.382c1.89-4.921-1.014-12.64-6.451-17.154-14.522-12.05-35.135 8.559-23.08 23.085 9.085 10.946 24.221 7.908 29.531-5.931m-1051.221 12.072c4.786-1.915 10.506-1.679 12.709.524 2.202 2.202-1.712 3.772-8.701 3.481-7.726-.316-9.296-1.886-4.008-4.005m1275.899-.399c28.26-1.243 74.504-1.243 102.767 0 28.259 1.242 5.139 2.26-51.383 2.26s-79.647-1.018-51.384-2.26M333.882 225.874c0-11.669 23.684-12.723 248.631-11.055 127.788.948 228.879-.938 233.393-4.35 4.91-3.714 16.99-2.762 31.49 2.482 18.302 6.618 25.29 6.738 31.483.545 10.114-10.11 39.492-10.226 61.41-.24 13.243 6.033 20.54 5.797 33.405-1.09 12.869-6.887 20.162-7.127 33.405-1.09 20.788 9.47 42.843 10.03 42.843 1.09 0-8.635 31.131-8.635 36.466 0 2.253 3.645 11.382 6.629 20.282 6.629s16.183-2.984 16.183-6.629c0-8.635 31.13-8.635 36.468 0 4.758 7.697 36.466 9.078 36.466 1.588 0-6.77 266.271-6.305 276.81.487 4.557 2.936 8.286 8.144 8.286 11.575 0 3.852-219.569 6.24-573.511 6.24-350.293 0-573.51-2.406-573.51-6.182m1650.916-10.394c0-7.366 7.737-9.943 29.836-9.943s29.836 2.577 29.836 9.943c0 7.367-7.737 9.947-29.836 9.947s-29.836-2.58-29.836-9.947m183.986-8.111c11.855-1.468 31.247-1.468 43.098 0 11.851 1.472 2.155 2.675-21.547 2.675s-33.402-1.203-21.551-2.675M2042.548 54.698c2.064-20.966 4.085-38.479 4.495-38.918.407-.437 59.666-2.777 131.688-5.197 106.939-3.598 130.946-2.784 130.946 4.441 0 20.591-16.034 24.756-95.284 24.756-66.196 0-81.54-1.927-92.435-11.601-12.716-11.291-12.818-11.204-3.899 3.315 8.747 14.242 13.09 14.918 95.749 14.918 89.375 0 102.501-3.565 102.501-27.849 0-6.563 2.984-11.934 6.629-11.934s6.629 7.461 6.629 16.575c0 9.118-2.704 16.576-6.007 16.576-3.308 0-4.641 5.222-2.966 11.603 2.824 10.768-5.022 11.463-109.065 9.653l-112.106-1.952-11.055 16.87c-7.643 11.662-16.997 16.87-30.313 16.87h-19.257Zm73.058-12.291c-2.203-2.206-7.923-2.438-12.709-.523-5.288 2.115-3.718 3.685 4.008 4.005 6.989.287 10.903-1.28 8.701-3.482m216.414 28.866c2.199-8.202 4.037-27.598 4.088-43.094.073-20.587 2.77-28.179 10.034-28.179 7.821 0 9.947 9.209 9.947 43.098 0 39.467-1.185 43.093-14.035 43.093-11.317 0-13.258-2.885-10.034-14.918m-353.851-20.217c0-5.938 7.203-7.773 23.204-5.902 12.763 1.49 23.208 5.364 23.208 8.613 0 3.246-10.445 5.906-23.208 5.906-14.613 0-23.204-3.191-23.204-8.617m-19.89-28.015c0-12.284 29.411-24.407 52.652-21.7 11.778 1.37 17.611 6.534 19.083 16.892 1.98 13.94-.305 14.918-34.808 14.918-28.67 0-36.927-2.261-36.927-10.11"/></svg>