<svg xmlns="http://www.w3.org/2000/svg" width="3934.801" height="1000" viewBox="0 0 3934.801 1000"><path d="M2930.356 974.735c0-13.893 2.885-27.045 6.411-29.222 14.609-9.027 3.688-39.267-45.576-126.207-28.594-50.457-58.634-100.601-66.756-111.423-16.917-22.546-65.964-41.219-108.276-41.219-28.456 0-42.211-8.515-42.211-26.137 0-18.08 19.319-28.197 60.265-31.555l39.093-3.202 1.85-56.089 1.853-56.093h83.146l-.756 72.49c-.807 77.422 4.957 100.91 34.517 140.649 8.526 11.459 38.893 61.447 67.483 111.082 55.926 97.097 64.615 105.267 111.946 105.267 20.061 0 29.063 3.296 35.008 12.821 14.439 23.117 38.279 15.761 100.361-30.97 31.999-24.084 82.699-60.989 112.666-82.009 59.564-41.785 68.032-57.59 47.575-88.815-10.445-15.939-10.321-17.247 2.969-31.392 20.072-21.368 26.38-50.285 26.38-120.937 0-88.557.487-88.186-115.384-88.186-53.131 0-89.746-2.512-89.746-6.16 0-10.409-27.343-32.301-40.35-32.301-6.759 0-17.963 7.214-24.897 16.027-10.692 13.592-17.909 16.027-47.553 16.027-31.385 0-35.575-1.639-41.044-16.027-6.011-15.816-7.065-16.027-79.97-16.027-42.018 0-73.875-2.605-73.875-6.047 0-3.325 6.411-10.535 14.246-16.023 12.349-8.653 50.347-9.979 285.256-9.979h271.01v256.408h22.433c12.342 0 22.438 1.693 22.438 3.757 0 2.068-6.117 24.818-13.596 50.551-13.363 45.991-14.151 47.048-46.183 61.948-41.28 19.199-128.522 80.722-213.045 150.24L3162.368 1000h-232.012Zm185.898-52.088c0-3.765 10.096-16.365 22.437-28.001 30.832-29.081 30.018-49.675-3.205-81.282-15.416-14.66-25.643-30.272-25.643-39.136 0-8.108-7.21-22.521-16.023-32.028-10.982-11.844-16.026-24.61-16.026-40.572 0-19.17-5.099-28.237-28.848-51.321-15.863-15.42-28.845-32.468-28.845-37.89 0-17.836-11.135-10.274-15.263 10.368-8.402 42.004-29.608 50.25-29.608 11.51 0-30.556-13.926-60.491-32.852-70.623-8.086-4.324-24.742-5.527-41.601-3.002l-28.113 4.216v-32.14c0-17.681 3.35-39.489 7.439-48.469 7.297-16.012 8.765-16.328 75.841-16.328 66.4 0 68.653.468 76.979 16.026 7.744 14.471 12.461 16.023 48.701 16.023 39.064 0 55.094-6.901 61.639-26.536 3.445-10.332 34.63-1.952 39.445 10.6 2.086 5.441-1.886 15.471-8.907 22.492-19.995 19.995-16.815 52.924 7.046 73.003 10.848 9.129 23.637 16.597 28.419 16.597 4.779 0 23.688 24.822 42.015 55.163 25.145 41.633 38.529 57.344 54.556 64.041 11.684 4.881 25.512 7.232 30.734 5.23 12.418-4.765 31.334 24 28.575 43.443-2.802 19.737-205.257 164.104-231.263 164.907-9.696.301-17.629-2.53-17.629-6.291m74.794-176.351c2.134-5.56-.839-14.831-6.61-20.602-9.714-9.718-11.266-9.718-20.984 0-13.104 13.105-7.09 30.716 10.492 30.716 7.272 0 14.969-4.55 17.102-10.114m-25.475-.396c-5.121-5.121.669-15.133 8.751-15.133 3.318 0 6.033 4.328 6.033 9.616 0 9.914-7.563 12.734-14.784 5.517m-49.319-133.723c6.367-7.668 6.367-11.556 0-19.228-16.019-19.301-38.853-4.535-29.731 19.228 2.028 5.292 7.752 9.616 12.719 9.616 4.968 0 12.625-4.324 17.012-9.616m-21.54-1.243c-7.221-7.217-4.397-14.78 5.513-14.78 5.292 0 9.616 2.715 9.616 6.029 0 8.086-10.008 13.876-15.129 8.751M297.028 703.845c-4.99-4.989-7.632-30.334-7.516-72.116l.178-64.423 52.707-33.685 52.706-33.688 3.787 18.221c5.92 28.507 11.222 33.126 38.035 33.126 26.529 0 38.307-11.695 38.307-38.039 0-7.283 1.574-13.243 3.496-13.243 9.18 0 99.1 65.47 99.315 72.313 2.849 90.058 1.435 119.861-6.12 128.965-7.294 8.787-27.086 10.263-137.862 10.263-92.053 0-131.56-2.221-137.033-7.694m260.285-41.989-1.951-30.447h-243.59l-2.057 21.445c-3.871 40.405-6.942 39.453 127.206 39.453h122.347Zm1.25-74.035c0-20.882-15.02-23.72-125.494-23.72-88.586 0-111.627 1.824-117.86 9.336-16.379 19.737-.385 22.717 121.941 22.717 95.349 0 121.413-1.791 121.413-8.333m3280.401 81.471c-9.056-9.057-4.681-20.413 15.449-40.092 17.193-16.812 18.959-21.264 11.836-29.844-4.601-5.549-14.158-9.26-21.238-8.246-10.859 1.552-15.187-5.666-27.743-46.237-17.785-57.493-19.493-120.069-5.026-184.132 9.245-40.939 11.317-44.446 24.734-41.88 20.766 3.968 28.416-17.651 10.463-29.578-7.279-4.838-13.236-15.304-13.236-23.255 0-7.952-4.295-18.022-9.547-22.38-17.091-14.184-4.037-18.352 46.474-14.841 58.888 4.095 68.351 11.687 61.944 49.682-2.347 13.908-9.685 41.041-16.314 60.298-17.353 50.438-16.742 157.479 1.229 215.665 18.341 59.379 13.05 90.673-17.484 103.432-29.666 12.393-55.723 17.226-61.541 11.408m-370.146-41.088v-38.46h70.514c42.734 0 70.513-2.526 70.513-6.411 0-6.011-72.392-10.128-120.192-6.839l-20.835 1.431v-65.338l24.04 1.403c45.405 2.649 91.344-1.178 91.344-7.607 0-3.536-13.7-6-30.447-5.473-16.746.527-42.708.538-57.692.026l-27.245-.938v-37.224c0-34.645 1.221-37.705 17.629-44.188 13.109-5.183-59.055-7.141-281.56-7.65l-299.185-.68-19.723 16.594c-11.982 10.081-19.722 22.662-19.722 32.053 0 15.038-1.374 15.456-51.042 15.456h-51.042l-1.846 59.295-1.843 59.295-30.512 1.955c-37.715 2.417-39.514-1.265-32.046-65.462 3.118-26.769 3.322-48.672.458-48.672s-5.204-50.555-5.204-112.339V256.092l17.233-6.553c10.605-4.03 79.054-5.807 177.885-4.619l160.648 1.934 83.571 33.627c79.424 31.958 84.814 35.295 108.621 67.184 13.781 18.454 24.669 38.646 24.2 44.868-.781 10.397 7.926 11.313 107.724 11.313 68.111 0 108.577-2.392 108.577-6.411 0-3.667-19.359-6.411-45.249-6.411-28.535 0-43.788-2.369-41.291-6.41 2.181-3.525 22.543-6.411 45.253-6.411h41.287v-18.785c0-14.384-3.379-19.435-14.424-21.561-7.933-1.527 47.19-3.169 122.49-3.653l136.913-.872-4.812 17.629c-8.409 30.822-8.075 143.579.622 209.935 12.123 92.467 17.106 88.281-116.62 98.013-152.664 11.11-136.99 14.624-136.99-30.705m160.255-44.871c0-3.525-1.272-6.411-2.823-6.411-1.556 0-4.608 2.886-6.789 6.411s-.905 6.411 2.827 6.411c3.736 0 6.789-2.886 6.789-6.411Zm57.693-3.205c0-5.288-4.325-9.616-9.613-9.616-5.291 0-9.616 4.328-9.616 9.616s4.325 9.616 9.616 9.616c5.288 0 9.613-4.329 9.613-9.616m0-70.514c0-6.716-6.767-9.616-22.434-9.616-12.342 0-22.437 3.082-22.437 6.843 0 3.925 5.465 5.106 12.821 2.773s12.821-1.152 12.821 2.773c0 3.765 4.325 6.843 9.613 6.843 5.291 0 9.616-4.328 9.616-9.616m-868.589-92.947c0-7.835-10.674-9.616-57.602-9.616-50.238 0-57.888 1.465-59.814 11.466-2.014 10.455 3.06 11.302 57.605 9.616 48.069-1.487 59.811-3.74 59.811-11.466m65.56 0c8.965-7.054 24.392-12.821 34.285-12.821 9.895 0 19.846-3.006 22.117-6.68 2.769-4.481-13.454-6.062-49.301-4.808-52.993 1.857-53.447 2.017-55.457 19.501-1.763 15.318.196 17.629 15.013 17.629 9.376 0 24.377-5.771 33.343-12.821m274.186-19.232c2.573-4.165-29.724-6.411-92.195-6.411-57.187 0-97.759 2.599-100.114 6.411-2.576 4.165 29.721 6.411 92.192 6.411 57.187 0 97.759-2.599 100.117-6.411m86.537 0c0-3.525-12.982-6.411-28.848-6.411-15.863 0-28.845 2.886-28.845 6.411s12.982 6.411 28.845 6.411c15.866 0 28.848-2.886 28.848-6.411m-1.636-21.867c1.752-1.748-5.807-15.405-16.797-30.349-14.333-19.493-29.942-31.217-55.257-41.516-19.923-8.108-35.281-11.415-35.281-7.599 0 13.177 41.346 81.732 51.042 84.636 11.193 3.35 51.471-.349 56.293-5.172m-72.588-32.911c-9.391-16.023-15.536-30.672-13.658-32.551 6.055-6.058 34.082 12.945 55.527 37.65l20.863 24.04h-22.829c-20.312 0-24.713-3.213-39.903-29.139m-183.038-17.745c18.025-31.966 26.02-52.31 22.095-56.235-3.619-3.62-56.067-5.43-127.475-4.401-108.185 1.559-121.246 2.896-120.545 12.334.433 5.822 16.296 30.97 35.255 55.886l34.474 45.304 63.975-1.399 63.976-1.403Zm-180.236-.564c-16.746-22.248-30.447-42.308-30.447-44.58s50.478-4.128 112.179-4.128c61.697 0 112.179 1.515 112.179 3.361 0 1.85-11.796 22.045-26.217 44.875l-26.213 41.509-55.515-.29-55.516-.295Zm354.166 50.493c0-1.853-10.132-23.487-22.517-48.079l-22.517-44.711-43.188.043-43.189.044-24.036 44.144c-13.221 24.276-24.04 45.892-24.04 48.033s40.386 3.892 89.746 3.892 89.741-1.516 89.741-3.366m-160.255-12.236c0-1.53 9.165-17.524 20.366-35.542l20.366-32.762 35.302 1.886 35.302 1.89 14.718 33.652 14.722 33.656h-70.39c-38.711 0-70.386-1.25-70.386-2.78m-243.786-35.426c7.849-4.964 6.127-10.03-10.321-30.352-25.291-31.246-43.203-32.391-46.023-2.947-1.131 11.793-.502 25.493 1.399 30.447 3.914 10.201 40.339 12.091 54.945 2.852M699.591 634.615c0-3.526-3.991-6.411-8.868-6.411s-10.244-7.203-11.927-16.008c-2.678-14.014 2.616-19.647 42.523-45.238l45.58-29.23 54.487 3.002c29.971 1.653 65.305 5.019 78.527 7.479 16.023 2.984 24.039 2.104 24.039-2.635 0-5.077 65.165-7.112 227.564-7.112h227.564v-18.44c0-15.321 8.813-25.602 52.212-60.894 50.885-41.385 81.347-53.32 92.017-36.05 5.244 8.482 33.372 8.235 38.671-.338 2.783-4.503 58.459-6.258 167.323-5.27l163.152 1.483 34.038 26.1c45.063 34.561 50.315 47.684 44.122 110.253-4.997 50.443-5.008 50.464-24.767 52.394-10.869 1.061-34.968-4.063-53.545-11.386-28.209-11.12-53.499-13.948-153.311-17.153-138.171-4.434-239.858 3.874-290.191 23.717-26.944 10.619-42.465 12.712-72.818 9.826-123.979-11.789-144.341-11.891-144.341-.723 0 22.248-16.397 29.044-70.056 29.044-30.218 0-51.739-2.664-51.739-6.41 0-3.526-7.21-6.411-16.023-6.411-8.817 0-16.027 2.885-16.027 6.411s-7.21 6.41-16.026 6.41c-8.813 0-16.027-2.885-16.027-6.41s-8.653-6.411-19.228-6.411c-10.579 0-19.232 2.885-19.232 6.411 0 3.739-21.369 6.41-51.282 6.41-29.916 0-51.281-2.671-51.281-6.41 0-3.526-7.211-6.411-16.027-6.411-8.813 0-16.027 2.885-16.027 6.411s-8.653 6.41-19.228 6.41c-10.579 0-19.232-2.885-19.232-6.41s-7.21-6.411-16.027-6.411c-8.812 0-16.023 2.885-16.023 6.411 0 3.739-21.368 6.41-51.281 6.41-29.917 0-51.285-2.671-51.285-6.41m733.736-112.859c7.948-7.948 8.605-12.331 2.878-19.232-4.077-4.913-11.037-8.936-15.463-8.936-4.423 0-11.382 4.023-15.46 8.936-5.727 6.901-5.07 11.284 2.878 19.232 5.662 5.662 11.324 10.295 12.582 10.295 1.261 0 6.923-4.633 12.585-10.295m-20.969-9.416c1.261-3.791 5.037-6.891 8.387-6.891 3.347 0 7.123 3.1 8.384 6.891 1.265 3.79-2.511 6.89-8.384 6.89-5.876 0-9.652-3.1-8.387-6.89m543.575 10.175c10.648-12.832 3.554-28.927-12.756-28.927-7.272 0-14.896 4.364-16.942 9.699-3.685 9.598 7.606 28.764 16.942 28.764 2.664 0 8.402-4.291 12.756-9.536m-19.163-12.901c0-5.876 3.1-9.649 6.891-8.387 3.79 1.264 6.89 5.04 6.89 8.387 0 3.351-3.1 7.123-6.89 8.388-3.791 1.264-6.891-2.511-6.891-8.388m1864.962 85.417c-10.088-26.976-24.632-49.464-45.656-70.6l-30.846-31.011v-89.574h51.281v-43.879c0-34.368-2.54-46.176-11.724-54.487-15.616-14.133-31.392-13.425-36.167 1.621-2.133 6.723-8.133 13.86-13.33 15.852-7.315 2.809-8.555.054-5.487-12.167 4.738-18.88-11.826-28.405-29.837-17.157-8.279 5.168-12.174 5.219-13.853.178-1.334-4.005-22.848-7.817-50.137-8.889-26.29-1.032-73.759-4.815-105.492-8.41-60.302-6.828-112.18-3.539-112.18 7.116 0 10.452-107.927-11.582-118.589-24.214-9.315-11.037-80.849-28.997-97.745-24.542-8.129 2.144-20.762-.363-28.986-5.749-12.879-8.438-50.137-17.662-83.302-20.62-6.225-.553-14.736-4.423-18.912-8.599-9.878-9.881-20.991-9.641-29.517.633-7.868 9.481-3.347 18.443 14.875 29.487 11.84 7.178 11.597 7.45-3.205 3.573-33.246-8.711-46.438-43.13-25.25-65.873 11.175-11.993 19.882-13.875 64.193-13.875 51.282 0 159.772 22.001 159.772 32.402 0 12.767 124.83 31.043 304.488 44.584 52.884 3.983 114.905 10.23 137.822 13.882 22.917 3.649 67.036 7.984 98.039 9.631 49.068 2.602 55.94 4.383 53.026 13.744-16.318 52.354-30.546 122.21-33.631 165.118-3.318 46.157-1.526 58.87 16.47 116.787 11.102 35.746 21.885 69.409 23.956 74.806 2.341 6.098.182 9.816-5.752 9.816-5.793 0-15.315-15.496-24.324-39.587Zm-1374.58-9.954c-146.227-28.808-148.593-29.051-288.461-29.818l-141.023-.774-2.032-17.626-2.028-17.629 117.413-.759c64.579-.415 126.069-2.791 136.644-5.277 10.579-2.486-39.903-4.31-112.179-4.049l-131.411.469-1.792-73.94-1.795-73.941 21.023-6.185c21.002-6.182 21.028-6.244 22.91-52.663 1.854-45.732 2.159-46.477 19.232-46.644 10.419-.102 32.511-11.622 55.323-28.848l37.973-28.674h221.818c245.934 0 247.664.277 251.509 40.147 1.759 18.225 4.539 20.994 22.837 22.757l20.835 2.01v262.008l-14.424.345c-56.144 1.348-142.488 6.992-144.97 9.474-1.65 1.65 33.539 2.998 78.196 2.998h81.198v57.693h-30.451c-16.746 0-53.058-4.329-80.689-9.616-70.303-13.45-82.986-10.801-17.066 3.565 29.967 6.534 71.073 12.007 91.345 12.171 20.275.16 36.861 3.176 36.861 6.701 0 14.431-102.785 4.477-246.796-23.895m-116.863-82.873c-4.339-1.755-12.996-1.861-19.232-.236s-2.686 3.063 7.89 3.194c10.579.131 15.681-1.199 11.342-2.954Zm.018-60.363c13.145-10.834 23.898-22.372 23.898-25.643 0-3.267-28.848-5.942-64.103-5.942-72.29 0-79.74 5.979-43.268 34.721 28.27 22.281 53.8 21.322 83.473-3.136m152.104 10.691c0-12.039-52.495-42.276-73.395-42.276-19.81 0-67.632 30.066-67.632 42.52 0 6.879 15.154 8.762 70.513 8.762 56.283 0 70.514-1.817 70.514-9.006m107.371-22.637c14.984-17.396 27.242-34.706 27.242-38.456 0-4.489-29.768-6.825-87.009-6.825-77.655 0-86.784 1.144-84.934 10.651 2.537 13.033 86.471 66.273 104.475 66.269 7.599 0 24.276-13.119 40.226-31.639m-235.577-83.058c0-17.659 1.912-18.909 40.063-26.192 22.034-4.204 70.354-9.194 107.371-11.088 82.75-4.233 89.746-7.384 89.746-40.404 0-44.827-2.086-45.231-224.984-43.287l-194.889 1.698-1.849 59.941c-1.196 38.686.785 63.122 5.589 68.911 5.702 6.865 27.536 8.969 93.198 8.969h85.755Zm-165.387-34.016c-13.192-13.196-9.329-48.127 6.556-59.251 19.672-13.781 32.424-12.509 48.738 4.855 16.525 17.593 17.437 28.601 3.961 47.84-11.128 15.885-46.059 19.748-59.255 6.556m74.362 0c4.231-4.23 7.69-16.634 7.69-27.565 0-10.928-3.459-23.331-7.69-27.565-5.985-5.982 25.781-7.69 142.946-7.69 155.324 0 166.027 1.69 166.027 26.235 0 15.431-12.876 18.618-75.845 18.774-31.228.076-80.693 5.695-112.931 12.821-66.106 14.613-132.582 17.372-120.197 4.99m231.983 43.028c9.478-11.422 4.448-27.648-10.332-33.318-15.176-5.825-29.585 15.209-21.18 30.92 7.698 14.38 20.741 15.376 31.512 2.398m-25.573-12.901c0-6.603 4.201-9.747 11.218-8.395 13.512 2.602 12.658 13.981-1.264 16.877-5.811 1.21-9.954-2.322-9.954-8.482m85.74 8.133c5.379-8.536 4.543-13.544-3.623-21.71-19.203-19.203-47.851 5.894-30.541 26.755 9.968 12.01 24.806 9.819 34.164-5.045m-30.011-2.616c-5.981-5.982 1.247-15.133 11.957-15.133 5.08 0 9.234 4.328 9.234 9.616 0 9.656-13.53 13.178-21.191 5.517m1335.295 260.507c0-3.525 4.325-6.407 9.616-6.407 5.288 0 9.612 2.882 9.612 6.407 0 3.529-4.324 6.411-9.612 6.411-5.291 0-9.616-2.882-9.616-6.411M616.256 501.299v-94.851l24.309-23.739 24.308-23.734h717.848l34.819-35.259 34.815-35.255h434.544l37.395 19.934c56.882 30.316 58.103 32.598 59.415 110.896 1.039 62.209-4.746 86.751-13.007 55.159-1.831-6.999-20.853-25.752-42.272-41.666l-38.94-28.938-208.732.065-208.731.065-52.884 42.844c-43.505 35.24-52.888 46.033-52.888 60.832v17.992H756.948l-52.658 35.255c-32.101 21.489-59.568 35.255-70.347 35.255h-17.687Zm37.788 15.54c9.914-11.946 2.129-29.658-13.032-29.658-15.555 0-22.274 16.382-11.866 28.927 9.823 11.833 15.543 12.004 24.898.731m576.253-62.798c-1.235-34.801-4.55-53.259-9.874-55.021-5.905-1.956-8.013 9.288-8.013 42.752v45.409h-96.152v-40.943c0-40.466-.219-40.968-18.985-43.722-22.797-3.347-25.886 2.613-25.886 49.929 0 32.777-.905 34.736-16.027 34.736-15.42 0-16.027-1.549-16.027-40.921 0-38.453-.955-41.102-15.874-43.955-8.733-1.668-17.385-1.523-19.232.32-1.846 1.846-3.354 21.626-3.354 43.955v40.597h-89.745v-40.939c0-40.604-.16-40.96-19.265-43.766-10.597-1.555-20.693-1.403-22.437.342-1.745 1.744-3.169 21.437-3.169 43.766 0 39.031-.618 40.597-16.027 40.597-15.449 0-16.023-1.494-16.023-41.666 0-31.693-2.177-41.665-9.093-41.665-5 0-13.653-1.752-19.232-3.893-8.656-3.321-10.139 2.737-10.139 41.419v45.307l-55.57 1.853c-37.377 1.243-56.442 4.474-58.226 9.864-2.097 6.327 55.49 8.013 273.779 8.013h276.432Zm-464.067 6.505c12.436-17.753 2.962-37.468-18.004-37.468-22.284 0-33.019 15.808-24.076 35.444 8.937 19.606 29.084 20.576 42.08 2.024m-28.179-15.035c0-5.287 4.328-9.616 9.616-9.616s9.616 4.329 9.616 9.616c0 5.292-4.328 9.616-9.616 9.616s-9.616-4.324-9.616-9.616m239.698 14.424c10.31-16.448-2.802-33.652-25.654-33.652-14.467 0-18.988 3.238-20.623 14.773-4.3 30.33 30.261 44.431 46.277 18.879m-32.966-12.821c1.469-4.405 6.517-8.013 11.219-8.013 4.699 0 9.747 3.608 11.215 8.013 1.592 4.768-2.954 8.013-11.215 8.013-8.264 0-12.807-3.245-11.219-8.013m238.325 17.171c18.461-18.461 7.515-41.207-19.832-41.207-20.529 0-29.822 19.886-17.505 37.468 11.462 16.361 23.505 17.567 37.337 3.739m-28.39-18.774c0-6.599 4.201-9.747 11.218-8.395 13.512 2.602 12.662 13.981-1.264 16.877-5.808 1.211-9.954-2.322-9.954-8.482m339.743-102.872c0-5.825-34.75-34.528-42.069-34.746-3.747-.113-15.104 8.453-25.24 19.028l-18.421 19.232h42.865c23.574 0 42.865-1.58 42.865-3.514m57.953-10.51c30.767-22.75 24.807-30.847-22.695-30.847-45.787 0-50.824 5.455-27.728 30.037 17.324 18.44 26.38 18.585 50.423.81m89.484 8.079c0-7.37-31.333-32.515-40.517-32.515-8.148 0-36.407 25.745-36.407 33.169 0 2.911 17.31 5.291 38.46 5.291 21.155 0 38.464-2.674 38.464-5.945m62.014-10.499c11.858-9.042 19.893-19.138 17.854-22.434-2.035-3.296-22.281-5.993-44.991-5.993-46.648 0-53.415 8.759-24.399 31.585 21.565 16.961 25.471 16.724 51.536-3.158m85.42 12.051c0-6.542-27.009-34.067-33.427-34.067-8.042 0-43.497 27.107-43.497 33.256 0 2.864 17.31 5.204 38.464 5.204 21.155 0 38.46-1.977 38.46-4.393m64.361-9.631c30.767-22.75 24.811-30.847-22.695-30.847-45.783 0-50.82 5.455-27.729 30.037 17.328 18.44 26.381 18.585 50.424.81m89.484 8.079c0-7.37-31.33-32.515-40.513-32.515-8.148 0-36.407 25.745-36.407 33.169 0 2.911 17.305 5.291 38.46 5.291 21.154 0 38.46-2.674 38.46-5.945M414.113 530.249c-2.017-8.039-2.795-32.98-1.723-55.421 2.159-45.278 14.108-61.341 35.597-47.847 8.373 5.255 11.713 17.4 13.163 47.847 2.784 58.357-1.287 70.045-24.378 70.045-14.42 0-19.872-3.518-22.659-14.624m38.115-70.575c10.016-15.878-10.535-35.84-24.752-24.044-11.938 9.907-12.68 20.598-2.163 31.116 9.431 9.43 17.913 7.203 26.915-7.072M109.847 519.23c0-12.392 4.226-12.814 126.603-12.679l126.603.141-16.027 12.538c-14.474 11.321-26.725 12.549-126.603 12.676-106.35.138-110.576-.349-110.576-12.676m402.33-11.291c-31.312-20.406-36.788-26.846-36.861-43.374-.124-27.794-16.263-47.898-38.45-47.898-25.41 0-38.558 15.383-38.558 45.103 0 18.113-3.398 26.777-12.4 31.592-7.392 3.958-65.614 6.636-144.228 6.636H109.847V365.385h527.876l-13.937 14.835c-12.516 13.323-13.937 21.83-13.937 83.335v68.496l-30.451-.072c-24.265-.058-37.915-4.939-67.221-24.04M7.284 499.998c0-12.465 3.038-13.272 43.268-11.509 33.347 1.461 43.268 4.099 43.268 11.509s-9.921 10.052-43.268 11.513c-40.23 1.763-43.268.952-43.268-11.513m0-73.715v-48.08h89.742v96.156H7.284Zm3243.586-81.267c-27.946-37.843-31.046-39.929-99.358-66.948-105.75-41.83-101.894-39.725-92.852-50.621 9.369-11.291 52.43-6.814 75.935 7.897 8.323 5.212 31.4 10.278 51.282 11.259 45.62 2.257 70.688 8.729 89.153 23.019 7.999 6.192 28.91 13.235 46.467 15.648 17.556 2.417 33.539 7.007 35.512 10.201 4.656 7.534 39.46 7.556 44.112.03 6.312-10.212 75.859-13.887 125.389-6.626 26.442 3.874 65.386 7.53 86.54 8.123 38.53 1.079 54.487 6.2 54.487 17.48 0 3.533-44.674 6.033-107.694 6.033h-107.695l-35.964 32.053-35.96 32.05-50.253-.269-50.256-.269ZM45.744 342.374c0-11.299 31.701-27.87 53.669-28.059 21.351-.182 23.709 1.133 16.845 9.401-12.28 14.798 12.159 12.356 32.053-3.205 15.794-12.353 51.281-17.677 51.281-7.69 0 2.82-3.463 8.587-7.693 12.821-13.494 13.49 13.479 9.111 31.584-5.131 17.986-14.148 61.592-18.814 47.902-5.128-11.066 11.066-9.481 17.949 4.136 17.949 6.505 0 17.048-5.767 23.429-12.821 8.352-9.227 19.745-12.818 40.656-12.818h29.051l-18.425 19.228-18.425 19.232h-143.03c-78.668 0-143.033-1.7-143.033-3.779m314.104-1.203c0-16.376 21.765-33.551 43.631-34.441 19.352-.785 20.457-1.446 6.048-3.63-16.728-2.533-17.63-4.441-17.63-37.309 0-31.054-1.987-36.109-19.228-48.857-10.579-7.817-19.232-16.558-19.232-19.421 0-2.864 47.597-5.204 105.769-5.204h105.768v153.844H462.411c-56.409 0-102.563-2.242-102.563-4.982m224.358-40.659c0-39.747.945-42.654 12.821-39.55 9.18 2.402 12.822.196 12.822-7.756 0-7.955-3.642-10.161-12.822-7.759-11.727 3.068-12.821.197-12.821-33.612v-36.967l200.322-4.288c110.173-2.355 214.742-5.738 232.372-7.515 50.536-5.095 51.005-3.918 34.866 87.565-7.716 43.722-15.831 81.376-18.037 83.669s-104.253 5.28-226.767 6.643l-222.756 2.471Zm419.872-12.138c0-13.741-18.628-11.757-21.328 2.271-1.65 8.566.959 11.179 9.528 9.529 6.491-1.25 11.8-6.56 11.8-11.8m32.05 0c0-13.741-18.625-11.757-21.325 2.271-1.65 8.566.959 11.179 9.525 9.529 6.49-1.25 11.8-6.56 11.8-11.8M11.481 328.019c-15.885-17.553-15.074-104.042 1.116-118.692 15.808-14.307 21.848-13.435 39.874 5.753 12.879 13.708 13.85 17.306 5.989 22.165-6.16 3.805-14.559 2.413-24.425-4.056-8.275-5.418-16.325-8.573-17.891-7.006-1.567 1.566 4.452 7.635 13.377 13.482 22.012 14.424 22.114 43.461.2 57.823-8.816 5.775-16.027 13.527-16.027 17.226 0 3.7 7.552.789 16.779-6.468 17.244-13.567 28.092-12.68 28.092 2.293 0 7.061-25.802 29.204-34.037 29.204-1.338 0-7.21-5.273-13.043-11.724Zm1043.497-9.107c5.608-26.366 22.816-115.116 22.816-117.674 0-1.385 40.386-2.519 89.745-2.519h89.742v35.666c0 34.768-.847 36.461-33.652 67.065l-33.653 31.395-69.034.244c-68.279.239-68.998.087-65.964-14.181Zm192.24-76.049c-5.462-8.838-21.987-6.686-21.987 2.864 0 4.699 1.897 10.445 4.22 12.763 5.796 5.797 22.128-8.569 17.767-15.627m-34.808 87.398c0-1.69 12.981-15.038 28.848-29.665 27.307-25.171 28.844-28.423 28.844-61.029 0-29.556 1.726-34.441 12.175-34.441 9.816 0 12.621-5.585 14.467-28.815l2.293-28.815-644.274-1.632-644.274-1.632V56.864l86.537-.117 86.54-.116 11.807 19.763c10.841 18.138 14.62 19.759 46.096 19.759 18.857 0 36.072-2.882 38.249-6.407 5.223-8.446 105.769-8.446 105.769 0 0 3.525 7.214 6.407 16.026 6.407 8.817 0 16.027-2.882 16.027-6.407 0-8.948 23.113-8.007 39.387 1.602 10.855 6.407 14.151 6.407 16.47 0 3.565-9.841 101.611-11.298 107.604-1.602 5.157 8.344 35.255 8.344 35.255 0 0-3.529 7.214-6.411 16.026-6.411 8.817 0 16.027 2.882 16.027 6.411 0 8.344 30.098 8.344 35.255 0 5.168-8.359 97.399-8.359 102.567 0 5.157 8.344 35.255 8.344 35.255 0 0-8.348 30.098-8.348 35.255 0 5.16 8.344 35.258 8.344 35.258 0 0-3.74 21.365-6.411 51.282-6.411 29.913 0 51.281 2.671 51.281 6.411 0 8.344 30.098 8.344 35.255 0 5.161-8.348 35.259-8.348 35.259 0 0 3.525 7.21 6.407 16.023 6.407 8.816 0 16.027-2.882 16.027-6.407 0-8.446 100.549-8.446 105.768 0 5.161 8.344 35.259 8.344 35.259 0 0-3.529 7.21-6.411 16.023-6.411 8.816 0 16.026 2.882 16.026 6.411 0 8.344 30.098 8.344 35.259 0 5.219-8.446 105.768-8.446 105.768 0 0 3.525 7.04 6.407 15.645 6.407s17.433-2.882 19.61-6.407c2.181-3.529 11.005-6.411 19.61-6.411 8.606 0 15.645 2.882 15.645 6.411 0 3.525 7.214 6.407 16.027 6.407 8.816 0 16.027-2.882 16.027-6.407 0-3.74 21.368-6.411 51.281-6.411 29.916 0 51.282 2.671 51.282 6.411 0 3.525 8.653 6.407 19.232 6.407 10.575 0 19.228-2.882 19.228-6.407 0-3.529 7.214-6.411 16.027-6.411 8.816 0 16.026 2.882 16.026 6.411 0 3.525 7.04 6.407 15.649 6.407 8.606 0 17.429-2.882 19.606-6.407 2.181-3.529 26.871-6.411 54.865-6.411 29.666 0 50.907 2.675 50.907 6.411 0 3.525 7.21 6.407 16.023 6.407 8.817 0 16.027-2.882 16.027-6.407 0-8.348 30.098-8.348 35.255 0 5.16 8.344 35.258 8.344 35.258 0 0-3.733 21.137-6.411 50.595-6.411 53.041 0 58.379 2.976 58.379 32.573 0 10.859 5.059 12.356 43.269 12.785l43.268.487-22.434 8.642c-14.104 5.429-51.605 8.82-100.964 9.125-47.749.298-78.523 3.002-78.523 6.898 0 3.529-14.424 6.41-32.053 6.41-17.626 0-32.05-2.881-32.05-6.41 0-3.954-33.118-6.407-86.54-6.407-53.419 0-86.537 2.453-86.537 6.407 0 8.191-62.315 8.467-65.171.29-1.203-3.445-42.738-6.537-95.084-7.075l-92.951-.952-1.039 72.621-1.04 72.625-22.902 20.987-22.906 20.991h-86.631c-47.648 0-86.635-1.381-86.635-3.071M141.9 112.179c0-15.314-1.712-16.026-38.464-16.026s-38.46.712-38.46 16.026 1.708 16.027 38.46 16.027 38.464-.713 38.464-16.027M1956.965 304.35l-34.288-28.71H1449.59V173.077h583.333v160.255l-20.835-.138c-15.176-.102-30.138-7.93-55.123-28.844m-456.094-99.224c0-3.525-4.324-6.407-9.616-6.407-5.287 0-9.616 2.882-9.616 6.407 0 3.529 4.329 6.411 9.616 6.411 5.292 0 9.616-2.882 9.616-6.411m44.871 0c0-3.525-2.882-6.407-6.41-6.407-3.526 0-6.408 2.882-6.408 6.407 0 3.529 2.882 6.411 6.408 6.411 3.528 0 6.41-2.882 6.41-6.411m2141.024 99.362c0-5.288 2.885-9.616 6.41-9.616s6.411 4.328 6.411 9.616-2.886 9.616-6.411 9.616-6.41-4.328-6.41-9.616m145.475 5.516c-5.121-5.124.669-15.132 8.751-15.132 3.318 0 6.033 4.328 6.033 9.616 0 9.91-7.567 12.734-14.784 5.516M62.839 297.009c-6.807-6.807-4.942-53.419 2.137-53.419 3.525 0 6.411 12.981 6.411 28.845 0 29.349-.974 32.147-8.548 24.574m21.369-27.78V237.18h44.871v64.102H84.208Zm90.992 1.603c1.668-25.984 4.07-30.749 16.379-32.497 13.33-1.893 14.424.415 14.424 30.451 0 30.574-.97 32.496-16.379 32.496-15.536 0-16.278-1.559-14.424-30.45m75.674-1.156c0-30.574.967-32.496 16.375-32.496 15.54 0 16.278 1.559 14.424 30.447-1.668 25.984-4.07 30.752-16.375 32.5-13.33 1.89-14.424-.414-14.424-30.451m76.921-.018c0-29.582 1.141-31.799 17.629-34.295 15.957-2.421 15.598-2.762-3.798-3.635-11.782-.527-28.757-6.726-37.722-13.78-25.309-19.908-53.161-15.515-32.519 5.127 5.986 5.986 3.354 7.694-11.825 7.694-11.379 0-24.36-5.346-31.123-12.821-6.382-7.051-18.814-12.818-27.627-12.818-15.62 0-15.732.323-4.423 12.818 11.393 12.588 11.197 12.821-10.833 12.821-14.297 0-26.646-4.652-34.042-12.821-6.377-7.051-16.924-12.818-23.425-12.818-13.617 0-15.202 6.879-4.136 17.945 5.982 5.986 2.064 7.65-17.629 7.49-17.455-.138-30.796-5.022-42.949-15.717-9.696-8.533-17.629-17.095-17.629-19.029 0-1.929 62.446-3.51 138.763-3.51H323.27l27.903 22.862c26.071 21.365 27.907 24.945 27.907 54.487v31.624h-51.285zM2649.17 213.83l1.915-31.137-251.483-1.676-251.484-1.679-32.533 25.716c-21.089 16.67-39.092 25.715-51.187 25.715-18.371 0-18.654-.542-18.654-35.789 0-25.821 2.231-35.026 8.013-33.049 4.405 1.508 27.987-4.023 52.405-12.287 41.636-14.097 53.833-15.028 196.651-15.028 100.888 0 204.869 4.539 308.173 13.458 85.752 7.402 168.89 14.235 184.757 15.183 15.863.949 36.058 3.54 44.871 5.757 8.813 2.22 40.546 5.284 70.514 6.81s58.092 2.973 62.5 3.22c4.979.276 8.013 10.012 8.013 25.73v25.29l-136.219 3.034c-74.918 1.672-150.156 5.026-167.193 7.454l-30.974 4.412 1.915-31.137Zm378.57-2.773c1.265-3.79 5.037-6.89 8.388-6.89 3.347 0 7.123 3.1 8.384 6.89 1.265 3.791-2.511 6.891-8.384 6.891-5.876 0-9.652-3.1-8.388-6.891m-305.716-67.911c-10.575-1.301-32.213-5.462-48.076-9.245-18.338-4.376-119.357-6.549-277.323-5.971-222.741.814-248.885-.157-252.424-9.38-2.363-6.149 1.435-15.311 9.423-22.754 10.779-10.041 22.699-12.461 61.344-12.461 26.381 0 49.748 2.882 51.929 6.411 5.157 8.344 35.255 8.344 35.255 0 0-3.529 7.214-6.411 16.027-6.411 8.812 0 16.026 2.882 16.026 6.411 0 8.344 30.098 8.344 35.255 0 5.219-8.446 105.769-8.446 105.769 0 0 3.525 7.213 6.407 16.026 6.407s16.027-2.882 16.027-6.407c0-3.529 8.653-6.411 19.228-6.411 16.169 0 19.232-2.519 19.232-15.801 0-22.736 17.386-29.255 89.353-33.511l63.249-3.743 10.401 20.118c5.724 11.063 13.007 20.116 16.19 20.116 12.774 0 25.937 21.379 25.937 42.123 0 14.864 2.987 21.979 9.235 21.979 5.08 0 11.022 2.882 13.199 6.411 3.917 6.334-11.782 6.985-51.282 2.119m-30.272-31.33c17.789-12.458 18.436-37.112 1.428-54.124-16.921-16.917-29.284-16.172-48.371 2.915-19.086 19.086-19.831 31.45-2.911 48.367 15.402 15.401 30.68 16.274 49.854 2.842m-35.993-8.471c-4.717-2.991-7.599-12.32-6.411-20.737 2.977-21.053 34.336-25.494 40.605-5.749 7.275 22.92-13.919 39.336-34.194 26.486M11.557 40.597C9.206 38.249 7.284 28.15 7.284 18.164V0h75.895c75.104 0 75.969.171 83.332 16.328 4.092 8.98 7.439 19.076 7.439 22.434 0 6.879-155.589 8.638-162.393 1.835"/></svg>