<svg xmlns="http://www.w3.org/2000/svg" width="3320.16" height="1000" viewBox="0 0 3320.16 1000"><path d="m1233.77 234.792-7.199.807-13.594 3.989-2.403 4.002-1.597 55.968-.807 2.403-4.795 7.199.806 3.199h65.559l5.6 2.392 16.79 10.395 15.19 9.603 19.194 11.994 15.191 9.589 25.586 15.191 18.4 11.994 3.989 1.599-.792-2.392-5.6-8.798-2.404-12.799-7.187-31.174-3.196-14.398-2.404-4.003-36.788-17.582-7.991-4.001-17.595-7.992-25.588-11.994-4.795-4.003-4.796-6.395-11.188-20.79-4.003-4.003Zm3.196 21.597h10.396l3.196 3.196 1.599 7.199-1.599 6.395-4.793 3.196-7.199.793-4.796-3.196-2.403-6.393 1.597-7.994Zm-792.404 10.395-.793.795.793 5.6v8.798h-7.185l-8.006-.806-1.597 1.599v21.597l.804.793h566.104l.804-.793v-9.602l-1.599-9.591-5.6-15.191-2.392-3.199H873.947l-4.003 5.591-3.989 4-7.199 2.392h-12.799l-.793-10.383-1.599-1.6h-40.777l.793 15.193-17.583-.806H771.6l.805-5.6v-7.992l-.805-.795H661.262l-2.403 7.188-4.003 4.003-7.992 3.196h-7.991l-4.003-.793-3.196-9.602-2.404-3.992h-40.779l-2.389 8.787-4.003 6.406h-7.992l-4.807-1.599-3.991-3.21-4.003-7.992-3.196-2.392Zm-382.993 5.591-.806.804v39.18l-1.597 4.795-1.599 3.197h-1.6l-5.599 3.196-12.788 1.599-2.403.804-6.392 4.003-13.594 13.592-1.6 3.198 163.112-.806h103.945l22.39.806 8.003 5.588 4.796 5.6-2.404 1.599-311.834.805L0 362.727v18.398l.793 7.994 2.403 13.592 1.6 1.599h430.981l.793-3.199-7.199-23.194-6.392-22.378-9.591-31.188-3.208-7.197-189.502-.795-1.599-.804-7.992-15.191-5.602-8.798-8.796-15.995-3.196-3.196Zm48.769 27.183h50.368l3.21.806 1.597 1.597 3.198 7.994.793 6.404-3.991.795h-59.971l-8.003-.795-3.196-3.207v-11.995l.804-.793Zm965.909 12.801-.804 1.597-1.599 13.594-4.001 7.991-9.591 12.799-11.188 14.387-7.199 9.602-10.397 12.787-17.595 22.39-8.796 10.395-7.991 10.395-10.398 13.594-7.199 8.796v2.392h19.194l3.196-1.599 3.198-4.793 10.396-12.788 9.602-12.801 8.796-10.395 10.384-13.591 10.397-12.787 7.199-8.799 10.396-13.591 11.188-14.398 10.395-13.594 7.199-9.591.806-6.392-1.599-1.6-4.003-2.403-7.992-.804Zm-652.464 4v2.392l7.187 22.39 19.194 57.567 6.392 15.19-.792 2.404-6.393 2.403-10.397.796-203.9.804H13.591l-3.207.792 4.003 19.998 3.196 3.991 7.199 4.796.804 4.003-3.208 2.403-3.991 2.39 5.602 29.589 2.392 7.199 1.597 11.994 2.403 11.19 5.589 19.987 5.602 15.202 6.392 11.994 10.395 18.387 11.202 19.987 10.395 16.79 6.395 7.199h431.775l-.793-4.796-3.196-12.801 4.793.807 4.796 6.392 4.795 9.591 5.602 1.611h41.581l129.531-.804 2.392-.807v-2.392l-10.383-24.793-15.995-38.373-10.398-27.186-3.196-11.201-11.2-40.777-8.786-34.384-2.404-14.385 2.404-4.795 6.394-7.199 6.393-5.602 328.636-.804 1.599-.793 6.395-8.798 7.991-9.591 9.603-12.799 10.395-12.787 7.992-10.395 11.188-14.398 8.005-10.396 10.396-12.787-2.404-1.599h-51.174l-5.6-.804-4.795-3.992Zm686.044 7.188-.793 3.196v6.406l.793 5.589-3.196 7.199-6.395 7.199-3.196 4.795h122.332l2.404.804 11.188 6.395 32.787 19.194 19.986 11.188 8.796 6.394 3.196 4.807.807 60.763-.807 4.796-2.403 2.403-54.368 27.185-18.39 9.591-4.795 1.597v-1.597l-2.404-3.198-7.199-8.796-8.784-11.19-8.798-10.396-7.199-8.796-8.796-11.19-9.591-.804h-144.734l-3.196 1.597-5.591 8.005-5.599 1.597H821.175l-98.345.795-1.609 1.597-5.588 10.396-.807 5.602 3.197 8.796 13.593 30.381 23.987 52.774 10.398 23.182 4 4.003 2.404-.795v-1.597h26.381l4.002-.807 7.992-.804 4.796 3.208 4 3.991 8.798 16.79 5.589 8.003h85.556l.806-2.403-2.403-3.196-2.392-7.994v-67.974h-.807l-3.989 6.406-6.406 7.992-4.795 3.196-7.199 2.404-15.191.793h-87.948l-4.796-.793-5.6-2.404-8.003-6.392-6.395-8.798-4.795-12.788v-12.798l1.599-5.602 4.796-10.396 5.599-6.392 7.992-5.602 10.395-3.196h99.957l5.588 1.599 8.003 4 3.992 4.003 6.404 7.992 5.588-.804 35.191-.793h144.722l2.403.793 3.197 3.207 7.198 10.396 10.396 17.582 3.196 8.006-.804 29.577-1.6 6.393v9.602l1.6 5.6 3.196 1.599 21.597-11.202 22.39-11.992 15.19-7.994 26.381-13.591 15.191-7.992 23.987-12.799 12.801-6.395 12.787-7.199 18.399-9.591 17.582-9.602 21.597-11.188 15.191-8.003 4.796-2.392 4.002-3.199 3.989-17.594 2.404-4 16.79-1.6 11.188-.793.806.793 2.404 20.791h.793l15.995-9.589 16.79-9.602 6.394-4.796-2.392-2.392-18.4-8.798-23.183-11.993-.804-3.198-.795-9.603.795-.792 8.796-1.6 8.798-2.403 2.404-2.404-2.404-4.795-7.992-6.392-40.779-23.989-15.19-8.796-21.597-12.788-23.183-13.593-22.39-13.592-12.798-6.406ZM964.298 365.13l7.199.793 4.796 3.21 4.003 3.989 3.196 6.406.806 7.185-2.405 8.006-4.794 5.588-8.798 3.196h-6.392l-3.21-.792-5.589-3.197-3.196-4.002-3.198-7.992v-5.6l.795-3.198 3.196-6.393 5.6-4.795Zm112.744 10.395-3.198 3.197-10.396 13.593-7.991 11.188-7.992 10.395-8.003 11.202-8.799 11.188-3.196 5.602 153.518.804v1.6l8.798 11.188 6.407 7.991 11.188 13.594 8.798 11.2 3.989 4.002h4.807l1.599-.804 26.379-14.398 20.793-11.19 3.196-4V425.1l-1.599-7.199-6.393-5.599-20.793-13.594-21.583-14.384-12.799-8.006Zm-407.788 55.97-4.795 1.597-3.197 4.003.793 10.395 12.799 52.771 3.991 12.787h2.404l6.392-11.994 5.602-7.185 1.597-4.003-2.403-6.395-3.989-13.591v-6.407l3.196-6.392 3.989-4.003 16.801-.793h23.185l1.597-.806 4.003-6.393 7.199-9.591.793-4Zm295.044 2.403-1.597.793-31.188.804-3.989 1.6-5.602 8.796-1.597 3.198h33.578l.807-.806 5.599-7.188 5.589-6.404Zm-75.953 2.39-14.398.807-2.404 3.196-5.588 8.798h32.785l2.392-.806 3.196-3.197 4.003-7.198-.804-1.6Zm610.088 0-8.003 4.003-13.594 5.6-24.782 11.994-12.799 6.395-10.395 6.392-16.79 10.396-13.591 8.798-5.6 6.395-5.591 5.599-6.404 4.796v-1.599l-2.392-1.6-7.991-8.796-5.602.805-17.595 9.591-21.583 11.201-22.39 11.993-19.193 10.386-25.586 13.591-20.793 11.202-27.185 14.384-19.191 10.395-22.39 11.995-20.781 11.202-11.2 6.392-7.991 6.395-19.987 12.799-11.994 6.394-8.799.805H834.767l-4.001-1.6-3.991-4.807-3.196-1.597.793 43.181 1.599 2.403h302.243l8.005-3.196 21.584-11.202 6.395-2.403-1.6 4.807-8.798 8.798-.793 3.989 11.995 2.403 7.991 3.199 7.199 1.597 8.799 3.198 8.796 6.393 9.591 7.199 11.994 8.798 4.796 2.404h5.599l3.197 1.597 4.002 3.991 4.796 6.404v4.795l-4.003 1.6-2.392 2.392 4.796 7.199 7.991 12.798 9.591 15.984 13.606 26.392 5.588 8.799 2.403 4.793 11.188 21.585 11.202 19.194 7.992 14.398-.793 3.989-7.199 8.798-1.599 5.6v20.79l-1.597 3.199-1.599 4.795 22.378 6.393 34.384 8.798 4.807 4 5.588 6.395 9.603 10.396 7.187 9.591 4.001 2.403h174.311l5.602-2.403 4.795-5.589 1.597-7.199v-52.771l1.6-6.395 8.796-6.406 19.193-12.787 3.991-3.196-7.991-7.199-6.395-10.396-6.395-11.201h-3.208l-2.392 3.21-4 3.196-9.591 7.199-10.395 7.992-1.6 4.795v34.384l-.806 3.197-3.989 4.795-6.406 2.404-50.368.792h-71.172l-20.779-.792-4.807-2.404-8.785-9.591-4.002-7.992v-18.398l.792-13.594 3.21-6.392 9.591-9.591 8.796-10.396 2.392-7.199-.792-6.394-3.197-8.004-4.795-7.991-9.603-13.594-8.798-11.995-9.591-13.591-11.188-15.997-10.395-14.385-8.798-12.801-9.603-13.591-5.588-6.395-9.603-4-19.986-4.796-14.398-3.196-6.392-4.796-4.003-7.199v-7.991l5.6-22.39 4.795-3.199 35.984-20.79 13.591-8.003 15.997-8.787h4.796l8.003 4.795 8.785 8.799 7.199 7.991 8.798 9.591 5.6 6.404 8.798 9.591 6.392 5.602 19.987-1.599 16.79-2.403 4-2.404.807-3.991-2.404-1.597-7.992-.807-4.002-.792-6.393-5.6-3.198-6.395-2.404-9.602-.804-23.183-.793-9.602v-9.591l.793-2.404 5.6-11.188 1.599-4.003h1.597l2.403-2.392 6.395-5.599 11.202-11.188 10.384-9.603 9.602-8.798 11.188-9.591 6.406-5.6 1.597-3.196h1.6l2.392-2.392 11.199-9.603 8.798-7.199 14.387-14.386 2.403-4.796v-9.602l-1.599-12.787-2.403-5.6-4.796-3.196-8.796-.807Zm-707.639.807-6.395.793h-13.603l-7.187 1.599-5.6 6.404-1.599 3.198h32.785l3.991-2.403 4-7.199-.804-2.392Zm31.186 0-1.611.793-3.196 4.002-3.989 7.199h33.577l6.395-7.199.804-4.795Zm-693.253 8.796h98.355l6.395.795 7.992 2.403 4.795 3.196 3.208 6.393 15.986 52.773 9.602 28.783 11.992 36.787v5.6l-2.403 3.991-4.796 3.197-9.602 4.002-11.992.805h-78.36l-3.196-.805-7.199-3.198-7.188-6.393-12.798-21.597-7.992-13.591-9.603-17.583-3.991-17.594-4-23.196-5.602-27.186.806-6.392 4.796-7.199Zm188.709 0 99.148.795 13.594 2.403 4.795 3.196 4.001 11.188 12.787 43.183 22.39 68.766.806 7.199-3.21 4.796-4.793 3.196-9.591 3.198-17.594.805h-73.564l-3.197-.805-7.991-4.795-5.602-6.395-7.992-12.799-11.2-19.193-9.591-18.387-3.196-10.395-10.397-55.164v-8.798l.795-1.597 5.599-8.005ZM171.907 469.88l-4.795 2.392-7.199 4.795-1.597 3.208v6.395l3.196 19.191 1.597 23.185 2.404 6.392 15.985 23.989 8.004 7.199 7.187 1.597h20.791l40.779-.793 2.403-.804-.806-7.992-5.589-17.594-10.395-34.384-7.199-23.989-4.795-9.591-4.003-3.196Zm187.099 0-3.197 1.599-7.187 4.795-2.404 4.001v6.395l3.197 21.583 1.599 19.193 1.599 6.395 7.199 11.992 7.992 11.995 8.003 8.005 5.588 2.39h32.785l31.981-.793 2.404-.804-1.597-10.395-4.796-15.191-11.202-37.583-8.798-26.39-3.989-6.395-2.403-.792Zm343.033 35.981-8.003 13.594-4.796 6.392-.792 3.199 3.989 10.395 4.002 7.992h1.597l5.602-7.992 7.992-7.992.804-3.198-5.599-15.995-3.197-6.395Zm88.755 2.392-8.798 3.198-5.6 4.807-4.796 7.186-2.403 9.602.804 8.798 3.199 8.785 5.599 6.406 7.199 3.991 9.591 1.597h87.949l6.406-1.597 5.588-6.394 5.6-7.992 2.403-8.798-.804-10.396-3.991-7.991-8.796-8.799-4.796-2.403Zm259.867 14.398 1.599 2.392 8.796 7.199 7.188 7.992 5.6 7.199 4.795 9.602v16.79l-.793 3.196-4.002 9.591-4.794 13.592-4.002 8.005.804 3.197 11.19 6.392 4.796.807 1.597-1.6 12.798-19.193 7.994-12.799 2.404-5.588v-21.597l-.807-7.992-2.392-8.796-4.795-10.397-4.807-5.6-3.989-2.392Zm-330.235 25.586-1.597 1.599-6.395 9.591-5.599 4.796-.805 4 2.404 6.395 5.6 11.202 3.196 1.597 3.196-3.197 4.003-6.406 5.588-5.588v-4.003l-6.392-16.788Zm15.997 38.375-7.199 9.603-6.394 5.588.795 4.807 7.991 18.387h1.597l4.003-4 6.395-7.994 3.196-4.794-4.795-14.398-3.197-7.199Zm34.373 19.998v6.393l-.795 1.599-11.199 8.798-10.384 7.992-11.995 12.799-1.599 3.991h39.18l2.392-.795v-32.785l-3.196-7.992Zm578.912 15.191-11.995 6.395-17.594 9.588-23.987 12.801-4.002 4.001-2.392 7.187v6.407l.792 2.392 3.199 2.403 10.395.793 4.807 1.597 9.591 1.599 7.992.804v1.6l8.003 9.591 6.395 8.796 10.395 13.593 8.798 11.202 11.993 15.984 12.787 16.801 7.199 9.591 11.19 14.396 8.796 11.19 10.395 14.398 3.199 7.992v16.79l-.793 1.597-4.809 6.395-10.384 10.395-9.602 10.395-3.197 5.6v13.594l.807 4.795 2.39 5.6 4.795 7.199h137.537l.793-.804.804-35.18 2.404-5.599 6.394-4.796 17.595-11.994 8.784-6.393-7.992-18.401-10.395-21.583-11.188-20.793-3.198-1.597-25.586 8.796-8.796 2.404-8.799-5.6v-3.196l2.392-1.599 17.595-11.2 14.398-8.798-.807-3.989-7.199-11.995-3.196-.806-11.188 4.795-26.393 8.799h-5.588l-6.406-5.602-.793-3.197 5.588-3.196 19.998-11.994 12.787-7.199v-2.392l-6.392-5.6-7.199-7.199-4.796-.793-19.986 7.992-16.79 5.6-7.199.795-7.199-4.796-1.597-3.198 15.191-9.589 22.39-13.594-.805-2.403-7.994-6.393-11.992-11.994-4.795-.807-11.202 5.602-39.973.804-5.599-.804-14.387-14.398-5.6-6.395-7.199-7.199-9.591-8.784-7.199-5.6Zm-811.585 16.79-406.992.793-7.199.804-2.404 1.599 1.597 5.6 4.807 5.602 11.19 6.392 3.197 7.199h116.744l7.992-3.207 3.196-4.796 3.21-1.599 7.992 1.599v1.597l3.991 6.406h45.584l3.989-4.807h9.602l2.392 3.197 2.404.806 4.002.804h121.54l3.989-4.002 1.599-4.794h11.995l.804.793 3.991 8.003h34.385l7.196-.804 6.395-6.395 11.995-1.597h7.199l1.597 8.796H678.05l.795-.804 4.796-6.395 4.807-3.196 7.991-11.202 1.597-4.795-1.597-.804-123.139-.793Zm1071.454 234.281-4.002 3.196-9.591 7.199-13.592 10.396-4.003 3.991v56.774l-1.597 5.599-4.002 5.6-5.6 4.796-6.395 2.392-45.572.804h-79.957l-51.978-.804-2.404-.793-3.198-3.199-7.185-8.796-7.199-8.003-5.602-6.394-4.794-3.989-9.602-4.003-33.58-8.798-15.191-4.796-2.403.795-.793 17.594v29.589l1.597 4.796 6.395 5.599 13.591 8.798 11.202 6.393 5.588 2.392h267.873l6.392-.793 2.392-1.599 10.398-10.395v-45.572l-2.392-56.774-1.599-8.799ZM2064.796 0l-3.992 4.003-11.199 20.79-4.796 6.395-4.795 3.989-25.586 11.994-17.594 8.004-7.994 3.991-36.786 17.594-2.392 4.003-3.198 14.384-7.199 31.188-2.404 12.799-5.6 8.784-.792 2.404 4.002-1.597 18.387-11.995 25.586-15.19 15.191-9.591 19.194-11.995 15.19-9.602 16.79-10.396 5.6-2.392h65.558l.807-3.196-4.796-7.199-.804-2.403-1.599-55.968-2.392-4.002-13.605-3.992-7.186-.804Zm8.003 21.586h10.395l3.991 3.207 1.597 7.992-2.39 6.395-4.795 3.196-7.199-.793-4.796-3.196-1.61-6.406 1.61-7.188Zm261.466 10.395-2.403 3.196-5.6 15.202-1.599 9.591v9.591l.806.804h566.102l.804-.804V47.976l-1.597-1.597-7.992.792h-7.199v-8.784l.793-5.602-.793-.804h-113.548l-3.196 2.403-3.991 7.992-4.001 3.196-4.795 1.599h-8.006l-3.989-6.394-2.403-8.796h-40.779l-2.404 4-3.196 9.591-3.989.807h-8.006l-7.991-3.199-4.001-4-2.392-7.199h-110.351l-.793.804v7.992l.793 5.602h-14.385l-17.596.792.795-15.19h-40.779l-1.597 1.597-.795 10.397h-12.799l-7.199-2.392-3.989-4.003-4.003-5.599Zm792.393 5.599-3.198 3.197-8.796 15.997-5.602 8.796-7.992 15.193-1.597.793-189.502.804-3.198 7.199-9.603 31.174-6.392 22.39-7.199 23.196.804 3.196h430.97l1.611-1.597 2.392-13.593.804-8.004v-18.389l-1.597-2.39-311.847-.806-2.39-1.597 4.793-5.602 7.994-5.588 22.39-.805h103.943l163.123.805-1.599-3.208-13.592-13.594-6.406-3.989-2.392-.806-12.799-1.597-5.6-3.199h-1.599l-1.597-3.196-1.599-4.796V38.387l-.793-.807Zm32.785 27.186h50.368l15.191.804.804.795v11.992l-3.196 3.199-8.004.804h-59.958l-4.003-.804.793-6.395 3.21-7.992 1.599-1.599Zm-915.53 12.798-11.994.793-8.003.807-3.992 2.392-1.608 1.597.804 6.406 7.199 9.591 10.395 13.591 11.188 14.398 10.398 13.594 7.199 8.796 10.395 12.787 10.395 13.594 8.799 10.395 9.588 12.799 10.396 12.787 3.198 4.796 3.196 1.599h19.194v-2.392l-7.199-8.798-10.395-13.592-7.994-10.395-8.796-10.397-17.595-22.39-10.395-12.787-7.187-9.603-11.202-14.384-9.591-12.799-4.001-7.994-1.599-13.591Zm77.553 3.992-4.795 4-5.6.795h-51.174l-2.392 1.609 10.384 12.789 8.005 10.395 11.188 14.398 8.006 10.384 10.383 12.799 9.601 12.799 7.994 9.591 6.392 8.796 1.611.795 328.624.804 6.392 5.6 6.407 7.187 2.392 4.807-2.392 14.387-8.796 34.384-11.202 40.777-3.196 11.201-10.395 27.183-15.986 38.376-10.396 24.793v2.392l2.393.804 129.542.793h41.572l5.6-1.597 4.795-9.591 4.796-6.395 4.807-.804-3.21 12.799-.793 4.795H3233.8l6.392-7.199 10.396-16.79 11.201-19.984 10.396-18.4 6.394-11.995 5.6-15.191 5.588-19.986 2.404-11.199 1.599-11.995 2.404-7.187 5.588-29.589-3.991-2.404-3.197-2.392.793-4.002 7.199-4.794 3.199-4.002 4-19.987-3.196-.806h-221.494l-203.888-.793-10.395-.804-6.407-2.392-.792-2.404 6.392-15.19 19.194-57.567 7.199-22.39v-2.403Zm-267.861 7.199-12.798 6.392-22.39 13.594-23.183 13.591-21.585 12.799-15.191 8.798-40.788 23.989-7.992 6.393-2.392 4.795 2.392 2.404 8.796 2.392 8.798 1.597.793.806-.793 9.591-.806 3.208-23.183 11.983-18.387 8.796-2.403 2.404 6.392 4.795 16.79 9.603 15.995 9.591h.807l2.392-20.791.804-.795 11.188.795 16.79 1.597 2.404 4.003 4.002 17.583 3.989 3.207 4.796 2.392 15.204 8.004 21.584 11.19 17.594 9.591 18.389 9.602 12.787 7.199 12.799 6.393 23.989 12.787 15.191 8.003 26.39 13.594 15.191 7.992 22.389 11.994 21.586 11.188 3.196-1.597 1.599-5.588v-9.602l-1.599-6.395-.793-29.589 3.197-7.992 10.395-17.594 7.187-10.395 3.199-3.199 2.403-.792h144.723l35.188.792 5.6.807 6.395-8.003 3.989-3.992 8.005-4.002 5.588-1.597h99.955l10.395 3.196 7.992 5.6 5.602 6.394 4.793 10.396 1.599 5.599v12.788l-4.795 12.801-6.393 8.796-8.005 6.394-5.589 2.404-4.795.793h-87.96l-15.191-.793-7.199-2.404-4.795-3.198-6.395-7.992-4-6.404h-.807v67.962l-2.39 8.003-2.405 3.197.806 2.403h85.556l5.589-8.003 8.798-16.79 4.003-4.001 4.795-3.198 7.992.806 4 .793h26.393v1.599l2.392.805 4.003-4.003 10.395-23.183 23.986-52.771 13.594-30.393 3.196-8.787-.804-5.599-5.588-10.396-1.599-1.599-98.357-.804h-184.707l-5.588-1.599-5.6-7.992-3.198-1.599h-144.734l-9.591.795-8.796 11.199-7.199 8.798-8.787 10.396-8.796 11.188-7.199 8.798-2.403 3.196v1.599l-4.796-1.599-18.387-9.591-54.37-27.185-2.403-2.404-.793-4.793.793-60.777 3.196-4.795 8.798-6.393 19.986-11.19 32.785-19.193 11.2-6.404 2.392-.793h122.346l-3.199-4.796-6.404-7.199-3.198-7.199.806-5.602v-6.392l-.806-3.196Zm302.246 41.581 7.991 2.392 5.6 4.807 3.199 6.394.804 3.197v5.599l-3.196 7.994-3.21 4.001-5.589 3.198-3.196.793h-6.406l-8.796-3.196-4.796-5.602-2.392-7.992.793-7.199 3.196-6.392 4.003-4.003 4.796-3.196Zm-112.742 10.397-136.73.793-12.801 8.003-21.583 14.387-20.793 13.591-6.393 5.602-1.599 7.199v36.774l3.199 4.003 20.79 11.188 26.379 14.398 1.61.793h4.796l3.991-3.989 8.796-11.202 11.202-13.592 6.392-7.991 8.799-11.202v-1.597l153.518-.795-3.196-5.6-8.796-11.188-7.992-11.202-8.006-10.395-7.991-11.19-10.396-13.592Zm327.829 55.968.807 4.002 7.185 9.591 4.003 6.393 1.599.804h23.194l16.79.795 3.989 4.001 3.21 6.394v6.393l-4.003 13.594-2.403 6.406 1.599 3.989 5.6 7.199 6.395 11.994h2.403l4-12.787 12.788-52.771.806-10.398-3.198-4-4.807-1.599Zm-215.087 2.403-1.6.793 5.602 6.395 5.589 7.199.804.804h33.578l-1.597-3.208-5.6-8.787-3.991-1.597-31.188-.806Zm-545.323 2.392-8.798.804-4.796 3.199-2.392 5.588-1.608 12.799v9.591l2.403 4.807 14.396 14.386 8.787 7.197 11.199 9.591 2.404 2.404h1.599l1.599 3.198 6.393 5.6 11.19 9.591 9.603 8.796 10.395 9.591 11.188 11.202 6.395 5.599 2.403 2.392h1.597l1.599 4.001 5.6 11.19.795 2.404v9.591l-.795 9.602-.804 23.183-2.392 9.591-3.196 6.404-6.407 5.588-3.989.806-8.005.805-2.39 1.599.793 3.989 4 2.403 16.79 2.392 19.987 1.6 6.406-5.589 8.784-9.602 5.6-6.395 8.798-9.589 7.199-8.005 8.799-8.785 7.991-4.807h4.796l15.995 8.796 13.594 8.006 35.981 20.779 4.795 3.208 5.6 22.378v8.003l-4 7.199-6.395 4.796-14.398 3.198-19.986 4.793-9.592 4.003-5.599 6.395-9.603 13.591-8.784 12.788-10.395 14.398-11.202 15.994-9.591 13.594-8.796 11.995-9.591 13.591-4.807 7.992-3.199 7.994-.792 6.404 2.392 7.187 8.798 10.396 9.602 9.602 3.197 6.395.792 13.591v18.387l-3.989 8.006-8.798 9.591-4.795 2.403-20.791.793h-71.172l-50.368-.793-6.394-2.403-4.001-4.796-.806-3.198v-34.382l-1.597-4.796-10.396-8.005-9.591-7.185-4.002-3.21-2.392-3.197h-3.197l-6.406 11.2-6.392 10.397-7.992 7.186 3.989 3.21 19.193 12.787 8.796 6.392 1.6 6.407v52.771l1.599 7.187 4.795 5.6 5.6 2.404h174.311l4.001-2.404 7.199-9.589 9.591-10.397 5.602-6.393 4.793-4.002 34.384-8.796 22.39-6.395-1.597-4.796-1.6-3.196v-20.79l-1.61-5.602-7.188-8.796-.804-4.003 7.992-14.387 11.202-19.191 11.188-21.585 2.403-4.796 5.602-8.796 13.591-26.392 9.592-15.984 7.991-12.801 4.807-7.199-2.403-2.389-4.003-1.6v-4.807l4.807-6.394 3.991-4.001 3.196-1.599h5.6l4.796-2.392 11.994-8.796 9.603-7.199 8.798-6.395 8.784-3.196 7.199-1.599 7.992-3.197 11.995-2.403-.793-4.003-8.798-8.796-1.597-4.795 6.392 2.403 21.597 11.188 7.992 3.199h302.243l1.599-2.392.805-43.183-3.197 1.599-4 4.796-4.003 1.597h-253.463l-8.796-.793-11.995-6.392-19.997-12.801-7.994-6.393-11.188-6.395-20.791-11.199-22.39-11.995-19.193-10.395-27.185-14.386-20.791-11.2-25.588-13.594-19.191-10.395-22.378-11.994-21.597-11.188-17.595-9.603-5.588-.795-8.005 8.798-2.392 1.6v1.597l-6.393-4.796-5.6-5.6-5.602-6.392-13.591-8.798-16.79-10.396-10.395-6.394-12.799-6.404-24.782-11.995-13.594-5.588-7.991-4.003Zm602.097 0-.807 1.599 4.003 7.199 3.196 3.197 2.404.804h32.773l-5.588-8.796-2.404-3.199-14.386-.804Zm53.564.804.806 4.796 6.393 7.199h33.591l-4.003-7.199-3.196-4.001-1.599-.795Zm57.578 0-.804 2.392 4.002 7.199 4.001 2.404h32.773l-1.597-3.208-5.588-6.395-7.199-1.597h-13.594l-6.404-.795Zm478.948 8.787 4.001 2.404 5.602 7.991.792 1.6v8.796l-10.395 55.174-3.198 10.398-9.589 18.387-11.202 19.193-7.992 12.788-5.599 6.404-7.994 4.795-3.197.795h-73.561l-17.595-.795-9.591-3.196-4.795-3.196-3.196-4.807.792-7.188 22.39-68.768 12.799-43.181 3.991-11.19 4.793-3.196 13.594-2.404Zm90.363 0h98.346l4.795 4.001 4.794 7.199.806 6.394-5.6 27.186-3.991 23.194-4.003 17.582-9.588 17.595-8.006 13.593-12.787 21.597-7.199 6.393-7.199 3.196-3.196.795h-78.357l-11.995-.795-9.602-4-4.796-3.199-2.392-4v-5.589l11.995-36.787 9.591-28.785 15.995-52.771 3.196-6.395 4.795-3.196 7.992-2.404Zm-188.709 23.987-2.403.806-3.989 6.393-8.798 26.392-11.2 37.581-4.795 15.191-1.6 10.395 2.404.795 31.981.804h32.785l5.599-2.403 7.994-7.992 7.992-11.995 7.199-11.994 1.597-6.393 1.599-19.193 3.197-21.586v-6.404l-2.392-3.991-7.199-4.795-3.197-1.611Zm187.905 0-4.003 3.21-4.795 9.591-7.199 23.987-10.395 34.384-5.589 17.594-.804 7.992 2.404.795 40.776.804h20.791l7.199-1.599 7.991-7.199 15.998-23.987 2.392-6.395 1.597-23.194 3.198-19.182v-6.404l-1.599-3.198-7.199-4.796-4.796-2.403Zm-475.761 35.983-3.199 6.407-5.588 15.983.793 3.196 7.994 8.004 5.599 7.994h1.597l4.003-7.994 4.003-10.396-.807-3.196-4.795-6.406-7.992-13.592Zm-181.499 2.404-4.807 2.403-8.786 8.785-4.001 8.005-.806 10.396 2.403 8.796 5.602 7.994 5.588 6.392 6.404 1.599h87.951l9.602-1.599 7.186-4.003 5.602-6.392 3.196-8.798.804-8.796-2.403-9.591-4.796-7.199-5.6-4.796-8.796-3.196Zm-204.706 14.398-3.989 2.392-4.795 5.6-4.807 10.395-2.392 8.798-.805 7.992v21.583l2.404 5.602 7.992 12.799 12.798 19.182 1.6 1.597 4.795-.793 11.188-6.395.804-3.207-4-7.992-4.796-13.594-4.002-9.589-.793-3.198v-16.802l4.795-9.588 5.6-7.199 7.199-7.992 8.785-7.199 1.61-2.392Zm369.415 25.586-3.196 3.196-6.395 16.79v4.003l5.599 5.588 3.992 6.406 3.196 3.197 3.21-1.6 5.588-11.199 2.404-6.395-.807-4.003-5.588-4.795-6.406-9.589Zm-18.39 38.373-3.196 7.199-4.795 14.387 3.198 4.807 6.393 7.991 4.003 4.003h1.596l7.995-18.401.804-4.795-6.406-5.588-7.188-9.603Zm-34.381 19.986-3.199 8.006v32.785l2.403.793h39.18l-1.599-4.003-11.992-12.787-10.398-7.992-11.199-8.796-.793-1.599v-6.407Zm-576.499 15.205-4.807 1.597-7.188 5.588-9.602 8.798-7.199 7.199-5.589 6.393-14.398 14.398-5.599.793-39.973-.793-11.199-5.6-4.796.804-11.994 11.995-7.992 6.395-.807 2.392 22.39 13.591 15.191 9.603-1.597 3.196-7.199 4.795-7.188-.792-16.801-5.6-19.986-7.994-4.796.795-7.199 7.199-6.392 5.6v2.392l12.787 7.199 19.998 11.994 5.588 3.196-.793 3.197-6.395 5.599h-5.599l-26.393-8.796-11.188-4.795-3.196.793-7.199 11.994-.793 4.003 14.384 8.796 17.595 11.19 2.392 1.608v3.199l-8.785 5.588-8.798-2.392-25.586-8.798-3.196 1.599-11.202 20.791-10.395 21.585-7.992 18.387 8.796 6.406 17.583 11.995 6.406 4.795 2.392 5.6.804 35.177.795.804h137.535l4.795-7.196 2.404-5.602.793-4.796v-13.591l-3.197-5.6-9.591-10.398-10.395-10.395-4.795-6.392-.807-1.6v-16.79l3.199-8.003 10.395-14.386 8.796-11.2 11.19-14.386 7.199-9.603 12.799-16.79 11.994-15.983 8.785-11.202 10.395-13.591 6.406-8.799 7.992-9.588v-1.6l7.992-.804 9.602-1.599 4.796-1.599 10.397-.793 3.197-2.404.792-2.403v-6.393l-2.392-7.199-4.003-3.991-23.986-12.799-17.583-9.591Zm776.395 16.788-123.139.795-1.597.804 1.597 4.795 8.006 11.188 4.795 3.21 4.796 6.393.793.793h111.948l1.6-8.796h7.196l11.995 1.61 6.395 6.393 7.199.793h34.384l3.989-7.992.804-.804h11.995l1.599 4.807 4.003 3.989h121.537l3.991-.793 2.404-.804 2.392-3.197h9.602l3.989 4.794h45.586l3.989-6.393v-1.599l8.006-1.597 3.196 1.597 3.196 4.795 7.992 3.197h116.744l3.196-7.186 11.202-6.406 4.796-5.588 1.599-5.6-2.404-1.599-7.198-.804-406.984-.795ZM1710.585 638.078l-3.198 3.198-1.609 8.796-2.392 56.763v45.583l10.396 10.398 2.392 1.597 6.404.793h267.861l5.599-2.39 11.191-6.406 13.591-8.785 6.395-5.602 1.597-4.795v-29.589l-.793-17.594-2.403-.793-15.191 4.795-33.578 8.796-9.602 3.992-4.796 4.002-5.588 6.393-7.199 8.005-7.199 8.785-3.198 3.208-2.404.795-51.965.804h-79.97l-45.572-.804-6.393-2.392-5.602-4.807-4-5.589-1.599-5.602v-56.774l-3.989-4-13.594-10.384-9.603-7.199Z"/></svg>