<svg xmlns="http://www.w3.org/2000/svg" width="2103.019" height="1000" viewBox="0 0 2103.019 1000"><path d="M1705.319 983.214c-20.842-14.003-25.363-21.932-27.249-47.8-1.402-19.254.847-31.014 5.935-31.014 27.779 0 75.005 19.108 92.591 37.464l20.471 21.366h118.488c82.354 0 121.181-2.69 127.315-8.824 4.856-4.855 8.824-25.788 8.824-46.517 0-30.683 3.416-40.903 18.356-54.938 10.096-9.485 20.849-14.754 23.898-11.709 3.053 3.045 6.727 35.662 8.166 72.48 2.264 57.815.822 68.264-10.597 76.611-10.037 7.341-55.076 9.667-187.213 9.667-168.981 0-174.72-.487-198.985-16.786m203.164-33.06c-108.618-2.017-110.402-2.315-130.92-22.059-11.441-11.012-34.688-23.466-51.664-27.682-25.646-6.37-31.25-10.997-33.168-27.39-1.272-10.848.705-25.112 4.393-31.701 4.954-8.856-5.455-33.769-39.975-95.651-25.672-46.023-46.678-90.356-46.678-98.518s-3.826-14.842-8.5-14.842-19.41-8.326-32.751-18.502c-13.341-10.172-34.517-20.551-47.058-23.058-16.114-3.224-21.584-7.745-18.64-15.413 3.173-8.264 1.079-9.34-8.791-4.513-7.123 3.481-104.78 7.261-217.017 8.395l-204.069 2.064-.003-24.124-.008-24.123 174.084 2.104 174.083 2.1 41.018-25.224c94.557-58.147 316.11-171.59 322.55-165.151 4.114 4.114 23.745-4.277 50.136-21.434 56.443-36.69 114.818-62.991 132.375-59.644 8.202 1.567 15.005 10.081 16.506 20.661 2.075 14.66-11.124 30.999-71.233 88.168l-73.781 70.175 3.932 36.767c2.439 22.782 9.137 41.317 17.604 48.727 16.303 14.256 11.481 21.136-14.813 21.136-13.166 0-29.632-10.525-51.783-33.093-17.861-18.2-36.512-33.092-41.447-33.092s-28.757 11.785-52.939 26.191c-65.476 39.002-69.358 77.52-8.845 87.743 25.802 4.361 32.881 11.339 80.467 79.319 28.699 40.997 52.183 81.612 52.183 90.254 0 8.646-6.622 21.707-14.711 29.026-17.004 15.391-19.218 52.27-4.314 71.913 8.817 11.622 21.311 12.854 111.91 11.03l101.989-2.05 2.264-31.366c1.719-23.808 6.658-34.241 20.5-43.312 17.07-11.183 18.902-11.059 28.754 1.951 14.449 19.09 13.697 22.812-7.399 36.632-16.143 10.579-18.386 17.295-18.386 55.065 0 33.867-2.736 44.246-12.868 48.792-7.076 3.177-62.42 4.856-122.987 3.729m-87.205-94.779c-10.67-10.673-3.954-37.548 13.482-53.927 30.64-28.786 24.346-47.284-48.174-141.561-58.324-75.823-69.125-86.406-88.197-86.406-13.559 0-21.736-3.812-21.736-10.128 0-12.011 7.955-18.669 49.755-41.648l31.367-17.244 32.514 31.908c32.104 31.512 33.02 31.861 73 27.732 31.01-3.198 42.65-1.569 49.737 6.971 7.682 9.26 6.196 13.501-8.77 24.999-9.91 7.621-21.165 13.926-25.006 14.017s-3.318 3.827 1.163 8.311c5.96 5.96 15.318 5.779 34.866-.672 46.648-15.394 64.332 1.868 25.446 24.836-29.509 17.433-18.309 28.706 17.579 17.691 20.522-6.298 29.698-6.331 35.894-.138 6.196 6.2 2.406 11.698-14.838 21.514-36.116 20.562-24.447 33.34 18.527 20.282 13.78-4.183 18.839.625 35.745 33.987l19.694 38.86-22.943 18.857c-17.156 14.105-22.928 24.887-22.877 42.76l.048 23.902h-90.698c-49.882 0-92.9-2.206-95.596-4.903ZM169.137 547.744l-17.273-18.385h376.324c206.976 0 376.324 1.148 376.324 2.551s-6.182 9.678-13.734 18.385c-12.265 14.144-21.22 15.834-83.952 15.834-49.632 0-71.132-2.696-73.316-9.194-2.471-7.352-8.213-7.352-28.71 0-32.358 11.607-52.255 11.666-63.735.182-7.109-7.109-12.069-7.094-23.524.054-17.273 10.79-241.035 10.801-254.9.011-5.407-4.205-14.304-3.798-23.415 1.079-8.082 4.325-45.772 7.865-83.756 7.865-64.157 0-70.288-1.309-86.333-18.385Zm786.849-13.835c0-1.541 11.582-11.64 25.741-22.437l25.737-19.632v22.437c0 20.737-1.948 22.437-25.737 22.437-14.159 0-25.741-1.264-25.741-2.805m116.053-32.126c-8.453-17.513-14.097-20.224-42.069-20.224h-32.308l-35.258-75.521c-19.392-41.539-33.376-80.424-31.08-86.41 3.533-9.209 32.784-10.88 190.474-10.88 116.267 0 188.009-2.766 190.847-7.356 2.682-4.339 47.128-7.352 108.502-7.352h103.958l31.018 34.928 31.014 34.932 50.274-25.737c49.679-25.436 50.301-26.123 52.598-58.241 3.706-51.925-1.712-61.174-53.179-90.774-46.979-27.024-49.065-27.478-126.098-27.478-68.402 0-77.76-1.472-73.86-11.629 2.453-6.4 4.462-16.325 4.462-22.063 0-8.508 19.003-10.43 103.112-10.43h103.112l91.559 53.316c83.822 48.811 109.66 71.698 80.936 71.698-21.834 0-10.405 19.469 20.101 34.245l31.133 15.078-23.414 12.106c-28.75 14.871-31.498 14.961-31.498 1.079 0-18.32-35.869-13.701-44.736 5.764-5.226 11.465-54.756 41.665-156.109 95.182l-148.459 78.385-2.282-38.079c-1.632-27.256-7.722-45.209-21.427-63.18l-19.148-25.101-119.135 4.885c-101.567 4.161-120.498 3.238-128.384-6.266-7.221-8.7-26.696-11.146-88.826-11.146-73.889 0-80.391 1.167-91.021 16.347-6.294 8.987-11.447 23.142-11.447 31.453s5.153 22.467 11.447 31.458c10.637 15.187 17.114 16.342 91.49 16.342 45.427 0 82.005-3.179 84.585-7.355 11.48-18.578 18.385-3.391 18.385 40.448v47.8h-54.752c-52.459 0-55.163-.847-64.517-20.224m-970.799 0C67.177 463.141 16.354 317.47 27.136 289.374c1.803-4.706-.254-10.739-4.575-13.41-4.318-2.671-7.854-11.277-7.854-19.127 0-13.886 7.796-14.275 285.572-14.275 157.061 0 287.327-1.758 289.475-3.906s-3.496-24.484-12.545-49.639c-9.049-25.152-18.752-53.175-21.561-62.275l-5.106-16.546 373.696.727c205.533.399 391.071 2.881 412.309 5.516l38.609 4.786-44.503 56.991-44.501 56.995h-215.658c-188.899 0-216.871 1.461-225.444 11.789-8.224 9.91-7.127 22.161 6.883 76.858 9.169 35.79 27.75 92.533 41.295 126.095l24.625 61.021-114.189 2.031c-102.203 1.817-115.228.658-124.095-11.033-9.369-12.345-9.922-12.356-10.143-.193-.218 12.029-18.48 12.873-278.536 12.873-255.827 0-279.22-1.04-289.65-12.873Zm254.816-35.716c16.154-6.2 14.748-17.779-12.887-105.845l-24.225-77.215-75.663-3.674c-41.618-2.024-79.003-1.599-83.084.945-12.403 7.726 1.534 92.351 21.398 129.917 31.032 58.692 33.816 60.334 102.062 60.334 33.423 0 65.999-2.009 72.399-4.462m-127.184-51.209c-15.602-19.836-27.631-76.001-20.341-94.99 5.412-14.108 80.406-15.703 90.662-1.93 3.765 5.056 12.868 29.048 20.231 53.313 7.363 24.269 14.969 48.262 16.906 53.317 2.591 6.774-9.122 9.191-44.537 9.191-42.846 0-49.664-2.046-62.921-18.901m376.371 46.481c11.447-8.486 10.27-15.696-15.275-93.762l-27.677-84.57-75.892-3.674c-92.657-4.492-94.692-2.987-82.161 60.723 9.405 47.807 13.25 57.252 41.916 102.897l17.317 27.576h64.684c40.234 0 69.376-3.474 77.088-9.19m-133.77-48.469c-9.459-13.283-15.663-35.371-17.044-60.669l-2.173-39.779 45.3-2.17 45.303-2.173 19.043 58.826c10.474 32.359 19.043 60.636 19.043 62.842s-21.282 4.012-47.299 4.012c-43.57 0-48.468-1.646-62.173-20.889m804.664-207.896c9.805-30.894-32.341-46.299-43.941-16.063-2.406 6.266-.603 15.936 4.009 21.493 12.556 15.129 34.346 12.167 39.932-5.43M945.138 500.235c-5.793-9.369 2.046-37.061 10.488-37.061 3.3 0 7.697 6.498 9.776 14.438 4.317 16.521-12.462 35.252-20.264 22.623m447.113-4.975c-6.432-2.628-5.963-9.925 1.839-28.601 14.41-34.488 13.349-43.065-8.562-69.104l-19.039-22.626h25.494c29.505 0 39.583 9.544 45.492 43.083 3.027 17.193-.411 32.373-12.011 53.012-16.521 29.393-17.971 30.454-33.213 24.236m-470.274-50.21c-2.696-7.028.022-17.226 6.258-23.458 9.805-9.805 11.466-9.362 14.955 3.976 5.135 19.635-14.304 37.489-21.213 19.482m86.958-27.467c-4.855-4.855-8.827-15.776-8.827-24.269 0-27.565 14.122-33.096 84.203-32.98 36.604.062 70.1 2.544 74.439 5.517 14.373 9.838 16.891 29.237 5.847 45.005-9.754 13.923-18 15.551-78.865 15.551-43.064 0-71.207-3.234-76.797-8.824m-108.068-20.536c-5.975-9.671 2.5-36.825 11.494-36.825 8.922 0 8.933 34.619.015 40.132-3.765 2.326-8.944.839-11.506-3.307Zm-31.654-79.552c-13.061-63.245-15.398-60.225 46.586-60.225 52.59 0 55.025.727 47.768 14.286-5.35 9.997-17.023 14.965-38.868 16.546-28.473 2.061-31.032 3.878-29.095 20.646 2.606 22.542-4.037 51.474-11.822 51.474-3.158 0-9.714-19.225-14.569-42.727m692.266-12.425-27.659-33.093h-97.719c-53.745 0-97.719-1.519-97.719-3.372 0-1.857 13.712-21.711 30.473-44.122l30.476-40.75h87.699c86.097 0 88.328.421 122.115 23.084 43.156 28.946 52.801 40.899 52.801 65.426 0 21.325-13.102 35.687-49.272 53.999l-23.535 11.921Zm-281.432-30.505c53.949-63.969 117.165-150.225 117.165-159.877 0-12.135 25.457-16.845 32.188-5.957 6.509 10.536-127.272 174.076-144.68 176.867-15.009 2.402-15.343 1.617-4.673-11.033m-283.613-2.588c2.5-4.044 12.818-7.352 22.928-7.352 10.383 0 16.408 3.198 13.839 7.352-2.501 4.045-12.818 7.356-22.928 7.356-10.383 0-16.408-3.202-13.839-7.356m66.182 0c2.5-4.044 14.474-7.352 26.605-7.352 12.836 0 20.162 3.075 17.517 7.352-2.5 4.045-14.471 7.356-26.606 7.356-12.836 0-20.158-3.078-17.516-7.356m69.863 0c0-4.044 9.924-7.352 22.059-7.352 12.134 0 22.063 3.308 22.063 7.352s-9.929 7.356-22.063 7.356c-12.135 0-22.059-3.311-22.059-7.356m69.859 0c2.5-4.044 14.471-7.352 26.605-7.352 12.836 0 20.163 3.075 17.517 7.352-2.5 4.045-14.471 7.356-26.606 7.356-12.835 0-20.162-3.078-17.516-7.356M0 191.088V161.67h202.662c133.236 0 201.103-2.519 198.116-7.352-2.835-4.59-74.838-7.356-191.629-7.356-118.833 0-187.086-2.66-187.086-7.293 0-4.012 12.407-13.12 27.576-20.235 23.749-11.143 27.892-16.765 29.858-40.503l2.282-27.565H249.59l16.764 29.226 16.765 29.226 124.709 2.028 124.706 2.027 16.205 53.314 16.208 53.316H0Zm215.164-91.922c-.974-4.045-23.313-8.333-49.639-9.529-44.043-2.002-56.104 2.515-42.651 15.969 7.992 7.991 94.314 1.966 92.29-6.44m1512.967 47.96c-65.019-40.681-72.952-43.733-114.454-43.999l-44.591-.287 3.256-45.961c3.496-49.334 8.649-56.704 39.779-56.878 15.024-.084 22.983 5.589 31.825 22.688 8.98 17.364 26.471 29.582 73.38 51.256 57.26 26.453 62.083 30.414 68.515 56.253 10.357 41.593 14.584 60.901 13.301 60.763-.636-.069-32.587-19.795-71.011-43.835M1625.179 39.9c0-5.829-4.964-10.597-11.033-10.597-11.074 0-15.115 15.525-6.327 24.313 6.864 6.864 17.36-1.429 17.36-13.716M556.432 90.586c-9.743-9.743-4.579-22.881 10.547-26.838 8.504-2.225 13.268-7.567 10.597-11.888-3.322-5.375 19.708-7.849 73.028-7.849 62.442 0 78.716 2.187 82.11 11.033 2.33 6.065 8.948 11.029 14.708 11.029 5.764 0 12.381-4.964 14.707-11.029 5.702-14.86 51.391-14.631 59.746.298 6.483 11.582 31.159 7.813 31.159-4.765 0-3.612 32.74-6.566 72.752-6.566 57.881 0 73.613 2.256 76.982 11.033 5.484 14.293 33.318 14.293 38.806 0 4.753-12.389 54.134-15.743 54.134-3.678 0 9.565 27.18 9.565 33.093 0 2.555-4.136 37.806-7.355 80.525-7.355 75.285 0 76.027.174 80.686 18.723 2.584 10.299 2.747 21.881.363 25.737-4.92 7.962-726.016 10.037-733.943 2.115"/></svg>