<svg xmlns="http://www.w3.org/2000/svg" width="3959.302" height="1000" viewBox="0 0 3959.302 1000"><path d="M1891.473 498.062 2058.14 500l7.751 13.566 29.07 19.38 5.814 1.938h52.326l29.07-9.69 34.883-15.504 11.628-9.69 21.318-1.938h19.38l1.938 9.69-3.876 27.132v54.263l5.814 34.884 9.69 31.008 15.504 32.945 15.503 25.194 5.814 5.814 63.954 1.938 15.504 11.628 17.442 13.566 31.007 17.442 32.946 13.566 32.946 7.752 13.566 1.938h38.759l31.008-5.814 29.07-9.69 31.008-15.504 21.318-11.628 15.503-13.566 3.876-1.938h60.078l9.69-3.876 17.442-23.256 15.504-27.131 15.503-46.512 5.814-31.008 1.938-31.008 1.938-1.938 329.458-1.937 54.263-15.504 9.69-1.938-3.876 9.69-3.876 7.752 1.938 17.441 7.752 17.442 15.504 27.132 21.318 29.07 23.256 34.883 31.008 44.574L3323.643 750l13.566 13.566 15.504 7.752 5.814 1.938h17.442l27.132-7.752 21.318-9.69 40.697-15.504 75.582-31.008 19.38-7.752 17.441-13.566 11.628-17.441 5.814-15.504v-21.318l-9.69-32.946-25.193-71.705-5.814-9.69 1.938-5.814 11.627 9.69 21.318 52.325 13.566 36.822 7.752 21.318 1.938 23.256-3.876 17.442-13.566 23.255-13.566 13.566-25.193 15.504-40.698 17.442-46.512 19.38-65.891 29.07-40.698 17.442-36.822 19.379-31.007 15.504-42.636 23.256-40.698 19.38-13.566 5.814v-17.442l-11.627-21.318-27.132-36.822-25.194-36.821-25.194-34.884-21.318-32.946-23.256-29.069 1.938-7.752 7.752-13.566v-67.83l-1.938-3.876-9.689-1.938h-112.404l-5.814-1.938-27.131 11.628-15.504 11.628-7.752 9.69-21.318 44.574-21.318 48.449-11.628 31.008-5.814 13.566-1.938 32.946 13.566 7.752 9.69 11.628 1.938 3.875v75.582l-7.752 15.504-21.318 19.38-15.503 13.565-13.566 9.69-17.442 3.876H2441.86l-9.689-3.876-17.442-19.379-17.442-21.318-11.628-7.752-5.814-1.938-34.884-1.938-13.566-11.628-19.379-29.07-25.194-40.698-25.194-38.759-23.256-38.76-21.318-32.946-13.566-23.255-7.752-9.69-9.689-3.876h-25.194l5.814-9.69 11.628-13.566 7.752-21.318v-17.442l-5.814-17.442-7.752-11.628-15.504-13.565-11.628-5.814-9.69-1.938h-19.38l-19.38 7.752-13.566 11.627-9.69 17.442-3.876 11.628-1.938 21.318h-102.713l-9.69 5.814-21.317 17.442-21.318 15.504-11.628 7.752-1.938 48.449-3.876 13.566-1.938 1.938-34.884 1.938h-40.698l-5.813-5.814v-75.581l1.937-3.876h56.202l15.504-3.876 38.76-15.504 17.441-5.814V525.194l-11.627-7.752-38.76-15.504Zm1304.263 116.279-25.193 15.504-3.876 3.876-3.876 31.008-5.814 19.38-13.566 19.379-13.566 9.69v25.194l9.69 19.38 23.256 32.946 23.256 31.007 13.565 17.442 9.69 7.752 9.69-1.938 36.822-17.442 21.318-15.503 11.628-11.628 1.938-5.814v-13.566l-15.504-56.202-7.752-17.442-19.38-31.007-13.566-19.38-17.442-27.132-13.566-15.504Zm-701.55 217.054-19.38 1.938-5.814 3.876-9.69 19.38-25.193 34.884 1.938 11.628 11.627 15.504 3.876 1.938h329.458l15.504-11.628 27.131-27.132v-42.636l-5.814-5.814-32.945-1.938Zm-135.659 21.318-9.69 7.752-1.938 5.814 13.566 11.628 11.628-9.69-1.938-9.69-7.752-5.814ZM532.946 300.388h939.922l23.256 1.938 11.628 7.752 11.628 19.379 19.38 44.574 31.007 65.891 15.504 34.884 7.752 15.504H1451.55l-1.938-5.814 3.876-9.69 3.876-15.504 7.752-3.876 1.938-3.876 1.938-46.511h-77.519l-1.938 29.07 1.938 19.379 7.752 11.628 5.814 17.442-1.938 7.752h-158.915l1.938-13.566 5.814-15.504 7.752-7.752v-48.449h-75.581v48.449l7.751 9.69 7.752 21.318 1.938 5.814h-160.852l-3.876-1.938 5.814-23.256 1.938-5.814 7.752-3.876 1.938-5.814 1.938-44.573h-77.52l-1.938 5.814v38.759l13.566 27.132 3.876 13.566H837.209l-3.876-3.876 7.752-25.194 7.752-5.814v-50.387h-75.581v48.449l7.752 7.752 9.69 23.256v5.814H627.907l3.876-17.442 5.814-13.566 5.814-9.69v-32.945l-1.938-11.628h-73.644l-1.938 5.814v44.573l7.752 3.876 9.69 23.256 1.938 7.752H476.744l-3.876-1.938v-182.17l3.876-3.876Zm48.449-137.597 9.69 3.876 3.876 3.876 29.07 1.938 7.752 3.876-1.938 7.752-19.38 9.689-5.814 1.938H331.395v3.876h269.38l19.38-5.814 21.318-11.627h554.263l1.938 1.938v11.627h315.892l32.946 1.938 27.131 62.016 17.442 40.698 17.442 38.759 23.256 56.202 13.566 25.194 3.876 3.876 9.69 1.938 145.349 1.938 1.938 62.015h-205.427l-23.256-46.512-11.628-29.069-25.193-52.326-19.38-46.512-15.504-17.441-15.504-3.876H482.558l-13.566 3.876-1.938 3.876-1.938 187.984h-42.635l-1.938-5.814v-85.271h-98.838V193.798l17.442-11.627 5.814-5.814 3.876-11.628Zm375.969 83.333-63.953 1.938-1.938 9.69 1.938 7.752 5.814 1.938h187.984l5.814-1.938 1.938-15.504-1.938-1.938-71.705-1.938Zm-325.581 0-75.581 1.938v17.442l7.751 1.938H750l5.814-1.938 1.938-17.442-56.202-1.938Zm695.736 0-98.837 1.938-1.938 1.938v11.628l5.814 5.814h189.923l3.876-1.938v-17.442l-46.512-1.938Zm-941.86 112.403-7.752 3.876v11.628l3.876 3.876h13.566l1.938-13.566-1.938-3.876Zm1236.434 89.147-7.752 7.752 3.876 9.69 3.876 1.938h11.628l3.876-3.876-1.938-11.628-1.938-3.876Zm343.023 184.109h102.713l15.504 21.318 13.566 11.628 19.38 5.814h38.76l29.07 1.938 9.689 5.814 15.504 25.193 42.636 69.768 19.38 31.008 21.318 32.945 19.38 31.008 17.441 23.256 15.504 11.628 34.884 1.938 9.69 5.814 17.442 17.442 13.566 17.441v3.876l15.504 7.752h352.713l13.566-3.876 27.131-21.317 29.07-27.132 5.814-9.69 3.876-9.69 3.876-1.938 5.814 3.876 9.69 27.132v15.504l-17.442 19.379-19.38 17.442-15.504 13.566-21.318 15.504-9.689 3.876h-531.008l-17.442-1.938-29.07-19.38v-3.876L2250 961.24l3.876-7.752-13.566 1.938-27.132 11.628-7.752-7.752-9.69-15.504v-5.814l27.132-15.503 5.814-3.876v-7.752l-17.442 5.814-19.38 9.69-7.751-1.938-15.504-21.318v-3.876l27.131-15.504 9.69-5.814 1.938-7.752-25.193 7.752-17.442 9.69-7.752-3.876-13.566-23.256 15.504-9.69 21.318-13.566v-7.752l-21.318 7.752-19.38 9.69-7.752-1.938-7.752-13.566 1.938-9.69 21.318-11.627 17.442-11.628 1.938-11.628-11.628-23.256-27.132-42.636-7.752-9.69-13.566 1.938-23.256 13.566-17.442 11.628-13.565-9.69-21.318-3.876-118.217-1.938v-50.387l21.318-17.442 25.193-19.38Zm-25.194 46.512-5.813 3.876v9.689l5.813 5.814h13.566l1.938-1.938v-13.565l-1.938-3.876Zm426.357 248.062-5.814 1.938-1.938 11.627 5.814 7.752h9.69l7.752-7.752-1.938-7.751-7.752-5.814Zm-197.674-765.504h269.379l1.938 1.938v60.077l-1.938 1.938-63.953 1.938-19.38 7.752-32.946 21.318-23.255 17.442-32.946 23.256-34.884 25.193-32.946 23.256-27.131 19.38-31.008 21.318-19.38 11.628-7.752 1.938h-195.736V282.946l9.69-1.938h67.829l25.194-3.876 31.008-15.504 56.201-29.07 19.38-13.566 3.876-11.628 1.938-21.317-1.938 1.937-3.876 25.194-7.752 7.752-44.574 25.194-17.441 5.814-19.38-13.566-13.566-3.876-23.256-1.938-304.264-1.938-1.938-1.938v-25.194h300.388l34.884 1.938 15.504 3.876 9.69 3.876 9.689-1.938 31.008-15.504 29.07-15.503 31.008-15.504Zm1137.597 284.883h449.612l1.938 1.938v306.202l-104.651 1.938-38.76 17.442-87.209 36.822-56.202 25.193-15.504 7.752-25.193 21.318-25.194 17.442-44.574 23.256-27.132 13.566-46.511 21.317-31.008 15.504-29.07 9.69-17.442-1.938-11.628-7.752-7.752-15.504 7.752-38.759 36.822-19.38 32.946-15.504 44.574-25.194 44.573-21.318 31.008-15.503 77.519-32.946 38.76-17.442 38.76-15.504 32.945-15.504 15.504-11.628 15.504-21.318 7.752-17.441v-40.698l-11.628-34.884-19.38-48.449-11.628-27.132-9.689-9.69L3521.318 500h-46.512l-122.093 13.566h-21.318l-11.628-25.194-13.565-36.822Zm34.883 17.442-7.752 7.752 1.938 9.69 7.752 5.814 9.69-3.876 3.876-3.876-1.938-11.628-5.814-3.876Zm275.194 1.938-7.752 5.814v19.38l9.69 48.45 19.38 77.519 9.69 23.256 15.504 15.504 17.442 5.814h54.263v-75.582l-5.814-1.938h-25.194l-11.628-5.814-9.689-9.69-3.876-9.689v-15.504l7.752-15.504 11.627-9.69 23.256-3.876 13.566-3.876-1.938-34.884-7.752-9.69Zm89.147 65.892-11.628 13.566 1.938 13.566 5.814 9.689 15.504 3.876 13.566-7.752 5.814-11.627-3.876-13.566-9.69-7.752Zm-85.271 191.86-205.426 94.961-32.946 15.504-7.752 3.876 1.938 11.628h9.69l23.256-11.628 23.256-9.69 52.325-25.193 52.326-23.256 42.635-21.318 40.698-17.442 7.752-5.814-1.938-11.628Zm-298.45 135.659-5.814 5.814 1.938 11.628 9.69 5.814 11.628-5.814 1.938-9.69-5.814-7.752ZM2031.008 116.279h52.325l7.752 9.69 5.814 7.752h13.566l13.566-17.442h58.14l5.813 5.814 7.752 11.628h11.628l11.628-15.504 3.876-1.938h62.016l5.814 5.814 5.814 11.628h11.628l5.813-5.814 5.814-9.69 3.876-1.938h60.078l5.814 5.814 3.876 11.628h17.442l9.69-15.504 3.876-1.938h52.325l1.938 9.69v31.008l-15.504 31.007-1.938 11.628 5.814 11.628 7.752 3.876 32.946 1.938 1.938 19.38h93.023l7.752-1.938 1.938-17.442h96.899l17.442 5.814 31.008 25.194 25.194 19.38 25.194 21.318 27.131 21.318 21.318 15.503 9.69 3.876 17.442 1.938 102.713 1.938 1.938 1.938 1.938 15.504 60.078 1.938 3.876 31.008 13.565 19.38v3.876h-89.147l-9.69 7.752-19.38 27.131-5.814 9.69-5.814 1.938h-73.643l-60.077-1.938-9.69-15.503-15.504-27.132-25.194-32.946-21.318-21.318-27.132-21.318-40.697-23.255-40.698-17.442-15.504-27.132-7.752-3.876-19.38-3.876-1.938-5.814h-65.891l-3.876 7.752-19.38 3.876-9.69 9.69-11.628 19.38-19.38 7.752h-3.876V151.163h-414.728l-1.938-1.938v-31.008Zm784.883 244.186-11.627 5.814v48.45l5.814 5.814h32.945l7.752-5.814v-44.574l-7.752-9.69ZM94.961 267.442h215.117l1.938 1.938v149.225l-1.938 1.938-25.194 3.876-17.442 9.69-13.566 19.379-17.442 32.946-19.38 32.946-9.69 19.38-15.504 5.814-17.441 3.876-25.194 1.938-17.442 5.814-3.876 9.689-3.876 11.628 1.938 15.504 7.752 13.566 11.628 5.814h19.38l25.193-15.504 34.884-11.628 15.504-9.69 19.38-31.007 40.698-67.83 5.814-5.814h5.814v160.853H93.023l-1.938-1.938V525.194l15.504-5.814 25.194-9.69h3.876l-1.938-137.597-17.442-5.814-19.38-9.69-1.938-5.814Zm2290.698-38.76h42.636l11.627 1.938v73.644l-31.007 15.503-31.008 19.38-27.132 23.256-17.442 17.442-21.317 29.07-13.566 21.318-19.38 48.449-5.814 11.628h-459.303v-62.015l67.83-1.938 17.442-1.938 9.69-9.69 5.814-9.69 195.736-1.938 21.318-7.752 42.636-29.07 29.069-21.318 32.946-23.256 36.822-27.131 17.442-11.628 29.069-21.318 34.884-23.256 17.442-7.752Zm19.38 48.45-5.814 3.876-1.938 7.752 9.69 9.69 9.69-1.938 3.876-11.628-7.752-7.752Zm-478.682 172.48-63.954 1.938-1.938 9.69 1.938 3.876h244.186V451.55l-60.077-1.938Zm205.426 0-3.876 9.69 1.938 5.814H2250l1.938-1.938v-9.69L2250 451.55l-48.45-1.938ZM3269.38 215.116l56.201 11.628 27.132 5.814 17.442 1.938 323.643 1.938 3.876 11.628-1.938 9.69-29.069 9.69-81.396 21.318-13.566 5.814v15.504l15.504 50.387 3.876 15.504h-48.449l-7.752-15.504-17.442-52.325-7.752-17.442-11.628-1.938 21.318 58.139 7.752 19.38v9.69l-19.38 1.938-7.752-15.504-23.256-63.953-5.814-9.69-9.69-1.938 11.628 32.945 17.442 48.45v9.69h-17.442l-7.752-11.628-21.318-58.139-5.814-17.442-11.627-1.938 5.814 19.38 23.255 63.953v3.876l-58.139 3.876-48.45 9.69-63.953 15.504-19.38 1.938h-186.047l-11.628-9.69-11.627-19.38v-25.194l211.24-1.938V220.93ZM3317.829 250l-3.876 1.938-1.937 13.566 3.875 5.814h13.566l3.876-13.566-3.876-5.814Zm-815.891-112.403h269.38l11.628 7.752 17.442 17.442 15.503 13.566 13.566 13.565 27.132 21.318 19.38 9.69 13.566 1.938 112.403 1.938 1.938 71.706 1.938 11.628 11.628 3.876 19.38-1.938 5.814-5.814 3.876-25.194 184.108-1.938 1.938-1.938 1.938-63.954 9.69-1.938 17.442 3.876 1.938 21.318v110.465l-1.938 1.938-44.574 1.938H3000l-7.752-3.876-1.938-52.325-110.465-1.938-13.566-5.814-25.194-21.318-54.263-46.512-21.318-17.442-19.38-13.565-21.318-7.752-38.759-1.938h-69.768l-5.814-3.876v-9.69H2509.69l-1.938 48.449h-34.884l-7.752-5.814v-15.504l11.628-21.317 17.442-23.256Zm-949.612 58.139h40.697l7.752 7.752 21.318 52.326 11.628 23.256 170.543 1.938 1.938 25.194v100.775l-1.938 15.504h-151.163l-7.752-7.752-13.566-27.132-21.318-50.388-21.318-48.449-15.504-34.884-9.69-25.194-11.627-27.132Zm102.713 108.528-5.814 3.876v11.627l3.876 5.814h9.69l5.814-5.814-1.938-11.627-3.876-3.876Zm887.597 104.651 38.759 3.876 23.256 7.752 29.07 15.504 25.194 23.255 13.566 15.504 13.566 27.132 9.689 29.07 1.938 9.69v36.821l-5.814 29.07-9.689 23.256-13.566 23.256-15.504 17.442-27.132 21.317-27.132 13.566-38.759 7.752h-27.132l-40.698-7.752-19.38-7.752-31.008-23.255-15.503-13.566-17.442-31.008-9.69-19.38-5.814-21.318-1.938-23.256v-21.317l5.814-25.194 13.566-32.946 15.504-21.318 25.193-25.194 25.194-15.503 25.194-9.69Zm1.938 13.566-9.69 15.503-3.876 5.814-38.76 13.566-17.442 9.69-17.442 17.442-17.442 23.256-9.689 27.132-3.876 17.442v19.379l5.814 25.194v13.566l-7.752 9.69v9.69l9.69 1.938h15.503l23.256 23.256 21.318 13.566 25.194 7.752 13.566 1.938h23.256l29.069-5.814 27.132-13.566 15.504-11.628 11.628-13.566h29.07l-1.938-9.69-7.752-9.69-1.938-13.566 5.814-27.132V548.45l-7.752-29.07-9.69-19.38-15.504-19.38-17.442-15.504-27.132-13.566-25.193-7.752h-3.876l-3.876-17.441Zm908.914-42.636h139.535l19.38 56.202v5.813l-300.387 1.938-29.07 5.814-19.38 1.938h-184.109l-1.938-7.752v-31.007l1.938-1.938h158.915l38.76-1.938 31.008-5.814 69.767-17.442 29.07-3.876Zm-406.976-195.736h226.744l44.573 9.689h13.566l5.814-3.876 11.628-1.938h77.52l23.255 1.938h102.714l52.325 5.814 17.442-1.938h56.202l50.387 3.876 27.132 3.876 1.938 1.938v27.132l-1.938 1.938h-358.527l-40.698-1.938-79.457-17.442-27.132-5.814-19.38-3.876-184.108-1.938Zm-513.566 271.317h25.194l27.131 5.814 23.256 13.566 17.442 15.504 15.504 23.256 7.752 21.318 1.938 11.628v32.945l-9.69 32.946-15.504 21.318-19.38 17.442-27.132 13.566-21.317 3.876h-25.194l-27.132-5.814-25.194-13.566-19.38-19.38-13.566-21.318-7.752-21.318-1.938-13.566v-23.255l3.876-19.38 7.752-17.442 13.566-21.318 9.69-11.628 21.318-13.566 17.442-7.752Zm-5.814 42.636-17.442 7.752-11.628 9.69-11.628 17.442-5.814 15.504v27.131l7.752 19.38 17.442 19.38 9.69 7.752 15.504 3.876h29.07l17.441-5.814 15.504-11.628 13.566-21.318 3.876-17.442v-17.441l-7.752-21.318-11.628-17.442-17.442-11.628-13.565-3.876ZM2594.961 0h98.837l7.752 9.69 19.38 42.636 7.752 19.379 13.566 3.876v48.45l-1.938 7.752h-81.395l-1.938-65.892h-42.636l-1.938 65.892-106.589 1.938-9.69 3.876-13.566 11.628-1.938-1.938V75.581l1.938-1.938 27.132-1.938 56.201-15.503 9.69-13.566 17.442-40.698Zm1273.256 199.612h25.194l54.263 1.938 9.69 7.752 1.938 7.752v23.256l-46.511 29.07-13.566 9.69-1.938 372.093 9.69 11.628 21.318 17.442 3.876 3.876v36.821l-5.814 9.69-17.442 17.442-25.194 3.876h-15.504l-1.938-1.938V201.55Zm-672.481 420.543h7.752l25.194 36.822 36.822 56.201 11.628 34.884 7.752 31.008v17.442l-9.69 11.628-40.698 25.193-15.504 7.752h-9.69l-13.566-13.566-15.503-23.255-27.132-36.822-15.504-25.194-5.814-19.38 5.814-9.69 15.504-13.566 9.69-17.441 5.814-23.256 1.938-19.38 9.69-9.69Zm571.706-383.721h32.946l3.876 1.938 1.938 141.473v368.217l-1.938 3.876-5.814 1.938h-31.008l-1.938-1.938V319.767l17.442-5.814 3.876-5.813v-25.194l-1.938-7.752-19.38-5.814v-31.008Zm-65.892 0h54.264l1.938 1.938v31.008l-1.938 1.938-31.008 1.938-9.69 3.876-1.938 7.752v21.318l1.938 7.751 7.752 1.938 32.946 1.938 1.938 1.938v120.155l-1.938 1.938h-21.318l-1.938-1.938-1.938-71.705-1.938-3.876h-104.651l-3.876 1.938 3.876 21.318 15.504 48.45v5.813h-21.318l-5.814-11.627-23.256-73.644-15.504-52.325 1.938-9.69 40.698-11.628 75.581-19.38 5.814-1.938 1.938-23.256ZM3949.612 250h3.876v176.357l-3.876 56.201-15.503 135.659-5.814 52.326-3.876 1.938-15.504-13.566-7.752-7.752-1.938-356.589 3.876-13.566 19.38-13.566ZM1837.209 500h3.876l1.938 7.752v131.783h-9.69l-1.938-9.69-129.845 1.938v5.814h-5.814V503.876h5.814l1.938 3.876 5.814 1.938h122.093l3.876-7.752Zm1457.365-50.388h7.752L3321.705 500l5.814 11.628v3.876l-50.387 7.752-54.264 15.504-44.573 9.69-27.132 5.814h-118.217l-1.938-1.938 1.938-21.318 19.38-27.132 23.255-32.946 3.876-13.566 34.884-1.938H3250l32.946-1.938Zm-170.543 15.504-19.38 9.69-13.566 15.504-5.814 15.504v21.318l7.752 15.504 1.938 1.938h9.69l13.566-9.69 11.628 1.938 9.69 1.938 11.628-7.752 5.814-5.814 25.194-1.938 7.751-5.814-1.938-13.566-9.689-19.38-15.504-13.566-13.566-5.814ZM1331.395 116.279h54.264l11.628 17.442h11.628l13.566-17.442h62.015l7.752 9.69 1.938 7.752h17.442l11.628-17.442h60.077l7.752 9.69 5.814 7.752h13.566l9.69-15.504 3.876-1.938h60.078l7.751 7.752 3.876 7.752 13.566 1.938 11.628-15.504 3.876-1.938h58.14l13.566 17.442h11.628l9.689-11.628 5.814-5.814h54.264l1.938 1.938v31.008l-1.938 1.938h-240.31l-308.14-1.938v-31.008Zm364.341 118.217h296.512l32.946 3.876 19.38 7.752 7.752 5.814-3.876 7.752-31.008 15.504-13.566 1.938h-308.14l-1.938-3.876v-36.822Zm1941.861 234.496 85.271 1.938 5.814 9.69 1.938 23.256-9.69 3.876-23.256 3.876-15.503 9.69-7.752 15.504-1.938 19.38 5.814 15.503 9.689 9.69 17.442 5.814 25.194 1.938v67.83h-46.511l-17.442-5.814-15.504-15.504-7.752-19.38L3614.341 500l-1.938-27.132 1.938-1.938Zm-1951.55 182.171h118.217l1.938 83.333-3.876 1.938h-106.59l-11.627-5.814-34.884-27.132-32.946-25.193-5.814-7.752-1.938-15.504 1.938-1.938Zm127.906-370.155h96.9l1.938 1.938v118.217l-5.814 13.566-5.814 5.814-5.814 1.938h-81.396v-31.008l9.69-3.876-1.938-60.078-7.752-5.814-1.937-15.503v-23.256ZM321.705 490.31h91.086l3.876 3.876v106.589l-1.938 27.132-91.086 1.938-3.876-11.628V511.628Zm69.768-441.86h54.263l15.504 9.69 9.69 11.627 11.628 15.504L500 98.837l19.38 15.504 27.132 19.38 21.317 15.504 11.628 9.69v1.938h-77.519l-9.69-9.69-13.566-9.69-63.953-1.938v19.38l-5.814 1.938h-56.202l-1.938-7.752 7.752-21.318h32.946Zm812.015 112.403h432.171l-3.876 7.752-9.69 9.69-9.69 13.565-313.953 1.938-94.962-1.938-1.938-3.876v-25.193Zm38.76 5.814-3.876 1.938v11.628l1.938 1.938h13.566l1.938-1.938v-9.69l-5.814-3.876Zm50.388 0-3.876 1.938v11.628l1.938 1.938h15.504l1.938-9.69-7.752-5.814Zm1765.504 40.697h137.596l32.946 1.938v60.078l-1.938 1.938H3048.45l-1.938-29.07v-17.442l1.938-15.504Zm-629.845 498.062 15.503 7.752 29.07 15.504 25.194 9.69 19.38 3.876h56.201l29.07-7.752 31.008-13.566 19.38-11.628 5.814-3.876 7.752 1.938 7.752 9.69 7.752 7.752v7.752l-19.38 13.566-44.574 21.318-25.194 7.752-19.38 3.876h-56.201l-38.76-9.69-31.008-13.566-23.255-11.628-15.504-13.566 3.876-7.752Zm77.519-412.79h7.752v17.442L2500 315.891l-40.698 11.628-25.193 9.69-21.318 11.628-21.318 15.504-25.194 23.256-17.442 17.442-19.38 29.07-21.317 44.573-7.752 25.194-3.876 27.132v62.015l5.814 34.884 5.814 15.504v7.752l-11.628 7.752-5.814-1.938-11.628-38.76-5.814-38.76v-34.883l5.814-38.76 9.69-34.884 15.504-36.821 15.503-23.256 15.504-21.318 17.442-19.38 21.318-19.38 23.256-17.442 48.449-25.193 31.008-9.69Zm-653.101 205.426 23.256 3.876 54.264 23.256 3.876 5.814v89.147l-23.256 9.69-29.07 11.628-11.628 1.938h-17.442l-1.938-1.938v-32.946l1.938-3.876 50.388-1.938v-5.814l-50.388-1.938-1.938-1.938v-40.697l1.938-1.938 48.45-1.938 1.938-7.752h-50.388l-1.938-1.938v-27.132ZM1610.465 500h77.519v141.473l-25.193 1.938h-52.326l-1.938-5.814v-27.132l23.256-5.814 1.938-1.938v-69.767l-23.256-3.876-1.938-1.938v-25.194ZM31.008 298.45h58.139l1.938 1.938v60.077l11.628 3.876 27.132 11.628 1.938 3.876v36.822l-1.938 1.938H32.946l-1.938-1.938Zm2552.325-5.814 40.698 7.752 31.008 13.565 27.132 13.566 27.131 17.442 23.256 21.318 3.876 1.938v3.876l7.752 3.876 13.566 15.504 23.256 34.884 17.442 32.945 9.69 32.946 7.751 42.636v48.449l-5.813 38.76-9.69 36.822-3.876 1.938-15.504-11.628 1.938-7.752 9.69-34.884 3.876-44.573-1.938-31.008-9.69-44.574-15.504-36.822-17.442-31.007-23.256-27.132-21.318-21.318-32.945-23.256-36.822-17.442-54.264-15.504ZM468.992 538.76h27.132l1.938 93.023 11.628 1.938h27.132v-93.023l1.938-1.938h25.193l1.938 1.938v75.581l-1.938 56.202-1.937 1.938H470.93l-1.938-1.938Zm1996.124-178.295 9.69 1.938 7.752 21.318-1.938 5.814-40.698 23.256-15.503 11.628h-3.876l-3.876 7.752-9.69 7.751-17.442 25.194-11.628 23.256-9.69 27.132-3.876 21.318-1.938 40.697-1.938 7.752-27.132 5.814-3.876-1.938-1.938-15.504v-21.317l5.814-40.698 7.752-27.132 15.504-31.008 17.442-25.193 21.318-23.256 19.38-17.442 21.318-13.566Zm156.977 0 11.628 3.876 36.822 19.38 29.069 25.194 15.504 15.504 25.194 40.697 13.566 32.946 7.752 31.008 1.938 21.318v32.945l-3.876 7.752-19.38-1.938-11.628-3.876-1.938-38.759-7.752-46.512-19.38-36.822-17.441-23.256-17.442-17.441-36.822-23.256-15.504-9.69 1.938-9.69ZM1215.116 538.76h25.194l1.938 5.814v87.209l25.194 1.938h13.566l1.938-94.961h25.194v133.721l-1.938 1.938h-91.086l-1.938-32.946V540.698Zm-187.984 0h27.132l1.938 9.69v85.271h40.697V538.76h25.194v133.721l-1.938 1.938h-91.085l-1.938-1.938Zm-370.155 0h25.194v93.023l29.069 1.938h11.628v-93.023l1.938-1.938H750l1.938 1.938v46.511L750 674.419h-93.023l-1.938-54.264v-79.457Zm186.046 0h23.256l1.938 1.938v91.085l13.566 1.938h27.132l-1.938-93.023 1.938-1.938h27.132v133.721l-1.938 1.938h-91.086l-1.938-85.272v-48.449Zm558.14 0h23.256l1.938 5.814v87.209l13.565 1.938h25.194V538.76h27.132l1.938 1.938-1.938 133.721h-91.085Zm1544.573-81.396h129.845l-3.876 11.628-15.503 23.256-25.194 34.884-1.938 21.318v5.814l-79.458 1.938-3.876-1.938v-27.132l3.876-1.938 23.256-1.938 5.814-9.69v-27.132l-3.876-7.752-29.07-3.876-1.938-1.938V461.24ZM308.14 428.295l3.876 1.938v29.069l-11.628 7.752h-3.876l-3.876 7.752-19.38 32.946-27.132 46.512-13.566 17.441-15.504 9.69-48.449 15.504-17.442 1.938-9.69-9.69v-15.504l9.69-9.69 50.387-15.503 11.628-7.752 25.194-44.574L250 476.744l9.69-19.38 15.504-19.38 13.566-7.751ZM94.961 224.806h215.117l1.938 1.938v34.884H94.961Zm2591.086-44.573h29.069l17.442 3.876 21.318 11.627 29.07 25.194 21.318 17.442 27.131 23.256 21.318 17.442 13.566 9.69 27.132 5.814v32.945l-1.938 1.938-21.318-1.938-17.442-7.752-19.38-17.441-19.38-15.504-25.193-21.318-25.194-19.38-29.07-23.256-9.69-5.814-9.69-1.938-31.007-1.938v-31.007Zm1000 186.046h34.883l5.814 1.938 1.938 7.752v63.953l-1.938 1.938h-79.457l-3.876-1.938-19.38-63.953v-7.752Zm-937.985-253.876h81.395l11.628 7.752 29.07 25.194 15.504 13.566 11.628 9.69 60.077 1.938 9.69 5.814 17.442 19.379 17.442 5.814v15.504l-1.938 1.938h-96.899l-1.938-7.752v-11.628l-13.566-15.503-21.318-17.442-23.256-21.318-11.628-9.69-3.876-1.938-79.457-1.938-1.938-1.938v-15.504Zm180.233 75.581 1.938 9.69 1.938 1.938h32.945l-3.876-9.69-3.876-1.938ZM329.457 406.977h81.396l1.938 1.938v73.643h-89.148l-1.938-5.814v-63.953l1.938-3.876Zm2187.985-242.248h83.333l5.814 1.938 1.938 3.876v58.139l-3.876 3.876h-89.147l-3.876-1.938-1.938-15.504 1.938-48.449Zm-631.783-62.016h137.597l3.876 7.752-1.938 38.76-1.938 1.938h-135.659l-3.876-1.938v-44.574Zm21.318 17.442-1.938 1.938v15.504l3.876 1.938h11.628l3.876-5.814v-9.69l-5.814-3.876Zm79.457 0-3.876 1.938v13.566l3.876 3.876h11.628l3.876-5.814v-9.69l-5.814-3.876Zm990.31 474.806h54.264l1.938 67.83 7.752 13.566 17.442 11.627 17.441 17.442 1.938 5.814-7.752 1.938-75.581-1.938-1.938-5.814 5.814-11.628v-60.077l-9.69-9.69-11.628-13.566ZM1604.651 197.674h81.396v77.52l-1.938 1.938h-44.574l-7.752-7.752-15.504-34.884-11.628-29.07Zm-377.907-93.023h98.837l1.938 19.38v25.194H1201.55l1.938-7.752 17.442-31.008ZM2521.318 259.69h48.449l3.876 3.876v85.271h-52.325l-1.938-1.938v-85.271Zm-408.915 457.364 7.752 3.876 19.38 32.946 15.504 25.194 3.876 7.752-1.938 9.69-31.008 19.379-7.752 3.876-11.628-17.441-25.194-42.636-7.752-11.628 1.938-7.752 27.132-17.442Zm866.279-306.201h93.023l1.938 1.938v36.821l-1.938 1.938h-122.093l7.752-15.503 15.504-19.38Zm-889.535 87.209h133.721l-3.876 7.752-62.015 25.194-17.442 1.938-7.752-1.938-27.132 1.938-19.38-11.628-17.442-13.566-3.876-7.752Zm263.566 96.899h11.628l5.814 17.442 13.566 38.76 17.442 21.318 17.442 19.379 5.814 7.752-3.876 7.752-11.628 9.69-5.814 5.814-7.752-1.938-17.442-15.504-5.814-7.752 1.938-7.752 5.814-1.938-1.938-13.565-25.194-40.698-3.876-5.814-9.69 1.938-5.814-19.38v-13.566Zm374.031 0 21.318 1.938 11.628 3.876-3.876 19.38-5.814 9.69h-9.69l-19.38 32.946-11.628 17.442 1.938 7.751 7.752 5.814-1.938 7.752-15.504 13.566-9.69 7.752-11.627-9.69-9.69-9.69-1.938-7.752 13.566-13.565 15.503-19.38 11.628-17.442 11.628-34.884 3.876-13.566Zm56.202-457.364h40.697l13.566 7.752 17.442 17.442 21.318 17.442 19.38 17.441 3.876 7.752-1.938 11.628-3.876 1.938-19.38-1.938-19.38-11.628-23.256-21.317-13.566-13.566-15.503-13.566-19.38-17.442Zm23.256 317.829h44.573l1.938 1.938v96.9l-23.256 1.938-3.876-1.938-1.938-5.814-3.876-36.822-9.689-36.822-3.876-11.628ZM321.705 635.659l93.024 1.938v34.884l-5.814 1.938h-85.272l-1.938-1.938Zm2182.171-286.822h7.752l1.938 7.752h65.891l1.938-7.752 13.566 1.938 21.318 5.814-3.876 11.628-7.752 17.442-19.38-1.938-19.38-3.876-23.255-1.938-31.008 3.876-13.566 3.876h-7.752l-9.69-25.194v-5.814ZM687.984 538.76h31.008l1.938 1.938v87.209l-3.876 1.938h-29.07l-1.937-1.938v-87.209Zm2056.202 100.775 11.628 3.876 34.884 21.318 1.938 9.69-15.504 25.193-7.752 11.628-11.628-1.938-31.008-17.442-7.752-5.813 1.938-9.69 19.38-34.884Zm-403.101-1.938 7.752 3.876 21.318 34.884 1.938 7.752-21.318 13.565-23.256 13.566-7.752-1.938-23.255-38.759 3.876-7.752 21.317-11.628 17.442-11.628Zm558.14-343.023h87.209l1.938 5.814v27.131l-1.938 1.938h-85.271l-1.938-1.938ZM1060.078 538.76h31.007v89.147l-1.938 1.938h-27.131l-1.938-1.938Zm-187.985 0h29.07l1.938 1.938v87.209l-1.938 1.938h-27.132l-1.938-1.938Zm558.14 0h29.069l1.938 1.938v87.209l-3.876 1.938h-25.193l-1.938-1.938Zm-182.171 0h29.07v89.147l-3.876 1.938H1250l-3.876-1.938v-87.209Zm-746.124 0h29.07l1.938 1.938v85.271l-3.876 3.876h-23.256l-3.876-1.938Zm2509.69-339.148h23.256l1.938 1.938v94.962l-3.876 5.814-11.628 1.938-9.69-3.876Zm-1798.45 298.45h31.008l5.814 13.566 23.256 1.938 1.938-13.566 31.008-1.938 3.876 7.752-1.938 23.256h-94.962Zm-742.248 0L501.938 500l3.876 11.628 21.318 1.938L531.008 500h32.945l1.938 1.938v25.194l-1.938 1.938h-94.961V500Zm511.628-85.271h62.016l1.938 1.938v34.883l-1.938 1.938-56.202 1.938-5.814-3.876Zm-406.977 0h62.016v38.759h-62.016l-1.938-3.876v-32.945Zm205.427 0h62.015v38.759l-58.139 1.938-3.876-1.938-1.938-9.69v-25.193Zm410.852 0h60.078l1.938 1.938v34.883l-1.938 1.938-52.326 1.938-7.752-1.938-1.938-9.69v-25.193Zm-451.55 85.271L751.938 500v29.07h-96.899v-27.132l1.938-1.938h29.07l1.937 1.938v11.628h27.132L717.054 500Zm662.791 0h29.07l1.938 13.566 21.317 1.938 3.876-13.566 29.07-1.938 5.814 3.876v25.194l-1.938 1.938h-91.085l-1.938-1.938v-23.256Zm-482.558 0L936.047 500v29.07h-94.962v-27.132l1.938-1.938h31.008l1.938 13.566 21.318-1.938L901.163 500Zm106.589 0 34.884 1.938 1.937 11.628h21.318l5.814-11.628 27.132-1.938 3.876 1.938v29.07h-94.961ZM15.504 298.45h7.752v118.217l-5.814 1.938-9.69-5.814-5.814-5.814L0 368.217v-54.264l11.628-13.565Zm1381.783 114.341h62.015v38.759h-60.077l-1.938-1.938Zm1215.116-232.558h67.83v32.945h-67.83Zm5.814-112.404h32.946l1.938 1.938v62.016h-34.884Zm422.481 527.132h23.255l3.876 1.938v65.892l-7.751 11.628-5.814 3.876-11.628-7.752-3.876-7.752v-65.892Zm775.193-356.589h34.884v60.078l-1.938 1.938-31.008 1.938-1.938-1.938Zm0 217.054 5.814 1.938 19.38 36.822 3.876 9.69-7.752 21.318-15.504 63.953-3.876 3.876-1.938-1.938ZM3730.62 279.07h44.574l7.752 7.752v17.442l-9.69 5.814h-44.574l-7.752-3.876v-23.256Zm-602.713 193.798h15.504l19.38 9.69 11.628 13.566v5.814h-15.504l-11.628-9.69-17.442-1.938-15.504 9.69-3.876 5.814v13.566l1.938 9.69-5.814 5.814-9.69-1.938-1.938-5.814v-23.256l11.628-17.442 15.504-11.628Zm701.55-160.852h13.566l7.752 1.937v46.512h-34.884v-46.512Zm-903.1 170.542 42.635 1.938 3.876 3.876v25.194l-3.876 3.876h-44.573l-1.938-1.938 1.938-31.008Zm906.976-58.139h17.442v71.705l-7.752-3.876-23.256-44.574-1.938-7.752 11.628-13.565Zm-1013.566-54.264h17.442l5.814 3.876v36.822l-3.876 1.938h-25.194l-1.937-3.876v-34.884Zm947.675-168.605 34.884 1.938 3.876 7.752v19.38l-1.938 1.938h-36.822l-1.938-1.938v-27.132ZM2158.915 591.085l9.69 5.814v9.69h-83.334l1.938-9.69 3.876-3.876Zm-71.706 27.132h81.396l1.938 5.814-3.876 5.814-15.504 1.938h-58.14l-7.752-3.876Zm-476.744-79.457h13.566l1.938 1.938v58.139l-15.504 1.938-1.938-1.938v-58.139ZM418.605 143.411h58.139l13.566 11.628v3.876h-73.643v-11.628Zm168.604 313.953h29.07l9.69 1.938-5.814 27.132-1.938 1.938h-23.256l-5.814-9.69-3.876-9.69v-9.69Zm203.489 0h40.697l1.938 3.876-7.752 25.194-9.69 1.938-17.441-1.938-5.814-17.442Zm616.279 0h40.697l-1.938 15.504-5.814 15.504-25.193-1.938-5.814-15.504-3.876-11.628Zm-205.427 0h32.946l5.814 1.938-1.938 23.256-1.938 3.876h-27.132l-7.752-15.504-1.938-11.628Zm1658.915 23.256h27.132v38.76h-25.194l-1.938-1.938ZM994.186 457.364h36.822l3.876 1.938-1.938 13.566-7.752 15.504-23.256-1.938-3.876-5.814-3.876-15.504Zm585.271-360.465h48.45v7.752l-13.566 9.69-7.752 13.566h-5.814l-9.69-15.504-11.628-9.69Zm-98.837 0h46.512l1.938 5.814-5.814 5.814-7.752 3.876-9.69 15.504H1500l-7.752-15.504-13.566-11.628Zm598.837 0h46.512l3.876 1.938-1.938 5.814-15.504 11.628-7.752 11.628-5.814-1.938-5.814-11.628-13.566-11.628ZM124.031 486.434h7.752v17.442l-9.69 5.814-23.256 9.69h-5.814v-17.442l3.876-5.814ZM2180.233 96.899h46.511v7.752l-13.566 7.752-5.814 13.566h-7.752l-7.752-13.566v-3.876l-9.689-1.938Zm-399.225 0h44.573l1.938 7.752-11.628 5.814h-3.875l-1.938 11.628-5.814 5.814-7.752-3.876-3.876-11.628-11.628-7.752Zm598.837 0h44.574l1.938 7.752-9.69 5.814h-3.876l-1.938 13.566-7.752 3.876-5.814-5.814-3.876-9.69-13.566-7.752Zm-699.612 0h46.511l3.876 1.938v3.876l-17.442 11.628-7.752 13.566h-3.876l-7.752-15.504-11.627-5.814Zm600.775 0h44.573v7.752l-9.69 5.814h-3.875l-1.938 11.628-7.752 5.814-5.814-3.876-3.876-13.566-9.69-1.938-3.876-9.69Zm-901.163 0h46.512v9.69l-11.628 5.814-7.752 11.628-7.752 1.938-3.876-9.69v-5.814l-13.566-3.876ZM2500 263.566h11.628l1.938 19.38-5.814 3.876-19.38 3.876h-11.628l1.938-7.752 11.628-15.504Zm83.333 0 15.504 1.938 13.566 11.628 5.814 13.566-32.946-1.938-1.938-1.938Zm315.892 218.992 13.566 1.938v32.946h-15.504l-3.876-3.876v-25.194Zm-796.512 156.977h52.326v5.814l-11.628 7.752-7.752 1.938h-21.318l-11.628-7.752Zm393.411 73.643 11.628 1.938 11.628 3.876 1.938 9.69-3.876 5.814h-9.69l-15.504-5.814-1.938-7.752Zm-375.969-141.473h15.504l15.504 5.814 1.938 5.814h-50.388l1.938-5.814Zm414.729-186.046h19.38l5.814 3.876-1.938 11.628-3.876 1.938h-19.38l-3.876-3.876v-9.69Zm50.387 329.457 7.752 3.876-1.938 9.69-11.628 5.814h-15.504l-1.937-7.752 3.875-7.752Zm114.341-220.93 9.69 1.938 7.752 19.38-3.876 7.752h-9.69l-7.752-15.504v-11.628Zm-11.628 137.597 13.566 1.938v11.628l-9.69 13.566-9.689-1.938-1.938-1.938v-11.628Zm-253.875 50.388 9.689 1.938 9.69 7.751 1.938 9.69-7.752 5.814-11.627-5.814-5.814-5.814v-11.627Zm275.193-118.218h9.69l1.938 1.938v25.194l-1.938 1.938h-13.566l-1.938-7.752 3.876-19.38Zm-224.806-168.604h3.876l3.876 9.69-1.938 7.752-19.38 5.814-7.752-5.814 3.876-7.752 9.69-5.814Zm-91.085 230.62 7.752 3.876 5.814 11.628v9.69l-11.628 1.938-5.814-5.814-3.876-7.752 1.938-9.69Zm250 60.078 9.69 1.937 3.876 9.69-9.69 7.752-13.566 1.938-5.814-3.876 3.876-7.752Zm-259.69-195.737 11.628 3.876 1.938 7.752-9.69 17.442-9.69-1.938-1.938-5.814 5.814-19.38Zm-11.628 69.768 9.69 1.938 3.876 11.627v11.628l-3.876 3.876-9.69-1.938-1.938-1.938v-23.255Zm230.62-162.791h9.69l11.628 7.752-1.938 9.69-1.938 1.938-17.442-1.938-3.876-7.752Zm62.016 40.697 9.69 1.938 7.752 15.504-1.938 3.876h-13.566l-7.752-7.752 1.938-11.628Zm-240.31-1.937 7.752 1.937 1.938 7.752-11.628 13.566-9.69-1.938-1.938-9.69Z"/></svg>