<svg xmlns="http://www.w3.org/2000/svg" width="2111.122" height="1000" viewBox="0 0 2111.122 1000"><path d="m63.562 211.467-3.246 2.697-7.539 5.382-3.765 2.157c-11.133-.037-22.265.313-33.394.538l-2.157 1.08-3.225 3.774-2.157 4.305-4.305 7.001-.549 3.774 2.167 2.686 4.295 9.696-.53 2.157C5.95 261.925 3.27 267.407.54 272.872l.538 4.305 3.764 6.461 5.394 6.47.528 2.696-3.225 4.305-3.765 6.471-1.626 4.843h-1.07L.54 309.5 0 312.197l4.314 8.069L7 324.58l3.764 5.922-2.145 3.235-4.305 3.774-2.697 3.765.531 1.078h3.244l8.069-1.078 70.561-.541h189.049l.54-.538-1.079-5.932-.538-8.607v-24.246l.538-1.068 4.853-3.775 6.462-3.227 12.382-2.695 19.394-4.314 18.853-4.844 19.383-4.303 5.394-2.157v-2.697l-1.08-.528-9.156-1.078-4.305-2.696-3.235-4.843-.539-3.774 1.077-2.697 3.777-4.305 5.372-2.694 6.462-.531.547-.549v-22.08l-.547-4.314-.53-.53-24.786-1.078-3.765-1.077h-4.303l-5.394 1.619-17.765-.53v2.687c6.112 18.501 11.347 37.28 16.697 56.011l-10.236 1.078h-14.55l-.53-.542-2.695-4.842-11.313-33.934-2.688-9.156-3.234-8.619-2.157-2.687h-4.305v3.227l6.999 23.157 4.314 14.541 3.228 12.931.537 5.382-1.068.542-10.236.537h-10.785l-2.148-.537-2.147-3.235-6.469-19.923-4.314-16.698-3.226-11.313-2.696-6.462-2.688-2.147h-4.314v1.606l1.619 5.931 4.313 16.149 3.766 12.393 4.843 18.315 1.077 5.382-6.999.538H223.52l-2.697-.538-.538-1.608-2.147-5.392-6.462-19.392-1.617-1.616c-64.449-1.023-128.908-1.549-193.363-2.157l-3.235-.53 3.235-1.078 26.394-.539 132.496-1.078 23.688-.528 10.785-.551-1.078-3.226-2.166-9.158-3.765-11.304-4.305-1.08-17.228-1.617-36.097-1.617-42.543-2.157H87.799v-1.078l-2.697-3.231Zm304.847 12.393-1.077.538-1.08 2.688v30.166l-.538 1.619.538 18.313-1.087 3.775-2.687 1.607-81.865 20.463-1.62 1.619v25.864l1.089 1.608h93.664c.104-10.048.047-20.107.047-30.159l-.539-32.314-.538-1.617-3.237-3.227-1.068-2.695.529-2.697 3.236-4.844 1.078-4.843.539-17.775-.539-7.541Zm20.463.531-5.931.009-.531 7v18.315l7 6.461 2.157 3.235-.538 2.687-1.617 2.695-4.854 5.384-2.688 2.695v48.483l.54 8.61 2.697 2.694h6.999l8.079-.537 1.078-.54.53-105.025-.53-1.077-2.157-.538Zm456.736.009-1.079 2.157v103.408l1.608 2.694h8.618l8.089-.537.538-.54V226.017l-.538-1.077-2.157-.538Zm27.472 0-1.08 4.843-.549 89.946.549 11.853.531.538 2.696 1.078 14.55-.542 1.069-.54v-99.642l-1.069-3.775-9.705-3.225Zm-178.821.538-1.61 2.157.533 9.687v11.853l-1.618 3.765-8.069 6.471-2.167 3.225v69.484l.549.54h17.766l.549-.54V229.241l-.549-3.225-1.068-1.078Zm68.357 0 .055 102.868.54 3.234 1.609 1.618h9.157l7.539-.538.549-.529V227.097l-1.079-2.157Zm29.127 0-1.599 2.157-.009 102.868 2.147 2.695 16.158-.538.55-.54.53-105.025-.53-1.077-1.618-.54Zm28.011 0-1.079.528-1.076 3.775v101.797l1.076 1.618h13.463l3.774-.538.54-.54V226.016l-1.08-1.078Zm-409.882.528-.539 1.627v103.408l2.166 2.155h6.992l9.157-.538.549-.54.53-49.012v-32.315l-.53-22.088-1.089-1.608-5.382-1.077Zm28.012 0-1.078 1.089-.54 5.922v95.867l1.078 3.774 2.157.541h6.471l9.147-.541V228.703l-1.078-1.619-5.391-1.068Zm271.454 0-.531.548v104.485l.531 1.068 2.696 1.089 15.079-.542.54-.547V226.012l-1.618-.551Zm27.471 0-.54.548c-1.327 34.602-.53 69.31-.53 103.945l1.068 2.157h17.236l1.077-1.078-.539-105.024-1.08-.551Zm-271.454 1.627-1.078 1.616-.549 16.695v79.171l.549 5.931.538 1.078 2.688 1.068 14.55-.542 1.068-.528v-100.73l-.53-1.077-2.157-1.068-7-1.078Zm26.385 0-.531 1.068v18.853l3.765 2.157 5.394 3.227 2.685 4.312v7.002l-1.608 3.234-3.774 3.226-6.462 2.696-.538 3.775v51.159l.538 3.236 1.608 1.618h7.551l8.616-.538 1.08-.529v-88.347l-.549-7.54-1.078-4.842-2.687-2.697Zm29.628 7.539-1.077.54.537 3.225 3.765 3.237 8.089 6.469 4.844 3.765 4.314 4.305h134.644l2.695-.531 1.617-1.617 3.765-4.314 4.314-4.303 1.608-4.314v-5.922l-1.608-.542Zm377.566.54v85.632l.528 10.784.551.528h16.689l1.619-.528v-85.102l-3.775-4.314-12.383-6.47Zm-609.165 7-7.001.537v.533c2.499 10.104 6.251 19.823 9.696 29.628l3.227 3.227h14.001l1.617-.532v-2.697c-2.828-12.018-4.372-17.719-9.158-30.159l-2.148-.537Zm-77.563.537v2.157c3.043 10.532 7.008 20.649 11.314 30.699l2.687 1.078 13.471-.549.54-.531v-3.236c-1.973-9.07-4.534-17.979-7.002-26.923l-1.617-2.166-11.853-.53Zm35.021 0 .53 2.697c2.875 9.636 6.336 19.069 9.696 28.542l2.688 2.147h14.008l2.157-.53v-1.617c-5.999-20.431-5.151-21.52-8.626-29.629l-2.688-1.608Zm270.905.533v87.798l1.088 1.078h17.776l.53-.529-.53-65.718-1.087-4.305-6.453-6.469-4.314-5.384-4.853-5.392Zm407.726 7.01v80.249l1.616 1.617h16.695l.542-.529.538-18.324v-50.629l-1.08-1.615-9.156-6.462-6.462-3.774Zm-435.188 4.305-1.078 1.617v7.54l1.078 2.166h3.236l1.068-.549 2.697-2.148v-4.853l-1.089-1.618-2.676-1.615Zm-137.386 1.125v.007a4.886 4.886 0 0 0-4.845 4.175 4.88 4.88 0 0 0 4.128 5.531 4.87 4.87 0 0 0 3.626-.914 4.883 4.883 0 0 0-2.212-8.745 5 5 0 0 0-.697-.056Zm25.882 0v.007a4.88 4.88 0 0 0-4.835 4.175 4.88 4.88 0 0 0 4.119 5.531 4.88 4.88 0 0 0 1.412-9.659 5 5 0 0 0-.696-.056Zm167.517 5.884-1.078 1.068-.54 19.932v38.786l.54 9.149.538 1.068 2.687 1.077 15.088-.532.54-.538V262.63l-1.617-1.068Zm27.462 0-1.069 1.068-.549 7.539v60.328l1.087 1.617h17.776l.53-.529v-63.561l-.53-5.394-1.087-1.068Zm26.394 0-.531.528-.549 11.854v53.325l.549 4.305.531.54h17.775l.54-24.246v-32.307l-.54-13.471-1.078-.526Zm27.471 0-.54 1.068-.539 12.393v51.169l.539 4.842.54 1.078h17.775l.54-.54v-67.864l-.54-1.619-1.079-.529Zm26.922 0-.528 2.148v67.326l.528 1.078h17.776l.549-.529v-69.493l-.549-.528ZM81.69 266.371q.473.005.939.075a6.59 6.59 0 0 1 5.578 7.475 6.59 6.59 0 0 1-7.476 5.578 6.6 6.6 0 0 1-4.338-2.58 6.595 6.595 0 0 1 5.297-10.537Zm871.64 1.106-.538 51.708.538 11.316 1.606 1.617h16.707l.541-.54.529-26.934v-24.235l-2.148-2.147-4.844-3.776-8.619-5.383Zm26.922 17.246.549 46.855.53.54h30.708l.54-.54-3.236-26.932-2.157-3.236c-8.138-5.574-16.412-10.93-24.775-16.158Zm20.75 30.159q.47.003.931.076c3.564.515 6.031 3.793 5.514 7.324-.519 3.532-3.827 5.979-7.391 5.467a6.54 6.54 0 0 1-4.291-2.535 6.42 6.42 0 0 1-1.222-4.801c.472-3.174 3.223-5.525 6.461-5.521Zm-478.017 24.775-245.6.538.531 4.305 2.166 3.234 3.765 5.922 4.305 8.619 2.695 4.314h211.129l4.842-.549 2.697-1.068 8.088-6.471 11.853-8.07 6.453-4.844 4.312-3.775.54-2.155Zm330.162 0-28.549.538-5.372 1.078-3.784 5.921-7.002 18.315-3.765 12.922v3.765l.54 2.166 2.157 3.227 3.225 2.695 5.383 1.617h44.709l2.157-2.157 4.842-12.921 5.394-14.55 4.842-11.314 1.615-2.685h2.697l.531 1.617-2.697 8.077 1.615 1.616 3.775-4.852 2.696-2.688 5.383-2.157h4.304l4.314 1.078 5.392 3.236 3.225 4.305 2.157 5.93-.54 5.374-3.225 5.932-5.391 4.842-4.315 1.627h-6.992l-1.626-.547-4.305-2.695-3.234-4.305-2.688-7.539v-6.462l-1.077-.541-1.616 3.234-7.539 22.62-.542 5.391.542.529 30.159.541 4.314-2.157 4.304-4.304 3.765-4.312 5.932-6.462 2.157-5.382v-18.315l-1.078-9.697-1.615-1.619-3.776-.53Zm72.181 0-1.078.538 3.225 4.844 1.62 4.852.53 17.228.549.549h38.238l51.708-.549 2.697-1.077v-9.689l-.549-3.774-1.615-3.765-3.767-5.392-3.225-2.687-7.009-.538Zm-371.106.538-5.392 1.078-3.225 4.844-7.001 4.842-7 5.394-9.158 6.46-7 4.853-2.697 2.686-2.157 1.079-7.539 1.078-35.011.538H292.464l-3.774-1.616-4.314-7.009-6.991-15.078-2.696-1.617H3.774l-3.234-.531v4.843l2.685 4.844L7 362.275l1.079 2.697-.54 3.764-3.765 8.079L0 384.355v3.765l.538 1.617 3.236 5.392 4.305 7.541v4.842l-3.767 6.471L0 422.593l.538 4.312 3.236 5.393 4.305 9.147-.54 3.775-3.765 8.079L0 459.76v3.225l1.078 2.697 3.764 6.471 3.775 4.303 6.461 4.854 5.392 3.225 255.836 1.089 1.079-.549 2.146-3.225 19.932-40.935 149.734-1.078 1.068-1.077 2.697-5.392v-3.765l2.697-.53 47.932-.547 2.697-1.08 4.844-3.225 5.922-3.776 4.312-1.608 33.933-.547v-.529l-5.391-4.852-8.619-4.304-9.156-5.392-7.177-3.588a20 20 0 0 1-.214 2.296 20.47 20.47 0 0 1-8.023 13.458 20.47 20.47 0 0 1-15.191 3.844 20.5 20.5 0 0 1-9.993-4.446H470.04a16 16 0 0 1-2.297-.19c-8.635-1.269-14.61-9.296-13.35-17.933 1.132-7.771 7.795-13.533 15.647-13.537h21.483a20.47 20.47 0 0 1 12.997-4.656v.009q1.469.003 2.921.215a20.48 20.48 0 0 1 14.029 8.831l.445-2.64v-8.07l.531-.547 14.548.547 52.778.532h56.013l1.616-.532v-1.078l-2.155-5.382 2.155 1.068 2.687 2.695.549 5.394-84.033-.547-32.854-.538-2.148.538-.54 15.078 4.845 3.244 13.47 8.07 7.54 3.765 9.687 1.079h72.18l45.777-.532 29.089-.531 1.079-.537.54-33.934 1.079-3.774 2.697-2.685 2.686-1.078.539 1.078v33.931l1.07 3.227h46.325l3.774 1.619 4.305 4.314 8.079 8.617 4.314 5.384 3.225 2.686h4.314l3.774-1.069 56.553-9.147 8.609-2.176 8.087-4.295 9.149-4.312 8.079-4.314 4.314-3.765v-1.619h-79.182l-2.695-.538-5.374-2.148-4.862-4.314-3.225-6.461V375.2l.547-2.148 3.765-11.313 4.845-10.236 4.304-7.539.549-3.765Zm3.515 9.156c.317.002.643.019.957.076a6.736 6.736 0 0 1 5.698 7.633c-.532 3.684-3.957 6.228-7.641 5.689a6.727 6.727 0 0 1-5.69-7.632 6.73 6.73 0 0 1 6.676-5.754Zm386.175.538q.467.006.929.076c3.563.517 6.031 3.795 5.514 7.326-.519 3.53-3.827 5.979-7.391 5.467-3.566-.517-6.033-3.795-5.514-7.327.466-3.178 3.22-5.534 6.462-5.53Zm16.697 0q.468.006.931.076c3.564.517 6.031 3.795 5.512 7.326-.517 3.53-3.827 5.979-7.39 5.467-3.564-.517-6.031-3.795-5.512-7.327.466-3.178 3.217-5.534 6.459-5.53Zm-193.445.472c.299.002.596.012.891.076 3.421.496 5.788 3.682 5.29 7.103a6.254 6.254 0 0 1-7.094 5.28 6.254 6.254 0 0 1-5.29-7.084 6.26 6.26 0 0 1 6.203-5.363Zm100.524 1.146h.538l-1.068 3.227-4.314 7.009-2.695 1.068-15.611.538h-24.784l-1.079-.538.549-4.843 1.608-1.617 32.853-.538 8.619-.541 1.608-1.069 3.246-1.077Zm23.697 2.149-5.922 3.235-3.225 4.304v3.235l1.068 2.687 3.775 5.932 2.696 2.155 3.765 1.619 4.303-.549 5.394-2.686 2.147-2.687 1.617-3.774v-4.314l-1.617-3.765-3.767-3.775-4.302-1.615Zm-619.391 8.077v.01l1.077.53 1.078 2.157.54 4.854-1.618.53-234.826-.53-4.312-2.697-1.079-2.157 12.383-.542c75.586-.169 151.171-2.157 226.757-2.157ZM42.578 369.84a22.62 22.62 0 0 1 18.089 9.087 22.59 22.59 0 0 1-4.613 31.63 22.64 22.64 0 0 1-31.657-4.609 22.6 22.6 0 0 1-4.252-16.77c1.625-11.123 11.184-19.362 22.433-19.336Zm0 2.947c-9.783-.022-18.095 7.145-19.503 16.818-1.561 10.735 5.88 20.702 16.622 22.266 10.742 1.565 20.72-5.863 22.293-16.594a19.63 19.63 0 0 0-3.69-14.584 19.67 19.67 0 0 0-15.722-7.906m815.414 1.339.538 2.148-2.688 5.391-3.774 3.228h-37.706l-2.696-2.148v-3.227l1.617-1.625 32.325-.542 9.147-.528 2.697-.549Zm-575.42.363h.01q.471.005.94.075a6.637 6.637 0 0 1 5.606 7.523 6.635 6.635 0 0 1-13.129-1.917 6.634 6.634 0 0 1 6.573-5.67Zm735.043.707-24.077.531-5.271 5.207 4.574 17.514 6.758 1.867 17.479-16.799Zm-935.665.01q.458.005.91.075a6.412 6.412 0 1 1-1.848 12.69 6.4 6.4 0 0 1-4.219-2.511 6.4 6.4 0 0 1-1.201-4.759 6.406 6.406 0 0 1 6.358-5.484Zm881.932 1.181-30.522.688 1.544 5.894 17.45 4.797Zm3.588.622-12.877 12.709 3.701 14.197c.367-.247.7-.538 1.069-.781l27.275-.985 2.855-2.827-4.573-17.515Zm-37.392 1.191a220 220 0 0 1-17.971 16.539l6.564 1.813 12.885-12.709Zm-427.091 2.38c-4.255 0-8.38 1.479-11.667 4.183h-19.27a14.19 14.19 0 0 0-14.048 12.143c-1.128 7.751 4.241 14.95 11.992 16.082q1.023.158 2.056.17h19.281a18.36 18.36 0 0 0 8.971 3.988 18.368 18.368 0 0 0 5.299-36.351 19 19 0 0 0-2.621-.198Zm148.181 3.235h.539l3.237 7.549 51.699 1.068.547.547 1.617 6.462.533 7.001-2.148.538h-54.405l-1.618-1.615-.528-6.462v-14.541Zm282.666 1.971-12.884 12.709 4.564 17.516 17.393 4.795c3.502-5.909 7.619-10.843 12.412-14.725l-4.035-15.498Zm-24.579 11.287c-6.902 5.476-13.87 10.323-20.845 14.558l3.43 13.164 17.46 4.806 12.876-12.718-4.564-17.514Zm82.553 4.192-.716.716 2.911-.112Zm-644.269.901c30.655.056 61.308.188 91.962.502l1.608.549 3.774 3.227 3.767 5.931-.53 1.069H88.327l-19.383.541-3.774-.541v-2.158l1.617-4.304 2.148-2.697 2.696-1.617c91.964.131 183.942-.64 275.908-.502m537.776 11.259c-9.732 5.67-19.4 10.1-28.848 13.609l1.711 6.545 17.45 4.807 12.876-12.719ZM208.06 414.53c1.051.002 2.102.081 3.142.234 12.028 1.758 20.356 12.932 18.603 24.961-1.755 12.032-12.929 20.364-24.961 18.612-12.032-1.755-20.365-12.929-18.612-24.961 1.578-10.836 10.879-18.864 21.828-18.846m522.224 1.655-2 1.971 4.574 17.505 17.45 4.797 12.886-12.707-2.436-9.307c-.071-.282-.178-.551-.233-.835Zm-522.224.132c-10.063-.019-18.612 7.361-20.062 17.32-1.608 11.056 6.05 21.322 17.106 22.934 11.055 1.608 21.322-6.05 22.935-17.106 1.606-11.052-6.046-21.318-17.098-22.935a20.4 20.4 0 0 0-2.881-.215Zm447.952 1.431-1.608 1.089 3.774 2.685 6.462 4.305 7.539 7.539 6.462 7.011 5.382 7 4.314 8.079 4.312 8.618 3.227 10.767v24.235l-.539 4.314 1.077 1.079 12.391-6.461 4.845-2.157.54-77.561-.54-.538Zm68.293 1.098-7.902 9.621.417 20.593 12.7-12.523-4.574-17.514Zm200.13 0-12.856 12.709-.019.008 4.564 17.516 15.666 4.304c2.031-11.791 5.235-21.728 9.575-29.888l-16.91-4.649v.01Zm-277.042 2.139-43.62.539h-15.618l-51.159 1.078-11.854.538-3.774.538-4.844 2.685-5.932 2.157-11.313 2.697-6.992 2.695-3.775 2.687-4.312 5.384-3.766 4.312-2.156 1.08h-24.237l-1.079 2.147v24.777h-24.765l-3.775.542-1.617 1.077v2.695l1.078 1.617 3.225 3.777 6.461 5.912 5.932 7.009 3.227 6.452v11.323l1.077 7.54v12.923l-2.147 11.304-4.854 14.01-.538 5.932 1.078 5.373 1.617 1.617 93.172.547h131.428l14.538.53h22.62l.549-.53 2.148-6.46 2.147-5.393.549-2.695-1.079-1.615-6.462-4.305-6.471-7.009-2.147-.532-2.157 5.922-3.235 8.616-2.687 2.697-16.706 2.688-3.764-.531v-.538l3.764-4.314 7.54-2.687 5.391-2.697 1.618-2.695 5.382-28.001 3.776-15.628 1.076-7.539v-24.768l-.54-4.314-2.155-9.156-4.314-9.157-5.382-7.541-8.079-8.079-4.314-3.774-7.54-7.539-5.384-4.843Zm-549.592 4.481q1.121.003 2.231.169a15.74 15.74 0 0 1 10.356 6.165 15.74 15.74 0 0 1 2.956 11.684c-1.254 8.6-9.239 14.556-17.839 13.303a15.74 15.74 0 0 1-13.312-17.839c1.126-7.748 7.778-13.489 15.608-13.473Zm33.022 0q1.126.003 2.241.169a15.74 15.74 0 0 1 13.313 17.849 15.737 15.737 0 0 1-17.851 13.303c-8.6-1.254-14.553-9.239-13.303-17.839a15.74 15.74 0 0 1 15.6-13.473Zm35.048 0q1.126.003 2.242.169a15.74 15.74 0 0 1 10.348 6.169 15.73 15.73 0 0 1 2.955 11.68c-1.255 8.6-9.241 14.556-17.841 13.303-8.598-1.254-14.554-9.239-13.304-17.839a15.744 15.744 0 0 1 15.6-13.473Zm724.901 2.165-12.867 12.709-.019.009 4.567 17.516 17.449 4.797.017-.009 12.867-12.7.019-.009-4.574-17.516-17.449-4.797Zm-792.869.19v.009a13.37 13.37 0 0 0-13.256 11.445 13.37 13.37 0 0 0 11.304 15.173 13.374 13.374 0 0 0 15.163-11.314c1.064-7.31-3.996-14.099-11.304-15.163a13 13 0 0 0-1.907-.15m32.891 0v.009a13.374 13.374 0 0 0-13.256 11.445 13.37 13.37 0 0 0 2.513 9.931 13.373 13.373 0 0 0 23.954-6.072c1.067-7.306-3.99-14.093-11.294-15.163a13 13 0 0 0-1.917-.15m35.096 0v.009a13.37 13.37 0 0 0-13.266 11.445 13.373 13.373 0 0 0 11.304 15.173 13.377 13.377 0 0 0 15.173-11.314 13.37 13.37 0 0 0-11.314-15.163 13 13 0 0 0-1.897-.15m687.314.362c-10.612 3.705-20.86 6.216-30.437 7.56l1.728 6.628 17.459 4.806 12.877-12.727Zm-87.733 1.526-12.886 12.709 4.566 17.515 17.45 4.807 12.884-12.718-4.564-17.497c-1.661-.423-3.332-.818-4.835-1.339ZM607 433.381h23.697l12.931.538 1.618.531 4.314 2.696 4.844 4.843 4.843 5.931 3.774 6.462 4.314 8.619 3.225 8.616 2.148 10.767 1.079 12.931-.53 14-1.078 7.002-2.696 11.853-3.765 11.314-3.775 8.079-3.234 5.391-3.775 4.845-45.767.528h-87.259l-10.776-.528-6.462-3.237-9.156-5.922-4.844-4.852-4.852-5.931-3.765-7.539-2.157-8.07-1.07-10.236v-8.079l.53-19.932.54-5.922 1.608-11.844 1.617-4.854 3.774-6.459 4.314-4.845 6.462-5.922 8.079-4.854 10.774-4.302 7.539-1.08Zm179.733 2.092 4.09 15.684 17.45 4.797 12.886-12.718-1.832-7c-12.342 1.424-23.43 1.023-32.594-.762Zm70.394.938-.017.019-.019-.01-12.867 12.709-.017.01 4.574 17.514 17.45 4.797.009-.009.009-.01 12.867-12.69.038-.017-4.566-17.516Zm-125.328 2.084-12.885 12.709 4.564 17.514 17.459 4.806 12.876-12.718-4.564-17.514Zm-129.094 1.886-7.011.538-1.617 2.147v4.854l1.617 2.155 10.236 1.618 3.765 1.606v67.866l6.471 1.078 1.068 1.077.55 8.079.53 1.608 1.617 1.615h4.845l2.694-2.687 4.314-8.617 6.462-11.844v-4.314l-1.079-14.001-1.608-10.775-.549-16.158-.531-6.469-1.089-9.687-1.607-4.854-2.157-3.235-3.237-1.608Zm220.731 4.816-.009.017-.01-.009-12.867 12.699-.016.019 4.573 17.514 17.45 4.797.017-.017 12.867-12.69.009-.019-4.564-17.514Zm91.628 6.712-12.884 12.709 4.573 17.514 17.45 4.806 5.048-4.991c.203-9.297.887-17.812 2.074-25.566Zm-125.301 2.072-.008.01h-.009l-12.867 12.699-.01.019 4.564 17.514 17.45 4.788.019-.01 12.867-12.688.017-.019-4.574-17.515Zm91.619 6.714-12.876 12.707 4.564 17.516 17.45 4.807 12.886-12.719-4.574-17.516Zm-125.31 2.072-12.867 12.709-.009.01L747.762 493l17.45 4.797.016-.01 12.867-12.699.019-.008-4.575-17.515-17.45-4.798-.008.01Zm91.646 6.712-12.884 12.709 4.565 17.516 17.449 4.805 12.886-12.717-4.566-17.516ZM722.4 471.553l-5.012 4.946.429 20.732c6.526 1.839 11.733 4.348 15.833 7.287l10.764-10.644.036-.009-4.564-17.516-17.46-4.796-.009.01Zm91.646 6.703-12.885 12.718 4.566 17.505 17.457 4.806 12.876-12.718-4.564-17.514Zm91.637 6.702-12.885 12.719 4.575 17.515 17.45 4.798 12.876-12.709-4.566-17.516Zm23.513 1.255-2.715 2.677 3.123 11.993c-.216-5.01-.43-10.031-.408-14.67m-148.823.827-12.884 12.709 4.573 17.516 17.45 4.806 12.877-12.718-4.564-17.516Zm91.639 6.704-12.886 12.717 4.573 17.515 17.45 4.798 12.886-12.709-4.574-17.514Zm-125.32 2.082-10.663 10.524c7.264 6.206 10.001 14.004 9.705 21.726l10.097 2.78 12.884-12.717-4.574-17.516Zm-28.401 5.941c-12.809-.027-23.688 9.301-25.538 21.894a25.47 25.47 0 0 0 4.837 18.988 25.8 25.8 0 0 0 16.934 10.027 25.88 25.88 0 0 0 19.114-4.801 25.56 25.56 0 0 0 10.097-16.824 25.47 25.47 0 0 0-4.837-18.997 25.78 25.78 0 0 0-20.607-10.289Zm120.047.754-12.875 12.718 4.565 17.514 17.449 4.797 12.886-12.708-4.575-17.514Zm91.639 6.712L917.1 521.942l4.564 17.515 17.45 4.805 9.131-9.017a973 973 0 0 0-17.721-25.873Zm-125.311 2.074-12.876 12.716 4.564 17.516 17.45 4.798 12.886-12.709-4.565-17.516Zm91.646 6.702-12.883 12.719 4.564 17.504 17.45 4.807 12.885-12.718-4.566-17.514Zm-125.318 2.082-12.885 12.719 4.564 17.515 17.45 4.796 12.885-12.707-4.566-17.516Zm91.647 6.703-12.886 12.709 4.564 17.515 17.459 4.807 12.877-12.718-4.565-17.516Zm-117.14 4.332c-1.47 10.156-8.163 19.701-17.301 24.879l.81 3.104 17.45 4.798 12.877-12.709-4.566-17.514Zm83.466 4.454-12.893 12.709 4.573 17.515 17.46 4.805 12.876-12.716-4.566-17.516Zm120.961 2.213-8.536 8.423v.008l4.575 17.506v.009l17.45 4.798 3.69-3.645a938 938 0 0 0-17.179-27.099m-29.322 4.489-12.886 12.709.009.009 4.565 17.507v.009l17.449 4.797 12.886-12.709v-.009l-4.573-17.506v-.01Zm-125.32 2.084L782.4 557.075l4.574 17.513 17.449 4.807 12.886-12.718-4.573-17.514Zm91.637 6.702-7.429 7.344-5.436 5.365-.012.009 4.566 17.514 17.45 4.798.01-.01 12.874-12.699.011-.01-4.575-17.514-17.45-4.797Zm-125.311 2.082-12.874 12.709 4.564 17.516 17.45 4.806 12.885-12.718-4.575-17.516Zm-36.572 4.408c-4.714 2.02-9.88 2.981-15.257 2.212l-4.87 10.756 7.874 2.167 12.885-12.709Zm128.22 2.296-4.724 4.647-8.161 8.06v.01l4.564 17.506v.009l17.45 4.798.009-.01 12.876-12.699.01-.01-4.564-17.515-17.45-4.796Zm-125.31 2.073-12.886 12.708 4.564 17.514 17.45 4.807 12.886-12.718-4.564-17.514Zm216.957 4.63-12.886 12.708 4.566 17.514 17.459 4.807 12.875-12.718-4.565-17.514Zm23.138 1.359-3.661 3.039 4.564 17.516 13.145 3.171Zm-148.458.726-12.884 12.709v.009l4.564 17.505.009.009 17.45 4.798 12.877-12.709v-.01l-4.566-17.515v-.012ZM703.649 573.3l-.903 1.999.764 9.584 8.357 9.557.707 2.268 3.718-3.68-4.574-17.516Zm207.576 2.044-12.885 12.709 4.573 17.516 17.45 4.805 12.876-12.716-4.564-17.516Zm-125.31 2.084-12.886 12.707v.01l4.574 17.506v.009l17.45 4.798 12.885-12.709-.009-.01-4.564-17.506v-.017Zm91.637 6.703-12.884 12.708 4.573 17.514 17.45 4.807 12.886-12.718-4.575-17.514Zm-125.311 2.072-.009.009-7.436 7.336-5.439 5.364-.009.019 4.573 17.514 17.45 4.797.01-.017 12.876-12.7.01-.009L769.691 591Zm216.957 4.621-12.874 12.718 4.564 17.516 17.45 4.795 12.885-12.707-3.012-11.528c-1.195-2.185-2.319-4.34-3.541-6.537Zm-125.318 2.091-12.876 12.709 4.564 17.515 17.45 4.807 12.885-12.718-4.573-17.516Zm-125.32 2.074-4.993 4.927 8.906 28.662 5.227 1.441.007-.01 12.876-12.699.01-.01-4.574-17.514Zm216.957 4.621-12.877 12.718 4.567 17.514 17.449 4.797 12.884-12.709-4.564-17.514Zm-125.301 2.081L797.332 614.4l4.564 17.516 17.45 4.805 12.884-12.717-4.564-17.515Zm91.638 6.703-12.885 12.718 4.564 17.516 17.45 4.797 12.886-12.709-4.565-17.515Zm-125.319 2.083-12.886 12.709 4.564 17.514 17.459 4.807 12.877-12.718-4.565-17.514Zm216.928 4.63-12.886 12.709 4.566 17.514 17.45 4.798 7.066-6.964a880 880 0 0 0-13.761-27.387Zm-125.282 2.073-12.886 12.718 4.576 17.516 17.449 4.786 12.875-12.707-4.564-17.516Zm-125.32 2.084-12.884 12.707 4.574 17.515L752 654.293l12.877-12.718-4.566-17.516Zm216.957 4.618-12.884 12.709 4.573 17.516 17.45 4.807 12.877-12.719-4.566-17.515Zm-125.309 2.075-12.886 12.718 4.574 17.514 17.45 4.797 12.885-12.709-4.573-17.514Zm91.637 6.711-12.886 12.709 4.574 17.514 17.452 4.807 12.883-12.717-4.573-17.515Zm-125.32 2.073-12.874 12.718 4.564 17.516 17.45 4.797 12.883-12.709-4.573-17.516Zm91.648 6.704-12.886 12.709 4.574 17.514 17.45 4.807 12.886-12.719-4.574-17.514Zm-125.32 2.082-12.876 12.718 4.564 17.514 17.45 4.797 12.886-12.709-4.565-17.513Zm243.853 2.548-6.089 6.005 4.564 17.515 13.916 3.822a864 864 0 0 0-12.391-27.342m-26.887 2.072-.009.01-5.439 5.363-7.428 7.346h-.009l4.566 17.514h.007l17.45 4.797 12.876-12.709h.01l-4.564-17.514h-.019Zm-125.32 2.082-12.885 12.709 4.566 17.516 17.459 4.807 12.884-12.719-4.574-17.515Zm-125.319 2.084-2.78 2.751 9.845 31.701 2.074.564 12.886-12.707-4.566-17.516Zm216.956 4.62-12.874 12.717 4.564 17.516 17.45 4.788 12.886-12.709-4.566-17.516Zm-125.308 2.082-12.886 12.709 4.564 17.514 17.459 4.807 12.877-12.719-4.564-17.513Zm91.646 6.693-12.886 12.719 4.566 17.515 17.448 4.798 12.886-12.709-4.564-17.516Zm-125.32 2.093-12.886 12.707 4.566 17.516 17.46 4.807 12.874-12.719-4.564-17.515Zm216.966 4.621-12.884 12.707 4.565 17.516 17.459 4.797 12.876-12.718-3.17-12.179c-.785-1.862-1.565-3.722-2.372-5.597Zm-125.318 2.072-8.173 8.07-4.713 4.649h-.009l4.574 17.513h.009l17.45 4.798 12.876-12.709-4.564-17.514Zm-125.32 2.091-12.885 12.709 4.573 17.516 17.45 4.807 12.876-12.718-4.564-17.516Zm216.957 4.621-12.886 12.709 4.574 17.516h.009l17.45 4.797 12.886-12.709-4.574-17.516-.009-.009Zm-125.31 2.074-.01.01-5.439 5.373-7.437 7.334h-.01l4.576 17.516h.007l17.452 4.797 12.875-12.709h.009l-4.574-17.516h-.009Zm91.636 6.703-12.883 12.709 4.573 17.514.01.009 17.449 4.797 12.886-12.709-4.566-17.514-.017-.009Zm-125.318 2.082-12.876 12.718 4.564 17.516 17.45 4.795 12.886-12.707-4.564-17.516Zm216.967 4.611-12.877 12.718 4.564 17.516 17.45 4.795 3.254-3.206c-3.698-10.372-7.635-20.908-11.946-31.694Zm-125.32 2.093-12.877 12.707v.009l4.564 17.507v.009l17.45 4.797 12.886-12.709v-.009l-4.564-17.506-.009-.01Zm-125.32 2.072-12.877 12.719 4.566 17.513 17.45 4.798 12.884-12.709-4.564-17.514Zm216.957 4.621-12.877 12.718 4.566 17.514 17.45 4.797 12.884-12.709-4.564-17.513Zm-125.302 2.091-12.883 12.709v.009l4.564 17.507.009.007 17.45 4.798 12.876-12.708v-.009l-4.566-17.506v-.01Zm-125.327 2.093-.587.564 10.467 33.719 12.142-11.983-4.565-17.516Zm216.966 4.602-12.876 12.716h-.01l4.565 17.516h.009l17.44 4.797.019.01 12.867-12.719h.01l-4.566-17.515h-.01l-10.067-2.77-7.373-2.028Zm-125.32 2.091-12.886 12.709 4.567 17.514h.016l17.45 4.797 12.886-12.709-4.574-17.514h-.009Zm91.646 6.693-12.883 12.718 4.573 17.514 17.45 4.807 12.876-12.717-4.566-17.515Zm-125.318 2.082-12.885 12.709 4.573 17.515.01.01 17.45 4.797 12.885-12.709-4.573-17.515-.01-.01Zm216.957 4.62-12.886 12.709 4.574 17.516 17.45 4.807 12.876-12.719-4.564-17.515Zm22.879 1.841-2.119 2.094 4.574 17.513 4.63 1.283a947 947 0 0 0-7.085-20.89m-148.189.243-12.886 12.718 4.574 17.516 17.449 4.807 12.886-12.728-4.573-17.506Zm-125.32 2.084-12.877 12.718 3.673 14.084 1.068 3.477 17.264 4.75 12.886-12.709-4.564-17.513Zm216.957 4.62-12.884 12.709 4.573 17.514.01.01 17.45 4.797 12.883-12.709-4.564-17.514-.019-.009Zm-125.32 2.082-12.865 12.709-.01.01 4.564 17.515.01-.009 17.44 4.805h.01l12.876-12.707.009-.01-4.566-17.515-.009.009-10.076-2.78-7.365-2.027Zm91.648 6.703-12.877 12.708v.01l4.565 17.506v.01l17.45 4.797 12.885-12.709v-.009l-4.564-17.507-.009-.009Zm-125.32 2.074-12.867 12.718h-.009l4.564 17.514h.009l17.441 4.797.018.01 12.867-12.719h.01l-4.564-17.513h-.01l-10.078-2.772-7.362-2.026Zm216.966 4.63-12.886 12.707 4.566 17.516 17.45 4.797 6.052-5.969c-2.586-8.848-5.418-17.948-8.395-27.184Zm-125.31 2.082-12.894 12.709 4.564 17.513.017.01 17.45 4.797 12.877-12.718v-.008l-4.565-17.506v-.009Zm-125.32 2.072-12.884 12.718 4.564 17.516 17.459 4.807 12.877-12.719-4.566-17.515Zm216.93 4.63-12.886 12.709 4.574 17.516 17.45 4.797v-.009l.019.009 12.885-12.718-4.566-17.507-17.45-4.797-.017.009Zm-125.292 2.084-12.885 12.707 4.564 17.515h.019l17.45 4.798 12.885-12.709-4.575-17.516-.008-.007Zm-123.005 2.704 9.772 31.498 9.937-9.807-4.564-17.516Zm214.652 3.989-12.886 12.709 1.534 5.893 30.765-6.303-1.962-7.502Zm-125.32 2.081-12.884 12.709 4.573 17.516.01.01 17.45 4.797 12.885-12.709-4.575-17.516-.009-.009Zm91.648 6.705-12.886 12.707h-.009l1.068 4.109 30.762-6.311-1.487-5.708Zm-125.32 2.082-12.886 12.708.01.01 4.564 17.504v.01l17.45 4.797 12.885-12.709v-.009l-4.573-17.505v-.009Zm242.467 3.885-4.713 4.658 4.574 17.516 6.758 1.867c-2.093-7.881-4.236-15.81-6.619-24.041m-25.51.726-12.867 12.718-.01.009 4.566 17.507h.01l17.448 4.795 12.876-12.707h.01l-4.574-17.516h-.009Zm-125.32 2.093-12.867 12.707h-.01l.597 2.305 30.764-6.292-1.021-3.923h-.01Zm-125.311 2.082-11.21 11.072 5.698 18.342a12 12 0 0 0 2.24 2.204l8.312 2.277c1.546.006 2.938 0 3.822.382l1.32-.271 11.844-11.686-4.574-17.516Zm217.423 4.741 11.008 32.603 10.551-10.413-4.564-17.513Zm-6.471.976-1.626.53-212.207 48.483-2.687 1.617-5.922 9.157-1.625 4.844h7l228.373-46.326v-2.687l-1.077-3.235-3.765-10.236-2.157-2.147Zm-119.304.987-12.885 12.709.15.511 30.772-6.294-.557-2.138-.016.009Zm-33.673 8.786-11.165 11.007 28.699-5.875-.113-.342Zm216.957 4.611-12.884 12.709 4.564 17.514 17.459 4.807 6.285-6.201c-2.097-8.536-4.376-17.406-6.749-26.441Zm-250.638 4.164-8.749 8.637 23.018-4.713Zm216.966 4.62-11.769 11.613 6.58 19.468 14.327 3.951 12.876-12.719-4.564-17.515Zm-21.151 3.758c-65.96 13.779-132.133 26.655-198.215 39.864l-12.382 2.695c8.143 35.255 18.293 70.027 27.462 105.025l2.167 11.853.528 4.844-.528-1.079-2.167-9.158c-10.053-35.5-20.368-70.921-29.619-106.642l-1.617-3.775h-7.539l-11.854 1.618v3.227c8.856 32.329 16.662 64.968 24.785 97.493l4.304 15.62 2.688 8.617 3.244 3.774 3.225 1.617 4.844.538 10.236-.538 7.539-1.617c32.17-10.294 199.409-85.704 205.755-88.876l.53-2.688-1.616-3.765-4.842-14.008-20.472-61.405-2.157-3.227Zm71.101 19.633-4.861 4.807 4.564 17.515 5.997 1.646a2964 2964 0 0 0-5.7-23.968m-25.659.873-12.874 12.718 4.564 17.516 17.45 4.797 12.886-12.709-4.566-17.516Zm-28.327 10.254 9.446 27.993 7.233-7.139-4.564-17.516Zm52.63 14.02-12.886 12.709 2.669 10.234 20.555-10.206c-.783-3.357-1.691-7.122-2.502-10.58Zm-33.674 8.786-8.449 8.329 6.257 18.556 22.497-11.165-2.855-10.932ZM2052.022 0l3.017 2.507 7.011 5.006 3.499 2.005c10.353-.034 20.702.289 31.051.5l2.004 1.004 3 3.509 2.007 4.002 4.001 6.509.51 3.509-2.014 2.499-3.993 9.016.493 2.004c2.981 4.845 5.473 9.943 8.013 15.024l-.502 4.002-3.501 6.009-5.014 6.016-.491 2.507 3 4.001 3.499 6.016 1.512 4.504h.995l.502 1.003.501 2.506-4.012 7.504-2.497 4.009-3.502 5.509 1.997 3.007 4.002 3.509 2.507 3.501-.493 1.003h-3.016l-7.504-1.003-65.607-.504h-175.778l-.5-.5 1.002-5.515.502-8.004V83.631l-.502-.995-4.512-3.509-6.008-2.999-11.515-2.507-18.031-4.011-17.531-4.502-18.021-4.004-5.014-2.005v-2.507l1.003-.491 8.513-1.002 4.004-2.507 3.007-4.504.502-3.509-1.002-2.507-3.511-4.002-4.995-2.506-6.009-.493-.509-.512V14.031l.509-4.011.493-.493 23.045-1.002 3.501-1.003h4.002l5.014 1.507 16.519-.495v2.499c-5.683 17.202-10.552 34.663-15.524 52.081l9.515 1.001h13.529l.493-.503 2.507-4.504 10.52-31.55 2.497-8.515 3.009-8.013 2.005-2.498h4.002v3l-6.509 21.532-4.011 13.52-3 12.022-.5 5.006.993.503 9.517.5h10.028l1.997-.5 1.997-3.007 6.016-18.526 4.011-15.524 3-10.52 2.507-6.007 2.497-1.997h4.011v1.493l-1.504 5.516-4.011 15.015-3.5 11.522-4.504 17.028-1.003 5.005 6.509.5h15.024l2.507-.5.5-1.495 1.997-5.014 6.009-18.031 1.502-1.503c59.927-.949 119.859-1.44 179.789-2.004l3.007-.493-3.007-1.002-24.541-.502-123.195-1.001-22.025-.493-10.028-.511 1.003-3 2.014-8.515 3.501-10.51 4.002-1.005 16.017-1.502 33.567-1.505 39.554-2.004h14.021V3.02l2.507-3.003Zm-283.448 11.522 1.002.501 1.003 2.499v28.051l.502 1.502-.502 17.029 1.011 3.509 2.5 1.495 76.118 19.026 1.505 1.506v24.047l-1.012 1.495h-87.088c-.098-9.343-.045-18.695-.045-28.041l.502-30.046.502-1.505 3.007-2.999.995-2.507-.493-2.507-3.009-4.502-1.002-4.504-.502-16.528.502-7.009Zm-19.026.495 5.516.007.493 6.509v17.029l-6.509 6.008-2.007 3.009.502 2.498 1.505 2.506 4.511 5.005 2.498 2.506v45.08l-.5 8.004-2.507 2.506h-6.509l-7.513-.5-1.002-.5-.493-97.653.493-1.002 2.006-.501Zm-424.674.007 1.004 2.007v96.147l-1.495 2.506h-8.013l-7.521-.5-.5-.5V13.529l.5-1.001 2.005-.5Zm-25.542 0 1.002 4.504.512 83.632-.512 11.022-.493.498-2.506 1.002-13.527-.504-.995-.5V19.03l.995-3.51 9.023-2.999Zm166.268.501 1.495 2.004-.493 9.008v11.021l1.504 3.501 7.502 6.016 2.014 3v64.605l-.51.502h-16.519l-.509-.502V16.527l.509-3 .993-1.002Zm-63.56 0-.051 95.646-.502 3.009-1.495 1.502h-8.514l-7.01-.498-.51-.493V14.533l1.002-2.006Zm-27.083 0 1.488 2.004.009 95.649-1.997 2.506-15.024-.5-.509-.502-.495-97.653.495-1.002 1.502-.5Zm-26.044 0 1.005.49 1 3.51v94.653l-1 1.504H1337.4l-3.509-.5-.502-.502V13.527l1.004-1.002Zm381.109.49.502 1.514v96.147l-2.014 2.006h-6.501l-8.515-.5-.51-.502-.493-45.572V36.062l.493-20.538 1.012-1.495 5.004-1.002Zm-26.044 0 1.002 1.014.501 5.506v89.138l-1.003 3.509-2.004.502h-6.016l-8.506-.502V16.024l1.002-1.504 5.014-.993Zm-252.398 0 .492.51v97.151l-.492.993-2.507 1.012-14.022-.503-.502-.509V13.523l1.505-.511Zm-25.544 0 .502.51c1.234 32.173.493 64.444.493 96.649l-.993 2.006h-16.027l-1.002-1.002.502-97.653 1.004-.511Zm252.398 1.514 1.002 1.501.51 15.526v73.612l-.51 5.515-.5 1.003-2.499.993-13.527-.504-.995-.491V18.025l.493-1.002 2.006-.993 6.509-1.002Zm-24.532 0 .493.993v17.529l-3.5 2.007-5.014 2.999-2.499 4.012v6.508l1.495 3.007 3.511 3 6.007 2.507.502 3.509v47.569l-.502 3.007-1.495 1.505h-7.019l-8.013-.501-1.004-.491V29.544l.511-7.009 1.003-4.504 2.497-2.507Zm-27.549 7.009 1.003.502-.501 3-3.501 3.009-7.521 6.016-4.504 3.5-4.009 4.003h-125.192l-2.507-.494-1.504-1.503-3.5-4.011-4.011-4.002-1.495-4.011V22.04l1.495-.504Zm-351.061.502v79.62l-.49 10.028-.514.492h-15.515l-1.506-.492V32.56l3.509-4.011 11.515-6.016Zm566.403 6.509 6.508.5v.495c-2.322 9.395-5.812 18.431-9.015 27.549l-3 2.999h-13.017l-1.504-.495v-2.506c2.629-11.175 4.065-16.474 8.515-28.042l1.995-.5Zm72.118.5v2.007c-2.83 9.79-6.516 19.197-10.52 28.541l-2.499 1.003-12.525-.51-.502-.494v-3.007c1.835-8.435 4.216-16.719 6.511-25.035l1.502-2.014 11.022-.493Zm-32.562 0-.493 2.507c-2.674 8.959-5.892 17.73-9.015 26.537l-2.5 1.997h-13.026l-2.005-.493v-1.504c5.578-18.996 4.79-20.008 8.021-27.549l2.499-1.495Zm-251.889.495v81.636l-1.012 1h-16.526l-.493-.491.493-61.105 1.01-4.002 5.999-6.016 4.011-5.004 4.512-5.014Zm-379.104 6.518v74.616l-1.501 1.504h-15.526l-.502-.493-.5-17.036V47.577l1.002-1.503 8.516-6.006 6.006-3.51Zm404.639 4.002 1.002 1.504v7.011l-1.002 2.014h-3.009l-.993-.511-2.507-1.997v-4.512l1.01-1.504 2.49-1.501Zm127.742 1.045v.01a4.54 4.54 0 0 1 4.504 3.881 4.54 4.54 0 0 1-3.838 5.142 4.535 4.535 0 0 1-5.153-3.836 4.54 4.54 0 0 1 3.838-5.144q.322-.05.649-.053m-24.066 0v.01a4.536 4.536 0 0 1 .666 9.023 4.539 4.539 0 0 1-1.315-8.98q.325-.05.649-.053m-155.757 5.473 1.002.993.502 18.533v36.062l-.502 8.506-.502.995-2.497 1-14.029-.494-.502-.501V47.573l1.504-.995Zm-25.535 0 .995.993.51 7.011v56.09l-1.012 1.504h-16.528l-.491-.491v-59.1l.491-5.012 1.012-.995Zm-24.541 0 .495.491.509 11.022v49.581l-.509 4.002-.495.502h-16.527l-.502-22.542V59.599l.502-12.526 1.003-.489Zm-25.542 0 .502.993.502 11.522v47.577l-.502 4.504-.502 1.002h-16.529l-.502-.502V48.577l.502-1.506 1.005-.491Zm-25.034 0 .492 1.995v62.601l-.492 1.002h-16.527l-.51-.491V47.075l.51-.491Zm533.003 4.468a6 6 0 0 1-.873.07 6.13 6.13 0 0 1-5.186 6.95 6.13 6.13 0 0 1 6.948 5.187 6.133 6.133 0 0 1 5.187-6.951 6.13 6.13 0 0 1-6.076-5.246Zm-810.451 1.029.5 48.077-.5 10.52-1.493 1.504h-15.534l-.504-.502-.491-25.042V64.101l1.996-1.997 4.504-3.509 8.013-5.004Zm-25.034 16.034-.51 43.567-.493.5h-28.552l-.502-.5 3.008-25.042 2.007-3.009c7.567-5.184 15.259-10.162 23.035-15.024Zm-19.293 28.041a6 6 0 0 1-.865.071c.481 3.282-1.813 6.332-5.127 6.81 3.314-.474 6.391 1.8 6.872 5.083a5.97 5.97 0 0 1 1.136-4.462 6.08 6.08 0 0 1 3.991-2.357c-3.011.002-5.569-2.183-6.009-5.136Zm444.46 23.037 228.36.5-.492 4.002-2.014 3.009-3.502 5.506-4.002 8.014-2.507 4.009h-196.308l-4.502-.51-2.507-.993-7.52-6.017-11.022-7.502-5.999-4.504-4.011-3.509-.501-2.005Zm-306.984 0 26.544.5 4.997 1.003 3.519 5.506 6.508 17.029 3.502 12.015v3.499l-.502 2.015-2.007 2.999-2.997 2.507-5.007 1.504h-41.568l-2.006-2.004-4.503-12.015-5.015-13.529-4.502-10.52-1.503-2.498h-2.507l-.492 1.503 2.507 7.513-1.503 1.501-3.509-4.512-2.507-2.497-5.004-2.007h-4.002l-4.011 1.002-5.014 3.009-3 4.002-2.006 5.514.502 4.997 3 5.516 5.013 4.504 4.011 1.512h6.502l1.512-.51 4.001-2.507 3.008-4.002 2.499-7.011v-6.006l1.002-.504 1.501 3.009 7.011 21.03.504 5.014-.504.491-28.042.504-4.011-2.007-4.002-4.002-3.5-4.009-5.515-6.009-2.005-5.004v-17.03l1.002-9.016 1.501-1.504 3.509-.493Zm-67.114 0 1.002.5-2.999 4.504-1.505 4.512-.494 16.017-.51.511h-35.552l-48.079-.511-2.507-1.001v-9.008l.51-3.509 1.502-3.501 3.502-5.014 2.999-2.498 6.518-.5Zm345.054.5 5.014 1.003 2.999 4.504 6.509 4.502 6.509 5.013 8.515 6.009 6.509 4.511 2.506 2.498 2.007 1.004 7.009 1.002 32.555.501h163.251l3.509-1.503 4.011-6.518 6.501-14.02 2.507-1.504h251.896l3.009-.493v4.504l-2.499 4.504-3.509 5.014-1.002 2.506.502 3.5 3.499 7.513 3.51 7.009v3.502l-.501 1.504-3.009 5.014-4.001 7.009v4.504l3.501 6.016 4.01 8.005-.501 4.01-3.009 5.013-4.001 8.506.502 3.511 3.499 7.511 3.51 6.007v2.999l-1.003 2.507-3.5 6.018-3.511 4.002-6.006 4.511-5.014 3-237.876 1.012-1.003-.51-1.997-2.999-18.533-38.062-139.221-1-.993-1.002-2.507-5.014v-3.502l-2.507-.492-44.569-.51-2.507-1.002-4.504-3-5.506-3.509-4.01-1.495-31.552-.51v-.491l5.013-4.513 8.014-4.002 8.515-5.013 6.672-3.337q.16 1.062.2 2.135a19.03 19.03 0 0 1 21.583 16.086 19.05 19.05 0 0 1 9.294-4.131h19.985a15 15 0 0 1 2.134-.177c-1.173-8.03 4.384-15.494 12.414-16.673-7.302-.004-13.497-5.362-14.548-12.587h-19.976a19.02 19.02 0 0 1-12.084-4.331v.009c-.899.132-1.808.198-2.716.2a19.02 19.02 0 0 1-13.044 8.21l-.413-2.454v-7.503l-.493-.508-13.529.508-49.072.494h-52.081l-1.504-.494v-1.003l2.006-5.004-2.006.993-2.498 2.507-.509 5.014 78.132-.508 30.548-.5 1.998.5.502 14.02-4.504 3.016-12.525 7.503-7.011 3.5-9.008 1.004h-67.112l-42.563-.494-27.047-.493-1.004-.5-.502-31.551-1.004-3.509-2.507-2.499-2.497-1.002-.503 1.002v31.55l-.992 3h-43.075l-3.509 1.506-4.002 4.012-7.511 8.013-4.011 5.004-3 2.497h-4.011l-3.509-.993-52.583-8.505-8.004-2.022-7.521-3.994-8.505-4.01-7.511-4.011-4.012-3.502v-1.504h73.623l2.507-.5 4.995-1.998 4.521-4.011 2.999-6.008v-8.013l-.509-1.996-3.502-10.52-4.502-9.517-4.004-7.011-.51-3.5Zm-3.266 8.514a5 5 0 0 0-.892.071 6.26 6.26 0 0 0-5.297 7.096c.494 3.426 3.68 5.79 7.104 5.29a6.258 6.258 0 0 0-.915-12.448Zm-359.067.5a6 6 0 0 1-.863.071c.481 3.282-1.813 6.332-5.127 6.812 3.314-.476 6.391 1.8 6.872 5.081-.481-3.281 1.813-6.332 5.127-6.811-3.015.004-5.575-2.187-6.009-5.144Zm-15.524 0a6 6 0 0 1-.867.071c.483 3.282-1.811 6.33-5.125 6.812 3.314-.476 6.391 1.8 6.872 5.081-.481-3.281 1.813-6.332 5.126-6.811-3.014.004-5.574-2.187-6.008-5.144Zm179.866.44c-.278 0-.557.009-.831.07-3.18.46-5.382 3.424-4.918 6.604a5.815 5.815 0 0 0 6.595 4.91 5.818 5.818 0 0 0-.846-11.575Zm-93.469 1.064h-.5l.993 3 4.011 6.518 2.507.993 14.513.5h23.044l1.005-.5-.51-4.504-1.495-1.503-30.548-.5-8.013-.504-1.496-.993-3.018-1.002Zm-22.034 1.998 5.506 3.007 3 4.003v3.007l-.993 2.5-3.51 5.514-2.506 2.004-3.502 1.507-4.002-.512-5.013-2.497-1.998-2.498-1.502-3.511v-4.009l1.502-3.502 3.502-3.509 4.002-1.503Zm575.912 7.511v.009l-1.002.493-1.004 2.004-.501 4.514 1.505.493 218.339-.493 4.011-2.507 1.002-2.007-11.512-.502c-70.281-.158-140.559-2.006-210.838-2.006Zm213.309 7.537c-.99.145-1.99.216-2.991.218a21 21 0 0 1-3.952 15.59 21.04 21.04 0 0 1-13.828 8.233 21.034 21.034 0 0 1 23.849 17.762 21 21 0 0 1 3.951-15.59 21.03 21.03 0 0 1 13.83-8.231c-10.462.023-19.349-7.639-20.859-17.98Zm0 2.74c9.096-.021 16.825 6.644 18.136 15.637 1.45 9.982-5.469 19.248-15.457 20.703-9.987 1.456-19.266-5.451-20.727-15.43a18.26 18.26 0 0 1 3.43-13.559 18.29 18.29 0 0 1 14.618-7.351m-758.171 1.245-.5 1.997 2.497 5.014 3.509 2.999h35.06l2.507-1.997v-2.999l-1.503-1.511-30.055-.504-8.506-.49-2.507-.512Zm535.025.338h-.01a6 6 0 0 1-.872.07 6.17 6.17 0 0 1-5.213 6.994 6.17 6.17 0 0 1 6.994 5.211 6.166 6.166 0 0 1 5.211-6.992 6.17 6.17 0 0 1-6.11-5.273Zm-683.444.659 22.388.492 4.901 4.841-4.252 16.286-6.285 1.736-16.25-15.621Zm869.982.007a6 6 0 0 1-.846.07 5.96 5.96 0 0 1-5.04 6.76 5.96 5.96 0 0 1 6.759 5.04 5.963 5.963 0 0 1 5.04-6.76 5.96 5.96 0 0 1-5.913-5.1Zm-820.019 1.098 28.378.64-1.435 5.48-16.225 4.461Zm-3.338.58 11.974 11.815-3.442 13.2c-.34-.229-.65-.5-.993-.726l-25.361-.916-2.654-2.627 4.252-16.286Zm34.768 1.105a204 204 0 0 0 16.709 15.38l-6.104 1.685-11.979-11.818Zm397.107 2.214c3.959 0 7.793 1.375 10.849 3.891h17.918a13.19 13.19 0 0 1 13.063 11.287c1.047 7.21-3.944 13.903-11.152 14.954q-.948.15-1.911.158h-17.927a17.07 17.07 0 0 1-8.341 3.709 17.08 17.08 0 0 1-19.364-14.435 17.08 17.08 0 0 1 14.437-19.363q1.211-.179 2.438-.184Zm-137.777 3.009h-.502l-3.009 7.018-48.069.993-.51.51-1.503 6.006-.494 6.511 1.997.498h50.586l1.502-1.5.493-6.009v-13.519Zm-262.822 1.832 11.979 11.817-4.244 16.284-16.173 4.461c-3.255-5.493-7.082-10.084-11.539-13.693l3.751-14.409Zm22.855 10.493c6.416 5.093 12.895 9.599 19.379 13.537l-3.189 12.24-16.234 4.468-11.971-11.823 4.242-16.286Zm-76.76 3.899.666.667-2.706-.105Zm599.042.838c-28.502.053-57.004.175-85.506.467l-1.496.511-3.509 2.998-3.501 5.516.492.993h334.535l18.023.504 3.509-.504v-2.005l-1.504-4.002-1.997-2.507-2.507-1.504c-85.51.122-171.029-.595-256.537-.467Zm-500.024 10.468a172.4 172.4 0 0 0 26.823 12.654l-1.593 6.086-16.224 4.47-11.971-11.825Zm629.712 1.028q-1.454.213-2.922.217c1.628 11.185-6.114 21.574-17.298 23.21 11.188-1.631 21.58 6.117 23.21 17.305-1.628-11.188 6.118-21.578 17.305-23.21-10.179.018-18.828-7.447-20.295-17.522m-485.563 1.539 1.858 1.833-4.252 16.277-16.226 4.458-11.981-11.815 2.264-8.653c.068-.261.167-.511.216-.776Zm485.563.122c9.356-.017 17.305 6.845 18.654 16.103 1.493 10.281-5.625 19.827-15.906 21.326-10.279 1.495-19.825-5.625-21.324-15.906-1.495-10.277 5.619-19.821 15.896-21.324q1.333-.195 2.68-.199m-416.507 1.331 1.495 1.012-3.509 2.497-6.006 4.004-7.011 7.009-6.009 6.518-5.004 6.509-4.011 7.513-4.011 8.011-3 10.01v22.535l.502 4.012-1 1.004-11.525-6.009-4.502-2.004-.502-72.119.502-.5Zm-63.499 1.021 7.347 8.946-.387 19.147-11.809-11.643 4.254-16.286Zm-186.08 0 11.955 11.816.015.01-4.245 16.283-14.563 4.004c-1.888-10.964-4.869-20.203-8.904-27.791l15.723-4.322v.008Zm257.592 1.988 40.559.502h14.522l47.569 1.001 11.02.5 3.509.5 4.504 2.5 5.516 2.004 10.518 2.507 6.501 2.507 3.509 2.497 4.012 5.006 3.501 4.01 2.005 1.004h22.535l1.002 1.997v23.037h23.028l3.509.502 1.505 1.003v2.507l-1.003 1.504-2.999 3.509-6.009 5.499-5.513 6.516-3 5.999v10.53l-1.002 7.01v12.015l1.997 10.511 4.511 13.027.502 5.516-1.002 4.994-1.504 1.505-86.631.509h-122.202l-13.52.493h-21.03l-.51-.493-1.997-6.008-1.997-5.014-.51-2.506 1.003-1.503 6.008-4.002 6.016-6.518 1.997-.495 2.005 5.507 3.009 8.013 2.497 2.507 15.534 2.499 3.502-.495v-.498l-3.502-4.011-7.011-2.5-5.014-2.506-1.502-2.507-5.006-26.035-3.509-14.531-1.001-7.011v-23.028l.5-4.011 2.007-8.513 4.011-8.516 5.004-7.008 7.511-7.513 4.012-3.51 7.011-7.01 5.004-4.502Zm511.012 4.166c-.686.101-1.38.154-2.074.158a14.635 14.635 0 0 1-12.378 16.596c7.996-1.162 15.421 4.374 16.587 12.37a14.63 14.63 0 0 1 2.755-10.858 14.63 14.63 0 0 1 9.624-5.73 14.635 14.635 0 0 1-14.514-12.525Zm-30.704 0c-.688.103-1.386.156-2.082.158a14.637 14.637 0 0 1-12.38 16.596 14.64 14.64 0 0 1 16.598 12.37c-1.164-7.996 4.374-15.422 12.369-16.588a14.635 14.635 0 0 1-14.505-12.525Zm-32.587 0q-1.036.155-2.083.158a14.63 14.63 0 0 1-2.748 10.86 14.63 14.63 0 0 1-9.623 5.736c7.996-1.162 15.423 4.374 16.589 12.37-1.164-7.996 4.374-15.422 12.368-16.588a14.63 14.63 0 0 1-14.503-12.525Zm-674.013 2.014 11.963 11.817.017.008-4.245 16.286-16.225 4.46-.015-.009-11.965-11.806-.017-.01 4.254-16.285 16.224-4.461Zm737.21.177v.009a12.43 12.43 0 0 1 12.325 10.64 12.432 12.432 0 0 1-19.74 11.769 12.44 12.44 0 0 1-4.869-8.181c-.991-6.796 3.716-13.107 10.511-14.098a12.5 12.5 0 0 1 1.773-.141Zm-30.584 0v.009a12.435 12.435 0 0 1 12.327 10.64 12.43 12.43 0 0 1-10.52 14.108c-6.796.986-13.103-3.725-14.089-10.52-.991-6.792 3.711-13.103 10.501-14.098a12 12 0 0 1 1.781-.141Zm-32.632 0v.009a12.435 12.435 0 0 1 12.337 10.64 12.43 12.43 0 0 1-2.334 9.232 12.43 12.43 0 0 1-8.178 4.876 12.438 12.438 0 1 1-3.587-24.618 12 12 0 0 1 1.762-.141Zm-639.064.338c9.868 3.443 19.395 5.777 28.301 7.028l-1.608 6.162-16.233 4.469-11.972-11.833Zm81.574 1.418 11.981 11.816-4.244 16.286-16.226 4.468-11.979-11.825 4.243-16.267c1.543-.393 3.099-.762 4.496-1.245Zm147.347 3.413h-22.034l-12.023.501-1.504.492-4.012 2.507-4.502 4.504-4.504 5.516-3.509 6.006-4.011 8.014-3 8.013-1.997 10.01-1.002 12.024.492 13.018 1.003 6.508 2.507 11.023 3.499 10.519 3.511 7.512 3.007 5.013 3.51 4.504 42.555.491h81.134l10.018-.491 6.006-3.009 8.516-5.506 4.504-4.512 4.511-5.515 3.502-7.011 2.005-7.502.994-9.517v-7.511l-.492-18.534-.502-5.506-1.495-11.013-1.505-4.511-3.509-6.009-4.011-4.504-6.007-5.506-7.513-4.511-10.018-4.002-7.011-1.004Zm-167.115 1.947-3.805 14.582-16.224 4.46-11.981-11.825 1.704-6.508c11.475 1.322 21.785.949 30.306-.709m-65.454.872.017.015.017-.007 11.964 11.815.015.01-4.252 16.286-16.226 4.46-.007-.009-.009-.009-11.963-11.799-.036-.017 4.245-16.286Zm116.532 1.935 11.979 11.818-4.244 16.284-16.233 4.47-11.972-11.825 4.244-16.286Zm120.03 1.755 6.518.5 1.504 1.997v4.512l-1.504 2.005-9.516 1.504-3.501 1.493v63.103l-6.016 1.001-.995 1.002-.51 7.511-.493 1.495-1.504 1.503h-4.502l-2.507-2.498-4.011-8.013-6.009-11.013v-4.011l1.004-13.017 1.496-10.02.509-15.022.495-6.018 1.012-9.006 1.495-4.512 2.006-3.008 3.007-1.496Zm-205.235 4.478.009.017.008-.01 11.964 11.808.017.017-4.254 16.286-16.224 4.461-.017-.017-11.964-11.801-.009-.015 4.244-16.286Zm-85.196 6.241 11.981 11.816-4.254 16.286-16.224 4.468-4.694-4.641c-.19-8.643-.825-16.562-1.927-23.771Zm116.504 1.928.009.007h.009l11.963 11.809.009.016-4.244 16.286-16.226 4.452-.017-.01-11.962-11.799-.017-.016 4.252-16.284Zm-85.187 6.24 11.972 11.817-4.245 16.286-16.223 4.468-11.982-11.825 4.252-16.286Zm116.513 1.927 11.964 11.818.008.007-4.244 16.286-16.224 4.461-.017-.01-11.964-11.806-.017-.009 4.254-16.286 16.225-4.461.008.01Zm-85.213 6.242 11.982 11.816-4.245 16.285-16.226 4.471-11.981-11.826 4.245-16.285Zm116.523 1.927 4.658 4.598-.398 19.278c-6.067 1.71-10.91 4.044-14.72 6.776l-10.01-9.897-.034-.008 4.245-16.286 16.233-4.461.009.01Zm-85.215 6.233 11.981 11.825-4.244 16.276-16.233 4.47-11.972-11.825 4.245-16.286Zm-85.203 6.232 11.981 11.825-4.254 16.286-16.225 4.461-11.972-11.818 4.244-16.284Zm-21.862 1.168 2.524 2.488-2.904 11.152c.201-4.66.401-9.328.38-13.64m138.375.769 11.981 11.816-4.254 16.285-16.223 4.469-11.974-11.825 4.244-16.286Zm-85.205 6.232 11.981 11.825-4.252 16.286-16.226 4.459-11.981-11.816 4.254-16.286Zm116.522 1.935 9.915 9.787c-6.755 5.769-9.3 13.019-9.025 20.201l-9.386 2.584-11.981-11.825 4.252-16.286Zm26.407 5.525c11.908-.024 22.026 8.649 23.747 20.356a23.7 23.7 0 0 1-4.499 17.657 24 24 0 0 1-15.746 9.322 24.06 24.06 0 0 1-17.771-4.463 23.76 23.76 0 0 1-9.388-15.645 23.67 23.67 0 0 1 4.498-17.662 23.97 23.97 0 0 1 19.159-9.566Zm-111.619.7 11.971 11.825-4.244 16.286-16.226 4.461-11.979-11.816 4.252-16.286Zm-85.206 6.242 11.972 11.817-4.244 16.284-16.224 4.47-8.489-8.385a904 904 0 0 1 16.476-24.057Zm116.513 1.927 11.972 11.825-4.242 16.286-16.226 4.461-11.981-11.818 4.244-16.285Zm-85.212 6.233 11.981 11.825-4.245 16.276-16.225 4.47-11.98-11.825 4.243-16.286Zm116.522 1.936 11.981 11.826-4.244 16.285-16.226 4.459-11.981-11.815 4.245-16.286Zm-85.213 6.233 11.98 11.815-4.245 16.286-16.233 4.468-11.972-11.825 4.245-16.284Zm108.914 4.028c1.369 9.442 7.592 18.317 16.087 23.131l-.753 2.887-16.223 4.46-11.974-11.815 4.244-16.286Zm-77.606 4.139 11.989 11.818-4.252 16.285-16.233 4.469-11.972-11.825 4.243-16.286Zm-112.468 2.057 7.936 7.833v.008l-4.254 16.278v.007l-16.223 4.461-3.432-3.389a871 871 0 0 1 15.973-25.198m27.263 4.177 11.981 11.816-.007.007-4.245 16.279v.007l-16.225 4.461-11.982-11.816v-.009l4.254-16.277v-.009Zm116.523 1.935 11.981 11.818-4.254 16.284-16.224 4.47-11.981-11.825 4.252-16.286Zm-85.204 6.233 6.906 6.83 5.057 4.987.009.008-4.245 16.285-16.225 4.461-.008-.009-11.973-11.808-.008-.008 4.252-16.286 16.226-4.46Zm116.513 1.937 11.972 11.815-4.244 16.286-16.226 4.47-11.981-11.827 4.254-16.284Zm34.005 4.097c4.384 1.877 9.187 2.772 14.185 2.058l4.53 10.001-7.322 2.014-11.98-11.818Zm-119.219 2.135 4.391 4.321 7.59 7.494v.01l-4.245 16.276v.01l-16.223 4.46-.01-.009-11.972-11.808-.009-.008 4.244-16.285 16.226-4.461Zm116.515 1.927 11.979 11.818-4.244 16.284-16.224 4.47-11.981-11.827 4.244-16.284Zm-201.728 4.305 11.981 11.816-4.244 16.286-16.234 4.47-11.971-11.825 4.244-16.286Zm-21.514 1.264 3.406 2.826-4.245 16.286-12.224 2.947Zm138.036.675 11.982 11.817v.008l-4.245 16.276-.009.01-16.224 4.461-11.974-11.818v-.008l4.245-16.287v-.01Zm107.801 4.331.837 1.858-.709 8.912-7.771 8.886-.658 2.11-3.457-3.423 4.252-16.286Zm-193.006 1.901 11.981 11.818-4.252 16.284-16.225 4.47-11.972-11.825 4.244-16.286Zm116.513 1.937 11.981 11.816v.009l-4.252 16.277v.009l-16.225 4.459-11.981-11.816.009-.009 4.245-16.277v-.017Zm-85.203 6.232 11.979 11.816-4.252 16.286-16.225 4.468-11.98-11.823 4.252-16.286Zm116.513 1.928.008.008 6.916 6.82 5.057 4.988.008.017-4.252 16.285-16.226 4.461-.007-.017-11.974-11.808-.008-.007 4.252-16.286Zm-201.726 4.295 11.972 11.825-4.245 16.286-16.225 4.461-11.981-11.816 2.802-10.719c1.109-2.031 2.155-4.034 3.293-6.076Zm116.521 1.947 11.972 11.815-4.243 16.286-16.226 4.468-11.981-11.825 4.254-16.286Zm116.522 1.927 4.642 4.581-8.281 26.65-4.857 1.339-.01-.008-11.971-11.808-.01-.009 4.254-16.286Zm-201.726 4.295 11.972 11.826-4.244 16.285-16.226 4.461-11.979-11.817 4.242-16.286Zm116.504 1.937 11.981 11.816-4.244 16.286-16.226 4.468-11.979-11.825 4.244-16.286Zm-85.203 6.233 11.979 11.825-4.244 16.286-16.224 4.458-11.981-11.815 4.244-16.286Zm116.52 1.935 11.982 11.817-4.245 16.286-16.233 4.468-11.972-11.825 4.245-16.285Zm-201.699 4.304 11.981 11.818-4.245 16.286-16.225 4.459-6.569-6.473a814 814 0 0 1 12.792-25.467Zm116.487 1.93 11.981 11.823-4.254 16.286-16.224 4.453-11.972-11.817 4.243-16.286Zm116.522 1.935 11.981 11.816-4.254 16.286-16.225 4.47-11.972-11.825 4.245-16.286Zm-201.728 4.297 11.981 11.816-4.252 16.286-16.225 4.468-11.972-11.825 4.245-16.286Zm116.515 1.928 11.98 11.825-4.252 16.284-16.226 4.461-11.981-11.816 4.254-16.286Zm-85.205 6.24 11.981 11.817-4.254 16.284-16.223 4.47-11.982-11.825 4.252-16.286Zm116.523 1.927 11.971 11.825-4.244 16.286-16.226 4.461-11.979-11.816 4.252-16.286Zm-85.215 6.232 11.981 11.818-4.252 16.286-16.226 4.468-11.981-11.825 4.254-16.286Zm116.523 1.937 11.971 11.825-4.244 16.286-16.224 4.461-11.981-11.818 4.244-16.285Zm-226.734 2.368 5.662 5.585-4.244 16.286-12.941 3.553a809 809 0 0 1 11.523-25.424m24.998 1.928.01.009 5.056 4.987 6.906 6.829h.009l-4.244 16.286h-.01l-16.223 4.46-11.972-11.815h-.009l4.244-16.286h.017Zm116.523 1.937 11.981 11.817-4.245 16.284-16.233 4.47-11.981-11.825 4.252-16.286Zm116.522 1.937 2.584 2.557-9.154 29.476-1.928.525-11.981-11.816 4.244-16.285Zm-201.728 4.295 11.972 11.825-4.242 16.286-16.226 4.451-11.981-11.816 4.244-16.285Zm116.514 1.937 11.981 11.816-4.245 16.285-16.233 4.469-11.972-11.825 4.245-16.286Zm-85.213 6.223 11.981 11.825-4.245 16.286-16.225 4.46-11.979-11.817 4.244-16.284Zm116.522 1.944 11.982 11.818-4.245 16.286-16.233 4.468-11.974-11.825 4.245-16.286Zm-201.735 4.297 11.981 11.816-4.244 16.286-16.233 4.461-11.974-11.826 2.949-11.324c.729-1.73 1.453-3.461 2.204-5.204Zm116.523 1.928 7.597 7.503 4.382 4.322h.009l-4.252 16.286h-.009l-16.226 4.459-11.972-11.816 4.245-16.286Zm116.52 1.944 11.981 11.818-4.252 16.284-16.225 4.47-11.972-11.825 4.245-16.286Zm-201.726 4.298 11.981 11.815-4.253 16.286h-.008l-16.226 4.461-11.981-11.818 4.254-16.286.008-.007Zm116.513 1.927.01.008 5.057 4.996 6.915 6.821h.007l-4.252 16.284h-.009l-16.224 4.461-11.972-11.816h-.009l4.254-16.286h.007Zm-85.203 6.232 11.979 11.816-4.252 16.286-.009.007-16.224 4.461-11.981-11.816 4.244-16.285.017-.01Zm116.521 1.936 11.972 11.825-4.243 16.285-16.226 4.461-11.981-11.817 4.245-16.284Zm-201.736 4.287 11.972 11.825-4.242 16.286-16.226 4.461-3.026-2.983c3.44-9.643 7.099-19.441 11.109-29.468Zm116.523 1.945 11.972 11.817v.008l-4.245 16.276v.01l-16.224 4.46-11.981-11.815v-.01l4.245-16.276.007-.009Zm116.523 1.927 11.971 11.825-4.244 16.286-16.226 4.461-11.979-11.816 4.244-16.286Zm-201.728 4.297 11.973 11.826-4.244 16.285-16.226 4.459-11.981-11.815 4.244-16.286Zm116.505 1.945 11.981 11.816v.009l-4.244 16.277-.009.009-16.224 4.461-11.974-11.818v-.007l4.245-16.279v-.007Zm116.53 1.945.546.524-9.732 31.353-11.289-11.142 4.242-16.286Zm-201.735 4.28 11.972 11.825h.009l-4.244 16.284h-.01l-16.216 4.46-.015.01-11.964-11.825h-.01l4.245-16.286h.009l9.362-2.576 6.854-1.885Zm116.523 1.944 11.981 11.816-4.245 16.286h-.017l-16.225 4.46-11.98-11.817 4.252-16.284h.01Zm-85.213 6.223 11.981 11.825-4.254 16.286-16.226 4.468-11.971-11.825 4.244-16.284Zm116.522 1.937 11.98 11.816-4.252 16.286-.01.009-16.224 4.459-11.981-11.816 4.252-16.286.01-.007Zm-201.728 4.295 11.982 11.818-4.254 16.284-16.224 4.47-11.972-11.825 4.243-16.286Zm-21.273 1.714 1.971 1.944-4.252 16.284-4.304 1.194a866 866 0 0 1 6.585-19.424Zm137.787.223 11.981 11.825-4.252 16.286-16.226 4.47-11.981-11.834 4.254-16.277Zm116.522 1.937 11.972 11.825-3.415 13.097-.993 3.232-16.053 4.418-11.979-11.818 4.244-16.284Zm-201.726 4.297 11.98 11.816-4.252 16.286-.01.009-16.224 4.459-11.981-11.815 4.245-16.286.017-.01Zm116.521 1.936 11.964 11.817.01.008-4.245 16.285-.009-.009-16.217 4.47h-.009l-11.972-11.817-.007-.008 4.244-16.286.008.01 9.371-2.586 6.845-1.884Zm-85.213 6.232 11.972 11.817v.008l-4.245 16.278v.008l-16.223 4.46-11.982-11.817v-.008l4.245-16.276.007-.009Zm116.523 1.927 11.962 11.825h.009l-4.244 16.286h-.008l-16.218 4.461-.015.008-11.964-11.824h-.009l4.244-16.285h.01l9.37-2.577 6.846-1.884Zm-201.736 4.305 11.981 11.818-4.244 16.285-16.226 4.459-5.626-5.547c2.403-8.23 5.036-16.691 7.804-25.277Zm116.513 1.937 11.989 11.816-4.242 16.286-.017.009-16.226 4.461-11.972-11.825v-.01l4.245-16.276v-.01Zm116.523 1.928 11.979 11.825-4.242 16.286-16.235 4.468-11.972-11.825 4.244-16.286Zm-201.701 4.304 11.981 11.816-4.254 16.286-16.224 4.461v-.01l-.017.01-11.981-11.826 4.244-16.276 16.226-4.461.017.01Zm116.496 1.937 11.981 11.816-4.245 16.286h-.016l-16.226 4.461-11.979-11.818 4.252-16.286.009-.007Zm114.369 2.515-9.085 29.286-9.239-9.119 4.244-16.286Zm-199.582 3.708 11.981 11.816-1.427 5.482-28.604-5.862 1.824-6.975Zm116.523 1.937 11.979 11.816-4.252 16.286-.01.009-16.223 4.459-11.981-11.816 4.253-16.286.008-.009Zm-85.215 6.232 11.981 11.816h.009l-.993 3.821-28.603-5.869 1.382-5.307Zm116.522 1.935 11.982 11.818-.01.009-4.244 16.277V559l-16.224 4.461-11.981-11.816v-.009l4.252-16.276v-.01Zm-225.445 3.615 4.381 4.331-4.252 16.284-6.284 1.737c1.946-7.328 3.939-14.698 6.155-22.354Zm23.719.675 11.963 11.825.009.008-4.244 16.278h-.01l-16.223 4.459-11.972-11.816h-.01l4.254-16.286h.008Zm116.523 1.945 11.962 11.815h.01l-.555 2.144-28.604-5.852.95-3.647h.009Zm116.513 1.937 10.424 10.294-5.299 17.055a11.2 11.2 0 0 1-2.082 2.048l-7.729 2.117c-1.437.006-2.731.002-3.553.356l-1.228-.252-11.012-10.866 4.254-16.286Zm-202.16 4.408-10.234 30.315-9.811-9.682 4.244-16.285Zm6.018.906 1.512.493 197.308 45.079 2.499 1.505 5.507 8.513 1.512 4.504h-6.509l-212.342-43.073v-2.499l1.003-3.007 3.499-9.518 2.007-1.997Zm110.929.918 11.98 11.817-.139.476-28.614-5.852.52-1.988.015.008Zm31.308 8.169 10.381 10.234-26.683-5.461.105-.32Zm-201.726 4.288 11.98 11.815-4.245 16.286-16.233 4.47-5.843-5.765c1.95-7.938 4.068-16.187 6.275-24.585Zm233.044 3.872 8.133 8.03-21.403-4.382Zm-201.736 4.297 10.943 10.796-6.119 18.101-13.32 3.673-11.972-11.825 4.243-16.284Zm19.665 3.492c61.332 12.813 122.859 24.784 184.301 37.066l11.513 2.505c-7.57 32.781-17.008 65.112-25.535 97.653l-2.014 11.022-.491 4.502.491-1.002 2.014-8.515c9.349-33.008 18.94-65.943 27.541-99.156l1.503-3.509h7.011l11.022 1.503v2.999c-8.235 30.06-15.494 60.41-23.047 90.652l-4.002 14.522-2.497 8.013-3.016 3.509-3 1.503-4.504.5-9.517-.5-7.011-1.503c-29.909-9.572-185.41-79.688-191.31-82.638l-.492-2.498 1.5-3.501 4.504-13.025 19.034-57.095 2.006-2.999Zm-66.11 18.255 4.521 4.47-4.244 16.286-5.576 1.529a2935 2935 0 0 1 5.299-22.285m23.858.812 11.973 11.826-4.244 16.285-16.226 4.459-11.981-11.815 4.244-16.286Zm26.339 9.535-8.782 26.027-6.725-6.638 4.244-16.286Zm-48.935 13.034 11.982 11.818-2.481 9.516-19.112-9.49c.727-3.122 1.572-6.621 2.324-9.837Zm31.31 8.17 7.857 7.746-5.818 17.252-20.918-10.381 2.653-10.166Z"/></svg>