<svg xmlns="http://www.w3.org/2000/svg" width="1385.31" height="1000" viewBox="0 0 1385.31 1000"><path d="M1028.468 995.135c-1.661-2.685-11.593-38.853-22.078-80.373-14.038-55.61-17.255-77.269-12.214-82.23 5.001-4.924 9.202-3.543 15.601 5.128 7.265 9.845 8.759 10.179 8.759 1.962 0-7.039 9.281-11.804 32.089-16.466 227.234-46.445 237.166-47.993 242.388-37.821 12.989 25.308 31.984 94.034 27.264 98.646-2.897 2.827-41.027 20.744-84.735 39.816-171.372 74.78-199.054 84.316-207.074 71.338m301.196-134.307c-26.315-69.177-46.056-141.78-40.154-147.682 10.15-10.15 21.354-7.788 28.768 6.062 7.25 13.548-2.457 33.285-13.127 26.689-7.21-4.455-6.836-.192 1.617 18.364 3.874 8.496 11.873 16.986 17.775 18.857 15.267 4.848 19.839 21.315 9.187 33.089-11.404 12.6-6.054 35.441 9.449 40.361 13.97 4.434 14.987 12.451 2.202 17.361-6.349 2.435-11.411-1.785-15.717-13.101m20.852-8.639c-17.404-8.507-22.829-23.349-12.363-33.819 16.314-16.31 42.93 8.762 28.176 26.536-8.708 10.496 1.431 11.11 12.41.756 6.538-6.167 7.559-5.873 5.303 1.527-3.526 11.549-16.245 13.446-33.526 5m26.472-26.395c-1.937-5.044-.854-9.169 2.402-9.169s5.92 4.125 5.92 9.169-1.079 9.169-2.402 9.169c-1.32 0-3.987-4.125-5.92-9.169m-385.207-11.993c4.157-10.833-5.23-8.176 154.128-43.595 108.989-24.222 131.31-27.572 135.762-20.373 2.925 4.739 3.376 10.426.996 12.64-3.958 3.674-274.787 60.265-288.418 60.265-3.242 0-4.35-4.023-2.464-8.937Zm360.345-12.894c-11.527-11.531-11.938-16.182-2.271-25.849 11.07-11.07 15.322-9.057 22.132 10.484 8.871 25.443-1.646 33.58-19.861 15.365m-351.423-34.713c-3.002-7.926-2.824-16.728.421-20.766 7.483-9.314 27.58-3.619 32.13 9.104 1.995 5.575 5.211 14.26 7.145 19.301 2.805 7.316 2.344 7.494-2.297.876-4.063-5.797-7.072-6.255-9.994-1.527-7.017 11.35-21.892 7.556-27.405-6.988m320.86 4.147c-11.8-11.797-12.058-17.43-1.214-26.428 17.215-14.286 41.928 10.426 27.642 27.641-9.002 10.841-14.631 10.583-26.428-1.213m-278.511-11.71c-10.706-12.897-3.082-27.587 14.311-27.587 16.361 0 25.352 18.953 14.257 30.048-9.184 9.187-19.654 8.282-28.568-2.461m46.506-6.338c-11.822-11.825-12.272-16.426-2.558-26.14 10.622-10.623 21.899-9.017 28.931 4.121 4.681 8.751 3.46 13.872-5.171 21.685-10.416 9.427-12.08 9.452-21.202.331Zm31.265 2.442c4.146-4.175 9.082-6.054 10.964-4.172 1.879 1.883-1.512 5.299-7.541 7.596-8.711 3.318-9.416 2.616-3.423-3.424m237.997 2.799c-2.242-2.243-4.073-6.92-4.073-10.394 0-3.83 2.845-3.467 7.232.919 3.979 3.976 5.814 8.653 4.077 10.391s-4.993 1.326-7.236-.916m-226.76-17.757c-11.797-11.796-12.055-17.429-1.211-26.427 17.216-14.29 41.928 10.422 27.638 27.637-8.998 10.845-14.631 10.587-26.427-1.21m30.127 3.493c2.079-3.362 6.367-6.113 9.532-6.113 3.162 0 5.753 2.751 5.753 6.113 0 3.361-4.288 6.112-9.532 6.112-5.241 0-7.828-2.751-5.753-6.112m39.736-6.033c0-7.181 17.411-12.64 21.129-6.621 1.751 2.834-2.286 6.581-8.973 8.329s-12.156.981-12.156-1.708m-210.705-7.984c-2.617-6.029-3.042-12.676-.949-14.773 6.211-6.207 11.215 2.511 8.355 14.558-2.533 10.677-2.86 10.688-7.406.215m22.426.567c-9.107-9.108-9.358-18.764-.709-27.413 9.246-9.242 28.336-3.038 31.836 10.347 5.222 19.966-16.383 31.813-31.127 17.066m162.298.734c-12.832-7.476-13.802-19.886-2.304-29.433 17.215-14.286 41.927 10.426 27.642 27.641-8.199 9.881-11.099 10.085-25.338 1.792m157.846-3.002c-12.011-12.011-12.069-17.419-.287-27.195 11.477-9.525 13.97-7.231 18.891 17.379 4.295 21.467-3.068 25.352-18.604 9.816m-86.017-2.62c2.075-3.362 9.805-5.92 17.172-5.684 12.912.414 12.952.618 1.166 5.684-16.826 7.228-22.808 7.228-18.341 0Zm-191.338-7.338c-11.19-11.189-8.784-21.943 5.952-26.624 16.928-5.371 33.075 13.123 22.54 25.818-8.388 10.106-18.894 10.404-28.492.806m157.301-5.665c-5.43-10.143-5.143-14.159 1.312-18.247 21.394-13.556 44.282 4.466 29.026 22.855-10.103 12.167-22.358 10.306-30.338-4.608m-118.238-9.169c-4.368-11.375 6.16-26.733 18.324-26.733 12.396 0 21.808 21.06 13.239 29.629-10.205 10.201-27.133 8.649-31.563-2.896m159.729-2.057c-3.732-14.275 9.939-27.518 23.171-22.441 13.447 5.16 18.535 22.481 8.472 28.851-14.326 9.071-28.336 6.233-31.643-6.41m-269.604-3.445c-12.069-12.07-12.381-17.655-1.483-26.701 13.33-11.062 29.219-1.395 27.086 16.478-2.293 19.195-12.538 23.287-25.603 10.223m158.664-.273c-11.797-11.797-12.055-17.429-1.21-26.428 17.215-14.286 41.927 10.427 27.641 27.642-9.002 10.844-14.631 10.582-26.431-1.214m166.768 5.197c-13.417-3.14-18.316-23.927-7.715-32.726 17.636-14.635 43.221 12.073 26.264 27.416-4.663 4.216-13.011 6.607-18.549 5.31m-286.343-16.906c-10.702-12.898-3.082-27.587 14.315-27.587 16.361 0 25.352 18.952 14.257 30.047-9.184 9.187-19.654 8.282-28.572-2.46m162.367-.516c-11.342-11.343-11.916-16.201-2.98-25.141 15.867-15.864 43.726 9.103 29.408 26.351-8.998 10.844-14.631 10.586-26.428-1.21m-122.936-15.609c-7-22.045 22.361-32.955 33.361-12.4 4.158 7.766 3.842 13.49-1.01 18.338-11.237 11.241-27.87 8.184-32.351-5.938m162.734 1.701c-6.992-13.065 1.944-25.389 18.407-25.389 13.279 0 20.053 17.39 11.015 28.282-9.714 11.702-22.27 10.466-29.422-2.893M967.403 656.29c-5.462-20.395-4.808-23.023 4.812-19.334 12.632 4.848 16.292 18.789 6.97 26.526-6.193 5.138-8.926 3.47-11.782-7.192m140.319 3.681c-4.369-11.379 6.16-26.733 18.323-26.733 12.396 0 21.809 21.056 13.239 29.626-10.201 10.205-27.132 8.649-31.562-2.893m159.732-2.057c-3.736-14.279 9.936-27.521 23.168-22.444 13.446 5.16 18.534 22.484 8.471 28.855-14.326 9.071-28.336 6.229-31.639-6.411m-268.786-.716c-12.832-7.475-13.803-19.886-2.304-29.433 17.251-14.315 42.218 13.545 26.355 29.408-8.017 8.017-10.329 8.017-24.051.025m157.842-3.002c-11.796-11.8-12.054-17.429-1.21-26.431 17.215-14.286 41.927 10.427 27.642 27.642-9.002 10.844-14.632 10.586-26.432-1.211m158.959.019c-10.838-10.838-10.311-21.769 1.228-25.614 7.036-2.348 17.782 26.94 12.004 32.718-1.687 1.687-7.639-1.511-13.232-7.104m-278.53-11.732c-10.706-12.897-3.082-27.586 14.311-27.586 16.361 0 25.352 18.955 14.257 30.05-9.183 9.184-19.653 8.283-28.568-2.464m162.364-.516c-11.797-11.796-12.055-17.425-1.211-26.427 17.252-14.315 42.218 13.541 26.352 29.407-8.937 8.94-13.799 8.363-25.141-2.98m-122.148-12.563c-4.365-11.375 6.16-26.733 18.323-26.733 12.4 0 21.809 21.06 13.243 29.63-10.205 10.201-27.136 8.649-31.566-2.897m161.945-1.345c-6.988-13.061 1.945-25.388 18.407-25.388 13.283 0 20.054 17.393 11.015 28.285-9.714 11.702-22.27 10.466-29.422-2.897m-271.061-1.704c-12.774-7.148-13.73-19.617-2.239-29.153 11.063-9.184 28.281-2.188 28.281 11.487 0 15.882-13.213 24.844-26.042 17.666m151.908-9.176c-4.365-11.375 6.16-26.733 18.323-26.733 13.018 0 24.015 24.807 13.85 31.246-13.181 8.355-28.034 6.273-32.173-4.513m158.936 0c-4.364-11.375 6.16-26.733 18.324-26.733 9.961 0 22.877 22.357 17.727 30.69-5.992 9.693-31.904 6.851-36.051-3.957m-271.352-3.504c-14.743-14.743-2.9-36.348 17.066-31.126 13.385 3.5 19.589 22.59 10.347 31.831-8.649 8.65-18.305 8.403-27.413-.705m161.208-2.271c-11.8-11.796-12.058-17.429-1.214-26.428 17.215-14.285 41.928 10.427 27.642 27.642-9.002 10.841-14.631 10.583-26.428-1.214m-119.575-11.709c-10.048-12.109-3.452-27.587 11.753-27.587 15.58 0 27.089 19.777 17.237 29.626-9.583 9.587-19.948 8.856-28.99-2.039m158.802-3.264c-8.413-15.721-3.089-24.323 15.057-24.323 16.561 0 25.054 16.088 14.932 28.281-9.957 12-22.321 10.368-29.989-3.958m-262.971-15.634c-7.12-18.734-4.554-24.043 9.089-18.807 10.532 4.042 12.799 25.654 3.311 31.519-3.369 2.083-8.948-3.637-12.4-12.712m144.385 5.818c-4.365-11.378 6.164-26.732 18.323-26.732 12.4 0 21.813 21.06 13.243 29.625-10.204 10.205-27.136 8.65-31.566-2.893m161.946-1.344c-6.989-13.065 1.944-25.388 18.407-25.388 13.282 0 20.053 17.389 11.015 28.281-9.711 11.702-22.27 10.466-29.422-2.893m-271.062-1.708c-12.77-7.149-13.73-19.614-2.238-29.15 11.062-9.183 28.281-2.188 28.281 11.488 0 15.881-13.214 24.843-26.043 17.662m157.112-1.93c-9.318-6.919-10.459-11.106-5.316-19.501 9.198-15.013 17.967-16.593 29.284-5.28 7.948 7.951 8.369 11.938 2.293 21.67-8.907 14.264-10.921 14.504-26.261 3.111m153.693-7.345c-5.822-15.176.596-17.247 8.38-2.703 3.754 7.014 4.274 12.748 1.149 12.748-3.119 0-7.407-4.521-9.529-10.045m-267.951-2.671c-19.439-11.32-8.144-37.573 13.705-31.86 13.384 3.503 19.588 22.59 10.346 31.835-8.017 8.017-10.328 8.017-24.051.025m157.847-3.002c-11.797-11.8-12.055-17.429-1.214-26.431 17.251-14.315 42.218 13.545 26.355 29.408-8.94 8.94-13.803 8.362-25.141-2.977m-122.94-15.612c-2.584-8.148-1.033-14.947 4.175-18.243 13.992-8.868 28.107-6.044 31.327 6.265 6.276 24.011-28.009 35.578-35.502 11.978m162.17.64c-8.409-15.707-3.092-24.327 14.995-24.327 15.838 0 24.581 19.173 13.708 30.051-10.165 10.161-21.402 7.922-28.703-5.724m-270.498-.644c-12.77-7.148-13.726-19.617-2.235-29.153 11.063-9.18 28.281-2.188 28.281 11.488 0 15.881-13.213 24.843-26.046 17.665m151.912-9.176c-4.368-11.375 6.16-26.733 18.323-26.733 12.397 0 21.809 21.06 13.24 29.63-10.201 10.201-27.133 8.649-31.563-2.897m159.729-2.057c-1.727-6.599.272-14.831 4.441-18.29 5.556-4.612 9.467-2.145 14.653 9.23 9.245 20.293 9.085 21.06-4.441 21.06-6.331 0-12.927-5.4-14.653-12m-270.673-2.922c-9.318-6.919-10.459-11.106-5.316-19.504 13.842-22.597 37.257-13.199 30.839 12.378-4.579 18.247-8.915 19.457-25.523 7.126m159.598-.93c-11.393-11.393-11.778-16.07-2.133-25.715 9.667-9.667 14.319-9.256 25.846 2.271 12.476 12.476 12.116 16.452-2.319 25.465-9.695 6.058-13.693 5.68-21.394-2.021m-119.437-11.575c-10.706-12.897-3.081-27.587 14.312-27.587 16.361 0 25.352 18.953 14.257 30.048-9.184 9.187-19.654 8.282-28.569-2.461m162.364-.516c-11.797-11.796-12.055-17.429-1.21-26.427 17.211-14.29 41.923 10.422 27.638 27.637-8.999 10.845-14.632 10.587-26.428-1.21m-268.608-16.375c-5.408-20.17-4.794-22.921 5.098-22.921 12.993 0 22.816 20.802 13.992 29.626-10.339 10.335-14.962 8.714-19.09-6.705m145.671.766c-6.999-22.044 22.361-32.954 33.362-12.399 4.158 7.766 3.841 13.49-1.007 18.338-11.24 11.24-27.874 8.184-32.355-5.939m163.458 5.655c-11.193-11.193-8.788-21.946 5.953-26.624 16.924-5.371 33.07 13.123 22.535 25.814-8.388 10.106-18.894 10.404-28.488.81m-271.726-5.625c-12.825-7.182-13.807-19.636-2.297-29.186 9.638-8.003 25.875-3.507 30.454 8.424 4.946 12.89-15.405 27.895-28.157 20.762m151.849-9.209c-4.364-11.379 6.16-26.733 18.324-26.733 12.396 0 21.808 21.056 13.239 29.625-10.201 10.205-27.133 8.65-31.563-2.892m-109.054-2.773c-12.832-7.476-13.802-19.886-2.304-29.433 17.215-14.286 41.928 10.426 27.642 27.641-8.203 9.881-11.099 10.085-25.338 1.792m157.847-3.002c-11.801-11.8-12.059-17.43-1.214-26.431 17.215-14.286 41.927 10.426 27.641 27.641-9.002 10.844-14.631 10.586-26.427-1.21m-119.575-11.713c-10.717-12.912-3.075-27.587 14.369-27.587 17.026 0 25.745 15.925 15.485 28.285-9.063 10.924-20.431 10.659-29.854-.698m158.66-3.525c-8.518-15.921 1.639-30.255 18.353-25.883 14.765 3.86 20.787 19.251 11.778 30.106-10.016 12.069-22.336 10.343-30.131-4.223m-295.755-9.652c-5.826-15.18.592-17.252 8.376-2.708 3.754 7.018 4.274 12.749 1.149 12.749-3.118 0-7.407-4.518-9.525-10.041m19.104 6.225c-2.384-2.384-4.335-9.376-4.335-15.54s-2.911-11.208-6.473-11.208-4.593-3.045-2.293-6.766c2.301-3.718 5.902-4.409 8.003-1.527s10.699 5.237 19.104 5.237c12.226 0 15.282 3.056 15.282 15.282 0 10.728-3.721 15.816-12.48 17.069-6.861.982-14.427-.163-16.808-2.547m158.206-6.127c-4.364-11.375 6.16-26.733 18.324-26.733 12.4 0 21.808 21.06 13.243 29.629-10.205 10.201-27.137 8.649-31.567-2.896m-109.115-3.049c-12.774-7.149-13.73-19.618-2.239-29.154 11.062-9.183 28.281-2.187 28.281 11.488 0 15.881-13.214 24.843-26.042 17.666m151.908-9.177c-4.365-11.375 6.16-26.733 18.323-26.733 12.396 0 21.809 21.06 13.239 29.63-10.201 10.201-27.132 8.649-31.562-2.897m-112.416-3.503c-9.107-9.107-9.358-18.763-.709-27.412 9.246-9.246 28.336-3.039 31.836 10.346 5.222 19.966-16.383 31.81-31.127 17.066m161.208-2.271c-11.797-11.797-12.058-17.43-1.214-26.428 17.215-14.286 41.927 10.426 27.642 27.638-8.999 10.844-14.632 10.586-26.428-1.21m-617.528-2.108c-1.904-3.078-.69-12.887 2.697-21.791 10.335-27.187 7.497-62.958-6.069-76.528-17.095-17.095-15.257-24.45 6.112-24.45 15.486 0 18.338-2.377 18.338-15.282 0-12.131 3.082-15.285 14.922-15.285 8.206 0 16.739-2.944 18.963-6.542s9.951-8.922 17.172-11.836c10.074-4.063 5.942-5.39-17.742-5.684-16.979-.211-33.544 2.286-36.814 5.557-3.271 3.27-48.524 6.708-100.561 7.642l-94.612 1.694-13.664 27.096-13.665 27.096-166.666-1.384c-158.501-1.32-167.179-1.988-177.082-13.672-8.373-9.874-9.096-15.187-3.689-27.06 4.994-10.953 4.874-17.012-.461-23.437-5.513-6.643-5.513-12.349 0-24.45 5.564-12.208 5.506-17.819-.244-24.745-5.269-6.349-5.622-12.349-1.21-20.588 3.42-6.396 4.666-17.575 2.766-24.843l-3.456-13.214h173.462c170.06 0 173.618.255 181.548 12.945 5.796 9.285 6.214 14.817 1.468 19.563-9.5 9.499-8.151 16.393 3.209 16.393 6.222 0 8.533-3.361 6.305-9.169-3.067-7.991 15.035-9.169 140.842-9.169h144.36l26.112-21.394 26.111-21.398h166.201c155.913 0 165.929.665 161.742 10.699-24.258 58.154-21.34 61.603 54.149 63.965l55.981 1.748-20.326 11.095c-11.182 6.102-40.663 14.628-65.513 18.949-44.344 7.711-45.431 7.591-58.677-6.509-10.888-11.589-19.781-14.362-46.049-14.362h-32.558v-24.814c0-33.013-11.96-25.352-13.058 8.362-.458 14.09-1.991 19.668-3.412 12.389-2.246-11.513-7.341-13.494-39.333-15.282-35.28-1.97-36.647-1.501-34.114 11.702 2.595 13.519 1.603 13.755-58.226 13.755-67.105 0-99.692-11.095-94.208-32.071 1.689-6.465-.611-10.721-5.793-10.721-4.728 0-8.599 2.664-8.599 5.92s-4.397 4.234-9.776 2.173c-8.46-3.249-8.714-2.057-1.893 8.864 12.563 20.115-1.065 31.49-32.889 27.453-14.155-1.799-29.866-6.338-34.91-10.085-7.795-5.793-8.006-5.328-1.421 3.107 4.267 5.466 21.532 11.753 38.417 13.995 20.529 2.722 29.258 6.353 26.402 10.979-2.926 4.735-.585 5.469 7.428 2.329 6.433-2.525 47.459-6.119 91.167-7.991l79.468-3.405 25.981 28.212c22.437 24.363 25.98 31.915 25.98 55.388 0 36.792-12.807 89.847-22.597 93.605-12.567 4.823-9.282 13.174 3.834 9.743 6.491-1.697 13.265-6.894 15.053-11.549 4.557-11.884 22.048-3.696 22.048 10.321 0 11.073-7.235 11.571-167.745 11.571-94.994 0-169.247-2.428-171.206-5.6m288.106-32.606c16.164-30.301 14.602-87.478-3.177-116.144l-14.216-22.924h-85.389c-96.676 0-115.835 5.647-126.905 37.402-8.722 25.025-8.696 69.682.055 86.788 16.201 31.679 26.344 34.466 125.971 34.612l93.063.138Zm-61.447-24.45c-2.028-7.567-3.725-31.203-3.768-52.532-.073-33.525-1.734-39.209-12.244-41.957-17.364-4.542-8.802-14.017 12.669-14.017 13.839 0 19.544 3.714 24.091 15.682 8.14 21.409 7.511 72.04-1.131 91.006-8.754 19.214-14.805 19.774-19.617 1.818m-628.782-92.621c8.14 8.711 25.86 5.244 25.86-5.062 0-3.845-3.18-3.565-8.358.73-6.346 5.266-10.151 4.776-15.809-2.038-9.961-12.004-1.948-23.601 13.512-19.559 9.474 2.478 10.724 1.555 5.269-3.9-5.451-5.451-10.175-5.251-19.94.847-9.176 5.731-14.664 6.12-19.407 1.374-10.026-10.023-21.361-7.952-28.397 5.185-4.786 8.948-3.932 14.185 3.532 21.649 8.588 8.588 11.521 8.748 22.986 1.236 10.939-7.167 14.414-7.247 20.752-.462m-40.587-5.756c-8.464-10.201 1.654-25.069 13.868-20.381 5.386 2.068 9.787 7.676 9.787 12.462 0 11.822-15.976 17.171-23.655 7.919m169.145 6.988c4.034-4.034 7.334-13.112 7.334-20.173s-3.3-16.139-7.334-20.173c-5.706-5.706 24.97-7.334 138.051-7.334 113.589 0 144.829-1.672 142.837-7.643-3.812-11.433-476.162-11.109-479.975.331-2.118 6.356 14.708 7.595 83.125 6.113 77.843-1.686 84.974-.963 77.033 7.791-24.164 26.646 13.555 66.458 38.929 41.088m-31.679-8.097c-7.483-7.486-8.34-12.719-3.551-21.67 7.665-14.319 19.937-15.166 30.764-2.119 5.683 6.847 6.221 12.56 1.839 19.505-8.962 14.206-17.822 15.514-29.052 4.284m-49.137-4.433c-.295-8.366 3.107-13.756 8.682-13.756 5.622 0 8.972 5.401 8.663 13.956-.356 9.834 1.407 12.04 5.975 7.471 8.177-8.176-2.373-26.674-16.841-29.52-11.382-2.239-19.217 12.636-13.926 26.431 5.044 13.141 8.006 11.317 7.447-4.582M72.076 244.118c13.708-12.408 14.166-22.699 1.57-35.295-8.733-8.733 3.217-9.606 131.43-9.606 89.949 0 141.034-2.213 141.034-6.112 0-3.907-53.614-6.113-148.619-6.113H48.876l-13.377 18.091c-16.042 21.7-16.209 23.662-3.257 37.973 12.553 13.872 25.301 14.21 39.834 1.062m-30.388-3.333c-15.053-15.053-.237-39.383 19.395-31.85 12.749 4.892 12.949 30.611.276 35.477-12.312 4.724-11.102 4.946-19.671-3.627m589.035-26.09c15.438-11.676 8.751-11.793-13.417-.232-9.63 5.022-13.221 9.147-7.981 9.169 5.245.022 14.871-4.001 21.398-8.937m-516.905-3.252c0-3.362-4.124-6.113-9.169-6.113-5.044 0-9.169 2.751-9.169 6.113 0 3.361 4.125 6.112 9.169 6.112s9.169-2.751 9.169-6.112m604.009-31.021c-1.203-3.616-4.801-6.575-7.995-6.575s-6.796 2.959-7.999 6.575c-1.207 3.612 2.395 6.57 7.999 6.57s9.202-2.958 7.995-6.57m264.487-1.225c-.756-7.308-9.14-5.895-11.767 1.988-1.345 4.034.857 6.236 4.891 4.891 4.034-1.348 7.13-4.441 6.876-6.879m72.963 261.561c-10.048-12.109-3.452-27.587 11.753-27.587 15.58 0 27.089 19.778 17.237 29.626-9.583 9.587-19.948 8.857-28.99-2.039m157.814-6.076c-3.802-8.34-11.742-16.695-17.644-18.57-14.13-4.485-19.959-20.697-11.223-31.222 5.724-6.894 3.718-7.74-11.24-4.749-22.081 4.415-32.351-12.218-17.019-27.555 13.588-13.588 26.083-3.59 41.931 33.547 7.258 17.008 18.073 38.304 24.033 47.321 5.964 9.016 7.966 16.393 4.455 16.393-3.51 0-9.496-6.825-13.293-15.165m-266.919-7.134c12.68-14.173 14.973-25.69 8.766-44.028-5.724-16.924 2.289-27.398 16.728-21.856 11.902 4.569 13.388 21.409 2.824 31.977-4.052 4.053-7.494 14.919-7.643 24.146-.214 13.148-3.576 17.244-15.54 18.93-14.46 2.039-14.729 1.556-5.135-9.169m147.9.825c-4.136-10.775 7.853-27.427 19.748-27.427 12.396 0 21.808 21.056 13.239 29.626-9.99 9.994-28.793 8.74-32.987-2.199m-196.438-6.381c-16.477-11.539-17.603-33.853-2.405-47.608 21.19-19.177 49.951-5.593 49.951 23.593 0 12.305-19.348 33.532-30.567 33.532-1.864 0-9.507-4.281-16.979-9.517m88.805 2.667c-12.829-7.177-13.81-19.632-2.301-29.186 9.638-7.999 25.876-3.507 30.455 8.428 4.946 12.89-15.406 27.896-28.154 20.758m158.137-2.468c-11.822-11.821-12.273-16.422-2.559-26.136 10.619-10.623 21.9-9.017 28.928 4.121 4.685 8.751 3.464 13.871-5.171 21.685-10.416 9.427-12.08 9.452-21.198.334Zm-115.345-9.51c-19.519-11.368-8.119-37.566 13.846-31.821 14.511 3.794 20.431 19.258 11.491 30.029-8.198 9.882-11.098 10.085-25.337 1.792m38.271-14.715c-10.048-12.105-3.452-27.587 11.753-27.587 15.584 0 27.089 19.781 17.237 29.63-9.583 9.583-19.944 8.856-28.99-2.043m40.22-13.079c-4.369-11.375 6.16-26.733 18.323-26.733 12.396 0 21.809 21.06 13.239 29.629-10.201 10.201-27.132 8.65-31.562-2.896m-110.944-4.979c-9.318-6.919-10.459-11.106-5.317-19.505 13.843-22.597 37.261-13.199 30.84 12.378-4.579 18.248-8.915 19.458-25.523 7.127m41.317-10.75c-9.107-9.107-9.355-18.763-.705-27.412 9.241-9.246 28.332-3.042 31.831 10.346 5.223 19.966-16.379 31.81-31.126 17.066M888.516 349.77c3.249-16.997-11.585-48.854-33.816-72.611l-15.728-16.811h69.529v48.247c0 38.358-1.981 49.01-9.671 51.961-13.523 5.19-13.392 5.324-10.314-10.786m39.853 10.448c-4.205-1.693-7.643-9.732-7.643-17.855 0-10.611 3.387-14.772 12.011-14.772 15.427 0 26.838 19.835 17.048 29.625-7.53 7.53-9.507 7.806-21.416 3.002m147.394-5.12c-5.43-14.148 2.206-27.507 15.721-27.507 15.58 0 27.086 19.777 17.237 29.625-9.965 9.962-28.79 8.751-32.958-2.118m-109.69-5.859c-9.376-6.963-10.365-10.924-4.946-19.762 9.383-15.304 29.447-14.224 31.722 1.704 2.708 18.96-12.109 28.95-26.776 18.058m153.874-7.141c-4.365-11.378 6.16-26.736 18.323-26.736 12.397 0 21.809 21.06 13.24 29.629-10.201 10.205-27.133 8.649-31.563-2.893m-109.054-2.784c-12.832-7.461-13.802-19.875-2.304-29.422 13.33-11.062 29.222-1.392 27.085 16.478-2.136 17.909-9.568 21.79-24.781 12.944m157.901-2.936c-11.975-11.975-12.131-17.469-.76-26.904 11.96-9.928 20.133-3.816 20.133 15.06 0 19.785-7.093 24.124-19.373 11.844m-118.474-10.012c-9.107-9.107-9.354-18.763-.705-27.413 9.242-9.241 28.332-3.038 31.832 10.347 5.222 19.966-16.379 31.813-31.127 17.066m-119.128-9.125c-12.334-20.886-10.197-70.129 2.177-50.112 2.748 4.452 2.559 11.03-.425 14.624-3.623 4.365.044 6.461 11.048 6.316 13.548-.174 16.47 2.497 16.47 15.067 0 10.997-3.7 15.813-13.178 17.161-7.246 1.036-14.489-.342-16.092-3.056m157.399-8.755c-6.995-22.041 22.361-32.955 33.362-12.396 4.158 7.766 3.841 13.486-1.007 18.338-11.236 11.236-27.874 8.184-32.355-5.942m-108.265.029c-13.239-7.407-13.726-19.705-1.192-30.106 7.919-6.57 11.52-5.869 21.609 4.223 11.604 11.601 11.655 12.52 1.192 21.987-7.919 7.167-13.854 8.239-21.613 3.896Zm151.846-9.209c-4.364-11.375 6.16-26.733 18.324-26.733 12.396 0 21.808 21.06 13.239 29.629-10.201 10.201-27.133 8.65-31.563-2.896m-109.562-.244c-8.86-8.86-3.177-14.264 15.012-14.264 16.274 0 17.964 1.352 11.477 9.173-8.028 9.674-19.672 11.913-26.489 5.091m152.235-12.29c-4.558-11.877 10.564-29.797 20.147-23.873 4.518 2.795 4.401 8.54-.396 19.065-8.02 17.604-14.26 19.123-19.751 4.808m-110.464-1.974c-2.079-3.361-1.552-6.149 1.166-6.196 2.722-.047 11.826-1.897 20.228-4.114 13.723-3.623 14.428-2.991 6.894 6.196-9.391 11.452-22.568 13.371-28.288 4.114m-123.206-15.543c-4.902-12.778-2.326-14.068 20.969-10.525 16.205 2.468 18.684 4.663 13.003 11.503-9.394 11.324-29.473 10.742-33.972-.978m162.942 3.318c0-3.362 3.899-6.113 8.667-6.113s13.708-1.889 19.868-4.201c9.856-3.696 10.194-2.965 2.809 6.113-9.085 11.168-31.344 14.151-31.344 4.201m50.431-4.365c-10.808-3.914-9.474-14.289 3.056-23.803 13.781-10.459 17.815-10.445 21.856.087 3.969 10.343-14.166 27.612-24.912 23.72Zm-496.1-18.559c4.503-5.884 8.613-11.488 9.129-12.455 2.006-3.75 33.086 13.178 33.086 18.022 0 2.82-11.342 5.132-25.203 5.132-23.044 0-24.498-.916-17.012-10.699m535.033 1.381c-12.091-12.088-12.404-17.67-1.501-26.719 19.181-15.917 40.975 9.845 22.484 26.584-10.219 9.246-11.865 9.256-20.983.138Zm34.037-25.832c2.453-12.883 29.113-18.029 35.967-6.941 7.331 11.862.916 17.64-19.58 17.64-14.25 0-17.964-2.428-16.387-10.699m47.76-1.53c0-11.324 3.006-14.715 13.756-15.507 12.494-.919 13.65 3.998 3.361 14.286-8.925 8.926-17.117 9.511-17.117 1.221m-248.355-8.994c-1.897-4.947 1.628-19.389 7.836-32.094l11.284-23.095h122.26l1.955 20.439c2.606 27.169-12.665 43.744-40.295 43.744-19.13 0-20.751-1.315-16.899-13.752 10.335-33.347 8.344-41.865-3.572-15.281l-13.014 29.033h-33.053c-23.451 0-34.052-2.609-36.502-8.994m61.908-3.231c2.308-3.733-7.065-6.113-24.091-6.113-15.325 0-27.866 2.751-27.866 6.113 0 3.361 10.84 6.112 24.091 6.112 13.25 0 25.791-2.751 27.866-6.112m69.078-7.334c4.034-4.034 7.334-9.34 7.334-11.789 0-7.178-18.567-23.684-26.417-23.481-3.961.102-2.387 2.991 3.497 6.415 11.887 6.927 14.14 21.114 4.317 27.187-3.511 2.166-10.387.618-15.285-3.445-4.896-4.063-8.9-4.757-8.9-1.545 0 14.864 22.938 19.17 35.454 6.658m-57.641-21.954c1.646-2.657-7.134-3.874-19.505-2.704-37.802 3.584-42.258 6.087-12.159 6.832 15.772.389 30.021-1.468 31.664-4.128m104.711 29.288c-2.079-3.362 1.886-6.113 8.809-6.113s12.585 2.751 12.585 6.113c0 3.361-3.961 6.112-8.809 6.112-4.844 0-10.506-2.751-12.585-6.112M361.883 177.71c-7.923-12.09-8.381-16.044-2.137-18.439 4.375-1.679 80.573-2.319 169.334-1.421l161.382 1.635-24.266 16.808-24.265 16.812H371.967Zm820.397-2.943-2.693-18.338h52.736c54.407 0 67.406 4.95 67.406 25.672 0 9.815-6.2 11.004-57.38 11.004h-57.376Zm25.755 3.056c0-5.044-2.751-9.169-6.112-9.169s-6.113 4.125-6.113 9.169 2.751 9.169 6.113 9.169c3.361 0 6.112-4.125 6.112-9.169m23.281 2.599c-1.207-3.616-4.804-6.575-7.999-6.575s-6.792 2.959-7.999 6.575c-1.203 3.612 2.395 6.57 7.999 6.57s9.202-2.958 7.999-6.57M7.243 154.528c1.977-5.153.767-14.664-2.697-21.129-4.571-8.544-4.03-14.987 1.977-23.564 6.953-9.925 6.942-13.613-.054-23.186C.374 78.32-.153 72.094 4.495 63.412c3.489-6.523 4.769-15.972 2.839-20.994-6.974-18.178 7.675-32.7 32.983-32.7 13.134 0 25.538-2.69 27.569-5.978 2.257-3.653 32.7-4.732 78.302-2.784 95.477 4.085 114.341 7.09 114.341 18.207 0 4.891.687 10.957 1.53 13.475.84 2.522-53.491 6.051-120.73 7.839L19.068 43.73l124.107 1.33 124.103 1.334 6.393 18.338c5.124 14.696 9.917 18.341 24.134 18.341 20.784 0 20.151 2.257 8.573-30.567-10.619-30.094-11.775-45.121-3.056-39.732 3.361 2.075 6.112 8.733 6.112 14.795 0 8.456 3.555 10.339 15.282 8.097 8.406-1.61 15.282-1.897 15.282-.644 0 1.258 2.558 11.205 5.687 22.111 4.997 17.425 4.27 19.824-5.996 19.824-7.421 0-13.109-5.677-15.591-15.565-2.148-8.562-5.088-14.388-6.527-12.949-1.442 1.443-.814 9.823 1.396 18.625 3.176 12.647 7.726 16.005 21.696 16.005 20.453 0 20.584-.614 8.729-40.008-4.921-16.347-7.737-30.931-6.258-32.41 3.162-3.161 6.32 4.619 16.972 41.851 6.57 22.972 10.604 27.827 24.447 29.444 19.617 2.29 21.39-8.14 7.897-46.393-8.388-23.771-8.225-24.691 4.877-27.195 7.457-1.424 23.742-1.403 36.189.051 18.261 2.133 22.63 5.179 22.63 15.787 0 7.228-5.503 16.575-12.226 20.776-15.997 9.991-15.489 18.945 1.425 25.203 13.061 4.83 13.126 5.201 1.53 8.537-6.669 1.919-28.63 6.887-48.803 11.044-46.619 9.605-51.962 14.024-51.962 42.963v23.706H184.619c-88.822 0-165.878 1.682-171.231 3.736-6.981 2.678-8.722 1.083-6.145-5.637m101.099-85.493c-7.846-7.847-15.805-1.781-9.994 7.617 2.249 3.641 6.89 4.888 10.313 2.773 4.176-2.581 4.071-6-.319-10.39m249.994 61.261v-20.017l52.513-11.513c41.35-9.068 53.615-14.235 57.689-24.302 3.554-8.795 5.291 1.054 5.557 31.53l.388 44.319H358.336Zm128.373-18.495c0-21.801 3.183-41.694 7.334-45.845 5.705-5.705 5.705-8.965 0-14.671-4.034-4.034-7.334-15.038-7.334-24.454 0-13.039 2.911-17.113 12.225-17.113 11.517 0 12.225 4.074 12.225 70.295 0 66.226-.708 70.3-12.225 70.3-10.931 0-12.225-4.074-12.225-38.512m36.676-31.788c0-64.513 1.003-71 10.699-69.132 9.412 1.813 10.699 10.114 10.699 69.132 0 59.023-1.287 67.323-10.699 69.137-9.696 1.868-10.699-4.619-10.699-69.137m33.194 62.224c-1.704-4.441-2.304-35.389-1.334-68.769 1.425-49.094 3.515-60.694 10.932-60.694 7.505 0 9.482 12.483 10.899 68.769 1.483 59.045.374 68.77-7.835 68.77-5.259 0-10.957-3.635-12.662-8.076m34.049-59.164c0-63.169.741-67.243 12.225-67.243 11.488 0 12.225 4.074 12.225 67.243 0 63.166-.737 67.24-12.225 67.24-11.484 0-12.225-4.074-12.225-67.24m36.679 30.574c0-25.748 2.973-40.535 9.456-47.022 8.541-8.537 8.541-10.477 0-19.912-12.003-13.264-12.236-30.883-.403-30.883 12.734 0 16.223 19.585 14.144 79.4-1.519 43.711-3.489 52.215-12.501 53.938-9.249 1.766-10.696-3.042-10.696-35.521m34.637 32.592c-5.218-5.219-5.374-105.958-.163-105.958 2.151 0 7.566 4.815 12.033 10.699 11.309 14.896 11.614 99.333.359 99.333-4.484 0-9.983-1.832-12.225-4.074Zm32.603-41.771c0-41.771 1.086-45.849 12.228-45.849 11.139 0 12.226 4.078 12.226 45.849s-1.087 45.845-12.226 45.845c-11.142 0-12.228-4.074-12.228-45.845m36.679.447c0-42.549 1.01-46.296 12.494-46.296 11.597 0 12.364 3.173 10.696 44.253-1.479 36.436-3.685 44.617-12.491 46.296-9.427 1.799-10.699-3.46-10.699-44.253m34.641 41.324c-2.242-2.243-4.078-22.874-4.078-45.849 0-37.693 1.196-41.771 12.226-41.771 11.142 0 12.229 4.078 12.229 45.849 0 34.128-2.083 45.845-8.152 45.845-4.484 0-9.986-1.832-12.225-4.074m32.602-41.771c0-41.771 1.087-45.849 12.225-45.849s12.226 4.078 12.226 45.849-1.087 45.845-12.226 45.845c-11.138 0-12.225-4.074-12.225-45.845m36.676.447c0-42.549 1.01-46.296 12.494-46.296 11.597 0 12.364 3.173 10.699 44.253-1.479 36.436-3.688 44.617-12.494 46.296-9.427 1.799-10.699-3.46-10.699-44.253m34.641 41.324c-8.308-8.308-4.372-85.876 4.742-93.438 4.848-4.023 9.907-16.052 11.244-26.73 1.338-10.677 2.875 12.913 3.413 52.416.767 56.271-.789 71.826-7.174 71.826-4.481 0-9.983-1.832-12.225-4.074m32.602-66.222c0-66.225.709-70.299 12.225-70.299s12.226 4.074 12.226 70.299c0 66.222-.709 70.296-12.226 70.296-11.516 0-12.225-4.074-12.225-70.296m36.679 0c0-64.517 1.004-71.004 10.696-69.136 9.412 1.813 10.699 10.114 10.699 69.136 0 59.019-1.287 67.319-10.699 69.133-9.692 1.868-10.696-4.619-10.696-69.133m33.195 62.22c-1.705-4.441-2.308-35.356-1.337-68.7 1.511-52.048 3.274-60.912 12.461-62.671 9.689-1.853 10.695 4.619 10.695 68.7 0 59.455-1.493 70.747-9.361 70.747-5.146 0-10.754-3.635-12.458-8.076m35.375-60.621c1.504-59.757 3.118-68.962 12.425-70.746 9.689-1.857 10.699 4.615 10.699 68.696 0 67.054-.65 70.747-12.429 70.747-11.858 0-12.345-3.137-10.695-68.697m35.349-1.599c0-64.517 1.003-71.004 10.699-69.136 9.413 1.813 10.696 10.114 10.696 69.136 0 59.019-1.283 67.319-10.696 69.133-9.696 1.868-10.699-4.619-10.699-69.133m33.195 62.22c-1.705-4.441-2.308-35.356-1.338-68.7 1.516-52.048 3.278-60.912 12.462-62.671 9.689-1.853 10.699 4.619 10.699 68.7 0 59.455-1.494 70.747-9.362 70.747-5.149 0-10.757-3.635-12.461-8.076m34.048-62.671c0-64.081 1.007-70.553 10.696-68.696 9.307 1.784 10.924 10.989 12.428 70.746 1.65 65.56 1.16 68.697-10.699 68.697-11.778 0-12.425-3.693-12.425-70.747m36.676 10.067c0-33.867 2.413-61.577 5.364-61.577 14.37 0 19.516 19.661 17.819 68.111-1.501 42.825-3.493 51.282-12.484 53.001-9.616 1.835-10.699-4.187-10.699-59.535m34.641 56.606c-5.829-5.826-5.059-99.845.814-99.845 13.632 0 19.563 17.982 19.563 59.295 0 33.114-2.104 44.624-8.152 44.624-4.481 0-9.983-1.832-12.225-4.074m32.602-35.659c0-21.852 1.152-39.736 2.559-39.736 16.909 0 21.892 9.893 21.892 43.447 0 31.948-1.381 36.022-12.226 36.022-10.971 0-12.225-4.074-12.225-39.733m36.68 8.755V88.354l18.338 13.057c18.985 13.519 25.686 33.002 9.169 26.66-5.953-2.282-9.169.16-9.169 6.96 0 6.803 3.216 9.245 9.169 6.959 5.044-1.933 9.169-.854 9.169 2.402s-8.254 5.921-18.338 5.921c-17.964 0-18.338-.633-18.338-30.978m-972.11-58.056c-8.485-22.314-7.5-27.111 5.55-27.111 10.622 0 18.748 15.057 18.967 35.15.152 13.984-18.466 7.879-24.517-8.039m91.694 0c-8.195-21.554-7.508-27.111 3.358-27.111 8.38 0 21.245 22.449 21.245 37.076 0 12.462-19.003 4.764-24.603-9.965m73.505-2.66c0-3.362 2.914-6.113 6.476-6.113 3.557 0 4.771 2.751 2.693 6.113-2.076 3.362-4.99 6.113-6.473 6.113s-2.696-2.751-2.696-6.113m180.334 0c-2.079-3.362-.865-6.113 2.693-6.113 3.561 0 6.476 2.751 6.476 6.113s-1.214 6.113-2.697 6.113c-1.482 0-4.397-2.751-6.472-6.113M469.912 31.112c.065-13.45 1.319-18.229 2.78-10.626 1.464 7.602 1.406 18.607-.124 24.45-1.53 5.844-2.725-.374-2.656-13.824m207.827 9.514c-7.567-6.312-13.756-12.988-13.756-14.842 0-1.849 48.138-3.434 106.975-3.521 83.208-.12 106.979 1.592 106.979 7.708 0 19.257-14.762 22.535-100.557 22.332-74.867-.178-87.652-1.676-99.641-11.677"/></svg>