<svg xmlns="http://www.w3.org/2000/svg" width="4255.713" height="1000" viewBox="0 0 4255.713 1000"><path d="M4092.314 949.016c8.115-113.382 15.194-444.548 10.117-473.483l-5.429-30.952 49.951 2.402 49.955 2.402 2.53 44.751c1.395 24.615-3.209 76.005-10.227 114.204-15.918 86.616-36.967 282.319-37.083 344.754l-.109 46.906h-63.38Zm72.461-4.081c11.451-159.201 22.521-260.005 37.683-343.191 9.259-50.795 14.98-106.183 12.712-123.085-3.856-28.739-2.878-30.491 15.122-27.049 28.913 5.527 33.125 45.597 12.828 122.14-20.642 77.869-50.289 277.762-50.289 339.085 0 48.229-10.707 87.165-23.964 87.165-4.895 0-6.498-21.598-4.092-55.065m-143.313 34.776c-20.228-5.557-58.768-12.487-85.653-15.395-26.882-2.911-58.052-6.847-69.271-8.747-17.858-3.031-265.199-29.909-379.311-41.219-22.434-2.224-73.825-7.926-114.2-12.672-56.646-6.658-101.258-5.92-195.3 3.223-109.584 10.656-123.841 10.569-141.296-.868-11.731-7.686-42.148-59.037-76.873-129.779-31.606-64.387-60.708-119.07-64.677-121.523-16.608-10.266-4.255-117.696 13.534-117.696 5.803 0 29.684 16.332 53.066 36.291 32.26 27.536 47.673 35.491 63.884 32.969 86.708-13.472 80.032-9.859 89.79-48.596 4.989-19.824 9.074-51.063 9.074-69.42 0-30.857 1.534-33.169 20.322-30.654 12.589 1.687 34.637 19.636 57.954 47.183 20.7 24.454 62.638 70.317 93.191 101.919l55.555 57.456 214.819 14.334c118.15 7.882 237.157 16.426 264.461 18.988l49.642 4.655 78.836-95.218c70.288-84.894 78.832-98.707 78.832-127.425 0-21.103 3.682-32.213 10.677-32.213 33.315 0 56.566 59.259 29.034 73.992-9.613 5.146-14.889 16.332-14.293 30.301.726 16.935 1.867 18.306 4.873 5.833 2.159-8.976 7.628-19.988 12.156-24.472 5.535-5.488 6.589 38.58 3.22 134.594-2.755 78.513-4.746 170.82-4.419 205.13.621 65.233-6.752 121.875-15.641 120.145-2.864-.556-21.758-5.556-41.986-11.116m40.852-204.037c0-12.076-4.674-20.394-11.462-20.394-9.104 0-10.536-10.496-6.96-50.98 2.475-28.041 7.657-52.216 11.513-53.72 11.942-4.659-1.341-17.659-18.043-17.659-13.443 0-15.845 5.855-15.904 38.748-.032 21.31-2.391 58.019-5.218 81.572l-5.143 42.825h25.61c21.874 0 25.607-2.969 25.607-20.392m-342.607-25.377c0-21.22-11.596-23.618-153.568-31.788l-84.236-4.848 2.66 18.771c2.3 16.223 9.863 20.031 55.686 28.048 29.16 5.102 81.471 9.056 116.238 8.791 60.117-.461 63.22-1.392 63.22-18.974m-141.328 5.168c-26.141-3.474-51.834-10.895-57.104-16.492-7.632-8.111 7.766-9.042 75.896-4.59 47.011 3.075 87.081 7.196 89.051 9.162 12.861 12.865-49.163 19.719-107.843 11.92m-840.94 140.529c-3.366-3.365-8.566-6.283-11.557-6.487-18.073-1.228-91.086-24.014-91.086-28.426 0-2.926-20.192-9.834-44.868-15.358-24.676-5.52-44.863-13.665-44.863-18.095 0-4.426-3.195-6.08-7.094-3.666-5.895 3.641-104.522-24.64-114.196-32.752-1.654-1.384 3.852-19.231 12.236-39.659 9.892-24.102 19.09-35.684 26.198-32.987 6.026 2.286 19.905 6.403 30.84 9.147 15.725 3.947 18.803 8.635 14.715 22.397-4.688 15.772-4.136 16.114 5.865 3.638 7.617-9.496 18.073-12.353 33.707-9.202 18.385 3.707 21.772 7.85 17.931 21.929-4.39 16.106-3.903 16.328 6.785 3.082 15.936-19.752 24.123-17.851 17.582 4.081-5.411 18.156-5.324 18.178 8.275 2.038 12.818-15.216 13.414-15.274 8.813-.886-4.267 13.359-3.18 13.977 8.115 4.604 7.697-6.389 15.296-7.697 18.538-3.194 3.023 4.197 10.084 8.002 15.695 8.449 5.608.447 15.7 1.367 22.43 2.039s12.527 7.65 12.88 15.5c.385 8.529 2.3 10.168 4.761 4.077 4.997-12.381 27.227-13.653 27.227-1.555 0 4.75 3.249 6.628 7.217 4.175 5.833-3.605 55.054 8.57 64.532 15.962 3.994 3.114-33.805 77.269-39.387 77.269-2.846 0-7.926-2.755-11.291-6.12m-249.725-161.106c0-4.488-3.558-2.653-7.908 4.078s-7.908 15.907-7.908 20.395c0 4.484 3.558 2.649 7.908-4.081 4.35-6.727 7.908-15.907 7.908-20.392m-26.809-5.607c-2.602-6.509-4.536-4.576-4.928 4.928-.353 8.598 1.573 13.417 4.285 10.706 2.711-2.711 3.001-9.747.643-15.634m327.434 133.235c7.74-17.287 24.788-40.648 37.878-51.91 20.355-17.506 23.804-26.344 23.804-60.974 0-56.874-15.427-89.72-46.808-99.656-160.484-50.82-302.489-90.85-310.865-87.637-29.165 11.193-86.835 152.154-62.25 152.154 10.187 0 2.747 24.836-13.948 46.55l-13.839 17.997-124.204-38.991c-148.423-46.594-170.166-62.835-184.401-137.716l-5.04-26.512h73.006v31.545c0 28.012 3.834 34.081 34.245 54.207 44.409 29.389 91.275 34.408 128.9 13.806 34.997-19.159 73.929-79.457 77.734-120.385 1.552-16.699 6.084-33.623 10.067-37.606 4.226-4.227 100.564 22.052 230.954 62.991 197.611 62.046 226.321 73.213 246.138 95.749 24.777 28.183 28.531 60.461 13.468 115.86-13.832 50.871-70.252 101.967-112.593 101.967-15.933 0-15.987-.745-2.246-31.439m807.712-200.26-233.777-17.193-68.039-72.672c-69.482-74.217-112.274-126.349-112.677-137.284-.124-3.362 185.015-6.116 411.426-6.116 398.642 0 411.921.497 420.098 15.779 4.644 8.678 8.446 21.899 8.446 29.386s-35.328 57.281-78.506 110.66c-58.648 72.498-82.895 96.745-95.847 95.84-9.539-.665-122.543-8.944-251.124-18.4m-760.792-34.63c-17.607-6.134-33.481-12.618-35.273-14.409s4.717-32.802 14.46-68.915c9.744-36.112 16.223-70.146 14.392-75.634-1.828-5.484-11.92 22.016-22.423 61.109-10.506 39.092-22.187 72.984-25.955 75.314-9.474 5.854-96.723-22.397-96.723-31.319 0-3.976 9.347-44.097 20.769-89.157s19.435-85.922 17.807-90.807c-1.628-4.884-13.268 30.008-25.864 77.539-12.6 47.527-25.385 90.425-28.412 95.32-3.692 5.978-53.822-6.771-152.536-38.795-80.868-26.235-168.283-50.355-194.257-53.6l-47.222-5.902 5.655-82.971c9.358-137.28 15.405-172.833 29.015-170.606 6.625 1.087 36.49 8.428 66.37 16.318 51.972 13.722 54.516 15.558 58.896 42.509 2.514 15.492 3.03 55.871 1.148 89.73-3.02 54.251-2.595 56.719 3.605 20.777 3.87-22.434 7.359-61.893 7.752-87.692.392-25.795 2.758-46.903 5.258-46.903s20.897 4.118 40.881 9.148c43.908 11.055 48.312 22.793 41.993 111.877-2.661 37.464-1.839 52.706 2.049 38.039 3.569-13.458 6.923-49.247 7.454-79.53.53-30.287 3.718-54.771 7.083-54.411s24.472 6.796 46.906 14.304l40.786 13.647-.894 69.31c-.531 41.291 1.712 62.715 5.546 52.997 3.539-8.973 6.694-36.81 7.01-61.861s2.668-47.636 5.226-50.195c6.789-6.792 126.211 38.235 133.744 50.428 4.045 6.542 8.268 7.316 11.491 2.101 4.176-6.756 81.907 15.546 93.304 26.772 1.402 1.381-3.133 46.023-10.081 99.206-6.953 53.182-13.607 108.105-14.791 122.053l-2.152 25.362Zm-91.388-118.753c-6.781-10.975-18.054 12.491-18.447 38.398-.203 13.392 1.948 12.262 12.026-6.312 6.748-12.443 9.637-26.882 6.421-32.086m-153.612-51.333c7.381-17.945 9.598-28.956 4.931-24.472-4.669 4.488-14.525 22.841-21.906 40.786-7.381 17.949-9.598 28.961-4.932 24.473 4.67-4.485 14.53-22.841 21.907-40.787m66.421 18.865c-2.602-6.508-4.535-4.575-4.928 4.928-.352 8.599 1.574 13.418 4.285 10.707 2.711-2.712 2.998-9.747.643-15.635m-169.264-173.85c.015-4.489-5.36-1.032-11.949 7.675-6.585 8.707-11.844 21.558-11.688 28.55.313 13.842 23.582-21.82 23.637-36.225m-219.699 311.32c0-2.584 9.176-18.222 20.395-34.75 13.039-19.218 20.391-41.404 20.391-61.545 0-27.946 2.238-31.49 19.911-31.49 27.369 0 32.003 11.383 16.692 40.99-12.316 23.818-77.389 96.799-77.389 86.795m694.825-62.141c-22.972-18.156-46.07-33.012-51.333-33.012-6.937 0-8.071-16.125-4.117-58.663 3.002-32.264 6.407-59.618 7.573-60.785s44.842 9.631 97.051 23.993c91.922 25.29 95.051 26.893 98.714 50.587 2.079 13.461-2.224 42.829-9.565 65.259l-13.345 40.786-41.607 2.424c-37.991 2.213-45.234-.444-83.371-30.589m-2093.445 7.774c-1.195-2.246-4.448-13.628-7.228-25.298-5.001-20.976-5.746-21.172-66.305-17.284-40.459 2.595-65.179.665-72.839-5.691-7.912-6.57-13.269-6.908-16.877-1.068-7.647 12.37-118.525 11.215-118.525-1.236 0-7.613-2.177-7.613-9.79 0-12.371 12.371-55.468 12.861-55.468.632 0-6.407-3.068-6.61-10.216-.676-6.596 5.474-86.809 7.996-226.364 7.116L69.336 514.64l-2.606-18.352c-2.994-21.093-56.191-18.705 496.121-22.245 168.243-1.076 312.319-2.478 320.172-3.111 12.277-.992 14.275-10.063 14.275-64.782 0-38.609 3.849-67.475 9.787-73.414 5.386-5.385 27.605-9.79 49.381-9.79h39.594l-1.363 83.611c-.781 47.873 2.584 92.329 7.868 104.006 8.283 18.294 8.744 17.16 4.485-11.001-2.613-17.266-1.759-29.542 1.89-27.285 3.652 2.26 5.346-26.747 3.761-64.455l-2.875-68.562h21.231c21.06 0 21.231.508 21.231 63.899 0 35.146 2.751 66.61 6.116 69.921 3.365 3.314 10.736 17.691 16.376 31.952l10.259 25.926-4.299-24.473c-11.826-67.319-14.039-159.187-4.121-171.132 14.474-17.444 86.336-17.059 93.074.498 8.758 22.819 5.302 114-4.699 124.001-5.31 5.309-7.083 12.221-3.943 15.361 14.384 14.384 24.265-16.506 22.521-70.379l-1.865-57.416h66.353v114.2h-25.345c-19.831 0-24.258 2.827-20.358 12.996 2.744 7.145 7.206 21.83 9.914 32.627 2.711 10.801 7.948 19.636 11.633 19.636 3.688 0 3.289-11.906-.883-26.457-4.176-14.551-7.581-26.482-7.574-26.511.011-.029 12.571-.945 27.914-2.039 24.963-1.773 28.463.578 33.242 22.339 2.94 13.377 9.125 26.66 13.744 29.517 7.635 4.717 5.266-9.522-7.058-42.418-1.948-5.201 8.377-9.3 25.003-9.925 25.087-.945 28.925 1.69 33.616 23.044 7.396 33.678 20.352 38.748 15.017 5.877-4.074-25.112-2.737-27.064 19.751-28.776 20.839-1.588 25.89 2.333 37.072 28.794l12.949 30.636-4.172-28.554c-3.925-26.849-2.744-28.644 19.85-30.185 20.591-1.403 25.853 2.682 36.803 28.55l12.777 30.189-4.593-30.691c-3.882-25.926-2.551-29.905 8.569-25.639 7.436 2.853 13.163.945 13.163-4.382 0-18.393 27.801 5.781 38.493 33.463l10.525 27.249-4.252-29.346c-4.067-28.059-3.169-29.375 20.471-30.047 20.74-.589 26.613 3.812 36.429 27.303 14.798 35.422 21.946 36.349 11.967 1.552-4.176-14.551-7.588-26.849-7.588-27.329s22.023-1.534 48.941-2.34l48.945-1.469v47.15l-.004 47.153h-420.875c-231.485 0-421.857-1.835-423.049-4.077m64.528-68.504c-3.034-16.161-9.168-29.386-13.635-29.386-4.466 0-5.88 5.847-3.136 12.996 2.74 7.145 7.246 22.001 10.008 33.009 7.607 30.305 13.054 16.917 6.763-16.619m220.245 0c-3.031-16.161-9.169-29.386-13.636-29.386s-5.876 5.847-3.136 12.996c2.744 7.145 7.247 22.001 10.012 33.009 7.603 30.305 13.051 16.917 6.76-16.619m-199.472-21.227c0-4.485-3.67-8.159-8.155-8.159-4.488 0-8.158 3.674-8.158 8.159 0 4.488 3.67 8.158 8.158 8.158 4.485 0 8.155-3.67 8.155-8.158m146.831 0c0-4.485-3.67-8.159-8.155-8.159-4.488 0-8.159 3.674-8.159 8.159 0 4.488 3.671 8.158 8.159 8.158 4.485 0 8.155-3.67 8.155-8.158m-124.005-70.052c1.338-9.366-2.783-21.358-9.161-26.65-23.553-19.548-56.497 13.396-36.952 36.949 13.831 16.663 43.199 10.103 46.113-10.299m-43.377 4.535c-3.169-5.128-1.922-13.159 2.769-17.851 10.961-10.96 36.52-1.399 32.061 11.997-4.539 13.635-27.623 17.516-34.83 5.854m213.801 3.227c5.451-14.202-5.168-36.803-19.544-41.593-4.765-1.591-14.591 3.035-21.834 10.278-9.983 9.983-11.128 16.971-4.736 28.913 10.281 19.21 39.089 20.711 46.114 2.402m-32.653-.08c-11.545-11.545-5.011-27.358 11.306-27.358 11.4 0 16.052 4.43 14.275 13.599-2.914 15.013-16.837 22.503-25.581 13.759m962.386 146.664c-2.99-2.991-5.436-21.347-5.436-40.786v-35.35h73.413c40.379 0 73.418 2.072 73.418 4.605s-11.016 13.871-24.473 25.195c-13.461 11.328-24.472 27.609-24.472 36.182 0 13.399-6.113 15.591-43.505 15.591-23.931 0-45.954-2.446-48.945-5.437m-323.57-90.879-28.55-5.648v-63.95c0-95.92-1.679-95.117 198.941-95.117 177.848 0 197.574-4.775 195.739-47.367-.734-17.048-1.846-18.317-4.957-5.655-8.784 35.731-13.548 36.708-179.04 36.708-211.683 0-222.919 5.728-222.919 113.666v57.634h-449.396l2.413-55.061 2.413-55.061 171.299-2.046c163.039-1.945 171.994-2.875 185.578-19.258 16.394-19.766 18.604-62.242 4.808-92.514l-9.463-20.777h-356.303v-57.768l438.453 2.845 438.454 2.842 65.258 20.933 65.255 20.929-.654 35.698c-1.305 71.037-13.09 208.481-18.647 217.475-6.559 10.612-451.311 20.86-498.682 11.488Zm-66.872-64.79c1.501-26.093-.887-42.825-6.117-42.825-4.735 0-8.583 16.459-8.583 36.709v36.705h-97.89v-36.705c0-31.272-2.417-36.709-16.314-36.709s-16.314 5.437-16.314 36.709c0 31.268-2.416 36.705-16.313 36.705s-16.314-5.437-16.314-36.705c0-31.272-2.42-36.709-16.317-36.709s-16.314 5.437-16.314 36.709c0 31.268-2.417 36.705-16.314 36.705s-16.314-5.437-16.314-36.705c0-31.272-2.416-36.709-16.317-36.709-13.897 0-16.314 5.437-16.314 36.709v36.705h-53.022c-30.549 0-53.022 3.521-53.022 8.307 0 5.466 64.935 7.559 189.659 6.12l189.656-2.191Zm519.6 18.738c0-13.665-11.665-17.608-89.731-30.349-98.914-16.14-134.594-13.694-134.594 9.223 0 26.083 19.737 32.344 110.605 35.103 117.642 3.568 113.72 4.048 113.72-13.977m-230.053 6.701c2.835-2.831 1.549-11.884-2.856-20.115-13.501-25.232 23.033-42.901 74.166-35.869l41.545 5.716-2.58-31.431-2.58-31.429-120.447-2.26c-129.925-2.435-157.599 3.514-150.08 32.26 4.103 15.689 3.627 15.773-11.502 2.086-13.028-11.793-19.37-12.647-36.367-4.902-26.031 11.862-32.925 29.567-21.379 54.908 6.686 14.675 15.499 19.872 33.703 19.872 13.555 0 24.647 3.67 24.647 8.159 0 8.903 164.979 11.76 173.734 3.005Zm-157.435-12.723c.007-3.1 3.965-8.075 8.791-11.059s7.581-20.635 6.12-39.227l-2.656-33.805h122.245c109.941 0 122.526 1.436 124.997 14.275 2.369 12.294-3.939 14.275-45.529 14.275-51.303 0-82.335 18.789-72.661 43.991 3.787 9.867-8.25 12.433-68.366 14.581-40.128 1.435-72.952.069-72.941-3.031m-62.315-27.053c-2.834-7.392.2-18.796 6.745-25.344 16.325-16.321 40.805-5.761 37.665 16.248-3.093 21.681-36.92 28.612-44.41 9.096m29.702-12.174c0-4.488-1.617-8.159-3.598-8.159-1.977 0-5.865 3.671-8.638 8.159-2.773 4.484-1.152 8.158 3.598 8.158 4.753 0 8.638-3.674 8.638-8.158m-473.12 16.313c0-17.945-3.67-32.627-8.158-32.627-4.485 0-8.155 14.682-8.155 32.627 0 17.946 3.67 32.632 8.155 32.632 4.488 0 8.158-14.686 8.158-32.632m62.552 11.604c2.714-7.079-1.073-18.876-8.414-26.22-12.363-12.364-14.34-12.364-26.703 0-16.677 16.677-9.024 39.089 13.352 39.089 9.256 0 19.05-5.789 21.765-12.869m-29.924-11.604c0-4.484 3.67-8.155 8.159-8.155 4.488 0 8.158 3.671 8.158 8.155 0 4.489-3.67 8.159-8.158 8.159-4.489 0-8.159-3.67-8.159-8.159m299.113 11.604c2.714-7.079-1.072-18.876-8.413-26.22-12.364-12.364-14.341-12.364-26.704 0-16.677 16.677-9.02 39.089 13.352 39.089 9.256 0 19.05-5.789 21.765-12.869m-38.079-11.604c0-4.484 5.506-8.155 12.236-8.155s12.236 3.671 12.236 8.155c0 4.489-5.505 8.159-12.236 8.159-6.73 0-12.236-3.67-12.236-8.159m640.345-6.795c0-14.755-15.968-12.062-19.133 3.227-1.763 8.504 1.293 12.232 8.158 9.946 6.037-2.013 10.975-7.94 10.975-13.173m12.237-95.168c0-6.731-5.51-12.236-12.237-12.236-6.73 0-12.236 5.505-12.236 12.236 0 6.727 5.506 12.233 12.236 12.233 6.727 0 12.237-5.506 12.237-12.233m-342.607-24.472c0-6.731-5.505-12.237-12.236-12.237-6.73 0-12.236 5.506-12.236 12.237 0 6.726 5.506 12.236 12.236 12.236s12.236-5.51 12.236-12.236m166.877 4.64c6.033-9.761-9.314-19.431-20.18-12.716-9.122 5.637-3.133 20.312 8.293 20.312 3.954 0 9.303-3.42 11.887-7.596m-258.476-10.248c-5.04-15.125-22.604-17.637-22.604-3.231 0 7.105 5.815 12.916 12.916 12.916 7.105 0 11.466-4.357 9.688-9.685m43.087-2.551c-.64-12.109-18.89-9.881-23.124 2.82-2.286 6.861 1.443 9.918 9.947 8.155 7.486-1.548 13.413-6.487 13.177-10.975m-359.349-82.056c0-13.457-12.894-15.732-20.395-3.594-6.65 10.761 3.1 26.035 12.8 20.042 4.175-2.58 7.595-9.983 7.595-16.448m189.383-5.091c-12.461-12.462-21.656-3.267-14.744 14.744 4.082 10.633 7.618 11.687 14.875 4.43 7.257-7.258 7.225-11.819-.131-19.174m397.937 5.091c0-13.457-12.891-15.732-20.392-3.594-6.654 10.761 3.1 26.035 12.8 20.042 4.175-2.58 7.592-9.983 7.592-16.448m-774.937 5.044c0-11.015-14.871-18.654-24.607-12.635-4.561 2.816-6.178 8.54-3.598 12.715 6.124 9.911 28.205 9.845 28.205-.083Zm577.293-2.013c-5.041-15.125-22.601-17.633-22.601-3.227 0 7.105 5.811 12.916 12.916 12.916s11.462-4.361 9.685-9.689M5.437 456.181c-8.679-8.678-6.28-115.435 2.722-120.999 5.178-3.202 8.155 18.949 8.155 60.698 0 65.927-.803 70.375-10.877 60.301m27.19-54.741c0-70.804 7.476-80.627 58.539-76.953l35.27 2.536 2.369 67.298 2.37 67.297H32.627Zm71.786 9.605c14.635-14.635 11.869-29.309-7.479-39.663-22.695-12.149-44.064 6.956-36.044 32.228 6.015 18.944 28.219 22.739 43.523 7.435m-33.434-3.525c-12.847-12.847-5.223-28.535 12.632-26.002 10.096 1.435 18.356 8.064 18.356 14.732 0 12.96-21.485 20.773-30.988 11.27m75.852-7.079c0-59.822.454-61.181 20.391-61.181 19.941 0 20.395 1.359 20.395 61.181 0 59.818-.454 61.177-20.395 61.177-19.937 0-20.391-1.359-20.391-61.177m57.1.999c0-70.804 7.471-80.627 58.539-76.953l35.269 2.54 2.37 67.297 2.369 67.298h-98.547Zm79.926-1.715c1.341-9.366-2.784-21.358-9.162-26.65-23.553-19.548-56.497 13.396-36.949 36.949 13.828 16.663 43.196 10.103 46.111-10.299m-43.378 4.535c-3.169-5.128-1.922-13.159 2.77-17.851 10.964-10.96 36.523-1.399 32.06 11.997-4.539 13.635-27.623 17.516-34.83 5.854m77.655-3.819c0-59.822.451-61.181 20.391-61.181 19.941 0 20.395 1.359 20.395 61.181 0 59.818-.454 61.177-20.395 61.177s-20.391-1.359-20.391-61.177m62.893 56.096c-9.853-9.852-6.513-113.291 3.997-123.801 5.382-5.385 27.336-9.79 48.785-9.79 45.801 0 49.912 7.701 45.889 85.991l-2.497 48.603-45.191 2.395c-24.854 1.32-47.796-.214-50.983-3.398m73.253-49.05c5.452-14.202-5.167-36.803-19.541-41.593-4.768-1.591-14.594 3.035-21.834 10.278-9.986 9.983-11.131 16.971-4.738 28.913 10.281 19.21 39.089 20.715 46.113 2.402m-32.653-.08c-11.545-11.545-5.011-27.358 11.306-27.358 11.404 0 16.052 4.43 14.275 13.599-2.911 15.013-16.837 22.503-25.581 13.759m69.489-4.928c2.199-54.268 3.911-59.353 20.751-61.744 17.648-2.507 18.356-.229 18.356 59.139 0 60.708-.349 61.748-20.751 61.748-20.544 0-20.729-.596-18.356-59.143m65.28-7.74 2.377-67.712h89.728V457.54l-47.241 2.457-47.24 2.457Zm70.856 14.892c19.064-22.971-13.912-55.947-36.883-36.883-11.79 9.784-14.984 33.431-5.764 42.647 9.216 9.22 32.863 6.026 42.647-5.764m-34.321-2.224c-11.546-11.545-5.012-27.358 11.306-27.358 11.4 0 16.052 4.43 14.274 13.599-2.914 15.013-16.837 22.507-25.58 13.763Zm75.964-6.966c0-55.741 1.45-61.178 16.314-61.178s16.314 5.437 16.314 61.178-1.45 61.181-16.314 61.181-16.314-5.441-16.314-61.181m57.1 1.406c0-71.244 7.41-81.038 58.539-77.36l35.27 2.54V457.54l-46.903 2.45-46.906 2.446Zm71.786 9.198c14.634-14.635 11.865-29.309-7.479-39.663-22.696-12.149-44.064 6.959-36.044 32.228 6.011 18.944 28.219 22.739 43.523 7.435m-33.434-3.525c-12.847-12.843-5.223-28.535 12.632-25.999 10.096 1.432 18.352 8.061 18.352 14.729 0 12.96-21.481 20.773-30.984 11.27m75.852-7.079c0-59.819.45-61.178 20.391-61.178s20.395 1.359 20.395 61.178c0 59.821-.455 61.181-20.395 61.181s-20.391-1.36-20.391-61.181m326.888-80.849c-16.506-19.89-2.464-29.274 43.795-29.274 39.039 0 43.803 1.927 47.077 19.051 3.406 17.818.905 19.166-38.533 20.762-29.218 1.181-45.299-2.057-52.339-10.539m110.78-2.762c-2.082-3.366 71.113-6.12 162.658-6.12s166.448 2.754 166.451 6.12c0 3.365-73.195 6.116-162.661 6.116-89.465 0-164.365-2.755-166.448-6.116m182.282-53.433v-46.496h28.55c28.401 0 28.55.196 28.55 36.709 0 32.867-1.962 36.708-18.759 36.708-10.321 0-23.168 4.405-28.554 9.787-7.614 7.614-9.787-.541-9.787-36.705Zm73.414-.633v-45.863l26.511.127c38.26.179 48.523 9.555 45.471 41.517-2.29 23.993-5.913 28.067-27.115 30.458-13.461 1.519-29.062 6.556-34.67 11.193-7.948 6.578-10.197-1.675-10.197-37.428ZM38.068 284.878c-2.991-2.987-5.441-33.899-5.441-68.685v-63.249l50.984-5.026c28.041-2.766 61.995-1.876 75.456 1.977 24.367 6.97 24.472 7.264 24.472 67.595 0 55.156-1.464 60.592-16.317 60.592-14.591 0-16.564-6.236-18.709-59.138-3.259-80.388-17.996-75.376-17.996 6.116v65.258H87.009c-23.927 0-45.95-2.445-48.941-5.436Zm71.044-53.546c6.839-10.866 5.775-17.24-4.612-27.626-24.436-24.436-60.897 7.501-38.867 34.044 12.687 15.282 31.566 12.495 43.479-6.418m-41.219-3.016c-6.407-16.695 13.683-29.724 27.783-18.022 7.959 6.607 8.286 11.528 1.312 19.926-12.279 14.799-22.957 14.097-29.095-1.904m139.461 50.995c-2.322-6.051-3.125-36.262-1.784-67.134l2.438-56.13 40.79-6.854c22.43-3.772 56.536-4.513 75.787-1.653l35 5.204-2.373 62.671c-2.137 56.438-3.994 62.667-18.687 62.667-14.591 0-16.564-6.236-18.708-59.138-3.26-80.388-17.997-75.376-17.997 6.116v65.258h-45.121c-30.342 0-46.507-3.605-49.345-11.004Zm73.057-47.979c6.844-10.866 5.779-17.24-4.608-27.626-24.439-24.436-60.897 7.501-38.867 34.044 12.683 15.282 31.566 12.495 43.475-6.418m-35.694 2.054c-10.877-6.876-10.877-9.097 0-19.97 15.042-15.042 37.253-4.008 29.996 14.9-5.724 14.911-12.6 16.074-29.996 5.07m139.599 45.812c-6.189-7.457-8.955-32.606-7.432-67.515l2.427-55.636 40.786-6.854c22.434-3.772 56.388-4.539 75.456-1.704l34.67 5.157v63.645c0 60.835-.81 63.601-18.356 62.718-16.964-.858-18.636-5.557-22.088-62.104l-3.736-61.181-4.423 65.258-4.419 65.259-41.513 2.42c-28.79 1.676-44.533-1.221-51.372-9.463m70.924-55.475c1.911-16.532-1.843-23.117-15.693-27.511-24.243-7.697-43.017 15.834-30.817 38.627 12.581 23.506 43.359 16.147 46.51-11.116m-36.48 4.869c-6.799-17.72 10.459-34.379 22.815-22.026 10.441 10.441 3.972 34.808-9.241 34.808-4.768 0-10.877-5.753-13.574-12.782m141.739 56.653c-3.194-3.191-5.807-34.212-5.807-68.936v-63.133l40.63-5.589c22.346-3.071 55.381-3.093 73.414-.047l32.787 5.538v62.806c0 56.958-1.519 62.918-16.314 64.034-14.962 1.126-16.314-3.802-16.314-59.444 0-80.377-14.965-78.262-18.01 2.547l-2.384 63.216-41.099 2.406c-22.605 1.323-43.712-.207-46.903-3.398m67.178-47.429c7.334-8.838 7.446-15.965.447-29.041-10.394-19.424-30.734-18.999-43.265.902-18.872 29.97 20.064 55.559 42.818 28.139m-37.614-9.224c-6.799-17.72 10.459-34.379 22.816-22.026 10.44 10.441 3.972 34.808-9.242 34.808-4.768 0-10.877-5.753-13.574-12.782m141.373 56.29c-2.991-2.991-5.441-33.736-5.441-68.319v-62.878l25.494-5.099c14.017-2.805 36.043-5.098 48.941-5.098h23.451v146.83h-43.504c-23.928 0-45.95-2.445-48.941-5.436m71.04-53.55c6.843-10.866 5.778-17.24-4.612-27.626-24.436-24.436-60.894 7.501-38.863 34.044 12.683 15.282 31.566 12.495 43.475-6.418m-33.656 4.187c-13.839-4.971-12.908-23.985 1.443-29.495 16.63-6.381 32.46 14.41 19.054 25.014-5.666 4.481-14.886 6.498-20.497 4.481m133.915 49.359c-2.991-2.991-5.437-32.355-5.437-65.258 0-77.433-14.863-77.993-17.996-.68-2.144 52.906-4.117 59.142-18.712 59.142-14.679 0-16.55-6.225-18.676-62.137l-2.362-62.133 25.813-5.164c14.199-2.838 49.218-5.16 77.818-5.16h52.001v146.83H951.68c-23.927 0-45.954-2.449-48.945-5.44m71.044-53.549c6.843-10.863 5.779-17.237-4.611-27.627-24.437-24.436-60.894 7.501-38.864 34.048 12.683 15.282 31.566 12.495 43.475-6.421m-34.797-1.109c-7.05-8.496-6.236-13.66 3.427-21.677 15.591-12.942 32.987.701 25.567 20.046-6.044 15.746-16.779 16.35-28.994 1.631m139.406 50.308c-12.021-12.022-13.224-117.641-1.421-124.935 4.601-2.846 28.463-7.246 53.023-9.779l44.656-4.609v61.654c0 33.907-2.227 67.457-4.953 74.555-6.044 15.75-76.27 18.149-91.305 3.114m70.22-56.809c1.911-16.528-1.847-23.113-15.693-27.511-24.247-7.693-43.017 15.834-30.817 38.631 12.577 23.503 43.355 16.147 46.51-11.12m-36.48 4.87c-6.8-17.717 10.459-34.379 22.815-22.023 10.441 10.441 3.972 34.808-9.241 34.808-4.769 0-10.878-5.753-13.574-12.785m152.246 34.808c0-41.553 10.575-46.496 99.521-46.496h79.94v73.417h-179.461ZM0 220.979c0-35.346 3.445-61.178 8.159-61.178 4.71 0 8.155 25.832 8.155 61.178 0 35.349-3.445 61.181-8.155 61.181C3.445 282.16 0 256.328 0 220.979m1016.135 54.941c-2.551-2.551-4.637-31.555-4.637-64.455 0-58.634.414-59.822 20.737-59.822 20.613 0 20.722.374 18.356 62.464-1.952 51.176-4.863 62.827-16.103 64.455-7.545 1.097-15.805-.095-18.353-2.642m166.666-59.019v-57.1h65.259v114.2h-65.259ZM58.652 121.054c2.525-13.119 19.897-14.377 214.727-15.511 116.588-.676 217.243 1.683 223.683 5.248 6.436 3.565 18.094 2.49 25.904-2.391 10.314-6.44 19.875-6.284 34.91.567 12.937 5.891 22.528 6.487 25.559 1.584 6.403-10.364 90.461-10.114 109.973.327 10.215 5.47 16.96 5.47 20.337 0 6.646-10.753 90.461-10.553 110.674.266 12.661 6.777 15.78 5.763 15.78-5.128 0-12.164 8.689-12.96 83.596-7.646 45.979 3.259 90.425 9.576 98.766 14.042 10.331 5.528 18.003 5.273 24.076-.8 11.731-11.731 83.549-11.451 105.721.415 13.076 6.999 18.204 6.999 20.537 0 4.153-12.458 36.552-11.895 50.082.868 8.646 8.159 11.557 8.159 14.547 0 4.823-13.152 83.877-13.595 112.339-.628 16.063 7.319 23.248 7.319 30.567 0 12.444-12.444 89.935-12.404 102.393.058 7.395 7.392 14.129 7.214 29.055-.778 15.874-8.493 22.815-8.388 37.937.574 14.591 8.65 19.29 8.813 22.201.774 2.827-7.799 53.207-10.197 214.23-10.197 184.455 0 211.151 1.599 215.487 12.905 2.725 7.097 4.953 14.438 4.953 16.314s-438.926 3.412-975.393 3.412c-924.551 0-975.247-.745-972.641-14.275m1589.565-59.775c9.834-13.806 25.682-28.27 35.222-32.136 26.213-10.63 245.709-33.834 267.739-28.303 16.332 4.099 63.663 63.786 63.663 80.282 0 2.896-86.511 5.262-192.25 5.262H1630.34Zm68.885-3.332c0-17.996-25.359-26.958-38.656-13.661-13.712 13.712-.189 35.379 20.267 32.475 12.033-1.708 18.389-8.213 18.389-18.814m-31.49 6.465c-9.187-9.187-5.596-18.814 7.018-18.814 6.73 0 12.236 3.456 12.236 7.679 0 10.285-12.738 17.651-19.254 11.135m270.523-32.05c3.053-21.408-21.249-32.66-36.85-17.062-6.186 6.189-8.693 17.328-5.669 25.203 7.624 19.875 39.386 13.792 42.519-8.141m-31.021-3.078c0-4.484 5.506-8.155 12.236-8.155 6.727 0 12.233 3.671 12.233 8.155 0 4.489-5.506 8.159-12.233 8.159-6.73 0-12.236-3.67-12.236-8.159"/></svg>