<svg xmlns="http://www.w3.org/2000/svg" width="1930.044" height="1000" viewBox="0 0 1930.044 1000"><path d="M781.525 991.256c-41.68-14.911-79.537-41.433-154.971-108.559-40.703-36.222-85.766-73.766-100.143-83.433-14.373-9.667-22.423-18.814-17.891-20.323 6.418-2.14 6.502-6.007.389-17.433-4.325-8.078-10.757-14.685-14.293-14.685-3.54 0-6.433-8.737-6.433-19.41 0-35.68-26.681-92.864-50.071-107.321-26.169-16.172-98.489-18.272-132.981-3.863-27.58 11.524-36.996 27.813-36.996 63.987 0 21.641 4.223 31.846 19.49 47.117 18.462 18.461 22.463 19.49 75.729 19.49h56.235L418.876 767c-.632 17.978-3.434 20.613-25.715 24.189l-25.003 4.015v45.671c0 41.662-1.501 46.651-17.102 56.874-24.338 15.947-66.552 13.225-112.986-7.283-46.677-20.616-76.147-46.709-107.727-95.393-50.253-77.469-44.293-220.64 11.691-280.731 13.075-14.035 16.735-14.238 255.993-14.238 154.63 0 244.23-2.421 246.854-6.669 2.268-3.667.945-6.665-2.94-6.665-3.979 0-7.065-13.832-7.065-31.675l-.003-31.672h48.345c43.904 0 48.349-1.229 48.349-13.338 0-11.941-5.103-13.54-48.8-15.303-34.437-1.388-48.003-4.332-46.099-10.001 2.002-5.967 45.474-8.133 168.821-8.42 118.826-.277 170.438-2.741 181.268-8.646 8.326-4.539 18.08-6.44 21.671-4.219 3.59 2.216 6.53 30.864 6.53 63.652v59.622l-181.704.469c-107.666.276-176.271 2.802-168.367 6.196 19.367 8.326 436.757 8.326 436.757 0 0-3.667-16.503-6.665-36.676-6.665h-36.673v-51.38l44.166-.752 44.17-.752-3.18 33.11c-1.752 18.211-.869 33.108 1.962 33.108s11.394 10.106 19.025 22.459c12.941 20.94 13.883 32.213 13.883 166.702 0 118.608-1.647 144.243-9.26 144.243-5.092 0-32.846 24.36-61.679 54.135-57.958 59.847-84.796 79.246-137.215 99.169-40.833 15.521-121.377 17.778-158.642 4.444m167.295-34.088c33.082-13.443 132.818-84.338 132.818-94.412 0-7.643-12.978.353-37.436 23.077-56.685 52.659-122.736 80.973-189.278 81.136-31.922.08-40.706 1.926-33.339 7.014 15.285 10.561 81.347 1.832 127.235-16.815m-181.137-6.345c-11.917-11.633-72.792-48.549-72.792-44.145 0 6.578 59.255 46.856 68.936 46.856 3.649 0 5.386-1.221 3.856-2.711m127.53-27.631c7.086-8.54 6.647-12.265-2.519-21.434-10.35-10.35-11.844-10.35-22.194 0-9.165 9.169-9.605 12.894-2.518 21.434 4.721 5.684 10.844 10.336 13.617 10.336 2.769 0 8.893-4.652 13.614-10.336m-264.32-83.433c-25.312-26.006-52.026-50.388-59.36-54.185-7.334-3.794 12.011 18.847 42.992 50.318 30.977 31.468 57.692 55.854 59.36 54.186 1.668-1.672-17.676-24.313-42.992-50.319m-326.082 33.758c-11.004-2.802-27.507-5.401-36.676-5.779-13.086-.537-14.518.705-6.668 5.779 5.502 3.554 22.004 6.152 36.676 5.774 25.693-.661 25.937-.872 6.668-5.774m-70.066-11.67c-.029-2.751-12.033-11.843-26.675-20.202-14.638-8.362-26.62-12.705-26.62-9.649s11.255 12.08 25.006 20.05c28.587 16.572 28.358 16.492 28.289 9.801m586.84-4.608c0-1.617-3.002-4.793-6.669-7.061s-6.669-.945-6.669 2.94 3.002 7.061 6.669 7.061 6.669-1.322 6.669-2.94m-477.14-16.462c5.542-8.966-3.089-27.275-12.861-27.275-11.731 0-25.515 17.924-20.286 26.381 5.292 8.565 28.027 9.179 33.147.894m588.643-61.33c34.924-16.907 59.655-47.742 72.723-90.669 16.953-55.693-2.824-127.163-39.238-141.805-26.151-10.513 27.699-7.682 58.386 3.071l26.675 9.344-16.132-13.287c-15.162-12.487-25.341-13.225-169.155-12.276-138.527.916-156.189 2.329-186.433 14.896-39.045 16.227-58.31 42.702-58.346 80.181-.036 36.774 8.257 47.702 58.441 77.011 24.701 14.424 54.654 38.355 66.567 53.179 15.841 19.711 29.276 28.764 50.002 33.688 39.514 9.395 102.214 3.267 136.51-13.333m-804.166-43.792c-5.811-9.994-7.116-10.285-7.28-1.614-.218 11.23 6.796 21.34 11.521 16.616 1.559-1.559-.349-8.312-4.241-15.002m939.382-48.843c0-3.671-1.323-6.669-2.94-6.669s-4.797 2.998-7.065 6.669c-2.264 3.667-.941 6.665 2.944 6.665 3.881 0 7.061-2.998 7.061-6.665m-768.675-88.219c39.223-18.313 38.228-17.655 33.612-22.27-2.089-2.09-15.343 2.293-29.451 9.743-54.647 28.851-57.492 37.424-4.161 12.527m152.271-8.682c-7.119-5.386-16.121-9.696-20.006-9.576-3.881.116-1.236 4.615 5.884 10.001 7.119 5.382 16.121 9.692 20.006 9.576 3.881-.116 1.235-4.615-5.884-10.001m-80.409-16.459c2.267-3.667-.382-6.665-5.88-6.665-5.502 0-11.859 2.998-14.126 6.665-2.264 3.67.381 6.668 5.883 6.668 5.499 0 11.855-2.998 14.123-6.668m43.341 3.728c0-1.617-2.998-4.793-6.665-7.061-3.671-2.268-6.669-.945-6.669 2.94s2.998 7.061 6.669 7.061c3.667 0 6.665-1.322 6.665-2.94m-206.431-20.733c7.086-8.536 6.65-12.265-2.519-21.43-10.35-10.35-11.843-10.35-22.19 0-9.169 9.165-9.605 12.894-2.518 21.43 4.717 5.688 10.844 10.34 13.613 10.34s8.897-4.652 13.614-10.34m908.375 2.003c4.728-13.559-2.344-25.007-15.452-25.007-14.7 0-22.241 10.401-17.15 23.659 4.547 11.854 28.59 12.846 32.602 1.348m-628.949-7.908c10.681-12.872-2.151-37.101-19.65-37.101s-30.33 24.229-19.649 37.101c4.371 5.266 13.213 9.576 19.649 9.576s15.278-4.31 19.65-9.576m137.052 2.907c2.264-3.667 1.119-6.668-2.548-6.668s-8.522 3.001-10.79 6.668-1.119 6.669 2.548 6.669 8.522-3.002 10.79-6.669m23.335-13.337c0-3.667-1.323-6.669-2.94-6.669-1.618 0-4.794 3.002-7.062 6.669-2.267 3.667-.941 6.669 2.94 6.669 3.885 0 7.062-3.002 7.062-6.669m33.343-4.11c0-1.407-6.004-2.559-13.337-2.559s-13.338 2.722-13.338 6.044c0 3.325 6.004 4.477 13.338 2.558s13.337-4.637 13.337-6.043m83.349-75.907c0-7.679-11.371-10.775-48.992-13.334-49.839-3.394-58.535-.487-51.717 17.281 5.553 14.475 100.709 10.742 100.709-3.947m116.689.549c0-11.197-5.887-13.065-47.331-15.002-48.152-2.253-56.773.858-50.155 18.109 2.762 7.192 15.765 9.681 50.602 9.681 41.771 0 46.884-1.395 46.884-12.788m116.693-.549c0-7.679-11.371-10.775-48.992-13.334-51.212-3.485-57.103-1.57-50.231 16.343 5.854 15.253 99.223 12.422 99.223-3.009m-150.726-39.438c5.116-3.241 7.464-10.695 5.211-16.568-3.205-8.351-14.053-10.673-49.872-10.673-50.918 0-57.219 2.769-47.527 20.881 5.328 9.958 14.319 12.44 44.773 12.357 20.958-.055 42.294-2.755 47.415-5.997m117.386-10.572c0-11.93-5.098-13.54-48.345-15.296-43.537-1.762-48.341-.712-48.341 10.558 0 19.642 6.483 22.088 53.062 20.016 38.533-1.715 43.624-3.499 43.624-15.278m341.738 578.86c-14.547-3.802-15.249-19.276-1.123-24.698 5.801-2.224 69.744-4.045 142.089-4.045 99.823 0 134.507 2.166 143.836 8.988 27.979 20.456 5.567 24.367-135.165 23.578-75.881-.425-143.219-2.148-149.637-3.823m15.002-75.42c0-27.659 2.046-33.34 12.004-33.34 18.705 0 28.005 13.73 28.005 41.343 0 23.705-1.287 25.337-20.003 25.337-19.559 0-20.006-.741-20.006-33.34m49.05 23.237c-2.133-5.557-2.369-15.863-.527-22.906 5.444-20.824-12.977-40.339-38.082-40.339-27.321 0-42.738-15.195-30.443-30.007 4.564-5.503 17.971-10.002 29.789-10.002 33.013 0 43.559-16.677 43.559-68.874v-44.482h126.694v42.443c0 56.791 15.1 77.582 56.344 77.582 35.695 0 52.473 15.256 32.994 30-6.959 5.269-25.304 9.678-40.76 9.794-31.567.236-41.909 11.702-41.909 46.452v20.442h-66.891c-53.6 0-67.66-2.006-70.768-10.103m144.324-7.007c0-27.986 11.673-42.905 33.576-42.905 18.984 0 19.769 1.192 19.769 30.008v30.007h-26.671c-24.189 0-26.674-1.595-26.674-17.11m-346.739-243.583c0-142.113-.53-148.081-15.002-168.366-9.975-13.985-16.121-34.354-18.338-60.771-2.921-34.804-5.262-40.19-18.857-43.374-15.431-3.616-15.405-3.721 4.731-18.606 22.434-16.587 40.721-19.054 52.667-7.109 6.043 6.044 11.414 5.967 23.182-.331 11.269-6.029 60.49-7.668 186.283-6.199 132.894 1.551 169.479.203 164.282-6.048-8.718-10.491-1.33-21.961 14.148-21.961 14.762 0 22.085 15.576 12.044 25.617-5.205 5.204-.378 6.124 17.189 3.275 23.469-3.809 24.433-3.198 24.433 15.558 0 23.687 42.846 68.907 65.294 68.907 14.621 0 14.722.785 14.722 116.576v116.58l-171.681 1.781-171.685 1.777 2.017 23.361c1.923 22.288-.567 25.271-54.225 65.015-53.309 39.481-58.194 41.651-93.721 41.651h-37.483Zm127.257 89.673c36.117-28.375 39.446-33.187 39.446-57.013v-26.024l-56.893 47.909c-31.29 26.352-55.367 49.436-53.502 51.3s22.215-13.007 45.223-33.045c53.786-46.845 58.503-49.512 58.503-33.086 0 8.032-14.991 25.254-38.341 44.054-32.282 25.987-41.767 30.356-60.014 27.63-11.916-1.777-21.67-.421-21.67 3.016 0 3.438 10.757 6.248 23.901 6.248 18.338 0 33.086-7.214 63.347-30.989m-40.419-40.692c32.337-28.422 58.819-53.178 58.852-55.01.08-4.219-111.314-102.585-119.564-105.579-3.554-1.29-6.12 42.745-6.12 105.023 0 58.983 1.81 107.244 4.02 107.244 2.213 0 30.479-23.255 62.812-51.678m-60.167-55.141c0-108.152-7.537-103.449 64.921-40.477 47.505 41.288 48.894 34.43-19.178 94.779l-45.743 40.554Zm216.298-36.923c20.398-24.047 37.09-45.884 37.09-48.523 0-2.642-21.005-25.642-46.677-51.118l-46.677-46.321v90.396c0 118.775 1.435 120.193 56.264 55.566m-47.96-45.957 1.701-76.339 35.004 34.437c19.254 18.941 35.008 37.061 35.008 40.27 0 8.239-60.389 77.975-67.523 77.975-3.238 0-5.124-34.354-4.19-76.343m163.297 84.247c5.757-3.66-2.751-16.078-28.288-41.295-21.878-21.605-38.755-33.503-42.098-29.677-36.603 41.888-54.04 68.86-46.474 71.895 13.825 5.549 107.84 4.804 116.86-.923m-56.576-6.531c-26.588-1.075-48.255-4.077-48.149-6.668.109-2.588 9.379-14.806 20.602-27.151l20.402-22.445 27.641 25.777c15.206 14.181 28.939 26.53 30.524 27.446 7.064 4.088-5.982 4.866-51.02 3.041m116.889-84.741c1.021-50.755-.858-94.997-4.183-98.322-5.575-5.578-100.757 94.757-101.233 106.717-.327 8.242 89.709 88.077 96.883 85.904 3.906-1.185 7.439-40.241 8.533-94.299m-56.722 48.36-41.132-41.677 42.731-46.677 42.73-46.673.262 88.35c.145 48.596-.574 88.353-1.596 88.353-1.024 0-20.369-18.756-42.995-41.676m104.245 23.338c4.216-10.084 16.532-33.339 27.369-51.677l19.701-33.34.127 47.942.127 47.938-25.003 2.616-25.006 2.617 28.339 1.119 28.339 1.123v-61.442c0-52.641-1.326-60.044-9.249-51.678-15.383 16.241-65.778 113.12-58.84 113.12 3.55 0 9.91-8.253 14.126-18.338Zm-296.187-6.668c-1.228-6.418-2.464-45.427-2.744-86.686l-.508-75.016h-48.658c-48.004 0-49.007.36-74.777 26.751l-26.118 26.747 26.286 21.594c14.456 11.877 45.852 38.726 69.772 59.662 45.169 39.54 60.556 46.845 56.747 26.948m-50.039-33.747c-20.231-17.197-48.617-40.975-63.081-52.841l-26.297-21.576 22.713-23.433c21.246-21.921 25.429-23.436 64.75-23.436h42.033v76.684c0 42.174-.749 76.499-1.668 76.274-.916-.226-18.218-14.479-38.45-31.672m367.283-38.86c20.754-34.223 32.911-61.933 32.911-75.016V486.77h-86.686l.211 88.35c.243 101.062-2.958 100.619 53.564 7.41m-47.106-15.351v-67.075h36.672c29.746 0 36.676 2.096 36.676 11.084 0 11.778-57.111 113.029-67.312 119.334-3.449 2.134-6.036-25.006-6.036-63.343m-106.688-25.399c20.169-24.258 37.672-46.561 38.896-49.559 1.221-2.998-37.035-5.451-85.017-5.451s-87.314 2.249-87.409 5c-.167 5.128 87.514 93.002 93.521 93.722 1.832.218 19.836-19.45 40.009-43.712m-78.432-5.491c-19.211-16.801-34.925-33.318-34.925-36.702 0-3.383 31.894-6.152 70.877-6.152h70.881l-29.746 34.633c-16.361 19.051-32.54 35.564-35.956 36.702-3.416 1.141-21.925-11.677-41.131-28.481m205.122-75.158c0-3.1-5.829-10.914-12.959-17.364-7.127-6.451-13.879-18.916-15.002-27.7l-2.042-15.968-173.371-3.507c-189.809-3.838-204.916-1.57-208.757 31.341-1.425 12.207 2.569 20.773 13.152 28.183 13.065 9.154 42.149 10.648 207.092 10.648 105.54 0 191.887-2.537 191.887-5.633m-396.272-18.182c-12.945-12.945-13.155-19.006-1.003-29.091 6.843-5.68 58.688-7.501 186.705-6.553l177.23 1.312v18.516c0 10.183 3.751 20.028 8.337 21.878 4.583 1.85-74.718 3.601-176.227 3.892-159.365.454-185.993-.905-195.042-9.954m89.542 367.675c0-10.408 7.167-21.318 20.006-30.461l20.003-14.243v22.456c0 24.941-9.845 38.464-28.005 38.464-8.268 0-12.004-5.048-12.004-16.216m197.139-.738c-7.661-11.691-10.489-27.732-9.104-51.677l2.006-34.725 81.685-1.871c76.786-1.759 81.681-1.105 81.681 10.946 0 8.017-6.076 14.344-16.226 16.891-8.926 2.239-22.536 12.931-30.247 23.76-15.656 21.991-28.081 20.904-39.166-3.416-12.327-27.06-21.049-18.621-21.049 20.37 0 35.982-.363 36.676-19.239 36.676-13.246 0-22.695-5.281-30.341-16.954m236.285-26.387c-18.116-18.462-35.393-30.008-44.9-30.008-15.227 0-15.292-.312-4.459-21.263 9.729-18.814 10.67-45.892 8.177-235.05-2.366-179.313-4.55-217.253-13.566-235.293l-10.747-21.507 41.085 3.434c124.695 10.419 124.386 10.365 131.385 23.447 6.433 12.015 4.176 12.8-36.727 12.8h-43.577l1.069 25.003c1.017 23.865 1.184 24.044 3.717 3.856l2.65-21.147 37.959 3.732c20.874 2.053 39.456 5.066 41.291 6.698 1.835 1.631 4.393 52.226 5.687 112.437 1.908 88.761.644 109.45-6.668 109.37-11.899-.135-32.155-12.992-20.69-13.134 4.583-.055 8.333-3.104 8.333-6.77 0-3.667-4.499-6.669-10.001-6.669-16.917 0-11.644 26.38 6.669 33.343 23.008 8.748 20.907 20.003-3.729 20.003-11.898 0-18.679 2.776-16.277 6.668 2.268 3.667 12.948 6.669 23.735 6.669h19.609l-.468 75.016c-.302 48.12-2.526 70.234-6.2 61.679-4.597-10.699-5.826-8.391-6.2 11.669-.436 23.234-1.886 25.003-20.471 25.003-11.004 0-20.006-2.5-20.006-5.556 0-3.06-11.542-18.062-25.647-33.34-17.702-19.174-31.13-27.783-43.344-27.783-17.462 0-17.695-.614-17.695-46.677 0-25.672-2.249-46.674-5-46.666-2.751.003-5.001 23.258-5.001 51.677v51.667l24.454 3.336c18.778 2.559 31.029 10.826 52.768 35.604 23.738 27.049 31.377 31.821 47.23 29.491 16.244-2.384 18.912-.538 18.912 13.072 0 8.715-4.579 24.702-10.172 35.521-9.107 17.611-13.508 19.671-41.957 19.671-28.858 0-34.488-2.758-61.228-30.003m0-230.05c0-3.667-6.203-6.668-13.784-6.668-10.75 0-12.854-2.937-9.554-13.338 2.431-7.65 1.199-13.333-2.886-13.333-7.748 0-9.878 28.353-2.671 35.563 6.919 6.916 28.895 5.226 28.895-2.224m58.423-4.582c-6.374-1.668-18.378-1.73-26.671-.135-8.293 1.596-3.078 2.962 11.593 3.035 14.667.072 21.456-1.229 15.078-2.9m-36.752-33.464c-8.25-1.588-15.002-5.683-15.002-9.096 0-3.412-2.907-6.203-6.458-6.203-3.554 0-4.732 4.502-2.62 10.004 2.217 5.775 11.28 9.616 21.459 9.093 15.711-.81 15.994-1.221 2.621-3.798m-9.667-29.967c4.401-4.401 8.002-10.619 8.002-13.813s-4.717-1.098-10.481 4.666c-18.112 18.116-35.022 13.141-38.042-11.193-2.646-21.336-2.704-21.286-3.754 3.336-.992 23.193.283 25.003 17.604 25.003 10.266 0 22.27-3.598 26.671-7.999m53.68-17.004c-.807-20.115-1.545-21.42-3.78-6.669-3.361 22.187-17.182 23.887-27.092 3.333-7.221-14.973-7.236-14.969-7.686 2.224-.556 21.165 3.993 26.115 23.996 26.115 13.712 0 15.441-2.969 14.562-25.003m50.987 333.401c13.566-33.38 15.184-62.558 13.715-247.595-.872-110.457.604-200.831 3.286-200.831s4.459-5.135 3.95-11.415c-1.468-18.065 20.831-18.65 24.621-.643 2.315 10.99 2.937 9.685 2.185-4.554-1.091-20.536-21.46-32.267-30.535-17.585-2.424 3.917-7.41-9.289-11.087-29.35-6.364-34.735-6.011-36.472 7.33-36.472 25.66 0 37.054 15.103 42.683 56.591 3.674 27.078 2.58 51.213-3.471 76.499-6.134 25.643-8.911 90.331-9.074 211.468l-.226 174.527-17.265 20.514c-18.887 22.449-33.66 27.457-26.097 8.846Zm31.25-109.799c-4.786-4.786-7.889-5.178-7.889-1.003 0 8.904 7.882 16.786 12.334 12.338 1.897-1.893-.102-6.996-4.445-11.335m2.806-43.428c-6.778-6.778-12.371 3.427-6.811 12.425 4.202 6.8 5.771 6.803 8.032.029 1.544-4.633.996-10.237-1.221-12.45Zm2.638-41.811c0-3.67-3.176-6.669-7.061-6.669s-5.208 2.999-2.94 6.669c2.264 3.667 5.444 6.665 7.061 6.665s2.94-2.998 2.94-6.665m-5.444-48.123c-4.786-4.783-7.889-5.179-7.889-1 0 8.9 7.882 16.786 12.334 12.335 1.897-1.894-.102-6.996-4.445-11.335m0-46.678c-4.786-4.782-7.889-5.178-7.889-.999 0 8.9 7.882 16.786 12.334 12.338 1.897-1.897-.102-6.996-4.445-11.339m2.806-43.424c-6.778-6.778-12.371 3.427-6.811 12.425 4.202 6.8 5.771 6.803 8.032.029 1.544-4.633.996-10.237-1.221-12.454m0-53.346c-6.778-6.778-12.371 3.427-6.811 12.425 4.202 6.8 5.771 6.803 8.032.029 1.544-4.633.996-10.237-1.221-12.45Zm11.829-36.81c3.663-15.264 2.21-18.338-8.671-18.338-7.188 0-14.9 2.965-17.142 6.592-2.337 3.78.341 4.895 6.276 2.62 7.817-3.001 10.346.549 10.346 14.523 0 21.804 3.104 19.984 9.191-5.397m-2.522-87.642c0-17.505-18.207-28.513-29.121-17.6-4.735 4.736-2.307 6.887 7.785 6.887 10.223 0 14.667 4.041 14.667 13.337 0 7.334 1.501 13.334 3.336 13.334 1.836 0 3.333-7.181 3.333-15.958M428.169 763.144c0-8.279 6.894-9.947 34.485-8.333 49.388 2.885 51.71 18.683 2.743 18.683-29.204 0-37.228-2.232-37.228-10.35m-9.947-69.998c2.78-16.455 1.443-34.68-3.408-46.386-11.136-26.889-6.567-35.833 11.745-23.004 12.12 8.485 13.665 12.981 8.068 23.44-9.816 18.338 2.958 39.612 23.782 39.612 22.292 0 23.687 26.435 1.432 27.169-8.25.273-22.02 1.796-30.6 3.384-14.831 2.747-15.372 1.555-11.019-24.215M185.898 482.322c-7.098-7.094-5.135-94.361 2.22-98.908 4.234-2.616 6.669 15.489 6.669 49.618 0 53.89-.658 57.525-8.893 49.29Zm15.558-52.23V373.41h113.356v113.36H201.456Zm76.204 26.195c15.878-15.878 12.978-40.925-6.189-53.484-15.445-10.118-17.898-10.118-33.343 0-19.221 12.596-21.569 34.157-5.633 51.768 13.545 14.966 31.243 15.638 45.165 1.716m-42.512-12.437c-5.898-7.104-6.047-13.119-.581-23.334 14.195-26.526 52.8-9.5 43.671 19.257-5.095 16.056-31.108 18.516-43.09 4.077m31.719-15.427c-1.236-6.417-6.665-11.669-12.069-11.669-5.4 0-10.83 5.252-12.065 11.669-1.578 8.188 2.024 11.67 12.065 11.67 10.045 0 13.646-3.482 12.069-11.67m87.954 1.669c0-56.014.196-56.682 16.67-56.682 16.473 0 16.67.668 16.67 56.682 0 56.009-.197 56.678-16.67 56.678s-16.67-.669-16.67-56.678m73.348 0c0-56.014.196-56.682 16.67-56.682s16.67.668 16.67 56.682c0 56.009-.196 56.678-16.67 56.678s-16.67-.669-16.67-56.678m73.348 0V373.41h106.688v113.36H501.517Zm74.479 28.339c18.901-15.231 19.715-31.443 2.442-48.716-19.774-19.774-26.326-20.217-43.581-2.962-17.488 17.488-16.91 36.745 1.486 49.632 17.931 12.559 26.079 12.977 39.653 2.046m-40.645-17.419c-8.54-15.957 5.491-36.672 22.572-33.318 15.812 3.104 26.867 20.969 21.547 34.826-5.728 14.929-35.873 13.901-44.119-1.508m31.577-12.589c-1.235-6.417-6.665-11.669-12.065-11.669s-10.83 5.252-12.069 11.669c-1.574 8.188 2.024 11.67 12.069 11.67 10.041 0 13.643-3.482 12.065-11.67m53.186 23.343c3.431-63.046 6.08-69.271 7.098-16.674.549 28.423-1.25 51.678-4.001 51.681-2.751 0-4.143-15.75-3.097-35.007m-296.06-20.01c.6-38.188 2.86-48.342 10.761-48.342 7.791 0 10.437 10.688 11.963 48.342 1.774 43.806.764 48.345-10.764 48.345-11.418 0-12.647-4.957-11.96-48.345m72.149 0c1.526-37.654 4.172-48.342 11.964-48.342 7.788 0 10.433 10.688 11.96 48.342 1.831 45.202 1.054 48.345-11.96 48.345-13.018 0-13.796-3.143-11.964-48.345m73.348 0c1.425-35.117 4.419-48.342 10.943-48.342 6.61 0 9.252 12.76 10.001 48.346.897 42.428-.444 48.345-10.939 48.345-10.586-.004-11.738-5.575-10.005-48.349M84.083 450.73c-1.977-5.153-2.631-19.407-1.457-31.675l2.137-22.307h86.686l2.031 31.675 2.035 31.672h-43.919c-31.562 0-44.929-2.635-47.513-9.365m1565.65-12.622c-20.17-20.812-21.315-24.705-21.315-72.635 0-55.767 2.224-58.743 43.89-58.743h22.793v76.684c0 69.456-1.133 76.681-12.029 76.681-6.614 0-21.619-9.892-33.339-21.987m32.031-21.354c6.621-7.98 6.621-12.025 0-20.006-16.663-20.075-40.415-4.713-30.93 20.006 2.111 5.502 8.068 10.001 13.235 10.001 5.168 0 13.131-4.499 17.695-10.001m-652.858-15.002c.516-13.755-1.112-31.184-3.616-38.732-3.754-11.317 2.3-18.535 34.506-41.125 21.482-15.067 53.699-39.496 71.597-54.283l32.533-26.885 93.885-2.007c57.281-1.221 95.796.596 98.783 4.663 2.693 3.667 4.946 17.92 5.001 31.675l.102 25.003h-250.47l-39.591 40.009c-21.775 22.005-36.559 40.008-32.852 40.008 3.703 0 19.987-13.501 36.185-30.003 16.197-16.507 31.268-30.008 33.492-30.008 3.38 0 26.522 42.865 26.522 49.12 0 1.097-12.145 11.749-26.983 23.676-26.173 21.031-27.493 21.351-43.923 10.587-9.314-6.106-18.468-9.569-20.344-7.694-1.871 1.872 2.89 7.334 10.583 12.138 19.588 12.233 17.419 18.861-6.182 18.861-19.021 0-20.111-1.417-19.228-25.006Zm141.845-24.963c-2.308-6.018-1-14.14 2.907-18.047 10.161-10.161 29.408-.876 26.755 12.905-2.955 15.351-24.324 19.054-29.662 5.142M144.556 366.385c-8.202-13.272 26.169-38.293 58.441-42.542 15.656-2.06 134.365-11.36 263.799-20.671l235.338-16.92 83.912 30.243c46.154 16.634 88.608 30.243 94.343 30.243 8.311 0 7.802 1.985-2.519 9.791-19.282 14.584-157.889 14.377-170.031-.258-7.126-8.588-18.378-9.761-62.496-6.527-29.593 2.166-106.318 5.211-170.497 6.763-240.112 5.811-277.315 7.396-300.883 12.818-17.389 4.001-25.628 3.176-29.407-2.94m750.377-2.769c0-1.723 35.887-30.229 79.744-63.347l79.744-60.218h44.01c24.999 0 42.374 2.642 40.227 6.116-6.84 11.069-105.02 82.455-139.716 101.589-24.966 13.766-43.293 18.778-69.001 18.865-19.254.069-35.008-1.287-35.008-3.005m251.062-5.31c-6.265-4.583-12.058-17.313-12.869-28.288l-1.475-19.952 245.796-1.751c222.647-1.585 245.411-.749 241.715 8.881-2.242 5.848-4.077 19.385-4.077 30.088 0 14.591-3.133 19.461-12.52 19.461-6.887 0-16.256-4.503-20.82-10.005-4.568-5.499-13.57-10.002-20.006-10.002s-15.438 4.503-20.003 10.002c-6.963 8.387-34.408 10.005-170.038 10.005-135.627 0-163.072-1.618-170.035-10.005-10.485-12.633-19.367-12.644-33.282-.055-8.932 8.086-13.126 8.388-22.386 1.621M62.388 294.984 0 236.714l.069-56.678.065-56.678 105.664-38.039 105.659-38.042 422.867 1.366c318.377 1.029 423.514 3.315 425.49 9.249 1.589 4.764-6.109 8.722-19.446 10.001-14.235 1.37-22.077 5.673-22.077 12.124 0 7.268 8.202 10.263 30.007 10.953l30.007.956-26.675-4.539-26.671-4.543 25.458-3.459c20.02-2.726 26.838-.891 31.907 8.587 5.241 9.787 3.904 12.047-7.119 12.047-18.222 0-17.164 6.382 6.476 39.009 14.043 19.385 24.905 27.674 36.28 27.674 8.929 0 18.087 2.999 20.355 6.669 2.493 4.034-6.763 6.665-23.433 6.665-22.121 0-27.129 2.192-25.399 11.099 1.646 8.478 9.994 11.229 35.378 11.669 26.05.447 33.714 3.093 35.495 12.24 2.017 10.339-3.874 11.669-51.696 11.669h-53.971l-76.546 56.639c-42.098 31.152-76.455 54.406-76.346 51.677s21.449-19.962 47.429-38.3c25.977-18.338 57.5-42.342 70.052-53.346l22.823-20.002-48.578-74.998c-26.722-41.248-50.824-75.006-53.564-75.017-2.74-.007-17.004 10.845-31.697 24.117-21.929 19.813-28.477 22.673-36.552 15.972-7.043-5.848-8.025-11.557-3.453-20.101 7.043-13.163-7.457-31.094-19.25-23.804-3.576 2.21-8.384.967-10.688-2.761-2.726-4.412-99.027-6.778-275.847-6.778H290.816l2.544 21.674 2.54 21.67h204.498c224.794 0 234.501 1.512 234.501 36.524 0 16.099-10.15 28.197-59.945 71.447-32.973 28.634-59.982 53.564-60.022 55.396-.04 1.835 16.572 2.3 36.919 1.032 36.487-2.272 37.919-3.166 104.079-65.012 49.781-46.542 71.626-62.703 84.705-62.671 16.633.04 15.765 1.636-15.482 28.339-18.21 15.566-52.717 45.453-76.684 66.422-33.191 29.04-49.93 38.929-70.248 41.513-55.879 7.097-491.647 37.73-494.613 34.768-5.625-5.626 32.541-10.169 187.883-22.354l153.365-12.036-184.815-1.77-184.812-1.773-23.564-30.862c-23.56-30.854-30.988-66.93-17.999-87.394 6.839-10.775 107.745-53.451 121.464-51.372 7.606 1.152 10.335-4.39 10.335-20.988 0-16.967-2.871-22.553-11.582-22.553-10.59 0-171.357 56.693-177.128 62.464-1.374 1.37 1.057 10.295 5.4 19.828 10.663 23.404-2.493 39.968-28.688 36.123-17.564-2.576-18.716-1.261-18.716 21.333 0 20.362 5.397 29.218 35.004 57.434 64.219 61.192 63.783 60.934 75.587 44.079 15.86-22.645 49.439-15.264 49.439 10.866 0 6.007-4.441 3.917-12.294-5.782-7.868-9.714-16.278-13.661-23.339-10.95-13.864 5.32-14.475 30.429-.868 35.651 7.842 3.009 8.42 6.015 2.514 13.127-4.208 5.073-9.536 9.187-11.836 9.147-2.304-.044-32.26-26.301-66.57-58.347m598.825-89.6c89.582-80.104 93.191-78.69-200.98-78.69H221.578l-46.121 20.62c-30.69 13.723-47.32 25.218-49.712 34.361-3.336 12.756 8.461 43.883 24.015 63.376 5.084 6.374 59.756 8.337 232.208 8.337h225.558Zm-499.849 31.232c-16.288-19.624 1.853-23.684 97.297-21.768 87.758 1.762 92.824 2.591 92.824 15.201 0 12.593-5.059 13.439-90.716 15.184-75.841 1.544-92.144.134-99.405-8.617m200.126-3.234c0-10.372 4.444-13.337 20.002-13.337s20.006 2.965 20.006 13.337-4.448 13.337-20.006 13.337-20.002-2.965-20.002-13.337m53.342 0c0-12.785 4.448-13.337 107.589-13.337H630.01l-16.953 13.337c-15.067 11.851-27.053 13.337-107.589 13.337-86.188 0-90.636-.654-90.636-13.337M54.759 163.366c6.622-7.977 6.622-12.022 0-20.002-16.666-20.079-40.415-4.717-30.93 20.002 2.112 5.502 8.064 10.005 13.232 10.005s13.13-4.503 17.698-10.005m-22.23-1.108c-7.671-7.676-4.855-15.562 5.557-15.562 5.502 0 10.005 4.503 10.005 10.002 0 10.415-7.886 13.232-15.562 5.56m252.276-75.663c0-11.819-4.063-17.161-14.155-18.6-16.946-2.417-26.242 16.172-14.911 29.822 11.957 14.406 29.066 7.799 29.066-11.222m-23.338-3.802c0-11.774 14.355-9.721 18.476 2.642 1.453 4.354-2.112 7.919-7.919 7.919-5.804 0-10.557-4.753-10.557-10.561m602.554 240.654c-2.308-6.022-1.003-14.14 2.907-18.051 10.157-10.157 29.408-.872 26.755 12.909-2.955 15.347-24.324 19.05-29.662 5.142m24.243-6.716c0-5.498-4.499-10.001-10.001-10.001s-10.001 4.503-10.001 10.001c0 5.502 4.499 10.005 10.001 10.005s10.001-4.503 10.001-10.005m-100.019-14.344c-31.174-11.891-59.135-22.597-62.133-23.793-4.452-1.773 146.522-138.192 198.908-179.738 13.795-10.938 14.995-9.805 59.942 56.682 25.228 37.312 40.96 63.86 34.964 58.994-24.069-19.53-63.278 5.582-47.578 30.472 6.203 9.834 2.162 15.481-26.243 36.676-37.969 28.328-39.725 28.844-51.172 15.049-12.491-15.049-25.559-12.113-38.439 8.638l-11.571 18.643Zm-651.942 9.762c4.121-12.364 18.476-14.413 18.476-2.639 0 5.808-4.75 10.557-10.558 10.557s-9.368-3.565-7.918-7.918M62.9 258.207c-25.515-25.745-41.484-47.48-41.484-56.468 0-10.284 2.98-13.472 10.056-10.757 5.527 2.123 17.742-1.181 27.14-7.337 14.057-9.213 16.71-15.507 14.951-35.499l-2.134-24.301 66.68-24.847c36.672-13.664 73.432-25.028 81.685-25.246 31.879-.854 12.527 17.218-40.917 38.213-30.731 12.072-61.407 28.066-68.173 35.542-19.788 21.863-15.892 57.805 10.204 94.143l22.507 31.341-15.991 13.311c-8.794 7.327-17.574 13.418-19.515 13.538S85.715 281.229 62.9 258.207m1312.134 32.685c0-5.04-1.843-18.37-4.092-29.622l-4.092-20.456 89.109-2.05c54.153-1.243 91.032.567 94.009 4.619 2.693 3.667 4.946 17.92 5 31.675l.102 25.003h-90.018c-71.934 0-90.018-1.842-90.018-9.169m193.283-2.5c-.055-6.418-1.901-18.418-4.114-26.671-3.951-14.751-2.998-15.002 56.322-15.002 65.251 0 59.415-3.26 71.691 40.009 3.594 12.668.599 13.333-60.015 13.333-56.275 0-63.804-1.373-63.884-11.669m-1396.534-1.123c-3.107-5.03 22.223-7.21 83.735-7.21 48.505 0 86.939 1.13 85.409 2.511-1.526 1.381-39.208 4.626-83.73 7.21-55.607 3.227-82.354 2.439-85.414-2.511m466.764-32.584c107.037-90.69 116.529-102.697 102.301-129.408-16.651-31.258-18.33-31.49-230.994-31.712-174.759-.185-201.71-1.548-201.71-10.216 0-8.722 33.994-10.001 265.944-10.001h265.947l3.187 16.67c3.115 16.303 2.286 16.674-37.566 16.772-22.412.058-44.936 2.754-50.057 5.996-16.873 10.684-2.831 26.333 25.581 28.51l27.006 2.068-63.46 58.346c-55.766 51.271-66.436 58.343-87.99 58.343-13.487 0-21.674-2.413-18.189-5.368m340.346-13.653c-7.458-12.062 4.07-28.408 18.578-26.341 19.402 2.77 19.221 27.973-.219 30.742-7.907 1.126-16.168-.854-18.359-4.401m29.396-7.258c0-9.001-12.156-15.245-20.111-10.328-3.729 2.304-5.051 6.981-2.94 10.397 5.004 8.097 23.051 8.046 23.051-.069m98.355-45.107c8.253-1.588 21.754-1.588 30.007 0 8.25 1.588 1.498 2.889-15.005 2.889s-23.255-1.301-15.002-2.889m-14.075-51.347c-18.294-23.989-21.06-30.687-12.596-30.548 6.4.105 36.912 46.909 33.078 50.743-1.584 1.585-10.8-7.501-20.482-20.195m-334.262-10.513c-2.337-3.784-.026-8.497 5.135-10.478 16.11-6.181 108.265-.101 106.539 7.029-2.192 9.056-106.223 12.269-111.674 3.449M231.55 33.485c-2.595-4.201 93.98-7.17 271.33-8.337 323.967-2.129 432.061.022 432.061 8.595 0 8.682-698.023 8.424-703.391-.258m7.872-17.745C228.054 4.372 248.173 0 311.872 0c57.438 0 69.62 1.752 69.62 10.001 0 8.246-12.102 10.001-68.904 10.001-37.897 0-70.822-1.918-73.166-4.262m190.212-3.595c1.595-4.848 12.737-9.776 24.766-10.953 15.794-1.548 21.071.305 18.978 6.669-1.592 4.844-12.734 9.772-24.767 10.953-15.79 1.545-21.067-.309-18.977-6.669m91.889 1.192c0-4.026 27.914-6.668 70.408-6.668 45.238 0 68.933 2.384 66.287 6.668-5.469 8.846-136.695 8.846-136.695 0m183.369 0c2.268-3.667 14.449-6.668 27.067-6.668 12.621 0 22.946 3.001 22.946 6.668s-12.182 6.669-27.067 6.669c-16.346 0-25.432-2.642-22.946-6.669m91.686 2.777c5.077-5.077 131.622-5.077 136.695 0 2.141 2.14-28.615 3.892-68.347 3.892-39.729 0-70.485-1.752-68.348-3.892"/></svg>