<svg xmlns="http://www.w3.org/2000/svg" width="3242.819" height="1000" viewBox="0 0 3242.819 1000"><path d="M2007.141 994.16c0-3.209 17.68-11.411 39.285-18.222 21.609-6.81 39.286-15.645 39.286-19.631 0-27.551-43.036-54.255-74.653-46.318-9.787 2.457-21.565 11.659-26.181 20.453-8.137 15.507-7.966 15.613 5.713 3.485 16.416-14.547 36.989-15.899 62.827-4.124 21.529 9.808 20.221 20.453-3.946 32.166-42.098 20.405-53.012 19.119-67.596-7.963l-13.697-25.435 18.356-18.356c23.564-23.564 59.575-32.134 133.432-31.759l59.251.301 10.281-24.603c14.49-34.673 20.566-35.993 49.356-10.717 19.417 17.051 25.428 27.856 25.428 45.714 0 12.861-4.586 27.191-10.194 31.842-6.879 5.71-8.9 16.423-6.218 32.959 7.058 43.493.004 46.048-127.319 46.048-62.376 0-113.411-2.627-113.411-5.84m225.776-25.744c2.14-5.586.141-17.179-4.456-25.763-9.772-18.262-23.524-16.932-89.36 8.635l-42.676 16.568 42.858 4.157c77.142 7.479 89.563 7.003 93.634-3.597m-20.421-84.487c-1.635-4.914-7.261-8.929-12.497-8.929-5.237 0-10.863 4.015-12.502 8.929-1.77 5.309 3.296 8.929 12.502 8.929 9.205 0 14.271-3.62 12.497-8.929m-254.449-35.855c-32.366-58.633-33.601-62.384-20.547-62.311 13.148.069 62.932 94.833 55.846 106.303-4.023 6.505-14.918-7.076-35.299-43.992m24.026-12.505c-22.576-47.23-41.117-68.224-53.502-60.571-9.108 5.63-35.717-15.63-35.717-28.531 0-11.233 160.074-169.356 162.956-160.972 1.232 3.584-14.035 27.224-33.929 52.536-19.893 25.312-36.167 48.323-36.167 51.132 0 2.81 17.709 35.204 39.358 71.986 21.645 36.781 42.334 74.703 45.972 84.272 6.182 16.259 4.565 17.913-24.665 25.272-17.204 4.332-34.085 7.879-37.515 7.879-3.431 0-15.489-19.352-26.791-43.003m99.416 5.502c-6.455-12.767-27.802-49.632-47.441-81.921-26.024-42.789-34.528-63.129-31.351-75.002 4.804-17.953 65.313-89.851 70.815-84.149 1.897 1.966 29.058 55 60.363 117.856 68.388 137.317 68.184 146.111-3.336 146.322-34.975.102-38.053-1.348-49.05-23.106m456.01-103.312c-4.913-1.78-8.929-13.206-8.929-25.395 0-12.186-6.16-28.794-13.683-36.905-18.13-19.537-114.89-183.318-114.89-194.467 0-4.798 3.216-10.707 7.145-13.134 3.928-2.428 7.243-29.135 7.37-59.35.305-73.653 4.088-77.647 76.739-80.947 61.551-2.795 73.297 1.683 37.319 14.224-18.502 6.451-21.431 11.012-21.431 33.391 0 19.279 5.495 31.413 21.431 47.353 11.785 11.785 21.427 22.23 21.427 23.211s-8.838.531-19.643-1.003c-10.804-1.53-25.809 1.788-33.343 7.378-13.417 9.953-13.359 10.72 2.856 36.959 15.642 25.312 15.925 27.87 5.099 46.197-11.255 19.051-10.742 20.482 28.517 79.563 21.987 33.093 40.874 61.254 41.971 62.58 4.354 5.277 68.333-37.061 81.714-54.073 13.149-16.713 14.257-16.996 14.257-3.612 0 9.115-19.261 31.254-51.783 59.528-69.907 60.766-71.924 62.202-82.143 58.499Zm-815.112-118.117c-31.298-59.909-68.286-127.41-82.194-150-24.792-40.263-25.93-41.07-57.743-41.07-17.847 0-32.453-3.216-32.453-7.144s-8.035-7.141-17.855-7.141c-9.823 0-17.858 3.212-17.858 7.141 0 4.03-20.239 7.144-46.43 7.144-26.188 0-46.426-3.114-46.426-7.144 0-9.289-26.402-9.289-32.144 0-6.309 10.208-84.687 8.885-95.179-1.607-6.905-6.904-11.702-6.904-22.761 0-7.704 4.812-23.269 8.751-34.586 8.751-16.147 0-24.712 6.248-39.787 29.03-10.568 15.969-22.433 27.958-26.373 26.646-3.939-1.316-14.827-21.246-24.196-44.297-9.365-23.048-25.704-50.958-36.309-62.024l-19.275-20.122 299.97-.418 299.971-.422 64.731 119.731c35.604 65.855 71.575 133.046 79.941 149.317 26.017 50.62 41.513 47.389 119.742-24.963 62.089-57.42 87.681-75.046 87.681-60.386 0 11.252-160.895 166.477-172.561 166.477-6.392 0-13.475 4.823-15.736 10.714-2.892 7.541-14.653 10.717-39.688 10.717h-35.579Zm821.875-10.248c-32.511-49.232-35.393-56.606-26.118-66.858 13.922-15.38 13.155-25.719-3.951-53.397-12.912-20.892-13.195-23.709-2.776-27.706 7.893-3.031 10.415-1.363 7.893 5.204-2.039 5.313-1.032 13.98 2.235 19.264 4.881 7.901 7.926 7.959 17.117.327 6.149-5.102 9.42-12.127 7.265-15.612-2.152-3.481 2.296-6.331 9.885-6.331 15.121 0 60.167 45.562 90.781 91.825 17.019 25.718 18.45 31.947 11.287 49.17-6.53 15.696-39.328 41.567-72.832 57.441-2.333 1.101-20.682-22.895-40.782-53.331Zm55.737 26.318c0-14.787-17.233-19.708-25.003-7.141-5.978 9.674 2.09 21.427 14.708 21.427 5.662 0 10.295-6.429 10.295-14.286m-734.121 9.493c-12.324-4.954-38.944-58.209-33.5-67.018 8.29-13.414-11.266-56.758-25.606-56.758-16.096 0-38.402-38.871-31.952-55.679 5.793-15.1-17.825-58.608-31.817-58.608-5.985 0-18.436-14.228-27.659-31.617-15.609-29.419-16.02-33.02-5.906-51.787 5.978-11.091 12.625-25.792 14.777-32.667 3.078-9.853 11.971-12.498 41.985-12.498h38.082l28.078 58.927c33.772 70.877 30.763 66.044 37.156 59.648 2.878-2.875-9.177-32.424-26.788-65.658l-32.017-60.429-49.508 1.97c-47.589 1.893-49.715 2.747-54.861 22.07-11.208 42.08-1.813 40.611-259.969 40.611h-237.587l-11.702-17.854L1185.386 300H414.559l-88.23 46.43c-78.487 41.298-92.704 46.426-128.711 46.426-55.148 0-53.466-11.586 11.132-76.615l51.608-51.954h96.963c57.434 0 99.983-3.02 104.373-7.41 5.117-5.117 13.439-5.117 26.893 0 12.781 4.859 191.727 7.41 520.233 7.41h500.751l47-45.024c46.103-44.162 47.648-44.965 80.929-42.138 31.181 2.653 33.936 4.416 34.023 21.809.058 10.408 2.039 26.155 4.405 34.993 4.263 15.907 5.614 16.074 132.047 16.074 85.141 0 127.737-2.522 127.737-7.566 0-4.162 3.216-5.579 7.145-3.151 4.364 2.7 7.141-8.333 7.141-28.372 0-24.651 3.103-33.972 12.501-37.555 6.876-2.621 20.5-12.16 30.284-21.202 16.124-14.907 24.454-16.427 89.284-16.281 59.956.131 74.387 2.413 89.36 14.126 12.778 9.994 29.189 14.013 57.685 14.126 33.361.134 42.548-2.74 56.602-17.699l16.775-17.854h367.301l42.883 45.841 42.883 45.841 137.018.865c147.965.931 168.585-2.591 217.425-37.134 18.966-13.413 36.785-19.7 55.838-19.7h27.983l-1.341 51.786c-1.628 62.911 6.985 358.317 11.248 385.712 2.817 18.105 1.196 19.642-20.685 19.642h-23.746l-15.074-87.499c-8.294-48.124-18.993-121.974-23.775-164.108-8.09-71.284-7.785-77.618 4.394-91.072 7.195-7.955 20.623-14.46 29.836-14.46s16.75-3.216 16.75-7.145c0-12.894-30.872-7.468-47.753 8.388l-16.532 15.532V265.53c0-8.541-3.216-15.529-7.145-15.529-10.924 0-8.736 35.357 10.619 171.499 21.842 153.616 21.925 157.072 3.918 157.072-7.719 0-16.99-5.625-20.602-12.501-13.043-24.811-36.378-122.598-44.653-187.119-4.648-36.24-12.011-67.018-16.364-68.395-4.354-1.374-100.612-4.688-213.911-7.363l-205.994-4.859 27.089-27.739c24.726-25.323 30.381-27.74 64.92-27.74 28.87 0 37.835-2.536 37.835-10.713s-8.965-10.714-37.853-10.714c-20.824 0-41.509 3.649-45.968 8.108-6.051 6.051-15.289 2.424-36.386-14.286-25.74-20.388-32.867-22.394-79.497-22.394-47.869 0-55.555 2.337-117.47 35.713-36.44 19.643-68.279 35.717-70.757 35.717s-19.868-14.41-38.642-32.024l-34.14-32.021-75.779-.12-75.779-.12-34.031 29.953c-29.76 26.195-32.351 30.614-20.649 35.211 7.359 2.893 71.24 5.615 141.954 6.047 122.932.753 127.631 1.298 107.142 12.393-12.178 6.6-17.557 12.905-12.454 14.609 4.935 1.654 45.892-16.553 91.021-40.462 81.529-43.192 82.423-43.465 141.027-43.229 47.72.189 62.162 2.889 75.652 14.134l16.674 13.897-26.464 32.293-26.464 32.296h-80.46c-79.825 0-80.562.157-93.613 19.643-9.081 13.563-13.984 36.658-15.845 74.627l-2.696 54.985-47.906 28.943c-26.344 15.921-54.138 28.975-61.758 29.015-7.621.036-47.234-7.018-88.023-15.682l-74.17-15.754-27.917 16.071c-38.417 22.106-54.498 15.775-57.282-22.561-2.097-28.892-3.002-29.92-24.371-27.783-19.788 1.973-24.726-1.73-45.539-34.165-22.336-34.808-22.808-36.974-10.932-50.093 12.116-13.389 13.632-12.749 63.394 26.693 28.042 22.226 55.185 46.179 60.316 53.233 5.921 8.133 18.513 12.828 34.42 12.828 13.798 0 57.288 8.163 96.65 18.138 39.358 9.98 77.382 16.292 84.498 14.035 7.115-2.256 26.118-13.653 42.232-25.326 29.172-21.133 29.295-21.423 29.295-68.13 0-40.371-1.697-46.582-12.189-44.562-7.701 1.483-14.34 12.72-18.04 30.524-5.433 26.14-22.855 53.891-33.834 53.891-2.587 0-3.31-19.283-1.606-42.858l3.1-42.854-88.357-.2c-85.752-.192-89.146-.796-114.985-20.362l-26.627-20.162 69.485-4.605c38.213-2.529 87.161-5.273 108.77-6.098 21.605-.825-18.574-3.253-89.288-5.393-138.319-4.194-205.072 1.955-229.98 21.173-14.333 11.058-14.773 13.428-5.077 27.27 9.42 13.454 9.376 17.059-.389 31.959-10.412 15.896-9.554 18.883 16.001 55.537 21.922 31.447 31.334 39.158 50.01 40.975 21.416 2.083 23.008 4.085 23.008 28.954 0 21.023-5.193 31.751-24.36 50.329l-24.36 23.608-33.408-57.922c-18.375-31.857-37.883-57.924-43.352-57.924-5.47 0-16.663-13.167-24.872-29.263-8.214-16.095-16.54-27.656-18.502-25.693-6.512 6.512 26.9 63.674 39.078 66.857 6.578 1.723 24.749 27.006 40.376 56.192l28.419 53.062-35.313 35.851c-19.421 19.719-37.04 35.597-39.151 35.288s-7.944-2.213-12.96-4.23Zm-188.736-339.492c13.58-13.581 10.415-47.081-5.245-55.461-28.775-15.402-57.612.101-57.612 30.974 0 21.081 12.938 33.06 35.713 33.06 10.216 0 22.43-3.856 27.144-8.573m882.987-24.335c6.214-2.384 11.299-7.348 11.299-11.026 0-10.397-101.873-4.179-105.384 6.433-2.14 6.479 8.809 8.929 39.918 8.929 23.578 0 47.953-1.952 54.167-4.336m-538.702-32.602c0-14.754 23.113-34.492 40.394-34.492 9.212 0 16.749 2.443 16.749 5.426 0 5.517-23.404 22.757-42.857 31.574-8.083 3.663-7.112 4.979 3.954 5.357 8.071.276 25.577-10.747 38.903-24.498l24.229-25h-28.571c-23.273 0-33.06 4.634-52.801 25-18.167 18.745-21.202 24.999-12.116 24.999 6.665 0 12.116-3.765 12.116-8.366m369.016-24.076c17.04-9.987 30.985-21.238 30.985-25.003 0-3.761-18.484-6.585-41.074-6.276-42.039.578-42.679 1.784-5.364 10.106l21.424 4.779-17.851 9.638c-16.23 8.758-19.628 7.941-37.417-8.991-26.61-25.326-34.543-14.18-8.933 12.549 11.251 11.745 21.986 21.354 23.851 21.354 1.868 0 17.335-8.169 34.379-18.156m822.053 268.808c-7.399-152.014-6.752-329.222 1.2-329.222 31.392 0 35.673 26.082 21.1 128.573-4.191 29.462-9.718 111.426-12.28 182.14l-4.663 128.573Zm-2387.84-49.807c-1.778-1.773-3.228-17.153-3.228-34.179V378.57H579.335c-208.604 0-242.663-1.483-246.203-10.713-3.623-9.442 40.67-10.714 372.516-10.714 368.892 0 376.811.294 385.551 14.286 8.762 14.028 7.134 14.286-90.265 14.286-106.87 0-109.443.847-126.214 41.498-5.226 12.673-13.247 18.247-27.129 18.854-10.841.476-21.162-.588-22.935-2.366m2187.998-52.055c-14.646-14.421-49.879-37.846-78.298-52.063l-51.67-25.85 70.604 2.061 70.608 2.064 9.685 42.712c5.328 23.491 8.788 45.994 7.694 49.999-1.098 4.008-13.977-4.51-28.623-18.927Zm-1004.888-34.412c-50.689-46.583-51.601-41.121 8.951-53.513 12.026-2.46 29.161 5.826 61.058 29.528l44.344 32.95-15.878 16.903c-25.399 27.034-47.117 21.329-98.475-25.868M389.284 324.741c17.305-7.922 95.894-9.874 408.166-10.132 337.374-.28 387.26 1.043 390.847 10.39 3.626 9.452-44.475 10.648-408.163 10.136-355.57-.502-409.33-1.93-390.85-10.394m1720.337-89.026c23.782-20.882 26.315-21.431 98.911-21.431 73.46 0 74.794.302 95.036 21.431l20.53 21.427h-238.884ZM0 242.391c0-3.58 12.858-8.566 28.572-11.077 26.257-4.197 28.571-6.374 28.564-26.871-.003-18.756-2.845-22.463-17.883-23.331C14.98 179.709 0 173.375 0 164.511c0-10.564 55.13-9.133 60.12 1.559 3.332 7.145 5 7.145 8.333 0 3.129-6.705 39.601-8.929 146.427-8.929h142.263v93.187l-178.571-.716C76.43 249.205 0 246.112 0 242.391m371.429-38.82v-46.43h82.143c45.176 0 81.928 2.413 81.67 5.36-.258 2.944-21.957 23.779-48.214 46.292-43.472 37.276-50.777 40.95-81.671 41.07l-33.928.134Zm1325.689 33.26c-4.186-6.771 47.521-22.547 73.901-22.547 28.95 0 13.959-13.424-24.636-22.063-21.63-4.84-37.813-10.313-35.964-12.167 1.854-1.849 25.589 2.399 52.743 9.442 47.12 12.222 52.223 12.24 111.652.44 34.252-6.804 63.874-10.772 65.829-8.817 4.089 4.089-45.383 18.781-63.438 18.84-17.076.058-22.746 12.53-7.653 16.844 6.927 1.981.778 1.911-13.661-.153-21.852-3.125-94.164 8.635-142.793 23.219-6.542 1.962-13.734.596-15.98-3.038M510.715 207.143c15.344-15.714 28.852-28.571 30.018-28.571 1.171 0 2.123 12.857 2.123 28.571v28.572h-60.04Zm69.286 19.999c-13.178-13.177-10.194-32.914 6.308-41.745 11.87-6.353 17.648-5.459 28.572 4.426 16.612 15.034 16.975 20.155 2.464 34.666-13.421 13.421-25.704 14.293-37.344 2.653m30.712-19.999c0-5.785-5.626-11.604-12.498-12.926-8.773-1.69-12.502 2.169-12.502 12.926s3.729 14.613 12.502 12.927c6.872-1.326 12.498-7.141 12.498-12.927m57.652 17.346c-6.171-6.174-11.222-13.98-11.222-17.346 0-7.937 20.634-28.571 28.571-28.571 7.934 0 28.572 20.634 28.572 28.571 0 7.934-20.638 28.572-28.572 28.572-3.368 0-11.175-5.051-17.349-11.226M700 207.143q-.001-14.287-14.286-14.286-14.286 0-14.285 14.286-.001 14.285 14.285 14.286 14.285-.001 14.286-14.286m35.499 0-3.358-32.144-91.406-3.572-91.41-3.569 32.169-31.541c17.695-17.349 30.513-34.223 28.488-37.501-2.024-3.278 25.625-5.96 61.447-5.96 41.6 0 63.532-2.58 60.712-7.141-2.442-3.954-34.75-7.145-72.309-7.145-67.577 0-67.988-.105-87.078-22.797-29.375-34.906-25.683-43.028 20.104-44.267 30.538-.829 44.348 2.544 62.021 15.143 17.117 12.2 32.602 16.209 62.649 16.209 39.205 0 40.31.567 62.664 32.282l22.757 32.286 321.739-3.74c176.958-2.057 542.834-6.138 813.059-9.071l491.323-5.331-39.536-39.042c-21.746-21.47-39.536-41.56-39.536-44.642 0-3.078 28.205-5.6 62.679-5.6h62.678l53.215 53.571 53.211 53.571H2295.53l-20.533 21.431c-17.055 17.804-26.155 21.427-53.8 21.427-24.2 0-36.796-3.896-46.198-14.286-11.578-12.792-22.001-14.286-99.772-14.286h-86.842l-20.529 21.431-20.529 21.427h-365.724l-35.175 35.713-35.178 35.716h-198.938l-30.999-28.572c-17.048-15.714-35.237-28.571-40.419-28.571-5.183 0-21.98 12.857-37.323 28.571s-32.7 28.572-38.566 28.572c-6.999 0-2.82-8.097 12.164-23.557 12.556-12.952 22.83-25.809 22.83-28.571 0-2.759-22.5-5.015-49.999-5.015s-50.003 2.256-50.003 5.015c0 2.762 10.274 15.619 22.83 28.571 14.984 15.46 19.167 23.557 12.167 23.557-5.869 0-23.222-12.858-38.565-28.572-15.347-15.714-31.418-28.571-35.717-28.571-4.295 0-20.369 12.857-35.713 28.571-16.153 16.543-34.64 28.572-43.915 28.572-14.039 0-16.284-4.187-18.192-33.928l-2.177-33.929-108.549-1.97-108.548-1.969-2.381 37.682-2.38 37.683Zm613.58-16.909c19.628-20.25 21.449-24.764 11.531-28.572-16.059-6.16-96.327-5.746-96.327.498 0 8.293 45.049 52.124 53.571 52.124 4.354 0 18.404-10.822 31.225-24.05m-48.887-7.887-16.132-17.171 36.487 1.341c20.064.738 36.509 1.926 36.538 2.638.033.716-9.129 7.839-20.351 15.834l-20.41 14.53Zm-580.531-37.704c2.21-6.676-12.407-8.929-57.932-8.929-56.417 0-75.612 5.164-63.652 17.128 8.816 8.813 118.401 1.424 121.584-8.199m148.194 1.784c0-7.602-98.911-14.027-115.853-7.526-5.528 2.119-7.974 7.218-5.434 11.328 5.95 9.623 121.287 6.007 121.287-3.802m142.858 0c0-7.602-98.91-14.027-115.856-7.526-5.528 2.119-7.97 7.218-5.43 11.328 5.946 9.623 121.286 6.007 121.286-3.802m160.714 0c0-8.623-11.063-10.713-56.722-10.713-52.292 0-71.259 5.353-59.749 16.862 2.511 2.512 29.745 4.569 60.519 4.569 44.973 0 55.952-2.105 55.952-10.718m400.001-33.477c0-3.195-9.642-5.808-21.431-5.808-19.933 0-21.427 1.835-21.427 26.337v26.337l21.427-20.53c11.789-11.291 21.431-23.142 21.431-26.336m926.786-46.874c3.907-11.731-18.476-20.104-28.074-10.502-4.107 4.106-5.201 11.138-2.428 15.626 6.313 10.212 26.526 6.814 30.502-5.124m-58.932-30.363c0-5.782-5.625-11.6-12.498-12.923-8.772-1.69-12.501 2.166-12.501 12.923 0 10.761 3.729 14.616 12.501 12.927 6.873-1.323 12.498-7.142 12.498-12.927M805.802 230.834c5.156-2.064 11.316-1.809 13.693.564 2.373 2.373-1.846 4.063-9.376 3.754-8.322-.346-10.016-2.035-4.317-4.318m87.339-5.491c-18.912-22.786 8.991-58.604 31.261-40.125 13.436 11.15 14.668 29.997 2.74 41.924-11.451 11.451-23.534 10.812-34.001-1.799m33.645-16.412c3.907-11.727-18.472-20.1-28.074-10.502-4.106 4.11-5.2 11.142-2.424 15.63 6.309 10.212 26.523 6.814 30.498-5.128m108.949 1.759 24.254-25.021 23.575 22.852c12.966 12.57 23.578 23.829 23.578 25.024 0 1.192-21.525 2.17-47.829 2.17h-47.829Zm182.151 3.565 20.555-21.456 20.064 19.221c11.037 10.572 20.064 20.228 20.064 21.46 0 1.228-18.28 2.235-40.619 2.235h-40.623Zm-84.956-6.24c-6.327-6.992-11.502-14.87-11.502-17.505 0-6.207 28.307-5.299 45.507 1.461 12.356 4.855 12.011 6.138-4.568 17.004-16.765 10.982-18.683 10.921-29.437-.96m1604.186-38.736c-20.417-20.671-37.119-39.093-37.123-40.931 0-1.843 96.643-2.454 214.771-1.356 195.271 1.81 214.565 3.064 212.497 13.802-1.25 6.495-16.735 22.038-34.412 34.547l-32.137 22.735-143.24 4.394-143.24 4.393Zm-2254.38-25.465c-2.104-3.401-11.328-4.749-20.5-2.998-21.885 4.187-39.14-14.9-26.853-29.702 6.302-7.595 17.796-9.22 43.602-6.163 21.671 2.569 38.777 1.054 44.821-3.961 10.063-8.348 69.052-9.391 69.052-1.221 0 2.514-10.601 14.845-23.556 27.401-18.793 18.214-29.535 22.83-53.15 22.83-16.277 0-31.316-2.784-33.416-6.186m318.508-60.345c-21.499-22.884-19.766-26.326 13.265-26.326 19.007 0 30.193 3.642 32.907 10.714 4.536 11.822 38.297 14.969 38.297 3.572 0-10.292 81.133-8.871 91.606 1.607 6.905 6.905 11.706 6.905 22.761 0 16.768-10.47 92.776-11.79 92.776-1.607 0 3.929 8.035 7.141 17.859 7.141 9.819 0 17.854-3.212 17.854-7.141 0-4.03 20.239-7.144 46.43-7.144 26.192 0 46.43 3.114 46.43 7.144 0 3.929 8.035 7.141 17.855 7.141 9.823 0 17.858-3.503 17.858-7.784 0-5.055 16.888-7.039 48.214-5.658 38.363 1.69 52.528-.734 69.329-11.859 20.399-13.511 37.327-14.013 501.31-14.867l480.2-.883 19.668 20.526 19.664 20.525-470.979.255c-394.837.214-473.865 1.904-488.834 10.463-14.682 8.391-71.313 10.252-318.4 10.459l-300.537.254Z"/></svg>