<svg xmlns="http://www.w3.org/2000/svg" width="2492.133" height="1000" viewBox="0 0 2492.133 1000"><path d="M1246.696 962.156c-11.585-21.921-34.651-65.306-51.26-96.411l-30.192-56.558 29.793-35.655 29.793-35.655-52.918-95.175-52.913-95.179 33.227-1.792c39.158-2.118 32.101-9.412 93.536 96.695l44.777 77.331 32.01 1.723 32.013 1.722 33.481 61.487c30.386 55.802 33.773 65.644 36.636 106.473l3.159 44.991-31.378 29.673c-28.717 27.162-33.761 29.681-59.538 29.739-15.493.032-37.392 1.501-48.665 3.252-20.246 3.151-20.748 2.708-41.561-36.661m88.641-36.211c29.779-29.833 53.259-58.528 55.109-67.341a7117 7117 0 0 0 5.978-28.884c1.708-8.37-2.726-21.602-11.626-34.699l-14.384-21.169-22.772 8.943c-13.439 5.281-42.795 29.077-71.654 58.089l-48.891 49.141 21.751 43.955c11.96 24.175 24.639 43.952 28.175 43.952s29.779-23.393 58.314-51.987m-62.922 32.955c-3.06-4.027-12.894-20.141-21.856-35.811l-16.292-28.496 43.098-43.683c23.706-24.025 53.495-49.072 66.196-55.653l23.099-11.967 10.572 13.061c6.709 8.282 10.575 22.731 10.575 39.514 0 25.352-2.126 28.63-50.834 78.407-27.958 28.572-52.67 51.947-54.913 51.947-2.246 0-6.585-3.293-9.645-7.319m104.897-14.363c15.245-14.885 22.208-26.82 22.208-38.064 0-9.009-1.977-16.07-4.394-15.692-2.413.378-19.977 17.506-39.03 38.06-34.318 37.033-34.485 37.378-17.815 37.378 11.502 0 23.851-6.858 39.031-21.682m-237.569-184.652c-36.509-65.792-115-211.435-115-213.387 0-5.88 69.711-.832 74.813 5.419 3.286 4.026 29.481 46.99 58.212 95.473l52.238 88.154-24.952 30.512-24.956 30.516Zm586.616 14.555c-25.247-29.524-139.45-238.557-139.45-255.242 0-8.94-6.055-19.504-15.387-26.845-12.469-9.809-14.05-13.712-8.334-20.599 11.128-13.41 59.604-42.243 84.135-50.046 30.839-9.808 22.146-15.121-10.012-6.116-15.856 4.437-38.304 18.207-57.326 35.161-25.206 22.466-41.055 30.85-81.823 43.286-43.868 13.381-60.963 15.424-129.147 15.424h-78.589l-9.801-20.555-9.801-20.555 21.892 2.925c12.043 1.607 50.882 5.721 86.307 9.14l64.416 6.215 43.279-17.873c23.804-9.831 46.779-22.481 51.053-28.114 19.308-25.432-1.432-83.437-29.833-83.437-13.526 0-14.725 2.123-14.725 26.086 0 20.141-3.395 29.481-14.904 40.99-18.374 18.374-23.949 19.268-11.778 1.89 9.506-13.574 11.433-33.373 5.425-55.792-3.401-12.69-5.996-13.174-70.681-13.174-51.107 0-66.567-1.748-64.717-7.319 1.81-5.451 37.439-8.155 139.567-10.59 115.708-2.758 144.454-5.259 183.983-16.012 25.766-7.01 61.999-12.789 80.518-12.836 33.238-.087 33.671.127 33.671 16.826 0 14.911-2.602 17.404-21.961 21.031-40.507 7.596-59.968 19.054-68.977 40.616-11.709 28.019-4.71 43.101 34.478 74.311 53.603 42.69 148.891 170.813 162.61 218.646 6.996 24.389-4.702 39.42-57.5 73.886-48.723 31.81-80.162 37.886-96.588 18.672m69.514-77.982c26.304-9.964 42.839-28.88 42.839-49.003 0-21.619-38.529-81.747-89.364-139.457-41.251-46.834-59.178-51.231-90.865-22.288-23.905 21.834-24.356 41.495-1.606 70.219 9.5 11.993 28.248 43.992 41.666 71.113s29.822 55.24 36.454 62.486c13.174 14.395 34.71 16.848 60.876 6.93m-53.179-10.651c-5.495-6.073-19.283-30.447-30.636-54.168-11.353-23.716-30.981-56.543-43.617-72.944s-22.975-33.914-22.975-38.919c0-9.35 37.152-45.449 46.775-45.449 22.107 0 50.239 29.779 109.872 116.301 34.045 49.395 37.017 63.169 17.567 81.387-26.842 25.141-61.152 31.29-76.986 13.792m-496.267-56.512-50.616-84.697 30.12.105 30.12.105 44.54 80.414 44.54 80.416-15.26 3.7c-8.395 2.035-19.213 3.914-24.047 4.179-5.298.291-28.851-33.1-59.397-84.218ZM503.979 493.36c.69-63.787 3.419-96.971 8.845-107.594 4.318-8.449 6.196-17.011 4.176-19.032-2.017-2.017-58.263-3.67-124.986-3.67H270.698l-21.176 23.44c-20.366 22.543-21.177 25.127-21.177 67.345 0 24.145-2.107 43.901-4.684 43.901-13.214 0-18.741-17.263-18.741-58.543 0-43.777.356-44.831 22.208-66.171 13.962-13.635 27.798-21.685 37.272-21.685 8.286 0 21.769-5.27 29.956-11.709 14.417-11.339 23.757-11.713 293.237-11.713 209.997 0 279.515 1.726 283.087 7.028 2.606 3.867 28.699 50.639 57.987 103.941 50.853 92.551 54.941 105.325 33.801 105.609-3.656.047-27.245-36.142-52.415-80.428-42.949-75.554-61.712-100.535-75.624-100.688-3.223-.036-.054 4.488 7.033 10.052 10.422 8.181 101.298 160.129 101.298 169.374 0 1.417-7.744-2.937-17.207-9.678-9.467-6.738-30.473-35.429-46.685-63.758-43.89-76.699-38.329-73.773-144.585-75.986-61.334-1.276-90.171.13-90.171 4.393 0 12.306-21.518 5.971-37.941-11.171l-16.706-17.437 113.698-1.726 113.695-1.73-118.579-1.33c-65.219-.73-118.583.229-118.583 2.133 0 1.901 8.802 13.741 19.556 26.308 10.757 12.563 22.615 33.053 26.351 45.529 8.37 27.925 9.06 106.234.941 106.234-3.219 0-5.854-10.071-5.854-22.38 0-30.865-16.18-75.532-31.16-86.024-19.29-13.515-46.706-10.928-62.511 5.898-12.89 13.723-13.646 18.546-12.349 79.054.949 44.348-.661 64.441-5.157 64.441-4.575 0-6.236-27.652-5.534-92.227m40.582-110.286c0-10.343-12.607-8.541-16.226 2.315-1.272 3.826 1.857 6.955 6.956 6.955 5.098 0 9.27-4.172 9.27-9.27m32.235 3.372c2.003-3.242-.588-7.523-5.763-9.507-11.212-4.303-17.463.44-12.073 9.158 4.862 7.868 13.086 8.032 17.836.349m-54.385 133.806c1.61-63.441 2.086-65.509 17.746-77.186 33.445-24.941 64.844 5.622 72.032 70.111l4.002 35.927-31.421 11.866c-17.284 6.523-38.759 14.7-47.721 18.17l-16.291 6.302Zm513.867 8.257c35.226-1.417 52.627-4.735 60.04-11.444 9.972-9.027 9.776-10.582-4.463-34.877l-14.903-25.428 33.917.036c31.53.033 34.623 1.272 43.897 17.568 9.965 17.516 10.02 17.531 64.936 17.531 51.347 0 55.355.865 60.872 13.174 12.345 27.529 10.35 27.892-146.522 26.624-81.053-.654-125.052-2.09-97.774-3.187Zm-98.904-93.823c-23.898-44.224-48.454-87.652-54.567-96.509l-11.113-16.103h115.345l23.131 45.384c12.724 24.959 24.059 47.356 25.196 49.773s-11.331 4.394-27.703 4.394c-24.76 0-29.768 1.77-29.768 10.539 0 17.909 12.738 24.596 46.852 24.596h32.798l12.88 26.507c7.083 14.581 12.879 27.755 12.879 29.281 0 1.523-23.058 2.718-51.241 2.657l-51.238-.113Zm1463.5 75.413c-14.399-3.987-14.736-5.459-20.493-89.637-4.841-70.717-7.799-87.718-17.033-97.865-9.391-10.317-10.092-14.667-4.394-27.176 9.972-21.885 8.7-75.732-1.999-84.61-5.538-4.598-8.784-4.99-8.784-1.062 0 3.424 2.635 7.857 5.859 9.845 8.435 5.215 6.821 56.068-2.301 72.527-5.869 10.587-8.903 12.088-12.541 6.2-2.871-4.644-2.032-8.685 2.093-10.063 8.475-2.824 9.467-65.735 1.036-65.735-9.453 0-6.709-15.986 3.409-19.867 5.091-1.956 34.811-3.555 66.036-3.555 86.268 0 82.256-6.607 79.105 130.238-1.428 62.028-2.737 127.686-2.911 145.908-.273 28.852-1.944 33.565-12.952 36.52-16.35 4.386-55.432 3.507-74.126-1.668Zm70.27-53.339c0-19.25-6.276-22.387-17.567-8.784-5.815 7.007-5.815 10.557 0 17.568 11.291 13.602 17.567 10.462 17.567-8.784m-9.194-37.025c-6.211-16.19-14.228-11.121-14.228 8.998 0 16.932.905 17.92 8.998 9.823 5.092-5.091 7.363-13.264 5.23-18.821m9.194-27.391c0-9.663-2.551-17.567-5.669-17.567-3.122 0-4.317-3.533-2.664-7.846 1.657-4.314-1.192-11.335-6.334-15.602-8.337-6.919-9.209-4.971-8.09 18.095 1.239 25.617 7.712 40.488 17.619 40.488 2.827 0 5.138-7.904 5.138-17.568m-70.27-117.118c0-6.44-2.478-11.713-5.509-11.713-7.861 0-13.4 10.659-9.129 17.568 6.12 9.903 14.638 6.498 14.638-5.855m2.202-26.573c1.992-5.186-.334-10.459-5.48-12.436-11.458-4.397-16.688.89-12.269 12.407 4.445 11.582 13.312 11.597 17.749.029M234.2 453.486c0-34.362 1.952-40.834 18.549-61.487l18.545-23.077H390.36c125.619 0 129.591.934 111.129 26.181-5.404 7.395-11.447 9.507-18.952 6.628-18.978-7.282-189.82-4.931-199.061 2.741-5.052 4.193-8.286 17.927-8.286 35.207 0 21.609-3.042 31.171-12.814 40.274-22.543 21.002-28.176 15.711-28.176-26.467m936.942 14.983c-5.28-9.863-4.455-11.709 5.23-11.709 15.001 0 30.309-15.554 26.1-26.522-2.26-5.898-12.014-8.613-30.912-8.613h-27.609l-25.933-44.918c-33.402-57.86-32.708-54.633-11.778-54.633 17.622 0 18.058.665 18.145 27.816.123 38.122 5.091 44.482 29.767 38.086 23.23-6.018 30.469-24.014 11.641-28.939-8.824-2.307-12.219-7.886-12.219-20.079 0-15.274 1.883-16.884 19.774-16.884 17.996 0 20.856 2.5 31.824 27.816 6.629 15.296 22.089 48.894 34.358 74.66 12.265 25.767 23.197 48.825 24.29 51.238 1.094 2.417-17.901 4.394-42.21 4.394-38.206 0-45.049-1.588-50.468-11.713m60.512-2.5c1.763-4.594-.723-11.615-5.523-15.598-7.029-5.833-10.521-5.455-17.913 1.937-5.052 5.052-7.399 12.069-5.219 15.601 5.695 9.213 24.872 7.916 28.655-1.94m58.616-13.857c-2.257-8.631-7.879-12.92-16.943-12.92-11.309 0-19.526-11.178-49.482-67.344-35.117-65.833-36.375-67.341-56.025-67.341h-20.104v35.135c0 27.325-1.951 35.135-8.784 35.135-6.777 0-8.802-7.686-8.871-33.671-.047-18.519-2.86-37.624-6.239-42.458-4.816-6.876-5.346-5.92-2.446 4.394l3.707 13.174H990.004c-86.151 0-135.081-2.119-135.081-5.855 0-3.22 3.954-5.854 8.783-5.854 4.834 0 8.784-3.954 8.784-8.784 0-4.834-3.95-8.784-8.784-8.784-6.952 0-8.783-8.369-8.783-40.179v-40.18l16.103 2.9c8.86 1.596 19.399 5.506 23.425 8.69 5.375 4.248 7.32 2.486 7.32-6.64 0-9.449-3.616-12.429-15.071-12.429-11.194 0-14.562-2.634-13.105-10.248 1.686-8.82 10.216-10.481 61.181-11.909 55.708-1.563 59.408-.941 62.395 10.488 2.588 9.889 1.09 11.488-8.046 8.588-9.489-3.013-11.23-.626-11.23 15.419v18.982l13.556-12.731 13.552-12.734 336.334-.938c184.986-.516 327.773-1.998 317.306-3.299-14.108-1.749-19.032-5.295-19.032-13.701 0-6.237-3.954-11.343-8.784-11.343-4.88 0-8.783 5.208-8.783 11.713 0 6.44-2.635 11.713-5.855 11.713-3.223 0-5.858-5.273-5.858-11.713 0-6.505-3.903-11.713-8.784-11.713s-8.784 5.208-8.784 11.713c0 11.553-3.903 11.713-289.316 11.713-286.437 0-289.286-.12-286.255-11.713 2.987-11.422 7.987-11.713 202.481-11.713 181.613 0 200.453-.912 210.985-10.248 8.478-7.508 12.247-8.293 14.126-2.925 1.922 5.491 29.138 7.319 109.105 7.319 100.077 0 107.164.727 116.798 11.974 8.769 10.241 15.939 11.728 49.552 10.249 33.412-1.468 39.619-3.42 41.451-13.025 2.042-10.695 1.621-10.761-7.937-1.203-16.056 16.056-23.244 8.188-25.13-27.489-1.948-36.792 3.572-40.797 35.676-25.89 12.088 5.615 15.773 11.517 15.809 25.331.044 20.1 13.137 33.961 49.406 52.321l23.016 11.651-143.059 3.587c-78.684 1.973-217.501 3.95-308.486 4.39l-165.431.806v58.558l147.863.131 147.86.13-14.639 11.568c-13.559 10.71-23.644 11.535-136.495 11.15-84.371-.288-124.372 1.675-130.034 6.378-12.015 9.968-20.41 1.849-20.41-19.745 0-10.437-3.161-22.139-7.028-26.006-9.772-9.772-96.164-9.521-99.943.294-2.123 5.51 9.681 7.32 47.684 7.32 48.425 0 50.431.523 48.756 12.679-.974 7.072 16.669 48.153 39.877 92.857 22.895 44.097 40.049 81.754 38.115 83.687-1.929 1.93-5.029-2.304-6.89-9.409ZM901.771 295.723c0-4.834-3.954-8.784-8.784-8.784s-8.784 3.95-8.784 8.784c0 4.83 3.954 8.784 8.784 8.784s8.784-3.954 8.784-8.784m846.175-149.324c0-10.739-3.297-20.621-7.32-21.962-5.077-1.693-7.322 5.045-7.322 21.962s2.245 23.651 7.322 21.957c4.023-1.341 7.32-11.222 7.32-21.957m26.351 8.783c0-4.833-2.635-8.783-5.858-8.783-3.22 0-5.855 3.95-5.855 8.783 0 4.83 2.635 8.784 5.855 8.784 3.223 0 5.858-3.954 5.858-8.784m-784.979 287.23c-3.06-3.06-5.564-7.672-5.564-10.248 0-6.625 203.527-5.877 207.634.767 1.85 2.998.229 7.392-3.612 9.765-10.423 6.439-191.993 6.181-198.458-.284m66.385-28.11c-7.915-10.325-48.527-84.632-48.527-88.79 0-1.89 13.835-3.42 30.745-3.398l30.741.04 23.426 42.414c32.137 58.202 32.173 57.057-1.784 57.057-16.296 0-31.447-3.206-34.601-7.319ZM3.656 402.593c-6.28-23.437-4.081-63.198 3.631-65.586 4.023-1.243 25.762-3.562 48.308-5.146 22.547-1.585 35.721-1.545 29.281.087-22.347 5.669-23.31 13.548-1.661 13.548 11.648 0 22.51-3.296 24.135-7.323 1.624-4.023 3.161 11.786 3.416 35.139l.461 42.455H59.208c-48.996 0-52.227-.767-55.552-13.178Zm101.713 1.464c0-3.223-9.22-5.858-20.493-5.858s-20.497 2.635-20.497 5.858c0 3.22 9.224 5.855 20.497 5.855s20.493-2.635 20.493-5.855m0-29.28c0-3.22-9.22-5.858-20.493-5.858s-20.497 2.638-20.497 5.858 9.224 5.854 20.497 5.854 20.493-2.634 20.493-5.854m54.821 26.351c-1.853-4.833-8.358-8.784-14.456-8.784-6.095 0-11.085-2.634-11.085-5.858 0-3.22 5.426-5.855 12.059-5.855 7.061 0 10.455-2.591 8.191-6.254-2.126-3.442-7.552-4.841-12.058-3.111-4.677 1.795-8.192-.469-8.192-5.273s3.515-7.068 8.192-5.273c4.506 1.73 9.932.327 12.058-3.111 2.264-3.663-1.13-6.254-8.191-6.254-6.633 0-12.059-2.639-12.059-5.859s6.589-5.854 14.642-5.854c9.108 0 14.639-3.318 14.639-8.784 0-7.076 9.107-8.784 46.848-8.784 42.941 0 46.844.974 46.844 11.713 0 7.672-3.903 11.709-11.317 11.709-11.444 0-53.095 45.264-53.095 57.7 0 9.965-29.098 8.144-33.02-2.068m1155.799-53.277c-1.941-1.94-16.703-3.968-32.809-4.502-33.431-1.116-41.088-5.902-32.145-20.094 5.55-8.802 21.162-10.15 133.923-11.545l127.636-1.581 43.032-40.874 43.028-40.877H1827v26.351c0 25.378.65 26.352 17.567 26.352 14.955 0 17.568 2.235 17.568 15.027 0 28.997-9.489 37.675-41.197 37.675-27.107 0-29.074-.988-29.074-14.638 0-9.242 3.308-14.638 8.966-14.638 14.079 0 17.858-18.168 5.64-27.1-11.88-8.686-26.318-1.461-26.318 13.177 0 5.898-9.039 8.101-33.671 8.199-18.52.072-65.295 7.973-103.941 17.553-85.228 21.125-108.334 22.346-108.334 5.738 0-6.509-3.903-11.713-8.784-11.713s-8.784 5.204-8.784 11.713c0 11.197-3.903 11.709-88.84 11.709-70.812 0-90.815 1.788-98.563 8.799-5.345 4.837-11.305 7.21-13.246 5.269m334.154-64.372c38.66-17.422 46.147-22.957 43.704-32.296-3.626-13.876-13.264-20.486-18.29-12.549-2.057 3.245-24.818 12.232-50.584 19.966-42.469 12.752-47.023 15.554-48.702 29.985-1.577 13.545.317 15.922 12.684 15.922 7.991 0 35.527-9.464 61.188-21.028M275.19 328.332c0-13.279-.371-13.337-71.488-11.266l-71.491 2.079-4.005-19.57c-6.36-31.054.207-65.339 12.512-65.339 8.708 0 9.885 3.722 7.291 23.07-1.701 12.687-1.4 29.815.668 38.061 3.685 14.682 4.845 14.994 55.868 14.994 32.57 0 52.903-2.406 54.24-6.418 1.508-4.521 86.384-6.625 287.426-7.126l285.289-.709v-85.297h-43.919c-25.377 0-43.918 2.474-43.918 5.858 0 3.22-6.433 5.854-14.297 5.854-7.861 0-15.921-2.634-17.913-5.854-1.988-3.224-11.368-5.858-20.838-5.858-9.475 0-17.223 2.634-17.223 5.858 0 3.22-7.908 5.854-17.567 5.854-9.663 0-17.568-2.634-17.568-5.854 0-3.224-7.751-5.858-17.222-5.858-9.474 0-18.85 2.634-20.842 5.858-1.991 3.22-10.052 5.854-17.913 5.854-7.864 0-14.297-2.634-14.297-5.854 0-3.224-7.748-5.858-17.218-5.858-9.474 0-18.854 2.634-20.842 5.858-1.992 3.22-9.896 5.854-17.568 5.854-7.671 0-15.579-2.634-17.567-5.854-1.992-3.224-11.371-5.858-20.842-5.858-9.474 0-17.222 2.634-17.222 5.858 0 3.22-6.433 5.854-14.294 5.854-7.864 0-15.925-2.634-17.912-5.854-2.134-3.453-37.738-5.895-86.722-5.946-55.818-.061-80.217-1.955-74.315-5.767 5.36-3.463 120.061-5.713 294.258-5.767l285.471-.088v117.118H572.755c-269.626 0-270.498.04-284.01 12.731l-13.555 12.734ZM27.307 307.908c-4.655-12.134 3.863-16.234 42.298-20.366 36.12-3.885 43.05-15.75 7.708-13.199-29.393 2.122-54.763-7.686-50.257-19.425 2.675-6.977 13.389-8.969 48.197-8.954l44.758.014v68.668l-44.646 1.072c-35.204.847-45.369-.807-48.058-7.81m130.768-35.24v-25.981l48.313.135 48.312.134-2.057 25.846c-1.944 24.469-3.009 25.85-19.94 25.85-17.284 0-17.542-.382-7.679-11.277 11.673-12.898 10.397-30.302-2.537-34.575-7.504-2.479-7.624-1.498-.807 6.759 10.365 12.56 4.467 27.38-10.902 27.38s-21.271-14.82-10.903-27.38c6.814-8.257 6.698-9.238-.81-6.759-12.93 4.273-14.206 21.677-2.533 34.575 9.918 10.957 9.518 11.277-14.126 11.277h-24.331Zm61.799 2.049c6.037-9.765-7.537-20.962-15.616-12.883-6.756 6.756-2.526 19.247 6.52 19.247 2.838 0 6.934-2.864 9.096-6.364m43.607-19.988v-32.206h152.253v64.416H263.481Zm57.39 2.428c2.464-21.194-12.32-32.518-31.214-23.909-25.864 11.785-14.14 44.144 14.773 40.764 10.87-1.268 15.137-5.644 16.441-16.855m-37.882 2.976c-1.948-5.08.77-13.551 6.04-18.825 8.878-8.874 10.295-8.874 19.17 0 11.971 11.975 6.476 28.063-9.583 28.063-6.644 0-13.676-4.157-15.627-9.238m24.65-2.863c5.39-8.722-.857-13.461-12.072-9.158-5.172 1.984-7.767 6.261-5.761 9.507 4.747 7.679 12.971 7.519 17.833-.349m96.153 6.668c13.632-25.468-15.572-45.783-36.182-25.173-9.547 9.547-10.43 13.82-4.964 24.036 8.435 15.758 32.962 16.434 41.146 1.137m-33.46-1.319c-8.384-8.384.912-28.383 13.192-28.383s21.58 19.999 13.196 28.383c-3.714 3.714-9.652 6.752-13.196 6.752-3.543 0-9.478-3.038-13.192-6.752m21.976-7.89c0-4.829-3.95-8.783-8.784-8.783-4.83 0-8.784 3.954-8.784 8.783 0 4.834 3.954 8.784 8.784 8.784 4.834 0 8.784-3.95 8.784-8.784m70.27.411c0-31.065.713-32.617 14.948-32.617 14.351 0 14.874 1.225 13.173 30.746-1.541 26.78-3.467 30.981-14.943 32.612-12.313 1.749-13.178-.268-13.178-30.741m70.27-.411c0-30.45.8-32.206 14.642-32.206 13.839 0 14.639 1.756 14.639 32.206s-.8 32.21-14.639 32.21c-13.842 0-14.642-1.759-14.642-32.21m75.776 30.745c-.196-.806-.85-15.299-1.464-32.213-1.025-28.31-.069-30.745 12.065-30.741 12.066.003 13.174 2.715 13.174 32.209 0 28.307-1.417 32.21-11.713 32.21-6.44 0-11.869-.661-12.062-1.465m70.623-30.745c0-28.302 1.421-32.206 11.713-32.206s11.709 3.904 11.709 32.206c0 28.307-1.417 32.21-11.709 32.21s-11.713-3.903-11.713-32.21m76.125.291v-32.497h70.884l-1.77 30.746-1.769 30.741-33.671 1.755-33.674 1.759v-32.5Zm52.47 11.702c9.518-11.466 2.511-30.974-12.876-35.858-17.371-5.513-36.189 17.128-27.59 33.194 7.064 13.2 30.447 14.737 40.466 2.664m-34.387-5.516c-5.229-6.302-4.629-10.307 2.632-17.568 5.171-5.171 11.527-9.405 14.122-9.405 8.984 0 18.055 16.121 14.413 25.61-4.477 11.673-21.972 12.439-31.167 1.363m22.91-6.477c0-4.829-3.954-8.783-8.784-8.783-4.833 0-8.783 3.954-8.783 8.783 0 4.83 3.95 8.784 8.783 8.784 4.83 0 8.784-3.954 8.784-8.784m-371.847 0c0-17.349 2.02-20.496 13.173-20.496s13.178 3.147 13.178 20.496c0 17.35-2.024 20.497-13.178 20.497s-13.173-3.147-13.173-20.497m73.195 0c0-17.956 1.814-20.496 14.642-20.496 12.825 0 14.639 2.54 14.639 20.496 0 17.957-1.814 20.497-14.639 20.497-12.828 0-14.642-2.54-14.642-20.497m76.129 0c0-16.59 2.231-20.496 11.709-20.496 9.482 0 11.713 3.906 11.713 20.496s-2.231 20.497-11.713 20.497c-9.478 0-11.709-3.907-11.709-20.497m70.27 0c0-17.956 1.813-20.496 14.638-20.496 12.829 0 14.642 2.54 14.642 20.496 0 17.957-1.813 20.497-14.642 20.497-12.825 0-14.638-2.54-14.638-20.497m70.27 0c0-17.956 1.814-20.496 14.639-20.496 12.828 0 14.642 2.54 14.642 20.496 0 17.957-1.814 20.497-14.642 20.497-12.825 0-14.639-2.54-14.639-20.497m1122.375 16.59c-2.144-2.144-3.903-12.686-3.903-23.422v-19.519h248.875c136.881 0 250.852-.658 253.269-1.464 2.413-.804 5.2 9.735 6.192 23.425l1.799 24.887h-251.164c-138.138 0-252.92-1.755-255.068-3.903Zm-589.49-22.444v-20.497h336.084l-19.865 20.497-19.868 20.496h-296.351ZM143.433 228.378c-7.73-3.322 6.534-5.171 41.978-5.444 29.528-.225 57.885-2.02 63.017-3.99 6.828-2.62 8.358-1.05 5.709 5.854-2.94 7.661-12.607 9.358-51.307 9.024-26.228-.225-52.953-2.675-59.397-5.444m-13.512-42.272c1.589-21.784 3.533-24.771 16.441-25.269 98.326-3.801 97.505-3.703 76.125-9.154-11.269-2.875-29.059-3.802-39.525-2.061-14.628 2.428-19.032 1.065-19.032-5.887 0-7.13 7.261-9.049 34.226-9.049 40.125 0 53.612 10.353 53.612 41.16 0 15.794 1.464 18.276 7.319 12.418 5.168-5.171 7.319-31.762 7.319-90.472 0-45.736 2.133-86.446 4.739-90.473C274.067 2.806 289.33 0 310.961 0h35.077l20.86 43.919c18.451 38.856 22.699 43.919 36.861 43.919 8.806 0 23.633 6.556 32.958 14.565l16.95 14.563 199.163 1.54 199.167 1.541-23.426 11.71c-21.736 10.869-37.076 11.836-212.831 13.41l-189.409 1.697-25.664-23.659c-25.24-23.265-26.388-23.654-69.715-23.654h-44.049v40.989h61.141c61.853 0 70.096 2.741 70.463 23.426.12 6.829 9.648 9.166 42.792 10.507 25.203 1.017 41.226 4.012 39.184 7.319-1.999 3.234-50.871 5.651-115.839 5.727-102.52.12-113.666 1.134-127.022 11.582-12.229 9.565-24.094 11.473-72.069 11.582l-57.431.131Zm700.115 2.456c-32.428-2.776-26.686-12.887 7.319-12.887 16.103 0 29.28 2.355 29.28 5.23 0 7.45-11.331 9.823-36.599 7.657m-320.61-7.028c0-3.467 21.358-5.859 52.358-5.859 28.797 0 53.985 2.635 55.977 5.859 2.315 3.747-16.532 5.854-52.358 5.854-33.412 0-55.977-2.362-55.977-5.854m128.831 0c0-3.594 28.303-5.859 73.196-5.859 44.896 0 73.199 2.265 73.199 5.859 0 3.59-28.303 5.854-73.199 5.854-44.893 0-73.196-2.264-73.196-5.854m1046.298-1.458c-8.086-5.912-10.161-13.958-8.744-33.892 1.828-25.661 2.268-26.173 24.127-27.976l22.263-1.835-1.77 34.045c-1.501 28.91-3.539 34.296-13.519 35.728-6.465.926-16.528-1.803-22.357-6.07m25.326-34.168c0-30.509-13.846-28.485-16.455 2.406-1.385 16.361.367 21.507 7.319 21.507 6.785 0 9.136-6.149 9.136-23.913M428.904 162.502c1.853-5.575 47.724-8.021 192.269-10.249 108.425-1.671 194.853-5.44 201.544-8.783 7.555-3.78 106.255-4.819 278.155-2.93l266.442 2.93.462 13.173.465 13.178h-256.659c-195.417 0-256.311-1.665-255.195-6.974.807-3.834-3.147-7.981-8.784-9.213-6.367-1.392-10.248 1.25-10.248 6.974 0 8.206-22.474 9.213-205.443 9.213-161.749 0-204.927-1.556-203.008-7.319m955.978-7.32c0-9.11 3.318-14.642 8.784-14.642 5.465 0 8.783 5.532 8.783 14.642 0 9.108-3.318 14.639-8.783 14.639-5.466 0-8.784-5.531-8.784-14.639m31.991 6.113c3.892-4.692 5.379-11.28 3.3-14.642-2.271-3.674 2.602-6.113 12.229-6.113h16.005l-13.752 14.642c-14.496 15.431-29.913 20.73-17.782 6.113m41.204-8.311c0-8.988 34.3-12.444 123.522-12.444 74.86 0 86.457 1.221 83.553 8.784-2.816 7.345-20.09 8.784-105.223 8.784-56.017 0-101.852-2.304-101.852-5.124m-595.835-28.19c5.636-1.472 10.248-5.121 10.248-8.105 0-8.209 27.914-6.501 30.956 1.894 2.119 5.854 5.128 5.854 15.049 0 6.818-4.027 30.658-7.319 52.979-7.319 27.129 0 41.473 2.424 43.265 7.319 2.147 5.854 4.237 5.854 10.444 0 4.267-4.027 14.918-7.319 23.666-7.319 8.751 0 17.117 3.292 18.592 7.319 2.148 5.854 4.238 5.854 10.445 0 9.401-8.868 93.256-10.187 93.256-1.465 0 3.22 3.95 5.855 8.784 5.855 4.83 0 8.784-2.33 8.784-5.175 0-8.584 135.983-7.868 142.081.745 4.157 5.876 5.804 5.884 8.177.04 3.688-9.093 42.985-9.776 42.985-.749 0 4.586 2.613 4.405 8.649-.607 5.818-4.83 24.988-6.501 58.561-5.109l49.908 2.071V98.555c0-13.559 3.881-16.921 29.277-25.356 27.481-9.129 31.86-13.548 29.858-30.131-1.199-9.932 31.435-19.431 50.333-14.652 12.422 3.136 20.246 11.97 32.061 36.178 8.594 17.614 17.444 39.274 19.668 48.13l4.037 16.103-406.154-.675c-223.385-.375-401.546-1.887-395.909-3.358m770.341-20.559c19.879-19.875-3.496-52.99-28.107-39.819-11.422 6.112-16.532 34.219-7.81 42.941 6.364 6.363 28.343 4.452 35.917-3.122m-28.35-7.908c-6.226-7.497-5.84-10.772 2.209-18.821 9.089-9.089 10.401-9.089 19.49 0 8.05 8.049 8.435 11.324 2.21 18.821-4.143 4.993-9.522 9.078-11.953 9.078-2.435 0-7.813-4.085-11.956-9.078"/></svg>