<svg xmlns="http://www.w3.org/2000/svg" width="4349.68" height="1000" viewBox="0 0 4349.68 1000"><path d="M4185.501 272.921h42.644l2.132 2.132v473.348l-4.264 4.264h-153.518l-21.322-19.19-55.437-51.172-31.983-29.851-14.926-6.397h-46.908l-12.793 8.529-10.661 10.661-14.926 17.058h-4.264v4.264l-10.661 10.661h-4.264l-4.265 8.529h-4.264l-4.264 8.529-10.661 10.661-10.661 12.793-6.397-2.132-25.586-81.024-34.116-104.477-27.718-85.288-10.661-36.248-4.264-2.132h-140.725l-27.719 2.132-51.173 25.587-31.983 17.057h-4.264l-2.132-10.661-21.322 8.529-49.041 25.587-29.85 14.925-2.133 17.057-144.989 72.495-14.925-17.057-17.058-23.455-83.156-110.874-10.661-12.793-213.219-2.132 4.264-8.529 23.454-25.586 14.926-17.058 19.19-21.322 19.189-23.454 21.322-23.454 10.661-2.132h147.122l6.396 2.132 19.19 25.586 27.719 36.248 4.264 4.264 132.196 2.132h827.292l23.455-4.264 8.528-10.661 6.397-17.058 10.661-74.627Zm6.397 38.38-4.265 8.528 2.132 14.926 4.265 2.132h14.925l6.397-6.397-2.132-14.925-6.397-4.264Zm-1189.766 8.528-14.925 12.794-12.793 21.322-4.265 12.793v27.718l4.265 8.529 10.661 2.132 46.908 2.132 12.793 6.397h14.925l12.794-8.529 8.528-14.925-2.132-14.925-12.793-14.926-25.586-6.396-23.454-25.587-8.529-8.529Zm454.158 74.627-283.582 2.132-10.661 10.661-2.132 10.661 21.322 27.719 27.718 34.115 21.322 27.719 19.19 23.454 10.661 12.793 21.322-8.529 34.115-17.057 70.363-36.248 44.776-23.454 49.04-23.454 19.19-10.661 2.132-4.264-14.925-17.058-8.529-6.397Zm339.019 4.265-17.057 4.264-6.397 8.529 2.132 19.19 42.644 132.196 4.265 8.529 14.925 2.132 17.057-8.529 8.529-6.397h123.668l23.454 19.19 25.586 23.454 23.454 19.19 25.587 23.454 27.718 21.322 6.397 2.132h29.851l17.057-4.264 6.397-8.529 2.132-6.396V437.1l-6.397-10.661-8.528-4.264-59.702-2.132-12.793-19.19-6.397-2.132Zm14.926 187.633-10.661 6.397v12.793l8.528 8.528 12.794-2.132 8.528-10.661-6.396-10.661-4.265-4.264Zm385.927 55.437-8.529 6.397v14.925l8.529 6.397 14.925-2.133 4.265-6.396-2.132-12.793-10.661-6.397ZM1328.358 309.168h718.55l10.661 4.265 38.38 38.379 34.115 29.851 228.145 2.132-12.793 14.926-17.058 14.925-31.983 29.851-25.586 23.454-31.983 29.851-23.454 21.322h-976.546l-2.132-2.133V381.663l6.396-10.661 34.116-25.586 29.85-25.587 12.793-8.528Zm-4.264 6.397-14.926 8.529-12.793 14.925-4.264 8.529v14.925l17.057 23.455 19.19 23.454 23.454 29.85 14.926 17.058 19.19 2.132 14.925-6.396 10.661-8.529 10.661-14.926v-19.189l-19.19-27.719-19.19-23.454-21.322-27.719-12.793-10.661-14.925-4.264Zm119.403 0-17.058 8.529-12.793 19.19-2.132 17.057 12.793 19.19 25.586 31.983 21.322 27.718 12.794 14.926 8.528 4.264 19.19-2.132 14.925-8.529v-4.264l6.397-2.132 10.661-17.058v-12.793l-12.793-19.19-27.719-34.115-21.322-27.719-10.661-10.661-17.057-4.264Zm243.07 0-12.793 6.397-12.793 14.925-4.265 8.529v17.057l14.926 21.322 46.908 59.702 17.058 14.925h14.925l17.058-8.529 14.925-17.057 4.264-6.397v-17.057l-17.057-23.454-23.454-29.851-17.058-21.322-10.661-12.793-8.529-4.265Zm-117.271 0-14.925 6.397-12.793 14.925-6.397 17.058 2.132 10.661 21.322 27.718 27.719 34.115 14.925 19.19 14.926 12.793h14.925l17.058-8.529 17.057-19.189 2.132-14.926-6.396-14.925-21.322-27.719-29.851-38.379-10.661-12.793-8.529-4.265Zm245.203 0-14.925 6.397-10.661 8.528-8.529 17.058v14.925l25.586 34.115 27.719 34.116 17.057 21.322 10.661 6.396 19.19-2.132 12.793-8.529 10.661-10.661 6.397-8.529v-19.189l-12.793-19.19-25.587-31.983-21.322-27.719-10.661-10.661Zm121.535 0-14.925 6.397-14.926 17.057-4.264 21.322 14.925 23.454 17.058 19.19 19.19 25.586 19.189 23.455 10.661 6.396h14.926l19.19-10.661 12.793-14.925 4.264-8.529-2.132-14.925-14.925-23.454-21.322-25.587-21.322-27.718-17.058-14.926Zm-786.78 223.881h823.027l8.529 10.661-4.264 8.528-166.311 166.312h-162.047l-6.397-19.19-12.793-8.529h-46.908l-8.529 2.132-10.661 25.587h-162.047l-21.322-21.322-8.529-4.265h-223.88l-10.661 4.265-10.661 12.793-6.397-2.132-12.793-21.322-2.132-6.397v-98.081l12.793-25.586 17.057-14.926Zm147.121 36.247-4.264 4.264v106.61l10.661 6.397h44.776l10.661-4.265V582.09l-8.529-6.397ZM961.62 110.874h157.783v38.38l8.529 12.793 10.661 8.529 746.268 2.132 2.133 2.132 2.132 25.586 6.396 10.661 8.529 2.133 87.42 2.132 34.115 29.851 4.265 8.528H961.62Zm2074.627 76.759 6.397 2.132 14.925 25.587 2.132 2.132h12.794l10.661-10.661 8.528-14.925 57.57-2.133h473.347l12.793 21.322 6.397 6.397 14.925-2.132 10.661-14.926 6.397-12.793h434.968l17.058 25.587 4.264 4.264h12.793l12.793-19.19 6.397-10.661h63.966l4.264 4.265v57.569l-2.132 10.661h-40.512l-2.132-19.19h-100.213l-10.661 12.793-10.661 2.133-1164.179-2.133 10.661-12.793 17.057-14.925 14.926-12.793 2.132-4.265 2.132-19.19ZM2771.855 78.891l8.529 4.265v25.586l155.65 2.132v89.552l-6.396 12.794h-4.265v4.264l-17.057 14.925-23.455 21.322h-217.484l-14.925-19.189-10.661-4.265h-294.243l-68.23 2.132-4.265 10.661-8.528 10.661h-221.749l-38.379-38.379-2.133-8.529 2.133-2.132V174.84l2.132-2.132 727.079-2.132 12.793-21.322 17.057-36.248 2.133-25.586Zm113.006 36.248-14.925 6.396-10.661 10.661-2.132 4.265v19.189l8.529 14.926 17.057 10.661h12.793l19.19-12.794 6.397-12.793v-17.057l-8.529-12.793-6.397-6.397Zm1204.691 134.328h85.288v19.19l-10.661 72.494-6.396 23.455-10.661 6.396-10.661 2.132h-840.086l-117.271-2.132-17.057-21.322-25.586-34.115-10.661-12.793-140.725-2.132h-59.702l-46.908-2.133v-25.586l1194.03-2.132Zm-850.746 40.512-6.397 6.396 2.133 14.926 6.396 4.264h12.793l6.397-6.397v-12.793l-6.397-6.396Zm53.305 4.264-4.265 4.264v53.305l2.133 8.529 4.264 2.132h341.151l29.851-10.661 104.478-2.132 4.264-8.529v-29.85l-4.264-10.661-98.081-2.133-23.454-2.132-6.397-2.132Zm560.767 2.132-12.793 8.529-8.528 12.793-2.133 12.793 6.397 17.058 12.793 10.661 14.925 2.132 17.058-4.264 12.793-14.926 2.132-4.264v-17.058l-12.793-19.189-8.529-4.265Zm255.864 0-10.661 6.397-8.529 10.661-2.132 4.264v19.19l8.529 14.925 8.529 6.397 17.057 2.132 14.926-4.264 10.661-10.661 4.264-8.529v-17.058l-8.529-14.925-12.793-8.529Zm-859.275 36.248-14.925 4.264v19.19l2.132 2.132h19.19l4.264-6.397-2.132-14.925Zm-2081.024-59.702h1285.715v21.322l-12.793 14.925-17.058 14.926-27.719 25.586-14.925 14.926-12.793 10.661h-226.013l-12.793-4.265-66.098-66.098-12.793-6.397-10.661-2.132V281.45h-14.926l-2.132 4.264 4.265 10.661-29.851 2.132h-292.111l-51.173-2.132V281.45l-17.057-2.132 2.132 17.057-304.904 2.132-19.19 4.265-38.379 29.851-36.248 29.85-14.925 10.661v142.857l-2.132 2.133h-34.116l-6.396-10.661-12.793-36.248-2.133-10.661Zm21.322 17.058-4.264 2.132v14.925l12.793 4.265 6.397-2.133 2.132-14.925-4.264-4.264Zm49.041 0-8.529 2.132-2.132 8.529v38.379l4.264 8.529 10.661-4.264 34.116-27.719 12.793-10.661 2.132-10.661-4.265-2.132-21.321-2.132Zm-49.041 138.592-6.396 6.397 2.132 10.661 2.132 2.132h17.058l2.132-2.132-2.132-14.925-2.132-2.133Zm458.423 309.169h773.987l6.396 2.132-2.132 61.834-23.454 19.19-27.718 23.454-27.719 21.322-25.586 21.322-29.851 23.454-27.719 23.454-29.85 23.454-27.719 23.454-23.454 17.058-6.397 2.132h-21.322l-4.264-4.264-2.132-19.19 17.057-49.041 25.587-57.569-2.133-8.529-27.718-25.586-23.454-19.19-29.851-25.586-27.719-23.454-8.528-2.133-38.38 21.322h-74.627l-4.264 10.661-6.397 10.661-12.793 2.133-287.846-2.133Zm31.983 10.661-10.661 6.396-2.133 4.265v12.793l8.529 8.529 8.529 2.132h221.748l10.661-4.264 6.397-8.529-2.132-10.661-6.397-8.529-6.396-2.132Zm437.1 0-4.265 6.396 2.133 12.794 6.396 4.264 12.793-2.132 6.397-6.397-2.132-10.661-6.397-4.264Zm238.806 0-14.926 12.793-4.264 8.529v19.19l8.529 12.793 10.661 8.529 19.19 2.132 12.793-6.397 12.793-14.925v-23.454l-14.925-17.058-4.265-2.132Zm-144.99 6.396-14.925 12.794-2.132 12.793 8.529 12.793 23.454 21.322 23.454 19.19 29.851 25.586 6.396 4.264h14.926l14.925-12.793v-17.057l-14.925-17.058-23.454-19.19-29.851-25.586-19.19-14.925-4.264-2.133Zm-19.189 176.973-8.529 10.661 4.264 10.661 6.397 4.264 10.661-2.132 4.264-6.397v-10.661l-8.529-6.396Zm1597.015-522.388h289.978l6.397 6.396 6.396 10.661v4.265l66.099 2.132 4.264 6.396v206.823l-6.397 10.661h-40.511l-21.322-17.057-25.587-23.454-23.454-19.19-23.454-21.322-17.058-14.925-12.793-10.661-6.396-2.133h-115.139l-14.925 4.265-21.322 12.793-6.397-2.132-21.322-63.966-23.454-76.759 2.132-10.661Zm309.168 132.196-14.925 6.396-10.661 12.794-2.133 4.264v19.19l8.529 12.793 10.661 8.529 19.19 2.132 12.793-6.397 12.793-14.925 2.133-14.925-8.529-17.058-12.793-10.661ZM2669.51 407.249h187.633l-8.529 12.794-19.19 19.189-4.264 6.397h-4.264l-4.265 8.529-27.718 31.983-4.265 4.264-255.863 2.132-29.851 23.454-8.529 2.133 2.132 157.782-6.396 17.058-6.397 8.529h-204.691l-2.132-2.133v-10.661l4.265-2.132 23.454-2.132 4.264-10.661 25.586-19.19 27.719-6.396 2.132-70.363 4.265-12.793 110.874-110.874v-12.793l-10.661-10.661-10.661 2.132-19.19 14.925-19.19 19.19-4.264 6.397h-4.265l-4.264 8.528-36.247 36.248-17.058 14.925-19.19 19.19-2.132 4.264-2.132 59.702-10.661-8.529v-4.264l-8.529-4.265-6.396-10.661-25.587-2.132-2.132-2.132v-51.173l6.397-10.661 36.247-34.115 14.925-14.925 17.058-14.926 34.115-34.115 17.058-14.925Zm-4.265 6.397-10.661 8.529-2.132 4.264v14.926l6.397 10.661 6.396 4.264h87.42l12.793-8.529 2.133-19.19-6.397-10.661-6.397-4.264Zm-123.667 6.397-2.132 2.132v19.19l8.528 4.264h59.702l14.925-2.132 2.132-2.132v-17.058l-4.264-4.264Zm-125.8 115.138-14.925 6.397-14.925 17.057-4.265 8.529v19.19l6.397 14.925 10.661 12.793 17.057 8.529h17.058l19.19-8.529 10.661-8.528 8.528-17.058v-19.19l-8.528-17.057-17.058-14.926-6.397-2.132Zm21.322 95.949-12.793 8.529-8.529 10.661v23.454l14.926 17.058 8.528 4.264h14.926l12.793-6.397 8.529-10.661 2.132-4.264V650.32l-8.529-12.793-8.529-6.397Zm1132.196-168.443 27.719 2.132 10.661 27.718 27.718 85.288 31.983 91.685 66.098 196.162 14.926 40.511 2.132 8.529-10.661 10.661-29.851 17.058-12.793 4.264h-10.661l-8.529-21.322-21.322-63.966-25.586-72.494-25.586-76.759-34.115-100.214-14.926-42.644-8.529-10.661-21.322-6.396-19.189 4.264-38.38 17.058-63.966 29.851-10.661 8.528-8.528 17.058v14.925l12.793 42.644 29.85 87.42 34.116 100.213 21.322 61.834 14.925 42.644-2.132 6.397h-10.661l-21.322-63.966-25.587-74.627-10.661-31.983-23.454-68.23-29.85-87.42-8.529-25.587-19.19-55.437v-12.793l14.925-8.529h8.529l4.265 10.661 10.661-2.132 81.023-40.512v-8.529l-4.264-6.396 2.132-4.265 49.04-23.454 34.115-17.057ZM720.682 157.783h127.932l2.132 38.379 8.529 4.264v191.898l-8.529 6.397 2.132 140.725h-6.396l-2.132-44.776-12.793-17.058-6.397-4.264h-70.363l-14.925 6.396-10.661 14.926-2.132 12.793-2.132 34.115h-4.265v-144.99l-12.793-4.264V204.691l2.132-4.265 10.661-4.264Zm272.921 115.138h164.18l2.132 2.132 2.132 198.295 10.661 27.718 6.396 12.793v4.265h-166.311l-8.529-19.19-10.661-29.851Zm1127.932 260.128h102.346v53.305l-29.851 2.132-2.132 98.081h31.983l2.132 36.247-2.132 2.133H1825.16l2.132-6.397 17.058-14.925 151.386-151.386 4.264-2.132h57.569v17.057h57.57l4.264-2.132Zm-119.403 63.966-17.057 8.529-8.529 10.661-4.265 10.661v17.057l10.661 17.058 12.794 8.529 8.528 2.132h134.329l19.19-4.265 14.925-12.793 4.264-8.529v-23.454l-12.793-17.057-14.925-8.529Zm846.482-113.006h44.776l10.661 8.528-2.132 10.661-6.397 2.132-4.264 8.529-17.058 19.19-14.925 23.454-6.397 19.19v21.322l6.397 21.322 21.322 38.379 17.058 27.719 21.322 38.379 19.189 42.644 19.19 49.041 2.132 14.925-6.396 6.397-31.983 10.661-78.892 19.19-4.264-4.265-4.264-44.776-10.661-46.908-14.926-53.305-21.322-51.173-14.925-23.454-19.19-23.454-8.529-8.529 2.133-27.718 8.528-53.305 6.397-4.265 29.851-2.132 17.057-10.661 12.794-14.925 14.925-10.661Zm-72.495 63.965-10.661 10.661-2.132 14.926 8.529 12.793 6.397 4.264h12.793l14.925-12.793v-17.057l-8.529-10.661-4.264-2.133Zm132.197 247.335-10.661 6.397-8.529 10.661 2.132 12.793 10.661 12.793h17.058l14.925-10.661v-14.925l-8.529-12.793-8.529-4.265Zm-74.627-328.358h53.305l17.057 4.264 19.19 21.322 14.925 21.322-2.132 10.661-19.19 21.322-14.925 29.851-2.132 21.322 10.661 31.983 23.454 40.512 19.19 31.983 23.454 44.776L3000 810.235l6.397 19.189-2.133 8.529-91.684 25.586-119.403 29.851h-8.529l6.397-31.983-4.265-34.115-19.189-72.495-21.322-63.965-12.794-31.983-14.925-21.322-19.19-17.058-8.528-6.397 2.132-10.66 8.529-38.38 2.132-57.569 59.701-2.133 25.587-2.132 17.057-14.925 14.926-17.058Zm6.396 6.397-14.925 6.396-29.851 29.851-6.396 2.132-27.719 2.132-12.793 4.265-6.397 21.322-8.529 57.569-2.132 12.793 14.926 17.058 17.057 19.189 17.058 29.851 12.793 29.851 17.058 55.437 12.793 55.437 6.396 49.041 4.265 8.528 19.189-2.132 55.438-12.793 44.776-12.793 14.925-10.661 2.132-8.529-8.529-29.851-27.718-68.23-25.586-46.908-38.38-63.966-6.397-27.719 2.133-23.454 14.925-25.586 23.454-27.719 10.661-12.793-2.132-8.529-14.925-17.057-4.265-2.132Zm490.405 100.213h6.397l51.173 153.518 46.908 138.593 29.851 87.42 10.661 29.85-2.132 6.397-51.173 10.661h-12.793l-10.661-25.586-6.397-14.926 2.132-10.661 6.397-4.264v-10.661l-10.661-6.397-8.529-2.132-19.19-53.305-14.925-40.511-6.397-23.455 10.661-8.528V786.78l-19.189-4.264-6.397-10.661-21.322-61.834-10.661-29.85 2.132-8.529 6.397-2.132 2.132-12.794-4.264-6.396-14.926-2.132-6.396-8.529-8.529-25.587 2.132-10.66 40.512-21.322ZM1579.957 707.889h51.173l4.264 4.265V825.16l-8.528-2.132-2.133-51.173-8.528-14.925-19.19-4.265H1368.87l-14.925 6.397-6.397 8.529-2.132 55.437-164.179 2.132-27.719 21.322-17.057 8.529h-23.455l-2.132-2.133v-21.321l19.19-29.851 2.132-6.397v-63.966l6.397-17.057 6.396-4.265h228.145l23.454 23.454 4.265 2.133h168.443l6.397-21.322Zm-428.571 12.793-4.264 4.265v14.925l8.528 4.264h10.661l4.265-4.264v-14.925l-4.265-4.265Zm57.569 10.661-14.925 2.132-2.132 6.397v31.983l4.264 4.264h134.328l4.265-4.264 2.132-29.851-4.264-8.529-78.892-2.132ZM4243.07 208.955h29.851l12.793 6.397 4.265 6.396v513.86l-10.661 10.661h-36.248ZM861.407 149.254h87.42v400.853h-42.644l-4.264-12.794-14.925-59.701-2.133-12.793V196.162l-12.793-4.264-8.529-2.133-2.132-10.661Zm61.834 140.725-4.264 2.132v12.793l6.396 6.397h10.661l4.265-8.529-2.133-12.793Zm0 142.857-4.264 4.264v12.793l6.396 4.265h12.793l2.133-12.793-2.133-6.397ZM2371.002 34.115l6.397 2.132 2.132 70.363-2.132 2.132H2087.42l-2.132-8.529V40.512l2.132-4.265Zm1174.84 407.25h147.122l10.661 27.718 29.85 91.685 42.644 132.196 25.587 78.891 12.793 40.512-2.132 14.925-12.793 27.719-6.397-6.397-25.586-81.023-21.322-59.702-27.719-85.288-25.586-74.627-25.587-78.891-6.396-14.925h-113.007l-34.115 17.057-61.833 31.983h-4.265v6.397l8.529 2.132-2.132 8.529-49.041 23.454-19.189 10.661h-6.397l-6.397-10.661-8.528 2.132-40.512 19.19-40.512 21.322-31.983 14.925-2.132-8.528 10.661-8.529 49.04-25.587 53.305-27.718-2.132-12.793 29.851-17.058 42.644-21.322h4.264l4.265 10.661 10.661-4.264 85.287-42.644ZM1130.064 132.196l8.529 2.132 2.132 12.794 34.115 2.132 2.132-14.926h34.115l2.133 12.794 29.85 2.132v-14.926l106.61-2.132 4.265 14.926 27.718 2.132 2.132-14.926 27.719-2.132 8.529 4.265 2.132 10.661 27.718 2.132v-14.926h108.742l2.133 12.794 27.718 2.132 2.132-14.926h36.248l4.264 12.794h25.586l2.133-12.794h106.609l2.133 12.794h27.718l4.265-12.794h34.115l6.396 12.794h25.587l8.528-12.794 10.661-2.132h42.644l53.305 2.132v27.719h-837.953l-12.793-10.661-2.132-17.058Zm2479.744 330.491h42.644l8.529 19.189 100.213 300.64 27.719 78.891 6.396 14.926v8.528l-27.718 21.322h-8.529l-6.397-14.925-25.586-76.759-21.322-61.834-34.115-100.213-25.587-72.495-25.586-76.759-8.529-27.718-2.132-2.132Zm-307.036-155.651h339.019l14.925 4.265 102.346 2.132 2.132 2.132v21.322l-98.081 2.132-21.322 8.529-10.661 2.132h-328.358Zm-1940.299 456.29h247.335l4.264 10.661v51.173l-10.66 6.397-10.661 2.132-4.265-2.132v-4.265h-4.264v4.265l-8.529 2.132-10.661-6.397-4.264 6.397h-10.661l-6.397-6.397-6.397 6.397-10.661-2.132v-4.265h-4.264v4.265l-10.661 2.132-8.529-6.397-4.264 6.397h-10.661l-6.397-6.397-4.264 6.397h-10.661l-2.132-4.265-4.265 4.265h-12.793l-6.396-6.397-4.265 6.397-10.661-2.132-2.132-6.397h-4.264l-4.265 8.529-10.661-2.132h-4.264l-10.661 4.264-10.661-6.397-4.264 4.265-14.926-2.132-2.132-2.133v-61.833Zm1820.896-356.077h285.714l12.793 4.265v8.529l-57.569 29.85-68.23 34.116-36.248 19.189-34.115 17.058-19.189 8.529-8.529-4.265-27.719-34.115-21.322-27.718-27.718-34.116-8.529-10.661v-8.528Zm74.627 12.794-12.793 8.528-8.529 10.661-2.132 19.19 10.661 19.19 10.661 6.397 12.793 2.132 17.057-6.397 10.661-10.661 4.265-10.661-2.133-17.057-8.528-12.794-8.529-6.396-6.397-2.132ZM2046.908 132.196l8.529 2.132v12.794h29.851l4.264-12.794h104.478l2.132 10.661 4.264 2.133 23.455 2.132v-12.793l2.132-2.133h38.379l2.133 12.794h27.718l2.132-12.794h106.61v12.794h29.851l2.132-12.794 38.38-2.132-2.133 14.926h29.851l2.132-12.794h106.61v12.794l31.983 2.132-2.132-17.058h23.454l19.19 2.132v14.926l27.718-2.132 2.133-14.926h34.115l-4.265 12.793-10.661 17.058h-735.607v-12.793l19.189-2.132 4.265-10.661 2.132-2.133Zm829.425 179.105h59.701l4.265 4.264-17.058 17.058-19.19 23.454-27.718 29.851-8.529 10.66-4.265 2.133h-458.422l-12.793 4.264-27.718 25.586-74.627 74.627-17.058 14.926-6.396 6.396-2.133 42.644v17.058l-2.132 2.132h-25.586v-63.966l31.983-29.851 27.718-25.586 25.587-23.454 17.057-17.058 17.058-14.925 14.925-14.926 21.322-14.925h407.25l12.793-6.396ZM78.891 240.938h149.254l2.132 106.61-2.132 2.132H78.891l-2.132-2.132V243.07Zm2364.606 507.463h19.19l14.925 29.851 17.058 38.379 25.586 55.437 19.19 34.115 21.322 23.455 27.718 17.057 25.586 10.661 8.529 2.132h46.909l49.04-10.661 149.254-38.379 85.288-21.322 55.437-14.926h8.529l-2.133 10.661-136.46 34.116-83.156 21.322-23.454 8.528-31.983 19.19-21.322 14.925-34.115 8.529-14.925 2.132h-46.909l-34.115-8.528-25.586-12.794-21.322-14.925-14.926-12.793-19.189-25.586-17.058-31.983-25.586-55.437-17.058-34.116-4.264-4.264-2.132-19.19v-23.454Zm29.851-475.48h394.456l2.132 23.454-4.264 12.793-59.702 59.702-6.396 4.264-285.715 2.133h-113.006l4.264-8.529 23.454-21.322 25.587-25.587 14.925-12.793 2.132-10.661v-21.322Zm366.737 8.529-8.528 8.529v10.661l8.528 8.528 14.926-2.132 4.264-6.396-2.132-14.926-6.397-4.264Zm-326.226 6.396-12.793 6.397-6.396 6.397-2.133 6.396v36.248l8.529 14.925 12.793 6.397h270.789l14.926-4.265 8.528-10.661 2.133-4.264v-38.38l-8.529-12.793-4.265-4.264-8.528-2.133Zm-72.494 55.438-6.397 8.528 2.132 14.926 14.926 2.132 8.528-4.264v-17.058l-6.396-4.264Zm1861.407-110.875 25.586 2.133 10.661 4.264 2.132 4.264v68.231l-12.793 34.115-4.264 6.396-10.661 2.133 6.396 10.661-4.264 27.718-2.132 2.132 2.132 14.926 4.264 6.396v17.058l-6.396 4.264v6.397l8.529 8.529 2.132 21.322-6.397 4.264v6.397l8.529 4.264 2.132 27.718-6.396 4.265-2.133 6.396 12.794 4.265v25.586l-4.265 12.793 8.529 2.133 2.132 2.132 2.132 23.454-6.396 4.264 2.132 8.529 6.397 2.132 2.132 27.719-8.529 2.132 2.132 8.529 10.661 4.264-2.132 51.173-12.793 14.925-8.529 2.132h-23.454l-2.132-8.528V368.87ZM3255.864 611.94l6.396 2.132 8.529 25.587 2.132 14.925-8.529 4.265-4.264 14.925v4.264l8.529 4.265h14.925l4.264 4.264 19.19 57.569 12.793 36.248-2.132 8.529-10.661 10.661 2.132 10.661 6.397 4.264h14.925l8.529 19.19 21.322 61.833 10.661 27.719v4.264l-14.925 8.529-2.132 8.529 10.661 10.661h14.925l6.397 10.661 10.66 31.983-4.264 2.132-38.379-17.058-10.661-10.661-10.661-21.322-25.587-76.759-25.586-74.626-38.38-108.742-8.528-27.719 2.132-12.793 14.925-34.115Zm262.26-49.04h17.057l10.661 6.396 10.661 27.719 34.115 100.213 51.173 151.386 29.851 87.42 4.264 12.793-10.661 2.132-8.529-17.057-23.454-68.23-29.85-85.288-27.719-74.627-17.058-49.041-21.322-59.701-8.528-14.925-4.265-4.265-14.925 2.132-36.247 14.926-51.173 23.454-10.661 8.529v19.189l27.718 76.759 21.322 61.834 29.851 83.156 29.851 85.288 4.264 14.925v8.529l-12.793 4.264-8.529-17.057-25.586-76.759-42.644-125.8-29.851-87.42-8.529-25.586v-21.322l10.661-12.794 25.587-12.793 55.437-25.586ZM2002.132 21.322h31.983l6.397 2.132 2.132 63.966-2.132 27.719L2000 136.461l-10.661 2.132-4.264-12.793-42.644-2.133 6.396-6.396 21.322-10.661h4.265l-6.397-12.793v-4.265l-10.661-2.132-68.23 34.115-23.454 6.397-8.529 10.661h-10.661l-2.132-10.661-31.983-2.132 2.132-6.397 66.098-34.115 89.552-49.041Zm-6.396 31.983-2.133 2.132V68.23l4.265 6.397 12.793-2.132 4.264-6.397-2.132-10.661-2.132-2.132Zm481.876 673.774 6.397 6.396 34.115 70.363 27.718 59.701 19.19 31.983 19.19 17.058 25.586 12.793 21.322 6.397h40.512l53.305-12.793 55.437-14.926 102.345-25.586 113.007-29.851 14.925-4.264h8.529l2.132 14.925-19.19 6.397-127.932 31.983-104.477 27.718-76.759 19.19-23.454 4.264h-46.909l-21.322-6.396-23.454-12.793-21.322-19.19-12.793-17.058-25.586-49.04-25.587-55.437-21.322-46.909 2.133-10.661ZM761.194 481.876h53.305l12.793 4.265 6.397 10.661 4.264 53.305v21.322l-12.793 44.776-2.132 2.132-19.19 2.132h-31.983l-21.322-2.132-6.397-19.19-8.528-31.983 2.132-70.362 8.529-10.661Zm21.322 17.058-10.661 6.396-6.397 8.529v17.058l10.661 10.661 4.265 2.132h17.057l12.794-8.529 2.132-19.19-6.397-10.661-8.529-6.396Zm-4.264 55.437-12.794 10.661-2.132 12.793 6.397 12.793 10.661 8.529h17.057l10.661-8.529 4.265-10.661-2.132-14.925-10.661-10.661Zm2070.362-113.006h44.776l170.576 2.132 10.661 10.661 44.776 59.701 27.719 36.248 4.264 10.661h-23.454l-10.661-10.661-19.19-23.455-29.851-38.379-8.529-10.661-19.189-2.132h-38.38l-27.718 2.132-19.19 12.793-8.529 10.661-8.529-4.264-21.322-27.719-10.661-10.661-4.264-2.132-63.966-2.132 4.264-8.529ZM503.198 255.864h110.874l2.133 81.023H503.198ZM637.527 582.09h70.362l6.397 14.925 2.132 14.925H302.772l-2.132-6.396 2.132-21.322h25.586l2.132 19.19 17.058 2.132v-19.19l2.132-2.132h27.719l2.132 19.19h14.925l2.132-19.19h29.851l2.132 19.19h14.926l2.132-19.19h25.586l2.133 2.132v19.19l17.057-2.132 2.132-19.19h27.719l2.132 19.19h17.058v-17.058l2.132-2.132h25.586l2.132 19.19 17.058 2.132v-21.322h29.851l2.132 19.19h14.925l2.132-19.19ZM373.134 238.806l6.397 2.132V349.68l-2.132 2.132h-72.495V240.938Zm339.02 400.853h10.66l6.397 8.529 4.264 14.925-2.132 2.132h-95.949l-2.132-19.19-14.925 4.265-4.265 14.925h-25.586l-2.132-2.132-2.132-14.925h-12.793l-4.265 17.057h-25.586l-2.132-2.132-2.133-14.925H524.52l-2.132 14.925-2.132 2.132h-27.719l-4.264-17.057H475.48l-2.132 14.925-2.133 2.132h-25.586l-4.264-17.057h-12.794l-2.132 14.925-2.132 2.132h-27.719l-2.132-14.925-2.132-2.132h-14.925v14.925l-2.132 2.132h-27.719l-4.264-17.057h-10.661l-2.133 2.132-2.132 14.925h-23.454l-2.132-2.132-2.132-21.322ZM2.132 230.277l36.248 2.132 27.718 6.397 2.132 6.397-2.132 106.609-17.057 8.529-34.116 4.265H0V330.49l19.19-6.396h4.264l-2.132-8.529L0 304.904v-14.925l21.322-12.793 2.132-8.529L0 262.26v-27.718Zm3006.397 665.245h8.529l-2.133 12.794-8.528 17.057-12.794 6.397-113.006 29.85-42.644 10.661h-14.925l-21.322-6.396h-14.926l-44.776 14.925-2.132-4.264 36.247-21.322 21.322-8.529 185.501-44.776ZM398.721 228.145h34.115l6.396 6.397 4.265 8.528v106.61l-6.397 14.926h-38.379l-8.529-8.529V236.674Zm1805.97 368.87h87.42l2.132 2.132v74.627l-2.132 2.132h-87.42l-2.132-74.627ZM961.62 272.921h21.322l2.133 34.115v157.783l8.528 29.851 8.529 21.321-4.264 8.529-34.115 23.454-4.265-2.132v-262.26Zm1326.226-34.115h336.887l25.587 2.132 6.396 10.661-2.132 6.397h-377.398l2.132-10.661ZM251.599 228.145h29.851l10.661 6.397v121.535l-8.529 8.529h-36.247l-4.265-2.133V232.409Zm430.704 21.322h12.793l2.132 2.132v89.552l-2.132 2.133h-38.38l-29.85-2.133v-89.552Zm1855.01 44.776 249.467 2.132 10.661 6.397 2.133 8.529v36.247l-6.397 4.264-232.409 2.133-2.133-6.397 6.397-6.397 219.616-2.132 2.132-2.132v-25.586l-2.132-2.133-223.88-2.132-4.265-6.396h-25.586l-10.661 4.264-4.265 6.397v23.454l10.661 19.19h-12.793l-10.661-10.661-2.132-4.265v-27.718l10.661-12.794 4.264-2.132Zm-2311.3 292.111h57.569l2.132 14.925 2.132 2.133v44.776l-4.264 17.057h-44.776l-19.19-4.264-10.661-4.265v-59.701l2.132-4.264Zm494.669-12.793 6.397 2.132 8.529 27.719 6.396 21.321 2.132 4.265 25.587 2.132h44.776l14.925-4.264 8.529-21.322 6.397-25.587 4.264-6.396 6.397 2.132v119.403l-2.133 4.264-8.528-2.132v-25.586l-93.817-2.132-8.529-12.794-17.057-55.437-4.265-14.925ZM2068.23 778.252h10.661l21.322 19.189 23.454 19.19 31.983 27.719 23.454 19.189v12.794l-6.396 12.793-4.265 12.793-10.66-6.397-23.455-21.322-23.454-19.189-23.454-21.322-29.851-23.454-17.057-12.794 6.396-6.396ZM300.64 618.337l417.91 2.132 4.264 6.397v6.396H300.64ZM970.149 0h42.644v74.627l2.132 6.396 8.529 2.133 38.38 2.132 8.528 6.396-2.132 6.397h-98.081l-2.132-2.132V2.132Zm1268.657 686.567h21.322l4.264 14.926 2.133 6.396h198.294l6.396 2.132-4.264 10.661-6.397 6.397h-223.88v-38.38ZM1300.64 586.354h44.776l2.132 4.264v89.553l-2.132 2.132h-42.644l-2.132-2.132ZM2786.78 31.983h149.254v27.718l-2.132 2.133h-142.857l-4.265-2.133Zm2.133 38.379 147.121 2.133 2.132 17.057 8.529 4.265v6.396h-157.782l-2.133-27.718Zm-108.742 552.239 10.661 2.132 21.322 17.058 10.66 12.793-6.396 2.132-10.661-2.132-144.989-2.132-2.133-6.397 2.133-19.189 110.874-2.133Zm889.125 104.478 6.397 2.132 10.661 27.719-2.132 4.264-81.024 23.454-21.322 6.397h-10.661l-8.528-21.322v-6.397l76.759-25.586ZM1686.567 326.226h14.926l12.793 8.529 19.189 21.322 21.322 27.718 19.19 27.719v14.925l-10.661 12.793-8.529 6.397-14.925 2.132-12.793-10.661-19.19-25.586-21.322-27.719-19.19-23.454v-12.793l8.529-12.793Zm4.265 8.529-10.661 10.661v10.661l19.189 21.322 17.058 23.454 21.322 27.718 8.529 6.397 10.661-4.264 6.396-6.397-2.132-10.661-25.586-31.983-21.322-27.718-17.058-19.19Zm243.07-8.529h14.925l12.793 8.529 21.322 25.586 23.455 29.851 12.793 19.19 2.132 12.793-8.529 12.793L2000 445.629h-17.058l-19.189-21.322-27.719-36.247-17.057-21.322-4.265-8.529 2.132-14.925 12.794-14.926Zm4.264 8.529-12.793 10.661v10.661l14.926 14.925 27.718 36.247 19.19 25.587 10.661 2.132 10.661-8.529 2.132-6.396-17.058-23.455-21.322-27.718-23.454-29.851Zm-611.94-8.529 17.058 2.132 10.661 10.661 17.057 19.19 14.926 19.19 21.321 27.718 4.265 8.529-2.132 12.793-12.794 14.926-14.925 6.396-10.661-4.264-19.19-21.322-19.189-25.587-21.322-25.586-6.397-12.793 2.132-14.925 8.529-10.661Zm2.132 8.529-12.793 10.661 2.132 12.793 25.587 29.851 25.586 34.115 10.661 12.793 10.661-2.132 8.529-8.529-2.133-10.661-23.454-29.851-17.057-23.454-19.19-21.322Zm484.009-8.529h14.925l14.925 10.661 23.455 29.851 25.586 31.983 8.529 17.057-2.132 10.661-12.794 14.926-12.793 6.396-12.793-4.264-19.19-21.322-19.189-25.587-21.322-25.586-6.397-10.661 2.132-19.19Zm4.264 8.529-12.793 8.529v10.661l27.719 34.115 23.454 31.983 4.264 6.396h4.264l2.133 6.397 10.661 2.132 10.661-8.529v-10.661l-29.851-38.379-23.454-29.851-8.529-10.661Zm1769.723 441.364 8.529 4.265 6.396 19.19v6.396l-76.759 21.322-29.85 8.529h-8.529l-8.529-25.586 4.264-4.265 68.231-19.19Zm-36.247-93.816 10.661 2.132 6.396 17.058v10.661l-76.759 25.586-29.851 10.661-6.396-2.132-6.397-17.058 2.132-10.661 44.777-14.925ZM2669.51 505.33l10.661 2.133v19.189l-6.397 27.719-12.793 23.454-12.793 14.926-21.322 10.661h-12.794l2.133-10.661 10.661-17.058 6.396-27.719 2.132-40.511ZM1443.497 326.226l19.19 2.132 19.189 19.19 23.454 29.851 21.322 27.718 4.265 17.058-6.397 10.661-14.925 12.793-10.661 2.132-10.661-6.396-14.925-17.058-27.719-36.247-19.19-23.454-2.132-4.265v-14.925l14.925-17.058Zm4.264 8.529-12.793 10.661 2.132 12.793 19.19 21.322 25.586 34.115 17.058 19.19 8.529 2.132 10.661-8.529 2.132-6.396-12.793-19.19-46.909-59.702-8.528-6.396Zm121.535-8.529h12.794l12.793 8.529 17.057 19.19 21.322 27.718 21.322 29.851v12.793l-14.925 17.058-12.793 6.396-12.794-4.264-27.718-34.115-17.058-21.322-17.057-23.454-4.265-12.794 8.529-17.057Zm2.133 8.529-10.661 8.529-2.133 10.661 19.19 23.454 27.719 34.115 14.925 19.19 4.264 4.264 10.661-2.132 8.529-8.529-2.132-10.661-27.719-34.115-25.586-34.115-10.661-10.661Zm332.622-162.047h89.552l2.133 2.132 2.132 27.719-14.926 4.264h-76.759l-6.396-2.132-4.265-10.661v-19.19ZM458.422 249.467l29.851 2.132 2.132 2.132v87.42l-31.983 2.133-2.132-2.133v-89.552ZM2388.06 29.851h27.718l6.397 8.529v68.23l-8.529 10.661h-23.454l-2.132-2.132-2.132-83.156Zm1213.219 791.045 8.529 2.132 6.397 21.322-10.661 4.264-95.949 23.454-10.661-2.132-4.264-8.529v-10.661l85.287-23.454Zm-63.966-179.105h8.529l6.397 17.058v6.396l-85.288 31.983-23.454 8.529-6.397-8.529-2.132-14.925 72.495-27.719ZM2562.9 317.697h217.484l2.132 10.661-2.132 2.132H2562.9l-2.132-10.661Zm-144.99 223.881h19.19l19.19 12.793 6.397 12.793v23.454l-10.661 14.926-14.926 8.528h-21.322l-12.793-8.528-10.661-12.793v-12.794l4.264-2.132 2.133-6.396 12.793-8.529 10.661-6.397 14.925 2.132 17.058 14.926-2.132 8.529-6.397 6.396-14.925 2.132 8.528-10.661-2.132-10.661-2.132-2.132h-14.925l-6.397 2.132-2.132 6.397 6.396 10.661 12.794 8.529 10.661 2.132 10.661-8.529 4.264-14.925-8.529-12.793-10.661-8.529-14.925-2.132-17.058 10.661-14.925 19.189-2.132-6.396 8.528-17.058 17.058-12.793Zm1108.742 61.834 6.397 2.132 4.264 10.661v10.661l-44.776 17.057-57.569 23.454h-8.529l-4.264-12.793v-8.529l83.155-34.115ZM2000 607.676h149.254l12.793 8.529 6.396 12.793v12.793l-8.528 12.793-8.529 6.397-6.397 2.132h-140.725l-12.793-6.397-8.529-10.661-2.132-19.189 14.926-17.058Zm8.529 6.396-12.793 8.529-4.265 8.529 2.132 14.925 8.529 10.661 10.661 2.133h132.196l10.661-10.661 2.133-4.265v-17.057l-10.661-10.661-6.397-2.133Zm449.893-172.707 8.529 2.132-4.264 8.529L2351.812 562.9l-2.132 6.396-2.132 70.363h-14.925l4.264-25.587 2.132-53.304 14.926-17.058 8.528-10.661h4.265l4.264-8.529 12.793-10.661 70.363-70.362Zm-776.119 317.697h157.782l70.363 2.132 2.132 8.529-4.264 2.132h-228.145l-2.133-8.529ZM147.122 599.147h49.04l2.132 2.132v44.776l-2.132 2.133h-49.04l-2.133-46.909ZM2051.173 27.719l25.586 2.132 2.132 2.132-2.132 85.288h-25.586Zm895.522 121.535h70.363l8.528 8.529 4.265 10.66v8.529l-81.024 2.132-2.132-2.132-2.132-23.454ZM2213.22 767.591l10.661 2.132 21.322 17.057 55.437 46.909 2.132 12.793-4.265 4.264-10.661-2.132-19.189-14.925-21.322-19.19-23.454-19.19-14.926-12.793v-10.661ZM3000 334.755l10.661 2.132 23.454 23.454-4.264 10.661-4.265 6.397-4.264 14.925h-38.38l-2.132-2.132v-19.19l8.529-21.322ZM102.345 556.503l10.661 2.132-2.132 21.322-8.529 14.926-2.132 10.661v40.511l4.265 14.926 6.396 10.661 2.132 19.19-10.661 2.132-12.793-6.397V562.9l2.132-4.265Zm3511.727 304.904 10.661 2.132 2.133 12.794-38.38 10.661-70.362 17.057-8.529-2.132-2.132-10.661 14.925-6.397ZM1200.426 742.004h76.76v21.322l-2.133 2.132h-74.627Zm2422.175 149.254h12.793l2.133 10.661-19.19 6.397-85.288 21.322h-14.925v-10.661l19.189-6.397ZM2503.198 588.486l6.397 6.397 8.529 14.925 29.85 14.925 4.265 4.265v19.19l-10.661 10.661h-34.115l-4.265-12.794Zm27.719 36.247-8.529 4.265-4.264 8.529 2.132 8.528 10.661 8.529 8.529-2.132 6.396-6.397v-12.793l-8.529-8.529ZM115.139 590.618h12.793l6.396 8.529v51.173l-8.528 10.661-10.661-2.132-4.265-8.529v-53.305Zm3522.388 326.226 8.528 2.133-2.132 10.661-81.023 19.189-21.322 6.397h-12.793l-2.133-8.529 34.116-10.661ZM3262.26 432.836l14.926 2.132 10.66 12.793-2.132 14.926-10.661 8.528-8.528 2.133-10.661-4.265-6.397-8.529-2.132-12.793 6.396-10.661Zm831.557 123.667h17.057l10.661 10.661v12.793l-10.661 12.794-12.793 2.132-12.793-8.529-2.132-4.264v-14.926Zm-236.674-247.335h12.793l10.661 8.529 2.132 4.265v12.793l-10.661 10.661-4.264 2.132h-12.793l-8.529-8.529-2.132-4.264v-14.926l8.528-8.528Zm-1494.67 452.026h14.926l8.529 8.529 2.132 4.264v12.793l-10.661 10.661-14.926 2.133-10.661-8.529-2.132-4.265v-12.793l8.529-10.661Zm356.077-339.019h27.719l10.661 6.396v12.794l-4.265 4.264h-46.908l-2.132-2.132v-17.058Zm164.179-294.243 17.058 2.132 6.396 8.529 2.133 12.793-6.397 10.661-4.264 4.264h-17.058l-8.529-8.528-2.132-4.265v-12.793l8.529-10.661Zm1232.41 181.236 14.925 2.133 6.397 6.396 2.132 17.058-12.793 12.793h-14.926l-10.661-12.793v-12.793l8.529-10.661ZM2439.232 643.923h14.926l10.661 8.529 2.132 14.925-10.661 12.794-12.793 2.132-10.661-6.397-4.265-6.396v-14.926Zm1208.956 294.243 6.396 2.133 2.132 10.66-113.006 21.322h-10.661l4.264-6.396 78.892-19.19ZM2068.23 533.049h40.512l2.132 6.397v17.057h-42.644l-2.132-19.19Zm978.678-164.179 14.926 2.132 6.396 8.529-2.132 14.925-6.397 6.397-12.793 2.132-10.661-8.529-2.132-12.793 6.397-10.661ZM1287.846 742.004h36.248v21.322l-2.132 2.132h-34.116l-2.132-2.132v-19.19Zm1247.335-432.836h14.926l4.264 4.265v27.718l-2.132 4.265-10.661 2.132-10.661-4.264-2.132-2.133v-27.718Zm409.382-185.501h40.512l17.057 8.529 2.132 6.397h-57.569l-2.132-2.132ZM756.93 134.328h63.966l2.132 8.529-2.132 2.132H756.93l-2.133-6.396Zm1914.712 287.847h19.19l2.132 2.132v19.19l-2.132 2.132h-23.455l-4.264-4.264v-12.794Zm-686.567 108.742h70.362v8.529h-70.362Zm-746.269-228.145h34.115l-8.529 10.661-21.322 17.057h-4.264Zm2281.45 281.45h4.264v4.264l-49.04 21.322-42.644 17.058-4.265-2.133 34.116-17.057 42.643-19.19ZM2300.64 609.808l8.528 4.264 2.133 6.397-2.133 38.38-8.528 2.132ZM782.516 565.032l14.925 2.132 2.133 14.926-8.529 6.396-10.661-4.264-2.132-14.926Zm0-53.305 14.925 2.132 2.133 12.793-6.397 6.397h-10.661l-4.264-4.264v-12.794Zm1769.723-83.156h61.833l-2.132 6.397h-61.833Zm503.198-243.07h23.454l2.132 6.397-6.396 6.396-12.793 2.132-8.529-8.528Zm1066.098 2.132h29.851l-6.397 10.661h-14.925l-8.529-6.396Zm-466.951-2.132 6.397 2.132-2.132 8.529-4.265 2.132h-14.925l-6.397-6.396v-4.265Zm-746.268 622.601 10.661 2.133 2.132 10.661-4.265 4.264h-10.661l-2.132-10.661Zm-127.932-247.334h10.661v14.925l-8.529 2.132-6.397-4.264 2.133-10.661ZM872.068 249.467h2.132v91.684h-2.132Zm1445.629 375.266 6.397 2.133 2.132 19.189-8.529 4.265-2.132-8.529Zm213.22 6.397h8.529v14.925l-8.529 2.133-2.132-2.133v-12.793Zm788.912 164.179 6.397 2.132 2.132 8.529-10.661 2.132-2.132-6.396Zm51.173 140.725 8.529 8.529-2.132 2.132h-12.793v-6.396Zm-98.081-272.921h6.397l2.132 10.661h-10.661Zm-846.482-89.552 4.265 2.132v4.264h-4.265Z"/></svg>