<svg xmlns="http://www.w3.org/2000/svg" width="1214.301" height="1000" viewBox="0 0 1214.301 1000"><path d="M1021.908 992.951c-5.375-4.128-13.068-9.434-17.099-11.796-6.29-3.682-5.927-5.702 2.581-14.319 9.143-9.26 10.735-9.449 20.758-2.424 7.039 4.928 10.855 12.661 10.855 21.979 0 16.191-3.042 17.357-17.095 6.56m26.868-6.269c0-12.138 3.884-14.511 56.278-34.379 30.952-11.738 57.533-20.09 59.063-18.56s-.164 8.73-3.769 15.994c-5.36 10.816-16.081 16.55-59.062 31.599l-52.51 18.382Zm-60.248-23.771c-2.772-4.601-22.797-71.873-22.797-76.583 0-1.911 4.754-2.772 10.565-1.915 14.536 2.148 35.418 61.229 26.129 73.93-6.552 8.962-10.477 10.252-13.897 4.568m37.796-9.878c-10.114-8.34-34.852-67.559-30.175-72.236 1.327-1.33 44.453-16.47 95.829-33.645l93.413-31.232 5.84 19.501c5.415 18.069 4.714 21.787-9.59 50.795-12.4 25.141-18.934 32.758-33.228 38.733-9.783 4.088-18.247 7.432-18.803 7.432s-.836-4.878-.625-10.838c.236-6.617-2.944-11.513-8.173-12.574-11.862-2.402-17.15 13.49-6.963 20.937 6.876 5.026 3.256 7.755-24.974 18.832-38.486 15.1-48.603 15.794-62.551 4.295m36.189-12.174c1.944-10.096-12.157-16.899-19.599-9.456s-.64 21.547 9.452 19.603c4.681-.902 9.245-5.47 10.147-10.147m34.194-9.769c1.944-10.095-12.157-16.898-19.6-9.456-7.442 7.443-.639 21.544 9.453 19.599 4.681-.901 9.245-5.465 10.147-10.143m74.187-.806c0-5.368 26.722-59.742 32.421-65.964 1.064-1.167 4.539.483 7.719 3.663 4.259 4.259 4.342 7.218.319 11.241-3.005 3.005-4.462 12.345-3.241 20.762 2.794 19.272-2.101 26.525-21.685 32.144-11.724 3.361-15.529 2.911-15.529-1.846Zm-186.479-72.113c13.675-21.598 27.459-25.984 39.852-12.683 11.829 12.697 8.631 18.447-3.936 7.075-12.244-11.077-15.522-10.212-15.522 4.103 0 6.716-1.646 12.375-3.663 12.575-2.013.199-8.838 1.319-15.162 2.489l-11.502 2.126Zm216.21-18.88c-8.827-19.715-9.103-35.236-.458-25.795 5.928 6.48 15.965 41.084 12.822 44.224-1.563 1.563-7.127-6.73-12.364-18.429m-229.355 8.581c1.701-2.148-3.14-23.96-10.761-48.469-7.617-24.509-12.727-46.379-11.353-48.603s10.721-4.042 20.773-4.042c10.048 0 20.831-2.558 23.953-5.68 4.317-4.317 6.701-2.853 9.928 6.106 2.337 6.479 9.343 26.075 15.569 43.537 16.081 45.093 17.749 46.35 49.159 37.021 29.422-8.736 35.619-9.449 32.05-3.67-1.374 2.22-15.787 8.064-32.028 12.981-27.522 8.333-30.138 8.387-38.475.843-12.556-11.364-34.608-10.07-49.385 2.893-6.89 6.047-11.135 9.234-9.43 7.083m148.012-31.505c3.612-15.26 19.483-30.61 31.395-30.371 8.217.168 29.99 15.947 29.99 21.736 0 1.781-5.757-1.29-12.789-6.821-14.911-11.731-21.405-9.511-21.405 7.316 0 8.435-3.758 13.471-12.531 16.808-17.626 6.701-18.214 6.352-14.66-8.668m-76.804 2.104c-3.987-3.172-12.215-21.158-18.288-39.961-6.072-18.807-11.956-36.694-13.075-39.747-1.814-4.942 50.402-26.198 64.346-26.198 8.493 0 32.043 68.921 28.779 84.225-2.297 10.764-6.825 14.409-23.055 18.56-11.11 2.838-22.732 6.003-25.828 7.028-3.1 1.025-8.893-.73-12.879-3.907m139.163-18.959c-9.22-9.22-6.851-14.551 3.91-8.791 5.371 2.875 9.768 7.348 9.768 9.939 0 6.473-6.614 5.917-13.678-1.148m-73.727-40.023c-5.182-13.719-11.785-31.054-14.674-38.522-4.79-12.375-4.1-14.021 7.769-18.534 28.63-10.885 30.676-9.482 43.294 29.669 6.494 20.151 11.837 37.831 11.873 39.292.036 1.458-8.689 4.99-19.385 7.847l-19.453 5.189Zm-229.606-18.327c-6.502-16.823 7.515-29.084 36.807-32.199 13.065-1.388 27.049-5.306 31.079-8.7 4.03-3.398 16.917-7.748 28.641-9.671 11.724-1.926 28.564-8.42 37.424-14.431 17.306-11.745 44.41-19.933 81.984-24.763 13.577-1.748 24.617-5.967 26.169-10.005 6.229-16.234 62.551-.556 59.27 16.499-.905 4.696-9.998 10.932-21.064 14.439-10.71 3.394-23.869 8.246-29.244 10.775s-36.149 12.643-68.388 22.474c-32.238 9.83-64.114 20.664-70.829 24.072-12.447 6.32-56.141 16.456-89.117 20.672-15.776 2.016-18.898.759-22.732-9.162m-.6-45.812c-3.401-4.096-5.317-8.206-4.263-9.133s23.899-8.028 50.766-15.783c41.03-11.844 49.09-15.794 50.359-24.676.828-5.815-13.098-58.129-30.949-116.253-17.855-58.125-31.21-108.942-29.684-112.921 2.243-5.84 11.869-6.967 49.912-5.837l47.131 1.4 34.06 98.587c21.234 61.479 36.948 99.703 41.742 101.542 4.23 1.621 18.414-.908 31.522-5.622 20.762-7.464 24.418-7.646 28.369-1.399 7.286 11.52 5.883 13.17-18.168 21.365-27.292 9.296-48.468 10.016-53.538 1.81-2.032-3.285-17.244-48.898-33.809-101.36l-30.116-95.386-33.162-1.461c-18.24-.803-35.004.381-37.257 2.635-2.25 2.253 9.122 50.169 25.268 106.484 16.15 56.315 28.768 107.746 28.038 114.287-1.13 10.092-8.315 14.726-47.386 30.531-51.027 20.646-59.804 22.074-68.835 11.19m-.734-38.962c4.263-9.402 9.493-17.095 11.619-17.095 8.1 0 2.776-19.676-27.111-100.14-30.229-81.38-31.254-83.269-51.224-94.401-12.181-6.785-20.38-14.9-20.38-20.162 0-4.844-3.485-11.698-7.745-15.231-5.582-4.633-6.814-10.593-4.411-21.358 1.831-8.213 4.393-30.872 5.687-50.347 2.032-30.542 1.25-35.415-5.666-35.415-4.917 0-7.475 3.307-6.614 8.547.774 4.703-.701 11.844-3.281 15.874s-8.552 18.178-13.269 31.436c-8.355 23.491-15.223 31.842-26.315 31.995-6.559.091-5.724-12.12 2.108-30.774 6.356-15.144 7.185-29.324 2.693-46.089-2.842-10.611-4.935-10.989-60.694-10.989h-57.747l-3.067 20.758c-1.69 11.419-2.373 33.95-1.523 50.071l1.548 29.31 77.502.236c70.241.215 78.138 1.101 84.266 9.482 15.496 21.194 12.138 22.03-88.496 22.03-119.062 0-114.774 2.508-114.836-67.167-.025-26.195-1.428-59.167-3.121-73.272l-3.082-25.646H605.8c37.109 0 44.137 1.468 60.52 12.622 20.922 14.249 41.855 13.791 64.234-1.407 16.517-11.215 73.944-15.685 243.728-18.963 104.744-2.024 128.225-3.714 128.225-9.234 0-3.718 4.946-7.465 10.993-8.323 16.176-2.296 15.253-24.294-1.221-29.127-9.525-2.799-7.912-3.384 7.326-2.664l19.538.923v53.735l-36.636 2.878c-44.871 3.532-63.504 11.513-63.504 27.213v11.429h-79.664c-96.407 0-97.363.418-95.244 41.455 1.875 36.294-.266 35.571 107.495 36.214l81.568.487 14.275 30.531c7.854 16.793 22.354 54.272 32.228 83.295 9.874 29.019 22.238 59.793 27.478 68.387 5.24 8.592 9.532 18.164 9.543 21.271.029 7.029-40.681 21.373-47.931 16.888-2.922-1.806-19.962-46.085-37.864-98.395s-34.764-97.857-37.468-101.215c-3.242-4.023-17.63-5.909-42.178-5.527-46.623.723-66.066 4.768-67.81 14.111-.745 4.012 13.951 56.751 32.66 117.198 26.319 85.029 32.697 111.195 28.168 115.585-7.192 6.97-68.685 26.078-83.931 26.078-10.906 0-10.967-.298-3.354-17.098m-16.266-254.417c0-7.803-4.071-9.583-24.426-10.684l-24.421-1.323 19.537 11.825c22.292 13.49 29.31 13.534 29.31.182m156.152 250.753c-4.095-10.887-65.782-205.348-65.782-207.376 0-1.079 11.346-1.297 25.218-.483l25.217 1.475 28.39 92.813c15.616 51.046 28.449 95.502 28.514 98.791.127 6-24.087 20.886-33.979 20.886-2.904 0-6.313-2.748-7.578-6.106M6.472 374.9c-1.679-8.395-3.052-17.19-3.052-19.541s23.08-4.274 51.289-4.274h51.292v-12.21c0-12.015.633-12.215 39.333-12.215h39.336l-1.479 25.646-1.476 25.647-29.309 1.49c-16.118.817-31.396 3.565-33.947 6.105-2.555 2.54-28.106 4.616-56.787 4.616H9.525Zm319.345 10.615c0-2.856-25.417-5.385-62.278-6.196l-62.283-1.366-1.479-25.647-1.475-25.646h122.631v29.31h235.09l-1.53 15.877-1.53 15.874-113.571 1.312c-72.465.836-113.575-.436-113.575-3.518m555.246-13.261c-4.558-4.557-3.936-36.963.854-44.507 2.987-4.71 21.75-5.909 76.521-4.885l72.563 1.356 14.006 25.646 14.006 25.647h-87.347c-48.04 0-88.812-1.465-90.603-3.257M3.22 288.803c-.109-28.881-.48-70.096-.829-91.588l-.632-39.082 108.298-1.312 108.294-1.315v63.688h-26.693c-33.507 0-36.81 5.23-36.81 58.3v39.398h-26.864c-25.403 0-26.867.665-26.867 12.21v12.215H3.42Zm66.145 28.089c0-8.951-2.94-12.629-11.011-13.778-12.004-1.704-18.822 8.773-13.959 21.449 1.766 4.598 7.352 7.043 13.959 6.106 8.071-1.149 11.011-4.823 11.011-13.777m0-136.776c0-8.951-2.94-12.628-11.011-13.777-6.607-.937-12.193 1.508-13.959 6.109-4.863 12.672 1.955 23.15 13.959 21.445 8.071-1.148 11.011-4.826 11.011-13.777m39.078 0c0-8.951-2.94-12.628-11.011-13.777-6.607-.937-12.193 1.508-13.959 6.109-4.862 12.672 1.955 23.15 13.959 21.445 8.071-1.148 11.011-4.826 11.011-13.777m39.079 0c0-8.951-2.94-12.628-11.012-13.777-6.607-.937-12.193 1.508-13.955 6.109-4.866 12.672 1.951 23.15 13.955 21.445 8.072-1.148 11.012-4.826 11.012-13.777m178.295 148.986v-12.21h-62.98c-69.892 0-68.907.487-68.907-33.994 0-10.198 3.005-21.039 6.679-24.088 4.776-3.964 56.025-5.182 179.521-4.262l172.833 1.282.618 42.745.618 42.742h-14.05c-15.227 0-19.646-11.462-6.381-16.554 4.6-1.766 7.043-7.348 6.105-13.955-2.308-16.259-24.436-15.336-28.685 1.199l-3.139 12.211-1.967-12.211c-1.479-9.176-4.949-12.211-13.958-12.211-8.697 0-12.854 3.355-15.129 12.211l-3.14 12.211-1.966-12.211c-1.479-9.176-4.95-12.211-13.959-12.211-8.697 0-12.854 3.355-15.129 12.211l-3.14 12.211-1.966-12.211c-1.479-9.176-4.95-12.211-13.959-12.211-8.697 0-12.854 3.355-15.129 12.211l-3.14 12.211-1.966-12.211c-1.479-9.176-4.95-12.211-13.959-12.211-8.696 0-12.854 3.355-15.129 12.211l-3.14 12.211-1.966-12.211c-1.49-9.245-4.935-12.211-14.177-12.211-16.284 0-20.714 21.311-5.273 25.349 17.186 4.495 12.175 16.172-6.941 16.172-14.98 0-17.095-1.512-17.095-12.215Zm63.889 4.481c.236-5.691 1.392-6.85 2.951-2.954 1.413 3.528 1.239 7.74-.386 9.365-1.62 1.621-2.776-1.261-2.565-6.411m34.194 0c.236-5.691 1.391-6.85 2.95-2.954 1.414 3.528 1.24 7.74-.385 9.365-1.621 1.621-2.776-1.261-2.565-6.411m34.193 0c.237-5.691 1.392-6.85 2.951-2.954 1.414 3.528 1.24 7.74-.385 9.365-1.621 1.621-2.776-1.261-2.566-6.411m34.194 0c.236-5.691 1.392-6.85 2.951-2.954 1.414 3.528 1.239 7.74-.385 9.365-1.621 1.621-2.777-1.261-2.566-6.411m-322.782-60.298v-44.322h33.434c42.254 0 49.606-6.611 49.606-44.591 0-14.7-2.638-29.364-5.862-32.588-4.557-4.561 24.549-5.862 130.99-5.862h136.852l45.027 31.752 45.031 31.752h141.332l-.269 23.204c-.232 19.995-2.384 24.872-15.546 35.302-21.329 16.895-47.666 16.408-66.066-1.221-13.177-12.621-16.379-13.323-60.978-13.323-26.111 0-48.417-2.173-50.093-4.884-1.919-3.107-65.742-4.884-175.384-4.884-197.488 0-186.829-2.475-189.46 43.977-1.185 20.874-3.398 27.118-10.067 28.386-7.632 1.45-8.547-3.122-8.547-42.698m544.31-8.031c14.813-14.817 4.092-41.175-16.75-41.175-11.655 0-24.422 12.77-24.422 24.425s12.767 24.425 24.422 24.425c4.99 0 12.527-3.456 16.75-7.675m-26.722-9.667c-5.19-6.255-4.87-8.987 1.846-15.703 7.581-7.581 8.675-7.581 16.256 0 6.716 6.716 7.035 9.448 1.846 15.703-3.456 4.165-7.945 7.57-9.976 7.57-2.028 0-6.516-3.405-9.972-7.57m-334.935-25.766c2.282-3.693-43.461-64.358-48.527-64.358-4.572 0-41.314 35.528-41.314 39.947 0 2.54 3.845 9.91 8.548 16.376 7.639 10.506 12.283 11.774 43.675 11.909 19.32.087 36.247-1.657 37.618-3.874m-73.065-16.031c-1.839-2.969 3.151-11.891 11.084-19.824l14.424-14.424 13.119 19.824 13.123 19.828h-24.207c-13.312 0-25.708-2.431-27.543-5.404m267.38 11.975c4.913-4.445 8.849-10.492 8.743-13.432-.185-5.248-37.864-35.215-49.875-39.67-6.073-2.254-42.749 45.696-42.749 55.882 0 9.202 73.327 6.771 83.881-2.78m-69.028-2.907c.109-3.358 6.6-13.589 14.424-22.739l14.221-16.634 17.331 13.221c19.77 15.078 21.216 20.064 7.883 27.202-13.679 7.319-54.102 6.534-53.859-1.05m-41.436-20.871c9.492-14.835 15.928-29.125 14.304-31.748-4.452-7.207-19.923-5.731-26.799 2.551-7.998 9.638-20.264 9.26-38.471-1.189-10.263-5.891-16.401-6.952-19.911-3.441-6.945 6.941 32.678 60.807 44.729 60.807 5.44 0 15.587-10.467 26.148-26.98m-43.636-2.944c-19.108-22.321-20.064-29.437-2.282-16.982 13.988 9.794 25.566 9.968 33.423.497 3.347-4.03 9.235-7.326 13.087-7.326 5.687 0 5.346 2.816-1.817 14.984-4.855 8.238-12.411 18.236-16.794 22.212-7.159 6.497-9.765 5.135-25.617-13.385m24.077-29.121c5.036-8.147-6.288-17.487-13.025-10.746-5.637 5.637-2.108 16.056 5.436 16.056 2.37 0 5.786-2.391 7.589-5.31m339.234 63.929v-24.425h24.425c21.166 0 24.422 1.301 24.422 9.768 0 7.443 3.26 9.769 13.679 9.769 15.71 0 25.403 7.832 25.403 20.519 0 7.817-4.888 8.791-43.967 8.791h-43.962Zm94.63 10.99a1254 1254 0 0 0-4.107-13.432c-1.373-4.401-8.209-7.33-17.098-7.33-9.903 0-14.806-2.424-14.806-7.327 0-6.341 18.723-7.326 139.218-7.326h139.217v38.747l-120.305 1.385c-92.991 1.072-120.716.003-122.119-4.717m76.339-10.99c0-2.689-6.411-4.888-14.246-4.888-7.839 0-15.045-2.391-16.023-5.317-1.054-3.169-6.647-1.261-13.839 4.721l-12.069 10.041 28.089.164c15.579.091 28.088-2.014 28.088-4.721M230.3 213.885c-5.033-8.144 6.288-17.484 13.029-10.746 5.637 5.636 2.108 16.055-5.437 16.055-2.369 0-5.785-2.387-7.592-5.309m331.716-46.39-43.247-32.163-172.19 1.876-172.19 1.875v-22.47h453.754l1.49 23.204 1.486 23.204H763.01l1.49-23.204 1.49-23.204h341.401v83.044H605.259Zm413.488 5.295c0-4.031-3.3-7.327-7.331-7.327-4.03 0-7.326 3.296-7.326 7.327 0 4.03 3.296 7.326 7.326 7.326 4.031 0 7.331-3.296 7.331-7.326m19.537 0c0-4.031-3.296-7.327-7.327-7.327-4.03 0-7.326 3.296-7.326 7.327 0 4.03 3.296 7.326 7.326 7.326 4.031 0 7.327-3.296 7.327-7.326m19.541 0c0-4.031-3.3-7.327-7.33-7.327-4.027 0-7.327 3.296-7.327 7.327 0 4.03 3.3 7.326 7.327 7.326 4.03 0 7.33-3.296 7.33-7.326m19.537 0c0-4.031-3.296-7.327-7.327-7.327-4.03 0-7.326 3.296-7.326 7.327 0 4.03 3.296 7.326 7.326 7.326 4.031 0 7.327-3.296 7.327-7.326m19.541 0c0-4.031-3.296-7.327-7.327-7.327-4.03 0-7.33 3.296-7.33 7.327 0 4.03 3.3 7.326 7.33 7.326s7.327-3.296 7.327-7.326m-68.388-19.541c0-4.03-3.296-7.327-7.326-7.327-4.031 0-7.33 3.297-7.33 7.327s3.299 7.326 7.33 7.326c4.03 0 7.326-3.296 7.326-7.326m19.537 0c0-4.03-3.296-7.327-7.326-7.327s-7.326 3.297-7.326 7.327 3.296 7.326 7.326 7.326 7.326-3.296 7.326-7.326m19.541 0c0-4.03-3.296-7.327-7.326-7.327s-7.327 3.297-7.327 7.327 3.297 7.326 7.327 7.326 7.326-3.296 7.326-7.326m19.541 0c0-4.03-3.3-7.327-7.33-7.327s-7.326 3.297-7.326 7.327 3.296 7.326 7.326 7.326 7.33-3.296 7.33-7.326m-68.387-19.537c0-4.031-3.3-7.33-7.331-7.33-4.03 0-7.326 3.299-7.326 7.33 0 4.03 3.296 7.326 7.326 7.326 4.031 0 7.331-3.296 7.331-7.326m19.537 0c0-4.031-3.296-7.33-7.327-7.33-4.03 0-7.326 3.299-7.326 7.33 0 4.03 3.296 7.326 7.326 7.326 4.031 0 7.327-3.296 7.327-7.326m19.541 0c0-4.031-3.3-7.33-7.33-7.33-4.027 0-7.327 3.299-7.327 7.33 0 4.03 3.3 7.326 7.327 7.326 4.03 0 7.33-3.296 7.33-7.326m19.537 0c0-4.031-3.296-7.33-7.327-7.33-4.03 0-7.326 3.299-7.326 7.33 0 4.03 3.296 7.326 7.326 7.326 4.031 0 7.327-3.296 7.327-7.326m19.541 0c0-4.031-3.296-7.33-7.327-7.33-4.03 0-7.33 3.299-7.33 7.33 0 4.03 3.3 7.326 7.33 7.326s7.327-3.296 7.327-7.326M230.3 174.807c-5.033-8.144 6.288-17.488 13.029-10.746 5.637 5.636 2.108 16.055-5.437 16.055-2.369 0-5.785-2.391-7.592-5.309m411.406-17.488c-1.792-1.788-3.256-10.583-3.256-19.537v-16.285h117.234v13.679c0 7.523-2.638 16.314-5.862 19.541-6.258 6.254-102.153 8.566-108.116 2.602M2.071 115.439c1.142-11.397 2.821-21.467 3.736-22.383.916-.916 83.186-.062 182.821 1.894 147.274 2.892 181.155 4.797 181.155 10.168 0 5.342-19.217 6.611-100.139 6.611H169.505v24.425H0Zm42.869 1.174c0-8.951-2.94-12.629-11.011-13.774-12.004-1.704-18.822 8.77-13.956 21.446 1.763 4.6 7.349 7.043 13.956 6.105 8.071-1.148 11.011-4.823 11.011-13.777m39.078 0c0-8.951-2.94-12.629-11.011-13.774-12.004-1.704-18.822 8.77-13.956 21.446 1.767 4.6 7.349 7.043 13.956 6.105 8.071-1.148 11.011-4.823 11.011-13.777m39.078 0c0-8.951-2.936-12.629-11.011-13.774-6.607-.941-12.189 1.505-13.955 6.106-4.863 12.672 1.951 23.149 13.955 21.445 8.075-1.148 11.011-4.823 11.011-13.777m39.082 0c0-8.951-2.94-12.629-11.015-13.774-12-1.704-18.818 8.77-13.955 21.446 1.766 4.6 7.352 7.043 13.955 6.105 8.075-1.148 11.015-4.823 11.015-13.777m601.647-13.025c-10.914-10.917-.575-15.322 43.758-18.647 46.263-3.467 47.219-3.321 59.728 9.191l12.716 12.712h-32.573c-17.917 0-33.932-2.198-35.593-4.884-1.661-2.689-7.287-4.884-12.502-4.884s-9.481 2.195-9.481 4.884c0 5.433-20.94 6.741-26.053 1.628m113.981-11.4c-14.144-11.902-21.565-14.413-42.948-14.522l-25.85-.131 1.425-37.857 1.428-37.857L869.822.44c50.446-1.203 58.768-.28 64.179 7.123 3.42 4.677 5.008 11.662 3.529 15.521-1.483 3.856.513 9.445 4.434 12.414 3.921 2.97 10.197 13.094 13.948 22.496 3.754 9.405 8.864 18.494 11.36 20.199 2.493 1.704 3.656 5.742 2.577 8.972-1.076 3.235-11.786-11.716-23.797-33.22-12.014-21.503-22.633-38.304-23.604-37.333-.974.97 8.37 20.358 20.759 43.086s22.524 42.633 22.524 44.235c0 1.599-15.935 2.853-35.415 2.78-31.984-.119-37.072-1.526-52.51-14.522Zm46.405-9.769c0-8.951-2.94-12.629-11.012-13.773-12.003-1.705-18.821 8.769-13.958 21.445 1.766 4.601 7.352 7.043 13.958 6.105 8.072-1.148 11.012-4.822 11.012-13.777m-31.752-13.926c0-2.286-2.413-11.077-5.364-19.537-4.353-12.491-8.028-15.384-19.537-15.384-13.283 0-14.177 1.232-14.177 19.538v19.54h19.537c10.75 0 19.541-1.871 19.541-4.157"/></svg>