<svg xmlns="http://www.w3.org/2000/svg" width="5080.009" height="1000" viewBox="0 0 5080.009 1000"><path d="M4231.645 990.286c-6.807-6.803-9.714-51.616-9.714-149.725V700.547h50.176c36.535 0 68.443-6.893 117.356-25.353l67.176-25.354V482.029h-226.615v-53.992c0-38.884-3.75-58.135-13.393-68.793-12.684-14.015-12.145-14.801 10.116-14.817 22.969-.012 23.512.964 23.512 42.492v42.503l80.167 2.333c77.709 2.259 80.876 1.653 103.193-19.727 14.612-14.003 23.02-30.366 23.02-44.821v-22.764h461.315v477.505h-283.613l-9.218 20.23c-7.153 15.703-15.27 20.235-36.244 20.235-22.552 0-27.073 3.014-27.301 18.209-.158 10.017-18.453 40.973-40.67 68.793L4480.513 1000h-119.579c-82.214 0-122.612-3.037-129.289-9.714m256.871-66.578c11.897-14.337 8.222-100.08-4.749-110.849-5.123-4.249-43.369-6.677-84.992-5.39l-75.678 2.337-2.424 55.928c-1.7 39.273.708 57.915 8.093 62.6 18.948 12.02 149.064 8.251 159.75-4.626m-161.371-41.06v-36.421h153.773v72.838h-153.773Zm-60.7-52.607c0-6.555-6.374-13.145-14.164-14.648-9.934-1.912-14.164 2.459-14.164 14.648s4.23 16.56 14.164 14.644c7.79-1.499 14.164-8.089 14.164-14.644m339.918 0c0-6.555-6.373-13.145-14.164-14.648-9.938-1.912-14.164 2.459-14.164 14.648s4.226 16.56 14.164 14.644c7.791-1.499 14.164-8.089 14.164-14.644m269.402-47.323c8.034-5.099 10.414-52.545 10.414-207.616s-2.38-202.517-10.414-207.616c-11.937-7.573-340.985-9.143-368.545-1.754l-18.209 4.878v204.76c0 156.235 2.396 205.727 10.116 208.843 17.138 6.916 365.563 5.531 376.638-1.495m-375.025-19.621c-2.172-5.662-2.967-93.982-1.767-196.265l2.18-185.969 188.168-2.171 188.171-2.176v396.869h-186.401c-143.347 0-187.31-2.376-190.347-10.288Zm312.535-6.181c8.608-4.608 15.655-11.45 15.655-15.203s-24.016-32.758-53.367-64.462c-45.553-49.2-57.301-57.635-80.278-57.635-23.067 0-34.497 8.31-80.03 58.198-49.963 54.748-52.328 59.068-39.867 72.838 11.48 12.685 27.206 14.64 117.741 14.64 57.47 0 111.533-3.769 120.146-8.376m-223.098-96.834 39.86-40.466h-84.374v40.466c0 22.257 1.047 40.465 2.329 40.465s20.266-18.208 42.185-40.465m254.939 0v-40.466h-74.349l33.883 40.466c18.634 22.257 35.363 40.465 37.173 40.465s3.293-18.208 3.293-40.465m-251.677-153.773c-18.767-22.257-37.196-40.466-40.95-40.466-3.753 0-6.826 18.209-6.826 40.466v40.465h81.895Zm183.277-20.381c53.071-59.295 54.086-61.251 39.942-76.886-13.078-14.447-25.121-16.041-121.271-16.041-95.614 0-108.239 1.649-121.054 15.809-13.865 15.324-12.625 17.677 40.576 76.886 74.974 83.437 87.324 83.457 161.807.232m68.4 18.697v-42.154l-36.421 35.744c-20.03 19.661-36.421 38.629-36.421 42.15 0 3.525 16.391 6.409 36.421 6.409h36.421Zm-384.433-63.061c0-6.559-6.373-13.149-14.163-14.648-9.935-1.912-14.16 2.455-14.16 14.648 0 12.189 4.225 16.556 14.16 14.644 7.79-1.499 14.163-8.09 14.163-14.644m-683.881 526.65c0-15.958 6.964-29.17 21.325-40.466 18.849-14.833 32.459-16.776 117.352-16.776h96.027V701.849l41.26-13.707c47.202-15.675 62.188-40.108 69.789-113.756 6.956-67.381-2.077-97.31-36.397-120.633-29.138-19.802-33.329-20.282-176.286-20.282-145.735 0-146.526-.099-165.442-20.235-10.458-11.131-16.553-20.687-13.551-21.246 2.998-.555 10.01-1.468 15.573-2.022 15.427-1.543 12.055-24.697-4.049-27.797-10.115-1.951-14.16 2.498-14.16 15.565 0 17.807-.665 17.661-24.838-5.477l-24.838-23.768 245.379-4.934c224.23-4.505 247.125-3.726 265.612 9.057l20.235 13.991-1.987 278.254c-1.928 270.338-2.498 279.23-20.065 312.649l-18.079 34.399h-392.86Zm80.931-24.87c0-16.752-19.522-22.331-28.324-8.093-6.775 10.962 2.369 24.28 16.662 24.28 6.414 0 11.662-7.283 11.662-16.187m315.639 0c0-16.752-19.526-22.331-28.328-8.093-6.771 10.962 2.365 24.28 16.667 24.28 6.413 0 11.661-7.283 11.661-16.187m16.186-141.631V700.547H4156.1c-18.401 0-47.103 4.088-63.781 9.085-27.97 8.38-30.712 11.925-35.335 45.643-6.637 48.421-6.401 135.423.394 142.21 2.966 2.966 33.922 5.394 68.793 5.394h63.395V801.713Zm-121.396 9.718v-75.258l26.876-9.722c14.781-5.343 38.455-9.718 52.607-9.718h25.727v169.96h-105.21Zm-60.7-434.616v-20.231l-115.499-2.246c-97.527-1.901-116.235-.323-120.244 10.115-2.609 6.799-2.609 17.925 0 24.728 4.009 10.438 22.717 12.012 120.244 10.115l115.499-2.246Zm-222.567-4.045c0-10.17 17.087-12.141 105.214-12.141 88.124 0 105.211 1.971 105.211 12.141 0 10.167-17.087 12.138-105.211 12.138-88.127 0-105.214-1.971-105.214-12.138m339.919-.865c0-14.691-21.262-14.632-26.904.075-2.396 6.24-2.428 13.274-.079 15.627 7.432 7.432 26.975-3.942 26.975-15.702Zm555.737 541.766c-2.967-2.967-5.394-21.179-5.394-40.466v-35.071h202.331v80.931h-95.771c-52.674 0-98.196-2.428-101.166-5.394m247.522-.531-34.398-3.097v-35.956c0-35.477.354-35.953 27.446-35.953 24.736 0 28.808 3.395 41.201 34.371 7.566 18.905 17.977 37.058 23.135 40.344 9.576 6.09 7.145 6.102-57.384.291m-277.196-34.064c0-17.54 3.644-34.143 8.093-36.898 4.942-3.053 8.094 9.36 8.094 31.897 0 20.294-3.644 36.897-8.094 36.897-4.453 0-8.093-14.353-8.093-31.896m-14.148-4.525c.079-17.803 1.747-24.134 3.683-14.066 1.936 10.065 1.865 24.634-.158 32.373-2.026 7.739-3.607-.5-3.521-18.307Zm343.231 6.071c-6.185-12.24-19.026-45.034-28.532-72.87-16.355-47.89-17.288-65.827-17.288-332.86 0-241.68 1.751-283.695 12.205-292.371 16.996-14.101 81.541-5.626 108.098 14.2l21.332 15.922 2.117 317.508 2.117 317.504-27.612 27.612c-33.742 33.742-57.214 35.477-72.437 5.355m62.093-62.129c5.682-14.801-14.946-32.164-30.924-26.034-12.602 4.84-16.391 22.639-6.846 32.184 9.58 9.58 33.21 5.732 37.77-6.15m-30.68-4.08c-5.984-9.686 9.238-19.282 20.018-12.617 9.053 5.594 3.108 20.152-8.223 20.152-3.926 0-9.234-3.392-11.795-7.535m18.267-212.604c24.437-24.437-.393-63.195-30.236-47.217-20.408 10.922-21.781 36.979-2.541 48.189 18.385 10.709 21.183 10.627 32.777-.972m-34.957-14.825c-3.144-5.087-1.904-13.054 2.746-17.709 10.875-10.879 36.232-1.389 31.81 11.902-4.505 13.526-27.407 17.378-34.56 5.807Zm35.264-273.93c5.953-3.773 9.592-15.553 8.093-26.18-3.757-26.581-43.353-32.187-51.265-7.259-9.187 28.942 17.571 49.664 43.172 33.439m-31.743-13.948c-7.192-8.663-7.507-14.455-1.133-20.829 11.174-11.173 34.194-2.801 34.194 12.441 0 16.863-21.497 22.32-33.057 8.388Zm-1229.066 514.8c-42.976-68.66-53.257-80.266-68.019-76.808-9.564 2.243-22.563.708-28.89-3.407-9.805-6.378-9.49-10.548 2.117-28.261 13.29-20.286 13.019-21.309-11.339-43.015-13.727-12.228-41.461-48.712-61.633-81.077l-36.673-58.843-82.119.047c-90.964.047-138.614 9.698-146.254 29.611-6.15 16.024 9.619 34.371 68.183 79.325 50.495 38.766 101.874 50.672 155.886 36.13 30.98-8.345 32.022-9.714 27.686-36.425-2.474-15.265-3.206-27.753-1.624-27.753 9.202 0 37.522 58.937 31.306 65.154-22.678 22.678-156.543 51.726-156.634 33.989-.015-3.34-22.556-24.275-50.085-46.528-27.533-22.253-71.071-69.6-96.759-105.214-25.684-35.615-52.312-71.127-59.17-78.917-6.861-7.79-12.472-21.447-12.472-30.35 0-14.03 5.394-16.186 40.466-16.186 29.677 0 44.781 4.316 56.651 16.186 14.648 14.644 26.979 16.186 129.494 16.186h113.308v-22.686c0-27.403 44.435-90.621 63.698-90.621 20.549 0 94.8 80.447 107.347 116.301 7.274 20.79 22.217 39.065 44.427 54.346 18.405 12.665 51.801 47.741 74.211 77.941 48.531 65.41 70.973 87.38 100.816 98.683l22.257 8.436v194.636h-175.554Zm-107.662-435.061c4.423-13.29-20.935-22.78-31.81-11.902-4.654 4.655-5.893 12.622-2.75 17.709 7.153 11.571 30.055 7.72 34.556-5.807ZM2800.75 778.244c-26.124-26.128-27.517-30.421-27.517-84.979 0-44.613 2.609-57.463 11.654-57.463 7.621 0 12.519 10.497 14.16 30.35l2.514 30.351 57.411 2.348c43.22 1.775 59.89-.633 67.44-9.725 15.025-18.107 3.147-43.724-22.049-47.564-12.027-1.837 53.308-3.883 145.188-4.548l167.056-1.212 45.392 38.164 45.391 38.164v93.631h-479.122Zm514.603-23.067-.13-50.581-50.451-42.331-50.451-42.33-222.999-.158-222.995-.157-18.244-56.656-18.248-56.651h-298.351l-29.634-44.636-29.638-44.633-234.46 2.145-234.461 2.144-23.626 76.886c-12.991 42.288-29.197 96.004-36.012 119.375-10.689 36.673-15.167 42.492-32.691 42.492-24.417 0-25.023 3.899 24.598-157.822l34.765-113.303 250.198-2.137 250.198-2.136 32.321 52.43 32.321 52.43 404.667.413 404.664.413 55.904 74.738c30.747 41.107 77.484 92.581 103.865 114.39 46.036 38.058 47.74 40.808 42.519 68.644-10.139 54.047-14.923 57.615-77.127 57.615h-56.372Zm-501.654-90.665c0-27.419 1.278-28.71 28.327-28.71 15.581 0 28.328 3.64 28.328 8.093 0 4.45 11.178 8.093 24.842 8.093 21.132 0 24.457 2.719 22.257 18.209-2.325 16.355-7.739 18.456-53.17 20.62l-50.584 2.408Zm1432.515-73.224v-93.073h194.239v143.123l-54.83 21.509c-34.529 13.547-70.49 21.514-97.122 21.514h-42.287Zm-740.183 26.302c2.325-69.907 2.64-70.816 24.567-70.816 19.223 0 20.467 2.085 15.682 26.306-13.121 66.425-42.043 98.407-40.249 44.51m-1627.789-12.138c11.209-35.646 45.199-150.83 45.199-153.175 0-1.444 99.635-2.62 221.417-2.62h221.422l29.551 44.51 29.556 44.514h297.367l9.053 35.957c4.981 19.778 9.054 37.987 9.054 40.465 0 2.483-195.093 4.513-433.534 4.513-409.196 0-433.287-.799-429.085-14.164m-81.108-60.448c5.257-26.282 17.508-44.975 24.74-37.743 6.311 6.307-13.7 63.792-22.202 63.792-4.411 0-5.504-11.224-2.538-26.049m692.836-103.44q0-24.284 12.138-24.284 12.14 0 12.142 24.284-.001 24.279-12.142 24.279-12.139 0-12.138-24.279m-60.7 0c-14.396-15.907-14.136-16.19 14.931-16.19 24.185 0 29.583 2.954 29.583 16.19 0 10.335-5.398 16.186-14.935 16.186-8.211 0-21.521-7.287-29.579-16.186m101.166 0c0-15.553 5.394-16.19 137.587-16.19 132.188 0 137.582.637 137.582 16.19 0 15.549-5.394 16.186-137.582 16.186-132.193 0-137.587-.637-137.587-16.186m291.36-4.049c0-19.334 2.156-20.235 48.558-20.235s48.559.901 48.559 20.235-2.16 20.235-48.559 20.235c-46.402 0-48.558-.901-48.558-20.235m129.489 0c0-17.087 3.777-20.235 24.28-20.235 20.506 0 24.283 3.148 24.283 20.235s-3.777 20.235-24.283 20.235c-20.503 0-24.28-3.148-24.28-20.235m72.842 0c0-14.836 4.316-20.235 16.186-20.235s16.187 5.399 16.187 20.235c0 14.837-4.316 20.235-16.187 20.235-11.87 0-16.186-5.398-16.186-20.235m56.652-.865c0-17.064 2.711-19.912 14.164-14.892 7.79 3.411 40.568 7.841 72.838 9.844 42.968 2.663 58.678 6.649 58.678 14.892 0 8.777-16.033 11.256-72.842 11.256h-72.838Zm285.289 4.788c-10.017-4.096-18.213-13.027-18.213-19.849 0-10.096 13.543-12.712 72.842-14.086 157.755-3.651 149.276-4.666 149.288 17.871l.016 20.234-92.86 1.637c-51.077.901-101.06-1.711-111.073-5.807M1203.139 313.195V192.924l42.487-5.103c23.371-2.805 281.949-5.134 574.623-5.174l532.135-.071v186.146h-64.745V206.856h-81.927c-76.784 0-81.238.889-71.008 14.164 6.004 7.79 33.765 42.011 61.691 76.048s50.774 64.084 50.774 66.771c0 2.683-8.522 4.883-18.94 4.883-13.586 0-33.561-17.17-70.619-60.7-28.422-33.384-53.587-60.508-55.92-60.272s-25.794 27.553-52.127 60.7c-40.182 50.573-51.734 60.272-71.807 60.272-27.411 0-29.28 3.734 37.589-75.156 21.836-25.758 37.896-48.633 35.693-50.832-2.199-2.204-50.089-2.983-106.422-1.731l-102.417 2.274 53.528 60.7 53.528 60.7-23.025 2.778c-19.798 2.388-30.96-5.886-79.676-59.06l-56.655-61.833-50.581 60.779c-27.82 33.427-50.585 62.734-50.585 65.126s37.9 4.348 84.224 4.348h84.22l-8.695 28.328-8.691 28.328h-636.652Zm175.892-6.09c39.022-47.245 72.165-89.127 73.648-93.073 1.484-3.946-32.203-7.176-74.864-7.176h-77.559v77.646c0 70.835-1.42 78.015-16.186 81.875-23.304 6.094-20.29 26.624 3.91 26.624 15.687 0 35.686-18.869 91.051-85.896m159.313 6.987c-30.39-34.497-56.18-64.091-57.313-65.764-2.172-3.206-26.963 25.153-78.276 89.54l-31.038 38.947h221.882Zm150.621-10.115 50.573-60.7-53.728-2.392c-29.552-1.318-77.331-1.318-106.183 0l-52.453 2.392 53.85 62.675c29.615 34.473 54.638 61.79 55.605 60.7.968-1.086 24.52-29.291 52.336-62.675m2573.431 76.886v-36.42h178.057v23.024c0 40.029-20.396 49.813-103.83 49.813h-74.227Zm-1019.751-51.564v-81.978H2368.57V141.824l638.694 2.168 638.695 2.163 24.625 18.213c22.541 16.666 33.463 18.208 128.79 18.208 102.81 0 104.152.236 103.514 18.209-.621 17.599 2.145 18.291 82.316 20.518l82.958 2.306v-20.515c0-19.223 2.549-20.518 40.465-20.518 35.686 0 40.466 2.003 40.466 16.962 0 9.328 6.09 27.273 13.538 39.879l13.539 22.918 176.651-4.717 176.656-4.714v75.352h-896.994l-24.81 31.322-24.807 31.322-91.199 5.253c-50.164 2.887-126.713 7.471-170.113 10.186l-78.909 4.934Zm68.223 58.222c6.7-17.461-12.795-37.114-30.193-30.437-11.264 4.324-13.334 18.193-6.259 41.988 2.565 8.62 32.333-.814 36.452-11.551m234.311-34.985c21.761-24.087 35.468-32.373 53.551-32.373 19.161 0 24.299-3.537 24.299-16.717 0-9.199-3.769-23.764-8.376-32.377-7.606-14.207-17.823-15.651-110.762-15.651-93.982 0-103.92 1.444-121.117 17.595-14.341 13.475-18.728 26.369-18.728 55.035 0 20.589 4.367 41.807 9.71 47.15 5.972 5.972 35.221 9.71 75.946 9.71h66.232Zm-159.553 2.699c-11.146-11.147-4.977-57.223 9.403-70.238 11.882-10.749 32.329-13.392 103.598-13.392 58.268 0 92.132 3.336 98.502 9.71 14.789 14.789 11.685 22.662-8.931 22.662-10.686 0-30.37 12.094-46.1 28.324-26.66 27.505-29.252 28.328-89.268 28.328-33.994 0-64.237-2.428-67.204-5.394m472.107-52.647c0-37.436-20.805-47.174-100.8-47.174-80.872 0-93.438 5.662-93.438 42.087v22.662h97.121c94.276 0 97.117-.515 97.117-17.575m-178.052-5.087c0-26.707 17.421-33.99 81.297-33.99 50.927 0 64.387 2.774 76.06 15.675 23.862 26.365 8.612 32.884-76.902 32.884-72.079 0-80.455-1.519-80.455-14.569m412.76 5.087c0-37.298-20.88-47.174-99.761-47.174-79.967 0-102.571 10.088-102.571 45.77 0 18.897.433 18.979 101.166 18.979 98.428 0 101.166-.476 101.166-17.575m-186.145-1.404c0-25.216 28.568-37.673 86.384-37.673 44.734 0 59.626 3.14 70.178 14.798 26.636 29.433 17.465 33.761-71.583 33.761-65.791 0-84.979-2.459-84.979-10.886m-246.846-65.89c0-17.855-25.161-26.746-38.357-13.554-13.601 13.605-.185 35.103 20.109 32.223 11.941-1.696 18.248-8.149 18.248-18.669m234.704-.11c0-11.871-5.394-16.187-20.235-16.187-18.834 0-26.726 13.535-17.968 30.815 6.893 13.593 38.203 1.605 38.203-14.628M2430.797 221.02c11.984-16.041 7.904-33.919-8.455-37.067-20.562-3.962-32.204 9.707-25.704 30.181 6.02 18.968 22.635 22.316 34.159 6.886m79.333-14.294c-.047-14.266-5.036-20.813-17.177-22.552-20.503-2.939-31.759 19.656-18.032 36.196 14.514 17.485 35.292 9.435 35.209-13.644m-128.49 174.421c-7.66-11.689-13.07-36.815-13.07-60.701v-40.748h129.493v121.396h-51.674c-45.994 0-53.115-2.191-64.749-19.947m132.61-40.753c0-35.068 3.415-60.696 8.093-60.696 4.674 0 8.093 25.628 8.093 60.696 0 35.071-3.419 60.7-8.093 60.7-4.678 0-8.093-25.629-8.093-60.7m32.372-.201v-60.897l131.516 2.223 131.516 2.223 2.376 58.678 2.381 58.674h-267.789zm528.086 55.192c-16.796-3.238-18.208-7.864-18.208-59.598v-56.089h169.959v121.396l-66.771-1.101c-36.724-.606-74.963-2.68-84.98-4.608m-244.819-58.445c0-52.277 1.436-57.246 16.556-57.246 15.277 0 16.371 4.21 14.16 54.547-1.944 44.376-5.032 55.05-16.556 57.245-12.406 2.369-14.16-4.39-14.16-54.546m89.024-.591c0-44.962 2.506-56.655 12.142-56.655s12.137 11.693 12.137 56.655-2.502 56.652-12.137 56.652-12.142-11.689-12.142-56.652m40.465 0c0-51.257 1.543-56.655 16.187-56.655 14.648 0 16.186 5.398 16.186 56.655s-1.538 56.652-16.186 56.652c-14.644 0-16.187-5.394-16.187-56.652m56.656 0c0-44.962 2.502-56.655 12.138-56.655s12.141 11.693 12.141 56.655-2.506 56.652-12.141 56.652-12.138-11.689-12.138-56.652m-129.494-4.048c0-29.674 3.53-52.607 8.094-52.607s8.093 22.933 8.093 52.607c0 29.677-3.529 52.607-8.093 52.607s-8.094-22.93-8.094-52.607M.067 307.876c-.413-65.123.582-69.195 17.96-73.558 36.587-9.183 47.835-1.31 50.491 35.331 2.309 31.865 4.163 34.324 25.837 34.324 21.687 0 23.528-2.451 25.838-34.395 2.226-30.779 4.831-34.666 24.747-36.956 21.443-2.467 22.257-1.192 22.257 34.883v37.448l30.35-2.514c29.457-2.436 30.421-3.522 32.837-36.909 2.199-30.398 4.788-34.395 22.257-34.395 18.031 0 19.767 3.195 19.767 36.421 0 36.224.149 36.417 28.327 36.417s28.328-.193 28.328-36.417c0-36.228.15-36.421 28.324-36.421h28.328v145.68H.504Zm403.502 2.817c1.535-37.436 5.969-59.217 12.496-61.373 7.499-2.483 10.116 12.539 10.116 58.029 0 49.932-2.33 61.373-12.492 61.373-10.324 0-12.083-10.084-10.12-58.029m46.891-2.671v-52.608h736.488v105.215H450.46Zm4095.203-17.284v-37.523l93.765 5.776c105.447 6.492 124.753-.563 124.753-45.6v-23.327l74.864 2.325 74.864 2.329 2.349 66.767 2.349 66.771h-81.588v-56.651h-258.987v28.323c0 22.93-3.085 28.328-16.187 28.328-13.857 0-16.186-5.398-16.186-37.522Zm54.673 9.19 3.867-20.23h208.54v40.465h-216.275Zm-420.448-72.342c-9.337-10.025-14.609-28.119-14.609-50.124 0-59.831-.877-59.65 287.091-59.512 291.871.137 290.254-.189 294.082 59.606 4.206 65.756 1.157 66.901-156.472 58.713-75.997-3.946-191.807-3.946-265.199 0-123.415 6.638-131.056 6.181-144.893-8.683m80.891-6.161c13.515-13.515 12.118-34.871-3.104-47.504-25.231-20.939-56.848 19.644-35.418 45.466 11.859 14.29 25.551 15.014 38.526 2.038Zm-34.957-14.825c-3.144-5.087-1.912-13.054 2.75-17.709 10.875-10.879 36.232-1.389 31.806 11.902-4.501 13.526-27.403 17.378-34.556 5.807m466.906 11.142c8.14-7.365 14.801-16.21 14.801-19.656 0-8.463-23.728-31.696-32.372-31.696-8.99 0-32.373 23.382-32.373 32.373 0 7.88 22.914 32.372 30.291 32.372 2.672 0 11.513-6.027 19.653-13.393m-33.758-18.979q0-16.188 16.187-16.187t16.186 16.187q.001 16.187-16.186 16.186-16.188.001-16.187-16.186m-743.944-4.722c.394-9.427 2.306-11.347 4.891-4.89 2.337 5.842 2.049 12.826-.638 15.513-2.687 2.691-4.603-2.089-4.253-10.623m23.642.677c0-6.677 3.643-12.142 8.093-12.142s8.093 5.465 8.093 12.142-3.643 12.138-8.093 12.138c-4.454 0-8.093-5.461-8.093-12.138m32.373 0c0-6.677 5.461-12.142 12.137-12.142 6.681 0 12.142 5.465 12.142 12.142s-5.461 12.138-12.142 12.138c-6.676 0-12.137-5.461-12.137-12.138m40.465 4.045c0-4.45 10.926-8.093 24.279-8.093s24.28 3.643 24.28 8.093c0 4.453-10.926 8.093-24.28 8.093-13.353 0-24.279-3.64-24.279-8.093m-327.521-54.457c-4.269-17.02-1.597-25.282 11.658-36.015 26.573-21.514 52.202-8.259 55.345 28.626 2.499 29.355 2.381 29.473-29.472 29.473-28.084 0-32.664-2.695-37.531-22.084m-1229.169-16.638c-75.297-1.979-87.08-4.084-82.957-14.829 2.644-6.885 4.804-28.611 4.804-48.276 0-27.942 2.943-35.76 13.452-35.76 18.07 0 85.085 39.577 98.289 58.045 5.815 8.14 15.884 14.797 22.368 14.797s18.798 4.375 27.367 9.726c12.327 7.7 19.94 7.393 36.473-1.456 16.056-8.588 23.11-8.97 30.444-1.632 12.555 12.551 36.441 12.22 40.733-.571 2.652-7.9 8.121-7.601 24.956 1.369 18.614 9.915 24.5 9.915 43.114 0 16.835-8.97 22.3-9.269 24.956-1.369 4.312 12.854 22.029 12.941 42.421.201 12.527-7.822 17.964-7.822 25.79 0 11.917 11.921 39.049 13.188 39.049 1.822 0-4.45 7.283-8.094 16.186-8.094 8.904 0 16.186 3.644 16.186 8.094 0 11.161 21.03 10.142 41.634-2.023 13.708-8.093 17.867-8.093 20.798 0 4.686 12.944 28.505 13.059 41.362.201 7.826-7.826 13.263-7.826 25.791 0 19.188 11.98 40.375 12.936 40.375 1.822 0-4.454 7.282-8.098 16.186-8.098s16.186 3.644 16.186 8.098c0 11.193 27.053 10.174 38.683-1.456 7.338-7.338 14.211-7.055 29.67 1.219 16.536 8.849 22.383 8.892 32.813.237 10.426-8.656 16.253-8.629 32.648.145 16.693 8.931 23.484 8.801 41.516-.803 16.835-8.97 22.3-9.269 24.956-1.369 6.728 20.046 32.746 10.69 99.863-35.909 26.31-18.264 36.917-31.078 36.421-43.999-.57-14.868 5.166-19.475 31.098-24.976 20.002-4.245 34.859-3.678 40.06 1.523 5.626 5.626 2.896 8.266-8.549 8.266-34.454 0-46.076 41.335-16.8 59.772 10.418 6.559 18.24 6.338 29.736-.842 13.708-8.557 17.607-6.342 32.129 18.272 12.963 21.969 21.718 28.009 40.603 28.009 13.239 0 25.762 2.734 27.824 6.07 3.51 5.682-946.154 8.821-1138.634 3.766Zm1001.822-75.36c-3.017-4.879.41-14.762 7.613-21.966 12.067-12.071 14.129-12.071 26.196 0 15.297 15.297 8.699 30.834-13.098 30.834-8.376 0-17.697-3.99-20.711-8.868"/></svg>