<svg xmlns="http://www.w3.org/2000/svg" width="2958.232" height="1000" viewBox="0 0 2958.232 1000"><path d="M1882.326 893.047v-106.95h331.551v103.704c0 89.633-1.148 104.148-8.46 106.954-4.652 1.784-79.25 3.245-165.776 3.245h-157.315Zm297.685 60.883c8.22-12.549 8.351-15.434 1.257-28.078l-7.908-14.089h-250.786l-7.185 14.991c-6.185 12.912-5.992 16.808 1.389 28.077l8.573 13.083h245.498Zm-250.895 2.86c-11.626-6.771-12.077-22.826-.956-33.95 7.094-7.091 25.497-8.403 118.001-8.403 65.32 0 113.774 2.235 119.938 5.535 5.869 3.144 10.343 11.157 10.343 18.531 0 7.37-4.474 15.387-10.343 18.527-13.661 7.312-224.384 7.097-236.983-.24m251.552-105.187 1.556-44.119h-267.812v41.891c0 23.041 1.646 43.537 3.656 45.547 2.013 2.013 61.57 3.016 132.352 2.228l128.697-1.428Zm-1215.029 19.73L789.597 818.18H128.315V700.535h672.122l174.087 56.147 174.084 56.152h93.943c109.043 0 106.935-1.109 106.935 56.147 0 57.529 2.624 56.203-110.395 55.825l-97.406-.327Zm355.188 32.725c0-14.398-10.114-19.228-19.861-9.481-9.747 9.743-4.917 19.86 9.482 19.86 6.708 0 10.379-3.67 10.379-10.379m-542.46-171.95c1.992-3.223-.043-9.525-4.521-14.002-9.747-9.747-19.86-4.917-19.86 9.481 0 11.361 18.08 14.711 24.381 4.521m778.644 130.107c-12.255-25.785-22.278-50.086-22.278-54.008 0-15.35 18.24-44.365 32.541-51.757 39.172-20.261 67.559-5.132 95.814 51.06 11.757 23.385 21.376 44.954 21.376 47.931 0 5.138-90.974 53.651-100.611 53.651-2.512 0-14.592-21.097-26.842-46.877m68.925-1.41c5.658-3.031 14.075-12.833 18.705-21.784 17.233-33.321-6.534-68.969-45.983-68.969-15.987 0-23.08 3.431-34.037 16.456-18.753 22.284-18.142 44.242 1.784 64.172 16.554 16.553 40.052 20.551 59.531 10.125m-52.841-17.568c-26.925-28.663-4.382-67.475 36.502-62.845 11.139 1.261 32.086 25.657 32.086 37.366 0 5.324-4.986 16.016-11.084 23.767-14.486 18.418-41.066 19.21-57.504 1.712M2.526 739.976C-2.072 648.014.861 610.851 14.853 583.893l10.233-19.723h73.817l3.776 56.151c2.075 30.88 5.364 88.034 7.305 127.003l3.529 70.856H6.432Zm1126.581 19.101-43.574-37.715V344.667l41.564-41.317 41.56-41.316 80.097.029 80.097.029 33.42 29.814 33.423 29.815v425.385l-37.37 24.847-37.366 24.85h-148.281l-43.57-37.715Zm202.415-23.785v-45.453h-72.192c-89.502 0-91.77 1.392-89.114 54.814l1.792 36.095h159.514Zm-143.113 33.623c1.65-4.946 16.092-6.883 51.314-6.883 66.335 0 64.438 10.234-2.267 12.232-40.005 1.196-50.835.015-49.047-5.349m111.031-30.949c0-33.866 1.017-37.431 10.692-37.431 9.677 0 10.695 3.565 10.695 37.431 0 33.871-1.018 37.436-10.695 37.436-9.675 0-10.692-3.565-10.692-37.436m-111.282 1.338c1.563-8.126 8.464-9.358 52.456-9.358 43.991 0 50.892 1.232 52.459 9.358 1.621 8.416-3.66 9.358-52.459 9.358-48.796 0-54.077-.942-52.456-9.358m.811-24.062c-6.564-10.688 8.362-14.707 54.636-14.707 40.233 0 50.485 1.555 50.485 7.653 0 5.993-11.157 8.028-51.328 9.358-28.231.938-52.438-.116-53.793-2.304m-74.024-175.134c4.408-13.878-1.803-33.259-9.813-30.625-3.427 1.127-7.021 7.45-7.988 14.054-3.561 24.294 11.037 37.886 17.801 16.571m232.426-7.788c7.959-9.59 2.9-18.952-10.245-18.952-11.964 0-17.677 12.524-9.463 20.74 7.933 7.934 11.945 7.567 19.708-1.788m1.98-133.533c4.467-11.64-10.513-22.049-20.184-14.024-9.732 8.078-4.902 21.656 7.705 21.656 5.251 0 10.866-3.435 12.479-7.632m-17.829-72.585v-48.127h-159.547l-1.777 38.184c-2.704 58.146-2.813 58.074 86.762 58.074h74.562Zm-137.778 36.556c-12.923-12.927-5.949-15.165 47.262-15.165 48.422 0 53.688.948 52.081 9.358-1.512 7.889-8.929 9.597-47.262 10.884-30.788 1.036-47.607-.603-52.081-5.077m109.261 2.66c-1.963-1.959-3.565-20.01-3.565-40.106 0-32.977 1.043-36.542 10.692-36.542 9.746 0 10.695 3.565 10.695 40.107 0 29.858-1.821 40.106-7.13 40.106-3.922 0-8.733-1.602-10.696-3.565Zm-112.114-31.901c-2.064-2.06-3.754-6.959-3.754-10.88 0-5.47 12.545-7.13 53.869-7.13 48.422 0 53.688.948 52.078 9.358-1.519 7.951-9.06 9.59-50.115 10.884-26.581.836-50.017-.164-52.078-2.228Zm-2.482-35.189c1.65-4.946 16.092-6.883 51.314-6.883 66.335 0 64.438 10.234-2.267 12.229-40.005 1.199-50.835.018-49.047-5.346m693.917 255.147V331.551h58.822v443.851h-58.822Zm73.083 218.362c-1.959-1.963-3.565-101.829-3.565-221.927V331.551h192.512v443.851h-92.689c-50.98 0-94.296-1.606-96.258-3.565m156.861-164.886V475.936h-128.34v262.03h128.34Zm-117.645 120.32c0-3.205 21.285-5.346 53.16-5.346 29.673 0 54.622 2.362 56.464 5.346 2.126 3.438-16.877 5.35-53.16 5.35-34.078 0-56.464-2.119-56.464-5.35m-1.606-14.082c-10.118-10.121 1.006-12.654 55.526-12.654 45.034 0 58.739 1.606 57.053 6.683-2.424 7.308-105.765 12.785-112.579 5.971m0-26.74c-2.057-2.057-3.744-9.355-3.744-16.22 0-12.319.749-12.476 59.179-12.476h59.179l-1.69 14.708-1.694 14.704-53.745 1.511c-29.561.833-55.428-.16-57.485-2.227m-1.618-46.914c-1.664-4.343-2.191-12.247-1.166-17.567 1.657-8.595 8.097-9.671 57.939-9.671h56.075v32.086l-54.908 1.527c-44.482 1.235-55.483.029-57.936-6.375Zm0-48.127c-1.664-4.343-2.191-12.247-1.166-17.567 1.657-8.595 8.097-9.671 57.939-9.671h56.075v32.086l-54.908 1.526c-44.482 1.236-55.483.03-57.936-6.374Zm1.618-43.995c-2.057-2.057-3.744-8.155-3.744-13.544 0-8.919 5.361-9.805 59.197-9.805 58.328 0 59.172.178 57.485 12.032-1.624 11.448-4.317 12.106-55.453 13.545-29.561.832-55.428-.171-57.485-2.228m-1.876-42.236c-5.927-15.453 6.248-18.978 60.102-17.415 48.927 1.425 53.004 2.366 53.004 12.236 0 9.903-4.074 10.808-54.908 12.222-46.354 1.286-55.421.189-58.198-7.043m163.908 48.298V331.551h58.826v193.025c0 159.627-1.453 198.029-8.402 221.927-8.326 28.637-8.591 28.899-29.411 28.899h-21.013Zm-617.748 189.368c-4.347-19.788-18.6-27.477-47.052-25.391l-22.364 1.639-1.639-25.556c-1.367-21.31.41-27.267 10.695-35.84 11.335-9.449 21.907-10.295 130.386-10.459 116.591-.178 118.194-.029 129.678 12.196 8.115 8.639 11.629 19.141 11.629 34.761v22.383h-34.372c-30.763 0-35.535 1.482-45.456 14.089-6.094 7.752-11.08 17.379-11.08 21.391 0 9.623-7.737 9.289-16.023-.694-3.653-4.401-15.929-10.783-27.286-14.184-18.541-5.557-23.36-4.783-47.164 7.57l-26.514 13.755Zm-128.519-25.653c-1.315-1.316-2.395-82.608-2.395-180.65V358.288h64.172v53.476h37.105l1.501 65.51 1.501 65.505 33.129 1.585 33.125 1.584 1.632 22.481 1.635 22.478 30.444 1.595 30.447 1.595 1.639-25.657 1.639-25.661h69.517l1.505-65.509 1.501-65.506h85.232v304.812h-42.782v-24.978c0-16.146-3.263-28.586-9.219-35.171-5.074-5.604-11.688-17.826-14.708-27.158l-5.484-16.972-119.647-1.439c-126.894-1.53-134.362-.232-134.362 23.295 0 7.054-4.674 15.027-10.695 18.251-8.653 4.63-10.696 11.197-10.696 34.386v28.663l-21.67 2.068c-11.917 1.133-22.746.984-24.062-.331Zm385.305-203.822V435.83h-64.169l-.719 74.864c-.393 41.178.421 76.786 1.809 79.13 1.389 2.344 16.151 3.547 32.802 2.674l30.277-1.588Zm-56.148-2.674v-61.498h48.127v122.995h-48.127Zm-675.132 183.081c-8.17-19.872-9.333-41.793-9.136-172.441.207-137.167 1.079-151.242 10.47-168.392l10.248-18.716.225 191.175c.124 105.147-.378 191.167-1.112 191.157-.734-.011-5.549-10.263-10.695-22.783m1701.868 13.167c0-20.628 6.411-27.842 27.78-31.258 11.694-1.871 22.557-6.767 24.134-10.88 8.155-21.253-38.555-176.203-63.499-210.64-22.696-31.33-40.721-37.054-116.737-37.054-61.035 0-66.203-.857-96.276-16.041l-31.781-16.041h-208.862v-67.199l185.829 2.119c183.703 2.096 185.945 1.991 196.016-9.18 9.387-10.416 15.71-11.303 80.438-11.303h70.248l22.078 22.728c20.864 21.475 24.341 30.08 63.132 156.138l41.055 133.41-17.422 36.015-17.422 36.011-45.932 14.623c-25.265 8.043-60.974 15.704-79.355 17.026-30.836 2.221-33.424 1.563-33.424-8.474m85.356-102.276c6.934-12.96 2.26-25.752-10.935-29.942-16.307-5.175-20.461 1.13-14.199 21.536 6.36 20.725 16.688 24.178 25.134 8.406m-24.24-46.223c11.764-11.768 10.459-27.554-2.867-34.688-17.019-9.108-23.335.541-15.631 23.88 7.272 22.03 7.272 22.03 18.498 10.808m-8.566-65.477c2.133-14.976-7.581-27.725-21.118-27.725-11.676 0-12.149 3.049-4.077 26.213 6.93 19.872 22.448 20.806 25.195 1.512m-39.576-91.955c21.812-35.339 23.491-55.087 4.91-57.736-11.767-1.675-26.518 14.101-47.502 50.802-9.703 16.979-9.685 17.131 3.245 27.896 7.152 5.956 14.468 10.906 16.256 11.004 1.784.091 12.178-14.286 23.091-31.966m-12.916-23.938c-8.685-10.463-3.078-24.131 9.896-24.131 12.651 0 19.145 14.777 10.874 24.741-7.807 9.406-12.578 9.264-20.77-.61m-534.817 302.071c0-20.202 1.963-26.737 8.021-26.737 5.971 0 8.021-6.305 8.021-24.639 0-19.701-1.603-24.018-8.021-21.558-4.884 1.875-8.021.011-8.021-4.775 0-6.084 7.679-7.854 34.103-7.854 43.232 0 47.084-4.419 45.031-51.656l-1.595-36.577-38.769-1.574-38.77-1.57V315.507h58.354l1.574 38.772 1.57 38.77 104.278 2.671 104.279 2.674 33.27 17.383c30.753 16.063 37.127 17.378 84.226 17.378h50.954v47.818c0 46.757-.491 48.6-21.99 82.888l-21.987 35.07h-29.771c-27.979 0-35.328 3.212-122.224 53.473l-92.449 53.476h-150.084Zm64.172-50.802c0-23.175-.596-24.065-16.044-24.065s-16.042.89-16.042 24.065c0 23.171.593 24.065 16.042 24.065 15.448 0 16.044-.894 16.044-24.065m113.691-65.146c52.666-32.387 57.22-36.465 57.347-51.329.069-8.7-5.582-9.394-65.425-8.02l-65.506 1.501-1.599 36.901c-.88 20.297-.353 40.15 1.166 44.119 5.135 13.381 24.382 7.355 74.017-23.172m-599.072-8.384 1.424-145.722 28.074-1.617 28.078-1.614v294.676h-58.997ZM636.337 625.667v-64.172h144.385v128.344H636.337Zm-433.155 50.802c0-6.461-8.319-8.02-42.781-8.02h-42.782v-96.258h497.327v96.258h-45.452c-36.839 0-45.456 1.519-45.456 8.02 0 4.994-5.052 8.021-13.37 8.021-8.319 0-13.367-3.027-13.367-8.021 0-6.916-18.421-8.02-133.689-8.02-115.272 0-133.69 1.104-133.69 8.02 0 4.994-5.051 8.021-13.37 8.021s-13.37-3.027-13.37-8.021m600.057-54.708 1.548-46.896h235.294v90.909l-119.193 1.439-119.193 1.443Zm683.364 6.581c0-5.509 3.506-8.13 9.357-7.003 11.274 2.17 10.561 11.662-1.053 14.079-4.845 1.01-8.304-1.937-8.304-7.076m219.252-.392c0-4.983 3.638-7.708 8.914-6.687 13.418 2.602 15.26 15.1 2.228 15.1-6.57 0-11.142-3.453-11.142-8.413m-180.669-158.7 1.523-54.814 22.728-1.643 22.728-1.646v112.917h-48.501Zm127.192-1.338v-56.148h48.127v112.3h-48.127ZM21.572 484.204C1.846 460.437-4.783 385.446 3.474 279.412l3.434-44.119h106.216l-3.002 68.181c-1.65 37.501-4.463 95.255-6.247 128.344l-3.242 60.16H64.328c-25.232 0-38.275-2.37-42.756-7.774m614.765-56.398v-64.169h144.385v128.341H636.337Zm-518.718 5.349v-48.127h42.782c34.462 0 42.781-1.563 42.781-8.024 0-4.99 5.051-8.021 13.37-8.021s13.37 3.031 13.37 8.021c0 6.916 18.418 8.024 133.69 8.024 115.268 0 133.689-1.108 133.689-8.024 0-4.99 5.048-8.021 13.367-8.021 8.318 0 13.37 3.031 13.37 8.021 0 6.501 8.617 8.024 45.456 8.024h45.452v96.254H117.619Zm685.62 1.338 1.548-46.794h235.294l1.544 46.794 1.545 46.789H801.695Zm683.051-31.85c-7.217-1.701-8.111-13.926-6.691-91.341l1.647-89.379 29.415-1.602c27.219-1.483 29.418-2.584 29.418-14.704 0-12.658-1.272-13.105-37.432-13.105-21.39 0-37.435-2.289-37.435-5.346 0-3.19 20.5-5.349 50.802-5.349 50.624 0 50.802-.047 50.802-13.367v-13.37h122.994v37.432h-50.802c-50.624 0-50.802.051-50.802 13.37v13.37h77.132c74.732 0 77.629-.421 93.223-13.544 15.503-13.043 18.407-13.487 79.286-12.029l63.195 1.508 1.552 40.913 1.551 40.91-28.288 3.834c-52.782 7.148-73.744 26.122-73.744 66.749 0 37.115-10.474 48.13-45.758 48.13-24.091 0-29.142-1.613-29.288-9.361-.152-7.679-2.173-6.96-11.298 4.012l-11.117 13.37-105.013.429c-57.757.236-108.763-.451-113.349-1.53m35.389-82.299c4.714-7.628-10.891-23.237-18.519-18.524-3.224 1.996-5.862 8.293-5.862 14.003 0 11.36 18.083 14.711 24.381 4.521m172.477-6.251c2.13-11.052-13.308-18.498-21.456-10.35s-.701 23.585 10.35 21.456c5.121-.985 10.122-5.982 11.106-11.106m113.31 56.228c.011-33.409 14.064-60.513 37.424-72.186 21.762-10.869 56.312-12.352 62.406-2.682 2.769 4.394 5.182 1.189 7.036-9.358 2.017-11.462 6.247-16.528 14.82-17.749 16.928-2.413 16.899-26.264-.029-28.67-8.617-1.224-12.516-5.883-13.726-16.415l-1.694-14.704h40.463c23.407 0 40.463 2.253 40.463 5.346 0 3.169 19.5 5.349 47.811 5.349 26.296 0 49.3-2.406 51.118-5.349 1.817-2.94 22.132-5.346 45.147-5.346 40.277 0 41.934.494 44.373 13.243 2.943 15.398.592 18.843-12.872 18.843-6.894 0-9.805 3.968-9.805 13.366 0 10.696 2.674 13.37 13.37 13.37 12.279 0 13.37 1.963 13.37 24.066v24.062H2029.96c-178.288 0-163.675-4.336-163.675 48.566v31.65h-58.823l.011-25.402Zm-1679.151-73.53v-61.498h664.978l178.059-53.476 178.059-53.473h93.539c108.589 0 106.536-1.083 106.536 56.148 0 57.172 1.922 56.151-105.631 56.151h-92.634l-182.13 58.822-182.129 58.823H128.315Zm647.545 27.325c-8.297-10.001-21.874-5.306-21.874 7.563 0 12.541 11.28 16.593 20.929 7.519 6.058-5.695 6.243-8.697.945-15.082m544.967-174.069c0-14.398-10.114-19.228-19.861-9.481-9.747 9.746-4.917 19.86 9.482 19.86 6.708 0 10.379-3.67 10.379-10.379m101.607 138.723v-58.822h48.127v117.645h-48.127Zm-18.719 13.159c-9.416-13.944-11.121-28.277-14.279-120.112-1.973-57.351-5.197-116.667-7.166-131.807-4.263-32.813 2.95-50.01 20.979-50.01 20.323 0 25.967 11.924 22.056 46.612-1.919 17.011-5.153 84.977-7.188 151.043l-3.707 120.112Zm794.117-47.92v-56.147h133.37l11.677-15.794c9.227-12.484 13.664-14.726 21.176-10.707 5.226 2.799 10.27 10.507 11.211 17.128 1.378 9.696 6.055 12.625 23.975 15.017 12.247 1.635 25.534 5.683 29.528 9.001 4.597 3.813 41.923 6.647 101.651 7.723 92.147 1.653 94.731 2.013 108.861 15.063 16.633 15.362 29.138 41.684 29.138 61.327v13.541h-470.587Zm397.272-2.671c-2.689-10.288-7.294-10.695-120.265-10.695-91.592 0-116.98 1.472-115.254 6.683 2.141 6.469 57.979 10.423 192.025 13.606 43.912 1.043 46.147.549 43.494-9.594M1465.212 163.93c0-3.954 4.401-11.175 9.779-16.042 8.221-7.439 23.088-8.852 93.267-8.852 49.894 0 84.818 2.155 86.795 5.349 2.111 3.416-14.206 5.346-45.14 5.346-44.878 0-48.443.789-48.443 10.695 0 9.903-3.565 10.696-48.127 10.696-36.753 0-48.131-1.701-48.131-7.192"/></svg>