<svg xmlns="http://www.w3.org/2000/svg" width="5231.42" height="1000" viewBox="0 0 5231.42 1000"><path d="M3885.023 194.62H3763.07l-255.983 391.222h121.952Zm182.327 0h-121.953l-255.983 390.014h121.953Zm184.742 0h-121.953l-246.324 385.181h121.953Zm191.986 0h-121.952l-251.154 379.148h121.957Zm185.954 0h-121.957l-246.324 380.355h121.957Zm195.608-.008-121.956.008-238.48 370.716h121.957Zm-3483.064-51.655L1079.6 288.122c-26.491 17.75-16.694 37.053 0 40.979 317.168 104.757 668.593 125.769 1026.274 131.49 26.357.235 40.688-13.508 40.979-29.042 1.714-110.945 51.802-199.896 102.464-288.592Zm12.564 34.079h842.773c-45.18 66.861-72.748 140.744-74.28 224.38-.259 11.709-13.042 22.066-36.546 21.895-318.976-4.311-657.144-26.988-939.986-105.956-14.89-2.962-23.625-17.52 0-30.902ZM1171.245 72.664H970.803L0 495.278C677.216 800.433 1352.94 918.516 2093.748 1000c105.47-81.35 207.35-153.718 287.376-171.46-110.9-70.107-163.167-257.754-316.354-255.984-445.604-21.506-894.996-33.864-1265.428-236.664L125.579 478.374l668.934-166.631ZM2680.748.049c-75.289-.689-147.944 5.798-210.264 24.314-141.911 55.246-304.336 48.957-463.67 51.927h-761.909L837.98 317.789c359.026 146.489 751.836 227.297 1192.764 214.522 99.198-5.097 173.445 25.586 220.279 95.62 73.47 113.57 192.262 205.3 256.145 230.53 115.701 39.241 227.127 31.417 336.406 0 39.083-12.373 202.298-63.899 276.619-104.169 64.049-38.362 121.203-58.333 170.763-58.061l1581.251-56.343c46.27-.657 91.633-5.178 126.709-52.851l202.845-284.961c25.437-44.273 46.822-88.534 9.663-132.807-23.05-24.882-46.112-41.514-84.531-43.483l-1376.509-28.97-569.922-31.405C3082.69 50.501 2873.156 1.816 2680.748.049m-90.159 66.213c10.494.093 21.162.608 32.029 1.564l292.206 16.912c111.288 9.935 213.266 35.003 270.468 132.827 65.159-35.343 149.763 139.42 68.838 169.042 27.313 120.368-12.52 202.363-97.808 258.39l-328.444 164.232c-144.039 73.389-285.946 42.555-369.472-31.405l-127.998-130.412c-161.854-172.603-102.058-382.818 0-480.558 71.59-60.699 152.88-98.797 249.736-100.539q5.192-.1 10.445-.053m-1248.013 49.391h882.828c54.212-1.297 89.012 28.252 40.983 71.723-63.782 69.455-76.914 162.109-87.087 256.129-3.246 39.099-45.688 49.305-81.958 47.81-349.777-20.323-702.936-4.894-1042.02-138.528-62.312-27.511-49.84-57.895 6.049-89.952Zm2265.143 37.555 1327.678 8.553c42.685-.336 262.819 14.598 182.704 148.552L4939.672 558.78c-14.834 17.528-35.692 27.917-74.292 29.023l-1168.871 30.744c-1.953 27.366 6.879 48.661-44.387 53.787l-147.701 1.754c-43.212.628-55.63-30.55-57.21-55.541h-78.555c-97.585 2.241-103.112-39.18-62.319-97.338l203.193-314.194c22.127-41.79 57.968-52.737 98.189-53.803Zm84.714 41.412H3570.48l-255.983 398.462h121.952Zm1308.829-.085c-.782.013-1.568.033-2.346.069h-96.159l-239.534 364.663h169.062c40.343-5.948 80.645-12.002 109.871-57.96l138.856-204.065c32.174-46.072-30.291-103.318-79.75-102.707m35.298 43.658c21.288.101 30.214 26.178.989 62.684L4911.97 483.2c-34.322 42.17-84.296 7.629-51.91-35.019l130.392-178.705c16.106-22.029 33.333-31.336 46.104-31.283ZM3487.165 618.555h172.064c1.163 12.338-.92 24.234-21.134 26.45h-129.197c-16.811-.802-21.944-12.038-21.733-26.45M3197.37 244.124c22.548-9.092 72.205 83.275 51.923 101.427-11.313-35.521-29.351-69.122-51.923-101.427m-63.511-.405 20.494-10.247c-86.144-116.3-201.257-118.346-315.604-123.374h-268.066c-76.743-3.683-164.536 24.01-220.952 88.145-86.127 96.005-83.234 293.607-30.189 363.447 65.67 97.443 150.484 173.008 249.946 231.831 50.703 24.229 171.412 17.835 216.139 0l351.372-178.705c80.374-48.682 95.094-129.315 88.145-218.55l-26.567 15.697c16.021 75.929-1.227 145.343-67.615 191.986l-345.335 178.705c-46.121 18.366-153.419 26.101-208.895 0-97.115-56.323-174.86-127.119-237.868-224.587-45.031-63.247-60.245-230.927 25.356-340.506 54.759-69.341 124.375-95.973 206.463-97.804h268.066c108.893 7.65 222.273 12.844 295.11 123.962m-538.874-109.558c-88.825-1.285-159.107 44.366-204.794 92.476-48.977 52.644-70.025 177.214-58.061 225.421 54.698 172.036 142.742 214.393 223.699 280.043 65.318 48.199 180.156 40.201 238.213 13.658l292.854-144.298c65.451-38.422 95.636-98.465 90.507-180.147l-35.003.851c-2.832-52.51-18.646-104.295-62.335-154.533l30.74-17.937c-48.459-67.311-147.219-102.929-215.15-105.02L2603.64 134.44c-2.901-.133-5.79-.235-8.655-.271Zm-11 42.352 299.438 13.278c98.234 5.008 188.96 61.035 225.802 170.245 51.558 131.109-18.529 209.558-99.008 242.714l-164.212 78.481c-105 53.41-162.259 44.594-251.158 7.249-135.918-58.008-197.435-195.309-199.234-275.318 6.661-148.22 72.25-223.643 188.372-236.649"/></svg>