<svg xmlns="http://www.w3.org/2000/svg" width="3612.577" height="1000" viewBox="0 0 3612.577 1000"><path d="M2626.819 995.806c-5.495-2.217-7.911-20.351-7.911-59.378 0-48.117-1.825-57.889-12.713-68.032-9.783-9.114-11.782-16.499-8.667-32.057 4.666-23.338 3.452-23.436 79.882 6.567 26.951 10.583 52.637 17.848 57.078 16.143 7.472-2.867 162.901-363.419 162.901-377.887 0-3.677-15.964-6.479-36.941-6.479h-36.941l-71.804 167.992-71.803 167.996-38.406-1.857-38.41-1.853v-31.526c0-29.045 1.2-31.534 15.224-31.647 13.839-.109 20.475-12.737 72.785-138.552l57.561-138.432 88.15 1.094c86.937 1.075 88.612 1.366 121.835 21.238 44.384 26.547 43.698 36.508-.763 11.069-31.969-18.29-34.88-18.894-40.401-8.376-24.708 47.084-171.405 402.726-168.232 407.857 2.213 3.58 14.769 11.237 27.907 17.019 21.296 9.369 23.269 12.131 18.2 25.476-4.449 11.709-9.177 14.296-21.736 11.898-13.556-2.591-17.989.738-28.547 21.427L2732.573 1000l-48.923-.502c-26.907-.272-52.481-1.937-56.831-3.692m98.667-37.243c4.042-8.867 7.345-17.142 7.345-18.392 0-3.184-82.459-41.437-89.317-41.437-3.092 0-5.618 17.088-5.618 37.974v37.973h40.121c36.854 0 40.724-1.312 47.469-16.118m56.395-51.652c-13.054-5.244-23.734-12.363-23.734-15.823 0-3.456 31.163-80.762 69.252-171.79 85.25-203.738 94.921-225.627 99.685-225.627 2.086 0 16.158 7.824 31.279 17.393 20.032 12.672 26.537 20.399 23.971 28.481-4.364 13.748-.251 13.93 19.708.865 19.712-12.916 20.337-2.762.952 15.449-8.456 7.944-22.84 13.762-34.03 13.762-22.295 0-12.792-18.628-103.344 202.532-32.072 78.32-58.688 142.826-59.157 143.346-.465.519-11.528-3.347-24.582-8.588m-90.189-71.469c-13.922-6.447-20.663-11.931-14.98-12.189 7.062-.32 21.315-26.061 44.94-81.165 32.076-74.81 35.939-80.846 52.954-82.765 26.78-3.02 34.684-13.755 10.125-13.755-22.26 0-23.299-1.468-13.701-19.403 4.542-8.486 13.279-12.243 28.481-12.243 12.061 0 21.928-2.846 21.928-6.327 0-3.482-8.544-6.331-18.988-6.331-21.576 0-21.587-.022-11.641-21.852 5.306-11.648 12.226-16.121 24.942-16.121 9.681 0 19.359-2.85 21.51-6.331 2.279-3.689-4.11-6.327-15.314-6.327-18.211 0-18.843-.836-12.015-15.823 5.593-12.28 11.942-15.823 28.347-15.823 11.622 0 21.132-2.85 21.132-6.331 0-3.478-7.119-6.327-15.819-6.327-9.849 0-15.823-3.587-15.823-9.493 0-6.857 7.032-9.496 25.315-9.496 15.834 0 25.316 2.922 25.316 7.799 0 9.445-130.822 318.6-143.335 338.722-10.408 16.739-10.615 16.746-43.374 1.581m-191.254-29.441c-4.241-1.719-9.406-13.599-11.473-26.398-2.068-12.803-16.721-52.303-32.562-87.779-24.451-54.76-31.676-65.506-47.83-71.135-14.253-4.968-18.236-9.646-15.881-18.647 1.799-6.883-2.962-19.668-11.153-29.942l-14.297-17.927-35.462 23.545c-33.307 22.114-38.449 23.546-84.61 23.535l-49.149-.014-53.284-71.19c-29.309-39.154-60.457-79.021-69.223-88.593l-15.936-17.404h98.911c59.117 0 100.488 2.543 102.825 6.327 4.939 7.991 49.243 8.318 57.278.421 9.183-9.023 114.73-14.337 304.738-15.336 128.261-.676 174.167-2.925 180.066-8.82 11.523-11.513 77.789-10.317 87.663 1.584 5.905 7.113 21.75 9.493 63.238 9.493h55.359l3.925 23.735c4.72 28.557 5.258 64.873.959 64.873-1.704 0-23.091-12.818-47.531-28.481l-44.435-28.481h-181.726l-13.882 33.227c-7.636 18.276-33.907 82.194-58.383 142.041-40.808 99.794-45.892 108.974-61.327 110.758-15.783 1.828-16.946 4.212-18.726 38.341l-1.897 36.392-39.242-.501c-21.583-.273-42.712-1.905-46.953-3.624m45.118-31.486c4.582-11.949-6.44-27.681-19.392-27.681-10.779 0-17.575 15.416-12.563 28.481 4.869 12.683 26.994 12.127 31.955-.804Zm56.038-192.708c9.755-4.445 25.207-27.496 44.602-66.542 16.321-32.856 29.673-62.547 29.673-65.981 0-3.744-29.007-6.248-72.425-6.248-67.668 0-73.072.927-82.277 14.068-5.419 7.737-9.823 19.843-9.787 26.9.095 18.164 60.516 103.49 74.002 104.508.705.054 8.003-2.966 16.212-6.705m-295.605-22.078c8.409-6.77 9.87-10.906 4.622-13.105-4.706-1.973-6.301-10.026-4.132-20.878 2.122-10.597-.734-25.922-7.137-38.304l-10.674-20.638-64.31 4.528c-35.371 2.489-65.378 5.571-66.687 6.843-1.304 1.272 12.495 22.368 30.665 46.881l33.038 44.565h36.164c23.335 0 40.524-3.51 48.451-9.892m1042.486 223.497c1.69-4.35 47.564-112.382 101.942-240.072 54.378-127.686 98.871-236.627 98.871-242.086 0-6.302 5.629-9.928 15.409-9.928 20.438 0 47.88 10.735 47.88 18.73 0 3.511-39.874 97.014-88.608 207.779-48.734 110.769-88.605 203.379-88.605 205.799s3.558 4.415 7.912 4.434c18.763.083 54.4 13.602 57.558 21.837 1.893 4.932-2.301 16.267-9.322 25.192-12.258 15.583-15.416 16.227-79.439 16.227-50.758 0-65.938-1.886-63.598-7.912m-164.587-12.658c-13.105-16.749-13.813-38.929-1.853-58.273 12.766-20.66 71.593-162.418 99.136-238.902 9.143-25.4 22.99-52.096 30.763-59.328s17.502-23.36 21.623-35.84l7.487-22.692 57.063 19.138c46.263 15.518 56.315 21.1 53.124 29.513-2.166 5.705-22.997 54.944-46.292 109.42l-42.359 99.049-31.647 4.122c-20.885 2.722-35.026 8.511-41.596 17.026-5.47 7.097-19.683 14.896-31.577 17.331-18.92 3.867-22.107 7.363-25.443 27.888-2.097 12.909-8.537 28.688-14.308 35.063-16.161 17.862-13.548 31.581 5.332 27.972 12.846-2.457 15.819-.505 15.819 10.372 0 9.645-3.987 13.421-14.239 13.493-11.516.08-12.425 1.269-4.746 6.233 7.247 4.681 4.808 6.156-10.303 6.229-10.884.051-22.579-3.463-25.984-7.814m187.563-259.42c22.084-53.048 41.374-99.634 42.868-103.526 3.478-9.064-34.855-25.367-41.647-17.713-7.697 8.667-69.42 168.505-70.619 182.874-2.355 28.183.465 34.812 14.82 34.812 12.625 0 19.435-12.033 54.578-96.447m-129.126 261.005c6.963-2.995 21.431-5.64 32.155-5.887 15.562-.357 23.542-6.08 39.558-28.376 11.033-15.365 20.061-32.653 20.061-38.417 0-5.767 8.525-22.877 18.945-38.024 10.422-15.143 40.622-76.891 67.112-137.215s49.275-111.517 50.638-113.763c1.359-2.25-2.806-10.612-9.26-18.582-11.491-14.195-11.422-15.176 3.303-47.342 8.268-18.065 13.363-37.21 11.314-42.549-5.717-14.9-38.984-25.86-73.676-24.279-30.825 1.406-31.275 1.155-29.273-16.256 1.341-11.637 6.305-18.494 14.53-20.057 18.977-3.605 123.735 31.872 130.295 44.126 8.54 15.958-2.162 44.911-97.581 263.956-47.491 109.025-86.347 200.547-86.347 203.386 0 13.315-33.067 25.584-67.817 25.163-26.308-.32-33.053-1.977-23.957-5.884m-.407-34.543c-12.785-13.915-12.821-14.667-1.581-35.625 6.317-11.775 11.484-25.083 11.484-29.575 0-4.496 8.737-9.918 19.414-12.055 10.681-2.133 23.826-10.608 29.211-18.828 7.512-11.462 15.522-14.944 34.38-14.944 13.526 0 24.588 2.286 24.588 5.088 0 2.798-9.543 14.337-21.209 25.646-16.066 15.569-20.475 24.422-18.167 36.483 2.279 11.921-2.253 21.395-18.003 37.647-24.04 24.799-41.357 26.576-60.113 6.163Zm-63.597-103.115c47.803-160.245 61.413-211.417 62.587-235.337l1.417-28.906-80.162-5.63c-44.086-3.096-84.672-3.896-90.189-1.781-8.511 3.268-10.03 17.688-10.03 95.393 0 87.097-.636 91.748-13.134 95.713-7.225 2.293-14.787 2.519-16.808.498s-5.924-45.209-8.678-95.978c-2.751-50.765-8.348-102.778-12.436-115.577-7.196-22.532-67.359-108.712-75.896-108.712-2.319 0-15.049 8.609-28.288 19.13-41.942 33.329-74.566 34.252-77.695 2.195-1.911-19.603 12.861-34.354 21.082-21.049 5.993 9.696 21.147 7.05 40.175-7.021 16.271-12.029 23.441-12.763 89.935-9.206 116.104 6.208 283.693 6.876 333.328 1.327l45.885-5.131v29.803c0 23.204-6.152 41.164-27.776 81.082-15.278 28.201-41.124 88.299-57.441 133.552-48.898 135.612-72.665 186.708-86.846 186.708-8.787 0-11.385-3.184-9.03-11.073m-26.185-5.775c-4.353-1.755-7.911-6.669-7.911-10.913s-17.041-19.737-37.864-34.423l-37.861-26.7 3.936-39.42c2.169-21.678 4.63-40.266 5.473-41.309.847-1.04 19.504 9.47 41.469 23.356 21.961 13.89 41.884 24.044 44.268 22.572 2.384-1.475 7.486-15.18 11.331-30.454s8.773-32.413 10.95-38.082c3.478-9.06-3.024-10.311-53.684-10.311-53.418 0-57.638-.926-57.638-12.657 0-11.953 4.22-12.658 75.947-12.658 56.54 0 75.95 2.02 75.95 7.911 0 4.351-11.767 46.361-26.151 93.355-14.381 46.993-27.529 91.849-29.219 99.685-3.132 14.551-5.168 15.626-18.996 10.048m-1079.497-86.082-49.431-24.909-157.952-.072-157.951-.077 2.362-23.033 2.362-23.03 177.035-1.679 177.03-1.679 42.465 50.73c36.458 43.551 40.419 50.583 27.991 49.693-7.963-.567-36.72-12.243-63.911-25.944M218.365 521.396c-2.485-2.486-4.517-38.286-4.517-79.559v-75.042l-14.987 9.82c-12.142 7.955-32.257 9.485-106.012 8.057-85.53-1.654-91.134-2.526-92.806-14.42-.977-6.96 14.686-53.953 34.812-104.428l36.589-91.773 39.02-1.872c24.468-1.17 41.869-5.302 46.662-11.073 5.331-6.429 20.82-9.209 51.314-9.209h43.672l-10.306 17.407-10.307 17.404 13.854-17.404c12.716-15.975 17.451-17.407 57.63-17.407 30.767 0 43.795 2.351 43.839 7.911.033 4.354-14.918 40.445-33.227 80.203l-33.293 72.29-3.794-34.313c-3.191-28.852-1.759-36.582 8.991-48.535 19.577-21.765 6.792-25.293-15.612-4.31l-19.781 18.527 4.143-17.404c3.118-13.094 1.792-17.404-5.349-17.404-5.223 0-11.281 7.12-13.465 15.82-4.263 16.982-12.436 20.78-17.03 7.911-1.555-4.35-5.102-5.785-7.882-3.19-2.784 2.598-1.65 12.21 2.522 21.361 6.658 14.617 10.285 16.201 29.818 13.032l22.238-3.609-3.711 130.983-3.714 130.982-17.393 1.882c-9.569 1.036-19.432-.152-21.918-2.638m-10.848-173.295c0-3.481-11.694-6.33-25.991-6.33-18.254 0-25.058-2.355-22.848-7.912 1.733-4.35 14.973-37.457 29.422-73.573 14.453-36.117 24.803-67.138 23.004-68.933-7.039-7.043-63.085 141.009-58.197 153.747 4.085 10.644 54.61 13.424 54.61 3.001m-67.493-77.531c19.831-49.475 20.976-55.381 10.746-55.381-8.391 0-16.895 13.512-31.842 50.591-11.375 28.223-18.596 55.272-16.325 61.185 5.974 15.569 12.541 5.673 37.421-56.395m-45.115 1.37c9.471-25.66 15.736-48.138 13.923-49.951s-10.739.897-19.835 6.029c-21.453 12.094-46.398 80.315-32.566 89.066 15.038 9.518 20.795 2.765 38.478-45.144m156.912 16.034c0-10.223-28.375-13.577-34.262-4.048-5.005 8.093 2.838 13.541 19.493 13.541 8.911 0 14.769-3.765 14.769-9.493M1438.53 449.12c-122.628-89.967-134.253-101.447-126.167-124.575 7.955-22.757 34.473-26.995 52.997-8.471 11.629 11.625 20.783 13.039 84.403 13.039h71.36l46.885 47.197 46.88 47.196 38.402 1.854 38.402 1.857 1.861 45.885 1.857 45.885-80.972-.106-80.973-.105-94.939-69.652Zm193.039 23.749c0-18.628-6.585-26.249-63.104-73.043l-63.103-52.244-52.405 1.842c-50.031 1.759-52.4 2.504-52.4 16.496 0 11.375 16.978 27.234 75.946 70.935l75.95 56.286 39.558.265 39.558.265Zm-149.92-47.24c-38.94-30.091-69.39-56.998-67.664-59.789 1.73-2.795 23.182-5.081 47.676-5.081h44.537l53.175 45.885c37.29 32.18 53.178 50.14 53.189 60.127.015 12.818-2.983 14.21-30.047 13.908-27.885-.309-35.193-4.299-100.866-55.05m225.867 14.133V423.83l155.879 1.693c153.74 1.668 156.008 1.887 165.329 15.933l9.449 14.242h-330.657Zm335.443.109c-11.131-11.851-12.45-15.823-5.248-15.823 9.402 0 30.564 18.97 30.564 27.398 0 8.74-10.925 3.743-25.316-11.575m-466.429-68.039-45.231-45.884 9.674-23.735 9.671-23.735h308.612l22.31 44.304c20.733 41.172 23.76 44.301 42.803 44.25 18.709-.051 22.692-3.9 45.805-44.25l25.316-44.191 151.057-.055c167.72-.061 154.841-4.001 136.426 41.731-15.063 37.41-9.023 40.492 79.407 40.492h79.312v52.597l-91.77-4.168c-59.949-2.726-91.774-1.966-91.774 2.18 0 4.165-109.533 6.353-318.195 6.353h-318.196Zm117.775 5.553c10.474-15.219 17.255-29.462 15.071-31.646-6.338-6.334-103.126-4.583-103.126 1.868 0 6.36 57.343 57.347 64.571 57.412 2.443.026 13.011-12.41 23.484-27.634m-47.643 1.276c-10.042-7.555-20.966-16.099-24.273-18.985s13.265-5.248 36.825-5.248h42.836l-13.519 18.989c-16.14 22.666-18.356 22.942-41.869 5.248Zm152.979 19.501c4.151-6.716-39.07-56.391-49.064-56.391-7.966 0-43.192 51.626-39.405 57.754 4.96 8.028 83.411 6.821 88.469-1.363m-72.995-10.507c.072-2.609 5.658-11.865 12.4-20.569l12.261-15.823 20.704 20.569 20.704 20.57h-33.104c-18.211 0-33.045-2.134-32.965-4.747m135.169-5.433c29.229-36.632 26.315-43.304-19.887-45.503-49.689-2.362-55.468 6.851-26.914 42.901 11.08 13.992 22.045 25.443 24.363 25.443 2.319 0 12.415-10.277 22.438-22.841m-39.74-9.303c-7.926-10.717-13.039-20.853-11.364-22.525 1.672-1.675 16.212-2.162 32.311-1.086l29.274 1.959-14.352 20.46c-7.893 11.251-15.95 20.508-17.909 20.569-1.955.058-10.037-8.66-17.96-19.377m632.278 7.505c0-16.63-3.256-25.89-10.012-28.481-5.506-2.115-43.955-3.842-85.443-3.842-84.832 0-85.232-.283-62.645-44.558l12.785-25.061h137.571l26.671-42.542c21.776-34.724 25.381-44.605 19.642-53.796-6.588-10.546-2.431-11.259 65.808-11.259 62.678 0 72.835 1.418 72.835 10.172 0 6.593 3.456 8.842 9.823 6.4 11.324-4.343 9.878-1.45-20.569 41.146-25.653 35.891-26.1 43.548-2.544 43.548 16.063 0 22.416 6.4 50.9 51.267 17.902 28.198 37.029 58.099 42.502 66.454l9.954 15.191h-267.278Zm94.935-112.721c0-6.502-39.216-52.514-44.755-52.514-5.069 0-37.522 46.02-37.522 53.208 0 1.555 4.681 3.747 10.401 4.873 14.405 2.835 71.876-1.617 71.876-5.567m-56.962-20.867c7.436-10.445 14.555-18.989 15.823-18.989 1.265 0 8.388 8.544 15.823 18.989l13.52 18.984h-58.685Zm109.566-.109c9.791-13.832 16.031-28.013 13.868-31.509-5.484-8.874-72.803-8.231-72.803.691 0 11.858 27.217 56.253 34.394 56.108 3.71-.073 14.755-11.455 24.541-25.29m-36.468-1.69c-14.806-22.594-11.194-27.264 18.2-23.521l24.843 3.166-16.023 18.57-16.023 18.567Zm129.434 88.611c-38.689-57.863-50.628-71.356-64.557-72.963l-17.092-1.973 29.313-40.75c16.125-22.412 32.948-40.746 37.389-40.746 4.444 0 38.104 13.225 74.801 29.389l66.727 29.394v53.934l26.9-3.144c14.955-1.744 38.922-11.313 53.982-21.546 14.896-10.125 29.24-18.407 31.875-18.407 6.829 0 47.996 56.34 63.787 87.292 7.33 14.369 13.33 36.207 13.33 48.531v22.404h-53.022c-39.409 0-55.047-2.438-60.902-9.496-5.683-6.843-20.714-9.492-53.894-9.492-35.066 0-46.884 2.26-49.661 9.492-2.373 6.185-11.993 9.423-27.576 9.285-23.382-.207-25.021-1.839-71.4-71.204m82.953 14.453c3.282 0 8.82-7.504 12.309-16.677 7.97-20.962-6.821-46.615-26.871-46.615-17.193 0-36.745 17.364-36.745 32.627 0 15.82 24.029 38.842 35.815 34.318 5.236-2.01 12.21-3.653 15.492-3.653m-29.571-15.343c-12.603-9.216-8.791-27.042 7.09-33.136 13.101-5.026 29.742 11.611 24.712 24.712-5.52 14.391-18.821 17.916-31.802 8.424m21.362-14.722c-2.57-13.341-13.803-12.498-16.663 1.25-1.196 5.735 2.293 9.827 8.373 9.827 6.52 0 9.623-4.147 8.29-11.077m305.003 71.204v-15.823h158.228v31.646h-158.228Zm237.707 0c1.984-10.445 14.06-36.476 26.835-57.849 23.011-38.5 23.542-38.896 57.426-42.879 36.789-4.321 64.107 6.407 64.107 25.178 0 12.799-24.185 59.727-30.785 59.727-2.864 0-21.765-5.695-42-12.658s-40.263-12.658-44.504-12.658c-4.244 0-13.78 13.527-21.201 30.062-9.904 22.081-12.527 25.021-9.878 11.077M430.618 374.889c-148.23-1.639-153.481-2.126-153.481-14.243 0-6.901 2.235-12.545 4.964-12.545 2.733 0 9.827-8.231 15.769-18.29 10.314-17.455 40.35-27.805 60.854-20.969 10.274 3.423 8.576 13.944-2.25 13.944-7.57 0-22.375 17.702-22.375 26.758 0 1.25 27.107 2.966 60.239 3.812l60.237 1.538 20.46-21.616c20.856-22.038 57.63-34.692 65.2-22.438 2.254 3.645-1.908 10.834-9.245 15.972-14.595 10.223-18.04 27.675-5.433 27.522 12.643-.156 21.685-8.304 26.569-23.942 6.32-20.249-6.356-32.925-32.925-32.925-17.19 0-26.94 5.015-43.105 22.153-19.715 20.904-23.211 22.151-62.057 22.151h-41.16l-1.984-20.57c-1.861-19.301-3.638-20.689-28.848-22.513-22.619-1.636-29.506.865-43.552 15.823l-16.688 17.767 9.619-18.988c5.295-10.441 13.996-29.499 19.341-42.353 9.282-22.306 10.55-23.048 28.067-16.437 29.538 11.15 50.046 1.857 72.836-32.998l20.533-31.403 46.048-.113 46.049-.112-9.656 18.672c-13 25.138-12.16 36.505 3.314 44.787 25.192 13.48 45.503 4.914 71.666-30.232l24.737-33.227h40.924c36.593 0 40.42 1.174 36.124 11.077-2.646 6.091-6.094 20.202-7.668 31.359-2.486 17.636-.709 20.824 13.624 24.418 28.812 7.232 47.099-2.141 68.733-35.226 17.778-27.187 23.364-31.417 41.629-31.516 11.604-.061 20.134 2.025 18.953 4.634s-10.009 19.701-19.621 37.973l-17.477 33.231h-76.066c-58.38 0-79.581 2.304-91.192 9.91-17.793 11.659-28.732 39.424-28.732 72.938 0 13.199-2.133 24.879-4.746 25.955-2.61 1.076-73.814 1.192-158.228.262m173.15-13.032c-1.781-2.875-1.614-11.423.363-18.985 3.565-13.643 4.888-13.759 155.088-13.759h151.49l6.617-18.985c3.642-10.445 10.045-18.988 14.228-18.988 11.19 0 22.797 13.533 22.797 26.58 0 10.383 7.243 11.393 81.594 11.393h81.591l4.041-16.092c2.22-8.853 8.264-17.717 13.424-19.697 12.255-4.703 28.212 8.816 28.212 23.905 0 10.874 5.666 11.884 66.611 11.884 65.684 0 66.701.225 72.785 16.234 3.398 8.929 6.174 17.476 6.174 18.988 0 5.211-701.788 2.748-705.015-2.478m344.256-48.567c0-5.273-5.626-9.493-12.658-9.493s-12.657 4.22-12.657 9.493c0 5.277 5.625 9.496 12.657 9.496s12.658-4.219 12.658-9.496m202.532 0c0-5.219-4.274-9.493-9.493-9.493-5.222 0-9.496 4.274-9.496 9.493 0 5.222 4.274 9.496 9.496 9.496 5.219 0 9.493-4.274 9.493-9.496m761.272 33.227c-3.354-4.35-15.307-24.287-26.559-44.301l-20.453-36.392H807.647l21.711-39.558 21.71-39.558h758.921c555.016 0 760.96-1.918 766.517-7.144 4.179-3.929 27.456-7.334 51.732-7.559 62.133-.585 67.272 7.442 34.913 54.523l-24.828 36.131-227.746 1.686-227.745 1.686-24.105 44.199c-23.677 43.421-34.779 52.008-46.899 36.287m-862.124-93.576c14.824-7.93 15.689-20.744 2.311-34.121-7.5-7.497-12.93-8.33-22.153-3.394-19.28 10.317-15.689 38.245 5.604 43.569 1.097.273 7.508-2.449 14.238-6.054m-19.043-5.884c-10.702-6.614-4.081-25.537 8.937-25.537 5.374 0 9.692 5.469 9.692 12.283 0 15.075-7.29 20.261-18.629 13.254m236.518 2.504c13.599-13.599 2.272-34.372-18.745-34.372-8.58 0-15.601 1.192-15.601 2.646 0 1.457-1.588 6.785-3.529 11.844-3.503 9.129 12.12 29.814 22.517 29.814 2.984 0 9.896-4.47 15.358-9.932m-24.232-1.054c-2.083-2.078-3.783-9.212-3.783-15.848 0-14.875 21.052-12.785 23.971 2.376 1.987 10.318-13.207 20.457-20.188 13.472m334.371 1.04c11.346-11.346 11.244-10.946 6.106-24.346-5.379-14.009-32.341-12.53-40.23 2.206-4.936 9.224-4.103 14.657 3.394 22.154 12.48 12.476 18.24 12.476 30.73-.014m-21.343-2.49c-10.699-6.614-4.078-25.537 8.94-25.537 5.371 0 9.692 5.473 9.692 12.283 0 15.075-7.294 20.261-18.632 13.254m322.175 3.246c13.181-15.878 5.35-31.948-15.569-31.948-13.079 0-19.482 3.47-21.005 11.378-2.515 13.05 9.282 29.76 21.005 29.76 4.369 0 11.375-4.135 15.569-9.19m-25.599-7.276c-5.622-6.778-5.869-11.306-.887-16.288 8.741-8.74 26.741-2.192 26.741 9.728 0 13.189-16.812 17.455-25.854 6.56m369.95-3.87 11.818-14.475-48.21-1.846c-26.519-1.018-48.211-4.579-48.211-7.912 0-3.525-31.516-6.062-75.274-6.062-62.799 0-75.907 1.657-79.112 10.009-6.277 16.353-4.394 33.041 4.066 36.076 4.354 1.559 56.33 1.901 115.508.76 103.189-1.992 108.08-2.672 119.415-16.55m-229.032-6.564c1.915-13.49 5.222-14.333 62.777-16.037 48.468-1.436 62.38.16 68.812 7.911 5.572 6.713 19.541 9.711 45.26 9.711 20.58 0 37.199 2.827 37.199 6.327 0 3.972-40.233 6.331-108.036 6.331h-108.036ZM606.453 318.036c.356-8.37 15.206-24.607 29.448-32.191 18.818-10.023 894.402-10.63 894.402-.618 0 3.71-2.951 12.254-6.552 18.988-5.858 10.943-13.806 12.24-74.969 12.24-60.378 0-69.761-1.486-79.872-12.658-6.301-6.963-19.355-12.657-29.011-12.657-17.121 0-37.447 13.987-37.447 25.769 0 3.235-29.244 5.877-65.065 5.877h-65.07l-7.167-18.989c-4.699-12.447-11.56-18.988-19.922-18.988-14.798 0-32.646 15.819-32.646 28.935 0 7.334-14.347 9.042-75.95 9.042-68.918 0-75.95-1.054-75.95-11.393 0-30.113-33.598-35.31-49.345-7.636l-10.782 18.949-128.162.043c-109.723.033-128.166-1.326-128.166-9.456 0-5.273-5.626-9.492-12.658-9.492s-12.658 4.219-12.658 9.492c0 5.223-2.849 9.496-6.331 9.496-3.481 0-6.236-2.136-6.127-4.746Zm-270.421-75.3c-2.202-5.734-.443-19.261 3.907-30.062 4.346-10.8 9.34-25.333 11.091-32.293 7.476-29.716 7.995-30.359 17.957-22.092 5.178 4.3 9.416 13.167 9.416 19.701 0 9.485 4.731 11.884 23.418 11.884 23.884 0 23.03 9.281-1.264 13.762-8.628 1.592-12.658 7.334-12.658 18.022 0 8.624-2.304 19.243-5.121 23.597-7.617 11.763-41.974 9.917-46.746-2.519m182.169 1.607c-5.629-6.782-4.804-14.101 3.562-31.647 10.677-22.386 11.597-22.822 48.062-22.822 23.171 0 35.702 2.384 33.263 6.327-2.151 3.481-11.222 6.331-20.151 6.331-14.646 0-15.871 1.853-12.469 18.861 2.907 14.529 1.003 20.347-8.286 25.319-16.873 9.027-35.346 8.035-43.981-2.369m181.407 4.459c-13.628-3.562-14.061-15.816-1.421-40.256 8.929-17.266 12.298-18.672 44.678-18.672 21.736 0 33.536 2.402 31.108 6.327-2.151 3.481-9.136 6.331-15.517 6.331-13.603 0-22.529 18.279-13.392 27.419 4.204 4.205 2.685 9.078-4.539 14.562-11.055 8.403-21.14 9.456-40.917 4.289m1159.808-83.866c0-9.976 31.835-12.549 151.897-12.283 121.621.269 164.558 3.278 164.558 11.535 0 2.667-71.204 5.207-158.227 5.651-90.269.454-158.228-1.65-158.228-4.903m395.567-25.697-31.166-31.643h203.872c112.132 0 203.876 1.563 203.876 3.478 0 1.912-4.342 11.88-9.656 22.151-7.268 14.056-14.118 18.672-27.706 18.672-9.925 0-21.595-4.27-25.927-9.493-6.45-7.773-27.823-9.492-117.866-9.492-60.491 0-109.984 2.5-109.984 5.553 0 3.056 4.274 9.1 9.496 13.432 17.037 14.14 10.106 18.988-27.136 18.988-35.582 0-37.523-.905-67.803-31.646m-72.785-25.922c0-3.816 4.478-22.329 9.943-41.139l9.943-34.205h330.356l33.645-18.985C2593.13 3.725 2607.195 0 2637.798 0c22.245 0 38.071 2.747 38.071 6.611 0 3.637-4.619 24.995-10.263 47.469l-10.262 40.855h-220.528c-214.048 0-220.724.374-227.299 12.661-7.163 13.381-25.319 17.484-25.319 5.721"/></svg>