<svg xmlns="http://www.w3.org/2000/svg" width="2805.945" height="1000" viewBox="0 0 2805.945 1000"><path d="M2083.887 940.941c-26.7-32.478-60.462-72.908-75.02-89.84-21.184-24.628-25.036-32.522-19.261-39.477 9.874-11.899 21.612-10.899 34.717 2.958 6.058 6.41 16.561 12.672 23.335 13.919 7.642 1.41 13.097 8.086 14.376 17.6 1.134 8.435 4.598 17.967 7.698 21.183 3.1 3.22 5.636 13.051 5.636 21.845 0 10.394 8.163 23.964 23.31 38.755 19.261 18.81 27.55 22.681 47.727 22.284 13.432-.261 33.634 1.49 44.896 3.889l20.483 4.368-20.148 20.788c-14.544 15.001-25.581 20.787-39.674 20.787-17.197 0-25.319-7.047-68.075-59.059m64.706-.857c-40.63-3.253-61.981-26.817-70.143-77.43-5.695-35.276-7.443-38.315-23.095-40.117-22.078-2.54-21.478-10.783 1.661-22.746 37.177-19.229 81.986-97.261 104.282-181.61 7.61-28.79 17.509-56.504 22.005-61.584 4.491-5.081 9.063-20.323 10.161-33.871l1.995-24.636 104.115-1.889 104.111-1.89-3.83 71.466c-3.235 60.388-5.968 74.471-17.63 90.846-10.713 15.049-13.493 26.624-12.439 51.805 1.188 28.419-1.799 37.595-24.16 74.242-33.155 54.338-55.265 83.135-97.123 126.494-36.487 37.795-31.853 36.364-99.91 30.92m71.498-29.382c0-10.252-4.641-12.586-27.714-13.919-32.028-1.857-46.601 5.175-40.993 19.78 3.085 8.046 10.71 9.791 36.305 8.319 27.674-1.592 32.402-3.66 32.402-14.18m-55.424 3.081c-2.304-3.725 6.214-6.16 21.554-6.16 15.336 0 23.854 2.435 21.554 6.16-2.093 3.387-11.793 6.157-21.554 6.157s-19.461-2.77-21.554-6.157m-30.923-49.057c5.415-8.762-20.217-55.635-30.426-55.635-4.811 0-10.277 2.474-12.148 5.502-3.453 5.585 10.037 43.003 18.552 51.463 6.52 6.476 19.646 5.749 24.022-1.33m-20.054-7.795c-3.594-4.336-8.449-15.486-10.782-24.782-6.334-25.246 7.137-20.9 15.707 5.066 7.806 23.651 5.618 32.417-4.925 19.716m164.904-12.738c0-14.068-14.141-22.786-36.949-22.786-22.811 0-36.952 8.718-36.952 22.786 0 5.68 10.739 8.006 36.952 8.006 26.214 0 36.949-2.326 36.949-8.006m-61.581-4.31c0-3.387 10.921-6.16 24.269-6.16s25.981 2.773 28.074 6.16c2.326 3.761-7.12 6.156-24.269 6.156-15.442 0-28.074-2.769-28.074-6.156m-28.194-28.681c2.323-6.058-2.569-20.006-12.036-34.31-12.618-19.065-17.713-22.648-24.36-17.131-6.563 5.447-6.959 11.284-1.806 26.612 11.662 34.703 29.873 46.536 38.202 24.829m-27.387-17.909c-7.475-19.665-7.602-27.311-.447-27.311 3.053 0 8.599 8.726 12.316 19.392 8.257 23.687 8.257 23.717.451 23.717-3.471 0-9.013-7.109-12.316-15.798Zm140.188-22.536c10.575-9.935 13.926-19.944 13.926-41.622 0-30.581-5.96-41.32-31.774-57.277-12.199-7.541-24.356-9.177-47.661-6.415-25.959 3.075-33.249 6.811-42.847 21.972-16.023 25.301-7.05 59.561 22.364 85.385 19.243 16.899 24.625 18.625 46.903 15.063 13.839-2.213 31.428-9.91 39.089-17.106m-79.472-4.746c-10.721-8.242-17.836-21.027-20.511-36.857-6.549-38.766-.796-47.706 33.776-52.459 38.983-5.361 67.817 9.387 67.817 34.684 0 9.154 1.334 20.337 2.969 24.847s-1.988 14.627-8.046 22.484c-15.685 20.333-54.229 24.037-76.005 7.301m127.464-113.647c20.901-8.729 27.813-23.31 14.85-31.319-15.362-9.496-67.007 19.762-58.677 33.241 5.789 9.362 18.116 8.824 43.827-1.922m-34.066-2.25c0-8.093 42.24-26.006 46.201-19.591 1.959 3.169-6.589 10.001-18.992 15.183-26.133 10.921-27.209 11.095-27.209 4.408m-44.377-14.514c2.068-10.721-46.048-43.985-55.326-38.254-11.669 7.214-3.787 27.911 15.023 39.464 22.812 14.009 37.458 13.57 40.303-1.21m-42.697-10.732c-7.999-6.483-12.836-13.497-10.754-15.587 4.412-4.434 42.305 15.921 42.363 22.757.066 8.566-16.971 4.699-31.609-7.17m50.122-73.926c0-14.013-39.202-40.27-52.503-35.168-15.223 5.844-10.179 21.856 10.935 34.732 25.625 15.623 41.568 15.79 41.568.436m-38.49-7.156c-5.927-3.452-10.775-10.168-10.775-14.922 0-7.01 3.485-6.661 18.436 1.847 10.14 5.767 18.455 12.566 18.473 15.107.043 6.469-13.323 5.429-26.134-2.032m112.638 6.527c26.34-13.439 29.207-18.999 15.619-30.276-6.883-5.713-14.169-4.524-33.87 5.528-23.441 11.956-30.694 23.389-20.998 33.085 6.428 6.429 13.072 5.015 39.249-8.337m-37.196-2.794c0-4.034 34.855-21.715 42.803-21.715 12 0 6.574 10.292-9.223 17.488-15.987 7.283-33.58 9.496-33.58 4.227m-466.498 208.226c-4.234-1.708-7.698-6.124-7.698-9.805 0-3.685-3.776-11.077-8.391-16.423-4.615-5.349-10.081-18.694-12.145-29.658-3.558-18.887-1.905-21.118 31.482-42.505 57.918-37.091 71.215-41.059 89.488-26.686 28.928 22.757 46.292 15.736 81.805-33.071l27.147-37.308v-71.713c0-93.467 1.461-92.013-92.86-92.344-65.604-.229-69.209-.857-53.557-9.354 9.231-5.008 19.719-14.595 23.31-21.307 5.804-10.841 13.017-12.2 64.819-12.2h58.288v21.002c0 18.36 5.825 26.213 46.332 62.464 25.482 22.808 48.112 39.685 50.293 37.504 2.177-2.18 2.805-4.793 1.395-5.807s-21.27-17.982-44.133-37.701c-37.577-32.413-41.571-38.079-41.571-58.986 0-35.807-7.624-38.664-93.772-35.102-109.334 4.517-272.856 20.813-287.502 28.651-6.916 3.704-15.51 12.211-19.094 18.909-3.583 6.694-9.928 12.174-14.1 12.174-4.666 0-7.843 9.704-8.25 25.207-.381 14.631-5.782 32.071-12.865 41.567-12.632 16.943-32.453 25.33-32.453 13.737 0-3.637 4.158-6.61 9.238-6.61 6.698 0 9.238-6.887 9.238-25.039 0-41.43-7.337-48.862-48.25-48.862-19.527 0-38.828 3.326-42.894 7.389-9.929 9.932-9.929 104.616 0 114.548 10.303 10.303 65.905 9.227 97.399-1.882 19.701-6.952 28.368-7.534 34.644-2.326 14.148 11.745 9.602 16.913-23.542 26.755-32.188 9.557-159.732 13.533-180.356 5.618-8.551-3.278-9.954-14.537-9.401-75.438.356-39.372.494-77.822.309-85.443-.295-12.003-3.635-13.853-24.974-13.853-17.037 0-24.633-2.667-24.633-8.646 0-8.874 21.584-12.934 105.093-19.762 32.159-2.631 42.08-1.323 48.483 6.392 5.855 7.054 19.265 9.696 49.196 9.696 38.398 0 42.421-1.333 60.243-20.013 10.507-11.008 24.233-31.101 30.509-44.649l11.408-24.633 337.126-1.591c211.58-1 337.122-3.809 337.122-7.541 0-22.645-118.891-35.506-145.086-15.696-10.063 7.61-53.114 9.071-272.093 9.238-253.359.193-260.337.516-267.83 12.512-7.189 11.51-15.173 12.407-121.679 13.708l-113.989 1.392 112.39 1.825c67.617 1.101 112.39 4.219 112.39 7.828 0 3.303-10.02 17.095-22.27 30.654-21.518 23.818-23.59 24.65-61.221 24.65-22.009 0-40.794-2.987-43.192-6.868-2.882-4.659-28.993-6.146-81.249-4.619l-76.997 2.249-2.315-24.632c-1.762-18.763-7.439-29.193-23.811-43.763-27.023-24.04-28.855-37.337-3.329-24.138 24.96 12.909 40.714 11.782 55.378-3.961 11.694-12.549 19.341-13.53 126.486-16.212l114.044-2.86v-43.406l327.132 4.39c292.408 3.925 328.826 5.498 343.072 14.823 15.303 10.016 11.036 10.503-106.528 12.109-77.437 1.058-124.783-.639-128.762-4.619-6.676-6.676-365.407-9.078-389.516-2.609-7.207 1.937-16.212 10.343-20.014 18.683-9.06 19.879-8.874 20.74 4.42 20.74 6.228 0 14.485-6.926 18.341-15.394l7.018-15.394h187.962c121.203 0 187.962 2.184 187.962 6.156 0 3.914 48.138 6.16 132.098 6.16 102.018 0 133.221 1.828 137.022 8.035 2.711 4.419 15.318 14.344 28.019 22.056 12.702 7.711 23.096 17.953 23.096 22.757s5.313 8.733 11.811 8.733c25.322 0 31.297 6.643 31.297 34.811v27.336l-41.571-1.82c-39.958-1.752-41.64-2.461-43.472-18.306-3.289-28.459-10.637-30.119-125.153-28.313l-106.961 1.69v43.108l70.823 3.078c38.951 1.694 74.282 5.321 78.516 8.061 5.019 3.249 7.701 20.867 7.701 50.591 0 38.787 1.777 46.561 11.912 51.983 16.361 8.758 76.329 8.042 85.388-1.014 13.272-13.272 8.853-45.994-8.006-59.251-19.446-15.3-21.459-44.21-3.078-44.21q12.315.001 12.316 12.316c0 7.955 4.107 12.316 11.597 12.316 6.422 0 13.039-5.498 14.82-12.316 2.177-8.322 8.402-12.316 19.196-12.316h15.972v70.819c0 57.558-1.665 70.822-8.875 70.822-4.88 0-10.586-2.769-12.679-6.156-2.246-3.634-42.182-6.36-97.359-6.647-51.453-.269-90.087-1.882-85.854-3.59 8.413-3.398 10.728-20.555 2.773-20.555-2.711 0-8.188 3.26-12.174 7.243-5.553 5.553-10.139 4.626-19.646-3.983-11.699-10.583-11.793-11.691-1.687-19.363 9.9-7.516 9.66-8.155-3.136-8.337-12.029-.171-13.857 2.966-13.857 23.778 0 15.631-3.213 25.211-9.234 27.522-6.52 2.5-9.238 12.669-9.238 34.528 0 30.494-.302 30.985-18.942 30.985-18.537 0-18.905-.574-17.269-27.169 1.581-25.712-7.399-46.732-19.97-46.732-2.973 0-5.404 22.47-5.404 49.934v49.933l-59.124 84.014c-32.518 46.205-63.532 87.474-68.918 91.708-9.652 7.585-124.288 10.517-141.387 3.62Zm59.974-35.84c13.475-21.798 12.414-35.968-2.268-30.335-12.207 4.685-35.705 38.868-31.45 45.751 7.301 11.814 20.668 5.702 33.722-15.416Zm87.18-7.777c11.019-17.484 11.393-20.446 2.976-23.677-10.335-3.965-40.281 25.127-40.622 39.467-.36 15.089 24.846 4.514 37.646-15.79m62.634-91.607c-4.706-12.272-13.711-10.48-26.921 5.357-12.124 14.533-15.155 30.175-7.356 37.973 6.647 6.647 38.17-33.19 34.277-43.33m31.93-75.216c0-36.05-11.913-35.091-14.22 1.149-1.432 22.492.094 29.222 6.156 27.198 4.924-1.639 8.064-12.676 8.064-28.347m7.207-78.519c2.191-5.713-1.716-15.202-9.431-22.921l-13.174-13.174v22.925c0 16.477 2.653 22.92 9.431 22.92 5.189 0 11.117-4.386 13.174-9.75m131.356-73.748c0-13.047-2.493-20.377-6.16-18.113-3.387 2.093-6.156 11.957-6.156 21.918s2.769 18.112 6.156 18.112 6.16-9.863 6.16-21.917m18.473.363c0-11.854-2.77-21.554-6.157-21.554s-6.16 9.7-6.16 21.554c0 11.855 2.773 21.554 6.16 21.554s6.157-9.699 6.157-21.554m-448.019-68.994c36.411-11.728 66.2-23.866 66.2-26.973 0-8.278-13.45-6.959-96.603 9.467-75.605 14.936-100.463 23.44-100.463 34.368 0 12.375 66.836 3.762 130.866-16.862m621.993 6.41c-4.234-1.708-7.697-6.737-7.697-11.171 0-9.216-16.805-17.302-25.189-12.12-3.081 1.904-5.603 8.842-5.603 15.416 0 9.794 4.172 11.866 23.095 11.466 12.701-.269 19.628-1.882 15.394-3.591m-654.326-42.108c0-6.982-7.527-9.239-30.792-9.239-23.263 0-30.789 2.257-30.789 9.239 0 6.977 7.526 9.238 30.789 9.238 23.265 0 30.792-2.261 30.792-9.238m37.741 371.559c-4.049-6.49-5.459-14.885-3.126-18.658 2.413-3.903 1.465-5.145-2.199-2.881-3.539 2.187-10.96-2.926-16.488-11.364-10.005-15.271-9.957-15.344 10.103-15.438 11.088-.048 24.011-2.533 28.725-5.517 5.182-3.285-7.047-4.172-30.971-2.253-31.079 2.497-41.236 1.123-47.494-6.418-6.891-8.304-4.587-10.605 17.153-17.117 30.966-9.278 28.681-14.998-2.548-6.374-19.373 5.349-21.532 4.979-15.22-2.631 5.223-6.287 5.35-8.864.447-8.864-3.805 0-6.912-3.958-6.912-8.795 0-15.147-18.508-28.154-40.052-28.154-15.59 0-23.694-4.212-32.856-17.076-10.754-15.108-11.182-18.844-3.714-32.334 4.641-8.387 8.54-30.988 8.66-50.224.342-54.566 2.133-55.468 132.625-66.792 40.644-3.525 84.57-8.104 97.613-10.175 20.94-3.322 23.466-2.399 21.554 7.9-1.286 6.952-15.15 17.884-34.313 27.06-17.688 8.468-36.593 19.85-42.015 25.298-8.649 8.685-12.814 8.885-33.888 1.624-20.221-6.967-29.179-6.927-56.519.247-22.499 5.906-29.324 9.812-22.197 12.705 5.662 2.301 15.874 1.196 22.688-2.453 32.878-17.593 93.547 3.151 84.152 28.779-1.551 4.234.767 7.697 5.15 7.697 4.386 0 14.373 6.814 22.201 15.144l14.228 15.147-23.931-3.34c-17.982-2.508-21.634-1.704-14.697 3.238 5.081 3.616 16.761 6.614 25.959 6.669 16.859.094 33.547 19.304 26.573 30.585-1.908 3.085-.647 7.348 2.795 9.474 9.921 6.135 7.279 15.42-4.517 15.878-8.595.33-7.981 1.766 3.045 7.083 7.89 3.805 16.379 15.932 19.784 28.255 6.611 23.949 4.147 31.984-9.797 31.984-5.135 0-28.078 12.124-50.984 26.944-39.627 25.632-42.007 26.369-49.014 15.144Zm54.926-66.541c-3.547-2.195-10.412-9.365-15.249-15.94-8.304-11.287-9.034-11.338-13.061-.948-6.109 15.761 14.431 37.744 26.166 28.008 5.629-4.673 6.371-8.511 2.144-11.12m-12.607-49.639c-11.854-2.798-31.253-2.791-43.108.011-18.004 4.263-14.453 5.099 21.554 5.091 35.996-.011 39.551-.854 21.554-5.102m-40.531-27.725c19.413-2.424 32.972-6.738 30.127-9.583-5.51-5.51-73.425 8.104-80.715 16.183-2.384 2.642.069 3.23 5.477 1.308 5.396-1.923 25.697-5.48 45.111-7.908m-94.954-33.667c0-3.387-2.936-6.16-6.523-6.16s-4.808 2.773-2.715 6.16 5.03 6.16 6.524 6.16 2.714-2.773 2.714-6.16m-1.668-34.513c-2.046-2.047-7.359-2.265-11.803-.487-4.914 1.966-3.453 3.427 3.721 3.721 6.49.269 10.128-1.188 8.082-3.234m-19.722-32.039c-1.897-1.897-6.865-.004-11.045 4.205-6.036 6.083-5.327 6.788 3.449 3.448 6.073-2.315 9.489-5.756 7.596-7.653m862.61 176.1c-5.077-7.752-17.869-33.154-28.43-56.453-17.066-37.653-18.367-44.377-11.684-60.509l7.516-18.145 14.311 17.397c11.364 13.813 15.471 15.648 19.937 8.9 5.528-8.355-13.661-50.006-23.04-50.006-2.294 0-3.093-11.324-1.774-25.167 3.169-33.23 7.614-28.161 53.284 60.818 32.311 62.951 38.976 72.12 52.415 72.12h15.395l1.748-70.041c1.384-55.563-.258-73.105-7.955-84.854-11.681-17.826-7.479-26.777 12.57-26.777 10.383 0 17.833 5.728 24.683 18.971 8.144 15.746 9.086 31.192 5.539 90.839-2.352 39.525-7.036 75.329-10.408 79.563-3.417 4.288-19.589 7.697-36.535 7.697-18.697 0-28.935 2.369-26.594 6.16 2.093 3.387 9.954 6.156 17.469 6.156 13.028 0 34.877 18.839 34.877 30.076 0 2.915-23.422 5.76-52.048 6.327-48.015.945-52.761-.069-61.276-13.072m47.502-25.606c4.256-11.088-18.716-48.578-27.892-45.518-11.865 3.954-11.531 12.934 1.276 33.936 13.083 21.459 21.43 25.094 26.616 11.582m78.142 19.697c0-10.743 4.11-24.076 9.136-29.629 6.84-7.556 9.304-27.445 9.794-79.003.629-66.16 1.185-68.926 13.955-69.34 11.484-.374 11.808-1.025 2.37-4.753-14.711-5.815-30.654-36.291-20.86-39.878 12.756-4.677-34.296-9.961-105.231-11.822l-69.281-1.813v49.991c0 41.858-2.294 53.4-14.068 70.921-7.737 11.509-20.235 21.812-27.772 22.898-13.694 1.977-13.701 1.927-13.247-97.424.313-67.795-1.85-102.174-6.796-108.134-11-13.254 6.211-17.241 54.469-12.614 27.005 2.587 57.75.766 88.888-5.263 53.142-10.295 154.604-8.224 168.661 3.442 8.369 6.945 12.236 42.505 4.622 42.505-2.14 0-12.534-5.31-23.095-11.8-10.56-6.487-30.287-13.425-43.835-15.413l-24.632-3.616 28.477 10.797c28.594 10.841 82.049 49.32 57.74 41.564-19.814-6.323-67.53-14.558-70.005-12.083-1.247 1.246 5.68 3.983 15.394 6.076 42.033 9.053 60.778 18.858 62.791 32.838 1.981 13.763 1.65 13.843-16.935 4.234-10.426-5.393-18.956-8.417-18.956-6.723s8.312 7.377 18.473 12.632c21.841 11.295 24.105 25.77 4.619 29.524l-13.857 2.668 13.857.839c11.218.68 13.857 4.485 13.857 19.973 0 14.566-2.206 18.24-9.238 15.398-24.055-9.736-30.905-10.899-18.749-3.19 11.953 7.58 11.953 7.675 0 12.679-11.807 4.946-11.804 5.033.273 4.437 23.444-1.159 27.714.865 27.714 13.127 0 7.552-4.169 12.389-10.779 12.505-10.187.175-10.194.527-.109 6.396 8.046 4.688 10.492 13.81 9.965 37.167l-.698 30.955-25.359-3.099-25.359-3.1 23.095 6.861c20.674 6.145 23.091 9.002 23.091 27.329v20.471h-92.377Zm-169.355-263.756c-27.326-6.952-41.248-6.952-36.953 0 2.094 3.387 15.424 5.829 29.619 5.429 24.378-.687 24.785-.988 7.334-5.429m109.395 1.824c-7.574-1.464-21.431-1.501-30.792-.083-9.362 1.413-3.166 2.609 13.769 2.656 16.939.047 24.596-1.112 17.023-2.573m-17.023-29.546c-13.399-4.604-103.918-7.184-92.372-2.634 6.774 2.671 31.715 4.833 55.424 4.804 23.709-.033 40.336-1.007 36.948-2.17m181.861 143.19c-.153-144.778 1.17-170.893 8.686-170.893 4.88 0 10.422 2.501 12.312 5.561 5.368 8.685-8.954 315.975-15.227 326.685-3.438 5.876-5.655-56.115-5.771-161.353M461.876 482.503c0-73.359 1.977-99.459 7.697-101.574 4.234-1.566 45.805-3.765 92.376-4.884 78.6-1.89 84.68-1.229 84.68 9.198 0 9.339-5.07 11.236-30.04 11.236-19.188 0-32.805 3.337-37.704 9.238-4.423 5.332-17.855 9.238-31.763 9.238-13.254 0-30.927 4.474-39.274 9.943-14.726 9.649-15.18 12.142-15.18 83.139v73.192h-30.792Zm43.108 28.732c0-67.85.516-70.568 15.18-80.177 8.348-5.469 24.814-9.946 36.589-9.946 11.771 0 23.117-2.77 25.21-6.157s17.502-6.159 34.237-6.159h30.429v36.948c0 20.326-1.552 36.952-3.449 36.952s-16.404-9.892-32.238-21.983c-28.51-21.768-28.885-21.859-38.86-9.543-5.539 6.839-13.476 34.335-17.641 61.097-8.849 56.878-10.204 59.589-32.522 65.052l-16.935 4.146Zm-313.017 22.216c-14.017-19.686-17.324-36.745-10.292-53.055 3.496-8.101 1.941-13.243-5.211-17.244-8.773-4.91-10.114-17.844-9.667-93.151.283-48.098 2.489-103.199 4.895-122.446 3.896-31.148 7.319-37.606 31.137-58.742 24.702-21.918 26.119-24.774 18.418-37.105-7.417-11.88-6.712-15.093 6.367-29.015 14.094-15.005 17.557-15.638 82.917-15.223 76.892.487 86.682 3.045 86.682 22.658 0 7.621 2.773 13.167 6.16 12.32s6.047-7.777 5.917-15.398c-.24-13.628.999-13.857 75.059-13.857h75.3l-1.159 16.263c-.636 8.947 2.307 17.491 6.541 18.989 5.081 1.799 7.697-3.725 7.697-16.263v-18.989h151.825l-2.712 18.476c-1.628 11.092.033 18.476 4.147 18.476 3.772 0 6.858-8.315 6.858-18.476v-18.476h159.357l-1.159 15.064c-.64 8.282 1.614 14.518 4.997 13.853 3.387-.661 6.051-7.439 5.916-15.06-.239-13.639.964-13.857 76.1-13.857 65.327 0 75.83 1.334 72.795 9.238-4.204 10.965 1.262 27.714 9.046 27.714 3.023 0 5.498-8.315 5.498-18.476v-18.476h215.546v17.324c0 10.939-6.364 23.419-17.273 33.871-15.533 14.882-21.893 16.568-63.126 16.746-56.358.24-67.402 7.13-67.402 42.051 0 23.087-1.454 25.493-15.398 25.493-14.282 0-15.395-2.133-15.395-29.56 0-16.259-3.325-32.885-7.391-36.948-4.638-4.641-27.747-7.392-62.054-7.392h-54.665l1.77-24.538c.978-13.497-.89-23.891-4.146-23.095-3.257.796-5.92 11.84-5.92 24.549v23.098H815.984v-23.098c0-12.709-2.773-23.103-6.16-23.103s-6.043 11.084-5.905 24.633c.232 22.869-2.7 27.168-40.961 60.043l-41.215 35.411h-48.846c-26.868 0-50.381-1.53-52.252-3.405-1.872-1.872 9.082-15.198 24.341-29.615 25.57-24.16 26.962-26.998 17.771-36.189-6.018-6.018-9.972-20.205-9.972-35.796 0-22.964-1.09-24.923-9.837-17.662-6.909 5.735-8.85 14.268-6.516 28.652l3.325 20.489-75.086-1.726-75.081-1.726-3.078-27.198c-2.733-24.128-4.038-26.039-11.546-16.921-5.288 6.421-7.079 17.2-4.772 28.735 3.038 15.195 1.672 18.462-7.715 18.462-17.16 0-24.24 12.443-26.38 46.342l-1.934 30.636-102.232 1.687-102.229 1.682-7.079 15.54c-7.432 16.31-8.417 85.036-1.676 116.576 2.784 13.014 7.574 18.476 16.209 18.476 17.763 0 20.776-27.445 3.507-31.962-8.642-2.257-12.807-8.329-12.807-18.683 0-12.189 2.213-14.428 10.779-10.899 5.927 2.439 15.434 5.782 21.129 7.425 13.857 3.997 18.777 18.385 7.733 22.622-6.512 2.5-8.849 14.649-8.849 46.041 0 34.125-2.05 43.428-10.266 46.583-7.825 3.002-8.559 5.647-3.078 11.128 11.178 11.178 8.507 34.23-6.288 54.239-16.826 22.758-31.453 23.143-47.051 1.236Zm46.55-40.031c-3.645-9.499-48.854-10.062-51.99-.65-1.258 3.769 5.178 15.721 14.3 26.558l16.583 19.712 12.022-18.988c6.61-10.441 10.702-22.427 9.085-26.632m-35.291-103.1c0-14.73-2.65-18.473-13.087-18.473-11.371 0-12.581-2.522-9.238-19.246 2.119-10.587 3.849-24.44 3.849-30.793 0-6.348 2.772-11.545 6.159-11.545s6.2 7.621 6.251 16.935c.055 9.314 2.784 21.092 6.066 26.173 4.324 6.691 5.996 1.29 6.065-19.599.076-23.433-2.206-29.567-12.167-32.729-6.745-2.141-15.06-2.166-18.476-.051-7.083 4.375-8.039 37.355-2.297 79.232 3.067 22.372 6.407 28.572 15.394 28.572 8.65 0 11.481-4.554 11.481-18.473Zm206.307-200.148v-30.789h-55.428l-1.948 23.739c-3.009 36.614 1.141 41.909 31.145 39.739l26.227-1.897Zm-49.922 18.996c-1.839-4.794-2.446-16.572-1.345-26.173 1.737-15.177 4.608-17.455 22.012-17.455 11.008 0 20.017 2.078 20.017 4.619v26.173c0 19.893-1.439 21.554-18.669 21.554-10.419 0-20.147-3.852-22.015-8.718m-27.06-62.617c0-19.82-2.29-27.474-7.697-25.697-8.414 2.762-13.687 31.301-8.352 45.205 7.065 18.407 16.049 7.487 16.049-19.508m812.906 0c0-19.82-2.29-27.474-7.697-25.697-8.417 2.762-13.687 31.301-8.352 45.205 7.062 18.407 16.049 7.487 16.049-19.508m200.431 396.189c-7.378-23.611-9.427-53.884-3.642-53.884 3.54 0 6.436 4.241 6.436 9.431 0 12.894 16.609 18.258 27.791 8.976 5.037-4.179 8.983-13.497 8.769-20.704-.385-12.861-.494-12.847-5.96.756-15.285 38.032-35.953.349-40.87-74.518l-3.903-59.426h22.481c19.603 0 22.485 1.886 22.485 14.722 0 8.101-5.484 26.806-12.182 41.571-13.457 29.655-16.194 63.834-5.637 70.361 4.739 2.929 5.532-1.654 2.592-15.035-3.845-17.505-2.85-19.242 11-19.242 19.276 0 22.699 9.365 22.699 62.086v42.603h-24.825c-14.471 0-25.831-3.209-27.234-7.697m68.482 3.594c-2.257-2.261-4.103-25.261-4.103-51.115 0-50.031-5.419-61.791-28.474-61.791-13.155 0-13.33-.723-4.473-18.473 7.893-15.826 12.679-18.476 33.397-18.476h24.182v76.979c0 60.044-1.806 76.979-8.209 76.979-4.518 0-10.06-1.846-12.32-4.103m-203.415-26.904c3.849-3.848 20.475-13.602 36.952-21.674 42.026-20.587 24.385-18.621-30.65 3.416-37.683 15.089-54.981 18.454-94.383 18.371l-48.24-.106 20.137-12.894c22.503-14.409 49.196-21.801 121.505-33.63l49.268-8.064-49.268 3.132c-31.799 2.025-69.344 9.914-105.896 22.263l-56.635 19.127-51.14-13.421c-45.256-11.877-68.136-13.497-198.937-14.068-81.441-.356-139.508-2.755-129.329-5.346l18.476-4.702-16.935-.727c-12.207-.527-16.935-3.961-16.935-12.298 0-26.762 60.8-32.504 206.304-19.479 70.71 6.327 111.154 6.748 172.437 1.799l80.057-6.473-83.139 3.1c-55.577 2.072-116.82-.378-184.749-7.388-91.919-9.485-155.691-9.14-182.09.992-5.844 2.242-8.82-.774-8.82-8.936 0-11.077 5.546-12.76 54.876-16.667 30.182-2.387 64.128-2.562 75.438-.385 17.462 3.358 18.796 2.86 8.842-3.303-7.996-4.954-31.981-6.229-75.442-4.012-62.028 3.165-63.714 2.903-63.721-9.94-.007-13.075 1.01-13.177 112.39-11.28 61.817 1.05 115.032 4.513 118.248 7.697 7.824 7.737 69.387 7.428 74.209-.374 2.09-3.387 27.711-6.157 56.929-6.157 43.261 0 55.487 2.137 65.84 11.517 14.159 12.829 83.535 23.764 83.535 13.17 0-3.416-13.163-6.658-29.251-7.199-22.485-.756-24.622-1.559-9.238-3.471 11.008-1.363 20.013-5.077 20.013-8.249 0-3.176 25.962-5.768 57.75-5.768 42.669 0 59.67 2.308 65.088 8.839 6.084 7.33 3.845 9.274-13.101 11.367-17.288 2.137-16.641 2.453 4.194 2.057l24.632-.469v122.926l-43.108 1.853c-32.195 1.385-41.335.08-36.113-5.146m-421.144-55.126c36.145-.059 53.884-2.392 53.884-7.094 0-8.926-100.808-3.558-123.165 6.552l-15.398 6.963 15.398-3.165c8.467-1.745 39.645-3.209 69.281-3.256m224.642 1.581c-12.778-1.334-32.177-1.309-43.109.047-10.931 1.359-.479 2.453 23.234 2.424 23.709-.029 32.652-1.141 19.875-2.471m121.766-7.821c17.575-4.474 17.277-4.71-6.16-4.823-13.548-.065-39.874 1.988-58.503 4.565l-33.87 4.681 40.027.138c22.015.076 48.345-1.977 58.506-4.561m60.043-4.081c-4.233-1.708-11.16-1.708-15.394 0-4.234 1.711-.77 3.107 7.697 3.107s11.931-1.396 7.697-3.107m61.585-6.426c-7.621-1.468-20.094-1.468-27.714 0-7.621 1.469-1.385 2.672 13.857 2.672s21.478-1.203 13.857-2.672m-73.901-18.581c-11.008-1.366-29.022-1.366-40.03 0-11.008 1.363-2.002 2.482 20.013 2.482 22.02 0 31.025-1.116 20.017-2.482m49.265.374c-4.234-1.708-11.161-1.708-15.395 0-4.233 1.708-.77 3.108 7.698 3.108s11.934-1.4 7.697-3.108m78.519 38.704c0-43.821-2.227-59.6-9.234-65.415-13.366-11.095-11.342-34.513 4.237-49.028 11.346-10.568 11.833-12.556 3.082-12.556-8.402 0-10.401-6.04-10.401-31.45 0-25.428 1.77-30.774 9.238-27.907 5.081 1.948 9.238 1.047 9.238-2.006 0-12.174-33.47-13.762-200.274-9.496-124.925 3.198-175.021 2.529-178.052-2.377-3.053-4.938 48.661-6.825 187.053-6.825 123.409 0 191.273-2.184 191.273-6.156 0-3.816-32.969-6.16-86.587-6.16h-86.591l1.911-23.095 1.912-23.091 52.008-1.81c44.708-1.552 54.436-.015 69.282 10.961l17.273 12.77v-31.17c0-19.781 2.813-31.886 7.697-33.133 4.234-1.083 21.554-6.825 38.49-12.763 49.486-17.349 56.718-18.734 47.727-9.125-4.234 4.524-7.697 11.367-7.697 15.209 0 7.984 7.504 9.26 57.692 9.794 30.182.323 36.643 2.322 39.209 12.127 2.122 8.126 8.54 11.742 20.827 11.742 22.256 0 22.677-9.173 2.257-49.472l-15.5-30.585-63.02 1.287-63.019 1.29 58.92 1.998 58.917 1.999 13.443 27.671c7.392 15.216 13.443 30.363 13.443 33.659 0 11.153-17.016 6.084-20.181-6.011-2.624-10.044-9.529-12.309-42.225-13.857-33.471-1.584-39.402-3.619-41.284-14.166-3.743-20.976-9.642-21.99-49.545-8.514-40.055 13.526-55.591 10.433-47.923-9.547 3.205-8.352 20.333-13.101 36.879-10.227 2.791.483 3.322-1.959 1.174-5.429-2.595-4.198 25.621-6.309 84.222-6.306l88.117.004 17.32 30.84 17.321 30.835-13.12 18.422c-9.906 13.915-17.963 18.425-32.896 18.425-12.712 0-22.946 4.401-28.652 12.316-12.196 16.924-43.108 16.924-43.108 0 0-6.774-2.773-12.316-6.16-12.316s-6.16 5.542-6.16 12.316c0 6.778-2.769 12.32-6.156 12.32s-6.16-5.542-6.16-12.32c0-6.774-2.769-12.316-6.156-12.316s-6.16 6.93-6.16 15.398c0 13.49-2.668 15.394-21.554 15.394-21.5 0-21.554-.069-22.321-29.251l-.771-29.251-4.899 33.841c-2.696 18.61-6.894 98.286-9.328 177.052-2.435 78.767-6.814 143.211-9.729 143.211-2.911 0-5.299-25.987-5.299-57.75m1001.763-26.413c-2.257-2.257-4.107-22.375-4.107-44.707 0-54.36-5.793-58.005-98.533-62.039-57.478-2.5-70.822-4.819-70.822-12.316 0-7.777 16.335-9.503 103.29-10.928 89.778-1.468 103.78-.407 107.047 8.111 2.072 5.393.622 12.942-3.212 16.779-9.678 9.674-8.715 16.83 2.26 16.83 6.611 0 9.238 6.738 9.238 23.68 0 15.856 4.067 27.358 12.316 34.823 6.774 6.13 12.317 16.259 12.317 22.51 0 9.623-5.023 11.364-32.842 11.364-18.066 0-34.696-1.85-36.952-4.107M87.205 356.158c-8.973-19.689-9.111-44.583-.385-69.612 6.48-18.589 8.17-19.392 40.688-19.392 28.408 0 33.318 1.585 30.189 9.74-2.057 5.357-3.74 28.913-3.74 52.346v42.607h-29.8c-25.962 0-30.726-2.024-36.952-15.689m193.185 3.947c-2.05-6.458-14.708-16.136-28.129-21.503-31.817-12.734-30.883-24.847 2.915-37.755 15.023-5.735 28.866-14.472 30.763-19.407 4.47-11.647 23.437-5.738 44.631 13.904 8.853 8.206 18.465 14.919 21.354 14.919 2.893 0 5.263 6.298 5.263 13.995 0 10.056-6.506 17.182-23.095 25.315-12.702 6.226-27.907 13.785-33.787 16.797-14.606 7.476-15.66 7.145-19.915-6.265m55.402 5.844c-2.002-3.242 4.761-10.241 15.035-15.554 26.747-13.832 25.523-36.509-2.878-53.266-38.384-22.648-26.621-31.85 46.186-36.135l52.346-3.078 3.079-33.87 3.081-33.874 58.503-1.57 58.506-1.574-31.875 30.825c-17.531 16.954-28.877 30.825-25.217 30.825 3.659 0 2.104 5.026-3.453 11.168-13.562 14.987-2.747 25.683 26.366 26.079l21.859.294-46.186 42.803-46.186 42.807-62.762.007c-34.518.004-64.398-2.645-66.404-5.887m199.984-44.101c40.416-37.846 48.404-42.814 63.896-39.735 9.736 1.933 31.733 3.514 48.879 3.514h31.174l-16.55 17.273c-11.854 12.378-16.546 23.724-16.546 40.03v22.757l-78.52-.291-78.519-.29Zm123.169 21.278c0-16.517 4.637-27.794 16.546-40.226 14.824-15.471 20.443-17.179 53.888-16.397 30.072.705 33.143 1.602 15.783 4.619-31.984 5.556-49.268 19.272-49.268 39.096v16.993h92.376v-27.26c0-20.783-2.558-27.932-10.775-30.076-5.927-1.552 5.687-3.14 25.81-3.532 31.348-.615 35.026.425 25.686 7.253-7.654 5.601-10.296 14.304-8.875 29.255l2.025 21.282 38.489 1.832c27.692 1.319 38.493 4.215 38.493 10.313 0 6.891-22.539 8.606-120.091 9.144l-120.087.661Zm251.502-12.85c-2.715-46.048-.026-63.122 9.939-63.122 10.892 0 13.432 14.239 10.717 60.044-1.58 26.66-4.786 38.489-10.426 38.489-5.568 0-8.806-11.208-10.23-35.411m31.784-4.619c0-22.016 2.079-40.256 4.619-40.535 2.54-.28 12.931-1.887 23.092-3.576s38.569-1.225 63.125 1.032l44.646 4.103v79.006H942.231Zm92.373-9.238v-24.632h-86.217v20.529c0 11.288 1.85 22.375 4.107 24.632s21.656 4.107 43.108 4.107h39.002Zm-77.829 9.238c-7.744-20.177 2.479-27.71 37.606-27.71 33.747 0 34.067.174 34.067 18.472 0 18.302-.32 18.476-34.067 18.476-24.596 0-35.047-2.566-37.606-9.238m133.257-3.078V279.47h21.554c18.884 0 21.555 1.905 21.555 15.395 0 11.291 3.281 15.398 12.316 15.398 6.843 0 12.316-4.107 12.316-9.238 0-5.081-2.773-9.238-6.16-9.238s-6.156-2.773-6.156-6.16 9.438-6.157 20.976-6.157c17.946 0 20.511 1.781 17.757 12.317-2.432 9.299-.186 12.316 9.154 12.316 6.807 0 13.973-4.158 15.921-9.238 1.952-5.081 8.835-9.238 15.304-9.238 6.465 0 15.205 4.157 19.421 9.238 10.393 12.527 16.419 11.611 20.26-3.078 1.77-6.774 7.635-12.317 13.036-12.317 7.788 0 9.812 6.985 9.812 33.871v33.87l-20.013.196c-11.008.106-25.396 4.267-31.97 9.238-8.798 6.655-29.524 9.042-78.52 9.042h-66.563ZM16.935 351.67C7.621 347.909 0 342.647 0 339.972c0-9.743 53.611-60.502 63.899-60.502 9.078 0 10.329 5.492 8.755 38.49-1.81 37.991-2.071 38.504-20.308 39.518-10.161.567-26.096-2.05-35.411-5.808m689.138-19.628c-5.099-13.279 24.912-34.095 49.159-34.095 19.577 0 20.722 1.188 20.722 21.554v21.554h-33.213c-23.469 0-34.226-2.646-36.668-9.013m122.271 2.922c-2.355-3.809-2.584-13.697-.505-21.972 3.423-13.65 6.887-15.045 37.279-15.045 33.409 0 33.503.058 32.217 18.461-1.185 16.921-3.184 18.465-23.884 18.476-12.425.007-26.693 1.585-31.708 3.511-5.015 1.922-11.044.381-13.399-3.431m510.443-3.652c2.053-5.357 3.736-18.382 3.736-28.943 0-23.436 8.874-16.288 17.44 14.05l6.083 21.554.556-19.174c.378-13.01-4.662-24.392-15.681-35.411-18.389-18.392-12.629-21.587 8.966-4.971 9.372 7.21 15.474 19.868 17.745 36.814l3.463 25.824h-23.022c-18.465 0-22.285-1.93-19.286-9.743M227.858 294.331c0-21.122 12.494-33.337 34.088-33.337 11.739 0 21.34 2.344 21.34 5.205 0 7.301-18.451 21.884-38.489 30.425-14.283 6.083-16.939 5.723-16.939-2.293m357.187-25.389c-5.081-1.868-13.818-7.373-19.41-12.24-5.597-4.862-13.912-8.329-18.477-7.704-29.861 4.096-32.5-.294-11.149-18.545 24.371-20.827 30.56-22.681 30.56-9.14 0 5.43 12.675 15.434 29.254 23.092 26.908 12.428 40.467 13.668 169.352 15.466 81.129 1.134 140.104 4.372 140.104 7.698 0 6.09-303.866 7.391-320.234 1.373m184.749-44.336c23.146-20.562 34.517-27.289 35.909-21.246 1.61 6.989 12.614 8.475 52.347 7.069 63.801-2.257 63.543-12.916-.422-17.586-28.699-2.097 8.188-3.939 92.3-4.619l140.104-1.13v67.744l-177.056-.069-177.052-.069zm193.261-3.231c8.867-11.626 16.125-22.714 16.125-24.632s-9.7-3.489-21.555-3.489c-21.041 0-21.554.585-21.554 24.632 0 13.548 2.442 24.632 5.43 24.632 2.983 0 12.683-9.514 21.554-21.143m59.233-6.567c0-26.071-4.924-26.864-26.558-4.281-21.547 22.488-20.897 25.835 5.004 25.835 20.529 0 21.554-1.028 21.554-21.554m514.665-27.278 16.013-24.196-20.915-35.848-20.915-35.847-34.397-1.828c-28.07-1.49-34.975-4.037-37.541-13.857-4.248-16.248-29.037-16.034-33.307.291-2.773 10.597-8.489 12.341-40.993 12.512-23.404.12-42.316 3.634-49.726 9.238-10.089 7.628-54.062 9.042-281.745 9.042H763.638V75.224l89.138 1.693c49.029.931 90.785.051 92.791-1.959 2.01-2.006 13.352-.97 25.21 2.301 15.671 4.328 24.077 3.863 30.782-1.701 7.25-6.015 13.595-6.073 29.629-.276 14.671 5.306 25.152 5.575 37.294.959 12.087-4.593 19.279-4.437 25.297.56 4.75 3.939 13.138 4.939 19.268 2.293 13.854-5.978 26.413-5.938 40.521.131 6.585 2.831 17.364 1.512 26.173-3.202 12.367-6.618 17.692-6.567 30.502.287 11.924 6.382 17.204 6.625 22.786 1.043 4.045-4.045 24.469-7.268 46.063-7.268h38.798v-23.4c0-31.232 8.635-38.181 47.419-38.181 27.325 0 32.642 1.803 32.642 11.084 0 19.352 13.439 25.865 53.36 25.865 32.424 0 39.645 1.988 45.249 12.461 5.724 10.696 8.278 11.331 18.043 4.492 7.625-5.339 23.154-6.909 47.077-4.761l35.702 3.206 23.117 46.186c22.972 45.91 27.009 64.325 19.904 90.836-3.517 13.123-6.777 13.857-61.588 13.857h-57.874Zm-269.948 9.111c-9.282-6.789-9.573-8.973-2.046-15.22 7.065-5.862 9.601-4.724 12.945 5.815 5.345 16.844 2.562 19.246-10.899 9.405m146.78-167.026c-14.77-14.766-11.68-21.104 10.335-21.209 11.012-.051 24.026-2.627 28.921-5.727 13.054-8.257 31.126 3.692 31.126 20.58 0 12.236-2.474 13.897-16.935 11.389-9.318-1.617-20.689-7.468-25.272-13.003-7.41-8.947-7.879-8.529-4.204 3.791 4.975 16.691-9.02 19.134-23.971 4.179"/></svg>