<svg xmlns="http://www.w3.org/2000/svg" width="3092.146" height="1000" viewBox="0 0 3092.146 1000"><path d="M1673.211 987.213c-117.478-15.529-114.265-14.686-114.265-30.018 0-8.639 2.791-12.578 8.885-12.535 15.801.117 251.012 24.531 252.68 26.225.89.901.41 7.926-1.065 15.608-2.529 13.17-4.165 13.93-28.754 13.385-14.336-.32-67.206-6.018-117.481-12.665m48.243-38.435c-46.084-4.681-98.024-9.998-115.413-11.818l-31.625-3.304 2.748-31.352c5.287-60.334-6.262-54.2 102.043-54.2 92.533 0 95.186-.298 116.966-13.061l22.288-13.061-3.38 52.419c-1.857 28.83-4.829 59.273-6.603 67.654l-3.227 15.234Zm120.905-117.18c-1.806-24.531 1.712-33.994 12.705-34.201 2.261-.04 2.417 2.656.353 6s-3.173 17.055-2.46 30.472c1.762 33.242-8.141 31.12-10.598-2.271m-364.197-130.063c-50.068-75.027-94.841-137.873-99.493-139.657-4.651-1.788-16.531-3.246-26.398-3.246-24.36 0-64.448-22.768-79.465-45.129-13.988-20.834-21.46-46.284-13.588-46.284 2.984 0 5.175-13.977 5.175-33.009v-33.013h207.772l1.494 36.821 1.49 36.818 58.405 1.377c47.545 1.123 59.582 2.955 64.75 9.86 4.593 6.134 6.348 37.105 6.348 112.063v103.581l18.226 32.594c25.89 46.289 28.982 47.772 99.707 47.772h59.811V625.105c0-141.376.985-160.143 9.903-188.798 5.447-17.503 8.74-33.704 7.319-36.004s-78.934-4.183-172.248-4.183h-169.665L1433.418 366c-23.738-29.437-24.861-30.123-49.679-30.291-13.966-.094-31.108 3.097-38.09 7.087-8.507 4.866-28.797 7.319-61.526 7.439-43.054.16-50.544-1.166-63.303-11.208-13.134-10.328-21.137-11.556-86.399-13.243l-71.92-1.86-20.282 18.323-20.283 18.324h-99.685c-54.825 0-99.685-1.131-99.685-2.515 0-5.488 112.975-187.534 127.926-206.141l15.973-19.875h357.514c347.455 0 377.164 1.203 377.164 15.293 0 5.196 56.475 86.794 72.898 105.321l10.128 11.426h516.233v48.836c0 48.509-.076 48.81-11.43 44.638-6.283-2.311-71.985-4.964-146.002-5.894l-134.58-1.694-76.18 31.308c-87.845 36.106-109.032 53.125-119.273 95.819-5.226 21.787-4.75 27.645 3.823 47.033 11.79 26.649 35.524 47.742 61.091 54.294 10.346 2.653 56.224 9.809 101.952 15.904 62.886 8.384 86.083 9.743 95.223 5.578 6.643-3.027 12.08-7.788 12.08-10.583 0-3.176-4.823-2.882-12.883.793-10.212 4.651-32.534 3.328-107.666-6.382-103.265-13.345-115.159-17.724-137.517-50.613-9.852-14.497-11.615-22.434-9.856-44.366 3.642-45.351 18.302-58.103 113.35-98.591l80.933-34.474 126.963.015c114.89.014 128.1.894 138.959 9.245l11.996 9.224-13.824 10.873c-7.603 5.982-26.711 17.204-42.465 24.941-28.15 13.825-30.76 14.123-150.531 17.343-67.035 1.802-140.398 3.517-163.028 3.808-52.775.683-72.058 11.844-82.14 47.539-6.109 21.623-5.796 26.118 3.224 46.506 6.323 14.293 15.718 25.537 25.617 30.658 8.599 4.444 55.076 13.537 103.283 20.202 83.426 11.539 88.263 11.698 100.35 3.376 6.981-4.808 16.819-17.033 21.86-27.161 7.802-15.689 8.304-21.667 3.379-40.303-3.183-12.033-12.447-32.366-20.591-45.177-8.144-12.814-14.805-24.527-14.805-26.024s32.565-3.834 72.367-5.193c75.779-2.588 93.111-7.036 134.58-34.561 9.078-6.025 16.503-8.58 16.503-5.677s-2.435 6.785-5.411 8.624c-2.98 1.839-12.12 12.604-20.315 23.917-11.67 16.11-14.901 25.977-14.901 45.532 0 13.73 2.468 29.575 5.484 35.208 4.238 7.919 3.66 12.258-2.54 19.112-4.412 4.873-8.035 12.113-8.053 16.081-.018 5.023-6.662 7.396-21.823 7.795-27.591.727-69.558 18.825-69.558 29.993 0 4.557 23.426 46.136 52.056 92.391 37.075 59.91 55.998 85.789 65.771 89.957l13.715 5.855-17.876 14.264c-9.831 7.842-18.495 13.468-19.254 12.498-13.378-17.143-111.14-187.585-111.983-195.235-1.661-15.071-7.112-22.368-16.71-22.368-7.112 0-6.952.977 1.126 6.883 14.523 10.619 6.487 20.751-25.929 32.693l-29.626 10.913-85.461-13.221c-117.801-18.218-110.224-23.611-110.224 78.458 0 56.595-1.879 82.797-6.349 88.517-3.489 4.47-25.959 18.622-49.93 31.443l-43.584 23.317h-194.595Zm80.304 2.409c3.961-4.775 5.389-30.523 4.43-79.984l-1.414-72.948-64.75-1.421c-42.977-.942-64.749.385-64.749 3.943 0 7.188 90.443 143.044 100.593 151.105 10.401 8.256 18.647 8.035 25.89-.695m226.47-404.315v-17.774l-78.16 1.268c-42.985.701-81.104 1.272-84.701 1.272-14.504 0-22.907 16.219-17.811 34.397.214.76 40.949.76 90.53 0l90.142-1.388Zm-195.943-102.138c-5.186-7.294-16.125-20.435-24.313-29.2-14.318-15.325-16.466-15.936-56.017-15.936-48.051 0-50.296 3.347-25.461 37.933l15.671 21.82 49.77-.676 49.773-.676Zm670.143 624.327-11.433-16.059 22.539-20.133c23.186-20.708 85.232-72.022 101.357-83.822 8.111-5.935 9.717-4.699 15.107 11.636 3.318 10.053 4.837 21.391 3.376 25.196-3.551 9.26-88.317 83.11-105.729 92.112-13.115 6.781-14.336 6.348-25.217-8.93m-727.014-2.762c-11.848-1.784-23.219-15.797-70.47-86.841-30.992-46.59-58.761-86.995-61.712-89.79-7.363-6.963 5.499 13.429 60.687 96.226 25.97 38.958 46.554 71.498 45.74 72.309-.811.814-20.21-1.254-43.109-4.59-30.193-4.401-44.199-8.922-50.973-16.449-15.274-16.964-137.734-195.677-137.734-200.998 0-2.696-1.919-4.899-4.263-4.899-5.499 0-16.052-23.12-16.052-35.167 0-5.114 3.198-11.95 7.104-15.191 5.608-4.656 13.905-1.585 39.358 14.565 25.512 16.183 37.12 20.472 55.527 20.508l23.273.051 80.835 120.08c80.58 119.698 90.319 134.526 87.438 133.083-.836-.418-7.879-1.719-15.649-2.893Zm-159.296-222.479c-2.766-7.196-17.314-17.633-24.585-17.633-2.682 0 23.287 24.774 26.449 25.232.61.087-.229-3.329-1.864-7.599m-41.045-20.962c-3.438-1.392-10.295-1.476-15.238-.189-4.938 1.286-2.126 2.424 6.255 2.529 8.376.102 12.421-.952 8.983-2.344Zm320.021 189.965c-2.682-3.493-13.246-20.359-23.477-37.487l-18.596-31.133V590.493c0-131.117 4.71-123.278-74.038-123.263l-55.461.011 1.7-33.02 1.705-33.024h154.459c84.952 0 154.459 1.999 154.459 4.441s-3.427 14.155-7.617 26.031c-6.149 17.433-7.617 52.278-7.617 180.923v159.333h-60.32c-42.269 0-61.781-1.897-65.197-6.345m555.057-95.277c-29.848-47.513-53.001-88.434-51.457-90.938 4.307-6.966 48.331-20.733 66.302-20.733 10.052 0 19.915 4.238 26.573 11.426 19.828 21.395 87.674 121.832 87.674 129.787 0 12.516-48.966 56.846-62.787 56.846-10.067 0-20.929-14.152-66.305-86.388m-1087.825 53.171c18.938-49.352 16.793-105.576-5.553-145.602-17.23-30.869-52.873-58.027-81.747-62.297-10.299-1.519-28.819-5.117-41.153-7.992-13.639-3.18-107.095-5.109-238.463-4.92-188.108.269-217.621 1.344-228.298 8.34-6.741 4.419-13.359 12.244-14.704 17.386-1.359 5.193-8.962 10.779-17.106 12.567-18.61 4.088-19.784 6.022-35.266 58.143-12.283 41.36-13.573 43.395-28.448 44.864-15.58 1.533-15.583 1.526-18.872-29.95-1.81-17.313-3.289-46.277-3.289-64.368 0-28.655-.981-32.071-7.617-26.562-6.418 5.324-7.621 4.372-7.621-6.044 0-7.846-5.564-16.473-15.235-23.625-14.936-11.041-15.234-12.153-15.234-56.275 0-35.324-1.639-45.638-7.617-47.935-5.03-1.93-7.617-9.881-7.617-23.397v-20.471H367.5c15.147 0 23.252 2.446 25.236 7.617 2.533 6.6 30.759 7.618 211.297 7.618 140.152 0 208.379 1.719 208.379 5.255 0 3.474 37.894 5.066 112.027 4.706 69.195-.338 114.407 1.428 118.245 4.615 3.845 3.191 9.056 3.391 13.664.524 6.295-3.918 6.4-6.32.68-15.544-4.259-6.868-4.983-12.694-1.952-15.721 2.646-2.646 37.152-4.79 76.681-4.764 64.336.043 73.403 1.141 86.53 10.488 12.577 8.954 22.15 10.415 67.206 10.263 35.946-.124 56.548-2.475 65.233-7.44 6.985-3.994 21.089-7.337 31.345-7.439 15.714-.152 21.511 3.166 36.821 21.049 9.994 11.677 18.171 23.103 18.171 25.392 0 2.29-39.994 4.165-88.873 4.165h-88.874v33.009c0 18.622-2.213 33.009-5.08 33.009-8.061 0-5.906 21.467 4.012 39.965 9.027 16.826 8.998 17.052-3.743 30.959-11.045 12.055-14.97 13.4-28.103 9.635-25.432-7.294-41.106-5.005-55.218 8.075-11.378 10.542-13.439 16.713-13.439 40.237 0 15.285 2.671 39.347 5.931 53.477 5.604 24.272 5.106 27.3-9.027 54.981-10.935 21.413-18.186 29.753-26.958 31.01-9.569 1.367-11.325-.05-8.657-7.003M446.761 492.611c0-13.327-18.454-23.103-28.255-14.966-17.045 14.144-.229 40.012 19.235 29.593 4.961-2.656 9.02-9.238 9.02-14.627m571.327 0c0-15.155-17.546-20.13-27.729-7.861-5.313 6.403-5.313 9.318 0 15.725 10.183 12.269 27.729 7.29 27.729-7.864m-536.602-55.247c9.027-5.72 5.625-26.093-5.524-33.082-16.292-10.212-34.863 10.383-27.249 30.222 3.078 8.021 22.023 9.674 32.773 2.86m-22.238-11.11c-4.673-7.562.745-11.676 10.47-7.944 4.485 1.723 6.734 5.433 4.997 8.246-4.117 6.658-11.251 6.52-15.467-.302m546.146 5.415c3.859-7.217 3.859-13.097 0-20.315-9.594-17.923-40.63-10.164-40.63 10.158 0 20.326 31.036 28.081 40.63 10.157m-25.396-7.195c0-4.423 3.62-8.039 8.043-8.039s7.137 2.715 6.029 6.029c-3.137 9.416-14.072 10.979-14.072 2.01m243.892 9.583c9.951-11.989-1.417-32.86-17.898-32.86s-27.848 20.871-17.902 32.86c3.547 4.274 11.604 7.77 17.902 7.77s14.351-3.496 17.898-7.77m-22.978-7.465c-2.025-3.281-1.4-8.249 1.395-11.044q5.076-5.076 8.762.887c2.028 3.278 1.403 8.25-1.392 11.041-3.387 3.387-6.305 3.092-8.765-.884M1093.144 721.04c-10.906-4.391-11.03-5.241-3.808-25.712 26.216-74.304-19.599-152.072-90.626-153.823-22.55-.556-29.869 1.9-51.001 17.113-28.859 20.773-11.826 20.409-243.696 5.229-116.166-7.606-148.307-11.24-155.292-17.56-4.844-4.383-13.77-7.97-19.835-7.97-14.711 0-14.137-12.963 1.018-22.891 17.469-11.448 434.754-8.308 487.032 3.663 69.027 15.809 100.241 52.183 104.253 121.497 2.148 37.076-5.684 86.123-13.617 85.312-1.734-.178-8.224-2.365-14.428-4.858m1934.693-224.621 1.323-224.722 12.694-1.715c14.984-2.021 33.991-18.389 38.755-33.365 3.336-10.492 3.427-10.496 7.348-.469 5.488 14.039 5.608 40.139.215 45.961-12.8 13.81-30.353 157.185-33.856 276.523-.781 26.533-3.104 73.956-5.161 105.377-3.339 50.98-4.76 57.132-13.192 57.132-9.089 0-9.397-8.522-8.126-224.722m-688.644 212.028c1.606-4.19 6.385-7.621 10.619-7.621 6.265 0 6.52 1.418 1.374 7.621-3.478 4.187-8.257 7.617-10.619 7.617-2.366 0-2.984-3.43-1.374-7.617m642.193-17.818c-9.522-2.246-19.483-7.966-22.14-12.716-2.66-4.754-10.869-15.024-18.243-22.83-20.493-21.689-362.9-283.29-378.618-289.265-7.588-2.885-29.648-5.247-49.021-5.247-19.37 0-35.219-1.977-35.219-4.394s9.547-16.128 21.213-30.473l21.212-26.075h249.202l21.758-21.35c16.96-16.648 23.102-20.003 27.87-15.235 4.343 4.343 34.477 6.113 104.13 6.113h98.013v426.592l-11.426-.519c-6.287-.287-19.214-2.355-28.731-4.601m-22.383-137.96c11.248-10.568 11.756-14.242 11.756-85.367 0-51.812-1.926-76.735-6.349-82.299-3.492-4.39-21.089-18.538-39.107-31.443l-32.754-23.458h-98.014c-91.243 0-98.715.701-108.171 10.154-5.585 5.589-10.157 13.184-10.157 16.884 0 6.992 219.783 187.366 243.169 199.57 18.323 9.561 25.977 8.78 39.627-4.041m-619.072 129.114c-10.997-12.614-83.437-115.381-90.084-127.802-4.492-8.388-3.536-12.356 5.026-20.922l10.568-10.568 44.264 59.967c65.633 88.921 68.068 92.697 64.968 100.775-3.932 10.241-25.323 9.351-34.742-1.45m-307.113-145.119c.24-25.472-2.874-38.715-15.387-65.451l-15.685-33.522 23.023-1.828c19.871-1.581 24.134-.134 31.152 10.576 11.171 17.051 9.507 64.241-3.289 93.165-15.129 34.201-20.155 33.456-19.814-2.94m287.895-176.093c0-5.586-2.282-10.158-5.077-10.158s-5.08-8.151-5.08-18.116c0-16.427 1.068-17.793 11.429-14.664 18.047 5.451 22.085 11.509 15.107 22.681-3.423 5.48-6.221 14.566-6.221 20.188 0 5.625-2.286 10.226-5.077 10.226-2.795 0-5.081-4.572-5.081-10.157m68.119 5.502c-1.156-1.163-2.097-61.152-2.097-133.309V101.568h47.793c36.291 0 55.541 2.711 79.988 11.262 31.268 10.939 39.99 11.338 303.888 13.966l271.698 2.704 1.511 25.973c1.123 19.301-1.864 33.602-11.633 55.69-22.441 50.744-13.937 47.84-140.064 47.84H2829.39l-10.473-16.946c-14.421-23.335-62.839-68.282-77.404-71.858-6.589-1.617-61.116-2.297-121.167-1.505l-109.188 1.436-2.54 25.392c-1.396 13.966-6.451 31.141-11.234 38.169-14.544 21.38-24.305 55.53-24.476 85.621-.214 39.561-5.713 45.009-47.466 47.128-18.981.959-35.458.796-36.61-.367M2.939 352.539c-3.986-10.394-3.888-138.254.117-153.209l3.063-11.426h313.679v172.667H162.911c-138.378 0-157.253-.949-159.972-8.032m65.477-78.302v-68.558H43.024l-1.435 63.198c-.789 34.761-.226 66.342 1.246 70.187 1.479 3.848 7.824 6.254 14.13 5.356 11.236-1.591 11.451-2.911 11.451-70.183m335.902 68.617c-1.952-5.091-9.838-7.675-23.419-7.675h-20.471V219.932l18.018-18.552c9.911-10.205 22.365-18.556 27.678-18.556s11.593-3.449 13.952-7.665c3.75-6.701 35.905-7.501 255.892-6.349l251.6 1.32-54.501 88.873-54.502 88.874-205.65 1.322c-179.607 1.16-206.024.356-208.597-6.345m93.994-28.535c19.628-13.974 18.639-36.76-2.137-49.301-12.734-7.687-15.387-7.759-27.932-.749-10.503 5.869-14.243 12.251-15.42 26.319-1.334 15.903.491 19.682 12.694 26.3 17.96 9.736 15.213 9.95 32.795-2.569m-32.987-8.74c-11.79-13.029-10.467-24.68 3.866-34.071 10.292-6.745 13.981-6.974 22.852-1.435 13.719 8.565 14.173 32.355.759 39.536-13.599 7.275-17.803 6.658-27.477-4.03m113.963 8.94c9.246-6.582 14.748-15.039 14.748-22.656 0-12.694-17.582-32.86-28.648-32.86-10.63 0-32.254 11.397-32.853 17.32-1.796 17.644 2.678 31.981 12.381 39.7 14.141 11.244 16.619 11.139 34.372-1.504m-32.635-7.022c-11.665-8.842-9.412-27.263 4.452-36.421 8.842-5.837 12.062-5.691 21.584.977 13.893 9.733 14.649 30.447 1.366 37.556-12.589 6.738-16.081 6.469-27.402-2.112m109.043 8.675c12.676-7.49 14.752-11.571 13.48-26.504-1.116-13.126-5.081-19.646-15.467-25.428-32.839-18.287-61.007 26.696-31.334 50.039 16.437 12.926 14.798 12.836 33.321 1.893m-27.379-6.792c-12.266-7.145-11.452-31.098 1.326-39.078 8.439-5.27 12.414-4.939 22.855 1.9 15.664 10.263 16.209 24.349 1.349 34.757-13.123 9.195-13.792 9.257-25.53 2.421m108.403 5.139c20.889-14.875 20.235-35.811-1.544-49.603-15.402-9.751-17.074-9.856-30.473-1.941-18.734 11.066-20.286 41.31-2.747 53.542 15.042 10.496 17.411 10.358 34.764-1.998m-33.009-6.288c-11.542-8.438-8.998-28.026 4.826-37.155 8.842-5.837 12.062-5.691 21.583.977 13.894 9.733 14.65 30.447 1.371 37.556-12.771 6.832-16.83 6.632-27.78-1.378m114.545 6.088c31.159-22.187 4.979-65.241-30.69-50.468-13.697 5.677-15.784 9.06-15.784 25.617 0 14.039 3.02 21.184 11.426 27.049 15.075 10.514 17.397 10.369 35.048-2.198m-32.914-6.822c-11.666-8.842-9.413-27.263 4.451-36.421 8.842-5.837 12.062-5.691 21.584.977 13.893 9.733 14.645 30.447 1.366 37.556-12.589 6.738-16.081 6.469-27.401-2.112M528.268 230.94c21.544-11.139 20.577-30.378-2.064-41.175-15.79-7.53-18.033-7.479-30.469.669-18.054 11.829-17.807 30.316.542 40.27 17.331 9.401 14.307 9.38 31.991.236m-21.834-5.771c3.489-1.41 9.206-1.41 12.694 0 3.493 1.406.636 2.558-6.349 2.558-6.981 0-9.837-1.152-6.345-2.558m100.06 7.625c9.961-4.54 12.934-9.653 12.934-22.238 0-13.159-2.802-17.502-14.403-22.306-32.565-13.49-58.19 22.292-30.032 41.934 14.067 9.812 15.441 9.929 31.501 2.61m-18.804-7.625c3.489-1.41 9.202-1.41 12.695 0 3.492 1.406.636 2.558-6.349 2.558-6.982 0-9.838-1.152-6.346-2.558m100.478 5.317c16.506-10.815 16.215-28.834-.647-39.881-11.026-7.225-15.562-7.632-27.932-2.508-26.115 10.819-17.252 47.72 12.072 50.246 2.195.189 9.62-3.347 16.507-7.857m-24.302-5.317c3.492-1.41 9.205-1.41 12.694 0 3.493 1.406.636 2.558-6.345 2.558-6.985 0-9.841-1.152-6.349-2.558m103.09 5.771c20.584-10.644 20.464-29.786-.25-40.499-13.767-7.119-16.703-7.119-30.469 0-20.188 10.441-20.795 29.673-1.272 40.263 17.331 9.401 14.307 9.38 31.991.236m-21.834-5.771c3.489-1.41 9.202-1.41 12.694 0 3.493 1.406.636 2.558-6.348 2.558-6.982 0-9.838-1.152-6.346-2.558m100.06 7.625c9.961-4.54 12.934-9.653 12.934-22.238 0-13.363-2.77-17.491-15.206-22.641-30.857-12.781-56.009 23.59-29.229 42.269 14.068 9.812 15.441 9.929 31.501 2.61m-18.807-7.625c3.492-1.41 9.205-1.41 12.698 0 3.492 1.406.636 2.558-6.349 2.558-6.981 0-9.838-1.152-6.349-2.558m1657.05 84.618c-.094-22.674 18.378-71.364 29.75-78.393 3.078-1.904 5.6-14.754 5.6-28.557 0-23.378.865-25.09 12.694-25.09 7.901 0 12.698 2.878 12.698 7.617 0 6.476 13.047 7.617 86.954 7.617 76.721 0 86.214-.897 80.635-7.617-5.371-6.472-4.125-7.614 8.264-7.599 8.025.011 21.446 4.234 29.826 9.38 19.752 12.138 58.401 51.005 58.401 58.728 0 3.292-8.9 14.682-19.781 25.305l-19.781 19.315L2645 290.42l-123.685-.072-18.894 21.143-18.894 21.144ZM328.262 321.634c-1.861-1.86-3.383-24.712-3.383-50.784v-47.396h30.469v50.783c0 49.818-.226 50.784-11.848 50.784-6.52 0-13.374-1.522-15.238-3.383Zm1985.681-20.311c-5.542-5.542-3.951-93.107 1.693-93.107 3.031 0 5.077 19.468 5.077 48.247 0 48.258-.44 51.187-6.77 44.86m16.928-47.4v-46.289l21.583 1.559 21.583 1.563v86.333l-21.583 1.563-21.583 1.562Zm-577.927-45.438c-17.32-24.993-31.49-46.67-31.49-48.175s72.56-3.34 161.245-4.077l161.24-1.341 1.512-37.93c1.682-42.066 8.002-53.975 50.631-95.379C2113.937 4.237 2121.921 0 2136.73 0c14.33 0 17.073 1.356 12.331 6.094-12.571 12.575-7.156 20.628 11.516 17.125 14.831-2.78 21.725-.469 43.738 14.671 14.369 9.885 31.417 17.974 37.886 17.974 6.465 0 15.921 5.215 21.012 11.59 15.22 19.057 44.337 34.114 65.971 34.114 10.983 0 22.714 2.743 26.065 6.094 7.501 7.505 8.118 66.967.835 80.577-4.113 7.686-10.742 9.823-30.472 9.823h-25.21v55.861h-515.971Zm349.396-41.383c0-5.851 3.878-17.207 8.62-25.235 10.994-18.607 5.004-25.279-8.322-9.278-10.459 12.559-14.34 45.158-5.375 45.158 2.791 0 5.077-4.79 5.077-10.645m109.461-20.267c6.56-10.616-5.633-13.821-42.171-11.099-26.391 1.97-36.818 4.71-36.818 9.681 0 8.697 73.672 10.016 78.989 1.418m-133.486-5.909c3.605-10.325-1.785-19.043-11.768-19.043-11.197 0-16.935 7.918-13.061 18.018 3.463 9.027 21.776 9.783 24.829 1.028Zm139.813-35.295c14.246-14.243 3.514-39.613-16.757-39.613-13.614 0-22.852 9.242-22.852 22.855 0 13.614 9.238 22.852 22.852 22.852 5.865 0 13.406-2.74 16.757-6.094m-21.994-14.475c-4.826-7.806 1.784-12.843 8.304-6.327 3.645 3.648 3.732 6.49.265 8.631-2.845 1.759-6.701.723-8.569-2.304m-121.941.607c3.755-6.077-5.8-12.099-12.563-7.916-5.68 3.507-1.951 12.644 5.161 12.644 2.464 0 5.792-2.126 7.402-4.728m50.639-23.568c10.699-10.699 10.048-20.417-2.177-32.646-12.229-12.225-14.816-12.425-29.342-2.253-12.28 8.602-14.889 27.089-5.193 36.785 8.547 8.548 27.238 7.588 36.712-1.886M429.415 148.546c-1.537-4.888-3.274-33.063-3.855-62.613C424.259 20.166 430.596 0 452.569 0h14.729l-1.381 34.281-1.381 34.277 15.863 1.545c13.116 1.276 19.708 7.188 38.09 34.157 17.807 26.134 24.894 32.643 35.647 32.737 7.381.069 14.737-3.307 16.347-7.497 1.708-4.452 9.318-7.617 18.316-7.617 10.299 0 15.394 2.522 15.394 7.617q.001 7.619 15.238 7.617 15.233.001 15.235-7.617c0-10.26 28.368-10.26 32.307 0 3.794 9.888 28.081 9.888 31.876 0 3.935-10.26 32.307-10.26 32.307 0 0 5.015 5.019 7.617 14.693 7.617 8.373 0 15.947-3.274 17.615-7.617 2.435-6.346 16.935-7.617 86.875-7.617h83.956v35.549H683.251c-234.636 0-251.223-.582-253.836-8.886m24.963-11.498c0-10.884-14.754-9.311-16.895 1.802-1.308 6.785.76 8.853 7.548 7.549 5.143-.993 9.347-5.197 9.347-9.351m26.966 1.341c-2.061-10.706-11.073-10.03-13.37.999-.96 4.601 1.839 7.886 6.719 7.886 5.23 0 7.723-3.328 6.651-8.885m1230.901-2.54c1.4-14.512 3.584-16.696 18.099-18.095 12.261-1.185 16.502.447 16.502 6.345 0 10.547 28.278 10.83 32.308.324 1.712-4.456 9.318-7.617 18.32-7.617 10.299 0 15.394 2.522 15.394 7.617q-.001 7.616 15.235 7.617 15.235 0 15.234-7.617c0-5.095 5.099-7.617 15.398-7.617 8.998 0 16.608 3.165 18.316 7.617 1.664 4.343 9.242 7.617 17.615 7.617 9.674 0 14.693-2.602 14.693-7.617 0-10.325 29.749-10.325 33.714 0 1.664 4.343 9.238 7.617 17.615 7.617 9.674 0 14.693-2.602 14.693-7.617 0-10.325 29.749-10.325 33.71 0 1.61 4.19 8.391 7.617 15.078 7.617 8.766 0 12.153 2.831 12.153 10.157 0 9.947-3.387 10.158-162.836 10.158h-162.832Zm-737.324-16.507c3.478-4.186 9.544-7.617 13.479-7.617 3.933 0 8.468-3.427 10.078-7.617 1.632-4.249 9.18-7.617 17.07-7.617 7.893 0 15.441 3.368 17.073 7.617 1.606 4.19 8.78 7.617 15.939 7.617 7.156 0 14.33-3.427 15.936-7.617 3.812-9.932 30.334-9.932 34.147 0 1.606 4.19 8.78 7.617 15.935 7.617 7.16 0 14.33-3.427 15.94-7.617 3.812-9.932 30.331-9.932 34.143 0 3.794 9.888 28.081 9.888 31.875 0 1.632-4.249 9.18-7.617 17.073-7.617s15.442 3.368 17.074 7.617c2.256 5.884 12.076 7.617 43.166 7.617 31.087 0 40.906-1.733 43.167-7.617 1.708-4.452 9.318-7.617 18.316-7.617 10.299 0 15.394 2.522 15.394 7.617 0 10.259 28.372 10.259 32.308 0 3.845-10.016 31.708-10.016 35.549 0 3.794 9.888 28.085 9.888 31.879 0 3.809-9.932 30.331-9.932 34.143 0 3.791 9.885 26.679 9.885 30.469 0 3.845-10.016 31.708-10.016 35.549 0 2.352 6.127 13.767 7.617 58.325 7.617 43.05 0 56.809 1.701 61.723 7.617 5.611 6.76-33.609 7.621-347.873 7.621-314.268 0-353.484-.861-347.877-7.621"/></svg>