<svg xmlns="http://www.w3.org/2000/svg" width="1785.325" height="1000" viewBox="0 0 1785.325 1000"><path d="M1399.653 989.814c-21.994-15.06-26.475-22.234-26.333-42.171.098-13.82 6.738-19.65 38.965-34.19 35.811-16.157 41.313-16.906 70.318-9.543 23.244 5.902 34.898 13.413 44.605 28.746 15.049 23.767 34.26 29.735 88.627 27.536 52.695-2.133 58.295-8.021 63.274-66.509 3.852-45.307 6.72-52.742 35.08-90.955 16.987-22.888 32.41-45.38 34.278-49.985 2.566-6.327 5.117-5.931 10.463 1.628 12.2 17.252 8.256 26.421-27.714 64.419l-34.99 36.964-3.333 70.935-3.332 70.939-136.623 1.795c-119.905 1.577-138.661.4-153.285-9.609m299.905-61.977v-59.793l38.323-42.559 38.318-42.556 5.411 24.043c2.973 13.221 4.474 53.553 3.333 89.619-1.886 59.582-3.518 66.745-17.811 78.308-9.456 7.654-26.075 12.731-41.655 12.731h-25.919Zm38.653 11.807c4.401-4.397 7.999-25.486 7.999-46.858 0-29.917-2.522-39.834-10.961-43.069-16.909-6.49-29.026 16.372-29.026 54.771 0 18.846 1.999 36.269 4.441 38.711 6.829 6.828 18.702 5.295 27.547-3.555m-201.619-18.203c-10.336-14.915-22.129-27.336-26.213-27.609-20.428-1.363-40.663-7.232-49.116-14.249-16.514-13.705-54.945-97.421-54.945-119.684v-21.467l20.021 31.566c11.007 17.361 27.706 46.739 37.101 65.281 9.398 18.545 18.421 32.376 20.057 30.745 5.676-5.677-18.811-55.24-47.913-96.978-21.078-30.229-29.266-48.53-29.266-65.415 0-12.894-3.205-29.436-7.127-36.763-5.298-9.899-4.869-16.045 1.665-23.938 6.294-7.603 8.794-35.44 8.794-97.879 0-66.247 2.007-86.849 8.33-85.584 4.583.915 8.344-2.083 8.355-6.666.014-7.202 60.672-60.207 85.079-74.351 4.656-2.696 19.087-1.399 32.072 2.886 28.473 9.398 36.109 26.289 36.109 79.849 0 38.119.966 40.22 35.778 77.877 37.799 40.891 124.172 174.61 124.172 192.243 0 14.57-14.435 40.419-46.117 82.587-25.065 33.358-27.191 39.456-27.191 77.912 0 22.95-2.25 43.036-5.001 44.639-2.747 1.602-27.692 4.982-55.428 7.512l-50.428 4.597Zm92.068-17.117c5.847-15.242-2.345-29.989-16.663-29.989-7.054 0-14.551 4.495-16.663 9.994-5.847 15.242 2.348 29.993 16.663 29.993 7.054 0 14.551-4.499 16.663-9.998m-62.392.818c0-1.385-5.247-6.633-11.662-11.666-10.572-8.289-10.808-8.053-2.518 2.519 8.707 11.098 14.18 14.631 14.18 9.147m-29.197-111.587c-9.001-19.719-16.608-30.483-16.909-23.924-.618 13.497 25.366 67.683 30.156 62.893 1.715-1.715-4.248-19.25-13.247-38.969m-41.702-9.191c-2.111-5.498-6.883-9.997-10.604-9.997-3.903 0-3.253 4.233 1.526 9.997 4.565 5.495 9.336 9.994 10.605 9.994 1.272 0 .581-4.499-1.527-9.994m47.986-30.901c-10.445-26.104-75.111-125.717-81.612-125.717-1.592 0-1.527 2.25.145 4.997 55.163 90.796 70.317 117.082 77.509 134.446 4.772 11.513 10.143 19.461 11.942 17.662 1.799-1.795-1.792-15.921-7.98-31.388ZM1648.6 771.35c9.7-8.987 17.629-23.233 17.622-31.653-.007-8.424-27.79-61.799-61.744-118.616-59.709-99.921-62.5-103.366-85.316-105.292-30.723-2.591-59.527 18.908-59.527 44.431 0 17.593 112.688 211.719 129.089 222.374 15.169 9.856 42.687 4.688 59.876-11.244m50.958 14.046c0-1.264-6.436-8.013-14.3-14.994-14.221-12.629-14.257-12.618-6.429 2.296 6.498 12.382 20.729 21.097 20.729 12.698m-213.263-74.344c-20.708-30.094-36.72-43.112-18.447-14.994 5.357 8.246 13.922 21.743 19.028 29.989 5.11 8.249 11.71 14.994 14.668 14.994 2.962 0-3.903-13.493-15.249-29.989m193.268-26.656c-3.87-10.183-8.562-16.983-10.43-15.115-1.868 1.864.204 11.291 4.601 20.944 10.386 22.801 14.973 18.214 5.829-5.829m-53.618-93.002c-16.045-23.662-30.167-42.033-31.378-40.823s10.321 22.172 25.621 46.579c15.304 24.407 29.426 42.774 31.378 40.819 1.955-1.951-9.573-22.913-25.621-46.575m-137.353-107.222c-2.17-5.659-5.375-8.857-7.123-7.109-1.745 1.745-1.2 6.374 1.217 10.285 6.571 10.633 10.412 8.566 5.906-3.176m33.812-7.091c13.334-5.117 13.635-25.075.545-35.942-19.108-15.859-39.776 14.206-21.994 31.988 9.347 9.347 8.024 9.104 21.449 3.954m-468.996 193.814c-19.991-12.734-40.699-23.157-46.019-23.157-7.959 0-7.719-2.159 1.355-12.186 14.919-16.48 15.835-150.025 1.269-184.88l-9.762-23.364 88.667.887c86.693.868 89.571.432 129.532-19.741 38.206-19.287 45.58-20.631 113.204-20.631h72.334l38.624-29.993c21.242-16.492 42.375-29.989 46.961-29.989 11.891 0 109.908 64.99 113.088 74.98 1.453 4.579 3.859 33.023 5.346 63.212 2.464 50.166 1.842 53.662-7.254 40.674-5.666-8.09-11.317-35.419-13.112-63.431-2.733-42.567-5.415-50.994-19.832-62.336-31.984-25.16-58.801-18.099-120.374 31.704l-55.407 44.816 2.148 85.712c2.068 82.59 1.588 86.166-13.137 98.108-8.406 6.818-29.397 14.489-46.652 17.051-17.251 2.559-41.811 11.721-54.574 20.359-21.358 14.449-29.862 15.689-106.634 15.529l-83.425-.171Zm213.776-45.794c43.57-29.343 52.695-43.269 57.245-87.376 4.162-40.321-3.71-56.664-27.227-56.501-13.174.091-12.995.691 2.482 8.482 19.211 9.667 26.352 45.711 12.389 62.533-13.104 15.787-83.749 62.177-94.688 62.177-8.267 0-7.995-4.742 1.81-31.657 6.342-17.411 11.299-43.653 11.022-58.314-.45-23.64 1.756-27.543 19.483-34.481 17.106-6.694 8.37-7.897-60.443-8.333-77.855-.49-80.907.033-94.972 16.205-12.218 14.053-14.529 24.854-14.529 67.882 0 43.367 2.21 53.524 14.489 66.596 13.149 13.996 20.283 15.424 76.906 15.424 59.931 0 63.755-.901 96.033-22.637m25.839-95.063c0-12.879-3.478-15.59-19.995-15.59-17.51 0-19.995 2.344-19.995 18.883 0 24.661 4.604 28.423 23.992 19.588 10.249-4.67 15.998-12.887 15.998-22.881m-216.618-28.859c5.96-18.785-1.075-26.718-23.702-26.718-16.088 0-19.599 2.784-19.599 15.551 0 19.453 4.892 24.436 23.989 24.436 9.224 0 16.739-5.164 19.312-13.269m308.588-41.382c4.397-4.397 7.995-15.794 7.995-25.323 0-35.138-37.923-46.172-57.26-16.662-10.114 15.434-10.114 17.887 0 33.321 11.698 17.855 35.829 22.1 49.265 8.664m-37.127-13.134c-11.8-11.796-10.092-24.032 4.437-31.809 9.315-4.986 14.704-4.256 20.544 2.78 17.43 21.002-5.898 48.112-24.981 29.029M235.769 637.744c-2.111-5.499-7.693-9.998-12.407-9.998-8.158 0-16.662-13.937-16.662-27.307 0-3.747 76.041-5.516 191.335-4.452l191.335 1.767 4.451 21.772c5.263 25.755-3.354 33.798-20.035 18.701-10.684-9.67-12.846-9.739-20.391-.654-11.324 13.646-44.217 13.156-49.548-.738-3.874-10.095-5.077-10.095-16.234 0-16.041 14.519-45.002 14.086-50.722-.759-4.277-11.106-4.804-11.106-11.04 0-7.683 13.686-49.741 16.259-54.48 3.332-2.442-6.665-4.823-6.665-11.884 0-4.859 4.583-18.479 8.33-30.269 8.33-11.793 0-22.811-3.747-24.494-8.33-2.442-6.665-4.819-6.665-11.884 0-12.512 11.804-52.35 10.641-57.071-1.668Zm373.861 2.885c-7.279-11.778 1.069-14.533 45.296-14.947 43.261-.407 61.454 4.87 54.662 15.852-5.332 8.631-94.561 7.825-99.958-.905m113.299 0c-7.567-12.239 1.962-14.921 49.853-14.038 25.548.472 48.265-2.075 50.482-5.659 2.497-4.045-16.982-6.538-51.35-6.574l-55.374-.054-29.993-46.194c-16.495-25.41-32.518-46.379-35.611-46.597s-7.192 5.6-9.107 12.93c-3.373 12.883-9.075 13.326-170.991 13.29l-167.502-.036-38.319-49.636c-21.078-27.3-38.322-50.874-38.322-52.386 0-5.411 263.466-2.817 274.037 2.696 5.931 3.097 12.927 3.486 15.547.865 2.617-2.62 51.253-5.171 108.077-5.665 65.902-.578 106.008-3.594 110.747-8.333 4.884-4.885 46.655-7.429 121.984-7.429 150.564 0 145.218-3.765 148.216 104.468 2.01 72.603 1.025 80.493-12.149 97.239l-14.333 18.225H853.072c-81.874 0-127.283-2.482-130.143-7.108Zm246.861-19.548c-2.264-3.667-22.685-6.618-45.376-6.563-29.099.073-38.315 2.006-31.265 6.563 13.486 8.715 82.027 8.715 76.641 0m-7.89-61.068c34.757-18.513 41.488-55.894 14.86-82.525-20.576-20.573-44.34-20.834-67.69-.748-12.963 11.149-18.141 21.914-18.141 37.708s5.178 26.558 18.141 37.708c20.337 17.495 31.592 19.166 52.83 7.857m-47.309-20.573c-16.227-19.745-9.078-54.996 12.548-61.857 18.894-6 45.983 13.566 45.983 33.209 0 30.178-40.844 50.166-58.531 28.648m38.275-14.675c11.912-14.358 2.144-38.206-14.624-35.698-19.814 2.962-29.906 21.554-18.898 34.819 10.917 13.155 23.07 13.471 33.522.879m-559.559 5.706c0-7.41-22.841-42.68-27.642-42.68-5.073 0-32.336 35.982-32.336 42.68 0 2.184 13.493 3.972 29.989 3.972 16.495 0 29.989-1.788 29.989-3.972M91.061 565.668c-59.72-64.492-64.303-71.401-64.303-96.985v-27.544h183.543l44.926 59.979 44.929 59.981h364.626l17.644 26.661 17.64 26.656h-45.968c-40.365 0-46.394-1.624-49.454-13.33-3.387-12.937-9.093-13.326-195.082-13.326-188.22 0-191.396-.226-180.069-12.742 17.586-19.432 11.488-48.828-11.825-56.98-16.354-5.72-20.799-4.462-31.657 8.944-16.314 20.148-15.943 24.749 3.597 44.289 8.93 8.93 13.349 18.015 9.824 20.192-3.526 2.18-5.579 11.982-4.569 21.787 1.607 15.539-.81 18.087-18.832 19.842-18.618 1.814-27.056-4.884-84.97-67.424m98.235-7.432c-6.636-17.292 2.667-31.585 19.043-29.259 11.011 1.563 15.023 6.578 15.023 18.792s-4.012 17.234-15.023 18.796c-9.013 1.279-16.634-2.053-19.043-8.329M16.731 412.815c-18.167-51.38-22.335-138.291-6.636-138.291 5.499 0 9.998-2.998 9.998-6.665 0-3.663-4.499-6.665-9.998-6.665-13.871 0-13.333-54.12.909-91.414l10.902-28.546h96.444c89.197 0 96.087.876 91.741 11.662-2.588 6.414-6.248 22.499-8.134 35.742-3.161 22.179-1.799 24.643 17.317 31.308 20.122 7.014 20.751 8.446 20.751 47.332 0 42.865-8.264 53.898-40.365 53.898-10.833 0-12.843 2.144-7.82 8.329 3.721 4.583 8.078 21.827 9.681 38.323s5.244 35.24 8.093 41.654c4.801 10.812-1.937 11.662-92.38 11.662-72.033 0-98.329-2.18-100.503-8.329m112.841-29.866c-32.66-2.326-34.303-3.423-48.32-32.267-11.327-23.321-14.507-41.957-14.507-85.058 0-71.382 5.862-79.995 52.263-76.797 28.088 1.933 34.357.48 32.82-7.606-1.334-7.018-12.128-10.59-36.237-11.989-32.198-1.872-35.411-.589-51.59 20.62-15.075 19.766-17.248 29.029-17.248 73.49 0 41.807 3.216 57.434 18.047 87.678l18.051 36.803 40.267-1.232 40.263-1.236Zm40.474-48.443c2.264-3.667.941-6.665-2.94-6.665-3.882 0-7.058 2.998-7.058 6.665 0 3.663 1.323 6.665 2.94 6.665s4.794-2.998 7.058-6.665m-29.989-19.995c0-3.663-3.002-6.665-6.665-6.665-3.667 0-6.665-10.816-6.665-24.037 0-18.632 2.249-23.175 9.997-20.202 11.233 4.31 12.665-1.206 3.903-15.045-12.367-19.53-27.231-2.439-27.231 31.308 0 17.829 1.999 34.419 4.445 36.865 6.814 6.814 22.216 5.273 22.216-2.224m76.811 86.973c-12.389-23.961-13.548-66.698-1.835-67.669 4.579-.378 30.821-.17 58.314.462s57.481-1.864 66.647-5.553c13.192-5.31 4.873-6.789-39.991-7.108l-56.645-.407 2.147-52.514 2.148-52.51-20.22-7.05-20.221-7.047 10.369-30.429 10.368-30.425 234.298.334 234.298.331-51.151 26.155c-28.136 14.388-53.055 29.23-55.377 32.991-2.323 3.758-33.286 7.457-68.81 8.217l-64.586 1.384 61.646 2.199 61.647 2.199v106.132h-97.745c-53.76 0-96.32 1.428-94.572 3.176 4.318 4.317 70.234 8.853 139.022 9.565l56.667.589 49.966 37.061c27.478 20.38 52.812 39.874 56.293 43.319 3.951 3.903-81.877 6.258-228.087 6.258H227.037ZM424.815 209.68c-13.824-1.443-34.819-1.418-46.652.054-11.829 1.472-.516 2.65 25.141 2.621 25.661-.03 35.339-1.232 21.511-2.675m734.914 161.48v-49.984h19.995c10.997 0 19.992-3.075 19.992-6.832 0-3.754-8.995-8.628-19.992-10.83-18.501-3.7-19.995-6.138-19.995-32.711 0-26.373 1.498-28.888 18.327-30.825 10.082-1.16 18.331-5.106 18.331-8.773s-8.249-7.614-18.331-8.773c-17.694-2.035-18.327-3.467-18.327-41.655 0-30.145 2.304-39.543 9.689-39.543 5.328 0 39.474 17.993 75.878 39.987 36.407 21.994 68.213 39.986 70.68 39.986 11.87 0-7.922-14.554-64.422-47.382l-61.832-35.924 109.962-1.904c60.484-1.046 115.966-.341 123.297 1.567 8.14 2.115 28.364 29.196 51.957 69.572l38.628 66.109 91.897-3.638c61.65-2.442 96.101-1.199 104.66 3.769 10.891 6.323 8.791 7.439-14.362 7.61-20.468.152-30.676 4.292-41.608 16.866-7.97 9.162-18.658 16.659-23.753 16.659s-19.631 11.476-32.3 25.501l-23.037 25.497-39.387-28.594c-45.54-33.063-52.939-32.66-94.219 5.125l-28.176 25.788h-140.253v-21.994c0-25.814 10.037-37.988 31.323-37.988 8.431 0 15.329-2.479 15.329-5.51s-9.075-4.179-20.163-2.551c-24.628 3.616-39.819 23.753-39.819 52.779 0 20.253-3.22 23.382-46.485 45.169-25.566 12.876-48.058 23.411-49.984 23.411-1.922 0-3.5-22.492-3.5-49.984m232.561-19.148c10.238-12.338 3.035-28.648-14.758-33.42-19.145-5.135-73.952-5.157-87.296-.036-10.485 4.023-14.584 29.68-6.102 38.166 8.809 8.805 100.241 4.826 108.156-4.71m-81.205-10.841c-3.046-11.651-.204-13.33 22.546-13.33 21.594 0 26.035 2.275 26.035 13.33 0 10.703-4.441 13.326-22.546 13.326-16.946 0-23.419-3.31-26.035-13.326m248.518-43.715c0-10.997-10.532-12.854-16.662-2.937-5.433 8.795 2.536 21.275 10.459 16.376 3.412-2.108 6.203-8.155 6.203-13.439m-117.718-22.932c1.894 0 4.561 5.248 5.928 11.662 1.719 8.064 3.641 6.011 6.229-6.654 2.057-10.078.167-23.211-4.205-29.19-6.927-9.47-9.809-7.297-22.401 16.859-17.637 33.834-18.207 42.346-1.501 22.318 6.88-8.246 14.061-14.995 15.95-14.995m-75.554 6.665c0-7.406-4.444-13.33-9.997-13.33-5.499 0-10.041-5.248-10.1-11.662-.083-9.968-1.039-10.208-6.559-1.664-9.416 14.562-8.086 26.783 2.471 22.731 5.026-1.929 10.928 1.167 13.119 6.876 5.539 14.435 11.066 12.96 11.066-2.951m33.634-6.16c7.716 12.484 13.131 5.339 14.882-19.642.894-12.8 4.499-19.81 9.249-17.997 8.628 3.293 15.544-10.255 15.544-30.45 0-7.432-3.024-11.306-6.934-8.89-3.816 2.359-4.979 10.783-2.584 18.72 3.409 11.302 2.565 12.741-3.874 6.625-4.525-4.295-12.356-6.225-17.408-4.285-6.014 2.308-9.187-1.326-9.187-10.517 0-16.92-4.979-17.633-21.133-3.013-13.984 12.655-16.139 28.91-3.859 29.059 6.033.073 5.796 1.708-.854 5.92-5.052 3.198-7.094 9.202-4.536 13.334 2.555 4.136 7.679 5.644 11.393 3.351 3.755-2.323 6.164 1.323 5.434 8.22-1.977 18.738 1.341 27.416 5.007 13.09 2.541-9.924 4.438-10.68 8.86-3.525m-11.269-28.717c-6.898-11.16 4.543-14.384 14.766-4.157 9.099 9.096 9.052 10.153-.451 10.153-5.833 0-12.276-2.696-14.315-5.996m-29.03-17.894c0-7.033 1.821-17.528 4.045-23.325 2.224-5.8 1.054-10.542-2.602-10.542s-7.875 10.495-9.372 23.324c-1.498 12.828-.328 23.327 2.605 23.327 2.929 0 5.324-5.752 5.324-12.784M676.55 384.083c-71.848-53.974-76.641-61.432-76.641-119.193v-50.348h133.853l-1.948 51.653-1.948 51.648-51.648 1.948c-68.199 2.57-66.825 14.715 1.664 14.715h53.317v39.987c0 27.641-2.57 39.932-8.33 39.808-4.582-.098-26.326-13.693-48.316-30.218Zm76.644-9.59v-33.322h26.449c20.137 0 25.581 2.264 22.808 9.485-7.05 18.371 37.276 29.935 75.482 19.694 8.126-2.177 16.575-9.635 18.778-16.572 3.688-11.626 11.742-12.607 103.286-12.607 92.464 0 99.772.916 106.416 13.326 4.172 7.796 13.955 13.331 23.56 13.331 13.81 0 16.43 3.187 16.43 19.995v19.991H753.194Zm840.737 4.542c-7.748-9.332 3.893-32.798 24.571-49.53 11.713-9.474 94.386-11.56 94.386-2.376 0 7.7-16.793 14.042-37.181 14.042-9.038 0-27.423 10.23-41.916 23.324-29.179 26.362-29.847 26.606-39.86 14.544Zm-840.737-94.513v-49.985l124.961-1.341c68.725-.737 102.036-2.358 74.017-3.601-43.945-1.948-51.413-4.052-54.36-15.318-2.962-11.331-9.326-13.061-47.982-13.061-38.962 0-45.006 1.675-48.055 13.326-2.594 9.929-9.089 13.33-25.442 13.33h-21.954l-2.261-39.997-2.257-40.001 198.269.011 198.273.014v22.492c0 19.435-2.602 23.011-19.13 26.318-11.495 2.301-20.515 9.129-22.605 17.121-2.813 10.764-10.274 13.766-39.187 15.769-25.436 1.762-18.93 2.827 22.604 3.706l58.318 1.232v99.969H753.194Zm963.946 33.321c-2.427-6.334-12.657-9.997-27.924-9.997-33.1 0-26.781-15.983 7.439-18.822 14.333-1.192 28.117-5.494 30.632-9.568 6.178-9.994 25.588 6.094 25.588 21.209 0 22.978-28.288 36.577-35.735 17.178M1497.31 227.4c-10.434-18.578-17.931-34.808-16.663-36.069 8.017-7.933 107.721-42.92 113.005-39.652 7.61 4.702 3.707 19.053-19.352 71.196-15.344 34.696-18.891 38.319-37.483 38.315-17.735-.007-23.117-4.611-39.507-33.79m55.228-14.144c13.127-23.462 6.556-28.895-18.974-15.693-12.839 6.64-20.612 15.795-20.612 24.28 0 19.861 26.94 14.017 39.586-8.587m-945.964-9.162c0-2.079 27.739-16.775 61.646-32.653l61.646-28.87 2.112 23.357c3.645 40.347 1.148 41.953-65.215 41.953-33.104 0-60.189-1.705-60.189-3.787M20.093 121.49c0-3.529 12.905-22.274 28.681-41.655 27.216-33.442 30.443-35.339 63.31-37.25l34.638-2.017v87.336H83.407c-36.123 0-63.314-2.755-63.314-6.414m99.267-22.732c16.55-19.941-10.779-45.06-29.095-26.744-12.283 12.284-12.687 17.408-2.191 27.9 10.539 10.542 21.928 10.121 31.286-1.156m40.688-12.505 3.333-41.655 128.293-1.81c121.439-1.715 128.293-1.145 128.293 10.63 0 6.843 5.484 17.404 12.185 23.47 11.004 9.957 45.009 11.029 349.89 11.029h337.701v39.416l-356.551.396c-353.201.389-356.555.266-356.555-13.046 0-17.375-13.527-17.455-18.062-.106-3.314 12.673-9.093 13.327-117.67 13.331H156.716Zm981.045 4.997 1.977-26.657h273.246l2.053 24.731 2.053 24.734-140.653 1.926-140.649 1.922Zm291.809-3.333-3.256-29.989h-150.774c-117.882 0-150.077-1.817-147.573-8.333 2.293-5.971 24.138-8.329 77.146-8.329 73.697 0 74.017-.07 95.302-20.701C1324.139.803 1327.577-.128 1379.592.011c29.968.079 55.865 1.526 57.551 3.212s2.151 28.179 1.039 58.874c-1.548 42.606-2.794 48.715-5.28 25.82m-19.919-56.649c0-5.499-4.499-9.998-9.998-9.998-10.404 0-13.221 7.883-5.553 15.551 7.669 7.672 15.551 4.855 15.551-5.553M434.627 66.592c-11.557-11.557-9.819-25.326 3.195-25.326 6.152 0 21.637 3.75 34.408 8.329 18.578 6.665 23.782 6.665 26.02 0 3.344-9.939 25.836-11.12 31.683-1.664 2.264 3.663 11.437 6.665 20.384 6.665s16.27-3.002 16.27-6.665c0-12.08 24.847-6.942 34.176 7.068l9.143 13.73 14.715-13.73c17.36-16.197 32.326-17.68 37.679-3.736 5.004 13.036 20.551 12.738 33.939-.647 11.364-11.364 31.57-8.14 28.692 4.576-2.976 13.148 22.081 12.319 33.583-1.112 13.639-15.933 25.323-16.329 34.034-1.152 6.375 11.109 7.687 11.109 27.529 0 26.308-14.726 33.085-14.675 33.085.239 0 15.94 27.191 16.031 38.697.131 10.59-14.631 25.152-15.605 30.36-2.035 2.108 5.499 11.106 9.998 19.991 9.998s17.884-4.499 19.995-9.998c4.819-12.563 24.248-13.188 24.248-.778 0 15.329 26.205 17.979 35.211 3.562 10.241-16.397 22.426-16.281 31.301.298 7.635 14.268 24.392 12.138 38.133-4.852 10.507-12.981 28.645-5.665 28.645 11.557 0 13.432-2.701 13.537-338.559 13.537-254.438 0-340.546-1.988-346.557-7.995"/></svg>